#N struct bckgrnd float x float y float width float height float color
;
#N canvas 961 65 835 353 16;
#X scalar bckgrnd 0 0 511.22 319.513 337 \;;
#X obj 524 78 mob;
#X obj 18 23 mob/button pad pad-rcv 0;
#X text 139 146 TRIBUTE TO MARTENOT;
#N canvas 839 200 420 521 audio-stuf 0;
#X obj 157 231 lop~ 10;
#X obj 77 379 *~;
#X obj 76 420 dac~;
#X obj 45 147 line~;
#X obj 159 15 r pad.xy;
#X msg 158 48 \$1;
#X obj 51 58 r pad;
#X msg 45 119 \$1 100;
#X obj 158 198 mtof;
#X obj 51 88 * 0.1;
#X obj 157 116 * 64;
#X obj 158 143 int;
#X obj 160 172 + 40;
#X obj 160 266 osc~;
#X obj 173 300 abs~;
#X obj 171 340 *~;
#X obj 157 82 clip 0 1;
#X msg 289 291 \; pd dsp 1;
#X obj 289 263 loadbang;
#X connect 0 0 13 0;
#X connect 1 0 2 0;
#X connect 1 0 2 1;
#X connect 3 0 1 0;
#X connect 4 0 5 0;
#X connect 5 0 16 0;
#X connect 6 0 9 0;
#X connect 7 0 3 0;
#X connect 8 0 0 0;
#X connect 9 0 7 0;
#X connect 10 0 11 0;
#X connect 11 0 12 0;
#X connect 12 0 8 0;
#X connect 13 0 14 0;
#X connect 13 0 15 0;
#X connect 14 0 15 1;
#X connect 15 0 1 1;
#X connect 16 0 10 0;
#X connect 18 0 17 0;
#X restore 529 245 pd audio-stuf;
#N canvas 0 50 450 300 mob-listeners 0;
#X obj 20 0 mob/tools/loader2 martenot;
#X restore 524 48 pd mob-listeners;
