#N struct bckgrnd float x float y float width float height float color
;
#N canvas 0 0 1920 1021 16;
#X declare -lib iemlib;
#X declare -lib iemguts;
#X scalar bckgrnd 0 0 1024 768 653 \;;
#X obj 26 0 cnv 15 1280 750 empty empty empty 20 12 0 14 #e0c4fc #404040
0;
#X obj 442 642 hsl 800 100 0 1 0 0 xSliderMove xSliderMove-rcv <--DEPLACEMENT-->
140 40 0 50 #c4fcfc #c4fcfc #00f8fc 0 0;
#X obj 442 340 hsl 800 300 0 1 0 0 backslider backslider-rcv empty
-2 -8 0 10 #fcfcfc #000000 #000000 0 1;
#X obj 442 338 hsl 800 300 0 1 0 0 xSlider1 xSlider1-rcv empty -2 -8
0 10 #fcfcfc #000000 #000000 0 1;
#X obj 442 338 mob/lcd myLCD2 myLCD2-rcv 3;
#X obj 56 428 cnv 15 350 160 empty empty DESSINER_LA_PARTITION 30 18
0 24 #fcfcc4 #404040 0;
#X obj 290 469 bng 100 250 50 0 clearButton2 clearButton2-rcv EFFACER
5 50 0 20 #f8fc00 #000000 #000000;
#X obj 80 459 vradio 60 1 0 2 penMode penMode-rcv empty 0 -8 0 8 #e0c4fc
#000000 #000000 0;
#X obj 142 478 cnv 15 100 60 empty empty CRAYON 5 12 0 24 #fcfcc4 #404040
0;
#X obj 144 534 cnv 15 100 40 empty empty GOMME 5 12 0 24 #fcfcc4 #9c9c9c
0;
#X text 316 482 TOUT;
#X obj 599 294 bng 40 250 50 0 saveAsButton saveAsButton-rcv SAUVER
0 -8 0 12 #fc0400 #000000 #000000;
#X obj 530 292 bng 40 250 50 0 openButton openButton-rcv CHARGER 0
-8 0 12 #00f8fc #000000 #000000;
#N canvas -115 103 1920 1023 stuff 0;
#X msg 647 444 list /myTableA refresh;
#X obj 647 476 send toGUI;
#X obj 518 235 f;
#X obj 519 278 + 1;
#X obj 746 644 table matrix 40000;
#X obj 571 230 mod 200;
#X obj 554 315 / 200;
#N canvas 639 360 490 489 scanning 0;
#X obj 71 25 inlet curseur;
#X obj 65 147 until;
#X obj 55 292 tabread matrix;
#X obj 62 175 f;
#X obj 102 177 + 1;
#X obj 103 83 t b b f;
#X msg 121 144 0;
#X obj 102 238 +;
#X obj 104 202 t f f;
#X msg 91 111 200;
#X obj 155 173 * 200;
#N canvas 679 277 835 525 pixel_event_tracker 0;
#X obj 28 30 inlet valeur;
#X obj 316 37 inlet indice;
#X obj 320 233 -;
#X obj 336 287 select -1 1;
#X obj 317 164 t f f f;
#X obj 304 450 pack f f;
#X msg 301 333 0;
#X msg 417 335 64;
#X obj 282 481 outlet;
#X obj 131 178 t f f f;
#X obj 320 396 swap;
#X msg 18 428 const 0;
#X obj 118 76 route stop;
#X msg 209 424 stop;
#X obj 106 354 t b b;
#X obj 315 195 tabread /myTableA;
#X obj 18 453 s /myTableA;
#X obj 69 238 tabwrite /myTableA;
#X connect 0 0 12 0;
#X connect 1 0 4 0;
#X connect 2 0 3 0;
#X connect 3 0 6 0;
#X connect 3 1 7 0;
#X connect 4 0 17 1;
#X connect 4 1 15 0;
#X connect 4 2 10 1;
#X connect 5 0 8 0;
#X connect 6 0 10 0;
#X connect 7 0 10 0;
#X connect 9 0 17 0;
#X connect 9 1 2 0;
#X connect 10 0 5 0;
#X connect 10 1 5 1;
#X connect 11 0 16 0;
#X connect 12 0 14 0;
#X connect 12 1 9 0;
#X connect 13 0 8 0;
#X connect 14 0 11 0;
#X connect 14 1 13 0;
#X connect 15 0 2 1;
#X restore 76 343 pd pixel_event_tracker;
#X obj 72 375 outlet;
#X obj 71 47 route stop;
#X msg 71 69 stop;
#X connect 0 0 13 0;
#X connect 1 0 3 0;
#X connect 2 0 11 0;
#X connect 3 0 4 0;
#X connect 3 0 8 0;
#X connect 4 0 3 1;
#X connect 5 0 9 0;
#X connect 5 1 6 0;
#X connect 5 2 10 0;
#X connect 6 0 3 1;
#X connect 7 0 2 0;
#X connect 8 0 7 0;
#X connect 8 1 11 1;
#X connect 9 0 1 0;
#X connect 10 0 7 1;
#X connect 11 0 12 0;
#X connect 13 0 14 0;
#X connect 13 1 5 0;
#X connect 14 0 11 0;
#X restore 867 353 pd scanning;
#X obj 743 255 t b f;
#X obj 524 153 f 1;
#X obj 578 149 == 0;
#X msg 709 144 0;
#X msg 794 325 stop;
#N canvas 0 57 1920 1023 draw/store 0;
#X obj 116 30 inlet;
#X obj 442 355 int;
#X obj 501 479 +;
#X obj 30 378 t f f;
#X obj 49 134 unpack f f;
#X obj 121 371 t f f;
#X obj 1169 918 tabwrite matrix;
#X obj 27 316 int;
#X obj 114 313 int;
#X msg 34 168 \$1 20;
#X msg 130 168 \$1 20;
#X obj 19 211 line 0 1;
#X obj 111 204 line 0 1;
#X obj 168 128 unpack f f;
#X obj 618 308 * -200;
#X obj 621 364 + 200;
#X obj 441 328 * 200;
#X obj 452 425 * 200;
#X obj 28 349 / 200;
#X obj 122 344 / 200;
#X obj 26 283 * 200;
#X obj 112 279 * 200;
#X obj 19 412 - 0.005;
#X obj 99 409 + 0.005;
#X obj 168 410 - 0.005;
#X obj 243 406 + 0.005;
#X obj 49 951 outlet;
#X obj 44 443 pack f f f f f;
#X msg 44 481 paintrect \$1 \$2 \$3 \$4 \$5 \$5 \$5 1;
#X obj 93 68 route 2 1 0;
#X text 252 27 2 update;
#X text 254 53 1 touch down;
#X text 253 79 0 touch up;
#X obj 162 727 s \$0-refresh;
#X obj 1067 480 t f f;
#X obj 1246 659 f;
#X msg 994 544 \$1 -1 \, \$1 0 \, \$1 1;
#X obj 994 580 +;
#X obj 1037 511 div 200;
#X obj 1116 584 clip 0 199;
#X obj 1248 551 mod 200;
#X msg 1227 704 \$1 -1 \, \$1 0 \, \$1 1;
#X obj 1235 739 +;
#X obj 1233 771 clip 0 199;
#X obj 1418 697 * 200;
#X obj 1241 815 +;
#X obj 1201 619 t b f;
#X obj 1174 847 t b f;
#X obj 501 508 list prepend 0;
#X obj 503 547 route 0 1;
#X text 677 72 0 = pen;
#X text 681 102 1 = erase;
#X obj 496 690 tabwrite matrix;
#X msg 501 636 1;
#X msg 1174 876 0;
#X text 1171 430 elargir la gomme a un carre de 3x3;
#N canvas 0 50 967 733 matric_to_pix 0;
#X obj 196 486 t f f;
#X obj 257 490 t f f;
#X obj 131 614 pack f f f f;
#X obj 226 422 int;
#X obj 286 422 int;
#X obj 207 456 / 200;
#X obj 267 460 / 200;
#X obj 128 523 - 0.005;
#X obj 209 540 + 0.005;
#X obj 248 573 - 0.005;
#X obj 349 532 + 0.005;
#X obj 192 133 tabread matrix;
#X obj 363 296 pack f f;
#X obj 235 345 list append;
#X obj 196 248 select 1;
#X obj 227 387 unpack f f;
#X obj 327 218 div 200;
#X obj 421 206 mod 200;
#X obj 421 228 * -1;
#X obj 421 250 + 200;
#X msg 100 672 paintrect \$1 \$2 \$3 \$4 0 0 0 1;
#X obj 287 103 t f f f;
#X obj 289 56 inlet;
#X obj 198 207 == 0;
#X obj 88 718 outlet;
#X text 224 719 vers le LCD;
#X connect 0 0 7 0;
#X connect 0 1 8 0;
#X connect 1 0 9 0;
#X connect 1 1 10 0;
#X connect 2 0 20 0;
#X connect 3 0 5 0;
#X connect 4 0 6 0;
#X connect 5 0 0 0;
#X connect 6 0 1 0;
#X connect 7 0 2 0;
#X connect 8 0 2 2;
#X connect 9 0 2 1;
#X connect 10 0 2 3;
#X connect 11 0 23 0;
#X connect 12 0 13 1;
#X connect 13 0 15 0;
#X connect 14 0 13 0;
#X connect 15 0 3 0;
#X connect 15 1 4 0;
#X connect 16 0 12 0;
#X connect 17 0 18 0;
#X connect 18 0 19 0;
#X connect 19 0 12 1;
#X connect 20 0 24 0;
#X connect 21 0 11 0;
#X connect 21 1 16 0;
#X connect 21 2 17 0;
#X connect 22 0 21 0;
#X connect 23 0 14 0;
#X restore 489 822 pd matric_to_pix;
#X obj 507 595 t b f f;
#X obj 164 674 select 1;
#X obj 24 251 spigot;
#X obj 206 342 t b;
#X obj 447 391 clip 0 199;
#X text 78 900 vers le LCD;
#X text 572 51 penMode;
#X text 93 0 from LCD;
#X obj 573 94 inlet;
#X obj 165 632 f;
#X obj 308 183 t f f f f;
#X text 113 562 rafraichir l'affichage apres usage de la gomme, f
17;
#X text 442 278 enregistrer le point dans la matrice;
#X text 532 789 dessiner sur le LCD (mode crayon);
#X text 53 512 dessiner sur le LCD (mode gomme);
#X obj 619 334 int;
#X obj 582 443 clip 0 199;
#X connect 0 0 29 0;
#X connect 1 0 61 0;
#X connect 2 0 48 0;
#X connect 3 0 22 0;
#X connect 3 1 23 0;
#X connect 4 0 9 0;
#X connect 4 1 10 0;
#X connect 5 0 24 0;
#X connect 5 1 25 0;
#X connect 7 0 18 0;
#X connect 8 0 19 0;
#X connect 9 0 11 0;
#X connect 10 0 12 0;
#X connect 11 0 16 0;
#X connect 11 0 59 0;
#X connect 12 0 21 0;
#X connect 12 0 14 0;
#X connect 13 0 11 0;
#X connect 13 1 12 0;
#X connect 14 0 72 0;
#X connect 15 0 73 0;
#X connect 16 0 1 0;
#X connect 17 0 2 0;
#X connect 18 0 3 0;
#X connect 19 0 5 0;
#X connect 20 0 7 0;
#X connect 21 0 8 0;
#X connect 22 0 27 0;
#X connect 23 0 27 2;
#X connect 24 0 27 1;
#X connect 25 0 27 3;
#X connect 27 0 28 0;
#X connect 28 0 26 0;
#X connect 29 0 4 0;
#X connect 29 1 13 0;
#X connect 29 2 60 0;
#X connect 34 0 38 0;
#X connect 34 1 40 0;
#X connect 35 0 41 0;
#X connect 36 0 37 0;
#X connect 37 0 39 0;
#X connect 38 0 36 0;
#X connect 39 0 46 0;
#X connect 40 0 35 1;
#X connect 41 0 42 0;
#X connect 42 0 43 0;
#X connect 43 0 45 0;
#X connect 44 0 45 1;
#X connect 45 0 47 0;
#X connect 46 0 35 0;
#X connect 46 1 44 0;
#X connect 47 0 54 0;
#X connect 47 1 6 1;
#X connect 48 0 49 0;
#X connect 49 0 57 0;
#X connect 49 1 34 0;
#X connect 53 0 52 0;
#X connect 54 0 6 0;
#X connect 56 0 26 0;
#X connect 57 0 53 0;
#X connect 57 1 52 1;
#X connect 57 2 56 0;
#X connect 58 0 33 0;
#X connect 59 0 20 0;
#X connect 60 0 66 0;
#X connect 61 0 17 0;
#X connect 65 0 67 0;
#X connect 66 0 58 0;
#X connect 67 0 59 1;
#X connect 67 1 27 4;
#X connect 67 2 66 1;
#X connect 67 3 48 1;
#X connect 72 0 15 0;
#X connect 73 0 2 1;
#X restore 39 427 pd draw/store;
#N canvas 0 50 450 300 clear 0;
#X obj 180 60 inlet;
#X obj 161 97 t b b;
#X msg 301 110 \; matrix const 0;
#X obj 170 154 s myLCD2-rcv;
#X msg 157 122 clear;
#X connect 0 0 1 0;
#X connect 1 0 4 0;
#X connect 1 1 2 0;
#X connect 4 0 3 0;
#X restore 41 543 pd clear;
#X obj 310 151 * 200;
#X obj 310 173 int;
#X obj 40 396 r myLCD2;
#X obj 39 458 s myLCD2-rcv;
#X obj 40 500 r clearButton2;
#X obj 301 79 r xSliderMove;
#X obj 484 75 r playPauseButton;
#X obj 531 116 t b;
#X obj 708 103 t b b;
#X obj 704 70 r stopButton;
#X obj 488 357 s xSlider1-rcv;
#X text 737 617 200 x 200 matrix array;
#X text 749 690 sample;
#X obj 1194 437 r saveAsButton;
#X obj 1392 437 r openButton;
#X obj 866 312 f;
#X obj 869 72 r clearButton2;
#X obj 1038 68 r myLCD2;
#X obj 1028 101 t b;
#X obj 1028 130 delay 100;
#X obj 855 162 delay 100;
#X text 948 698 0.37 secondes;
#X obj 756 760 table BANK-2 16387;
#X obj 760 836 table rec-l 16384;
#X obj 761 870 table rec-r 16384;
#N canvas 0 50 450 300 mob-listeners 0;
#X obj 20 50 mob/tools/listenerCnv empty empty;
#X obj 20 100 mob/tools/listener_lin xSliderMove xSliderMove-rcv 1
0 1;
#X obj 20 150 mob/tools/listener_lin backslider backslider-rcv 2 0
1;
#X obj 20 200 mob/tools/listener_lin xSlider1 xSlider1-rcv 3 0 1;
#X obj 20 250 mob/tools/listenerCnv empty empty;
#X obj 20 300 mob/tools/listenerBng clearButton2 4 250 50;
#X obj 20 350 mob/tools/listenerVradio penMode penMode-rcv 5 2;
#X obj 20 400 mob/tools/listenerCnv empty empty;
#X obj 20 450 mob/tools/listenerCnv empty empty;
#X obj 20 500 mob/tools/listenerBng saveAsButton 6 250 50;
#X obj 20 550 mob/tools/listenerBng openButton 7 250 50;
#X obj 20 600 mob/tools/listenerCnv empty empty;
#X obj 20 650 mob/tools/listenerBng playPauseButton 8 250 50;
#X obj 20 700 mob/tools/listenerBng stopButton 9 250 50;
#X obj 20 750 mob/tools/listenerCnv empty empty;
#X obj 20 800 mob/tools/listener_lin SPEED SPEED-rcv 10 0.25 8;
#X obj 20 850 mob/tools/listener_lin nop nop-rcv 11 0 127;
#X obj 20 900 mob/tools/listenerCnv empty empty;
#X obj 20 950 mob/tools/listenerBng env_reset 12 250 50;
#X obj 20 1000 mob/tools/listenerCnv empty empty;
#X obj 20 0 mob/tools/loader2 MobMupic3;
#X restore 1444 41 pd mob-listeners;
#X obj 57 694 loadbang;
#X msg 57 723 \; pd dsp 1;
#X obj 50 787 declare -lib iemlib;
#X obj 48 821 declare -lib iemguts;
#N canvas 0 50 1016 796 sample_save/load 0;
#X text 544 71 sample_save;
#X text 19 17 sample_load;
#X text 254 26 sample_select;
#X obj 22 191 openpanel;
#X obj 14 130 pdcontrol;
#X msg 19 102 dir;
#X msg 17 161 symbol \$1/UpicMachine/data/wav;
#X obj 73 324 list prepend 0;
#X obj 54 358 route 0 1 2;
#X obj 376 403 r default_sample;
#X obj 39 469 list append;
#X obj 59 509 list append;
#X obj 109 549 list append;
#X obj 183 390 select 0 1 2;
#X obj 230 732 soundfiler;
#X msg 230 651 read \$1 BANK BANK-2;
#X obj 475 194 pdcontrol;
#X msg 480 166 dir;
#X msg 478 225 symbol \$1/UpicMachine/data/wav;
#X obj 478 261 savepanel;
#X obj 451 574 list append;
#X obj 463 653 bng 15 250 50 0 empty empty empty 17 7 0 10 #fcfcfc
#000000 #000000;
#X obj 423 521 bng 15 250 50 0 empty empty empty 17 7 0 10 #fcfcfc
#000000 #000000;
#X obj 451 603 route bang;
#X obj 230 692 t a;
#X obj 40 583 route bang;
#X obj 40 612 t b;
#X obj 40 641 delay;
#X obj 40 670 s sample_load-rcv;
#X obj 28 222 t b s;
#X obj 478 290 t s s;
#X obj 573 367 soundfiler;
#X msg 565 318 write -wave \$1 BANK BANK-2;
#X obj 22 63 inlet;
#X obj 481 121 inlet;
#X obj 268 119 t f f f;
#X obj 264 265 f;
#X obj 269 76 inlet;
#X connect 3 0 29 0;
#X connect 4 0 6 0;
#X connect 5 0 4 0;
#X connect 6 0 3 0;
#X connect 7 0 8 0;
#X connect 8 0 10 1;
#X connect 8 1 11 1;
#X connect 8 2 12 1;
#X connect 9 0 10 1;
#X connect 9 0 11 1;
#X connect 9 0 12 1;
#X connect 10 0 25 0;
#X connect 11 0 25 0;
#X connect 12 0 25 0;
#X connect 13 0 10 0;
#X connect 13 1 11 0;
#X connect 13 2 12 0;
#X connect 15 0 24 0;
#X connect 16 0 18 0;
#X connect 17 0 16 0;
#X connect 18 0 19 0;
#X connect 19 0 30 0;
#X connect 20 0 23 0;
#X connect 22 0 20 0;
#X connect 23 0 21 0;
#X connect 24 0 14 0;
#X connect 25 0 26 0;
#X connect 25 1 15 0;
#X connect 26 0 27 0;
#X connect 27 0 28 0;
#X connect 29 0 36 0;
#X connect 29 1 7 0;
#X connect 30 0 7 0;
#X connect 30 1 32 0;
#X connect 32 0 31 0;
#X connect 33 0 5 0;
#X connect 34 0 17 0;
#X connect 35 0 13 0;
#X connect 35 1 7 1;
#X connect 35 2 36 1;
#X connect 36 0 13 0;
#X connect 37 0 35 0;
#X restore 1193 221 pd sample_save/load;
#N canvas 918 98 934 832 sample_rec 0;
#X obj 139 142 catch~ out-l;
#X obj 239 142 catch~ out-r;
#X obj 211 219 dac~;
#X obj 121 181 adc~;
#X obj 107 103 bng 15 250 50 0 empty empty empty 17 7 0 10 #fcfcfc
#000000 #000000;
#X obj 234 186 *~ 0.2;
#X obj 303 189 *~ 0.2;
#N canvas 0 57 1920 1023 loop-adjust 0;
#X obj 350 194 - 1;
#X obj 226 189 - 2;
#X obj 102 136 t f b b f b f;
#X msg 131 178 0;
#X obj 85 180 - 3;
#X msg 83 104 16387;
#X obj 67 24 inlet;
#X obj 126 265 tabread BANK;
#X obj 120 317 tabwrite BANK;
#X obj 299 267 tabread BANK-2;
#X obj 293 319 tabwrite BANK-2;
#X msg 175 180 0;
#X msg 283 192 1;
#X obj 70 70 delay 2000;
#X connect 0 0 8 1;
#X connect 0 0 10 1;
#X connect 1 0 8 1;
#X connect 1 0 10 1;
#X connect 2 0 4 0;
#X connect 2 1 3 0;
#X connect 2 2 11 0;
#X connect 2 3 1 0;
#X connect 2 4 12 0;
#X connect 2 5 0 0;
#X connect 3 0 8 1;
#X connect 3 0 10 1;
#X connect 4 0 7 0;
#X connect 4 0 9 0;
#X connect 5 0 2 0;
#X connect 6 0 13 0;
#X connect 7 0 8 0;
#X connect 9 0 10 0;
#X connect 11 0 7 0;
#X connect 11 0 9 0;
#X connect 12 0 7 0;
#X connect 12 0 9 0;
#X connect 13 0 5 0;
#X restore 230 392 pd loop-adjust;
#X obj 93 73 t b b b;
#X obj 84 278 tabwrite~ rec-l;
#X obj 144 330 tabwrite~ rec-r;
#N canvas 692 305 599 584 crossfade_adjustr 0;
#X obj 70 70 delay 1000;
#X obj 67 24 inlet;
#X obj 196 257 vline~;
#X obj 83 133 / 44.1;
#X msg 83 104 16384;
#X obj 221 328 *~;
#X obj 443 346 * 44.1;
#X obj 381 428 *~;
#X obj 241 490 +~;
#X obj 319 126 t f b f f b;
#X obj 122 296 *~ -1;
#X obj 122 325 +~ 1;
#X obj 538 445 bng 15 250 50 0 empty empty empty 17 7 0 10 #fcfcfc
#000000 #000000;
#X obj 564 338 bng 15 250 50 0 empty empty empty 17 7 0 10 #fcfcfc
#000000 #000000;
#X floatatom 47 207 5 0 0 0 - - - 0;
#X obj 383 177 t b f;
#X floatatom 494 176 5 0 0 0 - - - 0;
#X obj 436 217 delay;
#X msg 197 213 0 \, 1 10 \, 0 10 \$1;
#X obj 83 162 - 10;
#X obj 299 286 tabplay~ rec-r;
#X obj 446 281 tabplay~ rec-r;
#X obj 438 395 tabplay~ rec-r;
#X obj 140 552 tabwrite~ BANK-2;
#X connect 0 0 4 0;
#X connect 1 0 0 0;
#X connect 2 0 5 0;
#X connect 2 0 10 0;
#X connect 3 0 14 0;
#X connect 3 0 19 0;
#X connect 4 0 3 0;
#X connect 5 0 8 0;
#X connect 6 0 22 0;
#X connect 7 0 8 1;
#X connect 8 0 23 0;
#X connect 9 0 18 0;
#X connect 9 1 20 0;
#X connect 9 2 15 0;
#X connect 9 3 6 0;
#X connect 9 4 23 0;
#X connect 10 0 11 0;
#X connect 11 0 7 0;
#X connect 15 0 17 0;
#X connect 15 1 16 0;
#X connect 15 1 17 1;
#X connect 17 0 21 0;
#X connect 18 0 2 0;
#X connect 19 0 9 0;
#X connect 20 0 5 1;
#X connect 21 0 7 1;
#X connect 21 1 13 0;
#X connect 22 0 7 1;
#X connect 22 1 12 0;
#X restore 178 556 pd crossfade_adjustr;
#N canvas 1204 309 599 584 crossfade_adjustl 0;
#X obj 70 70 delay 1000;
#X obj 67 24 inlet;
#X obj 196 257 vline~;
#X obj 83 133 / 44.1;
#X msg 83 104 16384;
#X obj 221 328 *~;
#X obj 443 346 * 44.1;
#X obj 381 428 *~;
#X obj 241 490 +~;
#X obj 140 552 tabwrite~ BANK;
#X obj 319 126 t f b f f b;
#X obj 299 286 tabplay~ rec-l;
#X obj 446 281 tabplay~ rec-l;
#X obj 438 395 tabplay~ rec-l;
#X obj 122 296 *~ -1;
#X obj 122 325 +~ 1;
#X obj 538 445 bng 15 250 50 0 empty empty empty 17 7 0 10 #fcfcfc
#000000 #000000;
#X obj 564 338 bng 15 250 50 0 empty empty empty 17 7 0 10 #fcfcfc
#000000 #000000;
#X floatatom 47 207 5 0 0 0 - - - 0;
#X obj 383 177 t b f;
#X floatatom 494 176 5 0 0 0 - - - 0;
#X obj 436 217 delay;
#X msg 197 213 0 \, 1 10 \, 0 10 \$1;
#X obj 83 162 - 10;
#X connect 0 0 4 0;
#X connect 1 0 0 0;
#X connect 2 0 5 0;
#X connect 2 0 14 0;
#X connect 3 0 18 0;
#X connect 3 0 23 0;
#X connect 4 0 3 0;
#X connect 5 0 8 0;
#X connect 6 0 13 0;
#X connect 7 0 8 1;
#X connect 8 0 9 0;
#X connect 10 0 22 0;
#X connect 10 1 11 0;
#X connect 10 2 19 0;
#X connect 10 3 6 0;
#X connect 10 4 9 0;
#X connect 11 0 5 1;
#X connect 12 0 7 1;
#X connect 12 1 17 0;
#X connect 13 0 7 1;
#X connect 13 1 16 0;
#X connect 14 0 15 0;
#X connect 15 0 7 0;
#X connect 19 0 21 0;
#X connect 19 1 20 0;
#X connect 19 1 21 1;
#X connect 21 0 12 0;
#X connect 22 0 2 0;
#X connect 23 0 10 0;
#X restore 154 517 pd crossfade_adjustl;
#X obj 92 40 inlet;
#X text 193 45 recButton;
#X connect 0 0 5 0;
#X connect 1 0 6 0;
#X connect 3 0 9 0;
#X connect 3 1 10 0;
#X connect 5 0 2 0;
#X connect 6 0 2 1;
#X connect 8 0 4 0;
#X connect 8 0 9 0;
#X connect 8 0 10 0;
#X connect 8 1 7 0;
#X connect 8 2 12 0;
#X connect 8 2 11 0;
#X connect 13 0 8 0;
#X restore 1200 333 pd sample_rec;
#X text 966 833 table temporaire pour l'enregistrement de sample à
la volée;
#N canvas 584 68 1247 992 session_save/load 0;
#X obj 50 127 send toSystem;
#X obj 65 174 r fromSystem;
#X obj 65 196 list trim;
#X obj 56 7 inlet;
#X obj 65 222 route /textDialog;
#X obj 315 654 s matrix;
#X obj 81 758 soundfiler;
#X obj 137 450 t b l l;
#X obj 63 600 delay 100;
#X obj 65 646 list append;
#X msg 50 82 list /textDialog /saveAs Enregistrer Sous :;
#X obj 66 246 route /saveAs /open;
#X obj 912 521 s matrix;
#X obj 699 559 soundfiler;
#X obj 782 376 t b l l;
#X obj 709 424 delay 100;
#X obj 689 490 list append;
#X obj 749 7 inlet;
#X msg 740 79 list /textDialog /open ouvrir :;
#X obj 675 690 delay 100;
#X obj 677 661 t b b, f 13;
#N canvas 0 50 1056 796 redrawLCD 0;
#X obj 91 554 t f f;
#X obj 192 532 t f f;
#X obj 73 644 pack f f f f;
#X obj 97 490 int;
#X obj 189 487 int;
#X obj 93 516 / 200;
#X obj 193 511 / 200;
#X obj 76 587 - 0.005;
#X obj 154 611 + 0.005;
#X obj 204 575 - 0.005;
#X obj 341 563 + 0.005;
#X obj 120 103 f;
#X obj 64 35 t b b;
#X msg 111 66 0;
#X obj 174 220 tabread matrix;
#X obj 202 97 + 1;
#X obj 152 177 < 40000;
#X obj 96 206 spigot;
#X obj 26 209 delay;
#X obj 346 225 t f f;
#X obj 173 260 > 0;
#X obj 275 342 pack f f;
#X obj 163 383 list append;
#X obj 170 299 select 1;
#X obj 138 443 unpack f f;
#X obj 64 10 inlet;
#X obj 285 297 div 200;
#X obj 381 264 mod 200;
#X obj 381 286 * -1;
#X obj 381 308 + 200;
#X msg 76 685 paintrect \$1 \$2 \$3 \$4 0 0 0 1;
#X obj 119 145 t b f f f f;
#X text 263 164 "until découplé";
#X obj 75 726 outlet;
#X text 317 23 * balayage de tous les points de la matrice;
#X text 325 458 * mise en forme de l'instruction de dessin;
#X connect 0 0 7 0;
#X connect 0 1 8 0;
#X connect 1 0 9 0;
#X connect 1 1 10 0;
#X connect 2 0 30 0;
#X connect 3 0 5 0;
#X connect 4 0 6 0;
#X connect 5 0 0 0;
#X connect 6 0 1 0;
#X connect 7 0 2 0;
#X connect 8 0 2 2;
#X connect 9 0 2 1;
#X connect 10 0 2 3;
#X connect 11 0 31 0;
#X connect 12 1 13 0;
#X connect 13 0 11 0;
#X connect 14 0 20 0;
#X connect 15 0 11 1;
#X connect 16 0 17 1;
#X connect 17 0 18 0;
#X connect 18 0 11 0;
#X connect 19 0 26 0;
#X connect 19 1 27 0;
#X connect 20 0 23 0;
#X connect 21 0 22 1;
#X connect 22 0 24 0;
#X connect 23 0 22 0;
#X connect 24 0 3 0;
#X connect 24 1 4 0;
#X connect 25 0 12 0;
#X connect 26 0 21 0;
#X connect 27 0 28 0;
#X connect 28 0 29 0;
#X connect 29 0 21 1;
#X connect 30 0 33 0;
#X connect 31 0 17 0;
#X connect 31 1 16 0;
#X connect 31 2 14 0;
#X connect 31 3 19 0;
#X connect 31 4 15 0;
#X restore 677 734 pd redrawLCD;
#X obj 56 47 t b b;
#X obj 281 227 savepanel;
#X obj 749 47 t b b;
#X obj 802 201 openpanel;
#X obj 794 140 pdcontrol;
#X msg 799 112 dir;
#X msg 797 171 symbol \$1/UpicMachine/data;
#X obj 278 144 pdcontrol;
#X msg 277 111 dir;
#X msg 279 190 symbol \$1/UpicMachine/data;
#X msg 854 718 clear;
#X obj 280 355 splitfilename /;
#X obj 988 224 splitfilename /;
#X obj 19 302 list prepend UpicMachine/data/wav UpicMachine/data;
#X msg 314 608 write \$2/\$3;
#X msg 173 561 symbol \$1/\$3.wav;
#X obj 280 384 t s s;
#X msg 280 413 symbol \$1/wav;
#X obj 280 442 pack s s s;
#X obj 742 279 list prepend UpicMachine/data/wav UpicMachine/data;
#X obj 992 314 t s s;
#X msg 992 343 symbol \$1/wav;
#X obj 992 372 pack s s s;
#X msg 911 482 read \$2/\$3;
#X msg 801 442 symbol \$1/\$3.wav;
#X obj 586 614 r \$0-refresh;
#X msg 73 709 write -wave \$1 BANK BANK-2;
#X msg 700 524 read \$1 BANK BANK-2;
#X obj 876 583 s default_sample;
#X obj 680 798 s myLCD2-rcv;
#X connect 1 0 2 0;
#X connect 2 0 4 0;
#X connect 3 0 22 0;
#X connect 4 0 11 0;
#X connect 7 0 8 0;
#X connect 7 1 37 0;
#X connect 7 2 36 0;
#X connect 8 0 9 0;
#X connect 9 0 48 0;
#X connect 10 0 0 0;
#X connect 11 0 35 0;
#X connect 11 1 41 0;
#X connect 13 0 20 0;
#X connect 14 0 15 0;
#X connect 14 1 46 0;
#X connect 14 2 45 0;
#X connect 15 0 16 0;
#X connect 16 0 49 0;
#X connect 17 0 24 0;
#X connect 18 0 0 0;
#X connect 19 0 21 0;
#X connect 20 0 19 0;
#X connect 20 1 32 0;
#X connect 21 0 51 0;
#X connect 22 0 10 0;
#X connect 22 1 30 0;
#X connect 23 0 33 0;
#X connect 24 0 18 0;
#X connect 24 1 27 0;
#X connect 25 0 34 0;
#X connect 26 0 28 0;
#X connect 27 0 26 0;
#X connect 28 0 25 0;
#X connect 29 0 31 0;
#X connect 30 0 29 0;
#X connect 31 0 23 0;
#X connect 32 0 51 0;
#X connect 33 0 38 0;
#X connect 33 1 40 2;
#X connect 34 0 42 0;
#X connect 34 1 44 2;
#X connect 35 0 7 0;
#X connect 36 0 5 0;
#X connect 37 0 9 1;
#X connect 38 0 39 0;
#X connect 38 1 40 1;
#X connect 39 0 40 0;
#X connect 40 0 7 0;
#X connect 41 0 14 0;
#X connect 42 0 43 0;
#X connect 42 1 44 1;
#X connect 43 0 44 0;
#X connect 44 0 14 0;
#X connect 45 0 12 0;
#X connect 46 0 16 1;
#X connect 46 0 50 0;
#X connect 47 0 20 0;
#X connect 48 0 6 0;
#X connect 49 0 13 0;
#X restore 1197 469 pd session_save/load;
#X obj 1195 171 r sample_load;
#X obj 1381 171 r sample_save;
#X obj 1291 119 r sample_select;
#X obj 1203 291 r recButton;
#X text 38 331 * dessin dans LCD / stocage dans matrice (table matrix)
, f 29;
#X text 1153 75 * gestion des samples;
#X text 1154 382 * gestion de la sauvegarde session;
#X text 710 568 * Objets de stockage;
#X text 33 648 * init;
#N canvas 434 194 450 300 play_audio 0;
#X obj 98 14 inlet;
#X obj 200 132 poly 32 1;
#X obj 201 54 unpack f f;
#X obj 205 161 pack f f f;
#X obj 10 47 route stop;
#X msg 10 69 stop;
#X obj 88 215 UpicMachine/orgue_MIDI_upic2 BANK;
#X connect 0 0 4 0;
#X connect 0 0 6 0;
#X connect 1 0 3 0;
#X connect 1 1 3 1;
#X connect 1 2 3 2;
#X connect 2 0 1 0;
#X connect 2 1 1 1;
#X connect 4 0 5 0;
#X connect 4 1 2 0;
#X connect 5 0 1 0;
#X restore 870 400 pd play_audio;
#X obj 674 386 delay 120;
#X obj 217 386 r penMode;
#X obj 515 191 metro 100;
#X msg 402 334 1 \$1;
#X obj 402 363 /;
#X obj 402 392 * 60;
#X obj 402 305 r SPEED;
#N canvas 1 56 696 542 sinesum_stuff 0;
#X obj 127 105 t b f;
#X obj 162 93 t b f;
#X obj 219 97 t b f;
#X obj 270 99 t b f;
#X obj 315 101 t b f;
#X obj 371 100 t b f;
#X obj 419 101 t b f;
#X obj 139 150 pack f f f f f f f f;
#X msg 105 228 sinesum 256 \$1 \$2 \$3 \$4 \$5 \$6 \$7 \$8;
#X obj 78 106 t b f;
#X obj 112 190 list append;
#X obj 16 65 r \$0-harmo1;
#X obj 106 45 r \$0-harmo2;
#X obj 161 70 r \$0-harmo3;
#X obj 216 45 r \$0-harmo4;
#X obj 266 65 r \$0-harmo5;
#X obj 316 45 r \$0-harmo6;
#X obj 376 65 r \$0-harmo7;
#X obj 426 45 r \$0-harmo8;
#X obj 32 161 delay 0;
#X obj 57 263 sinesum sinesum 256;
#X obj 24 186 t b b b;
#X obj 467 462 s sinesum_touched;
#X msg 486 415 0;
#X obj 467 377 delay 50;
#X connect 0 0 19 0;
#X connect 0 1 7 1;
#X connect 1 0 19 0;
#X connect 1 1 7 2;
#X connect 2 0 19 0;
#X connect 2 1 7 3;
#X connect 3 0 19 0;
#X connect 3 1 7 4;
#X connect 4 0 19 0;
#X connect 4 1 7 5;
#X connect 5 0 19 0;
#X connect 5 1 7 6;
#X connect 6 0 19 0;
#X connect 6 1 7 7;
#X connect 7 0 10 1;
#X connect 8 0 20 0;
#X connect 9 0 19 0;
#X connect 9 1 7 0;
#X connect 10 0 8 0;
#X connect 11 0 9 0;
#X connect 12 0 0 0;
#X connect 13 0 1 0;
#X connect 14 0 2 0;
#X connect 15 0 3 0;
#X connect 16 0 4 0;
#X connect 17 0 5 0;
#X connect 18 0 6 0;
#X connect 19 0 21 0;
#X connect 21 0 10 0;
#X connect 21 1 7 0;
#X connect 21 2 24 0;
#X connect 23 0 22 0;
#X connect 24 0 23 0;
#X restore 1643 342 pd sinesum_stuff;
#N canvas 766 114 926 688 enveloppe-stuff 0;
#X obj 61 520 r sinesum_touched;
#N canvas 0 50 450 300 tabreceive~ 0;
#X obj 254 87 block~ 256 1 1;
#X obj 118 157 tabreceive~ sinesum;
#X obj 118 186 outlet~;
#X connect 1 0 2 0;
#X restore 154 466 pd tabreceive~ sinesum;
#X obj 89 801 tabwrite~ BANK;
#X obj 99 831 tabwrite~ BANK-2;
#X obj 60 571 route 0;
#X obj 134 606 bng 15 250 50 0 empty empty empty 17 7 0 10 #fcfcfc
#000000 #000000;
#X obj 105 664 bng 15 250 50 0 empty empty empty 17 7 0 10 #fcfcfc
#000000 #000000;
#X obj 79 20 r envelope;
#X obj 77 109 unpack f f;
#X obj 162 220 clip 0 1;
#X obj 94 387 swap;
#X obj 72 434 tabwrite env;
#X obj 80 176 int;
#X obj 162 162 * -1.2;
#X obj 162 191 + 1.1;
#X obj 178 722 *~;
#X obj 211 658 tabread4~ env;
#X obj 265 601 line~;
#X obj 268 157 t b;
#X obj 60 621 t b b;
#X msg 254 558 0 \, 64 372;
#X obj 77 138 * 64;
#X obj 27 211 clip 0 63;
#X obj 81 59 route 2 0 1;
#X obj 561 214 r env_reset;
#X msg 624 290 \; env const 1;
#X obj 493 252 t b b;
#X obj 545 106 loadbang;
#X obj 519 180 delay 100;
#X obj 49 292 line 0 5;
#X msg 45 251 \$1 100;
#X obj 332 99 unpack f f;
#X obj 417 210 clip 0 1;
#X obj 335 166 int;
#X obj 417 152 * -1.2;
#X obj 417 181 + 1.1;
#X obj 332 128 * 64;
#X obj 282 201 clip 0 63;
#X connect 0 0 4 0;
#X connect 1 0 15 0;
#X connect 4 0 19 0;
#X connect 5 0 19 0;
#X connect 7 0 23 0;
#X connect 8 0 21 0;
#X connect 8 1 13 0;
#X connect 9 0 10 1;
#X connect 10 0 11 0;
#X connect 10 1 11 1;
#X connect 12 0 22 0;
#X connect 13 0 14 0;
#X connect 14 0 9 0;
#X connect 15 0 2 0;
#X connect 15 0 3 0;
#X connect 16 0 15 1;
#X connect 17 0 16 0;
#X connect 18 0 19 0;
#X connect 19 0 2 0;
#X connect 19 0 3 0;
#X connect 19 0 6 0;
#X connect 19 1 20 0;
#X connect 20 0 17 0;
#X connect 21 0 12 0;
#X connect 22 0 30 0;
#X connect 23 0 8 0;
#X connect 23 1 18 0;
#X connect 23 2 31 0;
#X connect 24 0 26 0;
#X connect 26 0 19 0;
#X connect 26 1 25 0;
#X connect 27 0 28 0;
#X connect 28 0 26 0;
#X connect 29 0 10 0;
#X connect 30 0 29 0;
#X connect 31 0 36 0;
#X connect 31 1 34 0;
#X connect 32 0 10 1;
#X connect 33 0 37 0;
#X connect 34 0 35 0;
#X connect 35 0 32 0;
#X connect 36 0 33 0;
#X connect 37 0 29 0;
#X restore 1644 292 pd enveloppe-stuff;
#N canvas 0 57 1920 1023 elements_masqués 0;
#X obj 32 187 cnv 15 410 160 empty empty CHARGER_LE_SON 30 18 0 24
#fce0c4 #404040 0;
#X obj 305 235 bng 60 250 50 0 recButton recButton-rcv REC 10 30 0
24 #fcc4c4 #000000 #000000;
#X obj 56 212 hradio 60 1 0 3 sample_select sample_select-rcv 1|2|3
16 26 0 50 #fce0c4 #fc8000 #000000 0;
#X obj 176 293 bng 40 250 50 0 sample_save sample_save-rcv ENREGISTRER
0 -8 0 12 #fc0400 #000000 #000000;
#X obj 58 293 bng 40 250 50 0 sample_load sample_load-rcv OUVRIR 0
-8 0 12 #00f8fc #000000 #000000;
#X text 102 296 FICHIER;
#X text 298 197 AVEC LE MICRO, f 7;
#N canvas 0 50 450 250 (subpatch) 0;
#X array /myTableA 200 float 0;
#X coords 0 1.3 199 0 278 70 1 0 0;
#X restore 147 442 graph;
#X obj 146 512 cnv 15 278 50 empty empty empty 20 12 0 14 #e0e0e0 #404040
0;
#X obj 152 512 cnv 5 6 30 empty empty empty 20 12 0 14 #606060 #404040
0;
#X obj 154 512 cnv 1 1 50 empty empty empty 20 12 0 14 #606060 #404040
0;
#X obj 162 512 cnv 5 6 30 empty empty empty 20 12 0 14 #606060 #404040
0;
#X obj 164 512 cnv 1 1 50 empty empty empty 20 12 0 14 #606060 #404040
0;
#X obj 174 512 cnv 1 1 50 empty empty empty 20 12 0 14 #606060 #404040
0;
#X obj 182 512 cnv 5 6 30 empty empty empty 20 12 0 14 #606060 #404040
0;
#X obj 184 512 cnv 1 1 50 empty empty empty 20 12 0 14 #606060 #404040
0;
#X obj 192 512 cnv 5 6 30 empty empty empty 20 12 0 14 #606060 #404040
0;
#X obj 194 512 cnv 1 1 50 empty empty empty 20 12 0 14 #606060 #404040
0;
#X obj 202 512 cnv 5 6 30 empty empty empty 20 12 0 14 #606060 #404040
0;
#X obj 204 512 cnv 1 1 50 empty empty empty 20 12 0 14 #606060 #404040
0;
#X obj 214 512 cnv 1 1 50 empty empty empty 20 12 0 14 #606060 #404040
0;
#X obj 222 512 cnv 5 6 30 empty empty empty 20 12 0 14 #606060 #404040
0;
#X obj 224 512 cnv 1 1 50 empty empty empty 20 12 0 14 #606060 #404040
0;
#X obj 232 512 cnv 5 6 30 empty empty empty 20 12 0 14 #606060 #404040
0;
#X obj 234 512 cnv 1 1 50 empty empty empty 20 12 0 14 #606060 #404040
0;
#X obj 244 512 cnv 1 1 50 empty empty empty 20 12 0 14 #606060 #404040
0;
#X obj 252 512 cnv 5 6 30 empty empty empty 20 12 0 14 #606060 #404040
0;
#X obj 254 512 cnv 1 1 50 empty empty empty 20 12 0 14 #606060 #404040
0;
#X obj 262 512 cnv 5 6 30 empty empty empty 20 12 0 14 #606060 #404040
0;
#X obj 264 512 cnv 1 1 50 empty empty empty 20 12 0 14 #606060 #404040
0;
#X obj 272 512 cnv 5 6 30 empty empty empty 20 12 0 14 #606060 #404040
0;
#X obj 274 512 cnv 1 1 50 empty empty empty 20 12 0 14 #606060 #404040
0;
#X obj 284 512 cnv 1 1 50 empty empty empty 20 12 0 14 #606060 #404040
0;
#X obj 292 512 cnv 5 6 30 empty empty empty 20 12 0 14 #606060 #404040
0;
#X obj 294 512 cnv 1 1 50 empty empty empty 20 12 0 14 #606060 #404040
0;
#X obj 302 512 cnv 5 6 30 empty empty empty 20 12 0 14 #606060 #404040
0;
#X obj 304 512 cnv 1 1 50 empty empty empty 20 12 0 14 #606060 #404040
0;
#X obj 314 512 cnv 1 1 50 empty empty empty 20 12 0 14 #606060 #404040
0;
#X obj 322 512 cnv 5 6 30 empty empty empty 20 12 0 14 #606060 #404040
0;
#X obj 324 512 cnv 1 1 50 empty empty empty 20 12 0 14 #606060 #404040
0;
#X obj 332 512 cnv 5 6 30 empty empty empty 20 12 0 14 #606060 #404040
0;
#X obj 334 512 cnv 1 1 50 empty empty empty 20 12 0 14 #606060 #404040
0;
#X obj 342 512 cnv 5 6 30 empty empty empty 20 12 0 14 #606060 #404040
0;
#X obj 344 512 cnv 1 1 50 empty empty empty 20 12 0 14 #606060 #404040
0;
#X obj 354 512 cnv 1 1 50 empty empty empty 20 12 0 14 #606060 #404040
0;
#X obj 362 512 cnv 5 6 30 empty empty empty 20 12 0 14 #606060 #404040
0;
#X obj 364 512 cnv 1 1 50 empty empty empty 20 12 0 14 #606060 #404040
0;
#X obj 372 512 cnv 5 6 30 empty empty empty 20 12 0 14 #606060 #404040
0;
#X obj 374 512 cnv 1 1 50 empty empty empty 20 12 0 14 #606060 #404040
0;
#X obj 384 512 cnv 1 1 50 empty empty empty 20 12 0 14 #606060 #404040
0;
#X obj 392 512 cnv 5 6 30 empty empty empty 20 12 0 14 #606060 #404040
0;
#X obj 394 512 cnv 1 1 50 empty empty empty 20 12 0 14 #606060 #404040
0;
#X obj 402 512 cnv 5 6 30 empty empty empty 20 12 0 14 #606060 #404040
0;
#X obj 404 512 cnv 1 1 50 empty empty empty 20 12 0 14 #606060 #404040
0;
#X obj 412 512 cnv 5 6 30 empty empty empty 20 12 0 14 #606060 #404040
0;
#X obj 414 512 cnv 1 1 50 empty empty empty 20 12 0 14 #606060 #404040
0;
#X obj 147 409 cnv 15 100 30 empty empty COMPOSITION=PARTITION+SON
5 12 0 24 #e0c4fc #404040 0;
#X restore 1651 434 pd elements_masqués;
#X connect 0 0 1 0;
#X connect 2 0 3 0;
#X connect 2 0 6 0;
#X connect 2 0 8 0;
#X connect 3 0 5 0;
#X connect 5 0 2 1;
#X connect 6 0 25 0;
#X connect 7 0 58 0;
#X connect 8 0 59 0;
#X connect 8 1 30 0;
#X connect 9 0 10 0;
#X connect 9 0 61 0;
#X connect 10 0 9 1;
#X connect 11 0 2 0;
#X connect 11 0 9 0;
#X connect 12 0 7 0;
#X connect 13 0 18 0;
#X connect 15 0 16 0;
#X connect 16 0 2 0;
#X connect 17 0 13 0;
#X connect 19 0 14 0;
#X connect 20 0 15 0;
#X connect 21 0 22 0;
#X connect 22 0 9 0;
#X connect 23 0 11 0;
#X connect 23 1 12 0;
#X connect 24 0 23 0;
#X connect 28 0 48 0;
#X connect 29 0 48 1;
#X connect 30 0 7 0;
#X connect 31 0 35 0;
#X connect 32 0 33 0;
#X connect 33 0 34 0;
#X connect 34 0 30 0;
#X connect 35 0 30 0;
#X connect 41 0 42 0;
#X connect 49 0 45 0;
#X connect 50 0 45 2;
#X connect 51 0 45 1;
#X connect 52 0 46 0;
#X connect 59 0 0 0;
#X connect 60 0 13 1;
#X connect 61 0 2 0;
#X connect 62 0 63 0;
#X connect 63 0 64 0;
#X connect 64 0 61 1;
#X connect 65 0 62 0;
#X coords 0 -1 1 1 85 15 1 100 100;
#X restore 765 297 pd stuff;
#X obj 59 598 cnv 15 350 140 empty empty JOUER_LA_PARTITION 30 18 0
24 #c4fcfc #404040 0;
#X obj 74 631 bng 100 250 50 0 playPauseButton playPauseButton-rcv
►|| 17 50 0 40 #00fc04 #000000 #000000;
#X obj 286 631 bng 100 250 50 0 stopButton stopButton-rcv ■ 30 50
0 60 #dcdcdc #000000 #000000;
#X obj 28 5 cnv 15 410 390 empty empty DESSINER_LE_SON 30 18 0 24 #fce0c4
#404040 0;
#N canvas 572 63 1103 563 reglages 0;
#X obj 400 152 vsl 50 128 0 0.3 0 0 \$0-harmo7 \$0-harmo7-rcv empty
0 -9 0 10 #fcfcfc #000000 #000000 0 1;
#X obj 450 152 vsl 50 128 0 0.3 0 0 \$0-harmo8 \$0-harmo8-rcv empty
0 -9 0 10 #fcfcfc #000000 #000000 0 1;
#X obj 328 21 unpack f f f f f f f f;
#X msg 313 -136 1 0 0 0 0 0 0 0;
#X msg 336 -106 0 1 0 0 0 0 0 0;
#X msg 131 -80 0 0 1 0 0 0 0 0;
#X msg 133 -54 0 0 0 1 0 0 0 0;
#X msg 132 -30 0 0 0 0 1 0 0 0;
#X msg 131 -7 0 0 0 0 0 1 0 0;
#X msg 132 26 0 0 0 0 0 0 1 0;
#X msg 134 52 0 0 0 0 0 0 0 1;
#X obj 400 100 bng 50 250 50 0 empty empty 7' 17 20 0 30 #fcfcfc #000000
#000000;
#X obj 450 100 bng 50 250 50 0 empty empty 8' 17 20 0 30 #fcfcfc #000000
#000000;
#X obj 300 152 vsl 50 128 0 0.3 0 0 \$0-harmo5 \$0-harmo5-rcv empty
0 -9 0 10 #fcfcfc #000000 #000000 0 1;
#X obj 350 152 vsl 50 128 0 0.3 0 0 \$0-harmo6 \$0-harmo6-rcv empty
0 -9 0 10 #fcfcfc #000000 #000000 0 1;
#X obj 300 100 bng 50 250 50 0 empty empty 5' 17 20 0 30 #fcfcfc #000000
#000000;
#X obj 350 100 bng 50 250 50 0 empty empty 6' 17 20 0 30 #fcfcfc #000000
#000000;
#X obj 200 152 vsl 50 128 0 0.3 0 0 \$0-harmo3 \$0-harmo3-rcv empty
0 -9 0 10 #fcfcfc #000000 #000000 0 1;
#X obj 250 152 vsl 50 128 0 0.3 0 0 \$0-harmo4 \$0-harmo4-rcv empty
0 -9 0 10 #fcfcfc #000000 #000000 0 1;
#X obj 200 100 bng 50 250 50 0 empty empty 3' 17 20 0 30 #fcfcfc #000000
#000000;
#X obj 250 100 bng 50 250 50 0 empty empty 4' 17 20 0 30 #fcfcfc #000000
#000000;
#X obj 100 152 vsl 50 128 0 0.3 0 0 \$0-harmo1 \$0-harmo1-rcv empty
0 -9 0 10 #fcfcfc #000000 #000000 0 1;
#X obj 150 152 vsl 50 128 0 0.3 0 0 \$0-harmo2 \$0-harmo2-rcv empty
0 -9 0 10 #fcfcfc #000000 #000000 0 1;
#X obj 100 100 bng 50 250 50 0 empty empty 1' 17 20 0 30 #fcfcfc #000000
#000000;
#X obj 150 100 bng 50 250 50 0 empty empty 2' 17 20 0 30 #fcfcfc #000000
#000000;
#X obj 53 68 loadbang;
#X connect 2 0 21 0;
#X connect 2 1 22 0;
#X connect 2 2 17 0;
#X connect 2 3 18 0;
#X connect 2 4 13 0;
#X connect 2 5 14 0;
#X connect 2 6 0 0;
#X connect 2 7 1 0;
#X connect 3 0 2 0;
#X connect 4 0 2 0;
#X connect 5 0 2 0;
#X connect 6 0 2 0;
#X connect 7 0 2 0;
#X connect 8 0 2 0;
#X connect 9 0 2 0;
#X connect 10 0 2 0;
#X connect 11 0 9 0;
#X connect 12 0 10 0;
#X connect 15 0 7 0;
#X connect 16 0 8 0;
#X connect 19 0 5 0;
#X connect 20 0 6 0;
#X connect 23 0 3 0;
#X connect 24 0 4 0;
#X connect 25 0 23 0;
#X coords 0 -1 1 1 400 183 1 100 100;
#X restore 30 36 pd reglages;
#N canvas 0 50 450 250 (subpatch) 0;
#X array sinesum 259 float 0;
#X coords 0 1.2 258 -1.2 400 150 1 0 0;
#X restore 31 237 graph;
#X obj 31 237 mob/lcd sinesum_touched sinesum_touched-rcv 9;
#X obj 1247 303 vsl 50 128 0.25 8 1 1 SPEED SPEED-rcv VITESSE -100
-52 0 30 #c4fcc4 #000000 #000000 5080 1;
#X obj 493 106 mob/lcd envelope envelope-rcv 10;
#X obj 497 106 hsl 796 100 0 127 0 0 nop nop-rcv empty -2 -8 0 10 #fcfcfc
#fcfcfc #000000 0 1;
#N canvas 0 50 450 250 (subpatch) 0;
#X array BANK 16387 float 2;
#X coords 0 1.5 16387 -1.5 800 100 1 0 0;
#X restore 494 106 graph;
#X obj 496 106 mob/sarray;
#X msg 1183 277 1;
#X msg 1222 277 2;
#X msg 1261 277 4;
#X msg 1144 277 0.5;
#X floatatom 1248 435 5 0 0 0 - - - 0;
#X obj 490 49 cnv 15 270 40 empty empty ENVELOPPE 10 20 0 44 #e0c4fc
#404040 0;
#X obj 774 48 bng 50 250 50 0 env_reset env_reset-rcv RESET 2 25 0
16 #00f8fc #000000 #000000;
#X obj 703 290 cnv 15 270 40 empty empty PARTITION 10 20 0 44 #e0c4fc
#404040 0;
#X obj 1476 93 mob;
#N canvas 0 50 450 300 mob-listeners 0;
#X obj 20 50 mob/tools/listenerCnv empty empty;
#X obj 20 100 mob/tools/listener_lin xSliderMove xSliderMove-rcv 1
0 1;
#X obj 20 150 mob/tools/listener_lin backslider backslider-rcv 2 0
1;
#X obj 20 200 mob/tools/listener_lin xSlider1 xSlider1-rcv 3 0 1;
#X obj 20 250 mob/tools/listenerCnv empty empty;
#X obj 20 300 mob/tools/listenerBng clearButton2 4 250 50;
#X obj 20 350 mob/tools/listenerVradio penMode penMode-rcv 5 2;
#X obj 20 400 mob/tools/listenerCnv empty empty;
#X obj 20 450 mob/tools/listenerCnv empty empty;
#X obj 20 500 mob/tools/listenerBng saveAsButton 6 250 50;
#X obj 20 550 mob/tools/listenerBng openButton 7 250 50;
#X obj 20 600 mob/tools/listenerCnv empty empty;
#X obj 20 650 mob/tools/listenerBng playPauseButton 8 250 50;
#X obj 20 700 mob/tools/listenerBng stopButton 9 250 50;
#X obj 20 750 mob/tools/listenerCnv empty empty;
#X obj 20 800 mob/tools/listener_lin SPEED SPEED-rcv 10 0.25 8;
#X obj 20 850 mob/tools/listener_lin nop nop-rcv 11 0 127;
#X obj 20 900 mob/tools/listenerCnv empty empty;
#X obj 20 950 mob/tools/listenerBng env_reset 12 250 50;
#X obj 20 1000 mob/tools/listenerCnv empty empty;
#X obj 20 0 mob/tools/loader2 MobMupic3;
#X restore 100 10 pd mob-listeners;
#X connect 22 0 31 0;
#X connect 27 0 22 0;
#X connect 28 0 22 0;
#X connect 29 0 22 0;
#X connect 30 0 22 0;
