#N struct bckgrnd float x float y float width float height float color
;
#N struct struct_paintoval float lx float ty float rx float by float
width float color;
#N struct struct_lineto float lx float ty float rx float by float width
float color;
#N canvas 572 175 910 525 12;
#X scalar bckgrnd 0 0 600 960 678 \;;
#X text 37 16 example : draw with the mouse;
#N canvas 0 0 597 569 demo2 0;
#X obj 83 100 route 1 2 0;
#X obj 83 132 t l b;
#X obj 94 163 unpack 0 0;
#X obj 321 274 unpack 0 0;
#X obj 89 204 t f f;
#X obj 161 206 t f f;
#X obj 329 108 unpack 0 0 0 0;
#X obj 91 305 pack 0 0 0 0 0 0 0 0;
#X obj 324 335 pack 0 0 0 0 0 0;
#X obj 81 55 inlet;
#X obj 84 475 outlet;
#X msg 79 337 moveto \$1 \$2;
#X obj 59 274 - 0.02;
#X obj 138 276 + 0.02;
#X obj 146 240 - 0.02;
#X obj 218 241 + 0.02;
#X msg 103 373 paintoval \$1 \$2 \$3 \$4 \$5 \$6 \$7 \$8;
#X msg 124 406 penwidth 3 \, lineto \$1 \$2 \$3 \$4 \$5 \$6;
#X text 331 73 color;
#X obj 328 28 loadbang;
#X msg 328 57 0 0 0 1;
#X connect 0 0 1 0;
#X connect 0 1 3 0;
#X connect 0 2 2 0;
#X connect 1 0 2 0;
#X connect 1 0 11 0;
#X connect 2 0 4 0;
#X connect 2 1 5 0;
#X connect 3 0 8 0;
#X connect 3 1 8 1;
#X connect 4 0 12 0;
#X connect 4 1 13 0;
#X connect 5 0 14 0;
#X connect 5 1 15 0;
#X connect 6 0 7 4;
#X connect 6 0 8 2;
#X connect 6 1 8 3;
#X connect 6 1 7 5;
#X connect 6 2 7 6;
#X connect 6 2 8 4;
#X connect 6 3 7 7;
#X connect 6 3 8 5;
#X connect 7 0 16 0;
#X connect 8 0 17 0;
#X connect 9 0 0 0;
#X connect 11 0 10 0;
#X connect 12 0 7 0;
#X connect 13 0 7 2;
#X connect 14 0 7 1;
#X connect 15 0 7 3;
#X connect 16 0 10 0;
#X connect 17 0 10 0;
#X connect 19 0 20 0;
#X connect 20 0 6 0;
#X restore 213 70 pd demo2;
#X msg 41 81 clear;
#X obj 95 136 mob/lcd Untitled_9* Untitled_9*-rcv 0;
#X obj 578 101 mob;
#X obj 394 29 bng 60 250 50 0 clear clear-rcv empty 17 7 0 10 #fcfcfc
#000000 #000000;
#N canvas 0 50 450 300 mob-listeners 0;
#X obj 20 50 mob/tools/listenerBng clear clear-rcv 1 250 50;
#X obj 20 0 mob/tools/loader2 testLCD2;
#X restore 578 71 pd mob-listeners;
#X connect 2 0 4 0;
#X connect 3 0 4 0;
#X connect 4 0 2 0;
#X connect 6 0 3 0;
