#N struct bckgrnd float x float y float width float height float color
;
#N struct struct_paintoval float lx float ty float rx float by float
width float color;
#N struct struct_lineto float lx float ty float rx float by float width
float color;
#N canvas 522 320 757 550 12;
#X scalar bckgrnd 0 0 319.513 511.22 554 \;;
#N canvas 0 0 597 569 demo2 0;
#X obj 83 100 route 1 2 0;
#X obj 83 132 t l b;
#X obj 94 163 unpack 0 0;
#X obj 321 274 unpack 0 0;
#X obj 89 204 t f f;
#X obj 161 206 t f f;
#X obj 91 305 pack 0 0 0 0 0 0 0 0;
#X obj 324 335 pack 0 0 0 0 0 0;
#X obj 81 55 inlet;
#X obj 84 475 outlet;
#X msg 79 337 moveto \$1 \$2;
#X obj 59 274 - 0.02;
#X obj 138 276 + 0.02;
#X obj 146 240 - 0.02;
#X obj 218 241 + 0.02;
#X msg 103 373 paintoval \$1 \$2 \$3 \$4 \$5 \$6 \$7 \$8;
#X msg 124 406 penwidth 3 \, lineto \$1 \$2 \$3 \$4 \$5 \$6;
#X text 331 73 color;
#X obj 329 108 unpack 0 0 0 1;
#X obj 411 30 loadbang;
#X msg 411 55 0 0 0 1;
#X connect 0 0 1 0;
#X connect 0 1 3 0;
#X connect 0 2 2 0;
#X connect 1 0 2 0;
#X connect 1 0 10 0;
#X connect 2 0 4 0;
#X connect 2 1 5 0;
#X connect 3 0 7 0;
#X connect 3 1 7 1;
#X connect 4 0 11 0;
#X connect 4 1 12 0;
#X connect 5 0 13 0;
#X connect 5 1 14 0;
#X connect 6 0 15 0;
#X connect 7 0 16 0;
#X connect 8 0 0 0;
#X connect 10 0 9 0;
#X connect 11 0 6 0;
#X connect 12 0 6 2;
#X connect 13 0 6 1;
#X connect 14 0 6 3;
#X connect 15 0 9 0;
#X connect 16 0 9 0;
#X connect 18 0 6 4;
#X connect 18 0 7 2;
#X connect 18 1 7 3;
#X connect 18 1 6 5;
#X connect 18 2 6 6;
#X connect 18 2 7 4;
#X connect 18 3 6 7;
#X connect 18 3 7 5;
#X connect 19 0 20 0;
#X connect 20 0 18 0;
#X restore 590 128 pd demo2;
#X msg 503 26 clear;
#X obj 21 21 mob/lcd MyLCD MyLCD-rcv 0;
#X obj 420 206 mob;
#N canvas 0 0 450 300 mob-listeners 0;
#X obj 20 0 mob/tools/loader2 testlcd;
#X restore 100 10 pd mob-listeners;
#X obj 22 309 mob/button Untitled_2* Untitled_2*-rcv 0;
#X obj 255 272 mob/lcd MyLCD MyLCD-rcv 0;
#X connect 1 0 3 0;
#X connect 2 0 3 0;
#X connect 3 0 1 0;
#X connect 6 0 2 0;
