#N struct bckgrnd float x float y float width float height float color
;
#N canvas 661 292 731 617 12;
#X scalar bckgrnd 0 0 319.513 511.22 554 \;;
#N canvas 0 0 450 300 mob-listeners 0;
#X obj 20 0 mob/tools/loader2 test;
#X restore 268 -4 pd mob-listeners;
#X obj 275 25 mob;
#X text 429 204 hfader;
#X text 428 221 vfader;
#X text 429 180 hsl vsl lin;
#X text 336 297 copie des fichiers mmp et pd dans le dossier export
;
#X text 431 245 knob;
#X text 10 106 knob;
#X text 15 235 hfader;
#X text 17 288 vfader;
#X obj 17 254 mob/hfader Untitled_1* Untitled_1*-rcv 1 0 1 0 0.640523
;
#X obj 21 313 mob/vfader Untitled_2* Untitled_2*-rcv 2 0 1 0 0.29703
;
#X obj 10 132 mob/knob Untitled_3* Untitled_3*-rcv 3 0;
#X obj 121 379 mob/button Untitled_4* Untitled_4*-rcv 3;
#X text 135 352 button;
#X text 221 359 jog;
#X obj 214 386 mob/jog Untitled_5* Untitled_5*-rcv 4 0 0 0 0 1;
#X obj 8 4 mob/xy_slider Untitled_6* Untitled_6*-rcv 5 0 1 0 0 0 1
;
#X obj 167 123 unpack f f;
#X obj 47 464 mob/hfader Untitled_7* Untitled_7*-rcv 6 0 1 0 0;
#X text 378 404 INLET BUTTON NON FONCTIONNEL SUR MMP PLATFORM;
#X connect 14 0 20 0;
#X connect 18 0 19 0;
#X connect 18 1 13 0;
#X connect 18 2 14 0;
#X connect 19 0 11 0;
#X connect 19 1 12 0;
