#N struct bckgrnd float x float y float width float height float color
;
#N canvas 661 292 731 617 12;
#X scalar bckgrnd 0 0 600 960 554 \;;
#N canvas 0 0 450 300 mob-listeners 0;
#X obj 20 0 mob/tools/loader2 test3;
#X restore 268 -4 pd mob-listeners;
#X obj 275 25 mob;
#A saved -R 166.654;
#A saved -zoom 1;
#A saved -landscape 0;
#A saved -mode 2;
#A saved -pages 1;
#A saved -B 130.512;
#A saved -G 174.685;
#X obj 37 73 mob/xy_multi Untitled_1 Untitled_1-rcv 4 0 1 0 1;
#X obj 17 334 mob/xy_slider Untitled_6* Untitled_6*-rcv 2 0 1 0 0 0
1;
#X obj 195 334 mob/xy_slider Untitled_7* Untitled_7*-rcv 3 0 1 0 0
0 1;
#X obj 48 250 route 0 1;
#X obj 46 286 route add update;
#X obj 194 289 route add update;
#X obj 77 428 mob/button;
#X connect 3 0 6 0;
#X connect 6 0 7 0;
#X connect 6 1 8 0;
#X connect 7 0 4 0;
#X connect 7 1 4 0;
#X connect 8 0 5 0;
#X connect 8 1 5 0;
