#N struct bckgrnd float x float y float width float height float color
;
#N struct 1116-barray array z 1116-arrayelement float color;
#N struct 1116-arrayelement float zz;
#N struct 1117-barray array z 1117-arrayelement float color;
#N struct 1117-arrayelement float zz;
#N canvas 350 34 995 715 12;
#X scalar bckgrnd 0 0 320 568 226 \;;
#X obj 50 469 hradio 60 1 0 4 presetGrid presetGrid-rcv empty 0 -8
0 10 #00ff04 #0f4710 #000000 0;
#X obj 221 32 mob/knob tempo tempo-rcv 2 0.5;
#A saved -name tempo;
#A saved -range 1;
#A saved -invisible 0;
#A saved -z_offset 0;
#A saved -cursor_color 0 0 0;
#A saved -front_color 172 255 126;
#A saved -back_color 26 186 18;
#A saved -size 65;
#X obj 425 84 mob;
#A saved -R 68.2677;
#A saved -zoom 1;
#A saved -landscape 0;
#A saved -mode 1;
#A saved -pages 1;
#A saved -B 190.748;
#A saved -G 52.2047;
#N canvas 493 129 1113 856 stuff 0;
#X obj 146 181 metro 125;
#X obj 88 146 tgl 15 0 empty empty empty 17 7 0 10 #fcfcfc #000000
#000000 0 1;
#X obj 145 217 int;
#X obj 179 210 + 1;
#X obj 153 403 tabread pitch;
#X obj 149 455 int;
#X floatatom 148 480 5 0 0 0 - - - 0;
#X obj 149 505 mtof;
#X obj 158 654 dac~;
#X obj 152 530 phasor~;
#X obj 210 297 tabread filt;
#X floatatom 272 137 5 0 0 0 - - - 0;
#X obj 265 574 line~;
#X obj 267 510 t b b;
#X msg 354 547 1;
#X obj 154 622 *~;
#X obj 149 432 expr $f1*24+48;
#X obj 179 237 % 16;
#X obj 154 561 lop~;
#X obj 209 323 expr $f1*$f1*$f1*6000+220;
#X obj 87 116 loadbang;
#X obj 248 103 expr (1-sqrt($f1))*450+50;
#X obj 266 543 pack 0 125;
#X obj 95 22 loadbang;
#X text 387 546 envelope each note;
#X obj 539 389 array set pitch;
#X obj 539 448 array set filt;
#X obj 531 213 table pitch;
#X obj 532 240 table filt;
#X obj 116 364 s indexSlider-rcv;
#X obj 245 73 r tempo;
#X msg 96 45 0.5;
#X obj 98 75 s tempo;
#X obj 540 420 r filtMulti;
#N canvas 0 22 986 662 presetsandrandom 0;
#X msg 42 302 0 0.5 0 0.5 0 0.5 0 0.5 0 0.5 0 0.5 0 0.5 0 0.5;
#X msg 206 331 1 0 0.5 0.1 0.4 1 0 0.4 1 0 0.5 1 0.4 0 1 0.4;
#X msg 65 394 0.5 0.5 0.8 0.5 0.87 0.5 0.8 0.5 0.35 0.35 0.5 0.63 0.3
0.3 0.47 0.59;
#X msg 262 447 1 0.5 1 0.5 1 0.5 1 0.5 1 1 0.5 0.5 1 1 0.5 0.5;
#X obj 118 32 select 0 1 2 3;
#X obj 341 197 / 100;
#X obj 341 147 until;
#X msg 338 120 16;
#X obj 311 129 bng 15 250 50 0 empty empty empty 17 7 0 10 #fcfcfc
#000000 #000000;
#X obj 324 231 list prepend;
#X obj 426 233 list;
#X obj 320 259 list;
#X obj 311 91 t b b b;
#X obj 310 65 bng 15 250 50 0 empty empty empty 17 7 0 10 #fcfcfc #000000
#000000;
#X obj 505 178 random 100;
#X obj 505 202 / 100;
#X obj 505 149 until;
#X msg 506 124 16;
#X obj 477 134 bng 15 250 50 0 empty empty empty 17 7 0 10 #fcfcfc
#000000 #000000;
#X obj 507 236 list prepend;
#X obj 610 234 list;
#X obj 487 262 list;
#X obj 477 96 t b b b;
#X obj 476 70 bng 15 250 50 0 empty empty empty 17 7 0 10 #fcfcfc #000000
#000000;
#X obj 341 173 random 100;
#X obj 118 6 inlet;
#X obj 260 494 s filtMulti-rcv;
#X obj 37 483 s pitchMulti-rcv;
#X connect 0 0 27 0;
#X connect 1 0 26 0;
#X connect 2 0 27 0;
#X connect 3 0 26 0;
#X connect 4 0 0 0;
#X connect 4 0 1 0;
#X connect 4 1 2 0;
#X connect 4 1 3 0;
#X connect 4 2 13 0;
#X connect 4 3 23 0;
#X connect 5 0 9 0;
#X connect 6 0 24 0;
#X connect 7 0 6 0;
#X connect 8 0 11 0;
#X connect 9 0 10 0;
#X connect 9 0 11 1;
#X connect 10 0 9 1;
#X connect 11 0 27 0;
#X connect 12 0 8 0;
#X connect 12 1 7 0;
#X connect 12 2 10 0;
#X connect 13 0 12 0;
#X connect 14 0 15 0;
#X connect 15 0 19 0;
#X connect 16 0 14 0;
#X connect 17 0 16 0;
#X connect 18 0 21 0;
#X connect 19 0 20 0;
#X connect 19 0 21 1;
#X connect 20 0 19 1;
#X connect 21 0 26 0;
#X connect 22 0 18 0;
#X connect 22 1 17 0;
#X connect 22 2 20 0;
#X connect 23 0 22 0;
#X connect 24 0 5 0;
#X connect 25 0 4 0;
#X restore 469 95 pd presetsandrandom;
#X floatatom 419 62 5 0 0 0 - - - 0;
#X text 509 66 button index;
#X obj 466 39 r presetGrid;
#X obj 124 270 t f f f f f, f 31;
#X text 536 322 Fill tables with multisliders content, f 20;
#X obj 541 365 r pitchMulti;
#X connect 0 0 2 0;
#X connect 1 0 0 0;
#X connect 2 0 38 0;
#X connect 3 0 17 0;
#X connect 4 0 16 0;
#X connect 5 0 6 0;
#X connect 6 0 7 0;
#X connect 7 0 9 0;
#X connect 9 0 18 0;
#X connect 10 0 19 0;
#X connect 11 0 0 1;
#X connect 11 0 22 1;
#X connect 12 0 15 1;
#X connect 13 0 22 0;
#X connect 13 1 14 0;
#X connect 14 0 12 0;
#X connect 15 0 8 1;
#X connect 15 0 8 0;
#X connect 16 0 5 0;
#X connect 17 0 2 1;
#X connect 18 0 15 0;
#X connect 19 0 18 1;
#X connect 20 0 1 0;
#X connect 21 0 11 0;
#X connect 22 0 12 0;
#X connect 23 0 31 0;
#X connect 30 0 21 0;
#X connect 31 0 32 0;
#X connect 33 0 26 0;
#X connect 37 0 35 0;
#X connect 37 0 34 0;
#X connect 38 0 29 0;
#X connect 38 1 4 0;
#X connect 38 2 10 0;
#X connect 38 3 13 0;
#X connect 38 4 3 0;
#X connect 40 0 25 0;
#X restore 426 297 pd stuff;
#X obj 46 253 hradio 15 1 0 16 indexSlider indexSlider-rcv empty 0
-8 0 10 #0f4710 #00ff04 #000000 0;
#X text 54 425 preset;
#X text 114 425 preset;
#X text 174 425 random;
#X text 174 440 pitch;
#X text 234 425 random;
#X text 234 440 filter;
#X text 50 114 pitch;
#X text 53 279 filter;
#N canvas 0 0 450 300 mob-listeners 0;
#X obj 20 50 mob/tools/listenerHradio presetGrid presetGrid-rcv 1 4
;
#X obj 20 100 mob/tools/listenerHradio indexSlider indexSlider-rcv
3 16;
#X obj 20 0 mob/tools/loader2 multislider-sequencer-demo;
#X restore 425 54 pd mob-listeners;
#X obj 45 104 mob/multislider pitchMulti pitchMulti-rcv 4;
#A saved -back_alpha 1;
#A saved -front_alpha 1;
#A saved -save_contents 0;
#A saved -front_color -1 252 143;
#A saved -back_color -1 252 143;
#A saved -back_color -1 255 255;
#A saved -size 16;
#A saved -name pitchMulti;
#A saved -yto 0;
#A saved -xto 16;
#A saved -yfrom 1;
#A saved -xfrom 0;
#A saved -height 140;
#A saved -width 240;
#X obj 47 282 mob/multislider filtMulti filtMulti-rcv 5;
#A saved -back_alpha 1;
#A saved -front_alpha 1;
#A saved -save_contents 0;
#A saved -front_color -1 252 143;
#A saved -back_color -1 252 143;
#A saved -back_color -1 255 255;
#A saved -size 16;
#A saved -name filtMulti;
#A saved -yto 0;
#A saved -xto 16;
#A saved -yfrom 1;
#A saved -xfrom 0;
#A saved -height 140;
#A saved -width 240;
