#N struct bckgrnd float x float y float width float height float color
;
#N canvas 602 95 1114 944 16;
#X scalar bckgrnd 0 0 600 960 653 \;;
#X text 616 56 [mob] crée un sous-patch [pd mob-listeners];
#X obj 283 17 mob;
#A saved -R 170.669;
#A saved -G 134.528;
#A saved -B 86.3386;
#A saved -pages 1;
#A saved -mode 0;
#X text 625 85 où seront stockées les instances de mob/listener ainsi
qu'un mob/loader, f 41;
#X text 628 166 TO DO permettre des mapping log des sliders;
