#N struct 1671-barray array z 1671-arrayelement float color;
#N struct 1671-arrayelement float zz;
#N canvas 0 0 1920 1021 10;
#X msg 347 188 vis 1;
#X obj 346 160 iemguts/propertybang;
#X obj 435 209 r \$0-ok;
#X msg 438 238 vis 0;
#N canvas 0 0 1427 874 gui_feedback 0;
#X msg 148 73 set \$1;
#X msg 28 83 set \$1;
#X obj 32 45 r \$0-height;
#X obj 153 36 r \$0-width;
#X obj 151 112 s \$0-width-rcv;
#X obj 31 121 s \$0-height-rcv;
#X obj 45 247 r \$0-style;
#X msg 32 352 set \$1;
#X obj 31 388 s \$0-style-rcv;
#X obj 307 247 s \$0-xfrom-rcv;
#X obj 444 250 s \$0-yfrom-rcv;
#X obj 311 179 r \$0-xfrom;
#X obj 448 182 r \$0-yfrom;
#X msg 311 202 set \$1;
#X msg 448 205 set \$1;
#X obj 326 98 s \$0-xto-rcv;
#X obj 421 97 s \$0-yto-rcv;
#X obj 336 38 r \$0-xto;
#X obj 400 38 r \$0-yto;
#X msg 336 61 set \$1;
#X msg 400 61 set \$1;
#X obj 622 15 r \$0-size;
#X obj 565 100 s \$0-size-rcv;
#X msg 561 46 set \$1;
#X obj 620 260 r \$0-linewidth;
#X obj 619 316 s \$0-linewidth-rcv;
#X msg 620 283 set \$1;
#X obj 733 152 s \$0-style-rcv;
#X obj 828 158 s \$0-mode-rcv;
#X obj 930 159 s \$0-displayMode-rcv;
#X obj 738 70 r \$0-style;
#X obj 833 76 r \$0-mode;
#X obj 935 77 r \$0-displayMode;
#X msg 738 93 set \$1;
#X msg 833 99 set \$1;
#X msg 935 100 set \$1;
#X obj 874 313 r \$0-save_contents;
#X msg 874 336 set \$1;
#X obj 867 373 s \$0-save_contents-rcv;
#X obj 644 48 s \$0-xto;
#X obj 562 144 t b;
#X obj 562 167 delay 40;
#X obj 562 190 s \$0-set;
#X obj 592 80 change;
#X obj 139 314 select 0 1;
#X obj 187 469 s \$0-yfrom;
#X obj 267 469 s \$0-yto;
#X msg 180 380 1 0;
#X msg 247 378 1 -1;
#X obj 198 418 unpack f f;
#X msg 428 479 set \$1;
#X obj 428 456 r \$0-borders;
#X obj 427 512 s \$0-borders-rcv;
#X obj 639 564 r \$0-width;
#X obj 717 564 r \$0-height;
#X obj 646 605 s \$0-w;
#X obj 724 605 s \$0-h;
#X connect 0 0 4 0;
#X connect 1 0 5 0;
#X connect 2 0 1 0;
#X connect 3 0 0 0;
#X connect 6 0 7 0;
#X connect 6 0 44 0;
#X connect 7 0 8 0;
#X connect 11 0 13 0;
#X connect 12 0 14 0;
#X connect 13 0 9 0;
#X connect 14 0 10 0;
#X connect 17 0 19 0;
#X connect 18 0 20 0;
#X connect 19 0 15 0;
#X connect 20 0 16 0;
#X connect 21 0 23 0;
#X connect 21 0 39 0;
#X connect 21 0 43 0;
#X connect 23 0 22 0;
#X connect 24 0 26 0;
#X connect 26 0 25 0;
#X connect 30 0 33 0;
#X connect 31 0 34 0;
#X connect 32 0 35 0;
#X connect 33 0 27 0;
#X connect 34 0 28 0;
#X connect 35 0 29 0;
#X connect 36 0 37 0;
#X connect 37 0 38 0;
#X connect 40 0 41 0;
#X connect 41 0 42 0;
#X connect 43 0 40 0;
#X connect 44 0 47 0;
#X connect 44 1 48 0;
#X connect 47 0 49 0;
#X connect 48 0 49 0;
#X connect 49 0 45 0;
#X connect 49 1 46 0;
#X connect 50 0 52 0;
#X connect 51 0 50 0;
#X connect 53 0 55 0;
#X connect 54 0 56 0;
#X restore 556 384 pd gui_feedback;
#X obj 40 64 namecanvas \$0-this;
#N canvas 3 51 450 300 \$0-display 0;
#X scalar 1671-barray 900 \; 0 \; 0 \; 0 \; 0 \; 0 \; 0 \; 0 \; 0 \;
0 \; 0 \; \;;
#X coords 0 1 10 0 200 140 2 100 20;
#X restore 40 130 pd \$0-display;
#N canvas 543 70 1179 895 resize 0;
#X obj 883 220 r \$0-width;
#X obj 961 220 r \$0-height;
#X obj 548 220 t b b;
#X obj 603 462 s pd-\$0-graph;
#X obj 626 418 s pd-\$0-display;
#X obj 548 528 t b b;
#X msg 580 860 dirty 0;
#X obj 580 882 s \$0-this;
#X obj 580 374 t l l l;
#X obj 580 506 s \$0-this;
#X obj 706 131 r \$0-yfrom;
#X obj 819 220 r \$0-yto;
#X obj 599 220 r \$0-xfrom;
#X obj 755 220 r \$0-xto;
#X obj 548 838 t b b;
#X obj 548 198 r \$0-set;
#X obj 548 772 t b b;
#X obj 580 352 pack f f f f f f f f;
#X obj 883 286 *;
#X obj 883 308 !=;
#X obj 883 330 * 2;
#X obj 592 799 f;
#X obj 615 726 r \$0-color;
#X msg 626 396 donecanvasdialog 1 1 \$8 \$2 \$3 \$4 \$5 \$6 \$7 100
20;
#X msg 603 440 donecanvasdialog 1 1 \$8 \$2 \$3 \$4 \$5 \$6 \$7 0 0
;
#X msg 580 484 donecanvasdialog 1 1 \$8 \$2 \$3 \$4 \$5 \$6 \$7 40
130;
#X floatatom 599 243 5 0 0 0 - - - 0;
#X obj 939 259 t b f;
#X obj 309 387 symbol pd-\$0-display;
#X msg 309 410 traverse \$1 \, next;
#X obj 82 255 r \$0-size;
#X obj 81 348 t f b;
#X obj 313 480 pointer;
#X obj 313 601 s \$0-structpointer;
#X obj 150 748 pointer;
#X msg 50 743 900;
#X obj 47 813 s \$0-structpointer;
#X obj 628 826 set barray color;
#X obj 1054 614 r \$0-structpointer;
#X obj 486 189 r \$0-ok;
#X msg 153 721 traverse \$1 \, bang;
#X obj 148 687 symbol pd-\$0-display;
#X obj 152 658 bng 15 250 50 0 empty empty empty 17 7 0 10 #fcfcfc
#000000 #000000;
#X msg 825 701 \$1 \$1 \$1 \$1 \$1 \$1 \$1 \$1;
#X obj 849 660;
#X msg 902 645 const 1;
#X obj 858 748 list append arsray set -s barray z -f arrayelement color
;
#X obj 22 588 setsize \$0-barray z, f 40;
#X obj 48 778 append \$0-barray color;
#X obj 82 307 spigot;
#X obj 211 263 loadbang;
#X msg 211 286 1;
#X obj 638 330 - 0;
#X connect 0 0 17 5;
#X connect 0 0 18 0;
#X connect 1 0 17 6;
#X connect 1 0 27 0;
#X connect 2 0 5 0;
#X connect 2 1 17 0;
#X connect 5 0 16 0;
#X connect 6 0 7 0;
#X connect 8 0 25 0;
#X connect 8 1 24 0;
#X connect 8 2 23 0;
#X connect 10 0 17 2;
#X connect 11 0 17 4;
#X connect 12 0 17 1;
#X connect 12 0 26 0;
#X connect 13 0 52 0;
#X connect 14 1 6 0;
#X connect 15 0 2 0;
#X connect 16 0 14 0;
#X connect 16 1 21 0;
#X connect 17 0 8 0;
#X connect 18 0 19 0;
#X connect 19 0 20 0;
#X connect 20 0 17 7;
#X connect 22 0 21 1;
#X connect 23 0 4 0;
#X connect 24 0 3 0;
#X connect 25 0 9 0;
#X connect 27 0 18 0;
#X connect 27 1 18 1;
#X connect 28 0 29 0;
#X connect 29 0 32 0;
#X connect 30 0 49 0;
#X connect 31 0 47 0;
#X connect 31 1 28 0;
#X connect 32 0 33 0;
#X connect 32 0 47 1;
#X connect 34 0 48 1;
#X connect 35 0 48 0;
#X connect 39 0 2 0;
#X connect 40 0 34 0;
#X connect 41 0 40 0;
#X connect 42 0 41 0;
#X connect 43 0 46 0;
#X connect 45 0 46 0;
#X connect 48 0 36 0;
#X connect 49 0 31 0;
#X connect 50 0 51 0;
#X connect 51 0 49 1;
#X connect 52 0 17 3;
#X restore 559 481 pd resize;
#X obj 345 266 s pd-bargraph_properties(\$0);
#N canvas 601 290 420 500 bargraph_properties(\$0) 0;
#X obj 8 6 cnv 15 400 300 empty empty empty 20 12 0 14 #e0e0e0 #404040
0;
#X floatatom 308 110 5 0 0 0 width \$0-width-rcv \$0-width 0;
#X floatatom 306 85 5 0 0 0 height \$0-height-rcv \$0-height 0;
#N canvas 0 50 450 300 todo 0;
#X obj 244 238 nbx 3 20 10 200 1 0 \$0-spdrt \$0-spdrt-rcv speed_ratio(%)
-140 10 0 16 #fcfcfc #000000 #000000 0 256;
#X obj 35 101 cnv 15 200 80 empty empty TODO 20 12 0 14 #fcfcc4 #404040
0;
#X floatatom 187 130 5 0 0 0 text_color \$0-cc-rcv \$0-cc-snd 0;
#N canvas 0 50 450 300 (subpatch) 0;
#X obj 215 153 cnv 20 20 20 empty \$0-cc_cnv-rcv empty 20 12 0 14 #000000
#404040 0;
#X msg 316 159 color \$1 \$1;
#X obj 316 117 r \$0-cursor_color;
#X obj 316 198 s \$0-cc_cnv-rcv;
#X connect 1 0 3 0;
#X connect 2 0 1 0;
#X coords 0 -1 1 1 20 20 2 100 100;
#X restore 288 132 pd;
#X floatatom 187 173 5 0 0 0 text_size - - 0;
#X floatatom 277 38 5 0 0 0 z-offset \$0-z_offset-rcv \$0-z_offset
0;
#X obj 153 21 tgl 20 0 \$0-invisible \$0-invisible-rcv Invisible -100
8 0 16 #fcfcfc #000000 #000000 0 1;
#X obj 153 40 tgl 20 0 \$0-z_offset \$0-z_offset-rcv MoveOnTop -100
8 0 16 #fcfcfc #000000 #000000 0 99;
#X restore 141 358 pd todo;
#X obj 9 309 cnv 15 400 180 empty empty empty 20 12 0 14 #c4fcc4 #404040
0;
#X text 48 317 MobMuPlat Widget Export, f 25;
#X floatatom 104 435 5 0 0 0 z-offset \$0-z_offset-rcv \$0-z_offset
0;
#X obj 135 458 tgl 20 0 \$0-z_offset \$0-z_offset-rcv MoveOnTop -100
8 0 16 #fcfcfc #000000 #000000 0 99;
#X obj 92 382 hsl 60 20 0 1 0 0 \$0-front_alpha \$0-front_alpha-rcv
empty -2 -8 0 10 #fcfcfc #000000 #000000 0 1;
#X obj 91 352 hsl 60 20 0 1 0 0 \$0-back_alpha \$0-back_alpha-rcv empty
-2 -8 0 10 #fcfcfc #000000 #000000 0 1;
#X text 19 171 front_color;
#X text 163 349 Back color Opacity;
#X text 165 379 Front color Opacity;
#N canvas 882 181 1049 632 color_picker 0;
#X obj 53 150 hsl 128 12 0 255 0 0 empty empty empty -2 -8 0 10 #dcdcdc
#fc0400 #000000 0 0;
#X obj 53 162 hsl 128 12 0 255 0 0 empty empty empty -2 -8 0 10 #dcdcdc
#00fc04 #000000 0 0;
#X obj 53 174 hsl 128 12 0 255 0 0 empty empty empty -2 -8 0 10 #dcdcdc
#0400fc #000000 0 0;
#X obj 183 150 tgl 36 0 empty empty empty 17 7 0 10 #c0b0c0 #c0b0c0
#c0b0c0 0 1;
#N canvas 0 50 498 451 convert2rgb 0;
#X obj 53 112 * -1;
#X obj 54 81 + 1;
#X obj 180 183 mod 256;
#X obj 51 179 div 256;
#X obj 52 143 t f f, f 13;
#X obj 49 210 t f f;
#X obj 48 248 div 256;
#X obj 132 250 mod 256;
#X obj 54 51 inlet;
#X obj 49 317 outlet;
#X obj 129 317 outlet;
#X obj 209 317 outlet;
#X connect 0 0 4 0;
#X connect 1 0 0 0;
#X connect 2 0 11 0;
#X connect 3 0 5 0;
#X connect 4 0 3 0;
#X connect 4 1 2 0;
#X connect 5 0 6 0;
#X connect 5 1 7 0;
#X connect 6 0 9 0;
#X connect 7 0 10 0;
#X connect 8 0 1 0;
#X restore 58 76 pd convert2rgb;
#X msg 286 149 color \$1 \$1 \$1;
#X msg 57 112 set \$1;
#X msg 141 109 set \$1;
#X msg 234 111 set \$1;
#X obj 83 332 t b f;
#X obj 144 333 t b f;
#X obj 149 291 i;
#X obj 104 292 i;
#X obj 61 294 i;
#X obj 67 410 expr ($f1*(-65536)+$f2*(-256)+$f3*(-1))-1;
#X obj 66 372 pack f f f;
#X obj 58 45 spigot 1;
#X obj 67 457 t b f b;
#X msg 134 495 0;
#X msg 67 486 1;
#X obj 58 14 r \$0-front_color;
#X obj 97 549 s \$0-front_color;
#X obj 220 224 / 31;
#X obj 254 224 / 31;
#X obj 289 222 / 31;
#X obj 220 246 int;
#X obj 254 246 int;
#X obj 289 244 int;
#X obj 220 268 * 100;
#X obj 254 268 * 10;
#X obj 220 354 +;
#X obj 257 312 +;
#X obj 257 334 t b f;
#X obj 295 285 t b f;
#X obj 220 376 s \$0-color;
#X connect 0 0 13 0;
#X connect 0 0 22 0;
#X connect 1 0 12 0;
#X connect 1 0 23 0;
#X connect 2 0 11 0;
#X connect 2 0 24 0;
#X connect 4 0 6 0;
#X connect 4 1 7 0;
#X connect 4 2 8 0;
#X connect 5 0 3 0;
#X connect 6 0 0 0;
#X connect 7 0 1 0;
#X connect 8 0 2 0;
#X connect 9 0 15 0;
#X connect 9 1 15 1;
#X connect 10 0 15 0;
#X connect 10 1 15 2;
#X connect 11 0 10 0;
#X connect 12 0 9 0;
#X connect 13 0 15 0;
#X connect 14 0 17 0;
#X connect 15 0 14 0;
#X connect 16 0 4 0;
#X connect 17 0 19 0;
#X connect 17 1 21 0;
#X connect 17 2 18 0;
#X connect 18 0 16 1;
#X connect 19 0 16 1;
#X connect 20 0 5 0;
#X connect 20 0 16 0;
#X connect 22 0 25 0;
#X connect 23 0 26 0;
#X connect 24 0 27 0;
#X connect 25 0 28 0;
#X connect 26 0 29 0;
#X connect 27 0 33 0;
#X connect 28 0 30 0;
#X connect 29 0 31 0;
#X connect 30 0 34 0;
#X connect 31 0 32 0;
#X connect 32 0 30 0;
#X connect 32 1 30 1;
#X connect 33 0 31 0;
#X connect 33 1 31 1;
#X coords 0 -1 1 1 169 36 2 50 150;
#X restore 99 176 pd color_picker;
#X obj 353 249 bng 40 250 50 0 \$0-ok empty OK 5 20 0 20 #c4fcc4 #000000
#000000;
#X symbolatom 91 13 30 0 0 0 name \$0-name-rcv \$0-name 0;
#X floatatom 93 37 8 1 999 0 size \$0-size-rcv \$0-size 0;
#X obj 93 62 tgl 15 0 \$0-save_contents \$0-save_contents-rcv save_contents
17 7 0 10 #fcfcfc #000000 #000000 0 1;
#X obj 291 169 bng 40 250 50 0 \$0-set empty APPLY 5 20 0 20 #c4fcc4
#000000 #000000;
#X text 30 236 back color not yet implemented;
#X obj 55 90 cnv 15 100 60 empty empty empty 20 12 0 14 #ffc7c6 #404040
0;
#X obj 56 108 vradio 15 1 0 2 \$0-style \$0-style-rcv empty 0 -8 0
10 #fcfcfc #000000 #000000 0;
#X text 67 87 style;
#X text 85 106 bargraph;
#X text 82 126 symetrique;
#X floatatom 211 108 5 0 20 0 borders \$0-borders-rcv \$0-borders 0
;
#X restore 344 288 pd bargraph_properties(\$0);
#N canvas 0 0 1920 1021 bargraph_edit 1;
#X obj 421 127 route click;
#X obj 390 350 list split 1;
#X obj 390 375 list trim;
#X obj 209 566 int;
#X obj 162 616 f;
#X obj 148 192 spigot;
#X msg 251 174 1;
#X msg 181 163 0;
#X obj 426 99 r \$0-struct;
#X obj 77 12 iemguts/receivecanvas 2;
#X obj 211 543 *;
#X obj 322 506 -;
#X obj 392 483 t b f;
#X obj 302 533 *;
#X obj 299 561 /;
#X obj 337 539 r \$0-height;
#X obj 325 453 r \$0-yto;
#X obj 407 422 r \$0-yfrom;
#X obj 197 467 /;
#X obj 226 439 r \$0-width;
#X obj 421 152 t b b a b;
#X obj 470 233 unpack f f;
#X obj 235 517 r \$0-size;
#X obj 290 589 +;
#X obj 327 580 r \$0-yfrom;
#X obj 470 210 iemguts/canvasposition 1;
#X obj 140 495 moses 0;
#X obj 171 518 moses 1;
#X obj 189 432 -;
#X obj 305 427 -;
#X obj 133 372 unpack f f f;
#X obj 438 651 pack f f;
#X obj 152 639 t f f;
#X obj 174 591 t b f f;
#X msg 438 674 \$2 \$1;
#X obj 238 682 element \$0-barray z;
#X obj 140 717 set \$0-arrayelement zz;
#X obj 163 320 list append;
#X obj 151 344 list split 3;
#X obj 299 225 delay 10;
#X obj 420 621 change;
#X obj 483 537 change;
#X obj 482 563 t b f;
#X msg 423 594 set 0;
#X obj 520 731 s \$0-touched;
#X obj 234 635 clip 0 1;
#X obj 218 406 / 1;
#X obj 186 407 / 1;
#X obj 217 369 r \$0-zoom;
#X obj 305 481 * 1, f 8;
#X obj 555 347 r \$0-style;
#X obj 555 370 select 0 1;
#X msg 551 405 1.2;
#X msg 565 429 0.6;
#X obj 262 612 - 0.1;
#X obj 159 285 s \$0-mouseup;
#X obj 180 234 spigot;
#X obj 180 257 t b f;
#X obj 59 39 route zoom;
#X obj 123 70 spigot 1;
#X obj 240 10 r MULTITOUCH.ACTIVESLOTS;
#X obj 240 39 == 0;
#X obj 92 95 route motion mouseup mouse;
#X obj 42 72 s \$0-zoom;
#N canvas 221 190 884 529 receive_MULTITOUCH.MODE2.parent\$0 0;
#X msg 176 71 bang;
#X obj 254 70 loadbang;
#X obj 230 430 outlet;
#N canvas 0 50 450 242 \$0-dynamic-receiver 0;
#X obj 10 10 r MULTITOUCH.MODE2.1667;
#X obj 10 50 s 1671-iem_receive;
#X connect 0 0 1 0;
#X restore 222 306 pd \$0-dynamic-receiver;
#X obj 219 147 pack s \$0;
#X obj 220 227 s pd-\$0-dynamic-receiver;
#X obj 230 395 r \$0-iem_receive;
#X msg 121 193 clear;
#X text 25 17 création dynamique d'un receiver avec un nom de canal
défini au moment de l'ouverture du patch;
#X msg 220 179 clear \, obj 10 10 r MULTITOUCH.MODE2.\$1 \, obj 10
50 s \$2-iem_receive \, connect 0 0 1 0;
#X text 423 381 A chaque nouvel événement touch-down \, [r MULTITOUCH.MODE2.\$1]
recoit un message sous la forme suivante : <x> <y> <slotID>, f 37
;
#X obj 181 104 iemguts/canvasdollarzero 3;
#X connect 0 0 11 0;
#X connect 1 0 11 0;
#X connect 4 0 9 0;
#X connect 6 0 2 0;
#X connect 7 0 5 0;
#X connect 9 0 5 0;
#X connect 11 0 4 0;
#X restore 266 54 pd receive_MULTITOUCH.MODE2.parent\$0;
#N canvas 770 9 1149 924 touch_listener 0;
#X obj 56 42 inlet;
#X obj 44 629 select 1;
#X obj 46 691 pack f f;
#X obj 44 659 f \$0;
#X obj 73 771 tabwrite MULTITOUCH.SLOT.STATUS;
#X obj 42 811 list append, f 14;
#X obj 58 127 spigot 1;
#X msg 156 65 0;
#X msg 212 102 1;
#X obj 392 33 r \$0-channel;
#X obj 393 67 route remove update;
#X obj 185 263 tabread MULTITOUCH.SLOT.STATUS;
#X obj 58 163 list split 2;
#X obj 52 333 spigot;
#X obj 185 322 == 0;
#X text 193 294 check if slot still free;
#X obj 152 221 t f f f;
#X obj 596 555 pack f f;
#X obj 46 728 t b l b l b;
#X obj 181 611 pack f f;
#X obj 54 478 t f f;
#X obj 382 103 t b b b b;
#X obj 306 818 list append 0 0;
#X obj 403 497 t a a;
#X obj 440 535 list length;
#X obj 444 564 - 1;
#X obj 387 605 list split;
#X obj 385 644 list trim;
#X obj 39 930 outlet;
#X msg 27 856 add \$1 \$2;
#X msg 149 859 update \$1 \$2;
#X msg 309 862 remove \$1 \$2;
#X text 777 42 la table MULTITOUCH.SLOT.STATUS indique si chaque slot
(tracker de touch-event) est associé ou non à un élément GUI multitouch.
Si tel est le cas \, l'éĺément i de la table associé au slot i
prend la valeur \$0 du touch_listener auquel il est associé, f 33
;
#X obj 210 469 t f f;
#N canvas 0 0 450 300 Is_inside_Gui_object? 0;
#X obj 53 38 inlet;
#X obj 225 38 inlet;
#X obj 59 266 outlet;
#X obj 53 130 - 100;
#X obj 222 126 - 100;
#X obj 48 166 abs;
#X obj 222 157 abs;
#X obj 47 198 < 100;
#X obj 219 192 < 100;
#X obj 55 231 &&;
#X obj 145 72 / 2;
#X obj 309 63 / 2;
#X obj 139 42 r \$0-w;
#X obj 309 39 r \$0-h;
#X connect 0 0 3 0;
#X connect 1 0 4 0;
#X connect 3 0 5 0;
#X connect 4 0 6 0;
#X connect 5 0 7 0;
#X connect 6 0 8 0;
#X connect 7 0 9 0;
#X connect 8 0 9 1;
#X connect 9 0 2 0;
#X connect 10 0 3 1;
#X connect 10 0 7 1;
#X connect 11 0 4 1;
#X connect 11 0 8 1;
#X connect 12 0 10 0;
#X connect 13 0 11 0;
#X restore 46 541 pd Is_inside_Gui_object?;
#X f 10;
#N canvas 0 0 450 271 Gui_object_relative_coords 0;
#X obj 57 45 inlet;
#X obj 75 261 outlet;
#X obj 232 264 outlet;
#X obj 196 83 unpack f f;
#X obj 64 144 -;
#X obj 225 142 -;
#X obj 59 100 unpack f f;
#X obj 200 53 r \$0-pos;
#X connect 0 0 6 0;
#X connect 3 0 4 1;
#X connect 3 1 5 1;
#X connect 4 0 1 0;
#X connect 5 0 2 0;
#X connect 6 0 4 0;
#X connect 6 1 5 0;
#X connect 7 0 3 0;
#X restore 50 375 pd Gui_object_relative_coords;
#X f 13;
#N canvas 0 50 450 300 Normalize_coords 0;
#X obj 48 31 inlet;
#X obj 318 31 inlet;
#X obj 38 241 outlet;
#X obj 308 241 outlet;
#X obj 47 145 /;
#X obj 318 106 /;
#X obj 339 157 * -1;
#X obj 339 185 + 1;
#X obj 160 54 r \$0-w;
#X obj 398 58 r \$0-h;
#X connect 0 0 4 0;
#X connect 1 0 5 0;
#X connect 4 0 2 0;
#X connect 5 0 6 0;
#X connect 6 0 7 0;
#X connect 7 0 3 0;
#X connect 8 0 4 1;
#X connect 9 0 5 1;
#X restore 178 539 pd Normalize_coords;
#X f 10;
#N canvas 0 50 450 271 Gui_object_relative_coords 0;
#X obj 57 45 inlet;
#X obj 75 261 outlet;
#X obj 232 264 outlet;
#X obj 196 83 unpack f f;
#X obj 64 144 -;
#X obj 225 142 -;
#X obj 59 100 unpack f f;
#X obj 200 53 r \$0-pos;
#X connect 0 0 6 0;
#X connect 3 0 4 1;
#X connect 3 1 5 1;
#X connect 4 0 1 0;
#X connect 5 0 2 0;
#X connect 6 0 4 0;
#X connect 6 1 5 0;
#X connect 7 0 3 0;
#X restore 591 408 pd Gui_object_relative_coords;
#X f 13;
#N canvas 0 50 450 271 Normalize_coords 0;
#X obj 48 31 inlet;
#X obj 318 31 inlet;
#X obj 38 241 outlet;
#X obj 308 241 outlet;
#X obj 47 145 /;
#X obj 318 106 /;
#X obj 339 157 * -1;
#X obj 339 185 + 1;
#X obj 160 54 r \$0-w;
#X obj 398 58 r \$0-h;
#X connect 0 0 4 0;
#X connect 1 0 5 0;
#X connect 4 0 2 0;
#X connect 5 0 6 0;
#X connect 6 0 7 0;
#X connect 7 0 3 0;
#X connect 8 0 4 1;
#X connect 9 0 5 1;
#X restore 592 487 pd Normalize_coords;
#X f 10;
#X obj 594 615 t l l;
#X text 399 764 associe le slot i de la table MULTITOUCH.SLOT.STATUS
au \$0 du présent touch_listener, f 52;
#X connect 0 0 6 0;
#X connect 1 0 3 0;
#X connect 2 0 18 0;
#X connect 3 0 2 0;
#X connect 5 0 29 0;
#X connect 6 0 12 0;
#X connect 7 0 6 1;
#X connect 8 0 6 1;
#X connect 9 0 10 0;
#X connect 10 0 21 0;
#X connect 10 1 37 0;
#X connect 10 2 23 0;
#X connect 11 0 14 0;
#X connect 12 0 13 0;
#X connect 12 1 16 0;
#X connect 13 0 35 0;
#X connect 14 0 13 1;
#X connect 16 0 2 1;
#X connect 16 1 11 0;
#X connect 17 0 39 0;
#X connect 18 0 5 0;
#X connect 18 1 4 0;
#X connect 18 2 7 0;
#X connect 19 0 5 1;
#X connect 19 0 22 1;
#X connect 20 0 34 0;
#X connect 20 1 36 0;
#X connect 21 0 8 0;
#X connect 21 1 22 0;
#X connect 22 0 31 0;
#X connect 23 0 26 0;
#X connect 23 1 24 0;
#X connect 24 0 25 0;
#X connect 25 0 26 1;
#X connect 26 0 27 0;
#X connect 27 0 28 0;
#X connect 29 0 28 0;
#X connect 30 0 28 0;
#X connect 31 0 28 0;
#X connect 33 0 34 1;
#X connect 33 1 36 1;
#X connect 34 0 1 0;
#X connect 35 0 20 0;
#X connect 35 1 33 0;
#X connect 36 0 19 0;
#X connect 36 1 19 1;
#X connect 37 0 38 0;
#X connect 37 1 38 1;
#X connect 38 0 17 0;
#X connect 38 1 17 1;
#X connect 39 0 30 0;
#X connect 39 1 22 1;
#X restore 266 79 pd touch_listener;
#X msg 776 168 get_pos;
#X obj 770 205 s \$0-pos-rcv;
#X obj 767 113 r MULTITOUCH.ACTIVESLOTS;
#X obj 767 137 select 0;
#X obj 266 101 route remove update add;
#X obj 261 322 unpack f f;
#X obj 316 370 * 1.2;
#X obj 560 67 s \$0-mouseup;
#X obj 266 124 t b;
#X connect 0 0 20 0;
#X connect 1 0 2 0;
#X connect 2 0 35 1;
#X connect 3 0 33 0;
#X connect 4 0 32 0;
#X connect 5 0 30 0;
#X connect 6 0 5 1;
#X connect 6 0 56 1;
#X connect 7 0 5 1;
#X connect 7 0 56 0;
#X connect 8 0 0 0;
#X connect 9 0 58 0;
#X connect 10 0 3 0;
#X connect 11 0 13 1;
#X connect 12 0 11 0;
#X connect 12 1 11 1;
#X connect 13 0 14 0;
#X connect 14 0 23 0;
#X connect 15 0 14 1;
#X connect 16 0 11 0;
#X connect 17 0 12 0;
#X connect 18 0 26 0;
#X connect 19 0 18 1;
#X connect 20 0 6 0;
#X connect 20 1 39 0;
#X connect 20 2 1 0;
#X connect 20 3 25 0;
#X connect 21 0 28 1;
#X connect 21 1 29 1;
#X connect 22 0 10 1;
#X connect 23 0 54 0;
#X connect 24 0 23 1;
#X connect 25 0 21 0;
#X connect 26 1 27 0;
#X connect 27 0 10 0;
#X connect 28 0 18 0;
#X connect 29 0 49 0;
#X connect 30 0 47 0;
#X connect 30 1 46 0;
#X connect 31 0 34 0;
#X connect 32 0 40 0;
#X connect 32 1 36 0;
#X connect 33 0 4 0;
#X connect 33 1 41 0;
#X connect 33 2 35 0;
#X connect 34 0 44 0;
#X connect 35 0 36 1;
#X connect 37 0 38 0;
#X connect 38 0 30 0;
#X connect 39 0 37 0;
#X connect 40 0 31 0;
#X connect 41 0 42 0;
#X connect 42 0 43 0;
#X connect 42 1 31 1;
#X connect 43 0 40 0;
#X connect 45 0 4 1;
#X connect 46 0 29 0;
#X connect 47 0 28 0;
#X connect 48 0 46 1;
#X connect 48 0 47 1;
#X connect 49 0 13 0;
#X connect 50 0 51 0;
#X connect 51 0 52 0;
#X connect 51 1 53 0;
#X connect 51 2 52 0;
#X connect 52 0 49 1;
#X connect 53 0 49 1;
#X connect 54 0 45 0;
#X connect 56 0 57 0;
#X connect 57 0 55 0;
#X connect 57 1 56 1;
#X connect 58 0 63 0;
#X connect 58 1 59 0;
#X connect 59 0 62 0;
#X connect 60 0 61 0;
#X connect 61 0 59 1;
#X connect 62 0 5 0;
#X connect 62 1 7 0;
#X connect 62 2 37 1;
#X connect 64 0 65 0;
#X connect 65 0 70 0;
#X connect 66 0 67 0;
#X connect 68 0 69 0;
#X connect 69 0 66 0;
#X connect 70 0 74 0;
#X connect 70 1 71 0;
#X connect 71 0 10 0;
#X connect 71 1 72 0;
#X connect 72 0 54 0;
#X connect 74 0 73 0;
#X restore 559 453 pd bargraph_edit;
#N canvas 618 476 850 369 \$0-barstruct 0;
#X obj 0 0 struct \$0-arrayelement float zz;
#X obj 0 30 filledpolygon -xv 622 622 1 0 0 1 0 1 zz 0 zz 0 0;
#X restore 442 51 pd \$0-barstruct;
#N canvas 454 148 450 300 \$0-barraystruct 0;
#X obj 0 0 struct \$0-barray array z \$0-arrayelement float color;
#X obj 0 40 s \$0-struct;
#X obj 0 80 plot z 0 1 0 0 1 0;
#X connect 0 0 1 0;
#X restore 441 26 pd \$0-barraystruct;
#N canvas 0 0 450 300 receive_\$0-name-rcv 0;
#N canvas 0 0 450 300 \$0-receive 0;
#X obj 0 0 r my_bargraph-rcv;
#X obj 0 100 s 1671-inlet;
#X connect 0 0 1 0;
#X restore 23 92 pd \$0-receive;
#X obj 26 136 r \$0-inlet;
#X obj 139 64 r \$0-name;
#X obj 139 87 list append \$0-inlet;
#X msg 139 110 clear \, obj 0 0 r \$1-rcv \, obj 0 100 s \$2 \, connect
0 0 1 0;
#X obj 139 133 s pd-\$0-receive;
#X obj 26 159 outlet;
#X connect 1 0 6 0;
#X connect 2 0 3 0;
#X connect 3 0 4 0;
#X connect 4 0 5 0;
#X restore 50 361 pd receive_\$0-name-rcv;
#X text 1423 540 TODO : unique name;
#N canvas 0 0 450 300 dump 0;
#X obj 52 72 inlet;
#X obj 52 95 t b b;
#X msg 122 141 -1;
#X msg 35 154 0;
#X obj 223 111 r \$0-structpointer;
#X obj 50 258 outlet;
#X obj 50 188 array get -s \$0-barray z -f \$0-arrayelement zz;
#X connect 0 0 1 0;
#X connect 1 0 3 0;
#X connect 1 1 2 0;
#X connect 2 0 6 1;
#X connect 3 0 6 0;
#X connect 4 0 6 2;
#X connect 6 0 5 0;
#X restore 50 450 pd dump;
#X obj 50 576 s;
#X obj 70 542 r \$0-name;
#N canvas 43 -21 1920 1023 dynamic_struct_color_define 0;
#X obj 150 18 r \$0-color;
#X msg 223 179 clear;
#X obj 231 575 s pd-\$0-barraystruct;
#X obj 69 13 r \$0-ok;
#X obj 138 107 f;
#X obj 61 43 r \$0-set;
#X obj 137 77 spigot 1;
#X msg 271 36 0;
#X obj 144 47 t f f;
#X obj 135 146 t b b f b b;
#X msg 114 390 obj 0 0 struct \\\$0-barray array z \\\$0-arrayelement
float color \, obj 0 40 s \\\$0-struct \, obj 0 80 plot z 0 1 0 0 1
0 \, connect 0 0 1 0;
#X obj 386 799 s pd-\$0-display;
#X msg 385 765 clear;
#X obj 340 715 t b b;
#X obj 312 802 pointer;
#X msg 262 770 traverse \$1 \, bang;
#X obj 226 804 t b a;
#X obj 176 864 append \$0-barray color, f 40;
#X msg 186 824 900;
#X obj 309 743 symbol pd-\$0-display;
#X obj 342 647 loadbang;
#X obj 123 945 setsize \$0-barray z, f 40;
#X obj 110 919 v \$0-size;
#X obj 176 887 t b p p;
#X obj 456 942 s \$0-structpointer;
#X obj 755 63 r \$0-style;
#X obj 628 200 list prepend 0;
#X obj 579 160 list prepend 0;
#X obj 630 112 r \$0-borders;
#X obj 628 223 route 0 1;
#X msg 610 585 clear \, obj 0 0 struct \\\$0-arrayelement float zz
\, obj 0 30 filledpolygon -xv \$1 \$1 1 0 0 1 0 1 zz 0 zz 0 0;
#N canvas 0 0 450 300 pack_border_color 0;
#X obj 74 35 inlet;
#X obj 75 269 outlet;
#X obj 341 112 div 100;
#X obj 285 109 div 10;
#X obj 285 131 mod 10;
#X obj 285 153 - 1;
#X obj 341 134 - 1;
#X obj 250 109 mod 10;
#X obj 250 131 - 1;
#X obj 341 178 * 100;
#X obj 285 197 * 10;
#X obj 285 219 +;
#X obj 285 175 clip 0 8;
#X obj 341 156 clip 0 8;
#X obj 227 155 clip 0 8;
#X obj 227 178 +;
#X obj 235 58 t f f f f;
#X obj 118 249 pack f f f;
#X obj 214 235 r \$0-borders;
#X connect 0 0 16 0;
#X connect 2 0 6 0;
#X connect 3 0 4 0;
#X connect 4 0 5 0;
#X connect 5 0 12 0;
#X connect 6 0 13 0;
#X connect 7 0 8 0;
#X connect 8 0 14 0;
#X connect 9 0 11 1;
#X connect 10 0 11 0;
#X connect 11 0 15 1;
#X connect 12 0 10 0;
#X connect 13 0 9 0;
#X connect 14 0 15 0;
#X connect 15 0 17 1;
#X connect 16 0 17 0;
#X connect 16 1 7 0;
#X connect 16 2 3 0;
#X connect 16 3 2 0;
#X connect 17 0 1 0;
#X connect 18 0 17 2;
#X restore 652 494 pd pack_border_color;
#X obj 624 637 s pd-\$0-barstruct;
#X msg 1084 519 clear \, obj 0 0 struct \\\$0-arrayelement float zz
\, obj 0 30 filledpolygon -xv \$1 \$1 1 0 zz(-1:1)(1:-1) 1 zz(-1:1)(1:-1)
1 zz 0 zz 0 zz(-1:1)(1:-1);
#N canvas 0 0 450 300 pack_border_color 0;
#X obj 74 35 inlet;
#X obj 75 269 outlet;
#X obj 341 112 div 100;
#X obj 285 109 div 10;
#X obj 285 131 mod 10;
#X obj 285 153 - 1;
#X obj 341 134 - 1;
#X obj 250 109 mod 10;
#X obj 250 131 - 1;
#X obj 341 178 * 100;
#X obj 285 197 * 10;
#X obj 285 219 +;
#X obj 285 175 clip 0 8;
#X obj 341 156 clip 0 8;
#X obj 227 155 clip 0 8;
#X obj 227 178 +;
#X obj 235 58 t f f f f;
#X obj 118 249 pack f f f;
#X obj 214 235 r \$0-borders;
#X connect 0 0 16 0;
#X connect 2 0 6 0;
#X connect 3 0 4 0;
#X connect 4 0 5 0;
#X connect 5 0 12 0;
#X connect 6 0 13 0;
#X connect 7 0 8 0;
#X connect 8 0 14 0;
#X connect 9 0 11 1;
#X connect 10 0 11 0;
#X connect 11 0 15 1;
#X connect 12 0 10 0;
#X connect 13 0 9 0;
#X connect 14 0 15 0;
#X connect 15 0 17 1;
#X connect 16 0 17 0;
#X connect 16 1 7 0;
#X connect 16 2 3 0;
#X connect 16 3 2 0;
#X connect 17 0 1 0;
#X connect 18 0 17 2;
#X restore 1133 446 pd pack_border_color;
#X msg 648 541 clear \, obj 0 0 struct \\\$0-arrayelement float zz
\, obj 0 30 filledpolygon -xv \$1 \$2 \$3 0 0 1 0 1 zz 0 zz 0 0;
#X msg 1336 581 clear \, obj 0 0 struct \\\$0-arrayelement float zz
\, obj 0 30 filledpolygon -xv \$1 \$2 \$3 0 zz(-1:1)(1:-1) 1 zz(-1:1)(1:-1)
1 zz 0 zz 0 zz(-1:1)(1:-1);
#X obj 624 326 route 0;
#X obj 924 340 route 0;
#X msg 677 379 \$2;
#X msg 1082 379 \$2;
#X connect 0 0 8 0;
#X connect 1 0 2 0;
#X connect 3 0 4 0;
#X connect 4 0 9 0;
#X connect 5 0 4 0;
#X connect 6 0 4 0;
#X connect 7 0 6 1;
#X connect 8 0 6 0;
#X connect 8 1 4 1;
#X connect 9 1 10 0;
#X connect 9 2 27 0;
#X connect 9 3 1 0;
#X connect 9 4 7 0;
#X connect 10 0 2 0;
#X connect 12 0 11 0;
#X connect 13 0 19 0;
#X connect 13 1 12 0;
#X connect 14 0 16 0;
#X connect 15 0 14 0;
#X connect 16 0 18 0;
#X connect 16 1 17 1;
#X connect 17 0 23 0;
#X connect 18 0 17 0;
#X connect 19 0 15 0;
#X connect 20 0 13 0;
#X connect 22 0 21 0;
#X connect 23 0 22 0;
#X connect 23 1 21 1;
#X connect 23 2 24 0;
#X connect 25 0 26 1;
#X connect 26 0 29 0;
#X connect 27 0 26 0;
#X connect 28 0 27 1;
#X connect 29 0 37 0;
#X connect 29 1 38 0;
#X connect 30 0 32 0;
#X connect 31 0 35 0;
#X connect 33 0 32 0;
#X connect 34 0 36 0;
#X connect 35 0 32 0;
#X connect 36 0 32 0;
#X connect 37 0 30 0;
#X connect 37 1 39 0;
#X connect 38 0 33 0;
#X connect 38 1 40 0;
#X connect 39 0 31 0;
#X connect 40 0 34 0;
#X restore 681 181 pd dynamic_struct_color_define;
#N canvas 0 0 1920 1021 mmp-export-sarray_as_array(bargraph) 0;
#X obj 48 256 r \$0-x;
#X obj 138 309 r \$0-y;
#X obj 27 293 f;
#X obj 142 658 list append 125;
#X obj 142 636 list prepend add 123;
#X obj 155 700 list trim;
#X obj 155 722 s MMP_BINFILE;
#X obj 395 117 v MMP_FIRST_GUI_ITEM;
#X obj 397 145 select 1;
#X msg 433 598 add 44 123;
#X msg 337 597 add 123;
#X msg 399 184 0;
#X obj 398 222 v MMP_FIRST_GUI_ITEM;
#X obj 657 81 iemguts/canvasposition 1;
#X obj 715 128 s \$0-y;
#X obj 656 126 s \$0-x;
#X obj 657 104 unpack f f;
#X obj 875 82 v WIDGET-ID;
#X obj 875 107 + 1;
#X obj 875 132 s WIDGET-ID;
#X obj 74 587 list fromsymbol;
#X obj 111 195 r MOB_ZOOM;
#X obj 78 344 * 1;
#X obj 132 350 * 1;
#X obj 255 350 * 1;
#X obj 197 345 * 1;
#N canvas 278 130 450 300 MMP_EXPORT_BY_INDEX 0;
#X obj 151 40 r MMP_EXPORT_BY_INDEX;
#X obj 146 268 outlet;
#X text 38 6 enable z-order;
#X obj 151 69 t f b;
#X obj 203 96 canvasindex 2;
#X obj 146 235 select;
#X obj 202 145 + 0;
#X obj 249 126 r \$0-z_offset;
#X obj 202 174 max 0;
#X obj 202 203 min 1;
#X obj 298 171 - 1;
#X connect 0 0 3 0;
#X connect 3 0 5 0;
#X connect 3 1 4 0;
#X connect 4 0 6 0;
#X connect 4 1 10 0;
#X connect 5 0 1 0;
#X connect 6 0 8 0;
#X connect 7 0 6 1;
#X connect 8 0 9 0;
#X connect 9 0 5 1;
#X connect 10 0 9 1;
#X restore 66 14 pd MMP_EXPORT_BY_INDEX;
#X obj 68 53 t b b b b b, f 134;
#X obj 198 306 r \$0-width;
#X obj 276 307 r \$0-height;
#X text 82 364 \$1;
#X text 138 368 \$2;
#X text 201 364 \$3;
#X text 259 367 \$4;
#X text 356 267 \$5;
#X text 358 391 \$6;
#X text 528 372 \$9;
#X obj 110 229 t f b f b f b f, f 23;
#X obj 450 272 r \$0-back_color;
#N canvas 0 0 534 640 canvas_color_to_rgb 0;
#X obj 119 35 inlet;
#X obj 121 96 + 1;
#X obj 121 125 * -1;
#X obj 134 159 t f f f;
#X obj 45 193 / 65536;
#X obj 163 194 / 256;
#X obj 247 197 mod 256;
#X obj 163 223 mod 256;
#X obj 45 222 int;
#X obj 45 251 / 255;
#X obj 163 252 / 255;
#X obj 247 226 / 255;
#X obj 40 283 outlet;
#X obj 164 285 outlet;
#X obj 254 283 outlet;
#X connect 0 0 1 0;
#X connect 1 0 2 0;
#X connect 2 0 3 0;
#X connect 3 0 4 0;
#X connect 3 1 5 0;
#X connect 3 2 6 0;
#X connect 4 0 8 0;
#X connect 5 0 7 0;
#X connect 6 0 11 0;
#X connect 7 0 10 0;
#X connect 8 0 9 0;
#X connect 9 0 12 0;
#X connect 10 0 13 0;
#X connect 11 0 14 0;
#X restore 579 321 pd canvas_color_to_rgb;
#X obj 734 317 r \$0-back_alpha;
#N canvas 0 0 534 640 canvas_color_to_rgb 0;
#X obj 119 35 inlet;
#X obj 121 96 + 1;
#X obj 121 125 * -1;
#X obj 134 159 t f f f;
#X obj 45 193 / 65536;
#X obj 163 194 / 256;
#X obj 247 197 mod 256;
#X obj 163 223 mod 256;
#X obj 45 222 int;
#X obj 45 251 / 255;
#X obj 163 252 / 255;
#X obj 247 226 / 255;
#X obj 40 283 outlet;
#X obj 164 285 outlet;
#X obj 254 283 outlet;
#X connect 0 0 1 0;
#X connect 1 0 2 0;
#X connect 2 0 3 0;
#X connect 3 0 4 0;
#X connect 3 1 5 0;
#X connect 3 2 6 0;
#X connect 4 0 8 0;
#X connect 5 0 7 0;
#X connect 6 0 11 0;
#X connect 7 0 10 0;
#X connect 8 0 9 0;
#X connect 9 0 12 0;
#X connect 10 0 13 0;
#X connect 11 0 14 0;
#X restore 386 382 pd canvas_color_to_rgb;
#X obj 388 358 r \$0-front_color;
#X obj 526 357 r \$0-front_alpha;
#X obj 443 326 s WIDGET-ID;
#X obj 799 352 r \$0-size;
#X text 315 348 \$5;
#X text 606 349 \$10 \$11 \$12;
#X text 742 336 \$13;
#X text 817 384 \$14;
#N canvas 396 91 1101 721 export_args 0;
#X obj 371 334 iemguts/canvasargs 2;
#X obj 275 58 inlet;
#X obj 376 77 r \$0-name;
#X obj 361 128 symbol;
#X obj 361 157 t s s;
#X msg 401 188 symbol \$1-rcv;
#X obj 369 232 pack s s f;
#X obj 481 118 r WIDGET-ID;
#X connect 1 0 3 0;
#X connect 2 0 3 1;
#X connect 3 0 4 0;
#X connect 4 0 6 0;
#X connect 4 1 5 0;
#X connect 5 0 6 1;
#X connect 6 0 0 0;
#X connect 7 0 6 2;
#X restore 961 284 pd export_args;
#X msg 73 457 symbol "address":"\$5"\\\,"color":[\$10\\\,\$11\\\,\$12\\\,\$13]\\\,"highlightColor":[\$6\\\,\$7\\\,\$8\\\,\$9]\\\,"frame":[\$1\\\,\$2\\\,\$3\\\,\$4]\\\,"color":[\$6\\\,\$7\\\,\$8\\\,\$9]\\\,"class":"MMPMultiSlider"\\\,"range":\$14
;
#X obj 331 212 r \$0-name;
#X obj 288 201 r WIDGET-ID;
#X obj 290 232 list append;
#X msg 290 261 symbol \$1.\$2;
#X obj 74 418 pack f f f f s f f f f f f f f f, f 121;
#X connect 0 0 2 1;
#X connect 1 0 23 0;
#X connect 2 0 22 0;
#X connect 3 0 5 0;
#X connect 4 0 3 0;
#X connect 5 0 6 0;
#X connect 7 0 8 0;
#X connect 8 0 10 0;
#X connect 8 0 11 0;
#X connect 8 1 9 0;
#X connect 9 0 4 1;
#X connect 10 0 4 1;
#X connect 11 0 12 0;
#X connect 13 0 16 0;
#X connect 16 0 15 0;
#X connect 16 1 14 0;
#X connect 17 0 18 0;
#X connect 18 0 19 0;
#X connect 20 0 4 0;
#X connect 21 0 37 0;
#X connect 22 0 56 0;
#X connect 23 0 56 1;
#X connect 24 0 56 3;
#X connect 25 0 56 2;
#X connect 26 0 27 0;
#X connect 27 0 2 0;
#X connect 27 1 7 0;
#X connect 27 2 50 0;
#X connect 27 3 13 0;
#X connect 27 4 17 0;
#X connect 28 0 25 0;
#X connect 29 0 24 0;
#X connect 37 0 22 1;
#X connect 37 1 23 0;
#X connect 37 2 23 1;
#X connect 37 3 25 0;
#X connect 37 4 25 1;
#X connect 37 5 24 0;
#X connect 37 6 24 1;
#X connect 38 0 39 0;
#X connect 39 0 56 9;
#X connect 39 1 56 10;
#X connect 39 2 56 11;
#X connect 40 0 56 12;
#X connect 41 0 56 5;
#X connect 41 1 56 6;
#X connect 41 2 56 7;
#X connect 42 0 41 0;
#X connect 43 0 56 8;
#X connect 45 0 56 13;
#X connect 51 0 20 0;
#X connect 52 0 54 1;
#X connect 53 0 54 0;
#X connect 54 0 55 0;
#X connect 55 0 56 4;
#X connect 56 0 51 0;
#X restore 557 428 pd mmp-export-sarray_as_array(bargraph);
#X obj 26 309 inlet;
#N canvas 758 63 450 300 list 0;
#X obj 36 4 inlet;
#X obj 230 70 r \$0-structpointer;
#X obj 40 246 array set -s \$0-barray z -f \$0-arrayelement zz;
#X obj 38 33 t l l;
#X obj 112 57 list length;
#X obj 112 104 s \$0-size;
#X obj 42 132 t l b, f 18;
#X msg 154 171 0;
#X connect 0 0 3 0;
#X connect 1 0 2 2;
#X connect 3 0 6 0;
#X connect 3 1 4 0;
#X connect 4 0 5 0;
#X connect 6 0 2 0;
#X connect 6 1 7 0;
#X connect 7 0 2 1;
#X restore 113 507 pd list;
#N canvas 758 63 450 300 set 0;
#X obj 36 4 inlet;
#X obj 230 70 r \$0-structpointer;
#X obj 40 246 array set -s \$0-barray z -f \$0-arrayelement zz;
#X obj 38 33 unpack f f;
#X obj 40 83 swap;
#X obj 40 165 clip 0 1;
#X connect 0 0 3 0;
#X connect 1 0 2 2;
#X connect 3 0 4 0;
#X connect 3 1 4 1;
#X connect 4 0 5 0;
#X connect 4 1 2 1;
#X connect 5 0 2 0;
#X restore 146 473 pd set;
#X obj 376 448 r \$0-touched;
#X obj 376 556 outlet;
#X obj 50 513 t l l;
#X obj 94 579 outlet;
#X msg 264 568 dump;
#X obj 205 430 clip 1 999;
#X obj 205 453 s \$0-size;
#X msg 451 729 map 0 \, map 1;
#X obj 444 759 iemguts/sendcanvas 1;
#X obj 454 613 r \$0-size;
#X obj 454 636 t b;
#X obj 550 613 loadbang;
#X obj 550 636 delay 100;
#X obj 452 683 spigot;
#X msg 550 659 1;
#X obj 50 397 route dump list set size;
#N canvas 0 0 1918 476 init/savestate 0;
#X obj 226 397 savestate;
#X obj 226 439 list trim;
#X obj 303 3 r \$0-save;
#X obj 245 347 list, f 51;
#X obj 28 152 spigot 1;
#X msg 127 109 0;
#X obj 787 567 symbol;
#X obj 914 747 symbol;
#X obj 898 800 s \$0-title;
#X obj 1112 624 s \$0-front_alpha;
#X obj 1247 627 s \$0-back_alpha;
#X obj 823 668 s \$0-back_color;
#N canvas 0 0 540 413 convert 0;
#X obj 167 29 inlet;
#X obj 165 86 route float list;
#X obj 243 251 * -1;
#X obj 243 119 unpack f f f, f 17;
#X obj 243 285 - 1;
#X obj 326 153 * 256;
#X obj 243 153 * 65536;
#X obj 326 187 +;
#X obj 243 217 +;
#X obj 165 338 outlet;
#X connect 0 0 1 0;
#X connect 1 0 9 0;
#X connect 1 1 3 0;
#X connect 2 0 4 0;
#X connect 3 0 6 0;
#X connect 3 1 5 0;
#X connect 3 2 7 1;
#X connect 4 0 9 0;
#X connect 5 0 7 0;
#X connect 6 0 8 0;
#X connect 7 0 8 1;
#X connect 8 0 2 0;
#X restore 865 625 pd convert;
#N canvas 0 50 540 413 convert 0;
#X obj 167 29 inlet;
#X obj 165 86 route float list;
#X obj 243 251 * -1;
#X obj 243 119 unpack f f f, f 17;
#X obj 243 285 - 1;
#X obj 326 153 * 256;
#X obj 243 153 * 65536;
#X obj 326 187 +;
#X obj 243 217 +;
#X obj 165 338 outlet;
#X connect 0 0 1 0;
#X connect 1 0 9 0;
#X connect 1 1 3 0;
#X connect 2 0 4 0;
#X connect 3 0 6 0;
#X connect 3 1 5 0;
#X connect 3 2 7 1;
#X connect 4 0 9 0;
#X connect 5 0 7 0;
#X connect 6 0 8 0;
#X connect 7 0 8 1;
#X connect 8 0 2 0;
#X restore 934 629 pd convert;
#X obj 789 614 s \$0-name;
#X obj 49 194 bng 15 250 50 0 empty empty empty 17 7 0 10 #fcfcfc #000000
#000000;
#X obj 253 560 s \$0-width;
#X obj 330 562 s \$0-height;
#X obj 263 171 v \$0-width;
#X obj 342 171 v \$0-height;
#X obj 418 174 v \$0-xfrom;
#X obj 574 174 v \$0-xto;
#X msg 261 200 -width \$1;
#X msg 342 202 -height \$1;
#X msg 416 201 -xfrom \$1;
#X msg 574 198 -xto \$1;
#X obj 707 172 symbol;
#X obj 773 174 v \$0-size;
#X msg 771 196 -size \$1;
#X obj 455 561 s \$0-xfrom;
#X obj 644 560 s \$0-xto;
#X obj 859 571 s \$0-size;
#X obj 180 515 t b a;
#X obj 184 592 s \$0-set;
#X obj 937 677 s \$0-color;
#X obj 1149 563 s \$0-style;
#X obj 937 654 pipe f 5;
#X obj 38 236 v ___sarray;
#X obj 39 322 t f f;
#X obj 38 271 + 1;
#X obj 28 47 loadbang;
#X obj 179 562 delay 20;
#X obj 28 99 delay 20;
#X text 1715 22 mode 0 : edit content \, mode 1 : select zone, f 24
;
#X text 1713 65 displayMode 0 = line \, displayMode 1 = filled bar
, f 27;
#X obj 1244 569 s \$0-mode;
#X obj 1317 580 s \$0-displayMode;
#X obj 1421 403 list prepend -contents;
#X obj 1502 709 list append;
#X obj 1503 657 delay 40;
#X obj 1289 166 r \$0-save_contents;
#X obj 1267 197 spigot;
#X obj 1126 173 v \$0-save_contents;
#X msg 1126 196 -save_contents \$1;
#X obj 1431 577 s \$0-save_contents;
#X obj 1727 632 r \$0-structpointer;
#X obj 1592 330 r \$0-structpointer;
#X obj 1596 586 delay 10;
#X obj 1670 583 list length;
#X obj 1604 629 f;
#X obj 1550 547 t b l b l;
#X obj 1421 380 array get -s \$0-barray z -f \$0-arrayelement zz;
#X obj 1495 790 array set -s \$0-barray z -f \$0-arrayelement zz;
#X obj 1598 667 setsize \$0-barray z;
#N canvas 0 0 731 635 init_name 0;
#X obj 58 424 + 1;
#X obj 57 389 v MMP.UNTITLED_WIDGET;
#X obj 59 530 s \$0-name;
#X obj 351 161 r \$0-name;
#X msg 447 329 set \$1;
#X obj 487 373 s \$0-name-rcv;
#X msg 363 246 label \$1-rcv;
#X obj 359 293 s \$0-receive_name-rcv;
#X obj 57 456 t f f;
#X obj 58 37 loadbang;
#X obj 209 23 r \$0-name;
#X obj 138 173 list fromsymbol;
#X obj 137 221 list split 9;
#X obj 137 279 list tosymbol;
#X obj 137 336 select Untitled_;
#X obj 356 194 t s s;
#X obj 57 125 select 0;
#X obj 57 77 list append 0;
#X msg 58 488 symbol Untitled_\$1*;
#X connect 0 0 8 0;
#X connect 1 0 0 0;
#X connect 3 0 15 0;
#X connect 4 0 5 0;
#X connect 6 0 7 0;
#X connect 8 0 18 0;
#X connect 8 1 1 0;
#X connect 9 0 17 0;
#X connect 10 0 17 1;
#X connect 11 0 12 0;
#X connect 12 0 13 0;
#X connect 13 0 14 0;
#X connect 14 0 1 0;
#X connect 15 0 6 0;
#X connect 15 1 4 0;
#X connect 16 0 1 0;
#X connect 16 1 11 0;
#X connect 17 0 16 0;
#X connect 18 0 2 0;
#X restore 1329 60 pd init_name;
#X obj 753 132 r \$0-name;
#X msg 709 197 -name \$1;
#X obj 850 143 v \$0-back_color;
#N canvas 0 0 498 451 convert2rgb 0;
#X obj 53 112 * -1;
#X obj 54 81 + 1;
#X obj 180 181 mod 256;
#X obj 51 179 div 256;
#X obj 52 143 t f f, f 13;
#X obj 49 210 t f f;
#X obj 48 248 div 256;
#X obj 132 250 mod 256;
#X obj 49 288 pack f f f;
#X obj 54 51 inlet;
#X obj 49 317 outlet;
#X connect 0 0 4 0;
#X connect 1 0 0 0;
#X connect 2 0 8 2;
#X connect 3 0 5 0;
#X connect 4 0 3 0;
#X connect 4 1 2 0;
#X connect 5 0 6 0;
#X connect 5 1 7 0;
#X connect 6 0 8 0;
#X connect 7 0 8 1;
#X connect 8 0 10 0;
#X connect 9 0 1 0;
#X restore 851 168 pd convert2rgb;
#X msg 844 196 -back_color \$1 \$2 \$3;
#N canvas 0 0 498 451 convert2rgb 0;
#X obj 53 112 * -1;
#X obj 54 81 + 1;
#X obj 180 181 mod 256;
#X obj 51 179 div 256;
#X obj 52 143 t f f, f 13;
#X obj 49 210 t f f;
#X obj 48 248 div 256;
#X obj 132 250 mod 256;
#X obj 49 288 pack f f f;
#X obj 54 51 inlet;
#X obj 49 317 outlet;
#X connect 0 0 4 0;
#X connect 1 0 0 0;
#X connect 2 0 8 2;
#X connect 3 0 5 0;
#X connect 4 0 3 0;
#X connect 4 1 2 0;
#X connect 5 0 6 0;
#X connect 5 1 7 0;
#X connect 6 0 8 0;
#X connect 7 0 8 1;
#X connect 8 0 10 0;
#X connect 9 0 1 0;
#X restore 981 171 pd convert2rgb;
#X msg 980 195 -front_color \$1 \$2 \$3;
#X obj 983 143 v \$0-color;
#X obj 333 481 s \$0-save;
#X obj 332 421 v MMP.EXPORT.FLAG;
#X obj 332 450 select 0;
#X obj 1427 169 v \$0-front_alpha;
#X obj 1562 172 v \$0-back_alpha;
#X obj 302 40 t b b b b b b b b b b b b b b, f 115;
#X msg 1423 201 -front_alpha \$1;
#X msg 1562 195 -back_alpha \$1;
#X obj 407 594 s \$0-style;
#X obj 493 177 v \$0-style;
#X msg 493 200 -style \$1;
#X msg 48 351 -width 200 \, -height 140 \, -size 10 \, -xfrom 0 \,
-xto 10 \, -color 0 \, -front_alpha 1 \, -back_alpha 1 \, -style 0
\, -borders 0, f 10;
#X obj 280 521 route -width -height -style -xfrom -borders -xto -yto
-name -size -back_color -front_color -style -mode -displayMode -contents
-save_contents -front_alpha -back_alpha, f 174;
#X obj 530 587 s \$0-borders;
#X obj 591 147 v \$0-borders;
#X msg 622 184 -borders \$1;
#X connect 0 0 1 0;
#X connect 0 0 5 0;
#X connect 0 1 74 0;
#X connect 1 0 32 0;
#X connect 2 0 78 0;
#X connect 3 0 0 0;
#X connect 4 0 37 0;
#X connect 5 0 4 1;
#X connect 6 0 14 0;
#X connect 7 0 8 0;
#X connect 12 0 11 0;
#X connect 13 0 36 0;
#X connect 13 0 11 0;
#X connect 15 0 37 0;
#X connect 18 0 22 0;
#X connect 19 0 23 0;
#X connect 20 0 24 0;
#X connect 21 0 25 0;
#X connect 22 0 3 0;
#X connect 23 0 3 0;
#X connect 24 0 3 0;
#X connect 25 0 3 0;
#X connect 26 0 66 0;
#X connect 27 0 28 0;
#X connect 28 0 3 0;
#X connect 32 0 41 0;
#X connect 32 1 85 0;
#X connect 36 0 34 0;
#X connect 37 0 39 0;
#X connect 38 0 84 0;
#X connect 38 1 37 0;
#X connect 39 0 38 0;
#X connect 40 0 42 0;
#X connect 41 0 33 0;
#X connect 42 0 4 0;
#X connect 47 0 0 0;
#X connect 48 0 62 0;
#X connect 49 0 48 0;
#X connect 50 0 51 1;
#X connect 51 0 61 0;
#X connect 52 0 53 0;
#X connect 53 0 3 0;
#X connect 55 0 62 2;
#X connect 55 0 63 1;
#X connect 56 0 61 2;
#X connect 57 0 59 0;
#X connect 58 0 59 1;
#X connect 59 0 63 0;
#X connect 60 0 49 0;
#X connect 60 1 48 1;
#X connect 60 2 57 0;
#X connect 60 3 58 0;
#X connect 61 0 47 0;
#X connect 65 0 26 1;
#X connect 66 0 3 0;
#X connect 67 0 68 0;
#X connect 68 0 69 0;
#X connect 69 0 3 0;
#X connect 70 0 71 0;
#X connect 71 0 3 0;
#X connect 72 0 70 0;
#X connect 72 0 68 0;
#X connect 74 0 75 0;
#X connect 75 0 73 0;
#X connect 76 0 79 0;
#X connect 77 0 80 0;
#X connect 78 0 18 0;
#X connect 78 1 19 0;
#X connect 78 2 20 0;
#X connect 78 3 82 0;
#X connect 78 4 21 0;
#X connect 78 5 87 0;
#X connect 78 6 26 0;
#X connect 78 7 27 0;
#X connect 78 8 67 0;
#X connect 78 9 72 0;
#X connect 78 10 52 0;
#X connect 78 11 51 0;
#X connect 78 12 76 0;
#X connect 78 13 77 0;
#X connect 79 0 3 0;
#X connect 80 0 3 0;
#X connect 82 0 83 0;
#X connect 83 0 3 0;
#X connect 84 0 32 0;
#X connect 85 0 16 0;
#X connect 85 1 17 0;
#X connect 85 2 81 0;
#X connect 85 3 29 0;
#X connect 85 4 86 0;
#X connect 85 5 30 0;
#X connect 85 7 6 0;
#X connect 85 8 31 0;
#X connect 85 9 12 0;
#X connect 85 10 13 0;
#X connect 85 11 35 0;
#X connect 85 12 45 0;
#X connect 85 13 46 0;
#X connect 85 14 60 0;
#X connect 85 15 54 0;
#X connect 85 16 9 0;
#X connect 85 17 10 0;
#X connect 87 0 88 0;
#X connect 88 0 3 0;
#X restore 558 361 pd init/savestate;
#X obj 387 593 r \$0-color;
#X obj 387 616 t b;
#X obj 387 639 delay 10;
#X obj 84 478 t l l;
#X obj 260 503 r \$0-mouseup;
#X obj 264 545 delay 1;
#X obj 40 130 cnv 1 1 1 \$0-pos \$0-pos-rcv empty 2 30 0 30 #000000
#fcfcfc 0;
#X connect 0 0 8 0;
#X connect 1 0 0 0;
#X connect 2 0 3 0;
#X connect 3 0 8 0;
#X connect 13 0 38 0;
#X connect 15 0 25 0;
#X connect 17 0 16 1;
#X connect 20 0 38 0;
#X connect 23 0 24 0;
#X connect 25 0 16 0;
#X connect 25 1 26 0;
#X connect 27 0 38 0;
#X connect 28 0 29 0;
#X connect 30 0 31 0;
#X connect 32 0 33 0;
#X connect 33 0 36 0;
#X connect 34 0 35 0;
#X connect 35 0 37 0;
#X connect 36 0 30 0;
#X connect 37 0 36 1;
#X connect 38 0 15 0;
#X connect 38 1 43 0;
#X connect 38 2 22 0;
#X connect 38 3 28 0;
#X connect 40 0 41 0;
#X connect 41 0 42 0;
#X connect 42 0 36 0;
#X connect 43 0 25 0;
#X connect 43 1 21 0;
#X connect 44 0 45 0;
#X connect 45 0 27 0;
#X coords 0 1 10 0 200 140 2 40 130;
