#N canvas 961 58 958 1018 12;
#X obj 599 357 list append;
#X obj 661 452 s RJ_SCENE;
#X obj 597 221 r RJ_SCENE_SAVE;
#X obj 597 246 route save;
#X obj 597 271 t b;
#X obj 591 386 route bang;
#X obj 399 343 r RJ_SCENE_LOAD;
#X obj 399 368 list trim;
#X obj 399 404 route \$1;
#X obj 399 429 route bang;
#X obj 650 107 r \$1;
#X obj 455 481 s \$1;
#X obj 653 415 list prepend \$1;
#X obj 598 312 spigot 1;
#X obj 775 190 loadbang;
#X obj 776 229 symbol \$1;
#X obj 776 254 select mob_load mob_save;
#X msg 729 295 0;
#X connect 0 0 5 0;
#X connect 2 0 3 0;
#X connect 3 0 4 0;
#X connect 4 0 13 0;
#X connect 5 1 12 0;
#X connect 6 0 7 0;
#X connect 7 0 8 0;
#X connect 8 0 9 0;
#X connect 9 1 11 0;
#X connect 10 0 0 1;
#X connect 12 0 1 0;
#X connect 13 0 0 0;
#X connect 14 0 15 0;
#X connect 15 0 16 0;
#X connect 16 0 17 0;
#X connect 16 1 17 0;
#X connect 17 0 13 1;
