#N canvas 0 50 773 562 12;
#X obj 160 391 outlet;
#X obj 252 39 metro 1000;
#X obj 243 75 t b b;
#X msg 244 150 send \$1;
#X msg 196 47 0;
#X obj 249 3 loadbang;
#N canvas 0 50 450 300 pdr_to_mmp 0;
#X obj 121 62 r toGUI;
#X obj 135 304 outlet;
#X obj 121 91 list split 1;
#X obj 137 168 list append;
#X obj 137 197 list trim;
#X obj 108 133 select \$1;
#X connect 0 0 2 0;
#X connect 2 0 5 0;
#X connect 2 1 3 1;
#X connect 3 0 4 0;
#X connect 4 0 1 0;
#X connect 5 0 3 0;
#X restore 101 214 pd pdr_to_mmp;
#X obj 262 112 list append \$0-snd;
#X obj 85 0 r \$0-snd;
#X obj 9 256 s fromGUI;
#X obj 1 65 list prepend \$1;
#X obj 349 189 r fromGUI;
#X obj 349 214 list trim;
#X obj 349 239 route \$1;
#X msg 346 320 set \$1;
#X obj 144 123 list append snd-\$1;
#X obj 1 14 r snd-\$1;
#X obj 119 35 t a b b;
#X obj 229 189 route float bang;
#X obj 105 237 list prepend 0;
#X msg 228 223 0;
#X msg 272 223 1;
#X obj 105 262 route 0 1;
#X obj 139 308 select 1;
#X obj 349 264 route float;
#X text 211 305 bang : ne transmettre que le front montant, f 15;
#X obj 535 235 list append;
#X obj 591 297 s RJ_SCENE;
#X obj 563 99 r RJ_SCENE_SAVE;
#X obj 563 124 route save;
#X obj 563 149 t b;
#X obj 535 260 route bang;
#X obj 537 361 r RJ_SCENE_LOAD;
#X obj 537 386 list trim;
#X obj 537 411 route \$1;
#X obj 537 436 route bang;
#X connect 1 0 2 0;
#X connect 2 0 0 0;
#X connect 2 1 7 0;
#X connect 3 0 0 0;
#X connect 4 0 1 0;
#X connect 5 0 1 0;
#X connect 6 0 19 0;
#X connect 7 0 3 0;
#X connect 8 0 17 0;
#X connect 10 0 9 0;
#X connect 10 0 26 1;
#X connect 11 0 12 0;
#X connect 12 0 13 0;
#X connect 13 0 24 0;
#X connect 14 0 0 0;
#X connect 15 0 3 0;
#X connect 16 0 10 0;
#X connect 17 0 18 0;
#X connect 17 1 15 0;
#X connect 17 2 4 0;
#X connect 18 0 20 0;
#X connect 18 1 21 0;
#X connect 19 0 22 0;
#X connect 20 0 19 1;
#X connect 21 0 19 1;
#X connect 22 0 0 0;
#X connect 22 1 23 0;
#X connect 23 0 0 0;
#X connect 24 0 14 0;
#X connect 26 0 31 0;
#X connect 28 0 29 0;
#X connect 29 0 30 0;
#X connect 30 0 26 0;
#X connect 31 1 27 0;
#X connect 32 0 33 0;
#X connect 33 0 34 0;
#X connect 34 0 35 0;
#X connect 35 1 10 0;
