#N canvas 1 58 944 1018 16;
#X obj 805 718 s \$0-cnv;
#X obj 637 27 inlet;
#X obj 662 197 t f f;
#X obj 221 362 iemguts/receivecanvas 1;
#X obj 220 397 route editmode;
#X obj 97 434 list prepend 0;
#X obj 97 463 route 0 1;
#N canvas 191 104 1326 562 savestate 0;
#X obj 237 276 savestate;
#X obj 349 320 s \$0-save;
#X obj 222 107 v \$0-w;
#X obj 237 305 list trim;
#X obj 230 1 r \$0-save;
#X obj 312 107 v \$0-h;
#X obj 60 444 unpack f f;
#X obj 220 156 pack f f;
#X obj 251 242 list;
#X obj 47 489 s \$0-w;
#X obj 149 484 s \$0-h;
#X msg 220 185 -size \$1 \$2;
#X obj 19 32 loadbang;
#X obj 19 106 spigot 1;
#X msg 88 76 0;
#X obj 391 73 v \$0-back_color;
#X obj 514 159 v \$0-cursor_color;
#X obj 610 73 v \$0-front_color;
#X msg 391 102 -back_color \$1;
#X msg 518 190 -cursor_color \$1;
#X msg 596 108 -front_color \$1;
#X obj 239 479 s \$0-back_color;
#X obj 546 506 s \$0-cursor_color;
#X obj 410 467 s \$0-front_color;
#X obj 723 159 v \$0-spdrt;
#X msg 723 188 -speed_ratio \$1;
#X obj 642 461 s \$0-spdrt;
#X obj 74 148 inlet;
#X obj 74 177 list split 1;
#X msg 74 206 -\$1;
#X obj 74 235 list append;
#X obj 780 485 s \$0-name;
#X obj 823 102 symbol;
#X obj 863 71 r \$0-name;
#X msg 822 133 -name \$1;
#X obj 782 452 symbol;
#X obj 891 435 s \$0-min;
#X obj 940 485 s \$0-max;
#X obj 974 103 v \$0-min;
#X obj 1083 95 v \$0-max;
#X msg 970 142 -min \$1;
#X msg 1079 134 -max \$1;
#X msg 333 239 -size 127 15 \, -back_color 10 \, -front_color 11 \,
-speed_ratio 100 \, -name myslider \, -min 0 \, -max 1 \, -mode 0;
#X obj 227 35 t b b b b b b b b b b, f 83;
#X obj 1182 105 v \$0-mode;
#X msg 1178 144 -mode \$1;
#X obj 257 353 route -size -back_color -front_color -cursor_color -speed_ratio
-name -min -max -mode, f 76;
#X obj 1042 430 s \$0-mode;
#X connect 0 0 3 0;
#X connect 0 0 14 0;
#X connect 0 1 1 0;
#X connect 2 0 7 0;
#X connect 3 0 46 0;
#X connect 4 0 43 0;
#X connect 5 0 7 1;
#X connect 6 0 9 0;
#X connect 6 1 10 0;
#X connect 7 0 11 0;
#X connect 8 0 0 0;
#X connect 11 0 8 0;
#X connect 12 0 13 0;
#X connect 13 0 42 0;
#X connect 14 0 13 1;
#X connect 15 0 18 0;
#X connect 16 0 19 0;
#X connect 17 0 20 0;
#X connect 18 0 8 0;
#X connect 19 0 8 0;
#X connect 20 0 8 0;
#X connect 24 0 25 0;
#X connect 25 0 8 0;
#X connect 27 0 28 0;
#X connect 28 0 29 0;
#X connect 28 1 30 1;
#X connect 29 0 30 0;
#X connect 30 0 3 0;
#X connect 32 0 34 0;
#X connect 33 0 32 1;
#X connect 34 0 8 0;
#X connect 35 0 31 0;
#X connect 38 0 40 0;
#X connect 39 0 41 0;
#X connect 40 0 8 0;
#X connect 41 0 8 0;
#X connect 42 0 46 0;
#X connect 43 0 2 0;
#X connect 43 1 5 0;
#X connect 43 2 15 0;
#X connect 43 3 16 0;
#X connect 43 4 17 0;
#X connect 43 5 24 0;
#X connect 43 6 32 0;
#X connect 43 7 38 0;
#X connect 43 8 39 0;
#X connect 43 9 44 0;
#X connect 44 0 45 0;
#X connect 45 0 8 0;
#X connect 46 0 6 0;
#X connect 46 1 21 0;
#X connect 46 2 23 0;
#X connect 46 3 22 0;
#X connect 46 4 26 0;
#X connect 46 5 35 0;
#X connect 46 6 36 0;
#X connect 46 7 37 0;
#X connect 46 8 47 0;
#X restore 1513 79 pd savestate;
#X obj 1514 31 namecanvas \$0-this;
#X obj 741 552 *;
#X obj 906 422 t b f;
#X msg 812 219 0;
#X msg 107 61 size \$1 \$2;
#X obj 104 -7 r \$0-w;
#X obj 201 -4 r \$0-h;
#X obj 107 32 pack f f;
#N canvas 0 50 1005 538 resize 0;
#X obj 51 17 inlet;
#X msg -74 585 dirty 1;
#X obj 157 237 spigot;
#X msg 109 186 1;
#X msg 78 247 0;
#X obj 307 211 t l b;
#X obj 110 479 -;
#X obj 247 472 -;
#X obj 167 512 r \$0-w;
#X obj 298 515 r \$0-h;
#X obj 153 551 +;
#X obj 152 591 s \$0-w;
#X obj 247 546 +;
#X obj 254 586 s \$0-h;
#X obj 57 106 spigot 1;
#X obj 57 135 t b b;
#X msg 129 73 0;
#X msg 79 281 1;
#X obj 154 322 unpack f f f;
#X obj 156 271 route mouseup motion;
#X obj 108 360 t f f b f;
#X obj 229 357 t f f b f;
#X obj 289 433 spigot 1;
#X msg 367 397 0;
#X obj 143 441 spigot 1;
#X msg 212 405 0;
#X obj 235 85 iemguts/receivecanvas 2;
#X obj -71 611 iemguts/sendcanvas 2;
#X obj 699 92 r \$0-w;
#X obj 785 106 r \$0-h;
#X obj 699 229 pack f f;
#X obj 601 310 t b a;
#X msg 559 346 dirty 0;
#X obj 555 384 s \$0-this;
#X msg 546 156 120 254;
#X msg 483 279 donecanvasdialog 1 -1 3 0 -1 1 1 \$1 \$2 100 100;
#X text 673 383 the parent canvas;
#X obj 714 163 t b f;
#X connect 0 0 14 0;
#X connect 1 0 27 0;
#X connect 2 0 19 0;
#X connect 3 0 2 1;
#X connect 4 0 2 1;
#X connect 6 0 10 0;
#X connect 7 0 12 0;
#X connect 8 0 10 1;
#X connect 9 0 12 1;
#X connect 10 0 11 0;
#X connect 12 0 13 0;
#X connect 14 0 15 0;
#X connect 15 0 3 0;
#X connect 15 1 16 0;
#X connect 15 1 1 0;
#X connect 16 0 14 1;
#X connect 17 0 14 1;
#X connect 17 0 24 1;
#X connect 17 0 22 1;
#X connect 18 0 20 0;
#X connect 18 1 21 0;
#X connect 19 0 4 0;
#X connect 19 0 17 0;
#X connect 19 1 18 0;
#X connect 20 0 6 1;
#X connect 20 1 6 0;
#X connect 20 2 25 0;
#X connect 20 3 24 0;
#X connect 21 0 7 1;
#X connect 21 1 7 0;
#X connect 21 2 23 0;
#X connect 21 3 22 0;
#X connect 22 0 7 1;
#X connect 23 0 22 1;
#X connect 24 0 6 1;
#X connect 25 0 24 1;
#X connect 26 0 2 0;
#X connect 28 0 30 0;
#X connect 29 0 37 0;
#X connect 30 0 35 0;
#X connect 31 0 32 0;
#X connect 31 1 33 0;
#X connect 32 0 33 0;
#X connect 34 0 35 0;
#X connect 35 0 31 0;
#X connect 37 0 30 0;
#X connect 37 1 30 1;
#X restore 141 505 pd resize;
#X obj 88 544 moses 117;
#X obj 88 573 moses 10;
#X obj 205 706 t f f;
#X msg 92 835 set \$1;
#X obj 101 878 s \$0-slider;
#X obj 804 648 list prepend 30;
#X obj 83 615 + 107;
#X obj 206 613 - 107;
#X msg 239 782 \$1 -107;
#X msg 123 737 \$1 107;
#X obj 69 665 t f f;
#X obj 344 111 s \$0-cnv;
#X obj 347 49 symbol;
#X msg 344 85 label \$1;
#X msg 440 17 label;
#N canvas 721 377 1198 586 gui_properties 0;
#X msg 88 180 set \$1;
#X obj 86 78 max 10;
#X obj 86 107 s \$0-w;
#X obj 92 154 r \$0-w;
#X obj 86 49 r \$0-w-snd;
#X obj 90 207 s \$0-w-rcv;
#X msg 253 181 set \$1;
#X obj 251 50 r \$0-bc-snd;
#X obj 255 208 s \$0-bc-rcv;
#X obj 257 155 r \$0-back_color;
#X obj 251 108 s \$0-back_color;
#X msg 446 182 set \$1;
#X obj 444 51 r \$0-fc-snd;
#X obj 444 109 s \$0-front_color;
#X obj 450 156 r \$0-front_color;
#X obj 448 209 s \$0-fc-rcv;
#X msg 656 182 set \$1;
#X obj 654 51 r \$0-cc-snd;
#X obj 654 109 s \$0-cursor_color;
#X obj 660 156 r \$0-cursor_color;
#X obj 658 209 s \$0-cc-rcv;
#X msg 58 380 set \$1;
#X obj 56 278 max 10;
#X obj 56 249 r \$0-h-snd;
#X obj 56 307 s \$0-h;
#X obj 62 354 r \$0-h;
#X obj 60 407 s \$0-h-rcv;
#X obj 489 290 r \$0-back_color;
#X obj 272 290 r \$0-front_color;
#X msg 666 302 set \$1;
#X obj 668 329 s \$0-spdrt-rcv;
#X obj 670 276 r \$0-spdrt;
#X msg 494 330 color \$1 \$1 \$1;
#X obj 494 359 s \$0-slider;
#X obj 279 371 s \$0-cnv;
#X msg 273 326 color \$1 -1;
#X obj 385 404 r \$0-name;
#X msg 385 433 set \$1;
#X obj 384 490 s \$0-name-rcv;
#X msg 835 292 set \$1;
#X msg 819 385 set \$1;
#X obj 839 266 r \$0-min;
#X obj 837 319 s \$0-min-rcv;
#X obj 823 359 r \$0-max;
#X obj 821 412 s \$0-max-rcv;
#X msg 876 111 set \$1;
#X obj 880 85 r \$0-mode;
#X obj 878 138 s \$0-mode-rcv;
#X connect 0 0 5 0;
#X connect 1 0 2 0;
#X connect 3 0 0 0;
#X connect 4 0 1 0;
#X connect 6 0 8 0;
#X connect 7 0 10 0;
#X connect 9 0 6 0;
#X connect 11 0 15 0;
#X connect 12 0 13 0;
#X connect 14 0 11 0;
#X connect 16 0 20 0;
#X connect 17 0 18 0;
#X connect 19 0 16 0;
#X connect 21 0 26 0;
#X connect 22 0 24 0;
#X connect 23 0 22 0;
#X connect 25 0 21 0;
#X connect 27 0 32 0;
#X connect 28 0 35 0;
#X connect 29 0 30 0;
#X connect 31 0 29 0;
#X connect 32 0 33 0;
#X connect 35 0 34 0;
#X connect 36 0 37 0;
#X connect 37 0 38 0;
#X connect 39 0 42 0;
#X connect 40 0 44 0;
#X connect 41 0 39 0;
#X connect 43 0 40 0;
#X connect 45 0 47 0;
#X connect 46 0 45 0;
#X restore 1115 337 pd gui_properties;
#X msg 1121 198 vis 1;
#X obj 1125 160 iemguts/propertybang;
#X obj 1207 199 r \$0-ok;
#X msg 1207 228 vis 0;
#X obj 248 56 t b f;
#X obj 996 468 t b f;
#X msg 517 17 label du;
#X obj 996 439 - 2;
#X obj 741 590 moses 1e-08;
#X obj 553 88 route float set label properties;
#X obj 1032 147 t b;
#N canvas 957 152 850 636 multitouch.listener3 0;
#X obj 518 413 v MULTITOUCH.SLOT.ID;
#X msg 594 553 symbol \$1-slot;
#X obj 521 463 select 0;
#X obj 569 676 s;
#X obj 196 396 unpack f f;
#X msg 565 627 send_to \$1;
#X obj 193 673 +;
#X obj 626 66 inlet;
#X obj 513 305 spigot 1;
#X msg 592 275 0;
#X obj 237 220 route list no_mouse remove;
#X obj 565 600 list append \$0-from_slot;
#X obj 242 166 r \$0-from_slot;
#X msg 413 261 1;
#X obj 589 507 t b f b;
#X obj 513 367 t b;
#X obj 673 309 -;
#X obj 193 838 outlet;
#X obj 791 421 == 0;
#X obj 715 469 spigot 1;
#X obj 195 332 spigot;
#X obj 918 106 inlet set;
#X obj 193 702 min 127;
#X obj 193 731 max 0;
#X obj 191 773 t f f f;
#X text 434 550 register callback, f 9;
#X obj 647 268 t f f;
#X obj 599 104 route float list;
#X obj 645 170 unpack f f;
#X obj 714 348 -;
#X msg 599 133 \$1 0;
#X obj 193 512 / 127;
#X text 207 138 callback;
#X obj 600 231 t b f;
#X obj 255 545 r ZOOM;
#X obj 193 573 / 1;
#X text 337 667 speed_ratio(%);
#X obj 338 614 r \$0-spdrt;
#X obj 281 476 r \$0-w;
#X obj 193 544 * 127;
#X obj 193 624 * 0.5;
#X obj 338 642 / 100;
#X connect 0 0 2 0;
#X connect 1 0 3 1;
#X connect 2 1 14 0;
#X connect 4 0 31 0;
#X connect 5 0 3 0;
#X connect 6 0 22 0;
#X connect 7 0 27 0;
#X connect 8 0 15 0;
#X connect 9 0 8 1;
#X connect 9 0 0 0;
#X connect 10 0 20 0;
#X connect 10 1 18 0;
#X connect 10 1 20 1;
#X connect 10 2 13 0;
#X connect 11 0 5 0;
#X connect 12 0 10 0;
#X connect 13 0 8 1;
#X connect 14 0 11 0;
#X connect 14 1 1 0;
#X connect 14 2 9 0;
#X connect 15 0 0 0;
#X connect 16 0 29 0;
#X connect 18 0 19 1;
#X connect 19 0 40 0;
#X connect 20 0 4 0;
#X connect 21 0 6 1;
#X connect 22 0 23 0;
#X connect 23 0 24 0;
#X connect 24 0 17 0;
#X connect 24 1 6 1;
#X connect 26 0 16 1;
#X connect 26 1 16 0;
#X connect 27 0 30 0;
#X connect 27 1 28 0;
#X connect 28 0 33 0;
#X connect 28 1 29 1;
#X connect 29 0 19 0;
#X connect 30 0 28 0;
#X connect 31 0 39 0;
#X connect 33 0 8 0;
#X connect 33 1 26 0;
#X connect 34 0 35 1;
#X connect 35 0 40 0;
#X connect 37 0 41 0;
#X connect 38 0 31 1;
#X connect 39 0 35 0;
#X connect 40 0 6 0;
#X connect 41 0 40 1;
#X restore 329 601 pd multitouch.listener3;
#X obj 906 393 r \$0-w;
#X obj 996 413 r \$0-h;
#X msg 805 689 vis_size \$2 \$1;
#X obj 104 100 hsl 170 63 0 127 0 0 empty \$0-slider empty -2 -8 0
10 -195575 -195575 -195575 0 1;
#X obj 54 12 - 6;
#X obj 101 101 cnv 1 1 1 empty \$0-cnv empty 2 6 0 10 -128624 -66577
0;
#X msg 587 648 vis_size 1 1;
#X obj 748 344 / 127;
#X msg 1057 688 size 10 10;
#X msg 1065 725 size 1 1;
#X obj 1010 12 iemlib/iem_receive;
#X obj 1230 4 r \$0-name;
#X msg 1230 33 set \$1-rcv;
#N canvas 0 50 450 300 mapping_lin 0;
#X obj 196 43 inlet;
#X obj 175 229 outlet;
#X obj 238 84 r \$0-min;
#X obj 200 126 -;
#X obj 273 47 r \$0-max;
#X obj 267 179 -;
#X obj 279 130 t f b f;
#X obj 200 155 /;
#X obj 200 184 * 127;
#X connect 0 0 3 0;
#X connect 2 0 6 0;
#X connect 3 0 7 0;
#X connect 4 0 5 0;
#X connect 5 0 7 1;
#X connect 6 0 3 1;
#X connect 6 1 5 0;
#X connect 6 2 5 1;
#X connect 7 0 8 0;
#X connect 8 0 1 0;
#X restore 464 129 pd mapping_lin;
#N canvas 0 50 450 300 mapping_lin 0;
#X obj 196 43 inlet;
#X obj 175 229 outlet;
#X obj 238 84 r \$0-min;
#X obj 200 126 -;
#X obj 273 47 r \$0-max;
#X obj 267 179 -;
#X obj 279 130 t f b f;
#X obj 200 155 /;
#X obj 200 184 * 127;
#X connect 0 0 3 0;
#X connect 2 0 6 0;
#X connect 3 0 7 0;
#X connect 4 0 5 0;
#X connect 5 0 7 1;
#X connect 6 0 3 1;
#X connect 6 1 5 0;
#X connect 6 2 5 1;
#X connect 7 0 8 0;
#X connect 8 0 1 0;
#X restore 672 138 pd mapping_lin;
#N canvas 0 50 450 300 inv_mapping_lin 0;
#X obj 47 255 outlet;
#X obj 107 69 r \$0-min;
#X obj 206 22 r \$0-max;
#X obj 189 168 -;
#X obj 148 115 t f b f;
#X obj 32 23 inlet;
#X obj 33 106 / 127;
#X obj 36 176 *;
#X obj 36 205 +;
#X connect 1 0 4 0;
#X connect 2 0 3 0;
#X connect 3 0 7 1;
#X connect 4 0 8 1;
#X connect 4 1 3 0;
#X connect 4 2 3 1;
#X connect 5 0 6 0;
#X connect 6 0 7 0;
#X connect 7 0 8 0;
#X connect 8 0 0 0;
#X restore 373 647 pd inv_mapping_lin;
#X obj 416 744 s;
#X obj 435 678 r \$0-name;
#X obj 435 707 symbol;
#X obj 773 383 min 1;
#X obj 773 412 max 0;
#X obj 789 493 f 0;
#X obj 1114 248 s pd-mmp.hfader_properties(\$0);
#N canvas 804 463 422 459 mmp.hfader_properties(\$0) 0;
#X obj 6 4 cnv 15 400 450 empty empty empty 20 12 0 14 -233017 -66577
0;
#X floatatom 156 8 5 0 0 0 width #0-w-rcv #0-w-snd;
#X floatatom 149 217 8 0 0 0 back_color_ #0-bc-rcv #0-bc-snd;
#X floatatom 150 242 8 0 0 0 front_color #0-fc-rcv #0-fc-snd;
#N canvas 0 50 450 300 (subpatch) 0;
#X obj 100 100 cnv 20 20 20 empty \$0-bc_cnv-rcv empty 20 12 0 14 -195575
-66577 0;
#X obj 170 75 r \$0-back_color;
#X msg 170 104 color \$1 \$1;
#X obj 170 132 s \$0-bc_cnv-rcv;
#X connect 1 0 2 0;
#X connect 2 0 3 0;
#X coords 0 -1 1 1 20 20 2 100 100;
#X restore 12 214 pd;
#N canvas 0 50 450 300 (subpatch) 0;
#X obj 100 100 cnv 20 20 20 empty \$0-fc_cnv-rcv empty 20 12 0 14 -128624
-66577 0;
#X msg 170 104 color \$1 \$1;
#X obj 170 75 r \$0-front_color;
#X obj 170 132 s \$0-fc_cnv-rcv;
#X connect 1 0 3 0;
#X connect 2 0 1 0;
#X coords 0 -1 1 1 20 20 2 100 100;
#X restore 13 241 pd;
#X obj 342 318 bng 40 250 50 0 \$0-ok empty OK 5 20 0 20 -204786 -1
-1;
#X floatatom 281 9 5 0 0 0 height #0-h-rcv #0-h-snd;
#N canvas 0 50 450 300 (subpatch) 0;
#X obj 100 100 cnv 20 20 20 empty \$0-cc_cnv-rcv empty 20 12 0 14 -262144
-66577 0;
#X msg 170 104 color \$1 \$1;
#X obj 170 75 r \$0-cursor_color;
#X obj 170 132 s \$0-cc_cnv-rcv;
#X connect 1 0 3 0;
#X connect 2 0 1 0;
#X coords 0 -1 1 1 20 20 2 100 100;
#X restore 13 270 pd;
#N canvas 0 50 550 616 pick 0;
#X obj 13 10 hsl 128 12 0 255 0 0 \$0-r \$0-r-i empty -2 -8 0 10 -228856
-258113 -1 0 0;
#X obj 13 22 hsl 128 12 0 255 0 0 \$0-g \$0-g-i empty -2 -8 0 10 -228856
-4034 -1 0 0;
#X obj 13 34 hsl 128 12 0 255 0 0 \$0-b \$0-b-i empty -2 -8 0 10 -228856
-4160 -1 0 0;
#X obj 24 50 cnv 34 34 34 empty \$0-color-cnv empty 20 12 0 14 -200705
-262144 0;
#X msg 21 309 color \$1;
#X obj 85 179 t b f;
#X obj 167 179 t b f;
#X obj 144 10 nbx 3 12 0 255 0 0 \$0-r-i \$0-r1-i empty 0 -8 0 8 -261234
-1 -1 0 256;
#X obj 144 22 nbx 3 12 0 255 0 0 \$0-g-i \$0-g1-i empty 0 -8 0 8 -204786
-1 -1 0 256;
#X obj 144 34 nbx 3 12 0 255 0 0 \$0-b-i \$0-b1-i empty 0 -8 0 8 -203904
-1 -1 0 256;
#X msg 21 139 set \$1;
#X obj 21 159 s \$0-r1-i;
#X msg 95 139 set \$1;
#X obj 95 159 s \$0-g1-i;
#X msg 177 139 set \$1;
#X obj 177 159 s \$0-b1-i;
#X obj 85 49 vradio 12 1 0 3 \$0-lab \$0-lab-i empty 0 -8 0 10 -228856
-1 -1 0;
#X obj 72 50 cnv 10 10 10 empty \$0-cnv-back empty 20 12 0 14 -200705
-262144 0;
#X obj 72 62 cnv 10 10 10 empty \$0-cnv-front empty 20 12 0 14 -53944
-262144 0;
#X obj 72 74 cnv 10 10 10 empty \$0-cnv-label empty 20 12 0 14 -38657
-262144 0;
#X obj 167 119 i;
#X obj 85 119 i;
#X obj 10 99 i;
#X obj 11 284 expr ($f1*(-65536)+$f2*(-256)+$f3*(-1))-1;
#X obj 11 229 pack f f f;
#X obj 31 259 outlet rgb;
#N canvas 0 50 444 418 license 0;
#X text 8 47 All rights reserved.;
#X text 8 227 The names of its contributors may not be used to endorse
or promote products derived from this software without specific prior
written permission.;
#X text 8 87 Redistribution and use in source and binary forms \, with
or without modification \, are permitted provided that the following
conditions are met:;
#X text 8 127 Redistributions of source code must retain the above
copyright notice \, this list of conditions and the following disclaimer.
;
#X text 8 297 THIS SOFTWARE IS PROVIDED BY THE COPYRIGHT HOLDERS AND
CONTRIBUTORS "AS IS" AND ANY EXPRESS OR IMPLIED WARRANTIES \, INCLUDING
\, BUT NOT LIMITED TO \, THE IMPLIED WARRANTIES OF MERCHANTABILITY
AND FITNESS FOR A PARTICULAR PURPOSE ARE DISCLAIMED. IN NO EVENT SHALL
THE COPYRIGHT OWNER OR CONTRIBUTORS BE LIABLE FOR ANY DIRECT \, INDIRECT
\, INCIDENTAL \, SPECIAL \, EXEMPLARY \, OR CONSEQUENTIAL DAMAGES (INCLUDING
\, BUT NOT LIMITED TO \, PROCUREMENT OF SUBSTITUTE GOODS OR SERVICES
;
#X text 8 167 Redistributions in binary form must reproduce the above
copyright notice \, this list of conditions and the following disclaimer
in the documentation and/or other materials provided with the distribution.
;
#X text 8 7 Copyright 2010 \, João Pais;
#X text 8 27 jmmmpais@gmail.com;
#X restore 15 472 pd license;
#X obj 267 10 inlet;
#X obj 267 30 route list float;
#X obj 165 338 outlet iem-color;
#X obj 192 30 0;
#X obj 192 10 loadbang;
#X text 14 453 (C) 2010 João Pais - jmmmpais@gmail.com;
#X text 13 417 ##inserir inlet \, que separa os numeros e os converte
a rgb;
#N canvas 0 50 484 500 rgb.speicher 0;
#X obj 13 208 route back front label;
#X obj 90 89 sel 0 1 2;
#X msg 90 109 back;
#X msg 107 129 front;
#X msg 124 149 label;
#X obj 21 169 list prepend;
#X obj 21 189 list trim;
#X msg 60 312 color \$1;
#X msg 113 272 color \$1;
#X obj 113 292 s \$0-cnv-label;
#X msg 17 251 color \$1;
#X obj 16 281 s \$0-cnv-back;
#X obj 60 332 s \$0-cnv-front;
#X obj 90 69 r \$0-lab;
#X obj 21 129 inlet;
#X text 39 41 Ausgang RGB;
#X obj 311 219 route back front label;
#X obj 380 39 sel 0 1 2;
#X msg 380 79 back;
#X msg 404 119 front;
#X msg 398 159 label;
#X obj 311 179 list prepend;
#X obj 311 199 list trim;
#X obj 290 249 list;
#X obj 333 249 list;
#X obj 376 249 list;
#X obj 290 279 unpack f f f;
#X obj 380 59 t b b;
#X obj 397 99 t b b;
#X obj 414 139 t b b;
#X msg 359 419 set \$1;
#X msg 324 359 set \$1;
#X msg 290 299 set \$1;
#X obj 359 459 s \$0-b1-i;
#X obj 369 439 s \$0-b-i;
#X obj 324 399 s \$0-g1-i;
#X obj 334 379 s \$0-g-i;
#X obj 290 339 s \$0-r1-i;
#X obj 300 319 s \$0-r-i;
#X obj 380 19 r \$0-lab;
#X obj 311 139 inlet;
#X text 286 35 GUI Speicher;
#X obj 6 420 s \$0-bc-rcv;
#X obj 72 452 s \$0-fc-rcv;
#X connect 0 0 10 0;
#X connect 0 0 42 0;
#X connect 0 1 7 0;
#X connect 0 1 43 0;
#X connect 0 2 8 0;
#X connect 1 0 2 0;
#X connect 1 1 3 0;
#X connect 1 2 4 0;
#X connect 2 0 5 1;
#X connect 3 0 5 1;
#X connect 4 0 5 1;
#X connect 5 0 6 0;
#X connect 6 0 0 0;
#X connect 7 0 12 0;
#X connect 8 0 9 0;
#X connect 10 0 11 0;
#X connect 13 0 1 0;
#X connect 14 0 5 0;
#X connect 16 0 23 1;
#X connect 16 1 24 1;
#X connect 16 2 25 1;
#X connect 17 0 27 0;
#X connect 17 1 28 0;
#X connect 17 2 29 0;
#X connect 18 0 21 1;
#X connect 19 0 21 1;
#X connect 20 0 21 1;
#X connect 21 0 22 0;
#X connect 22 0 16 0;
#X connect 23 0 26 0;
#X connect 24 0 26 0;
#X connect 25 0 26 0;
#X connect 26 0 32 0;
#X connect 26 1 31 0;
#X connect 26 2 30 0;
#X connect 27 0 18 0;
#X connect 27 1 23 0;
#X connect 28 0 19 0;
#X connect 28 1 24 0;
#X connect 29 0 20 0;
#X connect 29 1 25 0;
#X connect 30 0 33 0;
#X connect 30 0 34 0;
#X connect 31 0 35 0;
#X connect 31 0 36 0;
#X connect 32 0 37 0;
#X connect 32 0 38 0;
#X connect 39 0 17 0;
#X connect 40 0 21 0;
#X restore 11 359 pd rgb.speicher;
#X obj 21 329 s \$0-color-cnv;
#X text 98 43 Bckgrnd;
#X text 98 64 Label;
#X text 99 55 Front;
#X connect 0 0 22 0;
#X connect 1 0 21 0;
#X connect 2 0 20 0;
#X connect 4 0 35 0;
#X connect 5 0 24 0;
#X connect 5 1 24 1;
#X connect 6 0 24 0;
#X connect 6 1 24 2;
#X connect 10 0 11 0;
#X connect 12 0 13 0;
#X connect 14 0 15 0;
#X connect 20 0 14 0;
#X connect 20 0 6 0;
#X connect 21 0 12 0;
#X connect 21 0 5 0;
#X connect 22 0 10 0;
#X connect 22 0 24 0;
#X connect 23 0 4 0;
#X connect 23 0 34 0;
#X connect 23 0 29 0;
#X connect 24 0 23 0;
#X connect 24 0 25 0;
#X connect 24 0 34 1;
#X connect 27 0 28 0;
#X connect 28 0 24 0;
#X connect 30 0 16 0;
#X connect 31 0 30 0;
#X coords 0 -1 1 1 164 78 1 10 10;
#X restore 237 216 pd pick;
#X symbolatom 98 178 30 0 0 0 send_to #0-name-rcv #0-name;
#X floatatom 141 55 5 0 0 0 min #0-min-rcv #0-min;
#X floatatom 252 57 5 0 0 0 max #0-max-rcv #0-max;
#X text 11 152 Messages;
#X text 13 31 Values range;
#X text 137 31 ................;
#N canvas 0 50 450 300 todo 0;
#X obj 169 165 nbx 3 20 10 200 1 0 \$0-spdrt \$0-spdrt-rcv speed_ratio(%)
-140 10 0 16 -262144 -1 -1 181.631 256;
#X obj 24 70 cnv 15 200 80 empty empty TODO 20 12 0 14 -262130 -66577
0;
#X floatatom 130 90 5 0 0 0 text_color #0-cc-rcv #0-cc-snd;
#N canvas 0 50 450 300 (subpatch) 0;
#X obj 100 100 cnv 20 20 20 empty \$0-cc_cnv-rcv empty 20 12 0 14 -262144
-66577 0;
#X msg 170 104 color \$1 \$1;
#X obj 170 75 r \$0-cursor_color;
#X obj 170 132 s \$0-cc_cnv-rcv;
#X connect 1 0 3 0;
#X connect 2 0 1 0;
#X coords 0 -1 1 1 20 20 2 100 100;
#X restore 200 92 pd;
#X floatatom 130 120 5 0 0 0 text_size - -;
#X restore 32 356 pd todo;
#X obj 342 120 nbx 3 20 10 200 1 0 \$0-spdrt \$0-spdrt-rcv speed_ratio(%)
-140 10 0 16 -262144 -1 -1 181.631 256;
#X obj 72 120 hradio 20 1 0 2 \$0-mode \$0-mode-rcv mode 2 -10 0 14
-262144 -1 -1 1;
#X text 20 119 jump;
#X text 12 82 Behaviour;
#X text 115 118 steady->;
#X restore 1116 303 pd mmp.hfader_properties(\$0);
#X obj 473 169 t f f f;
#X obj 666 291 t f;
#N canvas 0 57 1920 1023 mmp-export-hfader_as_slider 0;
#X obj 47 16 r MMP_EXPORT;
#X obj 232 10 r \$0-x;
#X obj 312 32 r \$0-y;
#X obj 90 124 f;
#X obj 528 126 r \$0-name;
#X obj 447 78 r \$0-range;
#X obj 716 65 r \$0-r;
#X obj 716 85 r \$0-g;
#X obj 716 105 r \$0-b;
#X obj 716 125 r \$0-a;
#X obj 890 69 r \$0-hr;
#X obj 890 89 r \$0-hg;
#X obj 890 109 r \$0-hb;
#X obj 890 129 r \$0-ha;
#X obj 134 567 list append 125;
#X obj 134 545 list prepend add 123;
#X obj 147 609 list trim;
#X obj 147 631 s MMP_BINFILE;
#X obj 135 125 v MMP_FIRST_GUI_ITEM;
#X obj 135 160 select 1;
#X msg 425 507 add 44 123;
#X msg 329 506 add 123;
#X msg 137 199 0;
#X obj 136 237 v MMP_FIRST_GUI_ITEM;
#X floatatom 256 54 5 0 0 0 - - -;
#X floatatom 312 54 5 0 0 0 - - -;
#X floatatom 379 50 5 0 0 0 - - -;
#X floatatom 458 54 5 0 0 0 - - -;
#X symbolatom 535 160 10 0 0 0 - - -;
#X text 795 202 % remplace virgule;
#X floatatom 447 100 5 0 0 0 - - -;
#X obj 386 18 r \$0-w;
#X obj 458 32 r \$0-h;
#X obj 682 329 r \$0-back_color;
#X obj 986 324 r \$0-front_color;
#X obj 681 366 + 1;
#X obj 681 395 * -1;
#X obj 694 429 t f f f;
#X obj 605 463 / 65536;
#X obj 723 464 / 256;
#X obj 807 467 mod 256;
#X obj 723 493 mod 256;
#X obj 605 492 int;
#X obj 605 521 / 255;
#X obj 723 522 / 255;
#X obj 807 496 / 255;
#X obj 600 553 s \$0-r;
#X obj 724 555 s \$0-g;
#X obj 814 553 s \$0-b;
#X obj 991 364 + 1;
#X obj 991 393 * -1;
#X obj 1004 427 t f f f;
#X obj 915 461 / 65536;
#X obj 1033 462 / 256;
#X obj 1117 465 mod 256;
#X obj 1033 491 mod 256;
#X obj 915 490 int;
#X obj 915 519 / 255;
#X obj 1033 520 / 255;
#X obj 1117 494 / 255;
#X obj 910 551 s \$0-hr;
#X obj 1034 553 s \$0-hg;
#X obj 1124 551 s \$0-hb;
#X obj 425 341 iemguts/canvasposition 1;
#X obj 502 408 s \$0-y;
#X obj 390 398 s \$0-x;
#X obj 425 370 unpack f f;
#X obj 83 283 pack f f f f 1 s f f f 1 f f f 1, f 105;
#X obj 1224 168 v WIDGET-ID;
#X obj 1224 193 + 1;
#X obj 1224 218 s WIDGET-ID;
#X obj 414 162 r WIDGET-ID;
#X obj 416 193 list append;
#X msg 416 222 symbol \$1.\$2;
#X obj 1279 636 s LISTENERS;
#X obj 1279 552 pack s s f f f;
#X obj 1286 397 r \$0-name;
#X obj 1271 448 symbol;
#X obj 1271 477 t s s;
#X msg 1311 508 symbol \$1-rcv;
#X obj 1391 438 r WIDGET-ID;
#X obj 1486 497 r \$0-min;
#X obj 1539 545 r \$0-max;
#X obj 1280 597 list prepend mob/listener_lin;
#X obj 66 496 list fromsymbol;
#X msg 51 319 symbol "highlightColor":[\$11\\\,\$12\\\,\$13\\\,\$14]\\\,"address":"\$6"\\\,"color":[\$7\\\,\$8\\\,\$9\\\,\$10]\\\,"class":"MMPSlider"\\\,"isHorizontal":true\\\,"frame":[\$1\\\,\$2\\\,\$3\\\,\$4]\\\,"range":\$5
, f 23;
#X text 539 826 "address":"/myLCD1" \, "frame":[21.25781 \, 92.7305
\, 273.027 \, 248.7266] \, "class":"MMPLCD" \, "highlightColor":[1
\, 0 \, 0 \, 1] \, "color":[0.9316406 \, 1 \, 1 \, 1];
#X obj 68 53 t b b b b b;
#X connect 1 0 3 1;
#X connect 1 0 24 0;
#X connect 2 0 25 0;
#X connect 2 0 67 1;
#X connect 3 0 67 0;
#X connect 4 0 28 0;
#X connect 4 0 72 1;
#X connect 5 0 30 0;
#X connect 5 0 67 4;
#X connect 6 0 67 6;
#X connect 7 0 67 7;
#X connect 8 0 67 8;
#X connect 9 0 67 9;
#X connect 10 0 67 10;
#X connect 11 0 67 11;
#X connect 12 0 67 12;
#X connect 13 0 67 13;
#X connect 14 0 16 0;
#X connect 15 0 14 0;
#X connect 16 0 17 0;
#X connect 18 0 19 0;
#X connect 19 0 21 0;
#X connect 19 0 22 0;
#X connect 19 1 20 0;
#X connect 20 0 15 1;
#X connect 21 0 15 1;
#X connect 22 0 23 0;
#X connect 31 0 26 0;
#X connect 31 0 67 2;
#X connect 32 0 27 0;
#X connect 32 0 67 3;
#X connect 33 0 35 0;
#X connect 34 0 49 0;
#X connect 35 0 36 0;
#X connect 36 0 37 0;
#X connect 37 0 38 0;
#X connect 37 1 39 0;
#X connect 37 2 40 0;
#X connect 38 0 42 0;
#X connect 39 0 41 0;
#X connect 40 0 45 0;
#X connect 41 0 44 0;
#X connect 42 0 43 0;
#X connect 43 0 46 0;
#X connect 44 0 47 0;
#X connect 45 0 48 0;
#X connect 49 0 50 0;
#X connect 50 0 51 0;
#X connect 51 0 52 0;
#X connect 51 1 53 0;
#X connect 51 2 54 0;
#X connect 52 0 56 0;
#X connect 53 0 55 0;
#X connect 54 0 59 0;
#X connect 55 0 58 0;
#X connect 56 0 57 0;
#X connect 57 0 60 0;
#X connect 58 0 61 0;
#X connect 59 0 62 0;
#X connect 63 0 66 0;
#X connect 66 0 65 0;
#X connect 66 1 64 0;
#X connect 67 0 85 0;
#X connect 68 0 69 0;
#X connect 69 0 70 0;
#X connect 71 0 72 0;
#X connect 72 0 73 0;
#X connect 73 0 67 5;
#X connect 75 0 83 0;
#X connect 76 0 77 1;
#X connect 77 0 78 0;
#X connect 78 0 75 0;
#X connect 78 1 79 0;
#X connect 79 0 75 1;
#X connect 80 0 75 2;
#X connect 81 0 75 3;
#X connect 82 0 75 4;
#X connect 83 0 74 0;
#X connect 84 0 15 0;
#X connect 85 0 84 0;
#X connect 87 0 3 0;
#X connect 87 1 18 0;
#X connect 87 2 77 0;
#X connect 87 3 63 0;
#X connect 87 4 68 0;
#X restore 1189 419 pd mmp-export-hfader_as_slider;
#N canvas 0 57 1920 1023 mmp-export-hfader_as_LCD 1;
#X obj 47 16 r MMP_EXPORT;
#X obj 232 10 r \$0-x;
#X obj 312 32 r \$0-y;
#X obj 90 124 f;
#X obj 528 126 r \$0-name;
#X obj 447 78 r \$0-range;
#X obj 716 65 r \$0-r;
#X obj 716 85 r \$0-g;
#X obj 716 105 r \$0-b;
#X obj 716 125 r \$0-a;
#X obj 890 69 r \$0-hr;
#X obj 890 89 r \$0-hg;
#X obj 890 109 r \$0-hb;
#X obj 890 129 r \$0-ha;
#X obj 134 567 list append 125;
#X obj 134 545 list prepend add 123;
#X obj 147 609 list trim;
#X obj 147 631 s MMP_BINFILE;
#X obj 135 125 v MMP_FIRST_GUI_ITEM;
#X obj 135 160 select 1;
#X msg 425 507 add 44 123;
#X msg 329 506 add 123;
#X msg 88 167 0;
#X obj 141 185 v MMP_FIRST_GUI_ITEM;
#X floatatom 256 54 5 0 0 0 - - -;
#X floatatom 312 54 5 0 0 0 - - -;
#X floatatom 379 50 5 0 0 0 - - -;
#X floatatom 458 54 5 0 0 0 - - -;
#X symbolatom 535 160 10 0 0 0 - - -;
#X text 795 202 % remplace virgule;
#X floatatom 447 100 5 0 0 0 - - -;
#X obj 386 18 r \$0-w;
#X obj 458 32 r \$0-h;
#X obj 682 329 r \$0-back_color;
#X obj 986 324 r \$0-front_color;
#X obj 681 366 + 1;
#X obj 681 395 * -1;
#X obj 694 429 t f f f;
#X obj 605 463 / 65536;
#X obj 723 464 / 256;
#X obj 807 467 mod 256;
#X obj 723 493 mod 256;
#X obj 605 492 int;
#X obj 605 521 / 255;
#X obj 723 522 / 255;
#X obj 807 496 / 255;
#X obj 600 553 s \$0-r;
#X obj 724 555 s \$0-g;
#X obj 814 553 s \$0-b;
#X obj 991 364 + 1;
#X obj 991 393 * -1;
#X obj 1004 427 t f f f;
#X obj 915 461 / 65536;
#X obj 1033 462 / 256;
#X obj 1117 465 mod 256;
#X obj 1033 491 mod 256;
#X obj 915 490 int;
#X obj 915 519 / 255;
#X obj 1033 520 / 255;
#X obj 1117 494 / 255;
#X obj 910 551 s \$0-hr;
#X obj 1034 553 s \$0-hg;
#X obj 1124 551 s \$0-hb;
#X obj 425 341 iemguts/canvasposition 1;
#X obj 502 408 s \$0-y;
#X obj 390 398 s \$0-x;
#X obj 425 370 unpack f f;
#X obj 83 283 pack f f f f 1 s f f f 1 f f f 1, f 105;
#X obj 1224 168 v WIDGET-ID;
#X obj 1224 193 + 1;
#X obj 1224 218 s WIDGET-ID;
#X obj 68 53 t b b b b b b;
#X obj 414 162 r WIDGET-ID;
#X obj 416 193 list append;
#X msg 416 222 symbol \$1.\$2;
#X obj 1279 636 s LISTENERS;
#X obj 1286 397 r \$0-name;
#X obj 1271 448 symbol;
#X obj 1271 477 t s s;
#X msg 1311 508 symbol \$1-rcv;
#X obj 1391 438 r WIDGET-ID;
#X obj 1460 470 r \$0-min;
#X obj 1599 460 r \$0-max;
#X obj 66 496 list fromsymbol;
#X text 539 826 "address":"/myLCD1" \, "frame":[21.25781 \, 92.7305
\, 273.027 \, 248.7266] \, "class":"MMPLCD" \, "highlightColor":[1
\, 0 \, 0 \, 1] \, "color":[0.9316406 \, 1 \, 1 \, 1];
#X msg 51 319 symbol "highlightColor":[\$11\\\,\$12\\\,\$13\\\,\$14]\\\,"address":"\$6"\\\,"color":[\$7\\\,\$8\\\,\$9\\\,\$10]\\\,"class":"MMPLCD"\\\,"frame":[\$1\\\,\$2\\\,\$3\\\,\$4]
, f 23;
#X obj 1280 597 list prepend mob/listenerHLCD_lin;
#X obj 1688 385 r \$0-mode;
#X obj 1279 552 pack s s f f f f;
#X obj 1748 427 r \$0-spdrt;
#X obj 1748 456 t b f;
#X obj 1748 485 *;
#X obj 193 212 r MOB_ZOOM;
#X obj 83 251 * 1;
#X obj 158 252 * 1;
#X obj 308 251 * 1;
#X obj 236 250 * 1;
#X connect 0 0 71 0;
#X connect 1 0 3 1;
#X connect 1 0 24 0;
#X connect 2 0 25 0;
#X connect 2 0 94 0;
#X connect 3 0 93 0;
#X connect 4 0 28 0;
#X connect 4 0 73 1;
#X connect 5 0 30 0;
#X connect 5 0 67 4;
#X connect 6 0 67 6;
#X connect 7 0 67 7;
#X connect 8 0 67 8;
#X connect 9 0 67 9;
#X connect 10 0 67 10;
#X connect 11 0 67 11;
#X connect 12 0 67 12;
#X connect 13 0 67 13;
#X connect 14 0 16 0;
#X connect 15 0 14 0;
#X connect 16 0 17 0;
#X connect 18 0 19 0;
#X connect 19 0 21 0;
#X connect 19 0 22 0;
#X connect 19 1 20 0;
#X connect 20 0 15 1;
#X connect 21 0 15 1;
#X connect 22 0 23 0;
#X connect 31 0 26 0;
#X connect 31 0 96 0;
#X connect 32 0 27 0;
#X connect 32 0 95 0;
#X connect 33 0 35 0;
#X connect 34 0 49 0;
#X connect 35 0 36 0;
#X connect 36 0 37 0;
#X connect 37 0 38 0;
#X connect 37 1 39 0;
#X connect 37 2 40 0;
#X connect 38 0 42 0;
#X connect 39 0 41 0;
#X connect 40 0 45 0;
#X connect 41 0 44 0;
#X connect 42 0 43 0;
#X connect 43 0 46 0;
#X connect 44 0 47 0;
#X connect 45 0 48 0;
#X connect 49 0 50 0;
#X connect 50 0 51 0;
#X connect 51 0 52 0;
#X connect 51 1 53 0;
#X connect 51 2 54 0;
#X connect 52 0 56 0;
#X connect 53 0 55 0;
#X connect 54 0 59 0;
#X connect 55 0 58 0;
#X connect 56 0 57 0;
#X connect 57 0 60 0;
#X connect 58 0 61 0;
#X connect 59 0 62 0;
#X connect 63 0 66 0;
#X connect 66 0 65 0;
#X connect 66 1 64 0;
#X connect 67 0 85 0;
#X connect 68 0 69 0;
#X connect 69 0 70 0;
#X connect 71 1 3 0;
#X connect 71 3 18 0;
#X connect 71 4 63 0;
#X connect 71 4 77 0;
#X connect 71 5 68 0;
#X connect 72 0 73 0;
#X connect 73 0 74 0;
#X connect 74 0 67 5;
#X connect 76 0 77 1;
#X connect 77 0 78 0;
#X connect 78 0 88 0;
#X connect 78 1 79 0;
#X connect 79 0 88 1;
#X connect 80 0 88 2;
#X connect 81 0 88 3;
#X connect 82 0 88 4;
#X connect 83 0 15 0;
#X connect 85 0 83 0;
#X connect 86 0 75 0;
#X connect 87 0 91 0;
#X connect 88 0 86 0;
#X connect 89 0 90 0;
#X connect 90 0 91 0;
#X connect 90 1 91 1;
#X connect 91 0 88 5;
#X connect 92 0 93 1;
#X connect 92 0 94 1;
#X connect 92 0 96 1;
#X connect 92 0 95 1;
#X connect 93 0 67 0;
#X connect 94 0 67 1;
#X connect 95 0 67 3;
#X connect 96 0 67 2;
#X restore 1201 463 pd mmp-export-hfader_as_LCD;
#X text 1513 422 disabled;
#X connect 1 0 42 0;
#X connect 2 0 44 1;
#X connect 2 1 52 0;
#X connect 3 0 4 0;
#X connect 4 0 5 1;
#X connect 5 0 6 0;
#X connect 6 0 17 0;
#X connect 6 1 16 0;
#X connect 9 0 41 0;
#X connect 10 0 66 0;
#X connect 10 1 9 1;
#X connect 11 0 70 0;
#X connect 12 0 48 0;
#X connect 13 0 49 0;
#X connect 14 0 37 0;
#X connect 15 0 12 0;
#X connect 17 0 18 0;
#X connect 17 1 24 0;
#X connect 18 0 23 0;
#X connect 18 1 44 0;
#X connect 19 0 20 0;
#X connect 19 1 25 0;
#X connect 20 0 21 0;
#X connect 22 0 47 0;
#X connect 23 0 27 0;
#X connect 24 0 19 0;
#X connect 25 0 44 0;
#X connect 26 0 44 0;
#X connect 27 0 20 0;
#X connect 27 1 26 0;
#X connect 29 0 30 0;
#X connect 30 0 28 0;
#X connect 31 0 28 0;
#X connect 33 0 67 0;
#X connect 34 0 33 0;
#X connect 35 0 36 0;
#X connect 36 0 67 0;
#X connect 37 0 15 0;
#X connect 37 1 15 1;
#X connect 38 0 66 0;
#X connect 38 1 22 1;
#X connect 39 0 28 0;
#X connect 40 0 38 0;
#X connect 41 0 51 0;
#X connect 41 1 22 0;
#X connect 42 0 58 0;
#X connect 42 1 59 0;
#X connect 42 2 29 0;
#X connect 42 3 43 0;
#X connect 42 4 7 0;
#X connect 43 0 33 0;
#X connect 44 0 60 0;
#X connect 44 0 70 0;
#X connect 45 0 10 0;
#X connect 46 0 40 0;
#X connect 47 0 0 0;
#X connect 48 0 5 0;
#X connect 49 0 15 0;
#X connect 51 0 0 0;
#X connect 52 0 64 0;
#X connect 53 0 0 0;
#X connect 54 0 0 0;
#X connect 55 0 42 0;
#X connect 56 0 57 0;
#X connect 57 0 55 0;
#X connect 58 0 69 0;
#X connect 59 0 2 0;
#X connect 60 0 61 0;
#X connect 62 0 63 0;
#X connect 63 0 61 1;
#X connect 64 0 65 0;
#X connect 65 0 66 0;
#X connect 66 0 9 0;
#X connect 69 0 44 1;
#X connect 69 1 70 0;
#X connect 69 2 60 0;
#X connect 70 0 52 0;
#X coords 0 -1 1 1 176 63 2 100 100;
