#N canvas 11 58 944 1018 16;
#X obj 805 718 s \$0-cnv;
#X obj 637 27 inlet;
#X obj 662 197 t f f;
#X obj 221 222 iemguts/receivecanvas 1;
#X obj 220 257 route editmode;
#X obj 97 294 list prepend 0;
#X obj 97 323 route 0 1;
#N canvas 191 104 1326 562 savestate 0;
#X obj 237 276 savestate;
#X obj 349 320 s \$0-save;
#X obj 222 107 v \$0-w;
#X obj 237 305 list trim;
#X obj 230 1 r \$0-save;
#X obj 312 107 v \$0-h;
#X obj 60 444 unpack f f;
#X obj 220 156 pack f f;
#X obj 251 242 list;
#X obj 47 489 s \$0-w;
#X obj 149 484 s \$0-h;
#X msg 220 185 -size \$1 \$2;
#X obj 19 32 loadbang;
#X obj 19 106 spigot 1;
#X msg 88 76 0;
#X obj 828 133 v \$0-spdrt;
#X msg 828 162 -speed_ratio \$1;
#X obj 661 407 s \$0-spdrt;
#X obj 74 148 inlet;
#X obj 74 177 list split 1;
#X msg 74 206 -\$1;
#X obj 74 235 list append;
#X obj 780 485 s \$0-name;
#X obj 935 100 symbol;
#X obj 975 69 r \$0-name;
#X msg 934 131 -name \$1;
#X obj 782 452 symbol;
#X obj 891 435 s \$0-min;
#X obj 940 485 s \$0-max;
#X obj 1069 83 v \$0-min;
#X obj 1178 83 v \$0-max;
#X msg 1065 122 -min \$1;
#X msg 1174 122 -max \$1;
#X obj 1291 89 v \$0-mode;
#X msg 1287 128 -mode \$1;
#X obj 1042 430 s \$0-mode;
#X obj 1391 142 v \$0-z_offset;
#X obj 1549 148 v \$0-invisible;
#X msg 1391 171 -z_offset \$1;
#X msg 1549 177 -invisible \$1;
#X obj 227 35 t b b b b b b b b b b b b, f 133;
#X obj 1077 485 s \$0-z_offset;
#X obj 1228 480 s \$0-invisible;
#X obj 385 106 v \$0-back_color;
#X obj 310 480 s \$0-back_color;
#N canvas 0 50 540 413 convert 0;
#X obj 167 29 inlet;
#X obj 165 86 route float list;
#X obj 243 251 * -1;
#X obj 243 119 unpack f f f, f 17;
#X obj 243 285 - 1;
#X obj 326 153 * 256;
#X obj 243 153 * 65536;
#X obj 326 187 +;
#X obj 243 217 +;
#X obj 165 338 outlet;
#X connect 0 0 1 0;
#X connect 1 0 9 0;
#X connect 1 1 3 0;
#X connect 2 0 4 0;
#X connect 3 0 6 0;
#X connect 3 1 5 0;
#X connect 3 2 7 1;
#X connect 4 0 9 0;
#X connect 5 0 7 0;
#X connect 6 0 8 0;
#X connect 7 0 8 1;
#X connect 8 0 2 0;
#X restore 310 410 pd convert;
#N canvas 0 50 498 451 convert2rgb 0;
#X obj 53 112 * -1;
#X obj 54 81 + 1;
#X obj 180 181 mod 256;
#X obj 51 179 div 256;
#X obj 52 143 t f f, f 13;
#X obj 49 210 t f f;
#X obj 48 248 div 256;
#X obj 132 250 mod 256;
#X obj 49 288 pack f f f;
#X obj 54 51 inlet;
#X obj 49 317 outlet;
#X connect 0 0 4 0;
#X connect 1 0 0 0;
#X connect 2 0 8 2;
#X connect 3 0 5 0;
#X connect 4 0 3 0;
#X connect 4 1 2 0;
#X connect 5 0 6 0;
#X connect 5 1 7 0;
#X connect 6 0 8 0;
#X connect 7 0 8 1;
#X connect 8 0 10 0;
#X connect 9 0 1 0;
#X restore 382 136 pd convert2rgb;
#X msg 371 177 -back_color \$1 \$2 \$3;
#N canvas 0 50 498 451 convert2rgb 0;
#X obj 53 112 * -1;
#X obj 54 81 + 1;
#X obj 180 181 mod 256;
#X obj 51 179 div 256;
#X obj 52 143 t f f, f 13;
#X obj 49 210 t f f;
#X obj 48 248 div 256;
#X obj 132 250 mod 256;
#X obj 49 288 pack f f f;
#X obj 54 51 inlet;
#X obj 49 317 outlet;
#X connect 0 0 4 0;
#X connect 1 0 0 0;
#X connect 2 0 8 2;
#X connect 3 0 5 0;
#X connect 4 0 3 0;
#X connect 4 1 2 0;
#X connect 5 0 6 0;
#X connect 5 1 7 0;
#X connect 6 0 8 0;
#X connect 7 0 8 1;
#X connect 8 0 10 0;
#X connect 9 0 1 0;
#X restore 578 130 pd convert2rgb;
#N canvas 0 50 540 413 convert 0;
#X obj 167 29 inlet;
#X obj 165 86 route float list;
#X obj 243 251 * -1;
#X obj 243 119 unpack f f f, f 17;
#X obj 243 285 - 1;
#X obj 326 153 * 256;
#X obj 243 153 * 65536;
#X obj 326 187 +;
#X obj 243 217 +;
#X obj 165 338 outlet;
#X connect 0 0 1 0;
#X connect 1 0 9 0;
#X connect 1 1 3 0;
#X connect 2 0 4 0;
#X connect 3 0 6 0;
#X connect 3 1 5 0;
#X connect 3 2 7 1;
#X connect 4 0 9 0;
#X connect 5 0 7 0;
#X connect 6 0 8 0;
#X connect 7 0 8 1;
#X connect 8 0 2 0;
#X restore 439 399 pd convert;
#X obj 576 103 v \$0-front_color;
#X msg 573 167 -front_color \$1 \$2 \$3;
#X obj 439 438 s \$0-front_color;
#N canvas 0 50 498 451 convert2rgb 0;
#X obj 53 112 * -1;
#X obj 54 81 + 1;
#X obj 180 181 mod 256;
#X obj 51 179 div 256;
#X obj 52 143 t f f, f 13;
#X obj 49 210 t f f;
#X obj 48 248 div 256;
#X obj 132 250 mod 256;
#X obj 49 288 pack f f f;
#X obj 54 51 inlet;
#X obj 49 317 outlet;
#X connect 0 0 4 0;
#X connect 1 0 0 0;
#X connect 2 0 8 2;
#X connect 3 0 5 0;
#X connect 4 0 3 0;
#X connect 4 1 2 0;
#X connect 5 0 6 0;
#X connect 5 1 7 0;
#X connect 6 0 8 0;
#X connect 7 0 8 1;
#X connect 8 0 10 0;
#X connect 9 0 1 0;
#X restore 835 249 pd convert2rgb;
#N canvas 0 50 540 413 convert 0;
#X obj 167 29 inlet;
#X obj 165 86 route float list;
#X obj 243 251 * -1;
#X obj 243 119 unpack f f f, f 17;
#X obj 243 285 - 1;
#X obj 326 153 * 256;
#X obj 243 153 * 65536;
#X obj 326 187 +;
#X obj 243 217 +;
#X obj 165 338 outlet;
#X connect 0 0 1 0;
#X connect 1 0 9 0;
#X connect 1 1 3 0;
#X connect 2 0 4 0;
#X connect 3 0 6 0;
#X connect 3 1 5 0;
#X connect 3 2 7 1;
#X connect 4 0 9 0;
#X connect 5 0 7 0;
#X connect 6 0 8 0;
#X connect 7 0 8 1;
#X connect 8 0 2 0;
#X restore 624 451 pd convert;
#X obj 624 490 s \$0-label_color;
#X obj 257 353 route -size -back_color -front_color -label_color -speed_ratio
-name -min -max -mode -z_offset -invisible, f 106;
#X obj 838 219 v \$0-label_color;
#X msg 824 290 -label_color \$1 \$2 \$3;
#X msg -1 265 -size 127 15 \, -back_color 220 220 220 \, -front_color
150 150 150 \, -label_color 0 0 0 \, -speed_ratio 100 \, -min 0 \,
-max 1 \, -mode 0, f 17;
#X connect 0 0 3 0;
#X connect 0 0 14 0;
#X connect 0 1 1 0;
#X connect 2 0 7 0;
#X connect 3 0 56 0;
#X connect 4 0 40 0;
#X connect 5 0 7 1;
#X connect 6 0 9 0;
#X connect 6 1 10 0;
#X connect 7 0 11 0;
#X connect 8 0 0 0;
#X connect 11 0 8 0;
#X connect 12 0 13 0;
#X connect 13 0 59 0;
#X connect 14 0 13 1;
#X connect 15 0 16 0;
#X connect 16 0 8 0;
#X connect 18 0 19 0;
#X connect 19 0 20 0;
#X connect 19 1 21 1;
#X connect 20 0 21 0;
#X connect 21 0 3 0;
#X connect 23 0 25 0;
#X connect 24 0 23 1;
#X connect 25 0 8 0;
#X connect 26 0 22 0;
#X connect 29 0 31 0;
#X connect 30 0 32 0;
#X connect 31 0 8 0;
#X connect 32 0 8 0;
#X connect 33 0 34 0;
#X connect 34 0 8 0;
#X connect 36 0 38 0;
#X connect 37 0 39 0;
#X connect 38 0 8 0;
#X connect 39 0 8 0;
#X connect 40 0 2 0;
#X connect 40 1 5 0;
#X connect 40 2 43 0;
#X connect 40 3 50 0;
#X connect 40 4 57 0;
#X connect 40 5 15 0;
#X connect 40 6 23 0;
#X connect 40 7 29 0;
#X connect 40 8 30 0;
#X connect 40 9 33 0;
#X connect 40 10 36 0;
#X connect 40 11 37 0;
#X connect 43 0 46 0;
#X connect 45 0 44 0;
#X connect 46 0 47 0;
#X connect 47 0 8 0;
#X connect 48 0 51 0;
#X connect 49 0 52 0;
#X connect 50 0 48 0;
#X connect 51 0 8 0;
#X connect 53 0 58 0;
#X connect 54 0 55 0;
#X connect 56 0 6 0;
#X connect 56 1 45 0;
#X connect 56 2 49 0;
#X connect 56 3 54 0;
#X connect 56 4 17 0;
#X connect 56 5 26 0;
#X connect 56 6 27 0;
#X connect 56 7 28 0;
#X connect 56 8 35 0;
#X connect 56 9 41 0;
#X connect 56 10 42 0;
#X connect 57 0 53 0;
#X connect 58 0 8 0;
#X connect 59 0 56 0;
#X restore 1513 79 pd savestate;
#X obj 1514 31 namecanvas \$0-this;
#X obj 741 552 *;
#X obj 906 422 t b f;
#X msg 812 219 0;
#X msg 107 61 size \$1 \$2;
#X obj 104 -7 r \$0-w;
#X obj 201 -4 r \$0-h;
#X obj 107 32 pack f f;
#N canvas 0 50 1005 538 resize 0;
#X obj 51 17 inlet;
#X msg -74 585 dirty 1;
#X obj 157 237 spigot;
#X msg 109 186 1;
#X msg 78 247 0;
#X obj 307 211 t l b;
#X obj 110 479 -;
#X obj 247 472 -;
#X obj 167 512 r \$0-w;
#X obj 298 515 r \$0-h;
#X obj 153 551 +;
#X obj 152 591 s \$0-w;
#X obj 247 546 +;
#X obj 254 586 s \$0-h;
#X obj 57 106 spigot 1;
#X obj 57 135 t b b;
#X msg 129 73 0;
#X msg 79 281 1;
#X obj 154 322 unpack f f f;
#X obj 156 271 route mouseup motion;
#X obj 108 360 t f f b f;
#X obj 229 357 t f f b f;
#X obj 289 433 spigot 1;
#X msg 367 397 0;
#X obj 143 441 spigot 1;
#X msg 212 405 0;
#X obj 235 85 iemguts/receivecanvas 2;
#X obj -71 611 iemguts/sendcanvas 2;
#X obj 699 92 r \$0-w;
#X obj 785 106 r \$0-h;
#X obj 699 229 pack f f;
#X obj 601 310 t b a;
#X msg 559 346 dirty 0;
#X obj 555 384 s \$0-this;
#X msg 546 156 120 254;
#X msg 483 279 donecanvasdialog 1 -1 3 0 -1 1 1 \$1 \$2 100 100;
#X text 673 383 the parent canvas;
#X obj 714 163 t b f;
#X connect 0 0 14 0;
#X connect 1 0 27 0;
#X connect 2 0 19 0;
#X connect 3 0 2 1;
#X connect 4 0 2 1;
#X connect 6 0 10 0;
#X connect 7 0 12 0;
#X connect 8 0 10 1;
#X connect 9 0 12 1;
#X connect 10 0 11 0;
#X connect 12 0 13 0;
#X connect 14 0 15 0;
#X connect 15 0 3 0;
#X connect 15 1 16 0;
#X connect 15 1 1 0;
#X connect 16 0 14 1;
#X connect 17 0 14 1;
#X connect 17 0 24 1;
#X connect 17 0 22 1;
#X connect 18 0 20 0;
#X connect 18 1 21 0;
#X connect 19 0 4 0;
#X connect 19 0 17 0;
#X connect 19 1 18 0;
#X connect 20 0 6 1;
#X connect 20 1 6 0;
#X connect 20 2 25 0;
#X connect 20 3 24 0;
#X connect 21 0 7 1;
#X connect 21 1 7 0;
#X connect 21 2 23 0;
#X connect 21 3 22 0;
#X connect 22 0 7 1;
#X connect 23 0 22 1;
#X connect 24 0 6 1;
#X connect 25 0 24 1;
#X connect 26 0 2 0;
#X connect 28 0 30 0;
#X connect 29 0 37 0;
#X connect 30 0 35 0;
#X connect 31 0 32 0;
#X connect 31 1 33 0;
#X connect 32 0 33 0;
#X connect 34 0 35 0;
#X connect 35 0 31 0;
#X connect 37 0 30 0;
#X connect 37 1 30 1;
#X restore 141 365 pd resize;
#X obj 88 544 moses 117;
#X obj 88 573 moses 10;
#X obj 205 706 t f f;
#X msg 92 835 set \$1;
#X obj 101 878 s \$0-slider;
#X obj 804 648 list prepend 30;
#X obj 83 615 + 107;
#X obj 206 613 - 107;
#X msg 239 782 \$1 -107;
#X msg 123 737 \$1 107;
#X obj 69 665 t f f;
#X obj 344 111 s \$0-cnv;
#X obj 347 49 symbol;
#X msg 344 85 label \$1;
#X msg 440 17 label;
#X msg 1121 198 vis 1;
#X obj 1125 160 iemguts/propertybang;
#X obj 1207 199 r \$0-ok;
#X msg 1207 228 vis 0;
#X obj 248 56 t b f;
#X obj 996 468 t b f;
#X msg 517 17 label du;
#X obj 996 439 - 2;
#X obj 741 590 moses 1e-08;
#X obj 553 88 route float set label properties;
#X obj 1032 147 t b;
#N canvas 957 152 850 636 multitouch.listener3 0;
#X obj 518 413 v MULTITOUCH.SLOT.ID;
#X msg 594 553 symbol \$1-slot;
#X obj 521 463 select 0;
#X obj 569 676 s;
#X obj 196 396 unpack f f;
#X msg 565 627 send_to \$1;
#X obj 193 673 +;
#X obj 626 66 inlet;
#X obj 513 305 spigot 1;
#X msg 592 275 0;
#X obj 237 220 route list no_mouse remove;
#X obj 565 600 list append \$0-from_slot;
#X obj 242 166 r \$0-from_slot;
#X msg 413 261 1;
#X obj 589 507 t b f b;
#X obj 513 367 t b;
#X obj 673 309 -;
#X obj 193 838 outlet;
#X obj 791 421 == 0;
#X obj 715 469 spigot 1;
#X obj 195 332 spigot;
#X obj 918 106 inlet set;
#X obj 193 702 min 127;
#X obj 193 731 max 0;
#X obj 191 773 t f f f;
#X text 434 550 register callback, f 9;
#X obj 647 268 t f f;
#X obj 599 104 route float list;
#X obj 645 170 unpack f f;
#X obj 714 348 -;
#X msg 599 133 \$1 0;
#X obj 193 512 / 127;
#X text 207 138 callback;
#X obj 600 231 t b f;
#X obj 255 545 r ZOOM;
#X obj 193 573 / 1;
#X text 337 667 speed_ratio(%);
#X obj 338 614 r \$0-spdrt;
#X obj 281 476 r \$0-w;
#X obj 193 544 * 127;
#X obj 193 624 * 0.5;
#X obj 338 642 / 100;
#X connect 0 0 2 0;
#X connect 1 0 3 1;
#X connect 2 1 14 0;
#X connect 4 0 31 0;
#X connect 5 0 3 0;
#X connect 6 0 22 0;
#X connect 7 0 27 0;
#X connect 8 0 15 0;
#X connect 9 0 8 1;
#X connect 9 0 0 0;
#X connect 10 0 20 0;
#X connect 10 1 18 0;
#X connect 10 1 20 1;
#X connect 10 2 13 0;
#X connect 11 0 5 0;
#X connect 12 0 10 0;
#X connect 13 0 8 1;
#X connect 14 0 11 0;
#X connect 14 1 1 0;
#X connect 14 2 9 0;
#X connect 15 0 0 0;
#X connect 16 0 29 0;
#X connect 18 0 19 1;
#X connect 19 0 40 0;
#X connect 20 0 4 0;
#X connect 21 0 6 1;
#X connect 22 0 23 0;
#X connect 23 0 24 0;
#X connect 24 0 17 0;
#X connect 24 1 6 1;
#X connect 26 0 16 1;
#X connect 26 1 16 0;
#X connect 27 0 30 0;
#X connect 27 1 28 0;
#X connect 28 0 33 0;
#X connect 28 1 29 1;
#X connect 29 0 19 0;
#X connect 30 0 28 0;
#X connect 31 0 39 0;
#X connect 33 0 8 0;
#X connect 33 1 26 0;
#X connect 34 0 35 1;
#X connect 35 0 40 0;
#X connect 37 0 41 0;
#X connect 38 0 31 1;
#X connect 39 0 35 0;
#X connect 40 0 6 0;
#X connect 41 0 40 1;
#X restore 329 601 pd multitouch.listener3;
#X obj 906 393 r \$0-w;
#X obj 996 413 r \$0-h;
#X msg 805 689 vis_size \$2 \$1;
#X obj 104 100 hsl 121 15 0 127 0 0 empty \$0-slider empty -2 -8 0
10 -228856 -228856 -228856 0 0;
#X obj 54 12 - 6;
#X obj 101 101 cnv 1 1 1 empty \$0-cnv empty 2 6 0 10 -153958 -1 0
;
#X msg 587 648 vis_size 1 1;
#X obj 748 344 / 127;
#X msg 1057 688 size 10 10;
#X msg 1065 725 size 1 1;
#X obj 1010 12 iemlib/iem_receive;
#X obj 1230 4 r \$0-name;
#X msg 1230 33 set \$1-rcv;
#N canvas 0 50 450 300 mapping_lin 0;
#X obj 196 43 inlet;
#X obj 175 229 outlet;
#X obj 238 84 r \$0-min;
#X obj 200 126 -;
#X obj 273 47 r \$0-max;
#X obj 267 179 -;
#X obj 279 130 t f b f;
#X obj 200 155 /;
#X obj 200 184 * 127;
#X connect 0 0 3 0;
#X connect 2 0 6 0;
#X connect 3 0 7 0;
#X connect 4 0 5 0;
#X connect 5 0 7 1;
#X connect 6 0 3 1;
#X connect 6 1 5 0;
#X connect 6 2 5 1;
#X connect 7 0 8 0;
#X connect 8 0 1 0;
#X restore 464 129 pd mapping_lin;
#N canvas 0 50 450 300 mapping_lin 0;
#X obj 196 43 inlet;
#X obj 175 229 outlet;
#X obj 238 84 r \$0-min;
#X obj 200 126 -;
#X obj 273 47 r \$0-max;
#X obj 267 179 -;
#X obj 279 130 t f b f;
#X obj 200 155 /;
#X obj 200 184 * 127;
#X connect 0 0 3 0;
#X connect 2 0 6 0;
#X connect 3 0 7 0;
#X connect 4 0 5 0;
#X connect 5 0 7 1;
#X connect 6 0 3 1;
#X connect 6 1 5 0;
#X connect 6 2 5 1;
#X connect 7 0 8 0;
#X connect 8 0 1 0;
#X restore 672 138 pd mapping_lin;
#N canvas 0 50 450 300 inv_mapping_lin 0;
#X obj 47 255 outlet;
#X obj 107 69 r \$0-min;
#X obj 206 22 r \$0-max;
#X obj 189 168 -;
#X obj 148 115 t f b f;
#X obj 32 23 inlet;
#X obj 33 106 / 127;
#X obj 36 176 *;
#X obj 36 205 +;
#X connect 1 0 4 0;
#X connect 2 0 3 0;
#X connect 3 0 7 1;
#X connect 4 0 8 1;
#X connect 4 1 3 0;
#X connect 4 2 3 1;
#X connect 5 0 6 0;
#X connect 6 0 7 0;
#X connect 7 0 8 0;
#X connect 8 0 0 0;
#X restore 373 647 pd inv_mapping_lin;
#X obj 416 744 s;
#X obj 435 678 r \$0-name;
#X obj 435 707 symbol;
#X obj 773 383 min 1;
#X obj 773 412 max 0;
#X obj 789 493 f 0;
#X obj 1114 248 s pd-mmp.hfader_properties(\$0);
#N canvas 1219 508 422 459 mmp.hfader_properties(\$0) 0;
#X obj 6 4 cnv 15 400 450 empty empty empty 20 12 0 14 -233017 -66577
0;
#X floatatom 156 8 5 0 0 0 width #0-w-rcv #0-w-snd;
#X obj 348 370 bng 40 250 50 0 \$0-ok empty OK 5 20 0 20 -204786 -1
-1;
#X floatatom 281 9 5 0 0 0 height #0-h-rcv #0-h-snd;
#X symbolatom 98 163 30 0 0 0 send_to #0-name-rcv #0-name;
#X floatatom 141 55 5 0 0 0 min #0-min-rcv #0-min;
#X floatatom 252 57 5 0 0 0 max #0-max-rcv #0-max;
#X text 11 138 Messages;
#X text 13 31 Values range;
#X text 137 31 ................;
#N canvas 0 50 450 300 todo 0;
#X obj 169 165 nbx 3 20 10 200 1 0 \$0-spdrt \$0-spdrt-rcv speed_ratio(%)
-140 10 0 16 -262144 -1 -1 100 256;
#X obj 24 70 cnv 15 200 80 empty empty TODO 20 12 0 14 -262130 -66577
0;
#X floatatom 130 90 5 0 0 0 text_color #0-cc-rcv #0-cc-snd;
#N canvas 0 50 450 300 (subpatch) 0;
#X obj 100 100 cnv 20 20 20 empty \$0-cc_cnv-rcv empty 20 12 0 14 -262144
-66577 0;
#X msg 170 104 color \$1 \$1;
#X obj 170 75 r \$0-cursor_color;
#X obj 170 132 s \$0-cc_cnv-rcv;
#X connect 1 0 3 0;
#X connect 2 0 1 0;
#X coords 0 -1 1 1 20 20 2 100 100;
#X restore 200 92 pd;
#X floatatom 130 120 5 0 0 0 text_size - -;
#X restore 326 421 pd todo;
#X obj 342 110 nbx 3 20 10 200 1 0 \$0-spdrt \$0-spdrt-rcv speed_ratio(%)
-140 10 0 16 -262144 -1 -1 100 256;
#X obj 72 113 hradio 20 1 0 2 \$0-mode \$0-mode-rcv mode 2 -10 0 14
-262144 -1 -1 0;
#X text 20 112 jump;
#X text 12 75 Behaviour;
#X text 115 108 steady->;
#X floatatom 273 393 5 0 0 0 z-offset #0-z_offset-rcv #0-z_offset;
#X obj 149 371 tgl 20 0 \$0-invisible \$0-invisible-rcv Transparency
-130 8 0 16 -262144 -1 -1 0 1;
#X text 17 339 MobMuPlat Widget Export;
#X obj 149 390 tgl 20 0 \$0-z_offset \$0-z_offset-rcv MoveOnTop -100
8 0 16 -262144 -1 -1 0 99;
#X obj 175 371 hsl 60 20 1 0 0 0 \$0-invisible \$0-invisible-rcv empty
-2 -8 0 10 -262144 -1 -1 5900 1;
#X text 242 367 Opacity;
#X text 213 222 back_color;
#X text 211 262 front_color;
#X text 211 302 label_color;
#N canvas 412 187 1049 632 color_picker 0;
#X obj 53 150 hsl 128 12 0 255 0 0 empty empty empty -2 -8 0 10 -228856
-258113 -1 10957 0;
#X obj 53 162 hsl 128 12 0 255 0 0 empty empty empty -2 -8 0 10 -228856
-4034 -1 10957 0;
#X obj 53 174 hsl 128 12 0 255 0 0 empty empty empty -2 -8 0 10 -228856
-4160 -1 10957 0;
#X obj 183 150 tgl 36 0 empty empty empty 17 7 0 10 -228856 -228856
-228856 0 1;
#N canvas 0 50 498 451 convert2rgb 0;
#X obj 53 112 * -1;
#X obj 54 81 + 1;
#X obj 180 183 mod 256;
#X obj 51 179 div 256;
#X obj 52 143 t f f, f 13;
#X obj 49 210 t f f;
#X obj 48 248 div 256;
#X obj 132 250 mod 256;
#X obj 54 51 inlet;
#X obj 49 317 outlet;
#X obj 129 317 outlet;
#X obj 209 317 outlet;
#X connect 0 0 4 0;
#X connect 1 0 0 0;
#X connect 2 0 11 0;
#X connect 3 0 5 0;
#X connect 4 0 3 0;
#X connect 4 1 2 0;
#X connect 5 0 6 0;
#X connect 5 1 7 0;
#X connect 6 0 9 0;
#X connect 7 0 10 0;
#X connect 8 0 1 0;
#X restore 58 76 pd convert2rgb;
#X msg 286 149 color \$1 \$1 \$1;
#X msg 57 112 set \$1;
#X msg 141 109 set \$1;
#X msg 234 111 set \$1;
#X obj 83 332 t b f;
#X obj 144 333 t b f;
#X obj 149 291 i;
#X obj 104 292 i;
#X obj 61 294 i;
#X obj 67 410 expr ($f1*(-65536)+$f2*(-256)+$f3*(-1))-1;
#X obj 66 372 pack f f f;
#X obj 58 14 r \$0-back_color;
#X obj 97 549 s \$0-back_color;
#X obj 58 45 spigot 1;
#X obj 67 457 t b f b;
#X msg 134 495 0;
#X msg 67 486 1;
#X connect 0 0 13 0;
#X connect 1 0 12 0;
#X connect 2 0 11 0;
#X connect 4 0 6 0;
#X connect 4 1 7 0;
#X connect 4 2 8 0;
#X connect 5 0 3 0;
#X connect 6 0 0 0;
#X connect 7 0 1 0;
#X connect 8 0 2 0;
#X connect 9 0 15 0;
#X connect 9 1 15 1;
#X connect 10 0 15 0;
#X connect 10 1 15 2;
#X connect 11 0 10 0;
#X connect 12 0 9 0;
#X connect 13 0 15 0;
#X connect 14 0 19 0;
#X connect 15 0 14 0;
#X connect 16 0 5 0;
#X connect 16 0 18 0;
#X connect 18 0 4 0;
#X connect 19 0 21 0;
#X connect 19 1 17 0;
#X connect 19 2 20 0;
#X connect 20 0 18 1;
#X connect 21 0 18 1;
#X coords 0 -1 1 1 169 36 2 50 150;
#X restore 28 217 pd color_picker;
#N canvas 882 181 1049 632 color_picker 0;
#X obj 53 150 hsl 128 12 0 255 0 0 empty empty empty -2 -8 0 10 -228856
-258113 -1 7471 0;
#X obj 53 162 hsl 128 12 0 255 0 0 empty empty empty -2 -8 0 10 -228856
-4034 -1 7471 0;
#X obj 53 174 hsl 128 12 0 255 0 0 empty empty empty -2 -8 0 10 -228856
-4160 -1 7471 0;
#X obj 183 150 tgl 36 0 empty empty empty 17 7 0 10 -153958 -153958
-153958 0 1;
#N canvas 0 50 498 451 convert2rgb 0;
#X obj 53 112 * -1;
#X obj 54 81 + 1;
#X obj 180 183 mod 256;
#X obj 51 179 div 256;
#X obj 52 143 t f f, f 13;
#X obj 49 210 t f f;
#X obj 48 248 div 256;
#X obj 132 250 mod 256;
#X obj 54 51 inlet;
#X obj 49 317 outlet;
#X obj 129 317 outlet;
#X obj 209 317 outlet;
#X connect 0 0 4 0;
#X connect 1 0 0 0;
#X connect 2 0 11 0;
#X connect 3 0 5 0;
#X connect 4 0 3 0;
#X connect 4 1 2 0;
#X connect 5 0 6 0;
#X connect 5 1 7 0;
#X connect 6 0 9 0;
#X connect 7 0 10 0;
#X connect 8 0 1 0;
#X restore 58 76 pd convert2rgb;
#X msg 286 149 color \$1 \$1 \$1;
#X msg 57 112 set \$1;
#X msg 141 109 set \$1;
#X msg 234 111 set \$1;
#X obj 83 332 t b f;
#X obj 144 333 t b f;
#X obj 149 291 i;
#X obj 104 292 i;
#X obj 61 294 i;
#X obj 67 410 expr ($f1*(-65536)+$f2*(-256)+$f3*(-1))-1;
#X obj 66 372 pack f f f;
#X obj 58 45 spigot 1;
#X obj 67 457 t b f b;
#X msg 134 495 0;
#X msg 67 486 1;
#X obj 58 14 r \$0-front_color;
#X obj 97 549 s \$0-front_color;
#X connect 0 0 13 0;
#X connect 1 0 12 0;
#X connect 2 0 11 0;
#X connect 4 0 6 0;
#X connect 4 1 7 0;
#X connect 4 2 8 0;
#X connect 5 0 3 0;
#X connect 6 0 0 0;
#X connect 7 0 1 0;
#X connect 8 0 2 0;
#X connect 9 0 15 0;
#X connect 9 1 15 1;
#X connect 10 0 15 0;
#X connect 10 1 15 2;
#X connect 11 0 10 0;
#X connect 12 0 9 0;
#X connect 13 0 15 0;
#X connect 14 0 17 0;
#X connect 15 0 14 0;
#X connect 16 0 4 0;
#X connect 17 0 19 0;
#X connect 17 1 21 0;
#X connect 17 2 18 0;
#X connect 18 0 16 1;
#X connect 19 0 16 1;
#X connect 20 0 5 0;
#X connect 20 0 16 0;
#X coords 0 -1 1 1 169 36 2 50 150;
#X restore 28 257 pd color_picker;
#N canvas 882 181 1049 632 color_picker 0;
#X obj 53 150 hsl 128 12 0 255 0 0 empty empty empty -2 -8 0 10 -228856
-258113 -1 0 0;
#X obj 53 162 hsl 128 12 0 255 0 0 empty empty empty -2 -8 0 10 -228856
-4034 -1 0 0;
#X obj 53 174 hsl 128 12 0 255 0 0 empty empty empty -2 -8 0 10 -228856
-4160 -1 0 0;
#X obj 183 150 tgl 36 0 empty empty empty 17 7 0 10 -1 -1 -1 0 1;
#N canvas 0 50 498 451 convert2rgb 0;
#X obj 53 112 * -1;
#X obj 54 81 + 1;
#X obj 180 183 mod 256;
#X obj 51 179 div 256;
#X obj 52 143 t f f, f 13;
#X obj 49 210 t f f;
#X obj 48 248 div 256;
#X obj 132 250 mod 256;
#X obj 54 51 inlet;
#X obj 49 317 outlet;
#X obj 129 317 outlet;
#X obj 209 317 outlet;
#X connect 0 0 4 0;
#X connect 1 0 0 0;
#X connect 2 0 11 0;
#X connect 3 0 5 0;
#X connect 4 0 3 0;
#X connect 4 1 2 0;
#X connect 5 0 6 0;
#X connect 5 1 7 0;
#X connect 6 0 9 0;
#X connect 7 0 10 0;
#X connect 8 0 1 0;
#X restore 58 76 pd convert2rgb;
#X msg 286 149 color \$1 \$1 \$1;
#X msg 57 112 set \$1;
#X msg 141 109 set \$1;
#X msg 234 111 set \$1;
#X obj 83 332 t b f;
#X obj 144 333 t b f;
#X obj 149 291 i;
#X obj 104 292 i;
#X obj 61 294 i;
#X obj 67 410 expr ($f1*(-65536)+$f2*(-256)+$f3*(-1))-1;
#X obj 66 372 pack f f f;
#X obj 58 45 spigot 1;
#X obj 67 457 t b f b;
#X msg 134 495 0;
#X msg 67 486 1;
#X obj 58 14 r \$0-label_color;
#X obj 97 549 s \$0-label_color;
#X connect 0 0 13 0;
#X connect 1 0 12 0;
#X connect 2 0 11 0;
#X connect 4 0 6 0;
#X connect 4 1 7 0;
#X connect 4 2 8 0;
#X connect 5 0 3 0;
#X connect 6 0 0 0;
#X connect 7 0 1 0;
#X connect 8 0 2 0;
#X connect 9 0 15 0;
#X connect 9 1 15 1;
#X connect 10 0 15 0;
#X connect 10 1 15 2;
#X connect 11 0 10 0;
#X connect 12 0 9 0;
#X connect 13 0 15 0;
#X connect 14 0 17 0;
#X connect 15 0 14 0;
#X connect 16 0 4 0;
#X connect 17 0 19 0;
#X connect 17 1 21 0;
#X connect 17 2 18 0;
#X connect 18 0 16 1;
#X connect 19 0 16 1;
#X connect 20 0 5 0;
#X connect 20 0 16 0;
#X coords 0 -1 1 1 169 36 2 50 150;
#X restore 29 297 pd color_picker;
#X obj 99 187 cnv 15 300 20 empty \$0-receive_name-rcv Untitled_7-rcv
2 10 0 16 -249855 -66577 0;
#X text 24 185 receive;
#X restore 1116 303 pd mmp.hfader_properties(\$0);
#X obj 473 169 t f f f;
#X obj 666 291 t f;
#N canvas -368 84 1920 1023 mmp-export-hfader_as_LCD 0;
#X obj 75 21 r MMP_EXPORT;
#X obj 232 10 r \$0-x;
#X obj 312 32 r \$0-y;
#X obj 90 124 f;
#X obj 528 126 r \$0-name;
#X obj 447 78 r \$0-range;
#X obj 134 567 list append 125;
#X obj 134 545 list prepend add 123;
#X obj 147 609 list trim;
#X obj 147 631 s MMP_BINFILE;
#X obj 135 125 v MMP_FIRST_GUI_ITEM;
#X obj 135 160 select 1;
#X msg 425 507 add 44 123;
#X msg 329 506 add 123;
#X msg 88 167 0;
#X obj 141 185 v MMP_FIRST_GUI_ITEM;
#X floatatom 256 54 5 0 0 0 - - -;
#X floatatom 312 54 5 0 0 0 - - -;
#X floatatom 379 50 5 0 0 0 - - -;
#X floatatom 458 54 5 0 0 0 - - -;
#X symbolatom 535 160 10 0 0 0 - - -;
#X floatatom 447 100 5 0 0 0 - - -;
#X obj 386 18 r \$0-w;
#X obj 458 32 r \$0-h;
#X obj 425 361 iemguts/canvasposition 1;
#X obj 502 428 s \$0-y;
#X obj 390 418 s \$0-x;
#X obj 425 390 unpack f f;
#X obj 83 303 pack f f f f 1 s f f f 1 f f f 1, f 105;
#X obj 1224 168 v WIDGET-ID;
#X obj 1224 193 + 1;
#X obj 1224 218 s WIDGET-ID;
#X obj 414 162 r WIDGET-ID;
#X obj 416 193 list append;
#X msg 416 222 symbol \$1.\$2;
#X obj 1279 636 s LISTENERS;
#X obj 1286 397 r \$0-name;
#X obj 1271 448 symbol;
#X obj 1271 477 t s s;
#X msg 1311 508 symbol \$1-rcv;
#X obj 1391 438 r WIDGET-ID;
#X obj 66 496 list fromsymbol;
#X text 539 826 "address":"/myLCD1" \, "frame":[21.25781 \, 92.7305
\, 273.027 \, 248.7266] \, "class":"MMPLCD" \, "highlightColor":[1
\, 0 \, 0 \, 1] \, "color":[0.9316406 \, 1 \, 1 \, 1];
#X msg 51 339 symbol "highlightColor":[\$11\\\,\$12\\\,\$13\\\,\$14]\\\,"address":"\$6"\\\,"color":[\$7\\\,\$8\\\,\$9\\\,\$10]\\\,"class":"MMPLCD"\\\,"frame":[\$1\\\,\$2\\\,\$3\\\,\$4]
, f 23;
#X obj 1280 597 list prepend mob/listenerHLCD_lin;
#X obj 83 251 * 1;
#X obj 158 252 * 1;
#X obj 308 251 * 1;
#X obj 236 250 * 1;
#X obj 119 211 t f b f b f b f, f 23;
#X obj -23 164 r MOB_ZOOM;
#N canvas 278 130 450 300 MMP_EXPORT_BY_INDEX 0;
#X obj 151 40 r MMP_EXPORT_BY_INDEX;
#X obj 146 268 outlet;
#X text 38 6 enable z-order;
#X obj 151 69 t f b;
#X obj 203 96 canvasindex 2;
#X obj 146 235 select;
#X obj 202 145 + 0;
#X obj 249 126 r \$0-z_offset;
#X obj 202 174 max 0;
#X obj 202 203 min 1;
#X obj 298 171 - 1;
#X connect 0 0 3 0;
#X connect 3 0 5 0;
#X connect 3 1 4 0;
#X connect 4 0 6 0;
#X connect 4 1 10 0;
#X connect 5 0 1 0;
#X connect 6 0 8 0;
#X connect 7 0 6 1;
#X connect 8 0 9 0;
#X connect 9 0 5 1;
#X connect 10 0 9 1;
#X restore -7 3 pd MMP_EXPORT_BY_INDEX;
#X obj 68 53 t b b b b b;
#X obj 1102 97 r \$0-invisible;
#X obj 1102 126 - 1;
#X obj 1102 155 * -1;
#X obj 1453 489 r \$0-min;
#X obj 1596 499 r \$0-max;
#X obj 1720 410 r \$0-mode;
#X obj 1780 452 r \$0-spdrt;
#X obj 1780 481 t b f;
#X obj 1780 510 *;
#X obj 1739 566 r \$0-name;
#X obj 1718 642 iem_receive;
#X msg 1739 595 set \$1;
#X obj 1279 552 pack s s f f f f f;
#X obj 1718 684 route float;
#X obj 619 154 r \$0-back_color;
#N canvas 0 50 534 640 canvas_color_to_rgb 0;
#X obj 119 35 inlet;
#X obj 121 96 + 1;
#X obj 121 125 * -1;
#X obj 134 159 t f f f;
#X obj 45 193 / 65536;
#X obj 163 194 / 256;
#X obj 247 197 mod 256;
#X obj 163 223 mod 256;
#X obj 45 222 int;
#X obj 45 251 / 255;
#X obj 163 252 / 255;
#X obj 247 226 / 255;
#X obj 40 283 outlet;
#X obj 164 285 outlet;
#X obj 254 283 outlet;
#X connect 0 0 1 0;
#X connect 1 0 2 0;
#X connect 2 0 3 0;
#X connect 3 0 4 0;
#X connect 3 1 5 0;
#X connect 3 2 6 0;
#X connect 4 0 8 0;
#X connect 5 0 7 0;
#X connect 6 0 11 0;
#X connect 7 0 10 0;
#X connect 8 0 9 0;
#X connect 9 0 12 0;
#X connect 10 0 13 0;
#X connect 11 0 14 0;
#X restore 608 214 pd canvas_color_to_rgb;
#N canvas 0 50 534 640 canvas_color_to_rgb 0;
#X obj 119 35 inlet;
#X obj 121 96 + 1;
#X obj 121 125 * -1;
#X obj 134 159 t f f f;
#X obj 45 193 / 65536;
#X obj 163 194 / 256;
#X obj 247 197 mod 256;
#X obj 163 223 mod 256;
#X obj 45 222 int;
#X obj 45 251 / 255;
#X obj 163 252 / 255;
#X obj 247 226 / 255;
#X obj 40 283 outlet;
#X obj 164 285 outlet;
#X obj 254 283 outlet;
#X connect 0 0 1 0;
#X connect 1 0 2 0;
#X connect 2 0 3 0;
#X connect 3 0 4 0;
#X connect 3 1 5 0;
#X connect 3 2 6 0;
#X connect 4 0 8 0;
#X connect 5 0 7 0;
#X connect 6 0 11 0;
#X connect 7 0 10 0;
#X connect 8 0 9 0;
#X connect 9 0 12 0;
#X connect 10 0 13 0;
#X connect 11 0 14 0;
#X restore 922 209 pd canvas_color_to_rgb;
#X obj 913 161 r \$0-front_color;
#X connect 1 0 3 1;
#X connect 1 0 16 0;
#X connect 2 0 17 0;
#X connect 2 0 46 0;
#X connect 3 0 45 0;
#X connect 4 0 20 0;
#X connect 4 0 33 1;
#X connect 5 0 21 0;
#X connect 5 0 28 4;
#X connect 6 0 8 0;
#X connect 7 0 6 0;
#X connect 8 0 9 0;
#X connect 10 0 11 0;
#X connect 11 0 13 0;
#X connect 11 0 14 0;
#X connect 11 1 12 0;
#X connect 12 0 7 1;
#X connect 13 0 7 1;
#X connect 14 0 15 0;
#X connect 22 0 18 0;
#X connect 22 0 48 0;
#X connect 23 0 19 0;
#X connect 23 0 47 0;
#X connect 24 0 27 0;
#X connect 27 0 26 0;
#X connect 27 1 25 0;
#X connect 28 0 43 0;
#X connect 29 0 30 0;
#X connect 30 0 31 0;
#X connect 32 0 33 0;
#X connect 33 0 34 0;
#X connect 34 0 28 5;
#X connect 36 0 37 1;
#X connect 37 0 38 0;
#X connect 38 0 65 0;
#X connect 38 1 39 0;
#X connect 39 0 65 1;
#X connect 40 0 65 2;
#X connect 41 0 7 0;
#X connect 43 0 41 0;
#X connect 44 0 35 0;
#X connect 45 0 28 0;
#X connect 46 0 28 1;
#X connect 47 0 28 3;
#X connect 48 0 28 2;
#X connect 49 0 45 1;
#X connect 49 1 46 0;
#X connect 49 2 46 1;
#X connect 49 3 48 0;
#X connect 49 4 48 1;
#X connect 49 5 47 0;
#X connect 49 6 47 1;
#X connect 50 0 49 0;
#X connect 51 0 52 0;
#X connect 52 0 3 0;
#X connect 52 1 10 0;
#X connect 52 2 37 0;
#X connect 52 3 24 0;
#X connect 52 4 29 0;
#X connect 53 0 54 0;
#X connect 54 0 55 0;
#X connect 55 0 28 13;
#X connect 55 0 28 9;
#X connect 56 0 65 3;
#X connect 57 0 65 4;
#X connect 58 0 61 0;
#X connect 59 0 60 0;
#X connect 60 0 61 0;
#X connect 60 1 61 1;
#X connect 61 0 65 5;
#X connect 62 0 64 0;
#X connect 63 0 66 0;
#X connect 64 0 63 0;
#X connect 65 0 44 0;
#X connect 66 0 65 6;
#X connect 67 0 68 0;
#X connect 68 0 28 6;
#X connect 68 1 28 7;
#X connect 68 2 28 8;
#X connect 69 0 28 10;
#X connect 69 1 28 11;
#X connect 69 2 28 12;
#X connect 70 0 69 0;
#X restore 1201 463 pd mmp-export-hfader_as_LCD;
#X obj 365 793 outlet;
#X obj 142 134 r \$0-mode;
#X msg 136 171 steady \$1;
#X obj 88 400 list prepend 1;
#X obj 92 433 route 1 0;
#N canvas 721 377 1198 586 gui_feedback 0;
#X msg 88 180 set \$1;
#X obj 86 78 max 10;
#X obj 86 107 s \$0-w;
#X obj 92 154 r \$0-w;
#X obj 86 49 r \$0-w-snd;
#X obj 90 207 s \$0-w-rcv;
#X msg 253 181 set \$1;
#X obj 251 50 r \$0-bc-snd;
#X obj 255 208 s \$0-bc-rcv;
#X obj 257 155 r \$0-back_color;
#X obj 251 108 s \$0-back_color;
#X msg 446 182 set \$1;
#X obj 444 51 r \$0-fc-snd;
#X obj 444 109 s \$0-front_color;
#X obj 450 156 r \$0-front_color;
#X obj 448 209 s \$0-fc-rcv;
#X msg 656 182 set \$1;
#X obj 654 51 r \$0-cc-snd;
#X obj 654 109 s \$0-cursor_color;
#X obj 660 156 r \$0-cursor_color;
#X obj 658 209 s \$0-cc-rcv;
#X msg 58 380 set \$1;
#X obj 56 278 max 10;
#X obj 56 249 r \$0-h-snd;
#X obj 56 307 s \$0-h;
#X obj 62 354 r \$0-h;
#X obj 60 407 s \$0-h-rcv;
#X obj 489 290 r \$0-back_color;
#X obj 202 248 r \$0-front_color;
#X msg 690 300 set \$1;
#X obj 668 329 s \$0-spdrt-rcv;
#X obj 670 276 r \$0-spdrt;
#X msg 494 330 color \$1 \$1 \$1;
#X obj 494 359 s \$0-slider;
#X obj 200 421 s \$0-cnv;
#X msg 194 372 color \$1 -1;
#X msg 835 292 set \$1;
#X msg 819 385 set \$1;
#X obj 839 266 r \$0-min;
#X obj 837 319 s \$0-min-rcv;
#X obj 823 359 r \$0-max;
#X obj 821 412 s \$0-max-rcv;
#X msg 876 111 set \$1;
#X obj 880 85 r \$0-mode;
#X obj 878 138 s \$0-mode-rcv;
#X msg 1008 196 set \$1;
#X obj 1008 167 r \$0-z_offset;
#X obj 1007 253 s \$0-z_offset-rcv;
#X msg 992 331 set \$1;
#X obj 992 302 r \$0-invisible;
#X obj 991 388 s \$0-invisible-rcv;
#X obj 258 281 r \$0-label_color;
#X obj 199 346 pack f f;
#X obj 216 313 t b f;
#N canvas 0 50 684 586 \$0-name 0;
#X obj 231 16 r \$0-name;
#X msg 312 180 set \$1;
#X obj 352 224 s \$0-name-rcv;
#X obj 32 238 list append \$1;
#X obj 32 267 select 0;
#X obj 110 426 s \$0-name;
#X obj 32 86 loadbang;
#X msg 228 97 label \$1-rcv;
#X obj 224 144 s \$0-receive_name-rcv;
#X obj 472 161 iemguts/canvasargs 2;
#X obj 32 162 spigot 1;
#X msg 114 126 0;
#X obj 109 346 symbol;
#X obj 483 118 list;
#X obj 221 45 t b s s s;
#X obj 32 325 + 1;
#X obj 32 354 t f f;
#X text 253 288 \$1 argument defines default \$0-name;
#X obj 32 296 v mob.UNTITLED_WIDGET;
#X msg 33 389 symbol Untitled_\$1;
#X connect 0 0 14 0;
#X connect 1 0 2 0;
#X connect 3 0 4 0;
#X connect 4 0 18 0;
#X connect 4 1 12 0;
#X connect 6 0 10 0;
#X connect 7 0 8 0;
#X connect 10 0 3 0;
#X connect 11 0 10 1;
#X connect 12 0 5 0;
#X connect 13 0 9 0;
#X connect 14 0 11 0;
#X connect 14 1 7 0;
#X connect 14 2 1 0;
#X connect 14 3 13 0;
#X connect 15 0 16 0;
#X connect 16 0 19 0;
#X connect 16 1 18 0;
#X connect 18 0 15 0;
#X connect 19 0 5 0;
#X restore 477 448 pd \$0-name;
#X connect 0 0 5 0;
#X connect 1 0 2 0;
#X connect 3 0 0 0;
#X connect 4 0 1 0;
#X connect 6 0 8 0;
#X connect 7 0 10 0;
#X connect 9 0 6 0;
#X connect 11 0 15 0;
#X connect 12 0 13 0;
#X connect 14 0 11 0;
#X connect 16 0 20 0;
#X connect 17 0 18 0;
#X connect 19 0 16 0;
#X connect 21 0 26 0;
#X connect 22 0 24 0;
#X connect 23 0 22 0;
#X connect 25 0 21 0;
#X connect 27 0 32 0;
#X connect 28 0 52 0;
#X connect 29 0 30 0;
#X connect 31 0 29 0;
#X connect 32 0 33 0;
#X connect 35 0 34 0;
#X connect 36 0 39 0;
#X connect 37 0 41 0;
#X connect 38 0 36 0;
#X connect 40 0 37 0;
#X connect 42 0 44 0;
#X connect 43 0 42 0;
#X connect 45 0 47 0;
#X connect 46 0 45 0;
#X connect 48 0 50 0;
#X connect 49 0 48 0;
#X connect 51 0 53 0;
#X connect 52 0 35 0;
#X connect 53 0 52 0;
#X connect 53 1 52 1;
#X restore 1115 337 pd gui_feedback;
#X connect 1 0 41 0;
#X connect 2 0 43 1;
#X connect 2 1 51 0;
#X connect 3 0 4 0;
#X connect 4 0 5 1;
#X connect 5 0 6 0;
#X connect 6 0 74 0;
#X connect 6 1 16 0;
#X connect 9 0 40 0;
#X connect 10 0 65 0;
#X connect 10 1 9 1;
#X connect 11 0 69 0;
#X connect 12 0 47 0;
#X connect 13 0 48 0;
#X connect 14 0 36 0;
#X connect 15 0 12 0;
#X connect 17 0 18 0;
#X connect 17 1 24 0;
#X connect 18 0 23 0;
#X connect 18 1 43 0;
#X connect 19 0 20 0;
#X connect 19 1 25 0;
#X connect 20 0 21 0;
#X connect 22 0 46 0;
#X connect 23 0 27 0;
#X connect 24 0 19 0;
#X connect 25 0 43 0;
#X connect 26 0 43 0;
#X connect 27 0 20 0;
#X connect 27 1 26 0;
#X connect 29 0 30 0;
#X connect 30 0 28 0;
#X connect 31 0 28 0;
#X connect 32 0 66 0;
#X connect 33 0 32 0;
#X connect 34 0 35 0;
#X connect 35 0 66 0;
#X connect 36 0 15 0;
#X connect 36 1 15 1;
#X connect 37 0 65 0;
#X connect 37 1 22 1;
#X connect 38 0 28 0;
#X connect 39 0 37 0;
#X connect 40 0 50 0;
#X connect 40 1 22 0;
#X connect 41 0 57 0;
#X connect 41 1 58 0;
#X connect 41 2 29 0;
#X connect 41 3 42 0;
#X connect 41 4 7 0;
#X connect 42 0 32 0;
#X connect 43 0 59 0;
#X connect 43 0 69 0;
#X connect 44 0 10 0;
#X connect 45 0 39 0;
#X connect 46 0 0 0;
#X connect 47 0 5 0;
#X connect 48 0 15 0;
#X connect 50 0 0 0;
#X connect 51 0 63 0;
#X connect 52 0 0 0;
#X connect 53 0 0 0;
#X connect 54 0 41 0;
#X connect 55 0 56 0;
#X connect 56 0 54 0;
#X connect 57 0 68 0;
#X connect 58 0 2 0;
#X connect 59 0 60 0;
#X connect 59 0 71 0;
#X connect 61 0 62 0;
#X connect 62 0 60 1;
#X connect 63 0 64 0;
#X connect 64 0 65 0;
#X connect 65 0 9 0;
#X connect 68 0 43 1;
#X connect 68 1 69 0;
#X connect 68 2 59 0;
#X connect 69 0 51 0;
#X connect 72 0 73 0;
#X connect 72 0 74 1;
#X connect 73 0 47 0;
#X connect 74 0 75 0;
#X connect 75 0 17 0;
#X connect 75 1 68 0;
#X coords 0 -1 1 1 127 15 2 100 100;
