#N canvas -31 622 1920 1023 16;
#X obj 805 718 s \$0-cnv;
#X obj 574 50 inlet;
#X obj 599 504 outlet;
#X obj 869 -11 loadbang;
#X obj 866 26 f \$1;
#X obj 655 144 t f f;
#X obj 281 365 iemguts/receivecanvas 1;
#X obj 281 388 route editmode;
#X obj 97 434 list prepend 0;
#X obj 97 463 route 0 1;
#N canvas 758 58 1326 562 savestate 0;
#X obj 237 276 savestate;
#X obj 349 320 s \$0-save;
#X obj 222 107 v \$0-w;
#X obj 237 305 list trim;
#X obj 269 32 r \$0-save;
#X obj 312 107 v \$0-h;
#X obj 240 414 unpack f f;
#X obj 220 156 pack f f;
#X obj 243 230 list;
#X obj 227 459 s \$0-w;
#X obj 329 454 s \$0-h;
#X msg 220 185 -size \$1 \$2;
#X obj 19 32 loadbang;
#X obj 19 106 spigot 1;
#X msg 88 76 0;
#X obj 395 105 v \$0-back_color;
#X obj 561 103 v \$0-cursor_color;
#X obj 749 99 v \$0-front_color;
#X msg 395 134 -back_color \$1;
#X msg 565 134 -cursor_color \$1;
#X msg 735 134 -front_color \$1;
#X obj 419 449 s \$0-back_color;
#X obj 726 476 s \$0-cursor_color;
#X obj 590 437 s \$0-front_color;
#X obj 935 103 v \$0-spdrt;
#X msg 935 132 -speed_ratio \$1;
#X obj 822 431 s \$0-spdrt;
#X obj 74 148 inlet;
#X obj 74 177 list split 1;
#X msg 74 206 -\$1;
#X obj 74 235 list append;
#X msg 100 349 -size 127 15 \, -back_color 10 \, -front_color 11 \,
-speed_ratio 100 \, -name myslider;
#X obj 240 385 route -size -back_color -front_color -cursor_color -speed_ratio
-name, f 76;
#X obj 960 455 s \$0-name;
#X obj 1046 75 symbol;
#X obj 1098 40 r \$0-name;
#X msg 1022 192 -name \$1;
#X obj 269 61 t b b b b b b b;
#X obj 962 422 symbol;
#X connect 0 0 3 0;
#X connect 0 0 14 0;
#X connect 0 1 1 0;
#X connect 2 0 7 0;
#X connect 3 0 32 0;
#X connect 4 0 37 0;
#X connect 5 0 7 1;
#X connect 6 0 9 0;
#X connect 6 1 10 0;
#X connect 7 0 11 0;
#X connect 8 0 0 0;
#X connect 11 0 8 0;
#X connect 12 0 13 0;
#X connect 13 0 31 0;
#X connect 14 0 13 1;
#X connect 15 0 18 0;
#X connect 16 0 19 0;
#X connect 17 0 20 0;
#X connect 18 0 8 0;
#X connect 19 0 8 0;
#X connect 20 0 8 0;
#X connect 24 0 25 0;
#X connect 25 0 8 0;
#X connect 27 0 28 0;
#X connect 28 0 29 0;
#X connect 28 1 30 1;
#X connect 29 0 30 0;
#X connect 30 0 3 0;
#X connect 31 0 32 0;
#X connect 32 0 6 0;
#X connect 32 1 21 0;
#X connect 32 2 23 0;
#X connect 32 3 22 0;
#X connect 32 4 26 0;
#X connect 32 5 38 0;
#X connect 34 0 36 0;
#X connect 35 0 34 1;
#X connect 36 0 8 0;
#X connect 37 0 2 0;
#X connect 37 1 5 0;
#X connect 37 2 15 0;
#X connect 37 3 16 0;
#X connect 37 4 17 0;
#X connect 37 5 24 0;
#X connect 37 6 34 0;
#X connect 38 0 33 0;
#X restore 1513 79 pd savestate;
#X obj 1514 31 namecanvas \$0-this;
#X obj 741 522 *;
#X obj 906 422 t b f;
#X msg 812 189 0;
#X msg 107 61 size \$1 \$2;
#X obj 104 -7 r \$0-w;
#X obj 201 -4 r \$0-h;
#X obj 107 32 pack f f;
#X obj 789 463 f 1;
#N canvas 0 50 1005 538 resize 0;
#X obj 51 17 inlet;
#X msg -74 585 dirty 1;
#X obj 157 237 spigot;
#X msg 109 186 1;
#X msg 78 247 0;
#X obj 307 211 t l b;
#X obj 110 479 -;
#X obj 247 472 -;
#X obj 167 512 r \$0-w;
#X obj 298 515 r \$0-h;
#X obj 153 551 +;
#X obj 152 591 s \$0-w;
#X obj 247 546 +;
#X obj 254 586 s \$0-h;
#X obj 57 106 spigot 1;
#X obj 57 135 t b b;
#X msg 129 73 0;
#X msg 79 281 1;
#X obj 154 322 unpack f f f;
#X obj 156 271 route mouseup motion;
#X obj 108 360 t f f b f;
#X obj 229 357 t f f b f;
#X obj 289 433 spigot 1;
#X msg 367 397 0;
#X obj 143 441 spigot 1;
#X msg 212 405 0;
#X obj 235 85 iemguts/receivecanvas 2;
#X obj -71 611 iemguts/sendcanvas 2;
#X obj 699 92 r \$0-w;
#X obj 785 106 r \$0-h;
#X obj 699 229 pack f f;
#X obj 601 310 t b a;
#X msg 559 346 dirty 0;
#X obj 555 384 s \$0-this;
#X msg 546 156 120 254;
#X msg 483 279 donecanvasdialog 1 -1 3 0 -1 1 1 \$1 \$2 100 100;
#X text 673 383 the parent canvas;
#X obj 714 163 t b f;
#X connect 0 0 14 0;
#X connect 1 0 27 0;
#X connect 2 0 19 0;
#X connect 3 0 2 1;
#X connect 4 0 2 1;
#X connect 6 0 10 0;
#X connect 7 0 12 0;
#X connect 8 0 10 1;
#X connect 9 0 12 1;
#X connect 10 0 11 0;
#X connect 12 0 13 0;
#X connect 14 0 15 0;
#X connect 15 0 3 0;
#X connect 15 1 16 0;
#X connect 15 1 1 0;
#X connect 16 0 14 1;
#X connect 17 0 14 1;
#X connect 17 0 24 1;
#X connect 17 0 22 1;
#X connect 18 0 20 0;
#X connect 18 1 21 0;
#X connect 19 0 4 0;
#X connect 19 0 17 0;
#X connect 19 1 18 0;
#X connect 20 0 6 1;
#X connect 20 1 6 0;
#X connect 20 2 25 0;
#X connect 20 3 24 0;
#X connect 21 0 7 1;
#X connect 21 1 7 0;
#X connect 21 2 23 0;
#X connect 21 3 22 0;
#X connect 22 0 7 1;
#X connect 23 0 22 1;
#X connect 24 0 6 1;
#X connect 25 0 24 1;
#X connect 26 0 2 0;
#X connect 28 0 30 0;
#X connect 29 0 37 0;
#X connect 30 0 35 0;
#X connect 31 0 32 0;
#X connect 31 1 33 0;
#X connect 32 0 33 0;
#X connect 34 0 35 0;
#X connect 35 0 31 0;
#X connect 37 0 30 0;
#X connect 37 1 30 1;
#X restore 141 505 pd resize;
#X obj 88 544 moses 117;
#X obj 88 573 moses 10;
#X obj 205 706 t f f;
#X msg 92 835 set \$1;
#X obj 101 878 s \$0-slider;
#X obj 804 648 list prepend 30;
#X obj 83 615 + 107;
#X obj 206 613 - 107;
#X msg 239 782 \$1 -107;
#X msg 123 737 \$1 107;
#X obj 69 665 t f f;
#X obj 344 111 s \$0-cnv;
#X obj 347 49 symbol;
#X msg 344 85 label \$1;
#X msg 440 17 label;
#N canvas 721 377 1198 586 gui_properties 0;
#X msg 88 180 set \$1;
#X obj 86 78 max 10;
#X obj 86 107 s \$0-w;
#X obj 92 154 r \$0-w;
#X obj 86 49 r \$0-w-snd;
#X obj 90 207 s \$0-w-rcv;
#X msg 253 181 set \$1;
#X obj 251 50 r \$0-bc-snd;
#X obj 255 208 s \$0-bc-rcv;
#X obj 257 155 r \$0-back_color;
#X obj 251 108 s \$0-back_color;
#X msg 446 182 set \$1;
#X obj 444 51 r \$0-fc-snd;
#X obj 444 109 s \$0-front_color;
#X obj 450 156 r \$0-front_color;
#X obj 448 209 s \$0-fc-rcv;
#X msg 656 182 set \$1;
#X obj 654 51 r \$0-cc-snd;
#X obj 654 109 s \$0-cursor_color;
#X obj 660 156 r \$0-cursor_color;
#X obj 658 209 s \$0-cc-rcv;
#X msg 58 380 set \$1;
#X obj 56 278 max 10;
#X obj 56 249 r \$0-h-snd;
#X obj 56 307 s \$0-h;
#X obj 62 354 r \$0-h;
#X obj 60 407 s \$0-h-rcv;
#X obj 489 290 r \$0-back_color;
#X obj 272 290 r \$0-front_color;
#X msg 666 302 set \$1;
#X obj 668 329 s \$0-spdrt-rcv;
#X obj 670 276 r \$0-spdrt;
#X msg 494 330 color \$1 \$1 \$1;
#X obj 494 359 s \$0-slider;
#X obj 279 371 s \$0-cnv;
#X msg 273 326 color \$1 -1;
#X obj 385 404 r \$0-name;
#X msg 385 433 set \$1;
#X obj 384 490 s \$0-name-rcv;
#X connect 0 0 5 0;
#X connect 1 0 2 0;
#X connect 3 0 0 0;
#X connect 4 0 1 0;
#X connect 6 0 8 0;
#X connect 7 0 10 0;
#X connect 9 0 6 0;
#X connect 11 0 15 0;
#X connect 12 0 13 0;
#X connect 14 0 11 0;
#X connect 16 0 20 0;
#X connect 17 0 18 0;
#X connect 19 0 16 0;
#X connect 21 0 26 0;
#X connect 22 0 24 0;
#X connect 23 0 22 0;
#X connect 25 0 21 0;
#X connect 27 0 32 0;
#X connect 28 0 35 0;
#X connect 29 0 30 0;
#X connect 31 0 29 0;
#X connect 32 0 33 0;
#X connect 35 0 34 0;
#X connect 36 0 37 0;
#X connect 37 0 38 0;
#X restore 1115 337 pd gui_properties;
#X msg 1121 198 vis 1;
#X obj 1125 160 iemguts/propertybang;
#X obj 1207 199 r \$0-ok;
#X msg 1207 228 vis 0;
#X obj 248 56 t b f;
#X obj 996 468 t b f;
#X msg 517 17 label du;
#X obj 996 439 - 2;
#X obj 741 560 moses 1e-08;
#X obj 553 88 route float set label properties;
#X obj 1032 147 t b;
#N canvas 957 152 850 636 multitouch.listener3 0;
#X obj 518 413 v MULTITOUCH.SLOT.ID;
#X msg 594 553 symbol \$1-slot;
#X obj 521 463 select 0;
#X obj 569 676 s;
#X obj 196 396 unpack f f;
#X msg 565 627 send_to \$1;
#X obj 193 673 +;
#X obj 626 66 inlet;
#X obj 513 305 spigot 1;
#X msg 592 275 0;
#X obj 237 220 route list no_mouse remove;
#X obj 565 600 list append \$0-from_slot;
#X obj 242 166 r \$0-from_slot;
#X msg 413 261 1;
#X obj 589 507 t b f b;
#X obj 513 367 t b;
#X obj 673 309 -;
#X obj 193 838 outlet;
#X obj 791 421 == 0;
#X obj 715 469 spigot 1;
#X obj 195 332 spigot;
#X obj 918 106 inlet set;
#X obj 193 702 min 127;
#X obj 193 731 max 0;
#X obj 191 773 t f f f;
#X text 434 550 register callback, f 9;
#X obj 647 268 t f f;
#X obj 599 104 route float list;
#X obj 645 170 unpack f f;
#X obj 714 348 -;
#X msg 599 133 \$1 0;
#X obj 193 512 / 127;
#X text 207 138 callback;
#X obj 600 231 t b f;
#X obj 255 545 r ZOOM;
#X obj 193 573 / 1;
#X text 337 667 speed_ratio(%);
#X obj 338 614 r \$0-spdrt;
#X obj 281 476 r \$0-w;
#X obj 193 544 * 127;
#X obj 193 624 * 0.5;
#X obj 338 642 / 100;
#X connect 0 0 2 0;
#X connect 1 0 3 1;
#X connect 2 1 14 0;
#X connect 4 0 31 0;
#X connect 5 0 3 0;
#X connect 6 0 22 0;
#X connect 7 0 27 0;
#X connect 8 0 15 0;
#X connect 9 0 8 1;
#X connect 9 0 0 0;
#X connect 10 0 20 0;
#X connect 10 1 18 0;
#X connect 10 1 20 1;
#X connect 10 2 13 0;
#X connect 11 0 5 0;
#X connect 12 0 10 0;
#X connect 13 0 8 1;
#X connect 14 0 11 0;
#X connect 14 1 1 0;
#X connect 14 2 9 0;
#X connect 15 0 0 0;
#X connect 16 0 29 0;
#X connect 18 0 19 1;
#X connect 19 0 40 0;
#X connect 20 0 4 0;
#X connect 21 0 6 1;
#X connect 22 0 23 0;
#X connect 23 0 24 0;
#X connect 24 0 17 0;
#X connect 24 1 6 1;
#X connect 26 0 16 1;
#X connect 26 1 16 0;
#X connect 27 0 30 0;
#X connect 27 1 28 0;
#X connect 28 0 33 0;
#X connect 28 1 29 1;
#X connect 29 0 19 0;
#X connect 30 0 28 0;
#X connect 31 0 39 0;
#X connect 33 0 8 0;
#X connect 33 1 26 0;
#X connect 34 0 35 1;
#X connect 35 0 40 0;
#X connect 37 0 41 0;
#X connect 38 0 31 1;
#X connect 39 0 35 0;
#X connect 40 0 6 0;
#X connect 41 0 40 1;
#X restore 322 178 pd multitouch.listener3;
#X obj 906 393 r \$0-w;
#X obj 996 413 r \$0-h;
#X msg 805 689 vis_size \$2 \$1;
#X obj 104 100 hsl 203 54 0 127 0 0 empty \$0-slider empty -2 -8 0
10 -228847 -228847 -228847 17219 1;
#X obj 54 12 - 6;
#X obj 101 101 cnv 1 56 52 empty \$0-cnv empty 2 6 0 10 -149797 -66577
0;
#X msg 587 648 vis_size 1 1;
#X obj 663 266 t f f;
#X obj 748 314 / 127;
#X msg 1057 688 size 10 10;
#X msg 1065 725 size 1 1;
#N canvas 755 365 1049 621 mmp-export-hfader 0;
#X obj 47 16 r MMP_EXPORT;
#X obj 232 10 r \$0-x;
#X obj 312 32 r \$0-y;
#X obj 257 88 f;
#X obj 548 51 r \$0-name;
#X obj 447 78 r \$0-range;
#X obj 716 65 r \$0-r;
#X obj 716 85 r \$0-g;
#X obj 716 105 r \$0-b;
#X obj 716 125 r \$0-a;
#X obj 890 69 r \$0-hr;
#X obj 890 89 r \$0-hg;
#X obj 890 109 r \$0-hb;
#X obj 890 129 r \$0-ha;
#X obj 48 318 list;
#X obj 52 349 list fromsymbol;
#X obj 52 371 list split 1;
#X obj 103 392 list;
#X obj 45 410 select 37;
#X obj 36 491 list append;
#X obj 36 520 list;
#X obj 10 551 list append;
#X obj 315 503 list append 125;
#X obj 315 481 list prepend add 123;
#X obj 328 545 list trim;
#X msg 32 458 44;
#X obj 328 567 s MMP_BINFILE;
#X obj 193 135 v MMP_FIRST_GUI_ITEM;
#X obj 193 170 select 1;
#X msg 434 410 add 44 123;
#X msg 338 409 add 123;
#X msg 195 209 0;
#X obj 194 247 v MMP_FIRST_GUI_ITEM;
#X floatatom 256 54 5 0 0 0 - - -;
#X floatatom 312 54 5 0 0 0 - - -;
#X floatatom 379 50 5 0 0 0 - - -;
#X floatatom 458 54 5 0 0 0 - - -;
#X symbolatom 548 73 10 0 0 0 - - -;
#X text 795 202 % remplace virgule;
#X floatatom 447 100 5 0 0 0 - - -;
#X obj 386 18 r \$0-w;
#X obj 458 32 r \$0-h;
#X obj 653 21 r \$0-back_color;
#X obj 830 17 r \$0-front_color;
#X obj 681 366 + 1;
#X obj 681 395 * -1;
#X obj 694 429 t f f f;
#X obj 605 463 / 65536;
#X obj 723 464 / 256;
#X obj 807 467 mod 256;
#X obj 723 493 mod 256;
#X obj 605 492 int;
#X obj 605 521 / 255;
#X obj 723 522 / 255;
#X obj 807 496 / 255;
#X obj 600 553 s \$0-r;
#X obj 724 555 s \$0-g;
#X obj 814 553 s \$0-b;
#X obj 991 364 + 1;
#X obj 991 393 * -1;
#X obj 1004 427 t f f f;
#X obj 915 461 / 65536;
#X obj 1033 462 / 256;
#X obj 1117 465 mod 256;
#X obj 1033 491 mod 256;
#X obj 915 490 int;
#X obj 915 519 / 255;
#X obj 1033 520 / 255;
#X obj 1117 494 / 255;
#X obj 910 551 s \$0-hr;
#X obj 1034 553 s \$0-hg;
#X obj 1124 551 s \$0-hb;
#X obj 242 355 iemguts/canvasposition 1;
#X obj 109 92 t b b b b b;
#X obj 240 448 s \$0-y;
#X obj 207 412 s \$0-x;
#X obj 242 384 unpack f f;
#X obj 429 218 pack f f f f 1 s f f f 1 f f f 1;
#X msg 430 252 "highlightColor":[\$11%\$12%\$13%\$14]%"address":"\$6"%"color":[\$7%\$8%\$9%\$10]%"class":"MMPSlider"%"isHorizontal":true%"frame":[\$1%\$2%\$3%\$4]%"range":\$5
;
#X connect 0 0 73 0;
#X connect 1 0 3 1;
#X connect 1 0 33 0;
#X connect 2 0 34 0;
#X connect 2 0 77 1;
#X connect 3 0 77 0;
#X connect 4 0 37 0;
#X connect 4 0 77 5;
#X connect 5 0 39 0;
#X connect 5 0 77 4;
#X connect 6 0 77 6;
#X connect 7 0 77 7;
#X connect 8 0 77 8;
#X connect 9 0 77 9;
#X connect 10 0 77 10;
#X connect 11 0 77 11;
#X connect 12 0 77 12;
#X connect 13 0 77 13;
#X connect 14 0 15 0;
#X connect 15 0 16 0;
#X connect 16 0 18 0;
#X connect 16 1 17 0;
#X connect 17 0 16 0;
#X connect 18 0 25 0;
#X connect 18 1 19 0;
#X connect 19 0 20 0;
#X connect 20 0 19 1;
#X connect 20 0 21 1;
#X connect 21 0 23 0;
#X connect 22 0 24 0;
#X connect 23 0 22 0;
#X connect 24 0 26 0;
#X connect 25 0 19 0;
#X connect 27 0 28 0;
#X connect 28 0 30 0;
#X connect 28 0 31 0;
#X connect 28 1 29 0;
#X connect 29 0 23 1;
#X connect 30 0 23 1;
#X connect 31 0 32 0;
#X connect 40 0 35 0;
#X connect 40 0 77 2;
#X connect 41 0 36 0;
#X connect 41 0 77 3;
#X connect 42 0 44 0;
#X connect 43 0 58 0;
#X connect 44 0 45 0;
#X connect 45 0 46 0;
#X connect 46 0 47 0;
#X connect 46 1 48 0;
#X connect 46 2 49 0;
#X connect 47 0 51 0;
#X connect 48 0 50 0;
#X connect 49 0 54 0;
#X connect 50 0 53 0;
#X connect 51 0 52 0;
#X connect 52 0 55 0;
#X connect 53 0 56 0;
#X connect 54 0 57 0;
#X connect 58 0 59 0;
#X connect 59 0 60 0;
#X connect 60 0 61 0;
#X connect 60 1 62 0;
#X connect 60 2 63 0;
#X connect 61 0 65 0;
#X connect 62 0 64 0;
#X connect 63 0 68 0;
#X connect 64 0 67 0;
#X connect 65 0 66 0;
#X connect 66 0 69 0;
#X connect 67 0 70 0;
#X connect 68 0 71 0;
#X connect 72 0 76 0;
#X connect 73 0 21 0;
#X connect 73 1 3 0;
#X connect 73 2 19 1;
#X connect 73 3 27 0;
#X connect 73 4 72 0;
#X connect 76 0 75 0;
#X connect 76 1 74 0;
#X connect 77 0 78 0;
#X connect 78 0 14 0;
#X restore 1112 412 pd mmp-export-hfader;
#N canvas 801 316 496 486 mmp.hslider_properties(\$0) 0;
#X floatatom 134 25 5 0 0 0 width #0-w-rcv #0-w-snd;
#X floatatom 136 88 8 0 0 0 back_color #0-bc-rcv #0-bc-snd;
#X floatatom 136 118 8 0 0 0 front_color #0-fc-rcv #0-fc-snd;
#N canvas 0 50 450 300 (subpatch) 0;
#X obj 100 100 cnv 20 20 20 empty \$0-bc_cnv-rcv empty 20 12 0 14 -228847
-66577 0;
#X obj 170 75 r \$0-back_color;
#X msg 170 104 color \$1 \$1;
#X obj 170 132 s \$0-bc_cnv-rcv;
#X connect 1 0 2 0;
#X connect 2 0 3 0;
#X coords 0 -1 1 1 20 20 2 100 100;
#X restore 258 94 pd;
#N canvas 0 50 450 300 (subpatch) 0;
#X obj 100 100 cnv 20 20 20 empty \$0-fc_cnv-rcv empty 20 12 0 14 -149797
-66577 0;
#X msg 170 104 color \$1 \$1;
#X obj 170 75 r \$0-front_color;
#X obj 170 132 s \$0-fc_cnv-rcv;
#X connect 1 0 3 0;
#X connect 2 0 1 0;
#X coords 0 -1 1 1 20 20 2 100 100;
#X restore 258 123 pd;
#X obj 319 145 bng 40 250 50 0 \$0-ok empty OK 5 20 0 20 -204786 -1
-1;
#X floatatom 134 51 5 0 0 0 height #0-h-rcv #0-h-snd;
#N canvas 0 50 450 300 (subpatch) 0;
#X obj 100 100 cnv 20 20 20 empty \$0-cc_cnv-rcv empty 20 12 0 14 -262144
-66577 0;
#X msg 170 104 color \$1 \$1;
#X obj 170 75 r \$0-cursor_color;
#X obj 170 132 s \$0-cc_cnv-rcv;
#X connect 1 0 3 0;
#X connect 2 0 1 0;
#X coords 0 -1 1 1 20 20 2 100 100;
#X restore 259 166 pd;
#X obj 188 165 nbx 3 20 10 200 1 0 \$0-spdrt \$0-spdrt-rcv speed_ratio(%)
-140 10 0 16 -262144 -1 -1 100 256;
#X obj 83 284 cnv 15 200 80 empty empty TODO 20 12 0 14 -262130 -66577
0;
#X floatatom 189 304 5 0 0 0 text_color #0-cc-rcv #0-cc-snd;
#N canvas 0 50 450 300 (subpatch) 0;
#X obj 100 100 cnv 20 20 20 empty \$0-cc_cnv-rcv empty 20 12 0 14 -262144
-66577 0;
#X msg 170 104 color \$1 \$1;
#X obj 170 75 r \$0-cursor_color;
#X obj 170 132 s \$0-cc_cnv-rcv;
#X connect 1 0 3 0;
#X connect 2 0 1 0;
#X coords 0 -1 1 1 20 20 2 100 100;
#X restore 259 306 pd;
#X floatatom 189 334 5 0 0 0 text_size - -;
#N canvas 0 50 550 616 pick 0;
#X obj 13 10 hsl 128 12 0 255 0 0 \$0-r \$0-r-i empty -2 -8 0 10 -228856
-258113 -1 0 0;
#X obj 13 22 hsl 128 12 0 255 0 0 \$0-g \$0-g-i empty -2 -8 0 10 -228856
-4034 -1 0 0;
#X obj 13 34 hsl 128 12 0 255 0 0 \$0-b \$0-b-i empty -2 -8 0 10 -228856
-4160 -1 0 0;
#X obj 24 50 cnv 34 34 34 empty \$0-color-cnv empty 20 12 0 14 -174672
-262144 0;
#X msg 21 309 color \$1;
#X obj 85 179 t b f;
#X obj 167 179 t b f;
#X obj 144 10 nbx 3 12 0 255 0 0 \$0-r-i \$0-r1-i empty 0 -8 0 8 -261234
-1 -1 0 256;
#X obj 144 22 nbx 3 12 0 255 0 0 \$0-g-i \$0-g1-i empty 0 -8 0 8 -204786
-1 -1 0 256;
#X obj 144 34 nbx 3 12 0 255 0 0 \$0-b-i \$0-b1-i empty 0 -8 0 8 -203904
-1 -1 0 256;
#X msg 21 139 set \$1;
#X obj 21 159 s \$0-r1-i;
#X msg 95 139 set \$1;
#X obj 95 159 s \$0-g1-i;
#X msg 177 139 set \$1;
#X obj 177 159 s \$0-b1-i;
#X obj 85 49 vradio 12 1 0 3 \$0-lab \$0-lab-i empty 0 -8 0 10 -228856
-1 -1 0;
#X obj 72 50 cnv 10 10 10 empty \$0-cnv-back empty 20 12 0 14 -174672
-262144 0;
#X obj 72 62 cnv 10 10 10 empty \$0-cnv-front empty 20 12 0 14 -53944
-262144 0;
#X obj 72 74 cnv 10 10 10 empty \$0-cnv-label empty 20 12 0 14 -100437
-262144 0;
#X obj 167 119 i;
#X obj 85 119 i;
#X obj 10 99 i;
#X obj 11 284 expr ($f1*(-65536)+$f2*(-256)+$f3*(-1))-1;
#X obj 11 229 pack f f f;
#X obj 31 259 outlet rgb;
#N canvas 0 50 444 418 license 0;
#X text 8 47 All rights reserved.;
#X text 8 227 The names of its contributors may not be used to endorse
or promote products derived from this software without specific prior
written permission.;
#X text 8 87 Redistribution and use in source and binary forms \, with
or without modification \, are permitted provided that the following
conditions are met:;
#X text 8 127 Redistributions of source code must retain the above
copyright notice \, this list of conditions and the following disclaimer.
;
#X text 8 297 THIS SOFTWARE IS PROVIDED BY THE COPYRIGHT HOLDERS AND
CONTRIBUTORS "AS IS" AND ANY EXPRESS OR IMPLIED WARRANTIES \, INCLUDING
\, BUT NOT LIMITED TO \, THE IMPLIED WARRANTIES OF MERCHANTABILITY
AND FITNESS FOR A PARTICULAR PURPOSE ARE DISCLAIMED. IN NO EVENT SHALL
THE COPYRIGHT OWNER OR CONTRIBUTORS BE LIABLE FOR ANY DIRECT \, INDIRECT
\, INCIDENTAL \, SPECIAL \, EXEMPLARY \, OR CONSEQUENTIAL DAMAGES (INCLUDING
\, BUT NOT LIMITED TO \, PROCUREMENT OF SUBSTITUTE GOODS OR SERVICES
;
#X text 8 167 Redistributions in binary form must reproduce the above
copyright notice \, this list of conditions and the following disclaimer
in the documentation and/or other materials provided with the distribution.
;
#X text 8 7 Copyright 2010 \, João Pais;
#X text 8 27 jmmmpais@gmail.com;
#X restore 15 472 pd license;
#X obj 267 10 inlet;
#X obj 267 30 route list float;
#X obj 165 338 outlet iem-color;
#X obj 192 30 0;
#X obj 192 10 loadbang;
#X text 14 453 (C) 2010 João Pais - jmmmpais@gmail.com;
#X text 13 417 ##inserir inlet \, que separa os numeros e os converte
a rgb;
#N canvas 0 50 484 500 rgb.speicher 0;
#X obj 13 208 route back front label;
#X obj 90 89 sel 0 1 2;
#X msg 90 109 back;
#X msg 107 129 front;
#X msg 124 149 label;
#X obj 21 169 list prepend;
#X obj 21 189 list trim;
#X msg 60 312 color \$1;
#X msg 113 272 color \$1;
#X obj 113 292 s \$0-cnv-label;
#X msg 17 251 color \$1;
#X obj 16 281 s \$0-cnv-back;
#X obj 60 332 s \$0-cnv-front;
#X obj 90 69 r \$0-lab;
#X obj 21 129 inlet;
#X text 39 41 Ausgang RGB;
#X obj 311 219 route back front label;
#X obj 380 39 sel 0 1 2;
#X msg 380 79 back;
#X msg 404 119 front;
#X msg 398 159 label;
#X obj 311 179 list prepend;
#X obj 311 199 list trim;
#X obj 290 249 list;
#X obj 333 249 list;
#X obj 376 249 list;
#X obj 290 279 unpack f f f;
#X obj 380 59 t b b;
#X obj 397 99 t b b;
#X obj 414 139 t b b;
#X msg 359 419 set \$1;
#X msg 324 359 set \$1;
#X msg 290 299 set \$1;
#X obj 359 459 s \$0-b1-i;
#X obj 369 439 s \$0-b-i;
#X obj 324 399 s \$0-g1-i;
#X obj 334 379 s \$0-g-i;
#X obj 290 339 s \$0-r1-i;
#X obj 300 319 s \$0-r-i;
#X obj 380 19 r \$0-lab;
#X obj 311 139 inlet;
#X text 286 35 GUI Speicher;
#X obj 6 420 s \$0-bc-rcv;
#X obj 72 452 s \$0-fc-rcv;
#X connect 0 0 10 0;
#X connect 0 0 42 0;
#X connect 0 1 7 0;
#X connect 0 1 43 0;
#X connect 0 2 8 0;
#X connect 1 0 2 0;
#X connect 1 1 3 0;
#X connect 1 2 4 0;
#X connect 2 0 5 1;
#X connect 3 0 5 1;
#X connect 4 0 5 1;
#X connect 5 0 6 0;
#X connect 6 0 0 0;
#X connect 7 0 12 0;
#X connect 8 0 9 0;
#X connect 10 0 11 0;
#X connect 13 0 1 0;
#X connect 14 0 5 0;
#X connect 16 0 23 1;
#X connect 16 1 24 1;
#X connect 16 2 25 1;
#X connect 17 0 27 0;
#X connect 17 1 28 0;
#X connect 17 2 29 0;
#X connect 18 0 21 1;
#X connect 19 0 21 1;
#X connect 20 0 21 1;
#X connect 21 0 22 0;
#X connect 22 0 16 0;
#X connect 23 0 26 0;
#X connect 24 0 26 0;
#X connect 25 0 26 0;
#X connect 26 0 32 0;
#X connect 26 1 31 0;
#X connect 26 2 30 0;
#X connect 27 0 18 0;
#X connect 27 1 23 0;
#X connect 28 0 19 0;
#X connect 28 1 24 0;
#X connect 29 0 20 0;
#X connect 29 1 25 0;
#X connect 30 0 33 0;
#X connect 30 0 34 0;
#X connect 31 0 35 0;
#X connect 31 0 36 0;
#X connect 32 0 37 0;
#X connect 32 0 38 0;
#X connect 39 0 17 0;
#X connect 40 0 21 0;
#X restore 11 359 pd rgb.speicher;
#X obj 21 329 s \$0-color-cnv;
#X text 98 43 Bckgrnd;
#X text 98 64 Label;
#X text 99 55 Front;
#X connect 0 0 22 0;
#X connect 1 0 21 0;
#X connect 2 0 20 0;
#X connect 4 0 35 0;
#X connect 5 0 24 0;
#X connect 5 1 24 1;
#X connect 6 0 24 0;
#X connect 6 1 24 2;
#X connect 10 0 11 0;
#X connect 12 0 13 0;
#X connect 14 0 15 0;
#X connect 20 0 14 0;
#X connect 20 0 6 0;
#X connect 21 0 12 0;
#X connect 21 0 5 0;
#X connect 22 0 10 0;
#X connect 22 0 24 0;
#X connect 23 0 4 0;
#X connect 23 0 34 0;
#X connect 23 0 29 0;
#X connect 24 0 23 0;
#X connect 24 0 25 0;
#X connect 24 0 34 1;
#X connect 27 0 28 0;
#X connect 28 0 24 0;
#X connect 30 0 16 0;
#X connect 31 0 30 0;
#X coords 0 -1 1 1 164 78 1 10 10;
#X restore 213 5 pd pick;
#X symbolatom 167 216 30 0 0 0 Target #0-name-rcv #0-name;
#X restore 1116 303 pd mmp.hslider_properties(\$0);
#X obj 1114 248 s pd-mmp.hslider_properties(\$0);
#N canvas 619 119 596 505 pdr_to_mmp 0;
#X obj 121 62 r toGUI;
#X obj 267 47 r \$0-name;
#X obj 135 304 outlet;
#X obj 121 91 list split 1;
#X obj 131 129 select symbol;
#X obj 161 167 list append;
#X obj 161 196 list trim;
#X obj 141 235 route set float label;
#X obj 393 70 r fromGUI;
#X obj 393 95 list trim;
#X obj 393 120 route <empty>;
#X connect 0 0 3 0;
#X connect 1 0 4 1;
#X connect 1 0 10 1;
#X connect 3 0 4 0;
#X connect 3 1 5 1;
#X connect 4 0 5 0;
#X connect 5 0 6 0;
#X connect 6 0 7 0;
#X connect 7 0 2 0;
#X connect 7 1 2 0;
#X connect 8 0 9 0;
#X connect 9 0 10 0;
#X connect 10 0 2 0;
#X restore 974 24 pd pdr_to_mmp;
#N canvas 523 361 450 300 mmp_to_pdr 0;
#X obj 240 63 r \$0-name;
#X obj 104 78 inlet;
#X obj 123 221 s fromGUI;
#X obj 104 107 list prepend /target;
#X connect 0 0 3 1;
#X connect 1 0 3 0;
#X connect 3 0 2 0;
#X restore 590 346 pd mmp_to_pdr;
#X obj 974 53 * 127;
#X floatatom 735 10 5 0 0 0 - - -;
#X obj 592 214 / 127;
#X obj 551 139 t f f f f;
#X connect 1 0 46 0;
#X connect 3 0 4 0;
#X connect 4 0 5 0;
#X connect 5 0 48 1;
#X connect 5 1 56 0;
#X connect 6 0 7 0;
#X connect 7 0 8 1;
#X connect 8 0 9 0;
#X connect 9 0 21 0;
#X connect 9 1 20 0;
#X connect 12 0 45 0;
#X connect 13 0 19 0;
#X connect 13 1 12 1;
#X connect 14 0 56 0;
#X connect 15 0 52 0;
#X connect 16 0 53 0;
#X connect 17 0 41 0;
#X connect 18 0 15 0;
#X connect 19 0 12 0;
#X connect 21 0 22 0;
#X connect 21 1 28 0;
#X connect 22 0 27 0;
#X connect 22 1 48 0;
#X connect 23 0 24 0;
#X connect 23 1 29 0;
#X connect 24 0 25 0;
#X connect 26 0 51 0;
#X connect 27 0 31 0;
#X connect 28 0 23 0;
#X connect 29 0 48 0;
#X connect 30 0 48 0;
#X connect 31 0 24 0;
#X connect 31 1 30 0;
#X connect 33 0 34 0;
#X connect 34 0 32 0;
#X connect 35 0 32 0;
#X connect 37 0 62 0;
#X connect 38 0 37 0;
#X connect 39 0 40 0;
#X connect 40 0 62 0;
#X connect 41 0 18 0;
#X connect 41 1 18 1;
#X connect 42 0 19 0;
#X connect 42 1 26 1;
#X connect 43 0 32 0;
#X connect 44 0 42 0;
#X connect 45 0 55 0;
#X connect 45 1 26 0;
#X connect 46 0 68 0;
#X connect 46 1 5 0;
#X connect 46 2 33 0;
#X connect 46 3 47 0;
#X connect 46 4 10 0;
#X connect 47 0 37 0;
#X connect 48 0 56 0;
#X connect 48 0 67 0;
#X connect 49 0 13 0;
#X connect 50 0 44 0;
#X connect 51 0 0 0;
#X connect 52 0 8 0;
#X connect 53 0 18 0;
#X connect 55 0 0 0;
#X connect 56 0 2 0;
#X connect 56 1 57 0;
#X connect 57 0 19 0;
#X connect 58 0 0 0;
#X connect 59 0 0 0;
#X connect 63 0 65 0;
#X connect 65 0 5 0;
#X connect 66 0 5 0;
#X connect 67 0 64 0;
#X connect 68 0 2 0;
#X connect 68 1 48 1;
#X connect 68 2 56 0;
#X connect 68 3 67 0;
#X coords 0 -1 1 1 209 54 2 100 100;
