#N canvas 737 65 998 1018 16;
#X msg 436 122 get_pos;
#X obj 436 159 s \$0-pos-rcv;
#X obj 112 522 select 1 0;
#X obj 224 434 change;
#X msg 363 400 0;
#X obj 313 3 iemguts/receivecanvas 1;
#X obj 81 184 list prepend 0;
#X obj 81 215 route 0 1;
#N canvas 0 57 1920 1023 savestate 0;
#X obj 157 276 savestate;
#X obj 269 320 s \$0-save;
#X obj 142 107 v \$0-w;
#X obj 157 305 list trim;
#X obj 210 19 r \$0-save;
#X obj 155 237 list;
#X obj 158 545 s \$0-w;
#X obj 19 32 loadbang;
#X obj 19 106 spigot 1;
#X msg 88 76 0;
#X obj 742 490 s \$0-name;
#X obj 701 145 symbol;
#X obj 753 110 r \$0-name;
#X msg 621 228 -name \$1;
#X obj 744 457 symbol;
#X obj 872 126 v \$0-z_offset;
#X obj 1051 482 s \$0-z_offset;
#X obj 1060 136 v \$0-invisible;
#X obj 1219 477 s \$0-invisible;
#X msg 1050 187 -invisible \$1;
#X msg 888 165 -z_offset \$1;
#X msg 139 185 -size \$1;
#X obj 239 551 s \$0-h;
#X obj 303 105 v \$0-back_color;
#X obj 399 543 s \$0-back_color;
#N canvas 0 50 540 413 convert 0;
#X obj 167 29 inlet;
#X obj 165 86 route float list;
#X obj 243 251 * -1;
#X obj 243 119 unpack f f f, f 17;
#X obj 243 285 - 1;
#X obj 326 153 * 256;
#X obj 243 153 * 65536;
#X obj 326 187 +;
#X obj 243 217 +;
#X obj 165 338 outlet;
#X connect 0 0 1 0;
#X connect 1 0 9 0;
#X connect 1 1 3 0;
#X connect 2 0 4 0;
#X connect 3 0 6 0;
#X connect 3 1 5 0;
#X connect 3 2 7 1;
#X connect 4 0 9 0;
#X connect 5 0 7 0;
#X connect 6 0 8 0;
#X connect 7 0 8 1;
#X connect 8 0 2 0;
#X restore 399 473 pd convert;
#N canvas 0 50 498 451 convert2rgb 0;
#X obj 53 112 * -1;
#X obj 54 81 + 1;
#X obj 180 181 mod 256;
#X obj 51 179 div 256;
#X obj 52 143 t f f, f 13;
#X obj 49 210 t f f;
#X obj 48 248 div 256;
#X obj 132 250 mod 256;
#X obj 49 288 pack f f f;
#X obj 54 51 inlet;
#X obj 49 317 outlet;
#X connect 0 0 4 0;
#X connect 1 0 0 0;
#X connect 2 0 8 2;
#X connect 3 0 5 0;
#X connect 4 0 3 0;
#X connect 4 1 2 0;
#X connect 5 0 6 0;
#X connect 5 1 7 0;
#X connect 6 0 8 0;
#X connect 7 0 8 1;
#X connect 8 0 10 0;
#X connect 9 0 1 0;
#X restore 300 135 pd convert2rgb;
#X msg 289 176 -back_color \$1 \$2 \$3;
#N canvas 0 50 498 451 convert2rgb 0;
#X obj 53 112 * -1;
#X obj 54 81 + 1;
#X obj 180 181 mod 256;
#X obj 51 179 div 256;
#X obj 52 143 t f f, f 13;
#X obj 49 210 t f f;
#X obj 48 248 div 256;
#X obj 132 250 mod 256;
#X obj 49 288 pack f f f;
#X obj 54 51 inlet;
#X obj 49 317 outlet;
#X connect 0 0 4 0;
#X connect 1 0 0 0;
#X connect 2 0 8 2;
#X connect 3 0 5 0;
#X connect 4 0 3 0;
#X connect 4 1 2 0;
#X connect 5 0 6 0;
#X connect 5 1 7 0;
#X connect 6 0 8 0;
#X connect 7 0 8 1;
#X connect 8 0 10 0;
#X connect 9 0 1 0;
#X restore 496 129 pd convert2rgb;
#N canvas 0 50 540 413 convert 0;
#X obj 167 29 inlet;
#X obj 165 86 route float list;
#X obj 243 251 * -1;
#X obj 243 119 unpack f f f, f 17;
#X obj 243 285 - 1;
#X obj 326 153 * 256;
#X obj 243 153 * 65536;
#X obj 326 187 +;
#X obj 243 217 +;
#X obj 165 338 outlet;
#X connect 0 0 1 0;
#X connect 1 0 9 0;
#X connect 1 1 3 0;
#X connect 2 0 4 0;
#X connect 3 0 6 0;
#X connect 3 1 5 0;
#X connect 3 2 7 1;
#X connect 4 0 9 0;
#X connect 5 0 7 0;
#X connect 6 0 8 0;
#X connect 7 0 8 1;
#X connect 8 0 2 0;
#X restore 529 453 pd convert;
#X obj 494 102 v \$0-front_color;
#X msg 491 166 -front_color \$1 \$2 \$3;
#X obj 529 492 s \$0-front_color;
#N canvas 0 50 498 451 convert2rgb 0;
#X obj 53 112 * -1;
#X obj 54 81 + 1;
#X obj 180 181 mod 256;
#X obj 51 179 div 256;
#X obj 52 143 t f f, f 13;
#X obj 49 210 t f f;
#X obj 48 248 div 256;
#X obj 132 250 mod 256;
#X obj 49 288 pack f f f;
#X obj 54 51 inlet;
#X obj 49 317 outlet;
#X connect 0 0 4 0;
#X connect 1 0 0 0;
#X connect 2 0 8 2;
#X connect 3 0 5 0;
#X connect 4 0 3 0;
#X connect 4 1 2 0;
#X connect 5 0 6 0;
#X connect 5 1 7 0;
#X connect 6 0 8 0;
#X connect 7 0 8 1;
#X connect 8 0 10 0;
#X connect 9 0 1 0;
#X restore 1395 161 pd convert2rgb;
#X obj 1398 131 v \$0-cursor_color;
#X msg 1384 202 -cursor_color \$1 \$2 \$3;
#N canvas 0 50 540 413 convert 0;
#X obj 167 29 inlet;
#X obj 165 86 route float list;
#X obj 243 251 * -1;
#X obj 243 119 unpack f f f, f 17;
#X obj 243 285 - 1;
#X obj 326 153 * 256;
#X obj 243 153 * 65536;
#X obj 326 187 +;
#X obj 243 217 +;
#X obj 165 338 outlet;
#X connect 0 0 1 0;
#X connect 1 0 9 0;
#X connect 1 1 3 0;
#X connect 2 0 4 0;
#X connect 3 0 6 0;
#X connect 3 1 5 0;
#X connect 3 2 7 1;
#X connect 4 0 9 0;
#X connect 5 0 7 0;
#X connect 6 0 8 0;
#X connect 7 0 8 1;
#X connect 8 0 2 0;
#X restore 1540 456 pd convert;
#X obj 1540 495 s \$0-cursor_color;
#X obj 210 48 t b b b b b b b, f 85;
#X floatatom 1481 500 5 0 0 0 - - -;
#X obj 373 436 bng 15 250 50 0 empty empty empty 17 7 0 10 -262144
-1 -1;
#X obj 270 395 route -size -back_color -front_color -name -z_offset
-invisible -cursor_color, f 106;
#X msg 21 303 -size 60 \, -back_color 220 220 220 \, -front_color 200
200 200 \, -cursor_color 0 0 0, f 10;
#X connect 0 0 3 0;
#X connect 0 0 9 0;
#X connect 0 1 1 0;
#X connect 2 0 21 0;
#X connect 3 0 41 0;
#X connect 4 0 38 0;
#X connect 5 0 0 0;
#X connect 7 0 8 0;
#X connect 8 0 42 0;
#X connect 9 0 8 1;
#X connect 11 0 13 0;
#X connect 12 0 11 1;
#X connect 13 0 5 0;
#X connect 14 0 10 0;
#X connect 15 0 20 0;
#X connect 17 0 19 0;
#X connect 19 0 5 0;
#X connect 20 0 5 0;
#X connect 21 0 5 0;
#X connect 23 0 26 0;
#X connect 25 0 24 0;
#X connect 26 0 27 0;
#X connect 27 0 5 0;
#X connect 28 0 31 0;
#X connect 29 0 32 0;
#X connect 30 0 28 0;
#X connect 31 0 5 0;
#X connect 33 0 35 0;
#X connect 34 0 33 0;
#X connect 35 0 5 0;
#X connect 36 0 37 0;
#X connect 36 0 39 0;
#X connect 38 0 2 0;
#X connect 38 1 23 0;
#X connect 38 2 30 0;
#X connect 38 3 11 0;
#X connect 38 4 15 0;
#X connect 38 5 17 0;
#X connect 38 6 34 0;
#X connect 41 0 6 0;
#X connect 41 0 22 0;
#X connect 41 1 25 0;
#X connect 41 1 40 0;
#X connect 41 2 29 0;
#X connect 41 3 14 0;
#X connect 41 4 16 0;
#X connect 41 5 18 0;
#X connect 41 6 36 0;
#X connect 42 0 41 0;
#X restore 1408 282 pd savestate;
#X obj 1409 234 namecanvas \$0-this;
#X obj 52 4 r \$0-w;
#X obj 192 1 r \$0-h;
#X obj 192 30 - 6;
#N canvas 0 50 1005 538 resize 0;
#X obj 51 17 inlet;
#X msg -74 585 dirty 1;
#X obj 157 237 spigot;
#X msg 109 186 1;
#X msg 78 247 0;
#X obj 110 479 -;
#X obj 167 512 r \$0-w;
#X obj 153 551 +;
#X obj 152 621 s \$0-w;
#X obj 57 106 spigot 1;
#X obj 57 135 t b b;
#X msg 129 73 0;
#X msg 79 281 1;
#X obj 154 322 unpack f f f;
#X obj 156 271 route mouseup motion;
#X obj 108 360 t f f b f;
#X obj 143 441 spigot 1;
#X msg 212 405 0;
#X obj 235 85 iemguts/receivecanvas 2;
#X obj -71 611 iemguts/sendcanvas 2;
#X obj 698 101 r \$0-w;
#X obj 601 310 t b a;
#X msg 559 346 dirty 0;
#X obj 555 384 s \$0-this;
#X msg 546 156 120 254;
#X text 673 383 the parent canvas;
#X obj 167 589 max 5;
#X msg 483 279 donecanvasdialog 1 -1 3 0 -1 1 1 \$1 \$1 100 100;
#X connect 0 0 9 0;
#X connect 1 0 19 0;
#X connect 2 0 14 0;
#X connect 3 0 2 1;
#X connect 4 0 2 1;
#X connect 5 0 7 0;
#X connect 6 0 7 1;
#X connect 7 0 26 0;
#X connect 9 0 10 0;
#X connect 10 0 3 0;
#X connect 10 1 11 0;
#X connect 10 1 1 0;
#X connect 11 0 9 1;
#X connect 12 0 9 1;
#X connect 12 0 16 1;
#X connect 13 0 15 0;
#X connect 14 0 4 0;
#X connect 14 0 12 0;
#X connect 14 1 13 0;
#X connect 15 0 5 1;
#X connect 15 1 5 0;
#X connect 15 2 17 0;
#X connect 15 3 16 0;
#X connect 16 0 5 1;
#X connect 17 0 16 1;
#X connect 18 0 2 0;
#X connect 20 0 27 0;
#X connect 21 0 22 0;
#X connect 21 1 23 0;
#X connect 22 0 23 0;
#X connect 24 0 27 0;
#X connect 26 0 8 0;
#X connect 27 0 21 0;
#X restore 124 252 pd resize;
#X obj 707 953 outlet;
#X obj 199 928 outlet;
#X text 1291 10 format d'entrée MULTITOUCH.COOKED;
#X text 1407 44 <slot> remove;
#X text 1410 63 <slot> update <x> <y>;
#X text 1411 83 <slot> pressure <a>;
#N canvas 115 314 1202 739 monoclickmode 1;
#X obj 31 11 inlet;
#X msg 384 467 0;
#X msg 42 178 1;
#X obj 30 41 t b;
#X obj 352 644 outlet;
#X obj 35 144 select 0;
#X text 251 111 Pour utiliser la souris quand pas en mode multitouch
;
#X obj 25 106 v TRACKED.SLOTS;
#X obj 30 70 delay 1;
#X obj 74 630 outlet;
#X obj 234 223 iemguts/receivecanvas 2;
#X obj 231 290 spigot;
#X msg 325 261 0;
#X msg 181 256 1;
#X obj 239 329 route motion mouseup;
#X obj 568 31 inlet zoom;
#X obj 74 489 unpack f f f;
#X obj 74 518 / 1;
#X obj 127 522 / 1;
#X obj 78 551 pack f f f;
#X obj 199 442 t f f;
#X obj 300 24 inlet mouse;
#X obj 37 386 list append;
#X obj 37 415 list split 2;
#X obj 348 575 change;
#X obj 384 423 t b b;
#X obj 523 239 r dnd-dropped;
#X obj 523 268 route -done;
#X obj 523 297 t b;
#X obj 523 326 delay 2;
#X obj 42 207 spigot 1;
#X obj 51 248 t f b;
#X msg 136 172 0;
#X msg 186 178 1;
#X obj 48 295 t b b f;
#X connect 0 0 3 0;
#X connect 1 0 24 0;
#X connect 2 0 30 0;
#X connect 3 0 8 0;
#X connect 5 0 2 0;
#X connect 7 0 5 0;
#X connect 8 0 7 0;
#X connect 10 0 11 0;
#X connect 11 0 14 0;
#X connect 12 0 11 1;
#X connect 13 0 11 1;
#X connect 14 0 16 0;
#X connect 14 1 25 0;
#X connect 15 0 20 0;
#X connect 16 0 17 0;
#X connect 16 1 18 0;
#X connect 16 2 19 2;
#X connect 17 0 19 0;
#X connect 18 0 19 1;
#X connect 19 0 9 0;
#X connect 20 0 17 1;
#X connect 20 1 18 1;
#X connect 21 0 22 1;
#X connect 22 0 23 0;
#X connect 23 0 16 0;
#X connect 24 0 4 0;
#X connect 25 0 1 0;
#X connect 25 1 12 0;
#X connect 25 1 33 0;
#X connect 26 0 27 0;
#X connect 27 0 28 0;
#X connect 28 0 29 0;
#X connect 29 0 25 0;
#X connect 30 0 31 0;
#X connect 31 0 34 0;
#X connect 31 1 32 0;
#X connect 32 0 30 1;
#X connect 33 0 30 1;
#X connect 34 0 22 0;
#X connect 34 1 13 0;
#X connect 34 2 24 0;
#X restore 81 319 pd monoclickmode;
#X obj 316 44 route editmode mouse zoom;
#X msg 1121 98 vis 1;
#X obj 1125 60 iemguts/propertybang;
#X obj 1207 99 r \$0-ok;
#X msg 1207 128 vis 0;
#X obj 242 58 t b f;
#N canvas 0 50 1206 587 gui_feedback 0;
#X msg 88 180 set \$1;
#X obj 92 154 r \$0-w;
#X obj 90 207 s \$0-w-rcv;
#X msg 253 181 set \$1;
#X obj 251 50 r \$0-bc-snd;
#X obj 255 208 s \$0-bc-rcv;
#X obj 257 155 r \$0-back_color;
#X obj 251 108 s \$0-back_color;
#X msg 446 182 set \$1;
#X obj 444 51 r \$0-fc-snd;
#X obj 444 109 s \$0-front_color;
#X obj 450 156 r \$0-front_color;
#X obj 448 209 s \$0-fc-rcv;
#X msg 656 182 set \$1;
#X obj 654 51 r \$0-cc-snd;
#X obj 654 109 s \$0-cursor_color;
#X obj 660 156 r \$0-cursor_color;
#X obj 658 209 s \$0-cc-rcv;
#X msg 435 292 set \$1;
#X msg 419 385 set \$1;
#X obj 439 266 r \$0-min;
#X obj 437 319 s \$0-min-rcv;
#X obj 423 359 r \$0-max;
#X obj 421 412 s \$0-max-rcv;
#X msg 909 170 set \$1;
#X obj 909 141 r \$0-z_offset;
#X obj 908 227 s \$0-z_offset-rcv;
#X msg 893 305 set \$1;
#X obj 893 276 r \$0-invisible;
#X obj 892 362 s \$0-invisible-rcv;
#N canvas 0 50 684 586 \$0-name 0;
#X obj 231 16 r \$0-name;
#X msg 312 180 set \$1;
#X obj 352 224 s \$0-name-rcv;
#X obj 32 238 list append \$1;
#X obj 32 267 select 0;
#X obj 110 426 s \$0-name;
#X obj 32 86 loadbang;
#X msg 228 97 label \$1-rcv;
#X obj 224 144 s \$0-receive_name-rcv;
#X obj 472 161 iemguts/canvasargs 2;
#X obj 32 162 spigot 1;
#X msg 114 126 0;
#X obj 109 346 symbol;
#X obj 483 118 list;
#X obj 221 45 t b s s s;
#X obj 32 325 + 1;
#X obj 32 354 t f f;
#X text 253 288 \$1 argument defines default \$0-name;
#X obj 32 296 v mob.UNTITLED_WIDGET;
#X msg 33 389 symbol Untitled_\$1;
#X connect 0 0 14 0;
#X connect 1 0 2 0;
#X connect 3 0 4 0;
#X connect 4 0 18 0;
#X connect 4 1 12 0;
#X connect 6 0 10 0;
#X connect 7 0 8 0;
#X connect 10 0 3 0;
#X connect 11 0 10 1;
#X connect 12 0 5 0;
#X connect 13 0 9 0;
#X connect 14 0 11 0;
#X connect 14 1 7 0;
#X connect 14 2 1 0;
#X connect 14 3 13 0;
#X connect 15 0 16 0;
#X connect 16 0 19 0;
#X connect 16 1 18 0;
#X connect 18 0 15 0;
#X connect 19 0 5 0;
#X restore 654 308 pd \$0-name;
#X connect 0 0 2 0;
#X connect 1 0 0 0;
#X connect 3 0 5 0;
#X connect 4 0 7 0;
#X connect 6 0 3 0;
#X connect 8 0 12 0;
#X connect 9 0 10 0;
#X connect 11 0 8 0;
#X connect 13 0 17 0;
#X connect 14 0 15 0;
#X connect 16 0 13 0;
#X connect 18 0 21 0;
#X connect 19 0 23 0;
#X connect 20 0 18 0;
#X connect 22 0 19 0;
#X connect 24 0 26 0;
#X connect 25 0 24 0;
#X connect 27 0 29 0;
#X connect 28 0 27 0;
#X restore 1115 227 pd gui_feedback;
#X obj 283 938 s;
#X obj 294 898 r \$0-name;
#X obj 291 581 r \$0-name;
#X obj 287 650 iemlib/iem_receive;
#X obj 232 692 list trim;
#X obj 1113 163 s pd-jog_properties(\$0);
#N canvas 556 180 429 458 jog_properties(\$0) 0;
#X obj 6 4 cnv 15 400 450 empty empty empty 20 12 0 14 -233017 -66577
0;
#X floatatom 146 14 5 0 0 0 size #0-w-rcv #0-w;
#X obj 342 318 bng 40 250 50 0 \$0-ok empty OK 5 20 0 20 -204786 -1
-1;
#X symbolatom 91 108 30 0 0 0 send_to #0-name-rcv #0-name;
#X text 22 77 Messages;
#N canvas 0 50 450 300 todo 0;
#X obj 24 70 cnv 15 200 80 empty empty TODO 20 12 0 14 -262130 -66577
0;
#X floatatom 130 90 5 0 0 0 text_color #0-cc-rcv #0-cc-snd;
#N canvas 0 50 450 300 (subpatch) 0;
#X obj 100 100 cnv 20 20 20 empty \$0-cc_cnv-rcv empty 20 12 0 14 -1
-66577 0;
#X msg 170 104 color \$1 \$1;
#X obj 170 75 r \$0-cursor_color;
#X obj 170 132 s \$0-cc_cnv-rcv;
#X connect 1 0 3 0;
#X connect 2 0 1 0;
#X coords 0 -1 1 1 20 20 2 100 100;
#X restore 200 92 pd;
#X floatatom 130 120 5 0 0 0 text_size - -;
#X restore 321 418 pd todo;
#X floatatom 281 385 5 0 0 0 z-offset #0-z_offset-rcv #0-z_offset;
#X text 25 333 MobMuPlat Widget Export;
#X obj 157 385 tgl 20 0 \$0-z_offset \$0-z_offset-rcv MoveOnTop -100
8 0 16 -262144 -1 -1 0 99;
#X obj 157 365 tgl 20 0 \$0-invisible \$0-invisible-rcv Transparency
-130 8 0 16 -262144 -1 -1 0 1;
#X obj 183 365 hsl 60 20 1 0 0 0 \$0-invisible \$0-invisible-rcv empty
-2 -8 0 10 -262144 -1 -1 5900 1;
#X text 250 361 Opacity;
#X text 223 196 back_color;
#X text 221 236 front_color;
#X text 221 276 cursor_color;
#N canvas 412 187 1049 632 color_picker 0;
#X obj 53 150 hsl 128 12 0 255 0 0 empty empty empty -2 -8 0 10 -228856
-258113 -1 0 0;
#X obj 53 162 hsl 128 12 0 255 0 0 empty empty empty -2 -8 0 10 -228856
-4034 -1 12700 0;
#X obj 53 174 hsl 128 12 0 255 0 0 empty empty empty -2 -8 0 10 -228856
-4160 -1 12202 0;
#X obj 183 150 tgl 36 0 empty empty empty 17 7 0 10 -233017 -233017
-233017 0 1;
#N canvas 0 50 498 451 convert2rgb 0;
#X obj 53 112 * -1;
#X obj 54 81 + 1;
#X obj 180 183 mod 256;
#X obj 51 179 div 256;
#X obj 52 143 t f f, f 13;
#X obj 49 210 t f f;
#X obj 48 248 div 256;
#X obj 132 250 mod 256;
#X obj 54 51 inlet;
#X obj 49 317 outlet;
#X obj 129 317 outlet;
#X obj 209 317 outlet;
#X connect 0 0 4 0;
#X connect 1 0 0 0;
#X connect 2 0 11 0;
#X connect 3 0 5 0;
#X connect 4 0 3 0;
#X connect 4 1 2 0;
#X connect 5 0 6 0;
#X connect 5 1 7 0;
#X connect 6 0 9 0;
#X connect 7 0 10 0;
#X connect 8 0 1 0;
#X restore 58 76 pd convert2rgb;
#X msg 286 149 color \$1 \$1 \$1;
#X msg 57 112 set \$1;
#X msg 141 109 set \$1;
#X msg 234 111 set \$1;
#X obj 83 332 t b f;
#X obj 144 333 t b f;
#X obj 149 291 i;
#X obj 104 292 i;
#X obj 61 294 i;
#X obj 67 410 expr ($f1*(-65536)+$f2*(-256)+$f3*(-1))-1;
#X obj 66 372 pack f f f;
#X obj 58 14 r \$0-back_color;
#X obj 97 549 s \$0-back_color;
#X obj 58 45 spigot 1;
#X obj 67 457 t b f b;
#X msg 134 495 0;
#X msg 67 486 1;
#X connect 0 0 13 0;
#X connect 1 0 12 0;
#X connect 2 0 11 0;
#X connect 4 0 6 0;
#X connect 4 1 7 0;
#X connect 4 2 8 0;
#X connect 5 0 3 0;
#X connect 6 0 0 0;
#X connect 7 0 1 0;
#X connect 8 0 2 0;
#X connect 9 0 15 0;
#X connect 9 1 15 1;
#X connect 10 0 15 0;
#X connect 10 1 15 2;
#X connect 11 0 10 0;
#X connect 12 0 9 0;
#X connect 13 0 15 0;
#X connect 14 0 19 0;
#X connect 15 0 14 0;
#X connect 16 0 5 0;
#X connect 16 0 18 0;
#X connect 18 0 4 0;
#X connect 19 0 21 0;
#X connect 19 1 17 0;
#X connect 19 2 20 0;
#X connect 20 0 18 1;
#X connect 21 0 18 1;
#X coords 0 -1 1 1 169 36 2 50 150;
#X restore 37 191 pd color_picker;
#N canvas 882 181 1049 632 color_picker 0;
#X obj 53 150 hsl 128 12 0 255 0 0 empty empty empty -2 -8 0 10 -228856
-258113 -1 0 0;
#X obj 53 162 hsl 128 12 0 255 0 0 empty empty empty -2 -8 0 10 -228856
-4034 -1 0 0;
#X obj 53 174 hsl 128 12 0 255 0 0 empty empty empty -2 -8 0 10 -228856
-4160 -1 0 0;
#X obj 183 150 tgl 36 0 empty empty empty 17 7 0 10 -208051 -208051
-208051 0 1;
#N canvas 0 50 498 451 convert2rgb 0;
#X obj 53 112 * -1;
#X obj 54 81 + 1;
#X obj 180 183 mod 256;
#X obj 51 179 div 256;
#X obj 52 143 t f f, f 13;
#X obj 49 210 t f f;
#X obj 48 248 div 256;
#X obj 132 250 mod 256;
#X obj 54 51 inlet;
#X obj 49 317 outlet;
#X obj 129 317 outlet;
#X obj 209 317 outlet;
#X connect 0 0 4 0;
#X connect 1 0 0 0;
#X connect 2 0 11 0;
#X connect 3 0 5 0;
#X connect 4 0 3 0;
#X connect 4 1 2 0;
#X connect 5 0 6 0;
#X connect 5 1 7 0;
#X connect 6 0 9 0;
#X connect 7 0 10 0;
#X connect 8 0 1 0;
#X restore 58 76 pd convert2rgb;
#X msg 286 149 color \$1 \$1 \$1;
#X msg 57 112 set \$1;
#X msg 141 109 set \$1;
#X msg 234 111 set \$1;
#X obj 83 332 t b f;
#X obj 144 333 t b f;
#X obj 149 291 i;
#X obj 104 292 i;
#X obj 61 294 i;
#X obj 67 410 expr ($f1*(-65536)+$f2*(-256)+$f3*(-1))-1;
#X obj 66 372 pack f f f;
#X obj 58 45 spigot 1;
#X obj 67 457 t b f b;
#X msg 134 495 0;
#X msg 67 486 1;
#X obj 58 14 r \$0-front_color;
#X obj 97 549 s \$0-front_color;
#X connect 0 0 13 0;
#X connect 1 0 12 0;
#X connect 2 0 11 0;
#X connect 4 0 6 0;
#X connect 4 1 7 0;
#X connect 4 2 8 0;
#X connect 5 0 3 0;
#X connect 6 0 0 0;
#X connect 7 0 1 0;
#X connect 8 0 2 0;
#X connect 9 0 15 0;
#X connect 9 1 15 1;
#X connect 10 0 15 0;
#X connect 10 1 15 2;
#X connect 11 0 10 0;
#X connect 12 0 9 0;
#X connect 13 0 15 0;
#X connect 14 0 17 0;
#X connect 15 0 14 0;
#X connect 16 0 4 0;
#X connect 17 0 19 0;
#X connect 17 1 21 0;
#X connect 17 2 18 0;
#X connect 18 0 16 1;
#X connect 19 0 16 1;
#X connect 20 0 5 0;
#X connect 20 0 16 0;
#X coords 0 -1 1 1 169 36 2 50 150;
#X restore 37 231 pd color_picker;
#N canvas 882 181 1049 632 color_picker 0;
#X obj 53 150 hsl 128 12 0 255 0 0 empty empty empty -2 -8 0 10 -228856
-258113 -1 0 0;
#X obj 53 162 hsl 128 12 0 255 0 0 empty empty empty -2 -8 0 10 -228856
-4034 -1 0 0;
#X obj 53 174 hsl 128 12 0 255 0 0 empty empty empty -2 -8 0 10 -228856
-4160 -1 0 0;
#X obj 183 150 tgl 36 0 empty empty empty 17 7 0 10 -1 -1 -1 0 1;
#N canvas 0 50 498 451 convert2rgb 0;
#X obj 53 112 * -1;
#X obj 54 81 + 1;
#X obj 180 183 mod 256;
#X obj 51 179 div 256;
#X obj 52 143 t f f, f 13;
#X obj 49 210 t f f;
#X obj 48 248 div 256;
#X obj 132 250 mod 256;
#X obj 54 51 inlet;
#X obj 49 317 outlet;
#X obj 129 317 outlet;
#X obj 209 317 outlet;
#X connect 0 0 4 0;
#X connect 1 0 0 0;
#X connect 2 0 11 0;
#X connect 3 0 5 0;
#X connect 4 0 3 0;
#X connect 4 1 2 0;
#X connect 5 0 6 0;
#X connect 5 1 7 0;
#X connect 6 0 9 0;
#X connect 7 0 10 0;
#X connect 8 0 1 0;
#X restore 58 76 pd convert2rgb;
#X msg 286 149 color \$1 \$1 \$1;
#X msg 57 112 set \$1;
#X msg 141 109 set \$1;
#X msg 234 111 set \$1;
#X obj 83 332 t b f;
#X obj 144 333 t b f;
#X obj 149 291 i;
#X obj 104 292 i;
#X obj 61 294 i;
#X obj 67 410 expr ($f1*(-65536)+$f2*(-256)+$f3*(-1))-1;
#X obj 66 372 pack f f f;
#X obj 58 45 spigot 1;
#X obj 67 457 t b f b;
#X msg 134 495 0;
#X msg 67 486 1;
#X obj 58 14 r \$0-cursor_color;
#X obj 97 549 s \$0-cursor_color;
#X connect 0 0 13 0;
#X connect 1 0 12 0;
#X connect 2 0 11 0;
#X connect 4 0 6 0;
#X connect 4 1 7 0;
#X connect 4 2 8 0;
#X connect 5 0 3 0;
#X connect 6 0 0 0;
#X connect 7 0 1 0;
#X connect 8 0 2 0;
#X connect 9 0 15 0;
#X connect 9 1 15 1;
#X connect 10 0 15 0;
#X connect 10 1 15 2;
#X connect 11 0 10 0;
#X connect 12 0 9 0;
#X connect 13 0 15 0;
#X connect 14 0 17 0;
#X connect 15 0 14 0;
#X connect 16 0 4 0;
#X connect 17 0 19 0;
#X connect 17 1 21 0;
#X connect 17 2 18 0;
#X connect 18 0 16 1;
#X connect 19 0 16 1;
#X connect 20 0 5 0;
#X connect 20 0 16 0;
#X coords 0 -1 1 1 169 36 2 50 150;
#X restore 38 271 pd color_picker;
#X obj 92 134 cnv 15 300 20 empty \$0-receive_name-rcv untitled-rcv
2 10 0 16 -249855 -66577 0;
#X text 17 132 receive;
#X restore 1115 196 pd jog_properties(\$0);
#X msg 77 61 size \$1;
#X obj 100 100 bng 60 250 50 0 empty \$0-jog-rcv empty 17 7 0 10 -233017
-233017 -233017;
#N canvas 0 50 629 675 cursor3 0;
#X obj 29 20 inlet;
#X obj 140 146 sin;
#X obj 303 136 cos;
#X msg 141 429 pos \$1 \$2;
#X obj 142 399 pack f f;
#X obj 136 93 t f f;
#X obj 215 16 r \$0-w;
#X obj 127 248 * 0.5;
#X obj 125 286 + 100;
#X obj 277 302 + 100;
#X obj 277 273 * -0.5;
#X obj 204 236 * 0.5;
#X obj 128 216 * 54;
#X obj 281 244 * 54;
#X obj 377 250 * 0.5;
#X obj 277 331 + 30;
#X obj 132 326 + 30;
#X obj 132 355 - 5;
#X obj 277 360 - 5;
#X obj 363 115 t f f;
#X obj 130 62 f;
#X obj 191 150 - 10;
#X obj 375 160 - 10;
#X obj 177 197 * 0.5;
#X obj 346 206 * 0.5;
#X obj 153 479 s \$0-cursor3;
#X obj 215 45 t b f f f;
#X obj 380 425 r \$0-cursor_color;
#X msg 380 454 color \$1 \$1;
#X connect 0 0 20 0;
#X connect 1 0 12 0;
#X connect 2 0 13 0;
#X connect 3 0 25 0;
#X connect 4 0 3 0;
#X connect 5 0 1 0;
#X connect 5 1 2 0;
#X connect 6 0 26 0;
#X connect 7 0 8 0;
#X connect 8 0 16 0;
#X connect 9 0 15 0;
#X connect 10 0 9 0;
#X connect 11 0 16 1;
#X connect 12 0 7 0;
#X connect 13 0 10 0;
#X connect 14 0 15 1;
#X connect 15 0 18 0;
#X connect 16 0 17 0;
#X connect 17 0 4 0;
#X connect 18 0 4 1;
#X connect 19 0 22 0;
#X connect 19 1 14 0;
#X connect 20 0 5 0;
#X connect 21 0 23 0;
#X connect 22 0 24 0;
#X connect 23 0 12 1;
#X connect 24 0 13 1;
#X connect 26 0 20 0;
#X connect 26 1 21 0;
#X connect 26 2 11 0;
#X connect 26 3 19 0;
#X connect 27 0 28 0;
#X connect 28 0 25 0;
#X restore 19 959 pd cursor3;
#N canvas 0 50 629 675 cursor2 0;
#X obj 29 20 inlet;
#X obj 140 146 sin;
#X obj 303 136 cos;
#X msg 141 429 pos \$1 \$2;
#X obj 142 399 pack f f;
#X obj 136 93 t f f;
#X obj 215 16 r \$0-w;
#X obj 127 248 * 0.5;
#X obj 125 286 + 100;
#X obj 277 302 + 100;
#X obj 277 273 * -0.5;
#X obj 204 236 * 0.5;
#X obj 128 216 * 54;
#X obj 281 244 * 54;
#X obj 377 250 * 0.5;
#X obj 277 331 + 30;
#X obj 132 326 + 30;
#X obj 132 355 - 5;
#X obj 277 360 - 5;
#X obj 363 115 t f f;
#X obj 130 62 f;
#X obj 191 150 - 10;
#X obj 375 160 - 10;
#X obj 215 45 t b f f f;
#X obj 153 479 s \$0-cursor2;
#X obj 177 197 * 0.7;
#X obj 346 206 * 0.7;
#X obj 380 425 r \$0-cursor_color;
#X msg 380 454 color \$1 \$1;
#X connect 0 0 20 0;
#X connect 1 0 12 0;
#X connect 2 0 13 0;
#X connect 3 0 24 0;
#X connect 4 0 3 0;
#X connect 5 0 1 0;
#X connect 5 1 2 0;
#X connect 6 0 23 0;
#X connect 7 0 8 0;
#X connect 8 0 16 0;
#X connect 9 0 15 0;
#X connect 10 0 9 0;
#X connect 11 0 16 1;
#X connect 12 0 7 0;
#X connect 13 0 10 0;
#X connect 14 0 15 1;
#X connect 15 0 18 0;
#X connect 16 0 17 0;
#X connect 17 0 4 0;
#X connect 18 0 4 1;
#X connect 19 0 22 0;
#X connect 19 1 14 0;
#X connect 20 0 5 0;
#X connect 21 0 25 0;
#X connect 22 0 26 0;
#X connect 23 0 20 0;
#X connect 23 1 21 0;
#X connect 23 2 11 0;
#X connect 23 3 19 0;
#X connect 25 0 12 1;
#X connect 26 0 13 1;
#X connect 27 0 28 0;
#X connect 28 0 24 0;
#X restore 23 935 pd cursor2;
#N canvas 0 50 629 675 cursor1 0;
#X obj 29 20 inlet;
#X obj 140 146 sin;
#X obj 303 136 cos;
#X msg 141 429 pos \$1 \$2;
#X obj 142 399 pack f f;
#X obj 136 93 t f f;
#X obj 215 16 r \$0-w;
#X obj 127 248 * 0.5;
#X obj 125 286 + 100;
#X obj 277 302 + 100;
#X obj 277 273 * -0.5;
#X obj 204 236 * 0.5;
#X obj 128 216 * 54;
#X obj 281 244 * 54;
#X obj 377 250 * 0.5;
#X obj 277 331 + 30;
#X obj 132 326 + 30;
#X obj 132 355 - 5;
#X obj 277 360 - 5;
#X obj 363 115 t f f;
#X obj 130 62 f;
#X obj 191 150 - 10;
#X obj 375 160 - 10;
#X obj 215 45 t b f f f;
#X obj 153 479 s \$0-cursor1;
#X obj 177 197 * 0.9;
#X obj 346 206 * 0.9;
#X obj 380 425 r \$0-cursor_color;
#X msg 380 454 color \$1 \$1;
#X connect 0 0 20 0;
#X connect 1 0 12 0;
#X connect 2 0 13 0;
#X connect 3 0 24 0;
#X connect 4 0 3 0;
#X connect 5 0 1 0;
#X connect 5 1 2 0;
#X connect 6 0 23 0;
#X connect 7 0 8 0;
#X connect 8 0 16 0;
#X connect 9 0 15 0;
#X connect 10 0 9 0;
#X connect 11 0 16 1;
#X connect 12 0 7 0;
#X connect 13 0 10 0;
#X connect 14 0 15 1;
#X connect 15 0 18 0;
#X connect 16 0 17 0;
#X connect 17 0 4 0;
#X connect 18 0 4 1;
#X connect 19 0 22 0;
#X connect 19 1 14 0;
#X connect 20 0 5 0;
#X connect 21 0 25 0;
#X connect 22 0 26 0;
#X connect 23 0 20 0;
#X connect 23 1 21 0;
#X connect 23 2 11 0;
#X connect 23 3 19 0;
#X connect 25 0 12 1;
#X connect 26 0 13 1;
#X connect 27 0 28 0;
#X connect 28 0 24 0;
#X restore 23 909 pd cursor1;
#X obj 452 938 outlet pressure;
#X obj 144 113 cnv 10 10 10 empty \$0-cursor1 empty 20 12 0 14 -1 -66577
0;
#X obj 139 115 cnv 10 10 10 empty \$0-cursor2 empty 20 12 0 14 -1 -66577
0;
#X obj 135 118 cnv 10 10 10 empty \$0-cursor3 empty 20 12 0 14 -1 -66577
0;
#X obj 100 100 cnv 1 1 1 \$0-pos \$0-pos-rcv empty 20 12 0 14 -66577
-66577 0;
#X obj 37 706 -;
#X obj 12 628 t f f f;
#X obj 71 669 spigot 1;
#X obj 37 740 t f b;
#X msg 153 568 0;
#X msg 94 567 1;
#X obj 38 773 +;
#N canvas 0 50 450 300 modulo 0;
#X obj 140 91 moses 3.14159;
#X obj 118 150 moses -3.14159;
#X obj 119 38 inlet;
#X obj 143 241 outlet;
#X obj 118 179 + 6.28319;
#X obj 286 145 - 6.28319;
#X connect 0 0 1 0;
#X connect 0 1 5 0;
#X connect 1 0 4 0;
#X connect 1 1 3 0;
#X connect 2 0 0 0;
#X connect 4 0 3 0;
#X connect 5 0 3 0;
#X restore 96 773 pd modulo 2pi;
#X obj 226 726 route set;
#X obj 15 868 t f;
#X obj 34 817 t f f f;
#N canvas 0 50 450 300 colors 0;
#X obj 74 37 inlet;
#X obj 65 92 select 1 0;
#X obj 283 78 r \$0-back_color;
#X obj 428 286 r \$0-front_color;
#X msg 383 366 color -1.31586e+07 -1.31586e+07 -1.31586e+07;
#X msg 283 239 color 10 10 10;
#X msg 256 152 set color \$1 \$1 \$1;
#X msg 419 314 set color \$1 \$1 \$1;
#X msg 389 202 color \$1 \$1 \$1;
#X obj 323 487 s \$0-jog-rcv;
#X text 325 512 ext. feedback;
#X connect 0 0 1 0;
#X connect 1 0 4 0;
#X connect 1 1 5 0;
#X connect 2 0 6 0;
#X connect 2 0 8 0;
#X connect 3 0 7 0;
#X connect 4 0 9 0;
#X connect 5 0 9 0;
#X connect 6 0 5 0;
#X connect 7 0 4 0;
#X connect 8 0 9 0;
#X restore 236 521 pd colors;
#X obj 219 648 inlet;
#N canvas 0 57 1920 1023 mmp-export-jog_as_jogLCD 0;
#X obj 109 -2 r MMP_EXPORT;
#X obj 232 10 r \$0-x;
#X obj 312 32 r \$0-y;
#X obj 90 124 f;
#X obj 528 126 r \$0-name;
#X obj 447 78 r \$0-range;
#X obj 716 65 r \$0-r;
#X obj 716 85 r \$0-g;
#X obj 716 105 r \$0-b;
#X obj 787 273 r \$0-a;
#X obj 890 69 r \$0-hr;
#X obj 890 89 r \$0-hg;
#X obj 890 109 r \$0-hb;
#X obj 1140 290 r \$0-ha;
#X obj 134 657 list append 125;
#X obj 134 635 list prepend add 123;
#X obj 147 699 list trim;
#X obj 147 721 s MMP_BINFILE;
#X obj 135 125 v MMP_FIRST_GUI_ITEM;
#X obj 135 160 select 1;
#X msg 425 597 add 44 123;
#X msg 329 596 add 123;
#X msg 137 199 0;
#X obj 136 237 v MMP_FIRST_GUI_ITEM;
#X floatatom 256 54 5 0 0 0 - - -;
#X floatatom 312 54 5 0 0 0 - - -;
#X floatatom 379 50 5 0 0 0 - - -;
#X symbolatom 535 160 10 0 0 0 - - -;
#X floatatom 447 100 5 0 0 0 - - -;
#X obj 386 18 r \$0-w;
#X obj 682 419 r \$0-back_color;
#X obj 986 414 r \$0-front_color;
#X obj 681 456 + 1;
#X obj 681 485 * -1;
#X obj 694 519 t f f f;
#X obj 605 553 / 65536;
#X obj 723 554 / 256;
#X obj 807 557 mod 256;
#X obj 723 583 mod 256;
#X obj 605 582 int;
#X obj 605 611 / 255;
#X obj 723 612 / 255;
#X obj 807 586 / 255;
#X obj 600 643 s \$0-r;
#X obj 724 645 s \$0-g;
#X obj 814 643 s \$0-b;
#X obj 991 454 + 1;
#X obj 991 483 * -1;
#X obj 1004 517 t f f f;
#X obj 915 551 / 65536;
#X obj 1033 552 / 256;
#X obj 1117 555 mod 256;
#X obj 1033 581 mod 256;
#X obj 915 580 int;
#X obj 915 609 / 255;
#X obj 1033 610 / 255;
#X obj 1117 584 / 255;
#X obj 910 641 s \$0-hr;
#X obj 1034 643 s \$0-hg;
#X obj 1124 641 s \$0-hb;
#X obj 425 431 iemguts/canvasposition 1;
#X obj 502 498 s \$0-y;
#X obj 390 488 s \$0-x;
#X obj 425 460 unpack f f;
#X obj 83 373 pack f f f f 1 s f f f 1 f f f 1, f 105;
#X obj 1224 168 v WIDGET-ID;
#X obj 1224 193 + 1;
#X obj 1224 218 s WIDGET-ID;
#X obj 414 162 r WIDGET-ID;
#X obj 416 193 list append;
#X msg 416 222 symbol \$1.\$2;
#X obj 1279 726 s LISTENERS;
#X obj 1286 487 r \$0-name;
#X obj 1271 538 symbol;
#X obj 1271 567 t s s;
#X msg 1311 598 symbol \$1-rcv;
#X obj 1391 528 r WIDGET-ID;
#X obj 66 586 list fromsymbol;
#X text 539 826 "address":"/myLCD1" \, "frame":[21.25781 \, 92.7305
\, 273.027 \, 248.7266] \, "class":"MMPLCD" \, "highlightColor":[1
\, 0 \, 0 \, 1] \, "color":[0.9316406 \, 1 \, 1 \, 1];
#X msg 51 409 symbol "highlightColor":[\$11\\\,\$12\\\,\$13\\\,\$14]\\\,"address":"\$6"\\\,"color":[\$7\\\,\$8\\\,\$9\\\,\$10]\\\,"class":"MMPLCD"\\\,"frame":[\$1\\\,\$2\\\,\$3\\\,\$4]
, f 23;
#X obj 280 162 r MOB_ZOOM;
#X obj 83 321 * 1;
#X obj 158 322 * 1;
#X obj 236 320 * 1;
#N canvas 278 130 450 300 MMP_EXPORT_BY_INDEX 0;
#X obj 151 40 r MMP_EXPORT_BY_INDEX;
#X obj 146 268 outlet;
#X text 38 6 enable z-order;
#X obj 151 69 t f b;
#X obj 203 96 canvasindex 2;
#X obj 146 235 select;
#X obj 202 145 + 0;
#X obj 249 126 r \$0-z_offset;
#X obj 202 174 max 0;
#X obj 202 203 min 1;
#X obj 298 171 - 1;
#X connect 0 0 3 0;
#X connect 3 0 5 0;
#X connect 3 1 4 0;
#X connect 4 0 6 0;
#X connect 4 1 10 0;
#X connect 5 0 1 0;
#X connect 6 0 8 0;
#X connect 7 0 6 1;
#X connect 8 0 9 0;
#X connect 9 0 5 1;
#X connect 10 0 9 1;
#X restore 26 21 pd MMP_EXPORT_BY_INDEX;
#X obj 1102 97 r \$0-invisible;
#X obj 1102 126 - 1;
#X obj 1102 155 * -1;
#X obj 180 272 t b f b f;
#X obj 68 53 t b b b b b;
#X obj 1280 687 list prepend mob/listenerJog;
#X obj 1279 642 pack s s f f;
#X obj 1617 430 r \$0-name;
#X obj 1596 506 iem_receive;
#X msg 1617 459 set \$1;
#X obj 1596 548 route float;
#X connect 1 0 3 1;
#X connect 1 0 24 0;
#X connect 2 0 25 0;
#X connect 2 0 82 0;
#X connect 3 0 81 0;
#X connect 4 0 27 0;
#X connect 4 0 69 1;
#X connect 5 0 28 0;
#X connect 5 0 64 4;
#X connect 6 0 64 6;
#X connect 7 0 64 7;
#X connect 8 0 64 8;
#X connect 10 0 64 10;
#X connect 11 0 64 11;
#X connect 12 0 64 12;
#X connect 14 0 16 0;
#X connect 15 0 14 0;
#X connect 16 0 17 0;
#X connect 18 0 19 0;
#X connect 19 0 21 0;
#X connect 19 0 22 0;
#X connect 19 1 20 0;
#X connect 20 0 15 1;
#X connect 21 0 15 1;
#X connect 22 0 23 0;
#X connect 29 0 26 0;
#X connect 29 0 83 0;
#X connect 30 0 32 0;
#X connect 31 0 46 0;
#X connect 32 0 33 0;
#X connect 33 0 34 0;
#X connect 34 0 35 0;
#X connect 34 1 36 0;
#X connect 34 2 37 0;
#X connect 35 0 39 0;
#X connect 36 0 38 0;
#X connect 37 0 42 0;
#X connect 38 0 41 0;
#X connect 39 0 40 0;
#X connect 40 0 43 0;
#X connect 41 0 44 0;
#X connect 42 0 45 0;
#X connect 46 0 47 0;
#X connect 47 0 48 0;
#X connect 48 0 49 0;
#X connect 48 1 50 0;
#X connect 48 2 51 0;
#X connect 49 0 53 0;
#X connect 50 0 52 0;
#X connect 51 0 56 0;
#X connect 52 0 55 0;
#X connect 53 0 54 0;
#X connect 54 0 57 0;
#X connect 55 0 58 0;
#X connect 56 0 59 0;
#X connect 60 0 63 0;
#X connect 63 0 62 0;
#X connect 63 1 61 0;
#X connect 64 0 79 0;
#X connect 65 0 66 0;
#X connect 66 0 67 0;
#X connect 68 0 69 0;
#X connect 69 0 70 0;
#X connect 70 0 64 5;
#X connect 72 0 73 1;
#X connect 73 0 74 0;
#X connect 74 0 91 0;
#X connect 74 1 75 0;
#X connect 75 0 91 1;
#X connect 76 0 91 2;
#X connect 77 0 15 0;
#X connect 79 0 77 0;
#X connect 80 0 81 1;
#X connect 80 0 88 0;
#X connect 81 0 64 0;
#X connect 82 0 64 1;
#X connect 83 0 64 2;
#X connect 83 0 64 3;
#X connect 84 0 89 0;
#X connect 85 0 86 0;
#X connect 86 0 87 0;
#X connect 87 0 64 13;
#X connect 87 0 64 9;
#X connect 88 0 82 0;
#X connect 88 1 82 1;
#X connect 88 2 83 0;
#X connect 88 3 83 1;
#X connect 89 0 3 0;
#X connect 89 1 18 0;
#X connect 89 2 73 0;
#X connect 89 3 60 0;
#X connect 89 4 65 0;
#X connect 90 0 71 0;
#X connect 91 0 90 0;
#X connect 92 0 94 0;
#X connect 93 0 95 0;
#X connect 94 0 93 0;
#X connect 95 0 91 3;
#X restore 1110 344 pd mmp-export-jog_as_jogLCD;
#N canvas 146 334 864 764 receive_MULTITOUCH.MODE2.parent\$0 0;
#X msg 141 146 bang;
#X obj 219 145 loadbang;
#X msg 222 264 set MULTITOUCH.MODE2.\$1;
#X obj 149 320 iemlib/iem_receive;
#X obj 149 349 outlet;
#X obj 146 179 iemguts/canvasdollarzero 2;
#X connect 0 0 5 0;
#X connect 1 0 5 0;
#X connect 2 0 3 0;
#X connect 3 0 4 0;
#X connect 5 0 2 0;
#X restore 590 234 pd receive_MULTITOUCH.MODE2.parent\$0;
#N canvas 0 50 1149 924 touch_listener 0;
#X obj 98 64 inlet;
#X obj 208 426 unpack f f;
#X obj 93 449 -;
#X obj 160 455 -;
#X obj 93 524 - 100;
#X obj 160 530 - 100;
#X obj 93 549 abs;
#X obj 160 555 abs;
#X obj 93 574 < 100;
#X obj 160 580 < 100;
#X obj 93 599 &&;
#X obj 96 631 select 1;
#X obj 100 697 pack f f;
#X obj 96 656 f \$0;
#X obj 134 771 tabwrite MULTITOUCH.SLOT.STATUS;
#X obj 63 802 list append;
#X obj 98 218 spigot 1;
#X msg 167 751 0;
#X msg 157 163 1;
#X obj 394 68 r \$0-channel;
#X obj 394 93 route remove update;
#X obj 162 296 tabread MULTITOUCH.SLOT.STATUS;
#X obj 88 243 list split 2;
#X obj 59 367 spigot;
#X obj 92 424 unpack f f;
#X obj 101 335 == 0;
#X text 191 318 check if slot still free;
#X obj 519 566 f;
#X obj 131 267 t f f f;
#X msg 522 619 \; slot.\$1 set_mode 1;
#X msg 516 664 \; slot.\$1 set_mode 2;
#X msg 426 707 \$2;
#X text 547 544 change slot mode;
#X obj 252 490 / 2;
#X obj 320 512 / 2;
#X obj 506 273 unpack f f;
#X obj 625 215 unpack f f;
#X obj 506 298 -;
#X obj 566 303 -;
#X obj 508 357 /;
#X obj 563 361 /;
#X obj 508 442 pack f f;
#X obj 560 386 * -1;
#X obj 118 719 t b l b l b;
#X msg 698 773 1;
#X msg 742 773 0;
#X obj 307 681 pack f f;
#X obj 54 478 t f f;
#X obj 382 132 t b b b b;
#X obj 240 808 list append 0 0;
#X obj 525 128 t a a;
#X obj 554 156 list length;
#X obj 554 181 - 1;
#X obj 518 212 list split;
#X obj 518 237 list trim;
#X obj 39 930 outlet;
#X msg 27 856 add \$1 \$2;
#X msg 96 876 update \$1 \$2;
#X msg 185 916 remove \$1 \$2;
#X obj 297 571 /;
#X obj 378 564 /;
#X obj 628 325 r \$0-w;
#X obj 625 191 r \$0-pos;
#X obj 208 402 r \$0-pos;
#X obj 363 391 r \$0-w;
#X obj 401 445 r \$0-w;
#X obj 678 899 v \$0-touch_listener.status.0;
#X text 794 800 signal touch-0 status;
#X obj 399 615 * -1;
#X obj 302 626 - 0.5;
#X obj 399 643 + 0.5;
#X obj 560 414 + 0.5;
#X obj 488 402 - 0.5;
#X connect 0 0 16 0;
#X connect 1 0 2 1;
#X connect 1 1 3 1;
#X connect 2 0 47 0;
#X connect 3 0 5 0;
#X connect 3 0 60 0;
#X connect 4 0 6 0;
#X connect 5 0 7 0;
#X connect 6 0 8 0;
#X connect 7 0 9 0;
#X connect 8 0 10 0;
#X connect 9 0 10 1;
#X connect 10 0 11 0;
#X connect 11 0 13 0;
#X connect 12 0 43 0;
#X connect 13 0 12 0;
#X connect 15 0 56 0;
#X connect 16 0 22 0;
#X connect 17 0 16 1;
#X connect 18 0 16 1;
#X connect 19 0 20 0;
#X connect 20 0 48 0;
#X connect 20 1 35 0;
#X connect 20 2 50 0;
#X connect 21 0 25 0;
#X connect 22 0 23 0;
#X connect 22 1 28 0;
#X connect 23 0 24 0;
#X connect 24 0 2 0;
#X connect 24 1 3 0;
#X connect 25 0 23 1;
#X connect 27 0 29 0;
#X connect 28 0 12 1;
#X connect 28 1 21 0;
#X connect 28 2 27 1;
#X connect 31 0 30 0;
#X connect 33 0 4 1;
#X connect 33 0 8 1;
#X connect 34 0 5 1;
#X connect 34 0 9 1;
#X connect 35 0 37 0;
#X connect 35 1 38 0;
#X connect 36 0 37 1;
#X connect 36 1 38 1;
#X connect 37 0 39 0;
#X connect 38 0 40 0;
#X connect 39 0 72 0;
#X connect 40 0 42 0;
#X connect 41 0 49 1;
#X connect 41 0 57 0;
#X connect 42 0 71 0;
#X connect 43 0 15 0;
#X connect 43 1 14 0;
#X connect 43 2 17 0;
#X connect 43 3 31 0;
#X connect 43 4 44 0;
#X connect 44 0 66 0;
#X connect 45 0 66 0;
#X connect 46 0 15 1;
#X connect 46 0 49 1;
#X connect 47 0 4 0;
#X connect 47 1 59 0;
#X connect 48 0 18 0;
#X connect 48 1 49 0;
#X connect 48 2 45 0;
#X connect 48 3 27 0;
#X connect 49 0 58 0;
#X connect 50 0 53 0;
#X connect 50 1 51 0;
#X connect 51 0 52 0;
#X connect 52 0 53 1;
#X connect 53 0 54 0;
#X connect 54 0 55 0;
#X connect 56 0 55 0;
#X connect 57 0 55 0;
#X connect 58 0 55 0;
#X connect 59 0 69 0;
#X connect 60 0 68 0;
#X connect 61 0 39 1;
#X connect 61 0 40 1;
#X connect 62 0 36 0;
#X connect 63 0 1 0;
#X connect 64 0 33 0;
#X connect 64 0 59 1;
#X connect 65 0 34 0;
#X connect 65 0 60 1;
#X connect 68 0 70 0;
#X connect 69 0 46 0;
#X connect 70 0 46 1;
#X connect 71 0 41 1;
#X connect 72 0 41 0;
#X restore 587 270 pd touch_listener;
#X obj 587 299 route add update remove pressure;
#X msg 398 436 1;
#N canvas 0 50 595 795 atan2 0;
#X obj 119 66 inlet;
#X obj 83 647 outlet;
#X obj 274 78 r \$0-pos;
#X obj 272 113 unpack f f;
#X obj 65 214 -;
#X obj 218 182 -;
#X obj 108 143 unpack f f f;
#X obj 157 233 r \$0-w;
#X obj 63 289 / 60;
#X obj 297 307 / 60;
#X obj 90 380 - 0.5;
#X obj 336 248 r \$0-w;
#X obj 292 340 - 0.5;
#X obj 293 376 * -1;
#X obj 80 562 atan2;
#X connect 0 0 6 0;
#X connect 2 0 3 0;
#X connect 3 0 4 1;
#X connect 3 1 5 1;
#X connect 4 0 8 0;
#X connect 5 0 9 0;
#X connect 6 0 4 0;
#X connect 6 1 5 0;
#X connect 7 0 8 1;
#X connect 8 0 10 0;
#X connect 9 0 12 0;
#X connect 10 0 14 0;
#X connect 11 0 9 1;
#X connect 12 0 13 0;
#X connect 13 0 14 1;
#X connect 14 0 1 0;
#X restore 88 437 pd atan2;
#X obj 605 492 atan2;
#X obj 600 447 t l b;
#X obj 222 476 t f f f;
#X obj 84 378 t l b;
#X msg 458 884 50;
#X obj 693 821 t f f;
#X obj 744 907 s;
#X msg 758 860 symbol \$1.touch;
#X obj 758 817 r \$0-name;
#X msg 291 610 set \$1-rcv;
#X obj 258 368 print a;
#X obj 374 351 print b;
#X obj 388 73 t l b;
#X connect 0 0 1 0;
#X connect 2 0 50 0;
#X connect 3 0 66 0;
#X connect 4 0 3 0;
#X connect 5 0 21 0;
#X connect 6 0 7 0;
#X connect 7 0 20 0;
#X connect 7 1 13 0;
#X connect 10 0 35 0;
#X connect 11 0 12 0;
#X connect 12 0 26 0;
#X connect 20 0 67 0;
#X connect 20 0 74 0;
#X connect 20 1 3 0;
#X connect 20 1 75 0;
#X connect 21 0 6 1;
#X connect 21 1 76 0;
#X connect 21 2 20 2;
#X connect 22 0 33 0;
#X connect 23 0 22 0;
#X connect 24 0 25 0;
#X connect 25 0 33 0;
#X connect 29 0 28 1;
#X connect 30 0 73 0;
#X connect 31 0 32 0;
#X connect 32 0 53 0;
#X connect 35 0 36 0;
#X connect 36 0 6 0;
#X connect 45 0 48 0;
#X connect 46 0 45 1;
#X connect 46 1 45 0;
#X connect 46 2 47 0;
#X connect 47 0 45 1;
#X connect 48 0 51 0;
#X connect 48 1 49 0;
#X connect 49 0 47 1;
#X connect 50 0 47 1;
#X connect 51 0 52 0;
#X connect 52 0 51 1;
#X connect 52 0 55 0;
#X connect 53 0 51 1;
#X connect 53 0 54 0;
#X connect 54 0 37 0;
#X connect 54 0 39 0;
#X connect 54 0 38 0;
#X connect 55 0 54 0;
#X connect 55 1 15 0;
#X connect 55 2 28 0;
#X connect 57 0 32 0;
#X connect 59 0 60 0;
#X connect 60 0 61 0;
#X connect 61 0 65 0;
#X connect 61 1 64 0;
#X connect 61 2 4 0;
#X connect 61 3 40 0;
#X connect 62 0 3 0;
#X connect 63 0 46 0;
#X connect 64 0 46 0;
#X connect 65 0 64 0;
#X connect 65 1 62 0;
#X connect 66 0 2 0;
#X connect 66 1 56 0;
#X connect 66 2 69 0;
#X connect 67 0 63 0;
#X connect 67 1 68 0;
#X connect 68 0 40 0;
#X connect 69 0 14 0;
#X connect 69 1 70 0;
#X connect 71 0 70 1;
#X connect 72 0 71 0;
#X connect 73 0 31 0;
#X connect 76 0 20 1;
#X connect 76 1 0 0;
#X coords 0 -1 1 1 60 60 2 100 100;
