#N canvas 575 0 958 944 16;
#X msg 436 122 get_pos;
#X obj 436 159 s \$0-pos-rcv;
#X obj 112 522 select 1 0;
#X obj 224 434 change;
#X msg 363 400 0;
#X obj 313 3 iemguts/receivecanvas 1;
#X obj 81 184 list prepend 0;
#X obj 81 215 route 0 1;
#X obj 1409 234 namecanvas \$0-this;
#X obj 52 4 r \$0-w;
#N canvas 0 50 1005 538 resize 0;
#X obj 51 17 inlet;
#X msg -74 585 dirty 1;
#X obj 157 237 spigot;
#X msg 109 186 1;
#X msg 78 247 0;
#X obj 110 479 -;
#X obj 167 512 r \$0-w;
#X obj 153 551 +;
#X obj 152 621 s \$0-w;
#X obj 57 106 spigot 1;
#X obj 57 135 t b b;
#X msg 129 73 0;
#X msg 79 281 1;
#X obj 154 322 unpack f f f;
#X obj 156 271 route mouseup motion;
#X obj 108 360 t f f b f;
#X obj 143 441 spigot 1;
#X msg 212 405 0;
#X obj 235 85 iemguts/receivecanvas 2;
#X obj -71 611 iemguts/sendcanvas 2;
#X obj 698 101 r \$0-w;
#X obj 601 310 t b a;
#X msg 559 346 dirty 0;
#X obj 555 384 s \$0-this;
#X msg 546 156 120 254;
#X text 673 383 the parent canvas;
#X obj 167 589 max 5;
#X msg 483 279 donecanvasdialog 1 -1 3 0 -1 1 1 \$1 \$1 100 100;
#X connect 0 0 9 0;
#X connect 1 0 19 0;
#X connect 2 0 14 0;
#X connect 3 0 2 1;
#X connect 4 0 2 1;
#X connect 5 0 7 0;
#X connect 6 0 7 1;
#X connect 7 0 26 0;
#X connect 9 0 10 0;
#X connect 10 0 3 0;
#X connect 10 1 11 0;
#X connect 10 1 1 0;
#X connect 11 0 9 1;
#X connect 12 0 9 1;
#X connect 12 0 16 1;
#X connect 13 0 15 0;
#X connect 14 0 4 0;
#X connect 14 0 12 0;
#X connect 14 1 13 0;
#X connect 15 0 5 1;
#X connect 15 1 5 0;
#X connect 15 2 17 0;
#X connect 15 3 16 0;
#X connect 16 0 5 1;
#X connect 17 0 16 1;
#X connect 18 0 2 0;
#X connect 20 0 27 0;
#X connect 21 0 22 0;
#X connect 21 1 23 0;
#X connect 22 0 23 0;
#X connect 24 0 27 0;
#X connect 26 0 8 0;
#X connect 27 0 21 0;
#X restore 124 252 pd resize;
#X obj 698 947 outlet;
#X obj 199 928 outlet;
#X text 1291 10 format d'entrée MULTITOUCH.COOKED;
#X text 1407 44 <slot> remove;
#X text 1410 63 <slot> update <x> <y>;
#X text 1411 83 <slot> pressure <a>;
#N canvas 115 314 1202 739 monoclickmode 0;
#X obj 31 11 inlet;
#X msg 384 537 0;
#X msg 42 248 1;
#X obj 30 41 t b;
#X obj 352 714 outlet;
#X obj 39 215 select 0;
#X text 251 111 Pour utiliser la souris quand pas en mode multitouch
;
#X obj 74 700 outlet;
#X obj 234 293 iemguts/receivecanvas 2;
#X obj 231 360 spigot;
#X msg 325 331 0;
#X msg 181 326 1;
#X obj 239 399 route motion mouseup;
#X obj 568 31 inlet zoom;
#X obj 74 559 unpack f f f;
#X obj 74 588 / 1;
#X obj 127 592 / 1;
#X obj 78 621 pack f f f;
#X obj 199 512 t f f;
#X obj 300 24 inlet mouse;
#X obj 37 456 list append;
#X obj 37 485 list split 2;
#X obj 348 645 change;
#X obj 384 493 t b b;
#X obj 42 277 spigot 1;
#X obj 51 318 t f b;
#X msg 136 242 0;
#X msg 186 248 1;
#X obj 48 365 t b b f;
#X obj 39 174 v MULTITOUCH.ACTIVESLOTS;
#X connect 0 0 3 0;
#X connect 1 0 22 0;
#X connect 2 0 24 0;
#X connect 3 0 29 0;
#X connect 5 0 2 0;
#X connect 8 0 9 0;
#X connect 9 0 12 0;
#X connect 10 0 9 1;
#X connect 11 0 9 1;
#X connect 12 0 14 0;
#X connect 12 1 23 0;
#X connect 13 0 18 0;
#X connect 14 0 15 0;
#X connect 14 1 16 0;
#X connect 14 2 17 2;
#X connect 15 0 17 0;
#X connect 16 0 17 1;
#X connect 17 0 7 0;
#X connect 18 0 15 1;
#X connect 18 1 16 1;
#X connect 19 0 20 1;
#X connect 20 0 21 0;
#X connect 21 0 14 0;
#X connect 22 0 4 0;
#X connect 23 0 1 0;
#X connect 23 1 10 0;
#X connect 23 1 27 0;
#X connect 24 0 25 0;
#X connect 25 0 28 0;
#X connect 25 1 26 0;
#X connect 26 0 24 1;
#X connect 27 0 24 1;
#X connect 28 0 20 0;
#X connect 28 1 11 0;
#X connect 28 2 22 0;
#X connect 29 0 5 0;
#X restore 81 319 pd monoclickmode;
#X obj 316 44 route editmode mouse zoom;
#X msg 1121 98 vis 1;
#X obj 1125 60 iemguts/propertybang;
#X obj 1207 99 r \$0-ok;
#X msg 1207 128 vis 0;
#N canvas 0 0 1206 587 gui_feedback 0;
#X msg 88 180 set \$1;
#X obj 92 154 r \$0-w;
#X obj 90 207 s \$0-w-rcv;
#X msg 253 181 set \$1;
#X obj 251 50 r \$0-bc-snd;
#X obj 255 208 s \$0-bc-rcv;
#X obj 257 155 r \$0-back_color;
#X obj 251 108 s \$0-back_color;
#X msg 446 182 set \$1;
#X obj 444 51 r \$0-fc-snd;
#X obj 444 109 s \$0-front_color;
#X obj 450 156 r \$0-front_color;
#X obj 448 209 s \$0-fc-rcv;
#X msg 656 182 set \$1;
#X obj 654 51 r \$0-cc-snd;
#X obj 654 109 s \$0-cursor_color;
#X obj 660 156 r \$0-cursor_color;
#X obj 658 209 s \$0-cc-rcv;
#X msg 909 170 set \$1;
#X obj 909 141 r \$0-z_offset;
#X obj 908 227 s \$0-z_offset-rcv;
#X msg 893 305 set \$1;
#X obj 893 276 r \$0-invisible;
#X obj 892 362 s \$0-invisible-rcv;
#X obj 275 300 r \$0-range;
#X obj 282 361 s \$0-range-rcv;
#X msg 275 329 set \$1;
#X connect 0 0 2 0;
#X connect 1 0 0 0;
#X connect 3 0 5 0;
#X connect 4 0 7 0;
#X connect 6 0 3 0;
#X connect 8 0 12 0;
#X connect 9 0 10 0;
#X connect 11 0 8 0;
#X connect 13 0 17 0;
#X connect 14 0 15 0;
#X connect 16 0 13 0;
#X connect 18 0 20 0;
#X connect 19 0 18 0;
#X connect 21 0 23 0;
#X connect 22 0 21 0;
#X connect 24 0 26 0;
#X connect 26 0 25 0;
#X restore 1115 227 pd gui_feedback;
#X obj 283 938 s;
#X obj 294 898 r \$0-name;
#X obj 291 581 r \$0-name;
#X obj 232 692 list trim;
#X msg 77 61 size \$1;
#X obj 100 100 bng 60 250 50 0 empty \$0-jog-rcv empty 17 7 0 10 #dcdcdc
#dcdcdc #dcdcdc;
#N canvas 0 50 629 675 cursor3 0;
#X obj 29 20 inlet;
#X obj 140 146 sin;
#X obj 303 136 cos;
#X msg 141 429 pos \$1 \$2;
#X obj 142 399 pack f f;
#X obj 136 93 t f f;
#X obj 215 16 r \$0-w;
#X obj 127 248 * 0.5;
#X obj 125 286 + 100;
#X obj 277 302 + 100;
#X obj 277 273 * -0.5;
#X obj 204 236 * 0.5;
#X obj 128 216 * 54;
#X obj 281 244 * 54;
#X obj 377 250 * 0.5;
#X obj 277 331 + 30;
#X obj 132 326 + 30;
#X obj 132 355 - 5;
#X obj 277 360 - 5;
#X obj 363 115 t f f;
#X obj 130 62 f;
#X obj 191 150 - 10;
#X obj 375 160 - 10;
#X obj 177 197 * 0.5;
#X obj 346 206 * 0.5;
#X obj 153 479 s \$0-cursor3;
#X obj 215 45 t b f f f;
#X obj 380 425 r \$0-cursor_color;
#X msg 380 454 color \$1 \$1;
#X connect 0 0 20 0;
#X connect 1 0 12 0;
#X connect 2 0 13 0;
#X connect 3 0 25 0;
#X connect 4 0 3 0;
#X connect 5 0 1 0;
#X connect 5 1 2 0;
#X connect 6 0 26 0;
#X connect 7 0 8 0;
#X connect 8 0 16 0;
#X connect 9 0 15 0;
#X connect 10 0 9 0;
#X connect 11 0 16 1;
#X connect 12 0 7 0;
#X connect 13 0 10 0;
#X connect 14 0 15 1;
#X connect 15 0 18 0;
#X connect 16 0 17 0;
#X connect 17 0 4 0;
#X connect 18 0 4 1;
#X connect 19 0 22 0;
#X connect 19 1 14 0;
#X connect 20 0 5 0;
#X connect 21 0 23 0;
#X connect 22 0 24 0;
#X connect 23 0 12 1;
#X connect 24 0 13 1;
#X connect 26 0 20 0;
#X connect 26 1 21 0;
#X connect 26 2 11 0;
#X connect 26 3 19 0;
#X connect 27 0 28 0;
#X connect 28 0 25 0;
#X restore 19 959 pd cursor3;
#N canvas 0 50 629 675 cursor2 0;
#X obj 29 20 inlet;
#X obj 140 146 sin;
#X obj 303 136 cos;
#X msg 141 429 pos \$1 \$2;
#X obj 142 399 pack f f;
#X obj 136 93 t f f;
#X obj 215 16 r \$0-w;
#X obj 127 248 * 0.5;
#X obj 125 286 + 100;
#X obj 277 302 + 100;
#X obj 277 273 * -0.5;
#X obj 204 236 * 0.5;
#X obj 128 216 * 54;
#X obj 281 244 * 54;
#X obj 377 250 * 0.5;
#X obj 277 331 + 30;
#X obj 132 326 + 30;
#X obj 132 355 - 5;
#X obj 277 360 - 5;
#X obj 363 115 t f f;
#X obj 130 62 f;
#X obj 191 150 - 10;
#X obj 375 160 - 10;
#X obj 215 45 t b f f f;
#X obj 153 479 s \$0-cursor2;
#X obj 177 197 * 0.7;
#X obj 346 206 * 0.7;
#X obj 380 425 r \$0-cursor_color;
#X msg 380 454 color \$1 \$1;
#X connect 0 0 20 0;
#X connect 1 0 12 0;
#X connect 2 0 13 0;
#X connect 3 0 24 0;
#X connect 4 0 3 0;
#X connect 5 0 1 0;
#X connect 5 1 2 0;
#X connect 6 0 23 0;
#X connect 7 0 8 0;
#X connect 8 0 16 0;
#X connect 9 0 15 0;
#X connect 10 0 9 0;
#X connect 11 0 16 1;
#X connect 12 0 7 0;
#X connect 13 0 10 0;
#X connect 14 0 15 1;
#X connect 15 0 18 0;
#X connect 16 0 17 0;
#X connect 17 0 4 0;
#X connect 18 0 4 1;
#X connect 19 0 22 0;
#X connect 19 1 14 0;
#X connect 20 0 5 0;
#X connect 21 0 25 0;
#X connect 22 0 26 0;
#X connect 23 0 20 0;
#X connect 23 1 21 0;
#X connect 23 2 11 0;
#X connect 23 3 19 0;
#X connect 25 0 12 1;
#X connect 26 0 13 1;
#X connect 27 0 28 0;
#X connect 28 0 24 0;
#X restore 23 935 pd cursor2;
#N canvas 0 50 629 675 cursor1 0;
#X obj 29 20 inlet;
#X obj 140 146 sin;
#X obj 303 136 cos;
#X msg 141 429 pos \$1 \$2;
#X obj 142 399 pack f f;
#X obj 136 93 t f f;
#X obj 215 16 r \$0-w;
#X obj 127 248 * 0.5;
#X obj 125 286 + 100;
#X obj 277 302 + 100;
#X obj 277 273 * -0.5;
#X obj 204 236 * 0.5;
#X obj 128 216 * 54;
#X obj 281 244 * 54;
#X obj 377 250 * 0.5;
#X obj 277 331 + 30;
#X obj 132 326 + 30;
#X obj 132 355 - 5;
#X obj 277 360 - 5;
#X obj 363 115 t f f;
#X obj 130 62 f;
#X obj 191 150 - 10;
#X obj 375 160 - 10;
#X obj 215 45 t b f f f;
#X obj 153 479 s \$0-cursor1;
#X obj 177 197 * 0.9;
#X obj 346 206 * 0.9;
#X obj 380 425 r \$0-cursor_color;
#X msg 380 454 color \$1 \$1;
#X connect 0 0 20 0;
#X connect 1 0 12 0;
#X connect 2 0 13 0;
#X connect 3 0 24 0;
#X connect 4 0 3 0;
#X connect 5 0 1 0;
#X connect 5 1 2 0;
#X connect 6 0 23 0;
#X connect 7 0 8 0;
#X connect 8 0 16 0;
#X connect 9 0 15 0;
#X connect 10 0 9 0;
#X connect 11 0 16 1;
#X connect 12 0 7 0;
#X connect 13 0 10 0;
#X connect 14 0 15 1;
#X connect 15 0 18 0;
#X connect 16 0 17 0;
#X connect 17 0 4 0;
#X connect 18 0 4 1;
#X connect 19 0 22 0;
#X connect 19 1 14 0;
#X connect 20 0 5 0;
#X connect 21 0 25 0;
#X connect 22 0 26 0;
#X connect 23 0 20 0;
#X connect 23 1 21 0;
#X connect 23 2 11 0;
#X connect 23 3 19 0;
#X connect 25 0 12 1;
#X connect 26 0 13 1;
#X connect 27 0 28 0;
#X connect 28 0 24 0;
#X restore 23 909 pd cursor1;
#X obj 452 938 outlet pressure;
#X obj 125 102 cnv 10 10 10 empty \$0-cursor1 empty 20 12 0 14 #000000
#404040 0;
#X obj 125 107 cnv 10 10 10 empty \$0-cursor2 empty 20 12 0 14 #000000
#404040 0;
#X obj 125 112 cnv 10 10 10 empty \$0-cursor3 empty 20 12 0 14 #000000
#404040 0;
#X obj 100 100 cnv 1 1 1 \$0-pos \$0-pos-rcv empty 20 12 0 14 #404040
#404040 0;
#X obj 37 706 -;
#X obj 12 628 t f f f;
#X obj 71 669 spigot 1;
#X obj 37 740 t f b;
#X msg 153 568 0;
#X msg 94 567 1;
#X obj 38 773 +;
#N canvas 0 50 450 300 colors 0;
#X obj 74 37 inlet;
#X obj 65 92 select 1 0;
#X obj 283 78 r \$0-back_color;
#X obj 428 286 r \$0-front_color;
#X msg 383 366 color -1.31586e+07 -1.31586e+07 -1.31586e+07;
#X msg 283 239 color -1.44745e+07 -1.44745e+07 -1.44745e+07;
#X msg 256 152 set color \$1 \$1 \$1;
#X msg 419 314 set color \$1 \$1 \$1;
#X msg 389 202 color \$1 \$1 \$1;
#X obj 323 487 s \$0-jog-rcv;
#X text 325 512 ext. feedback;
#X connect 0 0 1 0;
#X connect 1 0 4 0;
#X connect 1 1 5 0;
#X connect 2 0 6 0;
#X connect 2 0 8 0;
#X connect 3 0 7 0;
#X connect 4 0 9 0;
#X connect 5 0 9 0;
#X connect 6 0 5 0;
#X connect 7 0 4 0;
#X connect 8 0 9 0;
#X restore 236 521 pd colors;
#X obj 219 648 inlet;
#X obj 388 73 t b b;
#X obj 587 299 route add update remove pressure;
#X msg 398 436 1;
#N canvas 0 50 595 795 atan2 0;
#X obj 119 66 inlet;
#X obj 83 647 outlet;
#X obj 274 78 r \$0-pos;
#X obj 272 113 unpack f f;
#X obj 65 214 -;
#X obj 218 182 -;
#X obj 108 143 unpack f f f;
#X obj 157 233 r \$0-w;
#X obj 63 289 / 60;
#X obj 297 307 / 60;
#X obj 90 380 - 0.5;
#X obj 336 248 r \$0-w;
#X obj 292 340 - 0.5;
#X obj 293 376 * -1;
#X obj 80 562 atan2;
#X connect 0 0 6 0;
#X connect 2 0 3 0;
#X connect 3 0 4 1;
#X connect 3 1 5 1;
#X connect 4 0 8 0;
#X connect 5 0 9 0;
#X connect 6 0 4 0;
#X connect 6 1 5 0;
#X connect 7 0 8 1;
#X connect 8 0 10 0;
#X connect 9 0 12 0;
#X connect 10 0 14 0;
#X connect 11 0 9 1;
#X connect 12 0 13 0;
#X connect 13 0 14 1;
#X connect 14 0 1 0;
#X restore 88 437 pd atan2;
#X obj 605 492 atan2;
#X obj 600 447 t l b;
#X obj 222 476 t f f f;
#X obj 84 378 t l b;
#X msg 458 884 50;
#X obj 1113 163 s pd-knob_properties(\$0);
#N canvas 1087 275 437 475 knob_properties(\$0) 0;
#X obj 6 4 cnv 15 400 450 empty empty empty 20 12 0 14 #e0e0e0 #404040
0;
#X floatatom 146 14 5 0 0 0 size \$0-w-rcv \$0-w 0;
#X obj 342 318 bng 40 250 50 0 \$0-ok empty OK 5 20 0 20 #c4fcc4 #000000
#000000;
#X symbolatom 91 108 30 0 0 0 send_to \$0-name-rcv \$0-name 0;
#X text 22 77 Messages;
#N canvas 0 0 450 300 todo 0;
#X obj 24 70 cnv 15 200 80 empty empty TODO 20 12 0 14 #fcfcc4 #404040
0;
#X floatatom 130 90 5 0 0 0 text_color \$0-cc-rcv \$0-cc-snd 0;
#N canvas 0 50 450 300 (subpatch) 0;
#X obj 100 100 cnv 20 20 20 empty \$0-cc_cnv-rcv empty 20 12 0 14 #000000
#404040 0;
#X msg 170 104 color \$1 \$1;
#X obj 170 75 r \$0-cursor_color;
#X obj 170 132 s \$0-cc_cnv-rcv;
#X connect 1 0 3 0;
#X connect 2 0 1 0;
#X coords 0 -1 1 1 20 20 2 100 100;
#X restore 200 92 pd;
#X floatatom 130 120 5 0 0 0 text_size - - 0;
#X restore 321 418 pd todo;
#X floatatom 281 385 5 0 0 0 z-offset \$0-z_offset-rcv \$0-z_offset
0;
#X text 25 333 MobMuPlat Widget Export;
#X obj 157 385 tgl 20 0 \$0-z_offset \$0-z_offset-rcv MoveOnTop -100
8 0 16 #fcfcfc #000000 #000000 0 99;
#X obj 157 365 tgl 20 0 \$0-invisible \$0-invisible-rcv Transparency
-130 8 0 16 #fcfcfc #000000 #000000 0 1;
#X obj 183 365 hsl 60 20 1 0 0 0 \$0-invisible \$0-invisible-rcv empty
-2 -8 0 10 #fcfcfc #000000 #000000 0 1;
#X text 250 361 Opacity;
#X floatatom 146 44 5 1 999 0 range \$0-range-rcv \$0-range 0;
#X text 218 43 (1:continuous);
#X text 221 70 (>=2:steps);
#X text 223 196 back_color;
#X text 221 236 front_color;
#X text 221 276 cursor_color;
#N canvas 412 187 1049 632 color_picker 0;
#X obj 53 150 hsl 128 12 0 255 0 0 empty empty empty -2 -8 0 10 #dcdcdc
#fc0400 #000000 0 0;
#X obj 53 162 hsl 128 12 0 255 0 0 empty empty empty -2 -8 0 10 #dcdcdc
#00fc04 #000000 0 0;
#X obj 53 174 hsl 128 12 0 255 0 0 empty empty empty -2 -8 0 10 #dcdcdc
#0400fc #000000 0 0;
#X obj 183 150 tgl 36 0 empty empty empty 17 7 0 10 #dcdcdc #dcdcdc
#dcdcdc 0 1;
#N canvas 0 50 498 451 convert2rgb 0;
#X obj 53 112 * -1;
#X obj 54 81 + 1;
#X obj 180 183 mod 256;
#X obj 51 179 div 256;
#X obj 52 143 t f f, f 13;
#X obj 49 210 t f f;
#X obj 48 248 div 256;
#X obj 132 250 mod 256;
#X obj 54 51 inlet;
#X obj 49 317 outlet;
#X obj 129 317 outlet;
#X obj 209 317 outlet;
#X connect 0 0 4 0;
#X connect 1 0 0 0;
#X connect 2 0 11 0;
#X connect 3 0 5 0;
#X connect 4 0 3 0;
#X connect 4 1 2 0;
#X connect 5 0 6 0;
#X connect 5 1 7 0;
#X connect 6 0 9 0;
#X connect 7 0 10 0;
#X connect 8 0 1 0;
#X restore 58 76 pd convert2rgb;
#X msg 286 149 color \$1 \$1 \$1;
#X msg 57 112 set \$1;
#X msg 141 109 set \$1;
#X msg 234 111 set \$1;
#X obj 83 332 t b f;
#X obj 144 333 t b f;
#X obj 149 291 i;
#X obj 104 292 i;
#X obj 61 294 i;
#X obj 67 410 expr ($f1*(-65536)+$f2*(-256)+$f3*(-1))-1;
#X obj 66 372 pack f f f;
#X obj 58 14 r \$0-back_color;
#X obj 97 549 s \$0-back_color;
#X obj 58 45 spigot 1;
#X obj 67 457 t b f b;
#X msg 134 495 0;
#X msg 67 486 1;
#X connect 0 0 13 0;
#X connect 1 0 12 0;
#X connect 2 0 11 0;
#X connect 4 0 6 0;
#X connect 4 1 7 0;
#X connect 4 2 8 0;
#X connect 5 0 3 0;
#X connect 6 0 0 0;
#X connect 7 0 1 0;
#X connect 8 0 2 0;
#X connect 9 0 15 0;
#X connect 9 1 15 1;
#X connect 10 0 15 0;
#X connect 10 1 15 2;
#X connect 11 0 10 0;
#X connect 12 0 9 0;
#X connect 13 0 15 0;
#X connect 14 0 19 0;
#X connect 15 0 14 0;
#X connect 16 0 5 0;
#X connect 16 0 18 0;
#X connect 18 0 4 0;
#X connect 19 0 21 0;
#X connect 19 1 17 0;
#X connect 19 2 20 0;
#X connect 20 0 18 1;
#X connect 21 0 18 1;
#X coords 0 -1 1 1 169 36 2 50 150;
#X restore 37 191 pd color_picker;
#N canvas 882 181 1049 632 color_picker 0;
#X obj 53 150 hsl 128 12 0 255 0 0 empty empty empty -2 -8 0 10 #dcdcdc
#fc0400 #000000 0 0;
#X obj 53 162 hsl 128 12 0 255 0 0 empty empty empty -2 -8 0 10 #dcdcdc
#00fc04 #000000 0 0;
#X obj 53 174 hsl 128 12 0 255 0 0 empty empty empty -2 -8 0 10 #dcdcdc
#0400fc #000000 0 0;
#X obj 183 150 tgl 36 0 empty empty empty 17 7 0 10 #c8c8c8 #c8c8c8
#c8c8c8 0 1;
#N canvas 0 50 498 451 convert2rgb 0;
#X obj 53 112 * -1;
#X obj 54 81 + 1;
#X obj 180 183 mod 256;
#X obj 51 179 div 256;
#X obj 52 143 t f f, f 13;
#X obj 49 210 t f f;
#X obj 48 248 div 256;
#X obj 132 250 mod 256;
#X obj 54 51 inlet;
#X obj 49 317 outlet;
#X obj 129 317 outlet;
#X obj 209 317 outlet;
#X connect 0 0 4 0;
#X connect 1 0 0 0;
#X connect 2 0 11 0;
#X connect 3 0 5 0;
#X connect 4 0 3 0;
#X connect 4 1 2 0;
#X connect 5 0 6 0;
#X connect 5 1 7 0;
#X connect 6 0 9 0;
#X connect 7 0 10 0;
#X connect 8 0 1 0;
#X restore 58 76 pd convert2rgb;
#X msg 286 149 color \$1 \$1 \$1;
#X msg 57 112 set \$1;
#X msg 141 109 set \$1;
#X msg 234 111 set \$1;
#X obj 83 332 t b f;
#X obj 144 333 t b f;
#X obj 149 291 i;
#X obj 104 292 i;
#X obj 61 294 i;
#X obj 67 410 expr ($f1*(-65536)+$f2*(-256)+$f3*(-1))-1;
#X obj 66 372 pack f f f;
#X obj 58 45 spigot 1;
#X obj 67 457 t b f b;
#X msg 134 495 0;
#X msg 67 486 1;
#X obj 58 14 r \$0-front_color;
#X obj 97 549 s \$0-front_color;
#X connect 0 0 13 0;
#X connect 1 0 12 0;
#X connect 2 0 11 0;
#X connect 4 0 6 0;
#X connect 4 1 7 0;
#X connect 4 2 8 0;
#X connect 5 0 3 0;
#X connect 6 0 0 0;
#X connect 7 0 1 0;
#X connect 8 0 2 0;
#X connect 9 0 15 0;
#X connect 9 1 15 1;
#X connect 10 0 15 0;
#X connect 10 1 15 2;
#X connect 11 0 10 0;
#X connect 12 0 9 0;
#X connect 13 0 15 0;
#X connect 14 0 17 0;
#X connect 15 0 14 0;
#X connect 16 0 4 0;
#X connect 17 0 19 0;
#X connect 17 1 21 0;
#X connect 17 2 18 0;
#X connect 18 0 16 1;
#X connect 19 0 16 1;
#X connect 20 0 5 0;
#X connect 20 0 16 0;
#X coords 0 -1 1 1 169 36 2 50 150;
#X restore 37 231 pd color_picker;
#N canvas 882 181 1049 632 color_picker 0;
#X obj 53 150 hsl 128 12 0 255 0 0 empty empty empty -2 -8 0 10 #dcdcdc
#fc0400 #000000 0 0;
#X obj 53 162 hsl 128 12 0 255 0 0 empty empty empty -2 -8 0 10 #dcdcdc
#00fc04 #000000 0 0;
#X obj 53 174 hsl 128 12 0 255 0 0 empty empty empty -2 -8 0 10 #dcdcdc
#0400fc #000000 0 0;
#X obj 183 150 tgl 36 0 empty empty empty 17 7 0 10 #000000 #000000
#000000 0 1;
#N canvas 0 50 498 451 convert2rgb 0;
#X obj 53 112 * -1;
#X obj 54 81 + 1;
#X obj 180 183 mod 256;
#X obj 51 179 div 256;
#X obj 52 143 t f f, f 13;
#X obj 49 210 t f f;
#X obj 48 248 div 256;
#X obj 132 250 mod 256;
#X obj 54 51 inlet;
#X obj 49 317 outlet;
#X obj 129 317 outlet;
#X obj 209 317 outlet;
#X connect 0 0 4 0;
#X connect 1 0 0 0;
#X connect 2 0 11 0;
#X connect 3 0 5 0;
#X connect 4 0 3 0;
#X connect 4 1 2 0;
#X connect 5 0 6 0;
#X connect 5 1 7 0;
#X connect 6 0 9 0;
#X connect 7 0 10 0;
#X connect 8 0 1 0;
#X restore 58 76 pd convert2rgb;
#X msg 286 149 color \$1 \$1 \$1;
#X msg 57 112 set \$1;
#X msg 141 109 set \$1;
#X msg 234 111 set \$1;
#X obj 83 332 t b f;
#X obj 144 333 t b f;
#X obj 149 291 i;
#X obj 104 292 i;
#X obj 61 294 i;
#X obj 67 410 expr ($f1*(-65536)+$f2*(-256)+$f3*(-1))-1;
#X obj 66 372 pack f f f;
#X obj 58 45 spigot 1;
#X obj 67 457 t b f b;
#X msg 134 495 0;
#X msg 67 486 1;
#X obj 58 14 r \$0-cursor_color;
#X obj 97 549 s \$0-cursor_color;
#X connect 0 0 13 0;
#X connect 1 0 12 0;
#X connect 2 0 11 0;
#X connect 4 0 6 0;
#X connect 4 1 7 0;
#X connect 4 2 8 0;
#X connect 5 0 3 0;
#X connect 6 0 0 0;
#X connect 7 0 1 0;
#X connect 8 0 2 0;
#X connect 9 0 15 0;
#X connect 9 1 15 1;
#X connect 10 0 15 0;
#X connect 10 1 15 2;
#X connect 11 0 10 0;
#X connect 12 0 9 0;
#X connect 13 0 15 0;
#X connect 14 0 17 0;
#X connect 15 0 14 0;
#X connect 16 0 4 0;
#X connect 17 0 19 0;
#X connect 17 1 21 0;
#X connect 17 2 18 0;
#X connect 18 0 16 1;
#X connect 19 0 16 1;
#X connect 20 0 5 0;
#X connect 20 0 16 0;
#X coords 0 -1 1 1 169 36 2 50 150;
#X restore 38 271 pd color_picker;
#X obj 92 135 cnv 15 300 20 empty \$0-receive_name-rcv Untitled_1*-rcv
2 10 0 16 #f0fcf8 #404040 0;
#X text 17 133 receive;
#X restore 1115 196 pd knob_properties(\$0);
#X obj 189 806 t f f;
#X obj 15 868 t f;
#N canvas 0 0 644 532 range/min/max 0;
#X obj 100 4 inlet;
#X obj 65 256 outlet;
#X obj 120 94 moses -2.5;
#X obj 196 131 moses 2.5;
#X obj 169 186 t f f;
#X obj 338 500 outlet;
#X text 88 223 feedback;
#X obj 294 183 / 5;
#X obj 299 221 + 0.5;
#X obj 370 156 r \$0-range;
#X obj 453 430 int;
#X obj 452 399 + 0.5;
#X obj 385 214 - 1;
#X obj 306 269 list prepend 0;
#X obj 306 302 route 0;
#X obj 448 368 * 1;
#X msg 418 335 \$2;
#X obj 213 498 outlet;
#X obj 280 351 / 1;
#X obj 395 -2 inlet set;
#X obj 598 16 r \$0-range;
#X obj 639 56 - 1;
#X obj 564 145 list prepend 0;
#X obj 559 177 route 0;
#X obj 623 242 /;
#X msg 622 213 \$2 \$1;
#X obj 623 271 - 0.5;
#X obj 210 388 - 0.5;
#X obj 616 308 * 5;
#X obj 210 417 * 5;
#X obj 472 73 min 1;
#X obj 570 72 max 1;
#X obj 386 33 route float set;
#X obj 606 337 t f f f;
#X obj 394 91 f;
#X obj 386 62 t b f;
#X obj 471 104 max 0;
#X obj 392 130 change;
#X connect 0 0 2 0;
#X connect 2 1 3 0;
#X connect 3 0 4 0;
#X connect 4 0 1 0;
#X connect 4 1 7 0;
#X connect 7 0 8 0;
#X connect 8 0 13 0;
#X connect 9 0 12 0;
#X connect 10 0 5 0;
#X connect 10 0 18 0;
#X connect 11 0 10 0;
#X connect 12 0 13 1;
#X connect 12 0 15 1;
#X connect 12 0 18 1;
#X connect 13 0 14 0;
#X connect 14 0 5 0;
#X connect 14 0 27 0;
#X connect 14 1 16 0;
#X connect 15 0 11 0;
#X connect 16 0 15 0;
#X connect 18 0 27 0;
#X connect 19 0 32 0;
#X connect 20 0 21 0;
#X connect 21 0 22 1;
#X connect 21 0 31 0;
#X connect 22 0 23 0;
#X connect 23 0 26 0;
#X connect 23 1 25 0;
#X connect 24 0 26 0;
#X connect 25 0 24 0;
#X connect 26 0 28 0;
#X connect 27 0 29 0;
#X connect 28 0 33 0;
#X connect 29 0 17 0;
#X connect 30 0 36 0;
#X connect 31 0 30 1;
#X connect 32 0 35 0;
#X connect 32 1 30 0;
#X connect 33 0 17 0;
#X connect 33 1 1 0;
#X connect 34 0 37 0;
#X connect 35 0 34 0;
#X connect 35 1 30 0;
#X connect 36 0 34 1;
#X connect 36 0 22 0;
#X connect 37 0 5 0;
#X restore 96 773 pd range/min/max;
#X text 729 914 touch;
#N canvas 0 57 1920 1023 mmp-export-asMMPKnob 0;
#X obj 43 233 r \$0-x;
#X obj 156 312 r \$0-y;
#X obj 31 266 f;
#X obj 374 197 r \$0-range;
#X obj 787 273 r \$0-a;
#X obj 1140 290 r \$0-ha;
#X obj 134 657 list append 125;
#X obj 134 635 list prepend add 123;
#X obj 147 699 list trim;
#X obj 147 721 s MMP_BINFILE;
#X obj 135 125 v MMP_FIRST_GUI_ITEM;
#X obj 135 160 select 1;
#X msg 425 597 add 44 123;
#X msg 329 596 add 123;
#X msg 137 199 0;
#X obj 136 237 v MMP_FIRST_GUI_ITEM;
#X obj 236 308 r \$0-w;
#X obj 605 582 int;
#X obj 425 431 iemguts/canvasposition 1;
#X obj 502 498 s \$0-y;
#X obj 390 488 s \$0-x;
#X obj 425 460 unpack f f;
#X obj 83 373 pack f f f f 1 s f f f 1 f f f 1, f 105;
#X obj 66 586 list fromsymbol;
#X obj 186 197 r MOB_ZOOM;
#X obj 86 344 * 1;
#X obj 161 345 * 1;
#X obj 239 343 * 1;
#N canvas 278 130 450 300 MMP_EXPORT_BY_INDEX 0;
#X obj 151 40 r MMP_EXPORT_BY_INDEX;
#X obj 146 268 outlet;
#X text 38 6 enable z-order;
#X obj 151 69 t f b;
#X obj 203 96 canvasindex 2;
#X obj 146 235 select;
#X obj 202 145 + 0;
#X obj 249 126 r \$0-z_offset;
#X obj 202 174 max 0;
#X obj 202 203 min 1;
#X obj 298 171 - 1;
#X connect 0 0 3 0;
#X connect 3 0 5 0;
#X connect 3 1 4 0;
#X connect 4 0 6 0;
#X connect 4 1 10 0;
#X connect 5 0 1 0;
#X connect 6 0 8 0;
#X connect 7 0 6 1;
#X connect 8 0 9 0;
#X connect 9 0 5 1;
#X connect 10 0 9 1;
#X restore 26 21 pd MMP_EXPORT_BY_INDEX;
#X obj 1102 97 r \$0-invisible;
#X obj 1102 126 - 1;
#X obj 1102 155 * -1;
#X obj 68 53 t b b b b b;
#X msg 344 733 "address":"/knob1" \, "highlightColor":[1 \, 0 \, 0
\, 1] \, "color":[0.5679013 \, 1 \, 0.617376 \, 1] \, "frame":[148.832
\, 353.074 \, 160 \, 160] \, "indicatorColor":[0.254902 \, 0.333333
\, 0.352941 \, 1] \, "range":8 \, "class":"MMPKnob";
#X obj 549 195 r \$0-name;
#X symbolatom 556 229 10 0 0 0 - - - 0;
#X obj 1245 237 v WIDGET-ID;
#X obj 1245 262 + 1;
#X obj 1245 287 s WIDGET-ID;
#X obj 435 231 r WIDGET-ID;
#X obj 437 262 list append;
#X msg 437 291 symbol \$1.\$2;
#X msg 51 409 symbol "highlightColor":[\$11\\\,\$12\\\,\$13\\\,\$14]\\\,"address":"\$6"\\\,"color":[\$7\\\,\$8\\\,\$9\\\,\$10]\\\,"class":"MMPKnob"\\\,"frame":[\$1\\\,\$2\\\,\$3\\\,\$4]\\\,"range":\$5\\\,"indicatorColor":[0\\\,0\\\,0\\\,\$14]
, f 32;
#X obj 562 236 r \$0-back_color;
#N canvas 0 50 534 640 canvas_color_to_rgb 0;
#X obj 119 35 inlet;
#X obj 121 96 + 1;
#X obj 121 125 * -1;
#X obj 134 159 t f f f;
#X obj 45 193 / 65536;
#X obj 163 194 / 256;
#X obj 247 197 mod 256;
#X obj 163 223 mod 256;
#X obj 45 222 int;
#X obj 45 251 / 255;
#X obj 163 252 / 255;
#X obj 247 226 / 255;
#X obj 40 283 outlet;
#X obj 164 285 outlet;
#X obj 254 283 outlet;
#X connect 0 0 1 0;
#X connect 1 0 2 0;
#X connect 2 0 3 0;
#X connect 3 0 4 0;
#X connect 3 1 5 0;
#X connect 3 2 6 0;
#X connect 4 0 8 0;
#X connect 5 0 7 0;
#X connect 6 0 11 0;
#X connect 7 0 10 0;
#X connect 8 0 9 0;
#X connect 9 0 12 0;
#X connect 10 0 13 0;
#X connect 11 0 14 0;
#X restore 551 296 pd canvas_color_to_rgb;
#N canvas 0 50 534 640 canvas_color_to_rgb 0;
#X obj 119 35 inlet;
#X obj 121 96 + 1;
#X obj 121 125 * -1;
#X obj 134 159 t f f f;
#X obj 45 193 / 65536;
#X obj 163 194 / 256;
#X obj 247 197 mod 256;
#X obj 163 223 mod 256;
#X obj 45 222 int;
#X obj 45 251 / 255;
#X obj 163 252 / 255;
#X obj 247 226 / 255;
#X obj 40 283 outlet;
#X obj 164 285 outlet;
#X obj 254 283 outlet;
#X connect 0 0 1 0;
#X connect 1 0 2 0;
#X connect 2 0 3 0;
#X connect 3 0 4 0;
#X connect 3 1 5 0;
#X connect 3 2 6 0;
#X connect 4 0 8 0;
#X connect 5 0 7 0;
#X connect 6 0 11 0;
#X connect 7 0 10 0;
#X connect 8 0 9 0;
#X connect 9 0 12 0;
#X connect 10 0 13 0;
#X connect 11 0 14 0;
#X restore 865 291 pd canvas_color_to_rgb;
#X obj 856 243 r \$0-front_color;
#X obj 124 274 t f b f b f;
#N canvas 396 91 1101 721 export_args 0;
#X obj 371 334 iemguts/canvasargs 2;
#X obj 275 58 inlet;
#X text 210 598 on target platform \, mob/hfader get all args;
#X obj 376 77 r \$0-name;
#X obj 361 128 symbol;
#X obj 361 157 t s s;
#X msg 401 188 symbol \$1-rcv;
#X obj 481 118 r WIDGET-ID;
#X obj 369 232 pack s s f f;
#X obj 633 75 r \$0-name;
#X obj 612 151 iem_receive;
#X msg 633 104 set \$1;
#X obj 612 193 route float;
#X connect 1 0 4 0;
#X connect 3 0 4 1;
#X connect 4 0 5 0;
#X connect 5 0 8 0;
#X connect 5 1 6 0;
#X connect 6 0 8 1;
#X connect 7 0 8 2;
#X connect 8 0 0 0;
#X connect 9 0 11 0;
#X connect 10 0 12 0;
#X connect 11 0 10 0;
#X connect 12 0 8 3;
#X restore 1456 401 pd export_args;
#X connect 0 0 2 1;
#X connect 1 0 26 0;
#X connect 2 0 25 0;
#X connect 3 0 22 4;
#X connect 6 0 8 0;
#X connect 7 0 6 0;
#X connect 8 0 9 0;
#X connect 10 0 11 0;
#X connect 11 0 13 0;
#X connect 11 0 14 0;
#X connect 11 1 12 0;
#X connect 12 0 7 1;
#X connect 13 0 7 1;
#X connect 14 0 15 0;
#X connect 16 0 27 0;
#X connect 18 0 21 0;
#X connect 21 0 20 0;
#X connect 21 1 19 0;
#X connect 22 0 42 0;
#X connect 23 0 7 0;
#X connect 24 0 47 0;
#X connect 25 0 22 0;
#X connect 26 0 22 1;
#X connect 27 0 22 2;
#X connect 27 0 22 3;
#X connect 28 0 32 0;
#X connect 29 0 30 0;
#X connect 30 0 31 0;
#X connect 31 0 22 13;
#X connect 31 0 22 9;
#X connect 32 0 2 0;
#X connect 32 1 10 0;
#X connect 32 2 48 0;
#X connect 32 3 18 0;
#X connect 32 4 36 0;
#X connect 34 0 35 0;
#X connect 34 0 40 1;
#X connect 36 0 37 0;
#X connect 37 0 38 0;
#X connect 39 0 40 0;
#X connect 40 0 41 0;
#X connect 41 0 22 5;
#X connect 42 0 23 0;
#X connect 43 0 44 0;
#X connect 44 0 22 6;
#X connect 44 1 22 7;
#X connect 44 2 22 8;
#X connect 45 0 22 10;
#X connect 45 1 22 11;
#X connect 45 2 22 12;
#X connect 46 0 45 0;
#X connect 47 0 25 1;
#X connect 47 1 26 0;
#X connect 47 2 26 1;
#X connect 47 3 27 0;
#X connect 47 4 27 1;
#X restore 1110 344 pd mmp-export-asMMPKnob;
#N canvas 221 190 884 529 receive_MULTITOUCH.MODE2.parent\$0 0;
#X msg 176 71 bang;
#X obj 254 70 loadbang;
#X obj 230 430 outlet;
#X obj 181 104 iemguts/canvasdollarzero 2;
#N canvas 0 50 450 213 \$0-dynamic-receiver 0;
#X obj 10 10 r MULTITOUCH.MODE2.1156;
#X obj 10 50 s 1161-iem_receive;
#X connect 0 0 1 0;
#X restore 222 306 pd \$0-dynamic-receiver;
#X obj 219 147 pack s \$0;
#X obj 220 227 s pd-\$0-dynamic-receiver;
#X obj 230 395 r \$0-iem_receive;
#X msg 121 193 clear;
#X text 25 17 création dynamique d'un receiver avec un nom de canal
défini au moment de l'ouverture du patch;
#X msg 220 179 clear \, obj 10 10 r MULTITOUCH.MODE2.\$1 \, obj 10
50 s \$2-iem_receive \, connect 0 0 1 0;
#X text 423 381 A chaque nouvel événement touch-down \, [r MULTITOUCH.MODE2.\$1]
recoit un message sous la forme suivante : <x> <y> <slotID>, f 37
;
#X connect 0 0 3 0;
#X connect 1 0 3 0;
#X connect 3 0 5 0;
#X connect 5 0 10 0;
#X connect 7 0 2 0;
#X connect 8 0 6 0;
#X connect 10 0 6 0;
#X restore 596 219 pd receive_MULTITOUCH.MODE2.parent\$0;
#N canvas 828 0 1149 924 touch_listener 0;
#X obj 56 42 inlet;
#X obj 44 629 select 1;
#X obj 46 691 pack f f;
#X obj 44 659 f \$0;
#X obj 73 771 tabwrite MULTITOUCH.SLOT.STATUS;
#X obj 42 811 list append, f 14;
#X obj 58 127 spigot 1;
#X msg 267 61 0;
#X msg 212 102 1;
#X obj 392 33 r \$0-channel;
#X obj 393 67 route remove update;
#X obj 185 263 tabread MULTITOUCH.SLOT.STATUS;
#X obj 58 163 list split 2;
#X obj 52 333 spigot;
#X obj 185 322 == 0;
#X text 193 294 check if slot still free;
#X obj 152 221 t f f f;
#X obj 596 555 pack f f;
#X obj 46 728 t b l b l b;
#X obj 181 611 pack f f;
#X obj 54 478 t f f;
#X obj 382 103 t b b b b;
#X obj 306 818 list append 0 0;
#X obj 39 930 outlet;
#X msg 27 856 add \$1 \$2;
#X msg 149 859 update \$1 \$2;
#X msg 309 862 remove \$1 \$2;
#X text 777 42 la table MULTITOUCH.SLOT.STATUS indique si chaque slot
(tracker de touch-event) est associé ou non à un élément GUI multitouch.
Si tel est le cas \, l'éĺément i de la table associé au slot i
prend la valeur \$0 du touch_listener auquel il est associé, f 33
;
#X obj 210 469 t f f;
#N canvas 0 50 450 300 Is_inside_Gui_object? 0;
#X obj 53 38 inlet;
#X obj 225 38 inlet;
#X obj 59 266 outlet;
#X obj 53 130 - 100;
#X obj 222 126 - 100;
#X obj 48 166 abs;
#X obj 222 157 abs;
#X obj 47 198 < 100;
#X obj 219 192 < 100;
#X obj 55 231 &&;
#X obj 145 72 / 2;
#X obj 309 63 / 2;
#X obj 139 42 r \$0-w;
#X obj 309 39 r \$0-h;
#X connect 0 0 3 0;
#X connect 1 0 4 0;
#X connect 3 0 5 0;
#X connect 4 0 6 0;
#X connect 5 0 7 0;
#X connect 6 0 8 0;
#X connect 7 0 9 0;
#X connect 8 0 9 1;
#X connect 9 0 2 0;
#X connect 10 0 3 1;
#X connect 10 0 7 1;
#X connect 11 0 4 1;
#X connect 11 0 8 1;
#X connect 12 0 10 0;
#X connect 13 0 11 0;
#X restore 46 541 pd Is_inside_Gui_object?;
#X f 10;
#N canvas 0 50 450 271 Gui_object_relative_coords 0;
#X obj 57 45 inlet;
#X obj 75 261 outlet;
#X obj 232 264 outlet;
#X obj 196 83 unpack f f;
#X obj 64 144 -;
#X obj 225 142 -;
#X obj 59 100 unpack f f;
#X obj 200 53 r \$0-pos;
#X connect 0 0 6 0;
#X connect 3 0 4 1;
#X connect 3 1 5 1;
#X connect 4 0 1 0;
#X connect 5 0 2 0;
#X connect 6 0 4 0;
#X connect 6 1 5 0;
#X connect 7 0 3 0;
#X restore 50 375 pd Gui_object_relative_coords;
#X f 13;
#N canvas 0 50 450 300 Normalize_coords 0;
#X obj 48 31 inlet;
#X obj 318 31 inlet;
#X obj 38 241 outlet;
#X obj 308 241 outlet;
#X obj 47 145 /;
#X obj 318 106 /;
#X obj 339 157 * -1;
#X obj 160 54 r \$0-w;
#X obj 398 58 r \$0-h;
#X obj 42 194 - 0.5;
#X obj 339 185 + 0.5;
#X connect 0 0 4 0;
#X connect 1 0 5 0;
#X connect 4 0 9 0;
#X connect 5 0 6 0;
#X connect 6 0 10 0;
#X connect 7 0 4 1;
#X connect 8 0 5 1;
#X connect 9 0 2 0;
#X connect 10 0 3 0;
#X restore 178 539 pd Normalize_coords;
#X f 10;
#N canvas 0 50 450 300 Gui_object_relative_coords 0;
#X obj 57 45 inlet;
#X obj 75 261 outlet;
#X obj 232 264 outlet;
#X obj 196 83 unpack f f;
#X obj 64 144 -;
#X obj 225 142 -;
#X obj 59 100 unpack f f;
#X obj 200 53 r \$0-pos;
#X connect 0 0 6 0;
#X connect 3 0 4 1;
#X connect 3 1 5 1;
#X connect 4 0 1 0;
#X connect 5 0 2 0;
#X connect 6 0 4 0;
#X connect 6 1 5 0;
#X connect 7 0 3 0;
#X restore 591 408 pd Gui_object_relative_coords;
#X f 13;
#N canvas 0 50 450 300 Normalize_coords 0;
#X obj 48 31 inlet;
#X obj 318 31 inlet;
#X obj 38 241 outlet;
#X obj 308 241 outlet;
#X obj 47 145 /;
#X obj 318 106 /;
#X obj 339 157 * -1;
#X obj 160 54 r \$0-w;
#X obj 398 58 r \$0-h;
#X obj 42 194 - 0.5;
#X obj 339 185 + 0.5;
#X connect 0 0 4 0;
#X connect 1 0 5 0;
#X connect 4 0 9 0;
#X connect 5 0 6 0;
#X connect 6 0 10 0;
#X connect 7 0 4 1;
#X connect 8 0 5 1;
#X connect 9 0 2 0;
#X connect 10 0 3 0;
#X restore 592 487 pd Normalize_coords;
#X f 10;
#X obj 594 615 t l l;
#X text 399 764 associe le slot i de la table MULTITOUCH.SLOT.STATUS
au \$0 du présent touch_listener, f 52;
#X floatatom 110 211 5 0 0 0 - - - 0;
#X connect 0 0 6 0;
#X connect 1 0 3 0;
#X connect 2 0 18 0;
#X connect 3 0 2 0;
#X connect 5 0 24 0;
#X connect 6 0 12 0;
#X connect 7 0 6 1;
#X connect 8 0 6 1;
#X connect 9 0 10 0;
#X connect 10 0 21 0;
#X connect 10 1 32 0;
#X connect 10 2 23 0;
#X connect 11 0 14 0;
#X connect 12 0 13 0;
#X connect 12 1 16 0;
#X connect 12 1 36 0;
#X connect 13 0 30 0;
#X connect 14 0 13 1;
#X connect 16 0 2 1;
#X connect 16 1 11 0;
#X connect 17 0 34 0;
#X connect 18 0 5 0;
#X connect 18 1 4 0;
#X connect 18 2 7 0;
#X connect 19 0 5 1;
#X connect 19 0 22 1;
#X connect 20 0 29 0;
#X connect 20 1 31 0;
#X connect 21 0 8 0;
#X connect 21 1 22 0;
#X connect 22 0 26 0;
#X connect 24 0 23 0;
#X connect 25 0 23 0;
#X connect 26 0 23 0;
#X connect 28 0 29 1;
#X connect 28 1 31 1;
#X connect 29 0 1 0;
#X connect 30 0 20 0;
#X connect 30 1 28 0;
#X connect 31 0 19 0;
#X connect 31 1 19 1;
#X connect 32 0 33 0;
#X connect 32 1 33 1;
#X connect 33 0 17 0;
#X connect 33 1 17 1;
#X connect 34 0 25 0;
#X connect 34 1 22 1;
#X restore 599 251 pd touch_listener;
#X obj 644 58 r MULTITOUCH.ACTIVESLOTS;
#X obj 644 82 select 0;
#X msg 302 611 symbol \$1;
#N canvas 0 50 1026 300 dynamic-receiver2 0;
#X obj 230 430 outlet;
#X obj 131 69 inlet;
#X obj 118 179 s pd-\$0-dynamic-receiver2;
#N canvas 0 50 450 126 \$0-dynamic-receiver2 0;
#X obj 10 10 r Untitled_1*;
#X obj 10 50 s 1103-iem_receive2;
#X connect 0 0 1 0;
#X restore 120 258 pd \$0-dynamic-receiver2;
#X obj 124 100 pack s \$0;
#X obj 128 347 r \$0-iem_receive2;
#X msg 118 131 clear \, obj 10 10 r \$1 \, obj 10 50 s \$2-iem_receive2
\, connect 0 0 1 0;
#X connect 1 0 4 0;
#X connect 4 0 6 0;
#X connect 5 0 0 0;
#X connect 6 0 2 0;
#X restore 295 645 pd dynamic-receiver2;
#X obj 216 147 r \$0-editmode;
#X obj 312 91 s \$0-editmode;
#N canvas 206 314 1920 1023 init/savestate 0;
#X obj 157 396 savestate;
#X obj 142 227 v \$0-w;
#X obj 157 425 list trim;
#X obj 152 128 r \$0-save;
#X obj 163 350 list;
#X obj 158 665 s \$0-w;
#X obj 19 152 loadbang;
#X obj 19 226 spigot 1;
#X msg 88 196 0;
#X obj 742 610 s \$0-name;
#X obj 1381 166 symbol;
#X obj 1438 133 r \$0-name;
#X msg 1386 246 -name \$1;
#X obj 744 577 symbol;
#X obj 872 246 v \$0-z_offset;
#X obj 1051 602 s \$0-z_offset;
#X obj 1060 256 v \$0-invisible;
#X obj 1219 597 s \$0-invisible;
#X msg 1050 307 -invisible \$1;
#X msg 888 285 -z_offset \$1;
#X msg 139 305 -size \$1;
#X obj 239 671 s \$0-h;
#X obj 1240 256 v \$0-range;
#X msg 1230 307 -range \$1;
#X obj 1382 591 s \$0-range;
#X obj 332 224 v \$0-back_color;
#X obj 384 661 s \$0-back_color;
#N canvas 0 50 540 413 convert 0;
#X obj 167 29 inlet;
#X obj 165 86 route float list;
#X obj 243 251 * -1;
#X obj 243 119 unpack f f f, f 17;
#X obj 243 285 - 1;
#X obj 326 153 * 256;
#X obj 243 153 * 65536;
#X obj 326 187 +;
#X obj 243 217 +;
#X obj 165 338 outlet;
#X connect 0 0 1 0;
#X connect 1 0 9 0;
#X connect 1 1 3 0;
#X connect 2 0 4 0;
#X connect 3 0 6 0;
#X connect 3 1 5 0;
#X connect 3 2 7 1;
#X connect 4 0 9 0;
#X connect 5 0 7 0;
#X connect 6 0 8 0;
#X connect 7 0 8 1;
#X connect 8 0 2 0;
#X restore 384 591 pd convert;
#N canvas 0 50 498 451 convert2rgb 0;
#X obj 53 112 * -1;
#X obj 54 81 + 1;
#X obj 180 181 mod 256;
#X obj 51 179 div 256;
#X obj 52 143 t f f, f 13;
#X obj 49 210 t f f;
#X obj 48 248 div 256;
#X obj 132 250 mod 256;
#X obj 49 288 pack f f f;
#X obj 54 51 inlet;
#X obj 49 317 outlet;
#X connect 0 0 4 0;
#X connect 1 0 0 0;
#X connect 2 0 8 2;
#X connect 3 0 5 0;
#X connect 4 0 3 0;
#X connect 4 1 2 0;
#X connect 5 0 6 0;
#X connect 5 1 7 0;
#X connect 6 0 8 0;
#X connect 7 0 8 1;
#X connect 8 0 10 0;
#X connect 9 0 1 0;
#X restore 329 254 pd convert2rgb;
#X msg 318 295 -back_color \$1 \$2 \$3;
#N canvas 0 50 498 451 convert2rgb 0;
#X obj 53 112 * -1;
#X obj 54 81 + 1;
#X obj 180 181 mod 256;
#X obj 51 179 div 256;
#X obj 52 143 t f f, f 13;
#X obj 49 210 t f f;
#X obj 48 248 div 256;
#X obj 132 250 mod 256;
#X obj 49 288 pack f f f;
#X obj 54 51 inlet;
#X obj 49 317 outlet;
#X connect 0 0 4 0;
#X connect 1 0 0 0;
#X connect 2 0 8 2;
#X connect 3 0 5 0;
#X connect 4 0 3 0;
#X connect 4 1 2 0;
#X connect 5 0 6 0;
#X connect 5 1 7 0;
#X connect 6 0 8 0;
#X connect 7 0 8 1;
#X connect 8 0 10 0;
#X connect 9 0 1 0;
#X restore 525 248 pd convert2rgb;
#N canvas 0 50 540 413 convert 0;
#X obj 167 29 inlet;
#X obj 165 86 route float list;
#X obj 243 251 * -1;
#X obj 243 119 unpack f f f, f 17;
#X obj 243 285 - 1;
#X obj 326 153 * 256;
#X obj 243 153 * 65536;
#X obj 326 187 +;
#X obj 243 217 +;
#X obj 165 338 outlet;
#X connect 0 0 1 0;
#X connect 1 0 9 0;
#X connect 1 1 3 0;
#X connect 2 0 4 0;
#X connect 3 0 6 0;
#X connect 3 1 5 0;
#X connect 3 2 7 1;
#X connect 4 0 9 0;
#X connect 5 0 7 0;
#X connect 6 0 8 0;
#X connect 7 0 8 1;
#X connect 8 0 2 0;
#X restore 514 571 pd convert;
#X obj 523 221 v \$0-front_color;
#X msg 520 285 -front_color \$1 \$2 \$3;
#X obj 514 610 s \$0-front_color;
#N canvas 0 50 498 451 convert2rgb 0;
#X obj 53 112 * -1;
#X obj 54 81 + 1;
#X obj 180 181 mod 256;
#X obj 51 179 div 256;
#X obj 52 143 t f f, f 13;
#X obj 49 210 t f f;
#X obj 48 248 div 256;
#X obj 132 250 mod 256;
#X obj 49 288 pack f f f;
#X obj 54 51 inlet;
#X obj 49 317 outlet;
#X connect 0 0 4 0;
#X connect 1 0 0 0;
#X connect 2 0 8 2;
#X connect 3 0 5 0;
#X connect 4 0 3 0;
#X connect 4 1 2 0;
#X connect 5 0 6 0;
#X connect 5 1 7 0;
#X connect 6 0 8 0;
#X connect 7 0 8 1;
#X connect 8 0 10 0;
#X connect 9 0 1 0;
#X restore 752 377 pd convert2rgb;
#X obj 755 347 v \$0-cursor_color;
#X msg 741 418 -cursor_color \$1 \$2 \$3;
#N canvas 0 50 540 413 convert 0;
#X obj 167 29 inlet;
#X obj 165 86 route float list;
#X obj 243 251 * -1;
#X obj 243 119 unpack f f f, f 17;
#X obj 243 285 - 1;
#X obj 326 153 * 256;
#X obj 243 153 * 65536;
#X obj 326 187 +;
#X obj 243 217 +;
#X obj 165 338 outlet;
#X connect 0 0 1 0;
#X connect 1 0 9 0;
#X connect 1 1 3 0;
#X connect 2 0 4 0;
#X connect 3 0 6 0;
#X connect 3 1 5 0;
#X connect 3 2 7 1;
#X connect 4 0 9 0;
#X connect 5 0 7 0;
#X connect 6 0 8 0;
#X connect 7 0 8 1;
#X connect 8 0 2 0;
#X restore 1540 576 pd convert;
#X obj 270 515 route -size -back_color -front_color -name -z_offset
-invisible -range -cursor_color, f 106;
#X obj 1540 615 s \$0-cursor_color;
#X msg 16 510 -size 60 \, -back_color 220 220 220 \, -front_color 200
200 200 \, -cursor_color 0 0 0 \, -range 1, f 10;
#X msg 43 286 1;
#X obj 49 324 s \$0-editmode;
#X obj 153 159 t b b b b b b b b, f 83;
#N canvas 0 0 731 635 init_name 0;
#X obj 58 424 + 1;
#X obj 57 389 v MMP.UNTITLED_WIDGET;
#X obj 59 530 s \$0-name;
#X obj 351 161 r \$0-name;
#X msg 447 329 set \$1;
#X obj 487 373 s \$0-name-rcv;
#X msg 363 246 label \$1-rcv;
#X obj 359 293 s \$0-receive_name-rcv;
#X obj 57 456 t f f;
#X obj 58 37 loadbang;
#X obj 209 23 r \$0-name;
#X obj 138 173 list fromsymbol;
#X obj 137 221 list split 9;
#X obj 137 279 list tosymbol;
#X obj 137 336 select Untitled_;
#X obj 356 194 t s s;
#X obj 57 125 select 0;
#X obj 57 77 list append 0;
#X msg 58 488 symbol Untitled_\$1*;
#X connect 0 0 8 0;
#X connect 1 0 0 0;
#X connect 3 0 15 0;
#X connect 4 0 5 0;
#X connect 6 0 7 0;
#X connect 8 0 18 0;
#X connect 8 1 1 0;
#X connect 9 0 17 0;
#X connect 10 0 17 1;
#X connect 11 0 12 0;
#X connect 12 0 13 0;
#X connect 13 0 14 0;
#X connect 14 0 1 0;
#X connect 15 0 6 0;
#X connect 15 1 4 0;
#X connect 16 0 1 0;
#X connect 16 1 11 0;
#X connect 17 0 16 0;
#X connect 18 0 2 0;
#X restore 155 34 pd init_name;
#X obj 408 444 s \$0-save;
#X obj 407 384 v MMP.EXPORT.FLAG;
#X obj 407 413 select 0;
#X connect 0 0 2 0;
#X connect 0 0 8 0;
#X connect 0 1 47 0;
#X connect 1 0 20 0;
#X connect 2 0 39 0;
#X connect 3 0 44 0;
#X connect 4 0 0 0;
#X connect 6 0 7 0;
#X connect 7 0 42 0;
#X connect 7 0 41 0;
#X connect 8 0 7 1;
#X connect 10 0 12 0;
#X connect 11 0 10 1;
#X connect 12 0 4 0;
#X connect 13 0 9 0;
#X connect 14 0 19 0;
#X connect 16 0 18 0;
#X connect 18 0 4 0;
#X connect 19 0 4 0;
#X connect 20 0 4 0;
#X connect 22 0 23 0;
#X connect 23 0 4 0;
#X connect 25 0 28 0;
#X connect 27 0 26 0;
#X connect 28 0 29 0;
#X connect 29 0 4 0;
#X connect 30 0 33 0;
#X connect 31 0 34 0;
#X connect 32 0 30 0;
#X connect 33 0 4 0;
#X connect 35 0 37 0;
#X connect 36 0 35 0;
#X connect 37 0 4 0;
#X connect 38 0 40 0;
#X connect 39 0 5 0;
#X connect 39 0 21 0;
#X connect 39 1 27 0;
#X connect 39 2 31 0;
#X connect 39 3 13 0;
#X connect 39 4 15 0;
#X connect 39 5 17 0;
#X connect 39 6 24 0;
#X connect 39 7 38 0;
#X connect 41 0 39 0;
#X connect 42 0 43 0;
#X connect 44 0 1 0;
#X connect 44 1 25 0;
#X connect 44 2 32 0;
#X connect 44 3 36 0;
#X connect 44 4 14 0;
#X connect 44 5 16 0;
#X connect 44 6 22 0;
#X connect 44 7 10 0;
#X connect 47 0 48 0;
#X connect 48 0 46 0;
#X restore 1408 282 pd init/savestate;
#X connect 0 0 1 0;
#X connect 2 0 43 0;
#X connect 3 0 53 0;
#X connect 4 0 3 0;
#X connect 5 0 18 0;
#X connect 6 0 7 0;
#X connect 7 0 17 0;
#X connect 7 1 10 0;
#X connect 9 0 28 0;
#X connect 17 0 54 0;
#X connect 17 1 3 0;
#X connect 18 0 70 0;
#X connect 18 1 47 0;
#X connect 18 2 17 2;
#X connect 19 0 56 0;
#X connect 20 0 19 0;
#X connect 21 0 22 0;
#X connect 22 0 56 0;
#X connect 25 0 24 1;
#X connect 26 0 67 0;
#X connect 27 0 60 1;
#X connect 28 0 29 0;
#X connect 29 0 6 0;
#X connect 38 0 41 0;
#X connect 39 0 38 1;
#X connect 39 1 38 0;
#X connect 39 2 40 0;
#X connect 40 0 38 1;
#X connect 41 0 44 0;
#X connect 41 1 42 0;
#X connect 42 0 40 1;
#X connect 43 0 40 1;
#X connect 44 0 60 0;
#X connect 46 0 27 0;
#X connect 47 0 17 1;
#X connect 47 1 0 0;
#X connect 48 0 52 0;
#X connect 48 1 51 0;
#X connect 48 2 4 0;
#X connect 48 3 33 0;
#X connect 49 0 3 0;
#X connect 50 0 39 0;
#X connect 51 0 39 0;
#X connect 52 0 51 0;
#X connect 52 1 49 0;
#X connect 53 0 2 0;
#X connect 53 1 45 0;
#X connect 53 2 11 0;
#X connect 54 0 50 0;
#X connect 54 1 55 0;
#X connect 55 0 33 0;
#X connect 58 0 12 0;
#X connect 58 1 24 0;
#X connect 59 0 30 0;
#X connect 59 0 32 0;
#X connect 59 0 31 0;
#X connect 60 0 44 1;
#X connect 60 1 59 0;
#X connect 60 2 58 0;
#X connect 63 0 64 0;
#X connect 64 0 48 0;
#X connect 65 0 66 0;
#X connect 66 0 0 0;
#X connect 67 0 68 0;
#X connect 68 0 27 0;
#X connect 69 0 6 1;
#X coords 0 -1 1 1 60 60 2 100 100;
