#N canvas 0 0 1920 1021 16;
#X declare -path iemguts;
#X obj 694 350 unpack f f;
#X obj 596 393 -;
#X obj 766 391 -;
#X obj 814 799 change;
#X obj 649 498 moses 0;
#X obj 853 527 moses 0;
#X msg 849 567 0;
#X msg 668 556 0;
#X obj 499 200 unpack f f f;
#X obj 151 578 list prepend 0;
#X obj 151 624 route 0 1;
#X obj 2029 337 namecanvas \$0-this;
#N canvas 0 0 1005 538 resize 0;
#X obj 73 24 inlet;
#X msg -105 842 dirty 1;
#X obj 226 341 spigot;
#X msg 157 268 1;
#X msg 113 355 0;
#X obj 442 304 t l b;
#X obj 158 690 -;
#X obj 355 679 -;
#X obj 240 737 r \$0-w;
#X obj 430 742 r \$0-h;
#X obj 221 793 +;
#X obj 218 894 s \$0-w;
#X obj 355 786 +;
#X obj 366 887 s \$0-h;
#X obj 82 152 spigot 1;
#X obj 82 194 t b b;
#X msg 186 106 0;
#X msg 114 404 1;
#X obj 222 463 unpack f f f;
#X obj 156 518 t f f b f;
#X obj 330 514 t f f b f;
#X obj 416 624 spigot 1;
#X msg 528 571 0;
#X obj 206 635 spigot 1;
#X msg 305 583 0;
#X obj 338 122 iemguts/receivecanvas 2;
#X obj -100 880 iemguts/sendcanvas 2;
#X obj 1006 145 r \$0-w;
#X obj 1157 139 r \$0-h;
#X obj 1007 271 pack f f;
#X obj 865 446 t b a;
#X msg 805 498 dirty 0;
#X obj 799 553 s \$0-this;
#X msg 786 224 120 254;
#X msg 696 402 donecanvasdialog 1 -1 3 0 -1 1 1 \$1 \$2 100 100;
#X text 970 552 the parent canvas;
#X obj 240 848 max 5;
#X obj 397 842 max 5;
#X obj 1157 181 t b f;
#X obj 224 391 route mouseup motion;
#X connect 0 0 14 0;
#X connect 1 0 26 0;
#X connect 2 0 39 0;
#X connect 3 0 2 1;
#X connect 4 0 2 1;
#X connect 6 0 10 0;
#X connect 7 0 12 0;
#X connect 8 0 10 1;
#X connect 9 0 12 1;
#X connect 10 0 36 0;
#X connect 12 0 37 0;
#X connect 14 0 15 0;
#X connect 15 0 3 0;
#X connect 15 1 16 0;
#X connect 15 1 1 0;
#X connect 16 0 14 1;
#X connect 17 0 14 1;
#X connect 17 0 23 1;
#X connect 17 0 21 1;
#X connect 18 0 19 0;
#X connect 18 1 20 0;
#X connect 19 0 6 1;
#X connect 19 1 6 0;
#X connect 19 2 24 0;
#X connect 19 3 23 0;
#X connect 20 0 7 1;
#X connect 20 1 7 0;
#X connect 20 2 22 0;
#X connect 20 3 21 0;
#X connect 21 0 7 1;
#X connect 22 0 21 1;
#X connect 23 0 6 1;
#X connect 24 0 23 1;
#X connect 25 0 2 0;
#X connect 27 0 29 0;
#X connect 28 0 38 0;
#X connect 29 0 34 0;
#X connect 30 0 31 0;
#X connect 30 1 32 0;
#X connect 31 0 32 0;
#X connect 33 0 34 0;
#X connect 34 0 30 0;
#X connect 36 0 11 0;
#X connect 37 0 13 0;
#X connect 38 0 29 0;
#X connect 38 1 29 1;
#X connect 39 0 4 0;
#X connect 39 0 17 0;
#X connect 39 1 18 0;
#X restore 280 732 pd resize;
#X obj 100 100 cnv 1 1 1 \$0-pos \$0-pos-rcv empty 2 30 0 30 #000000 #fcfcfc 0;
#X obj 818 662 < 1;
#X obj 946 662 < 1;
#X text 1859 15 format d'entrée MULTITOUCH.COOKED;
#X text 2026 64 <slot> remove;
#X text 2030 91 <slot> update <x> <y>;
#X text 2032 120 <slot> pressure <a>;
#X obj 678 1166 r \$0-back_color;
#X msg 1614 142 vis 1;
#X obj 1620 86 iemguts/propertybang;
#X obj 1738 143 r \$0-ok;
#X msg 1738 185 vis 0;
#N canvas 831 61 1286 874 gui_feedback 0;
#X msg 127 259 set \$1;
#X obj 132 222 r \$0-w;
#X obj 130 298 s \$0-w-rcv;
#X msg 365 260 set \$1;
#X obj 361 72 r \$0-bc-snd;
#X obj 367 300 s \$0-bc-rcv;
#X obj 370 223 r \$0-back_color;
#X obj 361 156 s \$0-back_color;
#X msg 642 262 set \$1;
#X obj 640 73 r \$0-fc-snd;
#X obj 640 157 s \$0-front_color;
#X obj 648 224 r \$0-front_color;
#X obj 646 301 s \$0-fc-rcv;
#X msg 944 262 set \$1;
#X obj 941 73 r \$0-cc-snd;
#X obj 942 157 s \$0-cursor_color;
#X obj 950 224 r \$0-cursor_color;
#X obj 948 301 s \$0-cc-rcv;
#X msg 30 321 set \$1;
#X obj 34 283 r \$0-h;
#X obj 33 359 s \$0-h-rcv;
#X msg 310 634 set \$1;
#X obj 310 592 r \$0-menu_list;
#X obj 309 717 s \$0-menu_list-rcv;
#X msg 1117 251 set \$1;
#X obj 1114 62 r \$0-lc-snd;
#X obj 1115 145 s \$0-font_color;
#X obj 1123 214 r \$0-font_color;
#X obj 1121 289 s \$0-lc-rcv;
#X obj 299 407 r \$0-front_alpha;
#X obj 497 407 r \$0-back_alpha;
#X obj 295 490 s \$0-front_alpha-rcv;
#X obj 493 490 s \$0-back_alpha-rcv;
#X msg 299 445 set \$1;
#X msg 507 447 set \$1;
#X text 170 587 ???????????;
#X text 170 637 ???????????;
#X text 170 727 ???????????;
#X msg 612 607 set \$1;
#X obj 612 578 r \$0-z_offset;
#X obj 611 664 s \$0-z_offset-rcv;
#X connect 0 0 2 0;
#X connect 1 0 0 0;
#X connect 3 0 5 0;
#X connect 4 0 7 0;
#X connect 6 0 3 0;
#X connect 8 0 12 0;
#X connect 9 0 10 0;
#X connect 11 0 8 0;
#X connect 13 0 17 0;
#X connect 14 0 15 0;
#X connect 16 0 13 0;
#X connect 18 0 20 0;
#X connect 19 0 18 0;
#X connect 21 0 23 0;
#X connect 22 0 21 0;
#X connect 24 0 28 0;
#X connect 25 0 26 0;
#X connect 27 0 24 0;
#X connect 29 0 33 0;
#X connect 30 0 34 0;
#X connect 33 0 31 0;
#X connect 34 0 32 0;
#X connect 38 0 40 0;
#X connect 39 0 38 0;
#X restore 1606 326 pd gui_feedback;
#X obj 816 751 &&;
#X obj 694 1326 s \$0-click_area-rcv;
#X obj 812 838 select 1;
#X obj 1423 822 v MOB_BACKGROUND_COLOR;
#X text 1468 905 attributes: Title output: on touch \, sends out two element list. first element is index second element is string value input: a list of strings to populate the menu.;
#X obj 779 1238 pack f f;
#X msg 690 1288 color \$1 \$1 \$2;
#X obj 893 1162 r \$0-font_color;
#X obj 786 1202 t b f;
#X obj 566 157 t b l b;
#X obj 483 351 / 1;
#X obj 574 350 / 1;
#X obj 326 456 keyname;
#X obj 326 490 pack f s;
#X obj 318 576 route Control_L control_R;
#X msg 326 523 \$2 \$1;
#X obj 280 667 spigot;
#X obj 941 1284 s \$0-pos-rcv;
#X obj 1326 970 r \$0-h;
#X obj 1334 1042 / 2;
#X msg 1326 1138 label_font 0 \$1 \, label_pos 2 \$1;
#X msg 941 1211 color -1 -1 \$1;
#X msg 1708 1154 size 1 \, vis_size 1 1;
#X obj 481 281 spigot;
#X obj 571 244 == 1;
#X obj 1650 1057 r \$0-title;
#X msg 1650 1090 label \$1;
#X msg 1520 1258 label;
#N canvas 0 0 1918 476 mmp-export-LCD 0;
#X obj 368 46 r \$0-x;
#X obj 449 46 r \$0-y;
#X obj 660 46 r \$0-h;
#X obj 546 41 r \$0-w;
#X obj 166 215 f;
#X obj 790 73 r \$0-name;
#X obj 643 98 r \$0-range;
#X obj 96 841 list fromsymbol;
#X obj 102 931 list append 125;
#X obj 102 900 list prepend add 123;
#X obj 121 992 list trim;
#X obj 121 1024 s MMP_BINFILE;
#X obj 212 187 v MMP_FIRST_GUI_ITEM;
#X obj 212 219 select 1;
#X msg 625 734 add 44 123;
#X msg 538 736 add 123;
#X msg 201 281 0;
#X obj 212 317 v MMP_FIRST_GUI_ITEM;
#X obj 913 646 iemguts/canvasposition 1;
#X obj 910 779 s \$0-y;
#X obj 863 727 s \$0-x;
#X obj 913 686 unpack f f;
#X obj 152 137 t b b b b;
#X obj 114 466 * 1;
#X obj 222 467 * 1;
#X obj 438 466 * 1;
#X obj 334 463 * 1;
#X obj 181 403 t f b f b f b f;
#X obj 180 353 r MOB_ZOOM;
#N canvas 437 57 450 300 MMP_EXPORT_BY_INDEX 0;
#X obj 151 40 r MMP_EXPORT_BY_INDEX;
#X obj 151 69 t f b;
#X obj 144 275 select;
#X obj 145 307 outlet;
#X text 38 6 enable z-order;
#X obj 197 169 + 0;
#X obj 241 133 r \$0-z_offset;
#X obj 197 198 max 0;
#X obj 197 227 min 1;
#X obj 290 178 - 1;
#X obj 197 100 iemguts/canvasindex 2;
#X connect 0 0 1 0;
#X connect 1 0 2 0;
#X connect 1 1 10 0;
#X connect 2 0 3 0;
#X connect 5 0 7 0;
#X connect 6 0 5 1;
#X connect 7 0 8 0;
#X connect 8 0 2 1;
#X connect 9 0 8 1;
#X connect 10 0 5 0;
#X connect 10 1 9 0;
#X restore 81 79 pd MMP_EXPORT_BY_INDEX;
#N canvas 0 50 534 640 canvas_color_to_rgb 0;
#X obj 119 35 inlet;
#X obj 121 96 + 1;
#X obj 121 125 * -1;
#X obj 134 159 t f f f;
#X obj 45 193 / 65536;
#X obj 163 194 / 256;
#X obj 247 197 mod 256;
#X obj 163 223 mod 256;
#X obj 45 222 int;
#X obj 45 251 / 255;
#X obj 163 252 / 255;
#X obj 247 226 / 255;
#X obj 40 283 outlet;
#X obj 164 285 outlet;
#X obj 254 283 outlet;
#X connect 0 0 1 0;
#X connect 1 0 2 0;
#X connect 2 0 3 0;
#X connect 3 0 4 0;
#X connect 3 1 5 0;
#X connect 3 2 6 0;
#X connect 4 0 8 0;
#X connect 5 0 7 0;
#X connect 6 0 11 0;
#X connect 7 0 10 0;
#X connect 8 0 9 0;
#X connect 9 0 12 0;
#X connect 10 0 13 0;
#X connect 11 0 14 0;
#X restore 685 393 pd canvas_color_to_rgb;
#X obj 676 345 r \$0-front_color;
#X msg 889 202 "address":"/myLCD2" \, "frame":[333.2734 \, 62.5938 \, 291.93 \, 264.3672] \, "class":"MMPLCD" \, "highlightColor":[1 \, 0 \, 0 \, 1] \, "color":[0.9316406 \, 1 \, 1 \, 1];
#X obj 114 569 pack f f f f f s f f f 1 f f f 1, f 94;
#X msg 89 636 symbol "address":"\$6"\\\,"frame":[\$1\\\,\$2\\\,\$3\\\,\$4]\\\,"class":"MMPLCD"\\\,"highlightColor":[\$7\\\,\$8\\\,\$9\\\,\$10]\\\,"color":[\$11\\\,\$12\\\,\$13\\\,\$14];
#X obj 983 339 r \$0-back_color;
#N canvas 0 50 534 640 canvas_color_to_rgb 0;
#X obj 119 35 inlet;
#X obj 121 96 + 1;
#X obj 121 125 * -1;
#X obj 134 159 t f f f;
#X obj 45 193 / 65536;
#X obj 163 194 / 256;
#X obj 247 197 mod 256;
#X obj 163 223 mod 256;
#X obj 45 222 int;
#X obj 45 251 / 255;
#X obj 163 252 / 255;
#X obj 247 226 / 255;
#X obj 40 283 outlet;
#X obj 164 285 outlet;
#X obj 254 283 outlet;
#X connect 0 0 1 0;
#X connect 1 0 2 0;
#X connect 2 0 3 0;
#X connect 3 0 4 0;
#X connect 3 1 5 0;
#X connect 3 2 6 0;
#X connect 4 0 8 0;
#X connect 5 0 7 0;
#X connect 6 0 11 0;
#X connect 7 0 10 0;
#X connect 8 0 9 0;
#X connect 9 0 12 0;
#X connect 10 0 13 0;
#X connect 11 0 14 0;
#X restore 982 381 pd canvas_color_to_rgb;
#X obj 1136 463 r \$0-back_alpha;
#X obj 877 450 r \$0-front_alpha;
#N canvas 396 91 1101 721 export_args 0;
#X obj 296 319 iemguts/canvasargs 2;
#X obj 275 58 inlet;
#X obj 308 108 r \$0-name;
#X obj 293 159 symbol;
#X obj 293 188 t s s;
#X msg 333 219 symbol \$1-rcv;
#X obj 413 149 r WIDGET-ID;
#X obj 301 263 pack s s f;
#X connect 1 0 3 0;
#X connect 2 0 3 1;
#X connect 3 0 4 0;
#X connect 4 0 7 0;
#X connect 4 1 5 0;
#X connect 5 0 7 1;
#X connect 6 0 7 2;
#X connect 7 0 0 0;
#X restore 606 260 pd export_args;
#X connect 0 0 4 1;
#X connect 1 0 24 0;
#X connect 2 0 25 0;
#X connect 3 0 26 0;
#X connect 4 0 23 0;
#X connect 5 0 33 5;
#X connect 6 0 33 4;
#X connect 7 0 9 0;
#X connect 8 0 10 0;
#X connect 9 0 8 0;
#X connect 10 0 11 0;
#X connect 12 0 13 0;
#X connect 13 0 15 0;
#X connect 13 0 16 0;
#X connect 13 1 14 0;
#X connect 14 0 9 1;
#X connect 15 0 9 1;
#X connect 16 0 17 0;
#X connect 18 0 21 0;
#X connect 21 0 20 0;
#X connect 21 1 19 0;
#X connect 22 0 4 0;
#X connect 22 1 12 0;
#X connect 22 2 18 0;
#X connect 22 3 39 0;
#X connect 23 0 33 0;
#X connect 24 0 33 1;
#X connect 25 0 33 3;
#X connect 26 0 33 2;
#X connect 27 0 23 1;
#X connect 27 1 24 0;
#X connect 27 2 24 1;
#X connect 27 3 26 0;
#X connect 27 4 26 1;
#X connect 27 5 25 0;
#X connect 27 6 25 1;
#X connect 28 0 27 0;
#X connect 29 0 22 0;
#X connect 30 0 33 6;
#X connect 30 1 33 7;
#X connect 30 2 33 8;
#X connect 31 0 30 0;
#X connect 33 0 34 0;
#X connect 34 0 7 0;
#X connect 35 0 36 0;
#X connect 36 0 33 10;
#X connect 36 1 33 11;
#X connect 36 2 33 12;
#X connect 37 0 33 13;
#X connect 38 0 33 9;
#X restore 1608 388 pd mmp-export-LCD;
#X obj 1603 235 s pd-LCD_properties(\$0);
#N canvas 827 286 773 607 subpatch_resize 0;
#X obj 436 -45 r \$0-w;
#X obj 587 -51 r \$0-h;
#X obj 437 81 pack f f;
#X obj 295 256 t b a;
#X msg 235 308 dirty 0;
#X msg 216 34 120 254;
#X obj 587 -9 t b f;
#X obj 229 363 s pd-\$0-subpatch;
#X msg 126 212 donecanvasdialog 1 -1 3 0 0 1 1 \$1 \$2 0 0;
#X msg 74 527 size \$1 \$2;
#X obj 70 407 r \$0-w;
#X obj 165 356 r \$0-h;
#X obj 90 489 pack f f;
#X obj 131 442 t b f;
#X obj 74 556 s \$0-background_slider-rcv;
#X obj 464 416 r \$0-back_color;
#X msg 464 445 color \$1 \$1 \$1;
#X obj 158 398 - 6;
#X obj 436 18 - 2;
#X obj 574 36 - 2;
#X connect 0 0 18 0;
#X connect 1 0 6 0;
#X connect 2 0 8 0;
#X connect 3 0 4 0;
#X connect 3 1 7 0;
#X connect 4 0 7 0;
#X connect 5 0 8 0;
#X connect 6 0 2 0;
#X connect 6 1 19 0;
#X connect 8 0 3 0;
#X connect 9 0 14 0;
#X connect 10 0 12 0;
#X connect 11 0 17 0;
#X connect 12 0 9 0;
#X connect 13 0 12 0;
#X connect 13 1 12 1;
#X connect 15 0 16 0;
#X connect 16 0 14 0;
#X connect 17 0 13 0;
#X connect 18 0 2 0;
#X connect 19 0 2 1;
#X restore 1250 285 pd subpatch_resize;
#X obj 1251 39 inlet;
#N canvas 0 0 1225 618 painting_datastructures 0;
#X msg 317 211 clear;
#X obj 316 243 s pd-\$0-subpatch;
#X obj 198 293 list append pd-\$0-subpatch;
#X obj 199 169 loadbang;
#X obj 194 406 pointer;
#X obj 314 171 t b b;
#N canvas 688 58 871 441 struct_frameoval 0;
#X obj 31 49 struct struct_frameoval float lx float ty float rx float by float width float color;
#X obj 31 119 drawcurve -xr color width lx ty rx ty rx by lx by lx ty;
#X restore 906 6 pd struct_frameoval;
#X obj 411 173 s \$0-penwidth;
#X obj 187 439 s \$0-pointer;
#X obj 80 11 inlet;
#N canvas 0 0 772 728 frameoval 0;
#X obj 71 23 inlet;
#X obj 120 129 list length;
#X obj 69 164 list prepend;
#X obj 69 193 route 8 4;
#X obj 69 262 list split 4;
#X obj 127 304 unpack f f f f;
#X obj 127 338 * 8;
#X obj 127 367 + 0.5;
#X obj 127 396 int;
#X obj 127 425 * 100;
#X obj 190 334 * 8;
#X obj 190 363 + 0.5;
#X obj 190 392 int;
#X obj 255 337 * 8;
#X obj 255 366 + 0.5;
#X obj 255 395 int;
#X obj 190 421 * 10;
#X obj 190 450 +;
#X obj 127 454 +;
#X obj 275 437 r \$0-penwidth;
#X obj 73 515 list append;
#X obj 74 557 append struct_frameoval lx ty rx by color width;
#X obj 127 483 pack f 1;
#X obj 528 516 r \$0-pointer;
#X obj 111 226 list append 0 0 0 0;
#X obj 77 599 s \$0-pointer;
#X text 220 601 update pointer;
#X obj 72 58 t l l;
#X obj 293 192 r \$0-front_color-rgba;
#X connect 0 0 27 0;
#X connect 1 0 2 1;
#X connect 2 0 3 0;
#X connect 3 0 4 0;
#X connect 3 1 24 0;
#X connect 4 0 20 0;
#X connect 4 1 5 0;
#X connect 5 0 6 0;
#X connect 5 1 10 0;
#X connect 5 2 13 0;
#X connect 6 0 7 0;
#X connect 7 0 8 0;
#X connect 8 0 9 0;
#X connect 9 0 18 0;
#X connect 10 0 11 0;
#X connect 11 0 12 0;
#X connect 12 0 16 0;
#X connect 13 0 14 0;
#X connect 14 0 15 0;
#X connect 15 0 17 1;
#X connect 16 0 17 0;
#X connect 17 0 18 1;
#X connect 18 0 22 0;
#X connect 19 0 22 1;
#X connect 20 0 21 0;
#X connect 21 0 25 0;
#X connect 22 0 20 1;
#X connect 23 0 21 6;
#X connect 24 0 4 0;
#X connect 27 0 2 0;
#X connect 27 1 1 0;
#X connect 28 0 24 1;
#X restore 508 237 pd frameoval;
#N canvas 688 58 871 441 struct_paintoval 0;
#X obj 31 49 struct struct_paintoval float lx float ty float rx float by float width float color;
#X obj 31 119 filledcurve -xr color color 1 lx ty rx ty rx by lx by lx ty;
#X restore 907 33 pd struct_paintoval;
#N canvas 0 0 617 770 paintoval 0;
#X obj 78 26 inlet;
#X obj 120 129 list length;
#X obj 69 164 list prepend;
#X obj 69 193 route 8 4;
#X obj 69 262 list split 4;
#X obj 127 304 unpack f f f f;
#X obj 127 338 * 8;
#X obj 127 367 + 0.5;
#X obj 127 396 int;
#X obj 127 425 * 100;
#X obj 190 334 * 8;
#X obj 190 363 + 0.5;
#X obj 190 392 int;
#X obj 255 337 * 8;
#X obj 255 366 + 0.5;
#X obj 255 395 int;
#X obj 190 421 * 10;
#X obj 190 450 +;
#X obj 127 454 +;
#X obj 275 437 r \$0-penwidth;
#X obj 73 515 list append;
#X obj 127 483 pack f 1;
#X obj 489 437 r \$0-pointer;
#X obj 69 592 append struct_paintoval lx ty rx by color width;
#X obj 111 226 list append 0 0 0 0;
#X obj 75 636 s \$0-pointer;
#X text 218 638 update pointer;
#X obj 82 58 t l l;
#X obj 293 192 r \$0-front_color-rgba;
#X obj 219 683 r \$0-pointer;
#X obj 141 713 pointer;
#X connect 0 0 27 0;
#X connect 1 0 2 1;
#X connect 2 0 3 0;
#X connect 3 0 4 0;
#X connect 3 1 24 0;
#X connect 4 0 20 0;
#X connect 4 1 5 0;
#X connect 5 0 6 0;
#X connect 5 1 10 0;
#X connect 5 2 13 0;
#X connect 6 0 7 0;
#X connect 7 0 8 0;
#X connect 8 0 9 0;
#X connect 9 0 18 0;
#X connect 10 0 11 0;
#X connect 11 0 12 0;
#X connect 12 0 16 0;
#X connect 13 0 14 0;
#X connect 14 0 15 0;
#X connect 15 0 17 1;
#X connect 16 0 17 0;
#X connect 17 0 18 1;
#X connect 18 0 21 0;
#X connect 19 0 21 1;
#X connect 20 0 23 0;
#X connect 21 0 20 1;
#X connect 22 0 23 6;
#X connect 23 0 25 0;
#X connect 24 0 4 0;
#X connect 27 0 2 0;
#X connect 27 1 1 0;
#X connect 28 0 24 1;
#X connect 29 0 30 1;
#X restore 610 206 pd paintoval;
#X obj 1333 195 r \$0-a;
#N canvas 0 0 534 640 canvas_color_to_rgb 0;
#X obj 119 35 inlet;
#X obj 121 96 + 1;
#X obj 121 125 * -1;
#X obj 134 159 t f f f;
#X obj 45 193 / 65536;
#X obj 163 194 / 256;
#X obj 247 197 mod 256;
#X obj 163 223 mod 256;
#X obj 45 222 int;
#X obj 45 251 / 255;
#X obj 163 252 / 255;
#X obj 247 226 / 255;
#X obj 40 283 outlet;
#X obj 164 285 outlet;
#X obj 254 283 outlet;
#X connect 0 0 1 0;
#X connect 1 0 2 0;
#X connect 2 0 3 0;
#X connect 3 0 4 0;
#X connect 3 1 5 0;
#X connect 3 2 6 0;
#X connect 4 0 8 0;
#X connect 5 0 7 0;
#X connect 6 0 11 0;
#X connect 7 0 10 0;
#X connect 8 0 9 0;
#X connect 9 0 12 0;
#X connect 10 0 13 0;
#X connect 11 0 14 0;
#X restore 1095 194 pd canvas_color_to_rgb;
#X obj 1095 309 s \$0-front_color-rgba;
#X obj 1095 251 pack f f f 1;
#N canvas 0 50 772 728 framerect 0;
#X obj 78 26 inlet;
#X obj 120 129 list length;
#X obj 69 164 list prepend;
#X obj 69 193 route 8 4;
#X obj 69 262 list split 4;
#X obj 127 304 unpack f f f f;
#X obj 127 338 * 8;
#X obj 127 367 + 0.5;
#X obj 127 396 int;
#X obj 127 425 * 100;
#X obj 190 334 * 8;
#X obj 190 363 + 0.5;
#X obj 190 392 int;
#X obj 255 337 * 8;
#X obj 255 366 + 0.5;
#X obj 255 395 int;
#X obj 190 421 * 10;
#X obj 190 450 +;
#X obj 127 454 +;
#X obj 275 437 r \$0-penwidth;
#X obj 73 515 list append;
#X obj 127 483 pack f 1;
#X obj 500 548 r \$0-pointer;
#X obj 111 226 list append 0 0 0 0;
#X obj 62 584 append struct_framerect lx ty rx by color width;
#X obj 77 619 s \$0-pointer;
#X text 220 621 update pointer;
#X obj 82 58 t l l;
#X obj 293 192 r \$0-front_color-rgba;
#X connect 0 0 27 0;
#X connect 1 0 2 1;
#X connect 2 0 3 0;
#X connect 3 0 4 0;
#X connect 3 1 23 0;
#X connect 4 0 20 0;
#X connect 4 1 5 0;
#X connect 5 0 6 0;
#X connect 5 1 10 0;
#X connect 5 2 13 0;
#X connect 6 0 7 0;
#X connect 7 0 8 0;
#X connect 8 0 9 0;
#X connect 9 0 18 0;
#X connect 10 0 11 0;
#X connect 11 0 12 0;
#X connect 12 0 16 0;
#X connect 13 0 14 0;
#X connect 14 0 15 0;
#X connect 15 0 17 1;
#X connect 16 0 17 0;
#X connect 17 0 18 1;
#X connect 18 0 21 0;
#X connect 19 0 21 1;
#X connect 20 0 24 0;
#X connect 21 0 20 1;
#X connect 22 0 24 6;
#X connect 23 0 4 0;
#X connect 24 0 25 0;
#X connect 27 0 2 0;
#X connect 27 1 1 0;
#X connect 28 0 23 1;
#X restore 704 171 pd framerect;
#N canvas 688 58 871 441 struct_framerect 0;
#X obj 31 49 struct struct_framerect float lx float ty float rx float by float width float color;
#X obj 31 119 drawpolygon -xr color width lx ty rx ty rx by lx by lx ty;
#X restore 909 64 pd struct_framerect;
#N canvas 688 58 871 441 struct_paintrect 0;
#X obj 31 49 struct struct_paintrect float lx float ty float rx float by float width float color;
#X obj 31 119 filledpolygon -xr color color 1 lx ty rx ty rx by lx by lx ty;
#X restore 911 90 pd struct_paintrect;
#N canvas 0 0 772 728 paintrect 0;
#X obj 78 26 inlet;
#X obj 120 129 list length;
#X obj 69 164 list prepend;
#X obj 69 193 route 8 4;
#X obj 69 262 list split 4;
#X obj 127 304 unpack f f f f;
#X obj 127 338 * 8;
#X obj 127 367 + 0.5;
#X obj 127 396 int;
#X obj 127 425 * 100;
#X obj 190 334 * 8;
#X obj 190 363 + 0.5;
#X obj 190 392 int;
#X obj 255 337 * 8;
#X obj 255 366 + 0.5;
#X obj 255 395 int;
#X obj 190 421 * 10;
#X obj 190 450 +;
#X obj 127 454 +;
#X obj 275 437 r \$0-penwidth;
#X obj 73 515 list append;
#X obj 127 483 pack f 1;
#X obj 500 548 r \$0-pointer;
#X obj 111 226 list append 0 0 0 0;
#X obj 62 584 append struct_paintrect lx ty rx by color width;
#X obj 77 619 s \$0-pointer;
#X text 220 621 update pointer;
#X obj 82 58 t l l;
#X obj 293 192 r \$0-front_color-rgba;
#X connect 0 0 27 0;
#X connect 1 0 2 1;
#X connect 2 0 3 0;
#X connect 3 0 4 0;
#X connect 3 1 23 0;
#X connect 4 0 20 0;
#X connect 4 1 5 0;
#X connect 5 0 6 0;
#X connect 5 1 10 0;
#X connect 5 2 13 0;
#X connect 6 0 7 0;
#X connect 7 0 8 0;
#X connect 8 0 9 0;
#X connect 9 0 18 0;
#X connect 10 0 11 0;
#X connect 11 0 12 0;
#X connect 12 0 16 0;
#X connect 13 0 14 0;
#X connect 14 0 15 0;
#X connect 15 0 17 1;
#X connect 16 0 17 0;
#X connect 17 0 18 1;
#X connect 18 0 21 0;
#X connect 19 0 21 1;
#X connect 20 0 24 0;
#X connect 21 0 20 1;
#X connect 22 0 24 6;
#X connect 23 0 4 0;
#X connect 24 0 25 0;
#X connect 27 0 2 0;
#X connect 27 1 1 0;
#X connect 28 0 23 1;
#X restore 802 205 pd paintrect;
#X msg 196 321 traverse \$1 \, bang;
#N canvas 688 58 871 441 struct_lineto 0;
#X obj 31 49 struct struct_lineto float lx float ty float rx float by float width float color;
#X obj 31 120 drawpolygon -xr color width lx ty rx by;
#X restore 1171 20 pd struct_lineto;
#N canvas 0 50 772 728 lineto 0;
#X obj 78 26 inlet;
#X obj 120 129 list length;
#X obj 69 164 list prepend;
#X obj 127 304 unpack f f f f;
#X obj 127 338 * 8;
#X obj 127 367 + 0.5;
#X obj 127 396 int;
#X obj 127 425 * 100;
#X obj 190 334 * 8;
#X obj 190 363 + 0.5;
#X obj 190 392 int;
#X obj 255 337 * 8;
#X obj 255 366 + 0.5;
#X obj 255 395 int;
#X obj 190 421 * 10;
#X obj 190 450 +;
#X obj 127 454 +;
#X obj 275 437 r \$0-penwidth;
#X obj 109 518 list append;
#X obj 127 483 pack f 1;
#X obj 510 641 r \$0-pointer;
#X obj 111 226 list append 0 0 0 0;
#X obj 69 193 route 6 2;
#X obj 122 677 append struct_lineto lx ty rx by color width;
#X obj 69 262 list split 2;
#X obj 119 634 list prepend;
#X obj 241 525 r \$0-x;
#X obj 327 527 r \$0-y;
#X obj 242 562 pack f f;
#X obj 63 391 t l l;
#X obj 58 553 unpack f f;
#X obj 58 582 s \$0-x;
#X obj 146 586 s \$0-y;
#X obj 127 719 s \$0-pointer;
#X text 270 721 update pointer;
#X obj 82 58 t l l;
#X obj 293 192 r \$0-front_color-rgba;
#X connect 0 0 35 0;
#X connect 1 0 2 1;
#X connect 2 0 22 0;
#X connect 3 0 4 0;
#X connect 3 1 8 0;
#X connect 3 2 11 0;
#X connect 4 0 5 0;
#X connect 5 0 6 0;
#X connect 6 0 7 0;
#X connect 7 0 16 0;
#X connect 8 0 9 0;
#X connect 9 0 10 0;
#X connect 10 0 14 0;
#X connect 11 0 12 0;
#X connect 12 0 13 0;
#X connect 13 0 15 1;
#X connect 14 0 15 0;
#X connect 15 0 16 1;
#X connect 16 0 19 0;
#X connect 17 0 19 1;
#X connect 18 0 25 0;
#X connect 19 0 18 1;
#X connect 20 0 23 6;
#X connect 21 0 24 0;
#X connect 22 0 24 0;
#X connect 22 1 21 0;
#X connect 23 0 33 0;
#X connect 24 0 29 0;
#X connect 24 1 3 0;
#X connect 25 0 23 0;
#X connect 26 0 28 0;
#X connect 27 0 28 1;
#X connect 28 0 25 1;
#X connect 29 0 30 0;
#X connect 29 1 18 0;
#X connect 30 0 31 0;
#X connect 30 1 32 0;
#X connect 35 0 2 0;
#X connect 35 1 1 0;
#X connect 36 0 21 1;
#X restore 962 209 pd lineto;
#N canvas 0 50 450 300 moveto 0;
#X obj 76 30 inlet;
#X obj 73 79 unpack f f;
#X obj 73 108 s \$0-x;
#X obj 171 111 s \$0-y;
#X connect 0 0 1 0;
#X connect 1 0 2 0;
#X connect 1 1 3 0;
#X restore 873 175 pd moveto;
#X obj 1086 146 r \$0-front_color;
#N canvas 0 0 450 664 check_empty_pointer 0;
#X obj 27 11 inlet;
#X obj 31 246 outlet;
#X obj 111 85 pointer;
#X obj 122 200 spigot;
#X msg 224 151 1;
#X msg 166 163 0;
#X obj 363 81 r \$0-pointer;
#X obj 130 132 t b;
#X obj 198 293 list append pd-\$0-subpatch;
#X obj 194 406 pointer;
#X obj 187 439 s \$0-pointer;
#X msg 196 321 traverse \$1 \, bang;
#X obj 25 51 t a b b b;
#X connect 0 0 12 0;
#X connect 2 0 7 0;
#X connect 3 0 8 0;
#X connect 4 0 3 1;
#X connect 5 0 3 1;
#X connect 6 0 2 1;
#X connect 7 0 5 0;
#X connect 8 0 11 0;
#X connect 9 0 10 0;
#X connect 11 0 9 0;
#X connect 12 0 1 0;
#X connect 12 1 3 0;
#X connect 12 2 2 0;
#X connect 12 3 4 0;
#X restore 307 99 pd check_empty_pointer;
#X obj 83 49 route get_drawing_subpatch;
#X obj 83 78 t b;
#X obj 83 107 s \$0-get_drawing_subpatch;
#X obj 312 132 route clear penwidth frameoval paintoval framerect paintrect moveto lineto color, f 75;
#X connect 0 0 1 0;
#X connect 2 0 21 0;
#X connect 3 0 2 0;
#X connect 4 0 8 0;
#X connect 5 0 2 0;
#X connect 5 1 0 0;
#X connect 9 0 27 0;
#X connect 13 0 16 3;
#X connect 14 0 16 0;
#X connect 14 1 16 1;
#X connect 14 2 16 2;
#X connect 16 0 15 0;
#X connect 21 0 4 0;
#X connect 25 0 14 0;
#X connect 26 0 30 0;
#X connect 27 0 28 0;
#X connect 27 1 26 0;
#X connect 28 0 29 0;
#X connect 30 0 5 0;
#X connect 30 1 7 0;
#X connect 30 2 10 0;
#X connect 30 3 12 0;
#X connect 30 4 17 0;
#X connect 30 5 20 0;
#X connect 30 6 24 0;
#X connect 30 7 23 0;
#X connect 30 8 15 0;
#X restore 1381 219 pd painting_datastructures;
#X obj 651 388 r \$0-w;
#X obj 601 427 / 60;
#X obj 871 396 r \$0-h;
#X obj 777 423 / 60;
#X obj 589 460 t f f;
#X obj 778 461 t f f;
#X obj 541 497 clip 0 1;
#X obj 782 498 clip 0 1;
#X text 1244 242 subpatch containing datastructures;
#X obj 679 133 s \$0-zoom;
#X obj 517 317 r \$0-zoom;
#X obj 567 846 spigot;
#X msg 1008 712 0;
#X obj 558 709 pack f f;
#X msg 558 738 1 \$1 \$2;
#X obj 375 1112 outlet;
#X obj 336 91 route editmode mouse mouseup motion zoom;
#X obj 1230 351 r \$0-pos;
#X obj 1227 401 unpack f f;
#X obj 1129 444 -;
#X obj 1299 442 -;
#X obj 1016 402 / 1;
#X obj 1107 401 / 1;
#X obj 1184 439 r \$0-w;
#X obj 1134 478 / 60;
#X obj 1404 447 r \$0-h;
#X obj 1310 474 / 60;
#X obj 1074 548 clip 0 1;
#X obj 1315 549 clip 0 1;
#X obj 1050 368 r \$0-zoom;
#X obj 1007 293 unpack f f;
#X obj 1074 577 pack f f;
#X msg 1074 606 2 \$1 \$2;
#X obj 1004 676 t b b;
#X msg 1063 746 0 \$1 \$2;
#X obj 385 978 s;
#X obj 434 942 r \$0-name;
#X obj 1370 12 r \$0-name;
#N canvas 703 484 420 500 LCD_properties(\$0) 0;
#X obj 8 6 cnv 15 400 300 empty empty empty 20 12 0 14 #e0e0e0 #404040 0;
#X floatatom 130 21 5 0 0 0 width \$0-w-rcv \$0-w 0;
#X floatatom 314 27 5 0 0 0 height \$0-h-rcv \$0-h 0;
#X symbolatom 94 82 30 0 0 0 send_to \$0-name-rcv \$0-name 0;
#X text 23 50 Messages;
#X obj 8 307 cnv 15 400 180 empty empty empty 20 12 0 14 #c4fcc4 #404040 0;
#X text 50 322 MobMuPlat Widget Export, f 25;
#X floatatom 104 435 5 0 0 0 z-offset \$0-z_offset-rcv \$0-z_offset 0;
#X obj 135 458 tgl 20 0 \$0-z_offset \$0-z_offset-rcv MoveOnTop -100 8 0 16 #fcfcfc #000000 #000000 0 99;
#X obj 92 382 hsl 60 20 0 1 0 0 \$0-front_alpha \$0-front_alpha-rcv empty -2 -8 0 10 #fcfcfc #000000 #000000 0 1;
#X obj 91 352 hsl 60 20 0 1 0 0 \$0-back_alpha \$0-back_alpha-rcv empty -2 -8 0 10 #fcfcfc #000000 #000000 0 1;
#X text 49 144 back_color;
#X text 45 206 front_color;
#X text 163 349 Back color Opacity;
#X text 165 379 Front color Opacity;
#N canvas 412 187 1049 632 color_picker 0;
#X obj 53 150 hsl 128 12 0 255 0 0 empty empty empty -2 -8 0 10 #dcdcdc #fc0400 #000000 0 0;
#X obj 53 162 hsl 128 12 0 255 0 0 empty empty empty -2 -8 0 10 #dcdcdc #00fc04 #000000 0 0;
#X obj 53 174 hsl 128 12 0 255 0 0 empty empty empty -2 -8 0 10 #dcdcdc #0400fc #000000 0 0;
#X obj 183 150 tgl 36 0 empty empty empty 17 7 0 10 #ffffff #ffffff #ffffff 0 1;
#N canvas 0 50 498 451 convert2rgb 0;
#X obj 53 112 * -1;
#X obj 54 81 + 1;
#X obj 180 183 mod 256;
#X obj 51 179 div 256;
#X obj 52 143 t f f, f 13;
#X obj 49 210 t f f;
#X obj 48 248 div 256;
#X obj 132 250 mod 256;
#X obj 54 51 inlet;
#X obj 49 317 outlet;
#X obj 129 317 outlet;
#X obj 209 317 outlet;
#X connect 0 0 4 0;
#X connect 1 0 0 0;
#X connect 2 0 11 0;
#X connect 3 0 5 0;
#X connect 4 0 3 0;
#X connect 4 1 2 0;
#X connect 5 0 6 0;
#X connect 5 1 7 0;
#X connect 6 0 9 0;
#X connect 7 0 10 0;
#X connect 8 0 1 0;
#X restore 58 76 pd convert2rgb;
#X msg 286 149 color \$1 \$1 \$1;
#X msg 57 112 set \$1;
#X msg 141 109 set \$1;
#X msg 234 111 set \$1;
#X obj 83 332 t b f;
#X obj 144 333 t b f;
#X obj 149 291 i;
#X obj 104 292 i;
#X obj 61 294 i;
#X obj 67 410 expr ($f1*(-65536)+$f2*(-256)+$f3*(-1))-1;
#X obj 66 372 pack f f f;
#X obj 58 14 r \$0-back_color;
#X obj 97 549 s \$0-back_color;
#X obj 58 45 spigot 1;
#X obj 67 457 t b f b;
#X msg 134 495 0;
#X msg 67 486 1;
#X connect 0 0 13 0;
#X connect 1 0 12 0;
#X connect 2 0 11 0;
#X connect 4 0 6 0;
#X connect 4 1 7 0;
#X connect 4 2 8 0;
#X connect 5 0 3 0;
#X connect 6 0 0 0;
#X connect 7 0 1 0;
#X connect 8 0 2 0;
#X connect 9 0 15 0;
#X connect 9 1 15 1;
#X connect 10 0 15 0;
#X connect 10 1 15 2;
#X connect 11 0 10 0;
#X connect 12 0 9 0;
#X connect 13 0 15 0;
#X connect 14 0 19 0;
#X connect 15 0 14 0;
#X connect 16 0 5 0;
#X connect 16 0 18 0;
#X connect 18 0 4 0;
#X connect 19 0 21 0;
#X connect 19 1 17 0;
#X connect 19 2 20 0;
#X connect 20 0 18 1;
#X connect 21 0 18 1;
#X coords 0 -1 1 1 169 36 2 50 150;
#X restore 48 173 pd color_picker;
#N canvas 882 181 1049 632 color_picker 0;
#X obj 53 150 hsl 128 12 0 255 0 0 empty empty empty -2 -8 0 10 #dcdcdc #fc0400 #000000 0 0;
#X obj 53 162 hsl 128 12 0 255 0 0 empty empty empty -2 -8 0 10 #dcdcdc #00fc04 #000000 0 0;
#X obj 53 174 hsl 128 12 0 255 0 0 empty empty empty -2 -8 0 10 #dcdcdc #0400fc #000000 0 0;
#X obj 183 150 tgl 36 0 empty empty empty 17 7 0 10 #969696 #969696 #969696 0 1;
#N canvas 0 50 498 451 convert2rgb 0;
#X obj 53 112 * -1;
#X obj 54 81 + 1;
#X obj 180 183 mod 256;
#X obj 51 179 div 256;
#X obj 52 143 t f f, f 13;
#X obj 49 210 t f f;
#X obj 48 248 div 256;
#X obj 132 250 mod 256;
#X obj 54 51 inlet;
#X obj 49 317 outlet;
#X obj 129 317 outlet;
#X obj 209 317 outlet;
#X connect 0 0 4 0;
#X connect 1 0 0 0;
#X connect 2 0 11 0;
#X connect 3 0 5 0;
#X connect 4 0 3 0;
#X connect 4 1 2 0;
#X connect 5 0 6 0;
#X connect 5 1 7 0;
#X connect 6 0 9 0;
#X connect 7 0 10 0;
#X connect 8 0 1 0;
#X restore 58 76 pd convert2rgb;
#X msg 286 149 color \$1 \$1 \$1;
#X msg 57 112 set \$1;
#X msg 141 109 set \$1;
#X msg 234 111 set \$1;
#X obj 83 332 t b f;
#X obj 144 333 t b f;
#X obj 149 291 i;
#X obj 104 292 i;
#X obj 61 294 i;
#X obj 67 410 expr ($f1*(-65536)+$f2*(-256)+$f3*(-1))-1;
#X obj 66 372 pack f f f;
#X obj 58 45 spigot 1;
#X obj 67 457 t b f b;
#X msg 134 495 0;
#X msg 67 486 1;
#X obj 58 14 r \$0-front_color;
#X obj 97 549 s \$0-front_color;
#X connect 0 0 13 0;
#X connect 1 0 12 0;
#X connect 2 0 11 0;
#X connect 4 0 6 0;
#X connect 4 1 7 0;
#X connect 4 2 8 0;
#X connect 5 0 3 0;
#X connect 6 0 0 0;
#X connect 7 0 1 0;
#X connect 8 0 2 0;
#X connect 9 0 15 0;
#X connect 9 1 15 1;
#X connect 10 0 15 0;
#X connect 10 1 15 2;
#X connect 11 0 10 0;
#X connect 12 0 9 0;
#X connect 13 0 15 0;
#X connect 14 0 17 0;
#X connect 15 0 14 0;
#X connect 16 0 4 0;
#X connect 17 0 19 0;
#X connect 17 1 21 0;
#X connect 17 2 18 0;
#X connect 18 0 16 1;
#X connect 19 0 16 1;
#X connect 20 0 5 0;
#X connect 20 0 16 0;
#X coords 0 -1 1 1 169 36 2 50 150;
#X restore 49 231 pd color_picker;
#X obj 92 111 cnv 15 300 20 empty \$0-receive_name-rcv Untitled_3*-rcv 2 10 0 16 #f0fcf8 #404040 0;
#X text 17 109 receive;
#X obj 348 230 bng 40 250 50 0 \$0-ok empty OK 5 20 0 20 #c4fcc4 #000000 #000000;
#N canvas 0 0 885 804 about_z-order 0;
#X text 31 621 If you plan to create complex behaviors with overlapped widgets and transparency support \, use MobMuPlatEditor or test on your target device., f 55;
#X obj 400 156 vsl 70 50 0 127 0 0 \$0-ex_sld empty empty 0 -9 0 10 #fcfcfc #000000 #000000 0 1;
#X obj 405 159 cnv 15 60 45 empty \$0-ex_cnv-rcv [46] 5 12 0 14 #e0e0e0 #404040 0;
#X obj 480 159 r \$0-ex_sld;
#X obj 485 244 s \$0-ex_cnv-rcv;
#X obj 482 187 int;
#X msg 485 215 label [\$1];
#X text 139 160 hidden vertical slider ->;
#X text 18 93 This way \, you can for example create a custom widget with \, say \, front-end canvas and hidden slider in background :;
#X text 18 33 * In puredata tcl/tk interface \, widgets on background level intercept mouse interaction.;
#X text 22 378 If you want to superpose widgets \, consider that the top-most widget will intercept touch events. It must be transparent \, while the background widget will display the visual feedback but without interacting with touch events.;
#X text 24 559 Remember that puredata tcl/tk doesn't support transparency.;
#X text 20 482 mob/widgets have transparency and z-order settings in properties panel. top-most z-order level = 99, f 75;
#X text 16 282 In the patch \, z-order of widgets are defined by their order of creation., f 73;
#X text 291 345 _________;
#X text 445 33 ________________;
#X text 19 341 * On MobMuPlat \, widgets on top level intercept touch interaction., f 74;
#X connect 3 0 5 0;
#X connect 5 0 6 0;
#X connect 6 0 4 0;
#X restore 212 435 pd about_z-order;
#X restore 1606 282 pd LCD_properties(\$0);
#X obj 1063 717 list append 0 0;
#X obj 955 1079 outlet;
#X obj 1071 893 symbol pd-\$0-subpatch;
#X obj 1070 859 loadbang;
#X msg 1391 62 symbol \$1-rcv;
#N canvas 0 0 1026 300 dynamic-receiver2 0;
#X obj 230 430 outlet;
#X obj 131 69 inlet;
#X obj 118 179 s pd-\$0-dynamic-receiver2;
#N canvas 0 0 450 126 \$0-dynamic-receiver2 0;
#X obj 10 10 r Untitled_3*-rcv;
#X obj 10 50 s 1175-iem_receive2;
#X connect 0 0 1 0;
#X restore 120 258 pd \$0-dynamic-receiver2;
#X obj 124 100 pack s \$0;
#X obj 128 347 r \$0-iem_receive2;
#X msg 118 131 clear \, obj 10 10 r \$1 \, obj 10 50 s \$2-iem_receive2 \, connect 0 0 1 0;
#X connect 1 0 4 0;
#X connect 4 0 6 0;
#X connect 5 0 0 0;
#X connect 6 0 2 0;
#X restore 1393 97 pd dynamic-receiver2;
#X obj 342 48 spigot 1;
#X obj 45 18 r MULTITOUCH.ACTIVESLOTS;
#X obj 45 47 == 0;
#N canvas 221 190 884 529 receive_MULTITOUCH.MODE2.parent\$0 0;
#X msg 176 71 bang;
#X obj 254 70 loadbang;
#X obj 230 430 outlet;
#X obj 181 104 iemguts/canvasdollarzero 2;
#N canvas 0 50 450 242 \$0-dynamic-receiver 0;
#X obj 10 10 r MULTITOUCH.MODE2.1144;
#X obj 10 50 s 1175-iem_receive;
#X connect 0 0 1 0;
#X restore 222 306 pd \$0-dynamic-receiver;
#X obj 219 147 pack s \$0;
#X obj 220 227 s pd-\$0-dynamic-receiver;
#X obj 230 395 r \$0-iem_receive;
#X msg 121 193 clear;
#X text 25 17 création dynamique d'un receiver avec un nom de canal défini au moment de l'ouverture du patch;
#X msg 220 179 clear \, obj 10 10 r MULTITOUCH.MODE2.\$1 \, obj 10 50 s \$2-iem_receive \, connect 0 0 1 0;
#X text 423 381 A chaque nouvel événement touch-down \, [r MULTITOUCH.MODE2.\$1] recoit un message sous la forme suivante : <x> <y> <slotID>, f 37;
#X connect 0 0 3 0;
#X connect 1 0 3 0;
#X connect 3 0 5 0;
#X connect 5 0 10 0;
#X connect 7 0 2 0;
#X connect 8 0 6 0;
#X connect 10 0 6 0;
#X restore 85 798 pd receive_MULTITOUCH.MODE2.parent\$0;
#N canvas 0 0 450 242 MULTITOUCH.MODE2_process 0;
#X obj 67 435 outlet;
#N canvas 770 9 1149 924 touch_listener 0;
#X obj 56 42 inlet;
#X obj 44 629 select 1;
#X obj 46 691 pack f f;
#X obj 44 659 f \$0;
#X obj 73 771 tabwrite MULTITOUCH.SLOT.STATUS;
#X obj 42 811 list append, f 14;
#X obj 58 127 spigot 1;
#X msg 156 65 0;
#X msg 212 102 1;
#X obj 392 33 r \$0-channel;
#X obj 393 67 route remove update;
#X obj 185 263 tabread MULTITOUCH.SLOT.STATUS;
#X obj 58 163 list split 2;
#X obj 52 333 spigot;
#X obj 185 322 == 0;
#X text 193 294 check if slot still free;
#X obj 152 221 t f f f;
#X obj 596 555 pack f f;
#X obj 46 728 t b l b l b;
#X obj 181 611 pack f f;
#X obj 54 478 t f f;
#X obj 382 103 t b b b b;
#X obj 306 818 list append 0 0;
#X obj 403 497 t a a;
#X obj 440 535 list length;
#X obj 444 564 - 1;
#X obj 387 605 list split;
#X obj 385 644 list trim;
#X obj 39 930 outlet;
#X msg 27 856 add \$1 \$2;
#X msg 149 859 update \$1 \$2;
#X msg 309 862 remove \$1 \$2;
#X text 777 42 la table MULTITOUCH.SLOT.STATUS indique si chaque slot (tracker de touch-event) est associé ou non à un élément GUI multitouch. Si tel est le cas \, l'éĺément i de la table associé au slot i prend la valeur \$0 du touch_listener auquel il est associé, f 33;
#X obj 210 469 t f f;
#N canvas 0 50 450 300 Is_inside_Gui_object? 0;
#X obj 53 38 inlet;
#X obj 225 38 inlet;
#X obj 59 266 outlet;
#X obj 53 130 - 100;
#X obj 222 126 - 100;
#X obj 48 166 abs;
#X obj 222 157 abs;
#X obj 47 198 < 100;
#X obj 219 192 < 100;
#X obj 55 231 &&;
#X obj 145 72 / 2;
#X obj 309 63 / 2;
#X obj 139 42 r \$0-w;
#X obj 309 39 r \$0-h;
#X connect 0 0 3 0;
#X connect 1 0 4 0;
#X connect 3 0 5 0;
#X connect 4 0 6 0;
#X connect 5 0 7 0;
#X connect 6 0 8 0;
#X connect 7 0 9 0;
#X connect 8 0 9 1;
#X connect 9 0 2 0;
#X connect 10 0 3 1;
#X connect 10 0 7 1;
#X connect 11 0 4 1;
#X connect 11 0 8 1;
#X connect 12 0 10 0;
#X connect 13 0 11 0;
#X restore 46 541 pd Is_inside_Gui_object?;
#X f 10;
#N canvas 0 50 450 271 Gui_object_relative_coords 0;
#X obj 57 45 inlet;
#X obj 75 261 outlet;
#X obj 232 264 outlet;
#X obj 196 83 unpack f f;
#X obj 64 144 -;
#X obj 225 142 -;
#X obj 59 100 unpack f f;
#X obj 200 53 r \$0-pos;
#X connect 0 0 6 0;
#X connect 3 0 4 1;
#X connect 3 1 5 1;
#X connect 4 0 1 0;
#X connect 5 0 2 0;
#X connect 6 0 4 0;
#X connect 6 1 5 0;
#X connect 7 0 3 0;
#X restore 50 375 pd Gui_object_relative_coords;
#X f 13;
#N canvas 0 50 450 300 Normalize_coords 0;
#X obj 48 31 inlet;
#X obj 318 31 inlet;
#X obj 38 241 outlet;
#X obj 308 241 outlet;
#X obj 47 145 /;
#X obj 318 106 /;
#X obj 339 157 * -1;
#X obj 339 185 + 1;
#X obj 160 54 r \$0-w;
#X obj 398 58 r \$0-h;
#X connect 0 0 4 0;
#X connect 1 0 5 0;
#X connect 4 0 2 0;
#X connect 5 0 6 0;
#X connect 6 0 7 0;
#X connect 7 0 3 0;
#X connect 8 0 4 1;
#X connect 9 0 5 1;
#X restore 178 539 pd Normalize_coords;
#X f 10;
#N canvas 0 50 450 271 Gui_object_relative_coords 0;
#X obj 57 45 inlet;
#X obj 75 261 outlet;
#X obj 232 264 outlet;
#X obj 196 83 unpack f f;
#X obj 64 144 -;
#X obj 225 142 -;
#X obj 59 100 unpack f f;
#X obj 200 53 r \$0-pos;
#X connect 0 0 6 0;
#X connect 3 0 4 1;
#X connect 3 1 5 1;
#X connect 4 0 1 0;
#X connect 5 0 2 0;
#X connect 6 0 4 0;
#X connect 6 1 5 0;
#X connect 7 0 3 0;
#X restore 591 408 pd Gui_object_relative_coords;
#X f 13;
#N canvas 0 50 450 271 Normalize_coords 0;
#X obj 48 31 inlet;
#X obj 318 31 inlet;
#X obj 38 241 outlet;
#X obj 308 241 outlet;
#X obj 47 145 /;
#X obj 318 106 /;
#X obj 339 157 * -1;
#X obj 339 185 + 1;
#X obj 160 54 r \$0-w;
#X obj 398 58 r \$0-h;
#X connect 0 0 4 0;
#X connect 1 0 5 0;
#X connect 4 0 2 0;
#X connect 5 0 6 0;
#X connect 6 0 7 0;
#X connect 7 0 3 0;
#X connect 8 0 4 1;
#X connect 9 0 5 1;
#X restore 592 487 pd Normalize_coords;
#X f 10;
#X obj 594 615 t l l;
#X text 399 764 associe le slot i de la table MULTITOUCH.SLOT.STATUS au \$0 du présent touch_listener, f 52;
#X connect 0 0 6 0;
#X connect 1 0 3 0;
#X connect 2 0 18 0;
#X connect 3 0 2 0;
#X connect 5 0 29 0;
#X connect 6 0 12 0;
#X connect 7 0 6 1;
#X connect 8 0 6 1;
#X connect 9 0 10 0;
#X connect 10 0 21 0;
#X connect 10 1 37 0;
#X connect 10 2 23 0;
#X connect 11 0 14 0;
#X connect 12 0 13 0;
#X connect 12 1 16 0;
#X connect 13 0 35 0;
#X connect 14 0 13 1;
#X connect 16 0 2 1;
#X connect 16 1 11 0;
#X connect 17 0 39 0;
#X connect 18 0 5 0;
#X connect 18 1 4 0;
#X connect 18 2 7 0;
#X connect 19 0 5 1;
#X connect 19 0 22 1;
#X connect 20 0 34 0;
#X connect 20 1 36 0;
#X connect 21 0 8 0;
#X connect 21 1 22 0;
#X connect 22 0 31 0;
#X connect 23 0 26 0;
#X connect 23 1 24 0;
#X connect 24 0 25 0;
#X connect 25 0 26 1;
#X connect 26 0 27 0;
#X connect 27 0 28 0;
#X connect 29 0 28 0;
#X connect 30 0 28 0;
#X connect 31 0 28 0;
#X connect 33 0 34 1;
#X connect 33 1 36 1;
#X connect 34 0 1 0;
#X connect 35 0 20 0;
#X connect 35 1 33 0;
#X connect 36 0 19 0;
#X connect 36 1 19 1;
#X connect 37 0 38 0;
#X connect 37 1 38 1;
#X connect 38 0 17 0;
#X connect 38 1 17 1;
#X connect 39 0 30 0;
#X connect 39 1 22 1;
#X restore 84 65 pd touch_listener;
#X obj 105 287 route add remove update;
#X msg 54 378 1 \$1 \$2;
#X msg 134 378 0 \$1 \$2;
#X msg 224 378 2 \$1 \$2;
#X obj 83 99 list split 2;
#X msg 144 136 \$1;
#X obj 144 165 * -1;
#X obj 144 194 + 1;
#X obj 88 224 list append;
#X obj 88 253 list trim;
#X obj 84 31 inlet;
#X obj 250 133 route bang;
#X obj 250 162 t b;
#X connect 1 0 6 0;
#X connect 2 0 3 0;
#X connect 2 1 4 0;
#X connect 2 2 5 0;
#X connect 3 0 0 0;
#X connect 4 0 0 0;
#X connect 5 0 0 0;
#X connect 6 0 10 0;
#X connect 6 1 13 0;
#X connect 7 0 8 0;
#X connect 8 0 9 0;
#X connect 9 0 10 1;
#X connect 10 0 11 0;
#X connect 11 0 2 0;
#X connect 12 0 1 0;
#X connect 13 0 14 0;
#X connect 13 1 7 0;
#X connect 14 0 10 1;
#X restore 86 830 pd MULTITOUCH.MODE2_process;
#X obj 251 380 r \$0-editmode;
#N canvas 143 12 1918 476 init/savestate 0;
#X obj 226 397 savestate;
#X obj 397 500 s \$0-save;
#X obj 204 154 v \$0-w;
#X obj 226 439 list trim;
#X obj 302 28 r \$0-save;
#X obj 334 154 v \$0-h;
#X obj 304 682 unpack f f;
#X obj 202 224 pack f f;
#X obj 245 347 list, f 51;
#X obj 228 785 s \$0-w;
#X obj 338 763 s \$0-h;
#X msg 202 266 -size \$1 \$2;
#X obj 28 46 loadbang;
#X obj 28 152 spigot 1;
#X msg 127 109 0;
#X obj 437 719 s \$0-name;
#X obj 379 206 symbol;
#X obj 412 167 r \$0-name;
#X msg 379 238 -name \$1;
#X obj 439 671 symbol;
#X obj 481 208 symbol;
#X obj 909 655 symbol;
#X obj 907 702 s \$0-title;
#X obj 528 170 r \$0-title;
#X msg 475 236 -title \$1;
#X obj 1083 173 v \$0-front_alpha;
#X obj 1281 173 v \$0-back_alpha;
#X msg 1069 230 -front_alpha \$1;
#X msg 1267 230 -back_alpha \$1;
#X obj 1049 627 s \$0-front_alpha;
#X obj 1247 627 s \$0-back_alpha;
#X obj 820 300 v \$0-back_color;
#X obj 550 794 s \$0-back_color;
#N canvas 0 50 540 413 convert 0;
#X obj 167 29 inlet;
#X obj 165 86 route float list;
#X obj 243 251 * -1;
#X obj 243 119 unpack f f f, f 17;
#X obj 243 285 - 1;
#X obj 326 153 * 256;
#X obj 243 153 * 65536;
#X obj 326 187 +;
#X obj 243 217 +;
#X obj 165 338 outlet;
#X connect 0 0 1 0;
#X connect 1 0 9 0;
#X connect 1 1 3 0;
#X connect 2 0 4 0;
#X connect 3 0 6 0;
#X connect 3 1 5 0;
#X connect 3 2 7 1;
#X connect 4 0 9 0;
#X connect 5 0 7 0;
#X connect 6 0 8 0;
#X connect 7 0 8 1;
#X connect 8 0 2 0;
#X restore 550 724 pd convert;
#N canvas 0 0 498 451 convert2rgb 0;
#X obj 53 112 * -1;
#X obj 54 81 + 1;
#X obj 180 181 mod 256;
#X obj 51 179 div 256;
#X obj 52 143 t f f, f 13;
#X obj 49 210 t f f;
#X obj 48 248 div 256;
#X obj 132 250 mod 256;
#X obj 49 288 pack f f f;
#X obj 54 51 inlet;
#X obj 49 317 outlet;
#X connect 0 0 4 0;
#X connect 1 0 0 0;
#X connect 2 0 8 2;
#X connect 3 0 5 0;
#X connect 4 0 3 0;
#X connect 4 1 2 0;
#X connect 5 0 6 0;
#X connect 5 1 7 0;
#X connect 6 0 8 0;
#X connect 7 0 8 1;
#X connect 8 0 10 0;
#X connect 9 0 1 0;
#X restore 817 330 pd convert2rgb;
#X msg 806 371 -back_color \$1 \$2 \$3;
#N canvas 0 50 498 451 convert2rgb 0;
#X obj 53 112 * -1;
#X obj 54 81 + 1;
#X obj 180 181 mod 256;
#X obj 51 179 div 256;
#X obj 52 143 t f f, f 13;
#X obj 49 210 t f f;
#X obj 48 248 div 256;
#X obj 132 250 mod 256;
#X obj 49 288 pack f f f;
#X obj 54 51 inlet;
#X obj 49 317 outlet;
#X connect 0 0 4 0;
#X connect 1 0 0 0;
#X connect 2 0 8 2;
#X connect 3 0 5 0;
#X connect 4 0 3 0;
#X connect 4 1 2 0;
#X connect 5 0 6 0;
#X connect 5 1 7 0;
#X connect 6 0 8 0;
#X connect 7 0 8 1;
#X connect 8 0 10 0;
#X connect 9 0 1 0;
#X restore 1013 324 pd convert2rgb;
#N canvas 0 0 540 413 convert 0;
#X obj 167 29 inlet;
#X obj 165 86 route float list;
#X obj 243 251 * -1;
#X obj 243 119 unpack f f f, f 17;
#X obj 243 285 - 1;
#X obj 326 153 * 256;
#X obj 243 153 * 65536;
#X obj 326 187 +;
#X obj 243 217 +;
#X obj 165 338 outlet;
#X connect 0 0 1 0;
#X connect 1 0 9 0;
#X connect 1 1 3 0;
#X connect 2 0 4 0;
#X connect 3 0 6 0;
#X connect 3 1 5 0;
#X connect 3 2 7 1;
#X connect 4 0 9 0;
#X connect 5 0 7 0;
#X connect 6 0 8 0;
#X connect 7 0 8 1;
#X connect 8 0 2 0;
#X restore 725 710 pd convert;
#X obj 1011 297 v \$0-front_color;
#X msg 1008 361 -front_color \$1 \$2 \$3;
#X obj 727 762 s \$0-front_color;
#X obj 37 230 s \$0-editmode;
#X msg 55 194 1;
#X obj 364 431 v MMP.EXPORT.FLAG;
#X obj 364 465 select 0;
#N canvas 0 0 731 635 init_name 0;
#X obj 58 424 + 1;
#X obj 57 389 v MMP.UNTITLED_WIDGET;
#X obj 59 530 s \$0-name;
#X obj 351 161 r \$0-name;
#X msg 447 329 set \$1;
#X obj 487 373 s \$0-name-rcv;
#X msg 363 246 label \$1-rcv;
#X obj 359 293 s \$0-receive_name-rcv;
#X obj 57 456 t f f;
#X obj 58 37 loadbang;
#X obj 209 23 r \$0-name;
#X obj 138 173 list fromsymbol;
#X obj 137 221 list split 9;
#X obj 137 279 list tosymbol;
#X obj 137 336 select Untitled_;
#X obj 356 194 t s s;
#X obj 57 125 select 0;
#X obj 57 77 list append 0;
#X msg 58 488 symbol Untitled_\$1*;
#X connect 0 0 8 0;
#X connect 1 0 0 0;
#X connect 3 0 15 0;
#X connect 4 0 5 0;
#X connect 6 0 7 0;
#X connect 8 0 18 0;
#X connect 8 1 1 0;
#X connect 9 0 17 0;
#X connect 10 0 17 1;
#X connect 11 0 12 0;
#X connect 12 0 13 0;
#X connect 13 0 14 0;
#X connect 14 0 1 0;
#X connect 15 0 6 0;
#X connect 15 1 4 0;
#X connect 16 0 1 0;
#X connect 16 1 11 0;
#X connect 17 0 16 0;
#X connect 18 0 2 0;
#X restore 546 42 pd init_name;
#X obj 1538 218 v \$0-z_offset;
#X msg 1538 247 -z_offset \$1;
#X obj 1546 627 s \$0-z_offset;
#X obj 302 70 t b b b b b b b b b;
#X obj 391 570 route -size -name -back_color -front_color -title -front_alpha -back_alpha -z_offset, f 93;
#X msg 30 437 -size 60 60 \, -back_color 255 255 255 \, -front_color 150 150 150 \, -front_alpha 1 \, -back_alpha 1, f 10;
#X connect 0 0 3 0;
#X connect 0 0 14 0;
#X connect 0 1 43 0;
#X connect 2 0 7 0;
#X connect 3 0 50 0;
#X connect 4 0 49 0;
#X connect 5 0 7 1;
#X connect 6 0 9 0;
#X connect 6 1 10 0;
#X connect 7 0 11 0;
#X connect 8 0 0 0;
#X connect 11 0 8 0;
#X connect 12 0 13 0;
#X connect 13 0 51 0;
#X connect 13 0 42 0;
#X connect 14 0 13 1;
#X connect 16 0 18 0;
#X connect 17 0 16 1;
#X connect 18 0 8 0;
#X connect 19 0 15 0;
#X connect 20 0 24 0;
#X connect 21 0 22 0;
#X connect 23 0 20 1;
#X connect 24 0 8 0;
#X connect 25 0 27 0;
#X connect 26 0 28 0;
#X connect 27 0 8 0;
#X connect 28 0 8 0;
#X connect 31 0 34 0;
#X connect 33 0 32 0;
#X connect 34 0 35 0;
#X connect 35 0 8 0;
#X connect 36 0 39 0;
#X connect 37 0 40 0;
#X connect 38 0 36 0;
#X connect 39 0 8 0;
#X connect 42 0 41 0;
#X connect 43 0 44 0;
#X connect 44 0 1 0;
#X connect 46 0 47 0;
#X connect 47 0 8 0;
#X connect 49 0 2 0;
#X connect 49 1 5 0;
#X connect 49 2 16 0;
#X connect 49 3 20 0;
#X connect 49 4 31 0;
#X connect 49 5 38 0;
#X connect 49 6 25 0;
#X connect 49 7 26 0;
#X connect 49 8 46 0;
#X connect 50 0 6 0;
#X connect 50 1 19 0;
#X connect 50 2 33 0;
#X connect 50 3 37 0;
#X connect 50 4 21 0;
#X connect 50 5 29 0;
#X connect 50 6 30 0;
#X connect 50 7 48 0;
#X connect 51 0 50 0;
#X restore 2028 406 pd init/savestate;
#X msg 1072 926 drawing_subpatch \$1;
#X obj 896 941 r \$0-pointer;
#X obj 894 974 list prepend drawing_pointer;
#X obj 894 1003 list trim;
#X obj 1269 104 s;
#X msg 1392 190 clear;
#X obj 373 1020 r \$0-name;
#X msg 373 1052 symbol \$1;
#N canvas 0 0 1026 300 dynamic-receiver3 0;
#X obj 230 430 outlet;
#X obj 131 69 inlet;
#X obj 124 100 pack s \$0;
#X obj 118 179 s pd-\$0-dynamic-receiver3;
#N canvas 0 0 450 126 \$0-dynamic-receiver3 0;
#X obj 10 10 r Untitled_3*;
#X obj 10 50 s 1175-iem_receive3;
#X connect 0 0 1 0;
#X restore 120 258 pd \$0-dynamic-receiver3;
#X msg 118 131 clear \, obj 10 10 r \$1 \, obj 10 50 s \$2-iem_receive3 \, connect 0 0 1 0;
#X obj 128 347 r \$0-iem_receive3;
#X connect 1 0 2 0;
#X connect 2 0 5 0;
#X connect 5 0 3 0;
#X connect 6 0 0 0;
#X restore 375 1078 pd dynamic-receiver3;
#N canvas 0 0 450 300 todo 0;
#X obj 35 101 cnv 15 200 80 empty empty TODO 20 12 0 14 #fcfcc4 #404040 0;
#X floatatom 187 130 5 0 0 0 text_color \$0-cc-rcv \$0-cc-snd 0;
#X floatatom 187 173 5 0 0 0 text_size - - 0;
#X restore 1790 326 pd todo;
#X obj 100 103 vsl 60 54 0 127 0 0 empty \$0-background_slider-rcv empty 0 -9 0 10 #ffffff #ffffff #ffffff 0 1;
#N canvas 0 440 278 295 \$0-subpatch 0;
#X coords 0 0 1 1 58 58 2 0 0;
#X restore 100 101 pd \$0-subpatch;
#X obj 1227 848 bng 15 250 50 0 empty empty empty 17 7 0 10 #fcfcfc #000000 #000000;
#X obj 1252 761 r \$0-get_drawing_subpatch;
#X obj 866 91 loadbang;
#N canvas 0 0 955 736 pdob 0;
#X obj 62 25 inlet;
#X obj 61 550 s toOSC;
#X obj 251 442 r \$0-name;
#X msg 251 471 set \$1;
#X obj 132 385 list split 3;
#X msg 569 731 penwidth 3;
#X msg 822 137 paintoval 0.4 0.2 0.5 0.4 0.2 0.2 1 1, f 25;
#X msg 822 27 frameoval 0.6 0.5 0.7 0.9 1 0.5 0 1, f 25;
#X msg 822 247 framerect 0.1 0.1 0.9 0.9 0.5 0.3 0.1 1, f 25;
#X msg 822 357 paintrect 0.8 0.2 0.9 0.4 0.9 0.3 0.1 1, f 25;
#X msg 822 403 paintrect 0.4 0.4 0.6 0.6;
#X msg 569 625 moveto 0.5 0.5;
#X msg 569 664 lineto 0.7 0.9 1 0 0 1;
#X msg 569 690 lineto 0.2 0.4;
#X msg 60 125 list clear 0 0;
#X obj 25 207 list prepend moveto;
#X obj 75 247 list prepend lineto;
#N canvas 0 0 751 519 paintrect 0;
#X obj 93 9 inlet;
#X obj 112 427 outlet;
#X obj 106 66 list split 4;
#N canvas 0 0 618 421 color2hex 0;
#X obj 113 45 inlet;
#X obj 197 362 outlet;
#X obj 257 100 unpack f f f f;
#X obj 248 158 * 255;
#X obj 378 158 * 255;
#X obj 319 158 * 255;
#X obj 191 270 pack s s s;
#X msg 182 319 symbol #\$1\$2\$3;
#X floatatom 69 126 5 0 0 0 - - - 0;
#X obj 53 194 makefilename %02x;
#X obj 259 233 makefilename %02x;
#X obj 389 202 makefilename %02x;
#X connect 0 0 2 0;
#X connect 2 0 3 0;
#X connect 2 1 5 0;
#X connect 2 2 4 0;
#X connect 3 0 9 0;
#X connect 4 0 11 0;
#X connect 5 0 10 0;
#X connect 6 0 7 0;
#X connect 7 0 1 0;
#X connect 8 0 9 0;
#X connect 9 0 6 0;
#X connect 10 0 6 1;
#X connect 11 0 6 2;
#X restore 265 139 pd color2hex;
#X obj 106 95 t l l;
#X msg 140 174 list moveto \$1 \$2;
#X obj 114 216 unpack f f f f;
#X obj 115 258 -;
#X obj 191 261 -;
#X obj 115 287 * -1;
#X obj 191 290 * -1;
#X obj 190 324 pack f f;
#X msg 191 360 list rect \$1 \$2;
#X msg 281 230 list fillColor \$1 0;
#X connect 0 0 2 0;
#X connect 2 0 4 0;
#X connect 2 1 3 0;
#X connect 3 0 13 0;
#X connect 4 0 6 0;
#X connect 4 1 5 0;
#X connect 5 0 1 0;
#X connect 6 0 7 0;
#X connect 6 1 8 0;
#X connect 6 2 7 1;
#X connect 6 3 8 1;
#X connect 7 0 9 0;
#X connect 8 0 10 0;
#X connect 9 0 11 0;
#X connect 10 0 11 1;
#X connect 11 0 12 0;
#X connect 12 0 1 0;
#X connect 13 0 1 0;
#X restore 307 217 pd paintrect;
#X obj 59 519 oscformat untitled;
#N canvas 0 0 618 421 color2hex 0;
#X obj 113 45 inlet;
#X obj 197 362 outlet;
#X obj 257 100 unpack f f f f;
#X obj 248 158 * 255;
#X obj 378 158 * 255;
#X obj 319 158 * 255;
#X obj 191 270 pack s s s;
#X msg 182 319 symbol #\$1\$2\$3;
#X floatatom 69 126 5 0 0 0 - - - 0;
#X obj 53 194 makefilename %02x;
#X obj 259 233 makefilename %02x;
#X obj 389 202 makefilename %02x;
#X connect 0 0 2 0;
#X connect 2 0 3 0;
#X connect 2 1 5 0;
#X connect 2 2 4 0;
#X connect 3 0 9 0;
#X connect 4 0 11 0;
#X connect 5 0 10 0;
#X connect 6 0 7 0;
#X connect 7 0 1 0;
#X connect 8 0 9 0;
#X connect 9 0 6 0;
#X connect 10 0 6 1;
#X connect 11 0 6 2;
#X restore 481 204 pd color2hex;
#X msg 497 295 list color \$1 0;
#X msg 554 356 list penwidth \$1 0;
#X obj 153 58 route clear moveto lineto paintrect color penwidth frameoval paintoval;
#N canvas 1027 367 698 572 paintoval 0;
#X msg 644 192 paintoval 0.4 0.2 0.5 0.4 0.2 0.2 1 1, f 25;
#X msg 644 82 frameoval 0.6 0.5 0.7 0.9 1 0.5 0 1, f 25;
#N canvas 0 0 618 421 color2hex 0;
#X obj 113 45 inlet;
#X obj 197 362 outlet;
#X obj 257 100 unpack f f f f;
#X obj 248 158 * 255;
#X obj 378 158 * 255;
#X obj 319 158 * 255;
#X obj 191 270 pack s s s;
#X msg 182 319 symbol #\$1\$2\$3;
#X floatatom 69 126 5 0 0 0 - - - 0;
#X obj 53 194 makefilename %02x;
#X obj 259 233 makefilename %02x;
#X obj 389 202 makefilename %02x;
#X connect 0 0 2 0;
#X connect 2 0 3 0;
#X connect 2 1 5 0;
#X connect 2 2 4 0;
#X connect 3 0 9 0;
#X connect 4 0 11 0;
#X connect 5 0 10 0;
#X connect 6 0 7 0;
#X connect 7 0 1 0;
#X connect 8 0 9 0;
#X connect 9 0 6 0;
#X connect 10 0 6 1;
#X connect 11 0 6 2;
#X restore 365 125 pd color2hex;
#X obj 45 9 inlet;
#X obj 26 455 outlet;
#X obj 41 55 list split 4, f 40;
#X obj 43 113 unpack f f f f, f 26;
#X obj 87 181 -;
#X obj 171 185 -;
#X msg 365 154 list fillColor \$1 0;
#X obj 30 309 +;
#X obj 28 364 pack f f f f, f 13;
#X obj 74 239 t f f;
#X obj 41 141 t f f;
#X obj 125 316 +;
#X obj 171 243 t f f;
#X obj 128 144 t f f;
#X msg 25 398 list moveto \$1 \$2 \, list paintoval \$3 \$4;
#X obj 78 211 * -0.5;
#X obj 171 214 * -0.5;
#X connect 2 0 9 0;
#X connect 3 0 5 0;
#X connect 5 0 6 0;
#X connect 5 1 2 0;
#X connect 6 0 13 0;
#X connect 6 1 16 0;
#X connect 6 2 7 1;
#X connect 6 3 8 1;
#X connect 7 0 18 0;
#X connect 8 0 19 0;
#X connect 9 0 4 0;
#X connect 10 0 11 0;
#X connect 11 0 17 0;
#X connect 12 0 10 1;
#X connect 12 1 11 2;
#X connect 13 0 10 0;
#X connect 13 1 7 0;
#X connect 14 0 11 1;
#X connect 15 0 14 1;
#X connect 15 1 11 3;
#X connect 16 0 14 0;
#X connect 16 1 8 0;
#X connect 17 0 4 0;
#X connect 18 0 12 0;
#X connect 19 0 15 0;
#X restore 643 473 pd paintoval;
#N canvas 1027 367 698 572 frameoval 0;
#X msg 644 192 paintoval 0.4 0.2 0.5 0.4 0.2 0.2 1 1, f 25;
#X msg 644 82 frameoval 0.6 0.5 0.7 0.9 1 0.5 0 1, f 25;
#N canvas 0 0 618 421 color2hex 0;
#X obj 113 45 inlet;
#X obj 197 362 outlet;
#X obj 257 100 unpack f f f f;
#X obj 248 158 * 255;
#X obj 378 158 * 255;
#X obj 319 158 * 255;
#X obj 191 270 pack s s s;
#X msg 182 319 symbol #\$1\$2\$3;
#X floatatom 69 126 5 0 0 0 - - - 0;
#X obj 53 194 makefilename %02x;
#X obj 259 233 makefilename %02x;
#X obj 389 202 makefilename %02x;
#X connect 0 0 2 0;
#X connect 2 0 3 0;
#X connect 2 1 5 0;
#X connect 2 2 4 0;
#X connect 3 0 9 0;
#X connect 4 0 11 0;
#X connect 5 0 10 0;
#X connect 6 0 7 0;
#X connect 7 0 1 0;
#X connect 8 0 9 0;
#X connect 9 0 6 0;
#X connect 10 0 6 1;
#X connect 11 0 6 2;
#X restore 365 125 pd color2hex;
#X obj 45 9 inlet;
#X obj 26 455 outlet;
#X obj 41 55 list split 4, f 40;
#X obj 43 113 unpack f f f f, f 26;
#X obj 87 181 -;
#X obj 171 185 -;
#X obj 30 309 +;
#X obj 28 364 pack f f f f, f 13;
#X obj 74 239 t f f;
#X obj 41 141 t f f;
#X obj 125 316 +;
#X obj 171 243 t f f;
#X obj 128 144 t f f;
#X obj 78 211 * -0.5;
#X obj 171 214 * -0.5;
#X msg 365 154 list color \$1 0;
#X msg 25 398 list moveto \$1 \$2 \, list frameoval \$3 \$4;
#X connect 2 0 18 0;
#X connect 3 0 5 0;
#X connect 5 0 6 0;
#X connect 5 1 2 0;
#X connect 6 0 12 0;
#X connect 6 1 15 0;
#X connect 6 2 7 1;
#X connect 6 3 8 1;
#X connect 7 0 16 0;
#X connect 8 0 17 0;
#X connect 9 0 10 0;
#X connect 10 0 19 0;
#X connect 11 0 9 1;
#X connect 11 1 10 2;
#X connect 12 0 9 0;
#X connect 12 1 7 0;
#X connect 13 0 10 1;
#X connect 14 0 13 1;
#X connect 14 1 10 3;
#X connect 15 0 13 0;
#X connect 15 1 8 0;
#X connect 16 0 11 0;
#X connect 17 0 14 0;
#X connect 18 0 4 0;
#X connect 19 0 4 0;
#X restore 593 423 pd frameoval;
#X connect 0 0 22 0;
#X connect 2 0 3 0;
#X connect 3 0 18 0;
#X connect 4 0 18 0;
#X connect 14 0 18 0;
#X connect 15 0 18 0;
#X connect 16 0 18 0;
#X connect 17 0 18 0;
#X connect 18 0 1 0;
#X connect 19 0 20 0;
#X connect 20 0 18 0;
#X connect 21 0 18 0;
#X connect 22 0 14 0;
#X connect 22 1 15 0;
#X connect 22 2 16 0;
#X connect 22 3 17 0;
#X connect 22 4 19 0;
#X connect 22 5 21 0;
#X connect 22 6 24 0;
#X connect 22 7 23 0;
#X connect 23 0 18 0;
#X connect 24 0 18 0;
#X restore 1070 222 pd pdob (open_stage_control);
#N canvas 0 0 1026 300 dynamic-receiver4 0;
#X obj 230 430 outlet;
#X obj 131 69 inlet;
#X obj 124 100 pack s \$0;
#X obj 118 179 s pd-\$0-dynamic-receiver4;
#X msg 118 131 clear \, obj 10 10 r \$1 \, obj 10 50 s \$2-iem_receive4 \, connect 0 0 1 0;
#N canvas 0 0 450 126 \$0-dynamic-receiver4 0;
#X obj 10 10 r _FROM_OSC_Untitled_3*;
#X obj 10 50 s 1175-iem_receive4;
#X connect 0 0 1 0;
#X restore 120 258 pd \$0-dynamic-receiver4;
#X obj 128 347 r \$0-iem_receive4;
#X connect 1 0 2 0;
#X connect 2 0 4 0;
#X connect 4 0 3 0;
#X connect 6 0 0 0;
#X restore 981 108 pd dynamic-receiver4;
#X msg 985 55 symbol _FROM_OSC_\$1;
#X obj 425 886 t a;
#X obj 1351 158 spigot 1;
#X obj 1457 149 v NO_GUI;
#X obj 1471 181 == 0;
#X obj 1324 125 t a a b;
#X floatatom 856 362 5 0 0 0 - - - 0;
#X floatatom 636 348 5 0 0 0 - - - 0;
#X obj 634 18 declare -path iemguts;
#X obj 697 300 canvas.pos 1 \$0;
#X obj 349 5 receivecanvas 1;
#X connect 0 0 1 1;
#X connect 0 0 135 0;
#X connect 0 1 2 1;
#X connect 0 1 134 0;
#X connect 1 0 60 0;
#X connect 2 0 62 0;
#X connect 3 0 28 0;
#X connect 3 0 70 1;
#X connect 4 0 7 0;
#X connect 4 1 14 0;
#X connect 5 0 6 0;
#X connect 5 1 15 0;
#X connect 6 0 26 1;
#X connect 7 0 26 0;
#X connect 8 0 49 0;
#X connect 8 1 37 0;
#X connect 8 2 50 0;
#X connect 9 0 10 0;
#X connect 10 1 42 0;
#X connect 14 0 26 0;
#X connect 15 0 26 1;
#X connect 20 0 31 0;
#X connect 21 0 55 0;
#X connect 22 0 21 0;
#X connect 23 0 24 0;
#X connect 24 0 55 0;
#X connect 26 0 3 0;
#X connect 28 0 9 0;
#X connect 31 0 32 0;
#X connect 32 0 27 0;
#X connect 33 0 34 0;
#X connect 33 0 47 0;
#X connect 34 0 31 0;
#X connect 34 1 31 1;
#X connect 35 1 8 0;
#X connect 35 2 137 0;
#X connect 36 0 1 0;
#X connect 37 0 2 0;
#X connect 38 0 39 0;
#X connect 38 1 39 1;
#X connect 39 0 41 0;
#X connect 40 0 42 1;
#X connect 40 1 42 1;
#X connect 41 0 40 0;
#X connect 42 0 12 0;
#X connect 44 0 45 0;
#X connect 45 0 46 0;
#X connect 46 0 43 0;
#X connect 47 0 43 0;
#X connect 48 0 43 0;
#X connect 49 0 36 0;
#X connect 50 0 49 1;
#X connect 51 0 52 0;
#X connect 52 0 43 0;
#X connect 53 0 43 0;
#X connect 57 0 115 0;
#X connect 59 0 60 1;
#X connect 60 0 63 0;
#X connect 61 0 62 1;
#X connect 62 0 64 0;
#X connect 63 0 65 0;
#X connect 63 1 4 0;
#X connect 64 0 66 0;
#X connect 64 1 5 0;
#X connect 65 0 72 0;
#X connect 66 0 72 1;
#X connect 69 0 36 1;
#X connect 69 0 37 1;
#X connect 70 0 129 0;
#X connect 71 0 3 0;
#X connect 72 0 73 0;
#X connect 73 0 70 0;
#X connect 75 0 9 1;
#X connect 75 1 35 0;
#X connect 75 2 92 0;
#X connect 75 3 89 0;
#X connect 75 4 68 0;
#X connect 76 0 77 0;
#X connect 77 0 78 1;
#X connect 77 1 79 1;
#X connect 78 0 83 0;
#X connect 79 0 85 0;
#X connect 80 0 78 0;
#X connect 81 0 79 0;
#X connect 82 0 83 1;
#X connect 83 0 86 0;
#X connect 84 0 85 1;
#X connect 85 0 87 0;
#X connect 86 0 90 0;
#X connect 87 0 90 1;
#X connect 88 0 80 1;
#X connect 88 0 81 1;
#X connect 89 0 80 0;
#X connect 89 1 81 0;
#X connect 90 0 91 0;
#X connect 90 0 98 1;
#X connect 91 0 70 0;
#X connect 92 0 71 0;
#X connect 92 1 98 0;
#X connect 93 0 70 0;
#X connect 95 0 94 1;
#X connect 96 0 102 0;
#X connect 96 0 128 0;
#X connect 98 0 93 0;
#X connect 100 0 111 0;
#X connect 101 0 100 0;
#X connect 102 0 103 0;
#X connect 102 0 115 1;
#X connect 103 0 133 0;
#X connect 104 0 75 0;
#X connect 105 0 106 0;
#X connect 106 0 104 1;
#X connect 107 0 108 0;
#X connect 108 0 129 0;
#X connect 109 0 9 1;
#X connect 111 0 99 0;
#X connect 112 0 113 0;
#X connect 113 0 114 0;
#X connect 114 0 99 0;
#X connect 116 0 58 0;
#X connect 117 0 118 0;
#X connect 118 0 119 0;
#X connect 119 0 74 0;
#X connect 123 0 100 0;
#X connect 124 0 123 0;
#X connect 125 0 137 0;
#X connect 127 0 129 0;
#X connect 128 0 127 0;
#X connect 129 0 94 0;
#X connect 130 0 58 0;
#X connect 131 0 132 0;
#X connect 132 0 130 1;
#X connect 133 0 126 0;
#X connect 133 1 130 0;
#X connect 133 2 131 0;
#X connect 137 0 0 0;
#X connect 138 0 104 0;
#X coords 0 -1 1 1 60 60 2 100 100;
