#N canvas 29 90 1920 1023 16;
#X msg 751 194 get_pos;
#X obj 742 246 s \$0-pos-rcv;
#X obj 697 300 r \$0-pos;
#X obj 694 350 unpack f f;
#X obj 596 393 -;
#X obj 766 391 -;
#X obj 814 799 change;
#X obj 649 498 moses 0;
#X obj 853 527 moses 0;
#X msg 849 567 0;
#X msg 668 556 0;
#X obj 499 200 unpack f f f;
#X obj 151 578 list prepend 0;
#X obj 151 624 route 0 1;
#X obj 2029 337 namecanvas \$0-this;
#N canvas 0 50 1005 538 resize 0;
#X obj 73 24 inlet;
#X msg -105 842 dirty 1;
#X obj 226 341 spigot;
#X msg 157 268 1;
#X msg 113 355 0;
#X obj 442 304 t l b;
#X obj 158 690 -;
#X obj 355 679 -;
#X obj 240 737 r \$0-w;
#X obj 430 742 r \$0-h;
#X obj 221 793 +;
#X obj 218 894 s \$0-w;
#X obj 355 786 +;
#X obj 366 887 s \$0-h;
#X obj 82 152 spigot 1;
#X obj 82 194 t b b;
#X msg 186 106 0;
#X msg 114 404 1;
#X obj 222 463 unpack f f f;
#X obj 156 518 t f f b f;
#X obj 330 514 t f f b f;
#X obj 416 624 spigot 1;
#X msg 528 571 0;
#X obj 206 635 spigot 1;
#X msg 305 583 0;
#X obj 338 122 iemguts/receivecanvas 2;
#X obj -100 880 iemguts/sendcanvas 2;
#X obj 1006 145 r \$0-w;
#X obj 1157 139 r \$0-h;
#X obj 1007 271 pack f f;
#X obj 865 446 t b a;
#X msg 805 498 dirty 0;
#X obj 799 553 s \$0-this;
#X msg 786 224 120 254;
#X msg 696 402 donecanvasdialog 1 -1 3 0 -1 1 1 \$1 \$2 100 100;
#X text 970 552 the parent canvas;
#X obj 240 848 max 5;
#X obj 397 842 max 5;
#X obj 1157 181 t b f;
#X obj 224 391 route mouseup motion;
#X connect 0 0 14 0;
#X connect 1 0 26 0;
#X connect 2 0 39 0;
#X connect 3 0 2 1;
#X connect 4 0 2 1;
#X connect 6 0 10 0;
#X connect 7 0 12 0;
#X connect 8 0 10 1;
#X connect 9 0 12 1;
#X connect 10 0 36 0;
#X connect 12 0 37 0;
#X connect 14 0 15 0;
#X connect 15 0 3 0;
#X connect 15 1 16 0;
#X connect 15 1 1 0;
#X connect 16 0 14 1;
#X connect 17 0 14 1;
#X connect 17 0 23 1;
#X connect 17 0 21 1;
#X connect 18 0 19 0;
#X connect 18 1 20 0;
#X connect 19 0 6 1;
#X connect 19 1 6 0;
#X connect 19 2 24 0;
#X connect 19 3 23 0;
#X connect 20 0 7 1;
#X connect 20 1 7 0;
#X connect 20 2 22 0;
#X connect 20 3 21 0;
#X connect 21 0 7 1;
#X connect 22 0 21 1;
#X connect 23 0 6 1;
#X connect 24 0 23 1;
#X connect 25 0 2 0;
#X connect 27 0 29 0;
#X connect 28 0 38 0;
#X connect 29 0 34 0;
#X connect 30 0 31 0;
#X connect 30 1 32 0;
#X connect 31 0 32 0;
#X connect 33 0 34 0;
#X connect 34 0 30 0;
#X connect 36 0 11 0;
#X connect 37 0 13 0;
#X connect 38 0 29 0;
#X connect 38 1 29 1;
#X connect 39 0 4 0;
#X connect 39 0 17 0;
#X connect 39 1 18 0;
#X restore 280 732 pd resize;
#X obj 100 100 cnv 1 1 1 \$0-pos \$0-pos-rcv empty 2 30 0 30 -1 -262144
0;
#X obj 818 662 < 1;
#X obj 946 662 < 1;
#X text 1859 15 format d'entrée MULTITOUCH.COOKED;
#X text 2026 64 <slot> remove;
#X text 2030 91 <slot> update <x> <y>;
#X text 2032 120 <slot> pressure <a>;
#X obj 678 1166 r \$0-back_color;
#X msg 1614 142 vis 1;
#X obj 1620 86 iemguts/propertybang;
#X obj 1738 143 r \$0-ok;
#X msg 1738 185 vis 0;
#N canvas 0 50 899 442 gui_feedback 0;
#X msg 127 259 set \$1;
#X obj 132 222 r \$0-w;
#X obj 130 298 s \$0-w-rcv;
#X msg 365 260 set \$1;
#X obj 361 72 r \$0-bc-snd;
#X obj 367 300 s \$0-bc-rcv;
#X obj 370 223 r \$0-back_color;
#X obj 361 156 s \$0-back_color;
#X msg 642 262 set \$1;
#X obj 640 73 r \$0-fc-snd;
#X obj 640 157 s \$0-front_color;
#X obj 648 224 r \$0-front_color;
#X obj 646 301 s \$0-fc-rcv;
#X msg 944 262 set \$1;
#X obj 941 73 r \$0-cc-snd;
#X obj 942 157 s \$0-cursor_color;
#X obj 950 224 r \$0-cursor_color;
#X obj 948 301 s \$0-cc-rcv;
#X msg 30 321 set \$1;
#X obj 34 283 r \$0-h;
#X obj 33 359 s \$0-h-rcv;
#X obj 972 424 r \$0-name;
#X msg 972 466 set \$1;
#X obj 971 547 s \$0-name-rcv;
#X msg 720 462 set \$1;
#X obj 720 420 r \$0-menu_list;
#X obj 719 545 s \$0-menu_list-rcv;
#X msg 1117 251 set \$1;
#X obj 1114 62 r \$0-lc-snd;
#X obj 1115 145 s \$0-font_color;
#X obj 1123 214 r \$0-font_color;
#X obj 1121 289 s \$0-lc-rcv;
#X obj 299 407 r \$0-front_alpha;
#X obj 497 407 r \$0-back_alpha;
#X obj 295 490 s \$0-front_alpha-rcv;
#X obj 493 490 s \$0-back_alpha-rcv;
#X msg 299 445 set \$1;
#X msg 507 447 set \$1;
#X connect 0 0 2 0;
#X connect 1 0 0 0;
#X connect 3 0 5 0;
#X connect 4 0 7 0;
#X connect 6 0 3 0;
#X connect 8 0 12 0;
#X connect 9 0 10 0;
#X connect 11 0 8 0;
#X connect 13 0 17 0;
#X connect 14 0 15 0;
#X connect 16 0 13 0;
#X connect 18 0 20 0;
#X connect 19 0 18 0;
#X connect 21 0 22 0;
#X connect 22 0 23 0;
#X connect 24 0 26 0;
#X connect 25 0 24 0;
#X connect 27 0 31 0;
#X connect 28 0 29 0;
#X connect 30 0 27 0;
#X connect 32 0 36 0;
#X connect 33 0 37 0;
#X connect 36 0 34 0;
#X connect 37 0 35 0;
#X restore 1606 326 pd gui_feedback;
#X obj 816 751 &&;
#X obj 694 1326 s \$0-click_area-rcv;
#X obj 812 838 select 1;
#X obj 1423 822 v MOB_BACKGROUND_COLOR;
#X text 1468 905 attributes: Title output: on touch \, sends out two
element list. first element is index second element is string value
input: a list of strings to populate the menu.;
#X obj 779 1238 pack f f;
#X msg 690 1288 color \$1 \$1 \$2;
#X obj 893 1162 r \$0-font_color;
#X obj 786 1202 t b f;
#X obj 505 127 t b l b;
#X obj 483 351 / 1;
#X obj 574 350 / 1;
#X obj 326 456 keyname;
#X obj 326 490 pack f s;
#X obj 318 576 route Control_L control_R;
#X msg 326 523 \$2 \$1;
#X obj 280 667 spigot;
#X obj 941 1284 s \$0-pos-rcv;
#X obj 1326 970 r \$0-h;
#X obj 1334 1042 / 2;
#X msg 1326 1138 label_font 0 \$1 \, label_pos 2 \$1;
#X msg 941 1211 color -1 -1 \$1;
#X msg 1708 1154 size 1 \, vis_size 1 1;
#X obj 455 30 iemguts/receivecanvas 1;
#X obj 481 281 spigot;
#X obj 571 244 == 1;
#X obj 1194 1093 r \$0-name;
#X obj 1153 1181 s;
#X obj 1202 1136 symbol;
#X obj 1650 1057 r \$0-title;
#X msg 1650 1090 label \$1;
#X msg 1520 1258 label;
#N canvas 0 50 1568 1015 mmp-export-LCD 0;
#X obj 368 46 r \$0-x;
#X obj 449 46 r \$0-y;
#X obj 660 46 r \$0-h;
#X obj 546 41 r \$0-w;
#X obj 166 215 f;
#X obj 790 73 r \$0-name;
#X obj 643 98 r \$0-range;
#X obj 96 841 list fromsymbol;
#X obj 102 931 list append 125;
#X obj 102 900 list prepend add 123;
#X obj 121 992 list trim;
#X obj 121 1024 s MMP_BINFILE;
#X obj 212 187 v MMP_FIRST_GUI_ITEM;
#X obj 212 219 select 1;
#X msg 625 734 add 44 123;
#X msg 538 736 add 123;
#X msg 201 281 0;
#X obj 212 317 v MMP_FIRST_GUI_ITEM;
#X obj 913 646 iemguts/canvasposition 1;
#X obj 910 779 s \$0-y;
#X obj 863 727 s \$0-x;
#X obj 913 686 unpack f f;
#X obj 986 1312 s LISTENERS;
#X obj 996 967 r \$0-name;
#X obj 974 1042 symbol;
#X obj 974 1082 t s s;
#X msg 1032 1128 symbol \$1-rcv;
#X obj 986 1190 pack s s;
#X obj 152 137 t b b b b;
#X obj 114 466 * 1;
#X obj 222 467 * 1;
#X obj 438 466 * 1;
#X obj 334 463 * 1;
#X obj 181 403 t f b f b f b f;
#X obj 180 353 r MOB_ZOOM;
#N canvas 278 130 450 300 MMP_EXPORT_BY_INDEX 0;
#X obj 151 40 r MMP_EXPORT_BY_INDEX;
#X obj 151 69 t f b;
#X obj 203 124 canvasindex 2;
#X obj 146 184 select;
#X obj 146 268 outlet;
#X text 38 6 enable z-order;
#X connect 0 0 1 0;
#X connect 1 0 3 0;
#X connect 1 1 2 0;
#X connect 2 0 3 1;
#X connect 3 0 4 0;
#X restore 81 79 pd MMP_EXPORT_BY_INDEX;
#N canvas 0 50 534 640 canvas_color_to_rgb 0;
#X obj 119 35 inlet;
#X obj 121 96 + 1;
#X obj 121 125 * -1;
#X obj 134 159 t f f f;
#X obj 45 193 / 65536;
#X obj 163 194 / 256;
#X obj 247 197 mod 256;
#X obj 163 223 mod 256;
#X obj 45 222 int;
#X obj 45 251 / 255;
#X obj 163 252 / 255;
#X obj 247 226 / 255;
#X obj 40 283 outlet;
#X obj 164 285 outlet;
#X obj 254 283 outlet;
#X connect 0 0 1 0;
#X connect 1 0 2 0;
#X connect 2 0 3 0;
#X connect 3 0 4 0;
#X connect 3 1 5 0;
#X connect 3 2 6 0;
#X connect 4 0 8 0;
#X connect 5 0 7 0;
#X connect 6 0 11 0;
#X connect 7 0 10 0;
#X connect 8 0 9 0;
#X connect 9 0 12 0;
#X connect 10 0 13 0;
#X connect 11 0 14 0;
#X restore 685 393 pd canvas_color_to_rgb;
#X obj 676 345 r \$0-front_color;
#X obj 988 1255 list prepend mob/listenerLCD;
#X msg 889 202 "address":"/myLCD2" \, "frame":[333.2734 \, 62.5938
\, 291.93 \, 264.3672] \, "class":"MMPLCD" \, "highlightColor":[1 \,
0 \, 0 \, 1] \, "color":[0.9316406 \, 1 \, 1 \, 1];
#X obj 114 569 pack f f f f f s f f f 1 f f f 1, f 94;
#X msg 89 636 symbol "address":"\$6"\\\,"frame":[\$1\\\,\$2\\\,\$3\\\,\$4]\\\,"class":"MMPLCD"\\\,"highlightColor":[\$7\\\,\$8\\\,\$9\\\,\$10]\\\,"color":[\$11\\\,\$12\\\,\$13\\\,\$14]
;
#X obj 983 339 r \$0-back_color;
#N canvas 0 50 534 640 canvas_color_to_rgb 0;
#X obj 119 35 inlet;
#X obj 121 96 + 1;
#X obj 121 125 * -1;
#X obj 134 159 t f f f;
#X obj 45 193 / 65536;
#X obj 163 194 / 256;
#X obj 247 197 mod 256;
#X obj 163 223 mod 256;
#X obj 45 222 int;
#X obj 45 251 / 255;
#X obj 163 252 / 255;
#X obj 247 226 / 255;
#X obj 40 283 outlet;
#X obj 164 285 outlet;
#X obj 254 283 outlet;
#X connect 0 0 1 0;
#X connect 1 0 2 0;
#X connect 2 0 3 0;
#X connect 3 0 4 0;
#X connect 3 1 5 0;
#X connect 3 2 6 0;
#X connect 4 0 8 0;
#X connect 5 0 7 0;
#X connect 6 0 11 0;
#X connect 7 0 10 0;
#X connect 8 0 9 0;
#X connect 9 0 12 0;
#X connect 10 0 13 0;
#X connect 11 0 14 0;
#X restore 982 381 pd canvas_color_to_rgb;
#X obj 1136 463 r \$0-back_alpha;
#X obj 877 450 r \$0-front_alpha;
#X connect 0 0 4 1;
#X connect 1 0 30 0;
#X connect 2 0 31 0;
#X connect 3 0 32 0;
#X connect 4 0 29 0;
#X connect 5 0 40 5;
#X connect 6 0 40 4;
#X connect 7 0 9 0;
#X connect 8 0 10 0;
#X connect 9 0 8 0;
#X connect 10 0 11 0;
#X connect 12 0 13 0;
#X connect 13 0 15 0;
#X connect 13 0 16 0;
#X connect 13 1 14 0;
#X connect 14 0 9 1;
#X connect 15 0 9 1;
#X connect 16 0 17 0;
#X connect 18 0 21 0;
#X connect 21 0 20 0;
#X connect 21 1 19 0;
#X connect 23 0 24 1;
#X connect 24 0 25 0;
#X connect 25 0 27 0;
#X connect 25 1 26 0;
#X connect 26 0 27 1;
#X connect 27 0 38 0;
#X connect 28 0 4 0;
#X connect 28 1 12 0;
#X connect 28 2 18 0;
#X connect 28 3 24 0;
#X connect 29 0 40 0;
#X connect 30 0 40 1;
#X connect 31 0 40 3;
#X connect 32 0 40 2;
#X connect 33 0 29 1;
#X connect 33 1 30 0;
#X connect 33 2 30 1;
#X connect 33 3 32 0;
#X connect 33 4 32 1;
#X connect 33 5 31 0;
#X connect 33 6 31 1;
#X connect 34 0 33 0;
#X connect 35 0 28 0;
#X connect 36 0 40 6;
#X connect 36 1 40 7;
#X connect 36 2 40 8;
#X connect 37 0 36 0;
#X connect 38 0 22 0;
#X connect 40 0 41 0;
#X connect 41 0 7 0;
#X connect 42 0 43 0;
#X connect 43 0 40 10;
#X connect 43 1 40 11;
#X connect 43 2 40 12;
#X connect 44 0 40 13;
#X connect 45 0 40 9;
#X restore 1608 388 pd mmp-export-LCD;
#X obj 1603 235 s pd-LCD_properties(\$0);
#N canvas 827 286 773 607 subpatch_resize 0;
#X obj 436 -45 r \$0-w;
#X obj 587 -51 r \$0-h;
#X obj 437 81 pack f f;
#X obj 295 256 t b a;
#X msg 235 308 dirty 0;
#X msg 216 34 120 254;
#X obj 587 -9 t b f;
#X obj 229 363 s pd-\$0-subpatch;
#X msg 126 212 donecanvasdialog 1 -1 3 0 0 1 1 \$1 \$2 0 0;
#X connect 0 0 2 0;
#X connect 1 0 6 0;
#X connect 2 0 8 0;
#X connect 3 0 4 0;
#X connect 3 1 7 0;
#X connect 4 0 7 0;
#X connect 5 0 8 0;
#X connect 6 0 2 0;
#X connect 6 1 2 1;
#X connect 8 0 3 0;
#X restore 1252 269 pd subpatch_resize;
#N canvas 0 440 278 295 \$0-subpatch 0;
#X coords 0 0 1 1 60 60 2 0 0;
#X restore 100 100 pd \$0-subpatch;
#X obj 1251 39 inlet;
#N canvas 0 50 1225 618 painting_datastructures 0;
#X msg 317 211 clear;
#X obj 316 243 s pd-\$0-subpatch;
#X obj 198 293 list append pd-\$0-subpatch;
#X obj 199 169 loadbang;
#X obj 194 406 pointer;
#X obj 314 171 t b b;
#N canvas 688 58 871 441 struct_frameoval 0;
#X obj 31 49 struct struct_frameoval float lx float ty float rx float
by float width float color;
#X obj 31 119 drawcurve -xr color width lx ty rx ty rx by lx by lx
ty;
#X restore 906 6 pd struct_frameoval;
#X obj 411 173 s \$0-penwidth;
#X obj 187 439 s \$0-pointer;
#X obj 301 23 inlet;
#N canvas 0 50 772 728 frameoval 0;
#X obj 71 23 inlet;
#X obj 120 129 list length;
#X obj 69 164 list prepend;
#X obj 69 193 route 8 4;
#X obj 69 262 list split 4;
#X obj 127 304 unpack f f f f;
#X obj 127 338 * 8;
#X obj 127 367 + 0.5;
#X obj 127 396 int;
#X obj 127 425 * 100;
#X obj 190 334 * 8;
#X obj 190 363 + 0.5;
#X obj 190 392 int;
#X obj 255 337 * 8;
#X obj 255 366 + 0.5;
#X obj 255 395 int;
#X obj 190 421 * 10;
#X obj 190 450 +;
#X obj 127 454 +;
#X obj 275 437 r \$0-penwidth;
#X obj 73 515 list append;
#X obj 74 557 append struct_frameoval lx ty rx by color width;
#X obj 127 483 pack f 1;
#X obj 528 516 r \$0-pointer;
#X obj 111 226 list append 0 0 0 0;
#X obj 77 599 s \$0-pointer;
#X text 220 601 update pointer;
#X obj 72 58 t l l;
#X obj 293 192 r \$0-front_color-rgba;
#X connect 0 0 27 0;
#X connect 1 0 2 1;
#X connect 2 0 3 0;
#X connect 3 0 4 0;
#X connect 3 1 24 0;
#X connect 4 0 20 0;
#X connect 4 1 5 0;
#X connect 5 0 6 0;
#X connect 5 1 10 0;
#X connect 5 2 13 0;
#X connect 6 0 7 0;
#X connect 7 0 8 0;
#X connect 8 0 9 0;
#X connect 9 0 18 0;
#X connect 10 0 11 0;
#X connect 11 0 12 0;
#X connect 12 0 16 0;
#X connect 13 0 14 0;
#X connect 14 0 15 0;
#X connect 15 0 17 1;
#X connect 16 0 17 0;
#X connect 17 0 18 1;
#X connect 18 0 22 0;
#X connect 19 0 22 1;
#X connect 20 0 21 0;
#X connect 21 0 25 0;
#X connect 22 0 20 1;
#X connect 23 0 21 6;
#X connect 24 0 4 0;
#X connect 27 0 2 0;
#X connect 27 1 1 0;
#X connect 28 0 24 1;
#X restore 508 237 pd frameoval;
#N canvas 688 58 871 441 struct_paintoval 0;
#X obj 31 49 struct struct_paintoval float lx float ty float rx float
by float width float color;
#X obj 31 119 filledcurve -xr color color 1 lx ty rx ty rx by lx by
lx ty;
#X restore 907 33 pd struct_paintoval;
#N canvas 0 50 617 770 paintoval 0;
#X obj 78 26 inlet;
#X obj 120 129 list length;
#X obj 69 164 list prepend;
#X obj 69 193 route 8 4;
#X obj 69 262 list split 4;
#X obj 127 304 unpack f f f f;
#X obj 127 338 * 8;
#X obj 127 367 + 0.5;
#X obj 127 396 int;
#X obj 127 425 * 100;
#X obj 190 334 * 8;
#X obj 190 363 + 0.5;
#X obj 190 392 int;
#X obj 255 337 * 8;
#X obj 255 366 + 0.5;
#X obj 255 395 int;
#X obj 190 421 * 10;
#X obj 190 450 +;
#X obj 127 454 +;
#X obj 275 437 r \$0-penwidth;
#X obj 73 515 list append;
#X obj 127 483 pack f 1;
#X obj 325 495 r \$0-pointer;
#X obj 71 555 append struct_paintoval lx ty rx by color width;
#X obj 111 226 list append 0 0 0 0;
#X obj 77 599 s \$0-pointer;
#X text 220 601 update pointer;
#X obj 82 58 t l l;
#X obj 293 192 r \$0-front_color-rgba;
#X connect 0 0 27 0;
#X connect 1 0 2 1;
#X connect 2 0 3 0;
#X connect 3 0 4 0;
#X connect 3 1 24 0;
#X connect 4 0 20 0;
#X connect 4 1 5 0;
#X connect 5 0 6 0;
#X connect 5 1 10 0;
#X connect 5 2 13 0;
#X connect 6 0 7 0;
#X connect 7 0 8 0;
#X connect 8 0 9 0;
#X connect 9 0 18 0;
#X connect 10 0 11 0;
#X connect 11 0 12 0;
#X connect 12 0 16 0;
#X connect 13 0 14 0;
#X connect 14 0 15 0;
#X connect 15 0 17 1;
#X connect 16 0 17 0;
#X connect 17 0 18 1;
#X connect 18 0 21 0;
#X connect 19 0 21 1;
#X connect 20 0 23 0;
#X connect 21 0 20 1;
#X connect 22 0 23 6;
#X connect 23 0 25 0;
#X connect 24 0 4 0;
#X connect 27 0 2 0;
#X connect 27 1 1 0;
#X connect 28 0 24 1;
#X restore 610 206 pd paintoval;
#X obj 1333 195 r \$0-a;
#N canvas 0 50 534 640 canvas_color_to_rgb 0;
#X obj 119 35 inlet;
#X obj 121 96 + 1;
#X obj 121 125 * -1;
#X obj 134 159 t f f f;
#X obj 45 193 / 65536;
#X obj 163 194 / 256;
#X obj 247 197 mod 256;
#X obj 163 223 mod 256;
#X obj 45 222 int;
#X obj 45 251 / 255;
#X obj 163 252 / 255;
#X obj 247 226 / 255;
#X obj 40 283 outlet;
#X obj 164 285 outlet;
#X obj 254 283 outlet;
#X connect 0 0 1 0;
#X connect 1 0 2 0;
#X connect 2 0 3 0;
#X connect 3 0 4 0;
#X connect 3 1 5 0;
#X connect 3 2 6 0;
#X connect 4 0 8 0;
#X connect 5 0 7 0;
#X connect 6 0 11 0;
#X connect 7 0 10 0;
#X connect 8 0 9 0;
#X connect 9 0 12 0;
#X connect 10 0 13 0;
#X connect 11 0 14 0;
#X restore 1095 194 pd canvas_color_to_rgb;
#X obj 1095 309 s \$0-front_color-rgba;
#X obj 1095 251 pack f f f 1;
#N canvas 0 50 772 728 framerect 0;
#X obj 78 26 inlet;
#X obj 120 129 list length;
#X obj 69 164 list prepend;
#X obj 69 193 route 8 4;
#X obj 69 262 list split 4;
#X obj 127 304 unpack f f f f;
#X obj 127 338 * 8;
#X obj 127 367 + 0.5;
#X obj 127 396 int;
#X obj 127 425 * 100;
#X obj 190 334 * 8;
#X obj 190 363 + 0.5;
#X obj 190 392 int;
#X obj 255 337 * 8;
#X obj 255 366 + 0.5;
#X obj 255 395 int;
#X obj 190 421 * 10;
#X obj 190 450 +;
#X obj 127 454 +;
#X obj 275 437 r \$0-penwidth;
#X obj 73 515 list append;
#X obj 127 483 pack f 1;
#X obj 500 548 r \$0-pointer;
#X obj 111 226 list append 0 0 0 0;
#X obj 62 584 append struct_framerect lx ty rx by color width;
#X obj 77 619 s \$0-pointer;
#X text 220 621 update pointer;
#X obj 82 58 t l l;
#X obj 293 192 r \$0-front_color-rgba;
#X connect 0 0 27 0;
#X connect 1 0 2 1;
#X connect 2 0 3 0;
#X connect 3 0 4 0;
#X connect 3 1 23 0;
#X connect 4 0 20 0;
#X connect 4 1 5 0;
#X connect 5 0 6 0;
#X connect 5 1 10 0;
#X connect 5 2 13 0;
#X connect 6 0 7 0;
#X connect 7 0 8 0;
#X connect 8 0 9 0;
#X connect 9 0 18 0;
#X connect 10 0 11 0;
#X connect 11 0 12 0;
#X connect 12 0 16 0;
#X connect 13 0 14 0;
#X connect 14 0 15 0;
#X connect 15 0 17 1;
#X connect 16 0 17 0;
#X connect 17 0 18 1;
#X connect 18 0 21 0;
#X connect 19 0 21 1;
#X connect 20 0 24 0;
#X connect 21 0 20 1;
#X connect 22 0 24 6;
#X connect 23 0 4 0;
#X connect 24 0 25 0;
#X connect 27 0 2 0;
#X connect 27 1 1 0;
#X connect 28 0 23 1;
#X restore 704 171 pd framerect;
#N canvas 688 58 871 441 struct_framerect 0;
#X obj 31 49 struct struct_framerect float lx float ty float rx float
by float width float color;
#X obj 31 119 drawpolygon -xr color width lx ty rx ty rx by lx by lx
ty;
#X restore 909 64 pd struct_framerect;
#N canvas 688 58 871 441 struct_paintrect 0;
#X obj 31 49 struct struct_paintrect float lx float ty float rx float
by float width float color;
#X obj 31 119 filledpolygon -xr color color 1 lx ty rx ty rx by lx
by lx ty;
#X restore 911 90 pd struct_paintrect;
#N canvas 0 50 772 728 paintrect 0;
#X obj 78 26 inlet;
#X obj 120 129 list length;
#X obj 69 164 list prepend;
#X obj 69 193 route 8 4;
#X obj 69 262 list split 4;
#X obj 127 304 unpack f f f f;
#X obj 127 338 * 8;
#X obj 127 367 + 0.5;
#X obj 127 396 int;
#X obj 127 425 * 100;
#X obj 190 334 * 8;
#X obj 190 363 + 0.5;
#X obj 190 392 int;
#X obj 255 337 * 8;
#X obj 255 366 + 0.5;
#X obj 255 395 int;
#X obj 190 421 * 10;
#X obj 190 450 +;
#X obj 127 454 +;
#X obj 275 437 r \$0-penwidth;
#X obj 73 515 list append;
#X obj 127 483 pack f 1;
#X obj 500 548 r \$0-pointer;
#X obj 111 226 list append 0 0 0 0;
#X obj 62 584 append struct_paintrect lx ty rx by color width;
#X obj 77 619 s \$0-pointer;
#X text 220 621 update pointer;
#X obj 82 58 t l l;
#X obj 293 192 r \$0-front_color-rgba;
#X connect 0 0 27 0;
#X connect 1 0 2 1;
#X connect 2 0 3 0;
#X connect 3 0 4 0;
#X connect 3 1 23 0;
#X connect 4 0 20 0;
#X connect 4 1 5 0;
#X connect 5 0 6 0;
#X connect 5 1 10 0;
#X connect 5 2 13 0;
#X connect 6 0 7 0;
#X connect 7 0 8 0;
#X connect 8 0 9 0;
#X connect 9 0 18 0;
#X connect 10 0 11 0;
#X connect 11 0 12 0;
#X connect 12 0 16 0;
#X connect 13 0 14 0;
#X connect 14 0 15 0;
#X connect 15 0 17 1;
#X connect 16 0 17 0;
#X connect 17 0 18 1;
#X connect 18 0 21 0;
#X connect 19 0 21 1;
#X connect 20 0 24 0;
#X connect 21 0 20 1;
#X connect 22 0 24 6;
#X connect 23 0 4 0;
#X connect 24 0 25 0;
#X connect 27 0 2 0;
#X connect 27 1 1 0;
#X connect 28 0 23 1;
#X restore 802 205 pd paintrect;
#X msg 196 321 traverse \$1 \, bang;
#N canvas 688 58 871 441 struct_lineto 0;
#X obj 31 49 struct struct_lineto float lx float ty float rx float
by float width float color;
#X obj 31 120 drawpolygon -xr color width lx ty rx by;
#X restore 1171 20 pd struct_lineto;
#N canvas 0 50 772 728 lineto 0;
#X obj 78 26 inlet;
#X obj 120 129 list length;
#X obj 69 164 list prepend;
#X obj 127 304 unpack f f f f;
#X obj 127 338 * 8;
#X obj 127 367 + 0.5;
#X obj 127 396 int;
#X obj 127 425 * 100;
#X obj 190 334 * 8;
#X obj 190 363 + 0.5;
#X obj 190 392 int;
#X obj 255 337 * 8;
#X obj 255 366 + 0.5;
#X obj 255 395 int;
#X obj 190 421 * 10;
#X obj 190 450 +;
#X obj 127 454 +;
#X obj 275 437 r \$0-penwidth;
#X obj 109 518 list append;
#X obj 127 483 pack f 1;
#X obj 510 641 r \$0-pointer;
#X obj 111 226 list append 0 0 0 0;
#X obj 69 193 route 6 2;
#X obj 122 677 append struct_lineto lx ty rx by color width;
#X obj 69 262 list split 2;
#X obj 119 634 list prepend;
#X obj 241 525 r \$0-x;
#X obj 327 527 r \$0-y;
#X obj 242 562 pack f f;
#X obj 63 391 t l l;
#X obj 58 553 unpack f f;
#X obj 58 582 s \$0-x;
#X obj 146 586 s \$0-y;
#X obj 127 719 s \$0-pointer;
#X text 270 721 update pointer;
#X obj 82 58 t l l;
#X obj 293 192 r \$0-front_color-rgba;
#X connect 0 0 35 0;
#X connect 1 0 2 1;
#X connect 2 0 22 0;
#X connect 3 0 4 0;
#X connect 3 1 8 0;
#X connect 3 2 11 0;
#X connect 4 0 5 0;
#X connect 5 0 6 0;
#X connect 6 0 7 0;
#X connect 7 0 16 0;
#X connect 8 0 9 0;
#X connect 9 0 10 0;
#X connect 10 0 14 0;
#X connect 11 0 12 0;
#X connect 12 0 13 0;
#X connect 13 0 15 1;
#X connect 14 0 15 0;
#X connect 15 0 16 1;
#X connect 16 0 19 0;
#X connect 17 0 19 1;
#X connect 18 0 25 0;
#X connect 19 0 18 1;
#X connect 20 0 23 6;
#X connect 21 0 24 0;
#X connect 22 0 24 0;
#X connect 22 1 21 0;
#X connect 23 0 33 0;
#X connect 24 0 29 0;
#X connect 24 1 3 0;
#X connect 25 0 23 0;
#X connect 26 0 28 0;
#X connect 27 0 28 1;
#X connect 28 0 25 1;
#X connect 29 0 30 0;
#X connect 29 1 18 0;
#X connect 30 0 31 0;
#X connect 30 1 32 0;
#X connect 35 0 2 0;
#X connect 35 1 1 0;
#X connect 36 0 21 1;
#X restore 962 209 pd lineto;
#N canvas 0 50 450 300 moveto 0;
#X obj 76 30 inlet;
#X obj 73 79 unpack f f;
#X obj 73 108 s \$0-x;
#X obj 171 111 s \$0-y;
#X connect 0 0 1 0;
#X connect 1 0 2 0;
#X connect 1 1 3 0;
#X restore 873 175 pd moveto;
#X obj 1086 146 r \$0-front_color;
#X obj 312 131 route clear penwidth frameoval paintoval framerect paintrect
moveto lineto, f 75;
#X connect 0 0 1 0;
#X connect 2 0 21 0;
#X connect 3 0 2 0;
#X connect 4 0 8 0;
#X connect 5 0 2 0;
#X connect 5 1 0 0;
#X connect 9 0 26 0;
#X connect 13 0 16 3;
#X connect 14 0 16 0;
#X connect 14 1 16 1;
#X connect 14 2 16 2;
#X connect 16 0 15 0;
#X connect 21 0 4 0;
#X connect 25 0 14 0;
#X connect 26 0 5 0;
#X connect 26 1 7 0;
#X connect 26 2 10 0;
#X connect 26 3 12 0;
#X connect 26 4 17 0;
#X connect 26 5 20 0;
#X connect 26 6 24 0;
#X connect 26 7 23 0;
#X restore 1249 202 pd painting_datastructures;
#X obj 651 388 r \$0-w;
#X obj 601 427 / 60;
#X obj 871 396 r \$0-h;
#X obj 777 423 / 60;
#X obj 589 460 t f f;
#X obj 778 461 t f f;
#X obj 541 497 clip 0 1;
#X obj 782 498 clip 0 1;
#X text 1244 242 subpatch containing datastructures;
#X obj 779 113 s \$0-zoom;
#X obj 517 317 r \$0-zoom;
#X obj 567 846 spigot;
#X msg 1008 712 0;
#X obj 558 709 pack f f;
#X msg 558 738 1 \$1 \$2;
#X obj 567 949 outlet;
#X obj 449 78 route editmode mouse mouseup motion zoom;
#X obj 1230 351 r \$0-pos;
#X obj 1227 401 unpack f f;
#X obj 1129 444 -;
#X obj 1299 442 -;
#X obj 1016 402 / 1;
#X obj 1107 401 / 1;
#X obj 1184 439 r \$0-w;
#X obj 1134 478 / 60;
#X obj 1404 447 r \$0-h;
#X obj 1310 474 / 60;
#X obj 1074 548 clip 0 1;
#X obj 1315 549 clip 0 1;
#X obj 1050 368 r \$0-zoom;
#X obj 1007 293 unpack f f;
#X obj 1074 577 pack f f;
#X msg 1074 606 2 \$1 \$2;
#X obj 1004 676 t b b;
#X msg 1063 746 0 \$1 \$2;
#X obj 385 978 s;
#X obj 409 921 r \$0-name;
#X obj 409 872 t a a;
#X obj 1291 149 iemlib/iem_receive;
#X obj 1370 12 r \$0-name;
#X msg 1327 58 set \$1-rcv;
#N canvas 703 576 420 500 LCD_properties(\$0) 1;
#X obj 8 6 cnv 15 400 300 empty empty empty 20 12 0 14 -233017 -66577
0;
#X floatatom 130 21 5 0 0 0 width #0-w-rcv #0-w;
#X obj 358 364 bng 40 250 50 0 \$0-ok empty OK 5 20 0 20 -204786 -1
-1;
#X floatatom 314 27 5 0 0 0 height #0-h-rcv #0-h;
#X symbolatom 94 82 30 0 0 0 send_to #0-name-rcv #0-name;
#X text 23 50 Messages;
#N canvas 0 50 450 300 todo 0;
#X obj 244 238 nbx 3 20 10 200 1 0 \$0-spdrt \$0-spdrt-rcv speed_ratio(%)
-140 10 0 16 -262144 -1 -1 10 256;
#X obj 35 101 cnv 15 200 80 empty empty TODO 20 12 0 14 -262130 -66577
0;
#X floatatom 187 130 5 0 0 0 text_color #0-cc-rcv #0-cc-snd;
#N canvas 0 50 450 300 (subpatch) 0;
#X obj 215 153 cnv 20 20 20 empty \$0-cc_cnv-rcv empty 20 12 0 14 -1
-66577 0;
#X msg 316 159 color \$1 \$1;
#X obj 316 117 r \$0-cursor_color;
#X obj 316 198 s \$0-cc_cnv-rcv;
#X connect 1 0 3 0;
#X connect 2 0 1 0;
#X coords 0 -1 1 1 20 20 2 100 100;
#X restore 288 132 pd;
#X floatatom 187 173 5 0 0 0 text_size - -;
#X floatatom 277 38 5 0 0 0 z-offset #0-z_offset-rcv #0-z_offset;
#X obj 153 21 tgl 20 0 \$0-invisible \$0-invisible-rcv Invisible -100
8 0 16 -262144 -1 -1 0 1;
#X obj 153 40 tgl 20 0 \$0-z_offset \$0-z_offset-rcv MoveOnTop -100
8 0 16 -262144 -1 -1 0 99;
#X restore 141 358 pd todo;
#X obj 8 307 cnv 15 400 180 empty empty empty 20 12 0 14 -204786 -66577
0;
#X text 14 312 MobMuPlat Widget Export, f 25;
#X floatatom 104 435 5 0 0 0 z-offset #0-z_offset-rcv #0-z_offset;
#X obj 135 458 tgl 20 0 \$0-z_offset \$0-z_offset-rcv MoveOnTop -100
8 0 16 -262144 -1 -1 0 99;
#X obj 92 382 hsl 60 20 0 1 0 0 \$0-front_alpha \$0-front_alpha-rcv
empty -2 -8 0 10 -262144 -1 -1 0 1;
#X obj 91 352 hsl 60 20 0 1 0 0 \$0-back_alpha \$0-back_alpha-rcv empty
-2 -8 0 10 -262144 -1 -1 0 1;
#X text 49 144 back_color;
#X text 45 206 front_color;
#X text 163 349 Back color Opacity;
#X text 165 379 Front color Opacity;
#N canvas 412 187 1049 632 color_picker 0;
#X obj 53 150 hsl 128 12 0 255 0 0 empty empty empty -2 -8 0 10 -228856
-258113 -1 0 0;
#X obj 53 162 hsl 128 12 0 255 0 0 empty empty empty -2 -8 0 10 -228856
-4034 -1 12700 0;
#X obj 53 174 hsl 128 12 0 255 0 0 empty empty empty -2 -8 0 10 -228856
-4160 -1 12700 0;
#X obj 183 150 tgl 36 0 empty empty empty 17 7 0 10 -262144 -262144
-262144 0 1;
#N canvas 0 50 498 451 convert2rgb 0;
#X obj 53 112 * -1;
#X obj 54 81 + 1;
#X obj 180 183 mod 256;
#X obj 51 179 div 256;
#X obj 52 143 t f f, f 13;
#X obj 49 210 t f f;
#X obj 48 248 div 256;
#X obj 132 250 mod 256;
#X obj 54 51 inlet;
#X obj 49 317 outlet;
#X obj 129 317 outlet;
#X obj 209 317 outlet;
#X connect 0 0 4 0;
#X connect 1 0 0 0;
#X connect 2 0 11 0;
#X connect 3 0 5 0;
#X connect 4 0 3 0;
#X connect 4 1 2 0;
#X connect 5 0 6 0;
#X connect 5 1 7 0;
#X connect 6 0 9 0;
#X connect 7 0 10 0;
#X connect 8 0 1 0;
#X restore 58 76 pd convert2rgb;
#X msg 286 149 color \$1 \$1 \$1;
#X msg 57 112 set \$1;
#X msg 141 109 set \$1;
#X msg 234 111 set \$1;
#X obj 83 332 t b f;
#X obj 144 333 t b f;
#X obj 149 291 i;
#X obj 104 292 i;
#X obj 61 294 i;
#X obj 67 410 expr ($f1*(-65536)+$f2*(-256)+$f3*(-1))-1;
#X obj 66 372 pack f f f;
#X obj 58 14 r \$0-back_color;
#X obj 97 549 s \$0-back_color;
#X obj 58 45 spigot 1;
#X obj 67 457 t b f b;
#X msg 134 495 0;
#X msg 67 486 1;
#X connect 0 0 13 0;
#X connect 1 0 12 0;
#X connect 2 0 11 0;
#X connect 4 0 6 0;
#X connect 4 1 7 0;
#X connect 4 2 8 0;
#X connect 5 0 3 0;
#X connect 6 0 0 0;
#X connect 7 0 1 0;
#X connect 8 0 2 0;
#X connect 9 0 15 0;
#X connect 9 1 15 1;
#X connect 10 0 15 0;
#X connect 10 1 15 2;
#X connect 11 0 10 0;
#X connect 12 0 9 0;
#X connect 13 0 15 0;
#X connect 14 0 19 0;
#X connect 15 0 14 0;
#X connect 16 0 5 0;
#X connect 16 0 18 0;
#X connect 18 0 4 0;
#X connect 19 0 21 0;
#X connect 19 1 17 0;
#X connect 19 2 20 0;
#X connect 20 0 18 1;
#X connect 21 0 18 1;
#X coords 0 -1 1 1 169 36 2 50 150;
#X restore 48 173 pd color_picker;
#N canvas 882 181 1049 632 color_picker 0;
#X obj 53 150 hsl 128 12 0 255 0 0 empty empty empty -2 -8 0 10 -228856
-258113 -1 0 0;
#X obj 53 162 hsl 128 12 0 255 0 0 empty empty empty -2 -8 0 10 -228856
-4034 -1 0 0;
#X obj 53 174 hsl 128 12 0 255 0 0 empty empty empty -2 -8 0 10 -228856
-4160 -1 0 0;
#X obj 183 150 tgl 36 0 empty empty empty 17 7 0 10 -1 -1 -1 0 1;
#N canvas 0 50 498 451 convert2rgb 0;
#X obj 53 112 * -1;
#X obj 54 81 + 1;
#X obj 180 183 mod 256;
#X obj 51 179 div 256;
#X obj 52 143 t f f, f 13;
#X obj 49 210 t f f;
#X obj 48 248 div 256;
#X obj 132 250 mod 256;
#X obj 54 51 inlet;
#X obj 49 317 outlet;
#X obj 129 317 outlet;
#X obj 209 317 outlet;
#X connect 0 0 4 0;
#X connect 1 0 0 0;
#X connect 2 0 11 0;
#X connect 3 0 5 0;
#X connect 4 0 3 0;
#X connect 4 1 2 0;
#X connect 5 0 6 0;
#X connect 5 1 7 0;
#X connect 6 0 9 0;
#X connect 7 0 10 0;
#X connect 8 0 1 0;
#X restore 58 76 pd convert2rgb;
#X msg 286 149 color \$1 \$1 \$1;
#X msg 57 112 set \$1;
#X msg 141 109 set \$1;
#X msg 234 111 set \$1;
#X obj 83 332 t b f;
#X obj 144 333 t b f;
#X obj 149 291 i;
#X obj 104 292 i;
#X obj 61 294 i;
#X obj 67 410 expr ($f1*(-65536)+$f2*(-256)+$f3*(-1))-1;
#X obj 66 372 pack f f f;
#X obj 58 45 spigot 1;
#X obj 67 457 t b f b;
#X msg 134 495 0;
#X msg 67 486 1;
#X obj 58 14 r \$0-front_color;
#X obj 97 549 s \$0-front_color;
#X connect 0 0 13 0;
#X connect 1 0 12 0;
#X connect 2 0 11 0;
#X connect 4 0 6 0;
#X connect 4 1 7 0;
#X connect 4 2 8 0;
#X connect 5 0 3 0;
#X connect 6 0 0 0;
#X connect 7 0 1 0;
#X connect 8 0 2 0;
#X connect 9 0 15 0;
#X connect 9 1 15 1;
#X connect 10 0 15 0;
#X connect 10 1 15 2;
#X connect 11 0 10 0;
#X connect 12 0 9 0;
#X connect 13 0 15 0;
#X connect 14 0 17 0;
#X connect 15 0 14 0;
#X connect 16 0 4 0;
#X connect 17 0 19 0;
#X connect 17 1 21 0;
#X connect 17 2 18 0;
#X connect 18 0 16 1;
#X connect 19 0 16 1;
#X connect 20 0 5 0;
#X connect 20 0 16 0;
#X coords 0 -1 1 1 169 36 2 50 150;
#X restore 49 231 pd color_picker;
#X obj 92 111 cnv 15 300 20 empty \$0-receive_name-rcv -rcv 2 10 0
16 -249855 -66577 0;
#X text 17 109 receive;
#X restore 1606 282 pd LCD_properties(\$0);
#N canvas 0 57 1920 1023 savestate 0;
#X obj 226 397 savestate;
#X obj 388 461 s \$0-save;
#X obj 204 154 v \$0-w;
#X obj 226 439 list trim;
#X obj 302 28 r \$0-save;
#X obj 334 154 v \$0-h;
#X obj 304 682 unpack f f;
#X obj 202 224 pack f f;
#X obj 245 347 list, f 51;
#X obj 228 785 s \$0-w;
#X obj 338 763 s \$0-h;
#X msg 202 266 -size \$1 \$2;
#X obj 28 46 loadbang;
#X obj 28 152 spigot 1;
#X msg 127 109 0;
#X obj 437 719 s \$0-name;
#X obj 379 206 symbol;
#X obj 412 167 r \$0-name;
#X msg 379 238 -name \$1;
#X obj 439 671 symbol;
#X obj 481 208 symbol;
#X obj 909 655 symbol;
#X obj 907 702 s \$0-title;
#X obj 528 170 r \$0-title;
#X msg 475 236 -title \$1;
#X obj 302 70 t b b b b b b b b;
#X obj 1083 173 v \$0-front_alpha;
#X obj 1281 173 v \$0-back_alpha;
#X msg 1069 230 -front_alpha \$1;
#X msg 1267 230 -back_alpha \$1;
#X obj 391 570 route -size -name -back_color -front_color -title -front_alpha
-back_alpha, f 93;
#X obj 1049 627 s \$0-front_alpha;
#X obj 1247 627 s \$0-back_alpha;
#X obj 820 300 v \$0-back_color;
#X obj 550 794 s \$0-back_color;
#N canvas 0 50 540 413 convert 0;
#X obj 167 29 inlet;
#X obj 165 86 route float list;
#X obj 243 251 * -1;
#X obj 243 119 unpack f f f, f 17;
#X obj 243 285 - 1;
#X obj 326 153 * 256;
#X obj 243 153 * 65536;
#X obj 326 187 +;
#X obj 243 217 +;
#X obj 165 338 outlet;
#X connect 0 0 1 0;
#X connect 1 0 9 0;
#X connect 1 1 3 0;
#X connect 2 0 4 0;
#X connect 3 0 6 0;
#X connect 3 1 5 0;
#X connect 3 2 7 1;
#X connect 4 0 9 0;
#X connect 5 0 7 0;
#X connect 6 0 8 0;
#X connect 7 0 8 1;
#X connect 8 0 2 0;
#X restore 550 724 pd convert;
#N canvas 0 50 498 451 convert2rgb 0;
#X obj 53 112 * -1;
#X obj 54 81 + 1;
#X obj 180 181 mod 256;
#X obj 51 179 div 256;
#X obj 52 143 t f f, f 13;
#X obj 49 210 t f f;
#X obj 48 248 div 256;
#X obj 132 250 mod 256;
#X obj 49 288 pack f f f;
#X obj 54 51 inlet;
#X obj 49 317 outlet;
#X connect 0 0 4 0;
#X connect 1 0 0 0;
#X connect 2 0 8 2;
#X connect 3 0 5 0;
#X connect 4 0 3 0;
#X connect 4 1 2 0;
#X connect 5 0 6 0;
#X connect 5 1 7 0;
#X connect 6 0 8 0;
#X connect 7 0 8 1;
#X connect 8 0 10 0;
#X connect 9 0 1 0;
#X restore 817 330 pd convert2rgb;
#X msg 806 371 -back_color \$1 \$2 \$3;
#N canvas 0 50 498 451 convert2rgb 0;
#X obj 53 112 * -1;
#X obj 54 81 + 1;
#X obj 180 181 mod 256;
#X obj 51 179 div 256;
#X obj 52 143 t f f, f 13;
#X obj 49 210 t f f;
#X obj 48 248 div 256;
#X obj 132 250 mod 256;
#X obj 49 288 pack f f f;
#X obj 54 51 inlet;
#X obj 49 317 outlet;
#X connect 0 0 4 0;
#X connect 1 0 0 0;
#X connect 2 0 8 2;
#X connect 3 0 5 0;
#X connect 4 0 3 0;
#X connect 4 1 2 0;
#X connect 5 0 6 0;
#X connect 5 1 7 0;
#X connect 6 0 8 0;
#X connect 7 0 8 1;
#X connect 8 0 10 0;
#X connect 9 0 1 0;
#X restore 1013 324 pd convert2rgb;
#N canvas 0 50 540 413 convert 0;
#X obj 167 29 inlet;
#X obj 165 86 route float list;
#X obj 243 251 * -1;
#X obj 243 119 unpack f f f, f 17;
#X obj 243 285 - 1;
#X obj 326 153 * 256;
#X obj 243 153 * 65536;
#X obj 326 187 +;
#X obj 243 217 +;
#X obj 165 338 outlet;
#X connect 0 0 1 0;
#X connect 1 0 9 0;
#X connect 1 1 3 0;
#X connect 2 0 4 0;
#X connect 3 0 6 0;
#X connect 3 1 5 0;
#X connect 3 2 7 1;
#X connect 4 0 9 0;
#X connect 5 0 7 0;
#X connect 6 0 8 0;
#X connect 7 0 8 1;
#X connect 8 0 2 0;
#X restore 725 710 pd convert;
#X obj 1011 297 v \$0-front_color;
#X msg 1008 361 -front_color \$1 \$2 \$3;
#X obj 727 762 s \$0-front_color;
#X msg 30 437 -size 60 60 \, -back_color 220 220 220 \, -front_color
150 150 150 \, -front_alpha 1 \, -back_alpha 1, f 10;
#X connect 0 0 3 0;
#X connect 0 0 14 0;
#X connect 0 1 1 0;
#X connect 2 0 7 0;
#X connect 3 0 30 0;
#X connect 4 0 25 0;
#X connect 5 0 7 1;
#X connect 6 0 9 0;
#X connect 6 1 10 0;
#X connect 7 0 11 0;
#X connect 8 0 0 0;
#X connect 11 0 8 0;
#X connect 12 0 13 0;
#X connect 13 0 43 0;
#X connect 14 0 13 1;
#X connect 16 0 18 0;
#X connect 17 0 16 1;
#X connect 18 0 8 0;
#X connect 19 0 15 0;
#X connect 20 0 24 0;
#X connect 21 0 22 0;
#X connect 23 0 20 1;
#X connect 24 0 8 0;
#X connect 25 0 2 0;
#X connect 25 1 5 0;
#X connect 25 2 16 0;
#X connect 25 3 20 0;
#X connect 25 4 33 0;
#X connect 25 5 40 0;
#X connect 25 6 26 0;
#X connect 25 7 27 0;
#X connect 26 0 28 0;
#X connect 27 0 29 0;
#X connect 28 0 8 0;
#X connect 29 0 8 0;
#X connect 30 0 6 0;
#X connect 30 1 19 0;
#X connect 30 2 35 0;
#X connect 30 3 39 0;
#X connect 30 4 21 0;
#X connect 30 5 31 0;
#X connect 30 6 32 0;
#X connect 33 0 36 0;
#X connect 35 0 34 0;
#X connect 36 0 37 0;
#X connect 37 0 8 0;
#X connect 38 0 41 0;
#X connect 39 0 42 0;
#X connect 40 0 38 0;
#X connect 41 0 8 0;
#X connect 43 0 30 0;
#X restore 2028 406 pd savestate;
#X obj 1063 717 list append 0 0;
#X obj 1130 921 outlet;
#X obj 1063 853 symbol pd-\$0-subpatch;
#X obj 1057 814 loadbang;
#X msg 1451 60 label \$1-rcv;
#X obj 1357 94 s \$0-receive_name-rcv;
#X connect 0 0 1 0;
#X connect 2 0 3 0;
#X connect 3 0 4 1;
#X connect 3 1 5 1;
#X connect 4 0 68 0;
#X connect 5 0 70 0;
#X connect 6 0 31 0;
#X connect 6 0 78 1;
#X connect 7 0 10 0;
#X connect 7 1 17 0;
#X connect 8 0 9 0;
#X connect 8 1 18 0;
#X connect 9 0 29 1;
#X connect 10 0 29 0;
#X connect 11 0 53 0;
#X connect 11 1 40 0;
#X connect 11 2 54 0;
#X connect 12 0 13 0;
#X connect 13 1 45 0;
#X connect 17 0 29 0;
#X connect 18 0 29 1;
#X connect 23 0 34 0;
#X connect 24 0 62 0;
#X connect 25 0 24 0;
#X connect 26 0 27 0;
#X connect 27 0 62 0;
#X connect 29 0 6 0;
#X connect 31 0 12 0;
#X connect 34 0 35 0;
#X connect 35 0 30 0;
#X connect 36 0 37 0;
#X connect 36 0 50 0;
#X connect 37 0 34 0;
#X connect 37 1 34 1;
#X connect 38 1 11 0;
#X connect 38 2 0 0;
#X connect 39 0 4 0;
#X connect 40 0 5 0;
#X connect 41 0 42 0;
#X connect 41 1 42 1;
#X connect 42 0 44 0;
#X connect 43 0 45 1;
#X connect 43 1 45 1;
#X connect 44 0 43 0;
#X connect 45 0 15 0;
#X connect 47 0 48 0;
#X connect 48 0 49 0;
#X connect 49 0 46 0;
#X connect 50 0 46 0;
#X connect 51 0 46 0;
#X connect 52 0 83 0;
#X connect 53 0 39 0;
#X connect 54 0 53 1;
#X connect 55 0 57 0;
#X connect 57 0 56 1;
#X connect 58 0 59 0;
#X connect 59 0 46 0;
#X connect 60 0 46 0;
#X connect 65 0 66 0;
#X connect 67 0 68 1;
#X connect 68 0 71 0;
#X connect 69 0 70 1;
#X connect 70 0 72 0;
#X connect 71 0 73 0;
#X connect 71 1 7 0;
#X connect 72 0 74 0;
#X connect 72 1 8 0;
#X connect 73 0 80 0;
#X connect 74 0 80 1;
#X connect 77 0 39 1;
#X connect 77 0 40 1;
#X connect 78 0 104 0;
#X connect 79 0 6 0;
#X connect 80 0 81 0;
#X connect 81 0 78 0;
#X connect 83 0 12 1;
#X connect 83 1 38 0;
#X connect 83 2 100 0;
#X connect 83 3 97 0;
#X connect 83 4 76 0;
#X connect 84 0 85 0;
#X connect 85 0 86 1;
#X connect 85 1 87 1;
#X connect 86 0 91 0;
#X connect 87 0 93 0;
#X connect 88 0 86 0;
#X connect 89 0 87 0;
#X connect 90 0 91 1;
#X connect 91 0 94 0;
#X connect 92 0 93 1;
#X connect 93 0 95 0;
#X connect 94 0 98 0;
#X connect 95 0 98 1;
#X connect 96 0 88 1;
#X connect 96 0 89 1;
#X connect 97 0 88 0;
#X connect 97 1 89 0;
#X connect 98 0 99 0;
#X connect 98 0 110 1;
#X connect 99 0 78 0;
#X connect 100 0 79 0;
#X connect 100 1 110 0;
#X connect 101 0 78 0;
#X connect 103 0 102 1;
#X connect 104 0 102 0;
#X connect 104 1 82 0;
#X connect 105 0 66 0;
#X connect 106 0 107 0;
#X connect 106 0 114 0;
#X connect 107 0 105 0;
#X connect 110 0 101 0;
#X connect 112 0 111 0;
#X connect 113 0 112 0;
#X connect 114 0 115 0;
#X coords 0 -1 1 1 60 60 2 100 100;
