#N canvas 489 232 450 300 12;
#X obj 45 66 inlet;
#X obj 125 66 inlet;
#X obj 55 238 outlet;
#N canvas 2 87 802 737 circle 1;
#X obj 327 171 inlet size;
#X obj 201 208 unpack f f;
#X obj 191 258 t f f;
#X text 221 11 posx posy color.r color.g color.b;
#X obj 201 178 list split 2;
#X obj 271 258 t f f;
#X obj 186 337 pack f f f f;
#X obj 183 371 list append;
#X obj 183 501 list trim;
#X obj 108 416 outlet;
#X obj 82 8 inlet chain;
#X obj 190 290 - \$1;
#X obj 246 290 + \$1;
#X obj 320 290 - \$1;
#X obj 395 290 + \$1;
#X obj 151 63 t a a;
#X obj 248 131 symbol;
#X obj 189 102 route chain head draw;
#X obj 84 35 route draw;
#X obj 74 101 route line fill;
#X obj 183 476 list prepend render paintoval;
#X msg 63 175 render frameoval;
#X msg 67 132 render paintoval;
#X obj 59 70 t b a;
#X msg 32 448 redraw;
#X obj 329 214 t b f f f f;
#X msg 375 406 redraw;
#X obj 207 602 spigot;
#X obj 207 661 s;
#X obj 289 527 t b s;
#X msg 254 561 1;
#X connect 0 0 25 0;
#X connect 1 0 2 0;
#X connect 1 1 5 0;
#X connect 2 0 11 0;
#X connect 2 1 12 0;
#X connect 4 0 1 0;
#X connect 4 1 7 1;
#X connect 5 0 13 0;
#X connect 5 1 14 0;
#X connect 6 0 7 0;
#X connect 7 0 20 0;
#X connect 8 0 27 0;
#X connect 10 0 18 0;
#X connect 11 0 6 0;
#X connect 12 0 6 2;
#X connect 13 0 6 1;
#X connect 14 0 6 3;
#X connect 15 0 9 0;
#X connect 15 1 17 0;
#X connect 16 0 29 0;
#X connect 17 0 4 0;
#X connect 17 1 16 0;
#X connect 18 0 23 0;
#X connect 18 1 15 0;
#X connect 19 0 21 0;
#X connect 19 1 22 0;
#X connect 20 0 8 0;
#X connect 21 0 20 1;
#X connect 22 0 20 1;
#X connect 23 0 24 0;
#X connect 23 1 19 0;
#X connect 24 0 27 0;
#X connect 25 0 26 0;
#X connect 25 1 11 1;
#X connect 25 2 12 1;
#X connect 25 3 13 1;
#X connect 25 4 14 1;
#X connect 26 0 27 0;
#X connect 27 0 28 0;
#X connect 29 0 30 0;
#X connect 29 1 28 1;
#X connect 30 0 27 1;
#X restore 56 157 pd circle;
#X connect 0 0 3 0;
#X connect 1 0 3 1;
#X connect 3 0 2 0;
