#N canvas 0 57 1920 1023 12;
#X obj 65 35 inlet;
#X obj 216 412 s \$1-rcv;
#X obj 76 62 route bang float;
#X msg 217 377 clear;
#X obj 252 29 loadbang;
#X obj 252 54 f \$2;
#X obj 222 23 bng 15 250 50 0 empty empty empty 17 7 0 10 -262144 -1
-1;
#X obj 195 313 t b b;
#X obj 118 370 s \$1_render;
#X obj 92 316 route redraw;
#X obj 249 112 select 0;
#X obj 227 214 spigot;
#X obj 366 262 spigot 1;
#X obj 416 237 == 0;
#X obj 242 78 t f f f;
#X obj 365 208 r \$1_redraw;
#X obj 366 286 t b;
#X obj 366 310 delay 1;
#X obj 229 344 spigot;
#X obj 250 246 metro 1 1 persec;
#X msg 250 186 tempo \$1 persec;
#X obj 162 107 t f f f;
#X obj 158 247 select 1;
#X obj 276 149 min 50;
#X connect 0 0 2 0;
#X connect 2 0 3 0;
#X connect 2 1 21 0;
#X connect 2 2 9 0;
#X connect 3 0 1 0;
#X connect 4 0 5 0;
#X connect 5 0 14 0;
#X connect 6 0 5 0;
#X connect 7 0 8 0;
#X connect 7 1 18 0;
#X connect 9 0 8 0;
#X connect 10 1 23 0;
#X connect 11 0 19 0;
#X connect 12 0 16 0;
#X connect 13 0 12 1;
#X connect 14 0 11 1;
#X connect 14 1 10 0;
#X connect 14 2 13 0;
#X connect 15 0 12 0;
#X connect 16 0 17 0;
#X connect 17 0 7 0;
#X connect 18 0 3 0;
#X connect 19 0 7 0;
#X connect 20 0 19 0;
#X connect 21 0 22 0;
#X connect 21 1 18 1;
#X connect 21 2 11 0;
#X connect 22 0 7 0;
#X connect 23 0 20 0;
