#N canvas 489 232 579 617 12;
#X obj 48 10 inlet;
#X obj 75 437 outlet;
#X obj 74 105 loadbang;
#X msg 76 250 chain 0 0 0 0 0 1;
#X obj 48 35 route bang float;
#X obj 360 28 r \$0-lcd_head;
#X obj 208 370 symbol \$0-lcd_head;
#X msg 208 395 head \$1;
#X obj 416 169 t f f;
#X msg 417 268 penwidth \$1;
#X obj 405 332 s \$1-rcv;
#X obj 360 111 route render penwidth redraw;
#X obj 489 143 t b;
#X obj 489 168 delay 1;
#X obj 138 155 r \$1_render;
#X obj 48 60 t b;
#X obj 141 182 spigot 1;
#X obj 489 193 s \$1_redraw;
#X obj 75 330 t a b;
#X obj 75 177 delay 1;
#X connect 0 0 4 0;
#X connect 2 0 19 0;
#X connect 3 0 18 0;
#X connect 4 0 15 0;
#X connect 4 1 16 1;
#X connect 5 0 11 0;
#X connect 6 0 7 0;
#X connect 7 0 1 0;
#X connect 8 1 9 0;
#X connect 9 0 10 0;
#X connect 11 0 10 0;
#X connect 11 1 8 0;
#X connect 11 2 12 0;
#X connect 12 0 13 0;
#X connect 13 0 17 0;
#X connect 14 0 16 0;
#X connect 15 0 3 0;
#X connect 16 0 3 0;
#X connect 18 0 1 0;
#X connect 18 1 6 0;
#X connect 19 0 3 0;
