#N canvas 489 232 450 300 12;
#X obj 40 48 inlet;
#X obj 90 48 inlet;
#X obj 150 48 inlet;
#X obj 47 204 outlet;
#N canvas 0 57 1920 1023 translateXY 1;
#X obj 69 26 inlet;
#X obj 67 328 outlet;
#X obj 71 125 list split 2;
#X obj 377 19 inlet;
#X obj 71 150 unpack f f;
#X obj 71 200 pack f f;
#X obj 71 225 list append;
#X obj 470 66 inlet;
#X obj 69 254 list prepend chain;
#X obj 68 291 list trim;
#X obj 69 60 route chain;
#X obj 71 175 + \$1;
#X obj 142 182 + \$2;
#X obj 136 95 t a a;
#X obj 386 106 t b f;
#X obj 345 66 t b f;
#X msg 365 197 redraw;
#X obj 262 182 route head;
#X obj 262 206 symbol;
#X obj 376 436 s;
#X obj 337 284 t b s;
#X msg 302 318 1;
#X obj 262 370 spigot;
#X connect 0 0 10 0;
#X connect 2 0 4 0;
#X connect 2 1 6 1;
#X connect 3 0 15 0;
#X connect 4 0 11 0;
#X connect 4 1 12 0;
#X connect 5 0 6 0;
#X connect 6 0 8 0;
#X connect 7 0 14 0;
#X connect 8 0 9 0;
#X connect 9 0 1 0;
#X connect 10 0 2 0;
#X connect 10 1 13 0;
#X connect 11 0 5 0;
#X connect 12 0 5 1;
#X connect 13 0 1 0;
#X connect 13 1 17 0;
#X connect 14 0 16 0;
#X connect 14 1 12 1;
#X connect 15 0 16 0;
#X connect 15 1 11 1;
#X connect 16 0 22 0;
#X connect 17 0 18 0;
#X connect 18 0 20 0;
#X connect 20 0 21 0;
#X connect 20 1 19 1;
#X connect 21 0 22 1;
#X connect 22 0 19 0;
#X restore 41 114 pd translateXY;
#X connect 0 0 4 0;
#X connect 1 0 4 1;
#X connect 2 0 4 2;
#X connect 4 0 3 0;
