#N canvas 489 232 450 300 12;
#X obj 47 50 inlet;
#X obj 285 55 inlet;
#X obj 67 219 outlet;
#X obj 195 55 inlet;
#N canvas 2 87 802 737 rectangle 0;
#X obj 201 208 unpack f f;
#X obj 191 258 t f f;
#X text 221 11 posx posy color.r color.g color.b;
#X obj 201 178 list split 2;
#X obj 281 257 t f f;
#X obj 186 337 pack f f f f;
#X obj 183 371 list append;
#X obj 183 501 list trim;
#X obj 108 416 outlet;
#X obj 82 8 inlet chain;
#X obj 190 290 - \$1;
#X obj 246 290 + \$1;
#X obj 151 63 t a a;
#X obj 248 131 symbol;
#X obj 84 35 route draw;
#X obj 74 101 route line fill;
#X obj 59 70 t b a;
#X msg 32 448 redraw;
#X obj 546 144 inlet height;
#X obj 367 141 inlet width;
#X obj 320 290 - \$2;
#X obj 395 290 + \$2;
#X msg 67 132 render paintrect;
#X msg 63 175 render framerect;
#X obj 183 476 list prepend render paintrect;
#X obj 189 102 route chain head;
#X obj 538 199 t b f f;
#X obj 366 201 t b f f;
#X msg 373 384 redraw;
#X obj 413 608 s;
#X obj 495 474 t b s;
#X msg 460 508 1;
#X obj 215 550 spigot;
#X connect 0 0 1 0;
#X connect 0 1 4 0;
#X connect 1 0 10 0;
#X connect 1 1 11 0;
#X connect 3 0 0 0;
#X connect 3 1 6 1;
#X connect 4 0 20 0;
#X connect 4 1 21 0;
#X connect 5 0 6 0;
#X connect 6 0 24 0;
#X connect 7 0 32 0;
#X connect 9 0 14 0;
#X connect 10 0 5 0;
#X connect 11 0 5 2;
#X connect 12 0 8 0;
#X connect 12 1 25 0;
#X connect 13 0 30 0;
#X connect 14 0 16 0;
#X connect 14 1 12 0;
#X connect 15 0 23 0;
#X connect 15 1 22 0;
#X connect 16 0 17 0;
#X connect 16 1 15 0;
#X connect 17 0 32 0;
#X connect 18 0 26 0;
#X connect 19 0 27 0;
#X connect 20 0 5 1;
#X connect 21 0 5 3;
#X connect 22 0 24 1;
#X connect 23 0 24 1;
#X connect 24 0 7 0;
#X connect 25 0 3 0;
#X connect 25 1 13 0;
#X connect 26 0 28 0;
#X connect 26 1 20 1;
#X connect 26 2 21 1;
#X connect 27 0 28 0;
#X connect 27 1 10 1;
#X connect 27 2 11 1;
#X connect 28 0 32 0;
#X connect 30 0 31 0;
#X connect 30 1 29 1;
#X connect 31 0 32 1;
#X connect 32 0 29 0;
#X restore 56 157 pd rectangle;
#X connect 0 0 4 0;
#X connect 1 0 4 2;
#X connect 3 0 4 1;
#X connect 4 0 2 0;
