#N canvas 489 232 450 300 12;
#X obj 45 66 inlet;
#X obj 125 66 inlet;
#X obj 55 238 outlet;
#N canvas 0 50 802 737 penwidth 1;
#X text 221 11 posx posy color.r color.g color.b;
#X obj 183 441 list trim;
#X obj 82 8 inlet chain;
#X obj 215 550 s;
#X obj 248 131 symbol;
#X obj 189 102 route chain head draw;
#X obj 183 416 list prepend render penwidth;
#X obj 135 55 t a a;
#X obj 82 550 outlet;
#X obj 189 127 t b;
#X obj 182 378 f \$1;
#X obj 396 145 inlet penwidth;
#X obj 301 261 t f f;
#X obj 115 333 change;
#X msg 115 358 redraw;
#X connect 1 0 3 0;
#X connect 2 0 7 0;
#X connect 4 0 3 1;
#X connect 5 0 9 0;
#X connect 5 1 4 0;
#X connect 6 0 1 0;
#X connect 7 0 8 0;
#X connect 7 1 5 0;
#X connect 9 0 10 0;
#X connect 10 0 6 0;
#X connect 11 0 12 0;
#X connect 12 0 13 0;
#X connect 12 1 10 1;
#X connect 13 0 14 0;
#X connect 14 0 3 0;
#X restore 56 157 pd penwidth;
#X connect 0 0 3 0;
#X connect 1 0 3 1;
#X connect 3 0 2 0;
