#N canvas 961 58 958 1018 12;
#X obj 192 148 r \$2;
#X obj 216 409 s toGUI;
#X obj 186 325 list prepend \$1;
#X obj 294 109 loadbang;
#X obj 186 221 spigot;
#X obj 292 186 + 1;
#X obj 292 211 t f f;
#X obj 292 236 == 1;
#X obj 292 151 v \$1-instance;
#X obj 181 356 t b a b;
#X obj 102 170 r toGUI;
#X msg 265 461 0;
#X obj 96 525 spigot 1;
#X msg 218 463 1;
#X obj 96 550 list trim;
#X obj 96 575 route \$1;
#X obj 101 266 spigot;
#X obj 186 273 spigot 1;
#X obj 96 600 t b a b;
#X msg 146 636 0;
#X msg 83 635 1;
#X obj 122 702 s \$2;
#X connect 0 0 4 0;
#X connect 2 0 9 0;
#X connect 3 0 8 0;
#X connect 4 0 17 0;
#X connect 5 0 6 0;
#X connect 6 0 7 0;
#X connect 6 1 8 0;
#X connect 7 0 4 1;
#X connect 7 0 16 1;
#X connect 8 0 5 0;
#X connect 9 0 13 0;
#X connect 9 1 1 0;
#X connect 9 2 11 0;
#X connect 10 0 16 0;
#X connect 11 0 12 1;
#X connect 12 0 14 0;
#X connect 13 0 12 1;
#X connect 14 0 15 0;
#X connect 15 0 18 0;
#X connect 16 0 12 0;
#X connect 17 0 2 0;
#X connect 18 0 20 0;
#X connect 18 1 21 0;
#X connect 18 2 19 0;
#X connect 19 0 17 1;
#X connect 20 0 17 1;
