#N canvas 35 159 958 1018 12;
#X obj 569 357 list append;
#X obj 631 452 s RJ_SCENE;
#X obj 597 221 r RJ_SCENE_SAVE;
#X obj 597 246 route save;
#X obj 597 271 t b;
#X obj 561 386 route bang;
#X obj 399 354 r RJ_SCENE_LOAD;
#X obj 399 379 list trim;
#X obj 399 404 route \$1;
#X obj 399 429 route bang;
#X obj 650 107 r \$1;
#X obj 117 433 s toGUI;
#X obj 455 481 s \$1;
#X obj 623 415 list prepend \$1;
#X obj 95 159 - \$4;
#X obj 96 204 / 1;
#X obj 161 101 loadbang;
#X obj 161 125 f \$5;
#X obj 161 149 - \$4;
#X obj 161 173 select 0;
#X obj 78 621 * 1;
#X obj 76 654 + \$4;
#X obj 66 287 route 0;
#X obj 65 250 list prepend \$3 \$1;
#X obj 67 331 list;
#X obj 178 585 r \$1;
#X obj 178 610 list prepend set;
#X obj 178 635 list trim;
#X obj 178 660 s \$2;
#X text 33 541 routed fromGUI;
#X obj 87 58 r \$1;
#X obj 66 586 r \$3.\$1;
#X msg 68 368 list \$1 set \$2;
#X msg 143 329 list \$1.\$2 set \$3;
#X obj 9 61 r \$2;
#X obj 9 86 route set;
#X obj 90 122 change;
#X obj 76 679 s \$2;
#X connect 0 0 5 0;
#X connect 2 0 3 0;
#X connect 3 0 4 0;
#X connect 4 0 0 0;
#X connect 5 1 13 0;
#X connect 6 0 7 0;
#X connect 7 0 8 0;
#X connect 8 0 9 0;
#X connect 9 1 12 0;
#X connect 10 0 0 1;
#X connect 13 0 1 0;
#X connect 14 0 15 0;
#X connect 15 0 23 0;
#X connect 16 0 17 0;
#X connect 17 0 18 0;
#X connect 18 0 19 0;
#X connect 19 1 15 1;
#X connect 19 1 20 1;
#X connect 20 0 21 0;
#X connect 21 0 37 0;
#X connect 22 0 24 0;
#X connect 22 1 33 0;
#X connect 23 0 22 0;
#X connect 24 0 32 0;
#X connect 25 0 26 0;
#X connect 26 0 27 0;
#X connect 27 0 28 0;
#X connect 30 0 36 0;
#X connect 31 0 20 0;
#X connect 32 0 11 0;
#X connect 33 0 11 0;
#X connect 34 0 35 0;
#X connect 35 0 36 0;
#X connect 36 0 14 0;
