#N canvas 961 58 958 1018 12;
#X obj 535 235 list append;
#X obj 597 330 s RJ_SCENE;
#X obj 563 99 r RJ_SCENE_SAVE;
#X obj 563 124 route save;
#X obj 563 149 t b;
#X obj 527 264 route bang;
#X obj 365 232 r RJ_SCENE_LOAD;
#X obj 365 257 list trim;
#X obj 365 282 route \$1;
#X obj 365 307 route bang;
#X obj 306 45 r \$1;
#X obj 163 127 s toGUI;
#X obj 161 74 list prepend \$1 set;
#X obj 421 359 s \$1;
#X obj 589 293 list prepend \$1;
#X obj 181 104 list trim;
#X text 66 405 @ tcltk platform;
#X obj 104 451 r toGUI;
#X obj 104 476 list trim;
#X obj 104 501 route \$1;
#X obj 104 526 route float set;
#X obj 96 570 list prepend set;
#X obj 93 626 list trim;
#X obj 117 739 s \$2;
#X connect 0 0 5 0;
#X connect 2 0 3 0;
#X connect 3 0 4 0;
#X connect 4 0 0 0;
#X connect 5 1 14 0;
#X connect 6 0 7 0;
#X connect 7 0 8 0;
#X connect 8 0 9 0;
#X connect 9 1 13 0;
#X connect 10 0 12 0;
#X connect 10 0 0 1;
#X connect 12 0 15 0;
#X connect 14 0 1 0;
#X connect 15 0 11 0;
#X connect 17 0 18 0;
#X connect 18 0 19 0;
#X connect 19 0 20 0;
#X connect 20 0 21 0;
#X connect 20 1 21 0;
#X connect 21 0 22 0;
#X connect 22 0 23 0;
