#N canvas 2 52 1557 938 12;
#X declare -path ./pdr/core/stuff;
#X obj 30 76 r fromGUI;
#X obj 77 183 list split 1;
#X obj 63 246 list append;
#X obj 65 213 t b s;
#X obj 102 320 s;
#X obj 63 275 list trim;
#X obj 432 341 list trim;
#X obj 432 368 route #X #A;
#X obj 467 655 list append;
#X obj 423 393 route obj;
#X obj 635 391 route saved;
#X obj 463 769 text define \$0-dump;
#X obj 755 500 text insert \$0-dump;
#X obj 661 792 s RJ_SCENE_LOAD;
#X obj 664 761 list prepend;
#X obj 681 713 text sequence \$0-dump;
#X obj 613 661 t b b s;
#X msg 641 688 line 0 \, bang;
#X msg 465 732 clear;
#X obj 755 475 list;
#X msg 432 288 line 0 \, bang;
#X obj 585 199 t b b;
#X obj 621 27 delay 1000;
#X obj 619 1 loadbang;
#X obj 928 233 symbol \$1;
#X obj 930 326 text define \$0-pdfile;
#X obj 432 315 text sequence \$0-pdfile;
#X obj 619 72 select 0.48;
#X obj 619 49 v pd_version;
#N canvas 2 59 958 1018 state_saving 0;
#N canvas 1 58 958 1018 init_scene 0;
#X msg 37 232 bang;
#X text 177 161 output all lines starting from current one to next
waiting point, f 34;
#X obj 25 330 list trim;
#X obj 152 25 inlet;
#X msg 191 97 clear;
#X obj 153 58 t b b;
#X obj 35 205 delay 10;
#X msg 72 285 line 0;
#X obj 60 121 select 0;
#X obj 13 90 text size \$0-scene_state;
#X obj 25 308 text sequence \$0-scene_state;
#X obj 194 397 outlet failed;
#X msg 333 267 failed !;
#X msg 456 269 success !;
#X obj 110 151 t b b b;
#X obj 305 101 s ctl-assign3.GLOBAL;
#X obj 223 133 s PdRacks.define.midi-mapping;
#X obj 25 352 s RJ_SCENE_LOAD;
#X obj 483 356 print mob;
#X text 502 112 PdRacks stuff;
#X connect 0 0 10 0;
#X connect 2 0 17 0;
#X connect 3 0 5 0;
#X connect 4 0 15 0;
#X connect 4 0 16 0;
#X connect 5 0 9 0;
#X connect 5 1 4 0;
#X connect 6 0 0 0;
#X connect 7 0 10 0;
#X connect 8 0 11 0;
#X connect 8 0 12 0;
#X connect 8 1 14 0;
#X connect 9 0 8 0;
#X connect 10 0 2 0;
#X connect 12 0 18 0;
#X connect 13 0 18 0;
#X connect 14 0 6 0;
#X connect 14 1 7 0;
#X connect 14 2 13 0;
#X restore 355 462 pd init_scene;
#X msg 30 425 -1;
#X msg 244 441 1e+06;
#X obj 80 435 t l b;
#X msg 36 282 save;
#X obj 81 398 spigot;
#X msg 223 266 1;
#X msg 140 274 0;
#X obj 61 464 text delete \$0-scene_state;
#X obj 87 518 text set \$0-scene_state;
#X obj 396 419 text define \$0-scene_state;
#X obj 25 231 t b b;
#X obj 163 63 inlet save;
#X obj 401 67 inlet recall;
#X obj 390 185 t b b;
#X obj 492 283 symbol \$1;
#X obj 356 516 outlet failed;
#X msg 766 656 trying tor read \$1.savestate ...;
#X msg 548 533 writing savestate into \$1 ...;
#X obj 574 219 list prepend \$1;
#X msg 574 244 symbol \$1-\$2;
#X obj 491 318 t s s;
#X obj 286 248 symbol \$1;
#X obj 321 295 symbol;
#X obj 266 111 list prepend \$1;
#X msg 266 136 symbol \$1-\$2;
#X obj 163 88 route bang;
#X obj 401 92 route bang;
#X obj 527 170 t b a;
#X obj 163 113 t b b;
#X obj 176 209 t b b b b b;
#X obj 266 161 t b s;
#X obj 17 322 s RJ_SCENE_SAVE;
#X obj 15 360 r RJ_SCENE;
#X obj 25 208 delay 500;
#X obj 764 695 print mob;
#X msg 726 316 read ./data/\$1.savestate;
#X msg 620 384 write ./data/\$1.savestate;
#X msg 388 383 write ./data/\$1.savestate;
#X msg 490 351 read ./data/\$1.savestate;
#X connect 0 0 16 0;
#X connect 1 0 8 0;
#X connect 2 0 9 1;
#X connect 3 0 9 0;
#X connect 3 1 2 0;
#X connect 4 0 32 0;
#X connect 5 0 3 0;
#X connect 6 0 5 1;
#X connect 7 0 5 1;
#X connect 11 0 23 0;
#X connect 11 1 7 0;
#X connect 12 0 26 0;
#X connect 13 0 27 0;
#X connect 14 0 0 0;
#X connect 14 1 15 0;
#X connect 15 0 21 0;
#X connect 17 0 35 0;
#X connect 18 0 35 0;
#X connect 19 0 20 0;
#X connect 20 0 21 0;
#X connect 21 0 39 0;
#X connect 21 1 17 0;
#X connect 22 0 23 1;
#X connect 23 0 38 0;
#X connect 24 0 25 0;
#X connect 25 0 31 0;
#X connect 26 0 29 0;
#X connect 26 1 24 0;
#X connect 27 0 14 0;
#X connect 27 1 28 0;
#X connect 28 0 0 0;
#X connect 28 1 19 0;
#X connect 29 0 30 0;
#X connect 29 1 22 0;
#X connect 30 0 34 0;
#X connect 30 2 4 0;
#X connect 30 3 6 0;
#X connect 30 4 1 0;
#X connect 31 0 30 0;
#X connect 31 1 23 1;
#X connect 33 0 5 0;
#X connect 34 0 11 0;
#X connect 38 0 10 0;
#X connect 38 0 18 0;
#X connect 39 0 10 0;
#X restore 486 105 pd state_saving;
#X obj 446 162 t b;
#X obj 549 172 select 0.48;
#X obj 549 149 v pd_version;
#X text 619 115 essayer de charger fichier \$1.savestate avant de lancer
la migration;
#X text 423 122 failed;
#X obj 486 130 delay 1;
#X obj 408 212 text size \$0-pdfile;
#X obj 408 237 select 0;
#X msg 1103 267 failed !;
#X msg 1226 269 success !;
#X msg 1186 227 trying tor import savestate from \$1.pd ...;
#X obj 449 262 t b b;
#X obj 1272 70 declare -path ./pdr/core/stuff;
#X obj 957 575 text define \$0-modules_position;
#X obj 954 540 text insert \$0-modules_position;
#X obj 423 496 text search \$0-modules_position;
#X obj 537 567 text get \$0-modules_position;
#X obj 423 520 select -1;
#X obj 467 628 t b;
#X msg 526 618 symbol NO_TARGET;
#X text 416 461 chercher le canal rcv du module en fonction de sa position
, f 32;
#X obj 957 504 r MODULE_POSITION;
#X obj 871 30 savestate;
#X msg 924 278 read ../\$1.pd;
#X text 52 149 @ mobmuplat;
#X obj 1253 356 print mob;
#X obj 385 27 r mob_save;
#X obj 490 32 r mob_load;
#X obj 619 96 s mob_load;
#X obj 421 443 list split 2;
#X obj 704 606 list split 2;
#X obj 602 427 route SID MOB_TARGET;
#X obj 661 486 symbol;
#X text 763 418 le dernier #A est toujours "#A saved SID" pour un module
pdr;
#X text 765 440 le dernier #A est toujours "#A saved MOB_TARGET" pour
un module pdr, f 72;
#X obj 421 417 t l b;
#X connect 0 0 1 0;
#X connect 1 0 3 0;
#X connect 1 1 2 1;
#X connect 2 0 5 0;
#X connect 3 0 2 0;
#X connect 3 1 4 1;
#X connect 5 0 4 0;
#X connect 6 0 7 0;
#X connect 7 0 9 0;
#X connect 7 1 10 0;
#X connect 8 0 16 0;
#X connect 9 0 65 0;
#X connect 10 0 61 0;
#X connect 14 0 13 0;
#X connect 15 0 14 0;
#X connect 16 0 18 0;
#X connect 16 1 17 0;
#X connect 16 2 14 1;
#X connect 17 0 15 0;
#X connect 18 0 11 0;
#X connect 19 0 12 0;
#X connect 20 0 26 0;
#X connect 21 0 36 0;
#X connect 21 1 24 0;
#X connect 22 0 28 0;
#X connect 23 0 22 0;
#X connect 24 0 53 0;
#X connect 24 0 40 0;
#X connect 26 0 6 0;
#X connect 26 1 30 0;
#X connect 27 0 58 0;
#X connect 28 0 27 0;
#X connect 29 0 35 0;
#X connect 30 0 29 0;
#X connect 31 0 21 0;
#X connect 32 0 31 0;
#X connect 35 0 32 0;
#X connect 36 0 37 0;
#X connect 37 0 38 0;
#X connect 37 1 41 0;
#X connect 38 0 55 0;
#X connect 39 0 55 0;
#X connect 40 0 55 0;
#X connect 41 0 20 0;
#X connect 41 1 39 0;
#X connect 45 0 47 0;
#X connect 46 0 60 0;
#X connect 47 0 49 0;
#X connect 47 1 46 0;
#X connect 48 0 8 0;
#X connect 49 0 8 1;
#X connect 51 0 44 0;
#X connect 53 0 25 0;
#X connect 56 0 29 0;
#X connect 57 0 29 1;
#X connect 59 0 45 0;
#X connect 60 1 8 1;
#X connect 61 0 48 0;
#X connect 61 1 62 0;
#X connect 61 2 19 0;
#X connect 62 0 16 0;
#X connect 65 0 59 0;
#X connect 65 1 18 0;
