#N canvas 157 58 1920 1023 16;
#X msg 751 194 get_pos;
#X obj 742 246 s \$0-pos-rcv;
#X obj 697 300 r \$0-pos;
#X obj 694 350 unpack f f;
#X obj 665 456 -;
#X obj 806 458 -;
#X obj 814 799 change;
#X obj 668 511 moses 0;
#X obj 870 563 moses 0;
#X msg 871 618 0;
#X msg 668 556 0;
#X obj 499 200 unpack f f f;
#X obj 151 578 list prepend 0;
#X obj 151 624 route 0 1;
#N canvas 0 57 1920 1023 savestate 0;
#X obj 226 397 savestate;
#X obj 536 492 s \$0-save;
#X obj 204 154 v \$0-w;
#X obj 226 439 list trim;
#X obj 302 28 r \$0-save;
#X obj 334 154 v \$0-h;
#X obj 304 682 unpack f f;
#X obj 202 224 pack f f;
#X obj 245 347 list, f 51;
#X obj 228 785 s \$0-w;
#X obj 338 763 s \$0-h;
#X msg 202 266 -size \$1 \$2;
#X obj 28 46 loadbang;
#X obj 28 152 spigot 1;
#X msg 127 109 0;
#X obj 437 719 s \$0-name;
#X obj 379 206 symbol;
#X obj 412 167 r \$0-name;
#X msg 379 238 -name \$1;
#X obj 439 671 symbol;
#X obj 481 208 symbol;
#X obj 612 660 symbol;
#X obj 610 707 s \$0-title;
#X obj 302 70 t b b b b b;
#X obj 528 170 r \$0-title;
#X msg 475 236 -title \$1;
#X obj 389 569 route -size -name -label_color -title;
#X obj 565 809 s \$0-label_color;
#X msg 30 437 -size 60 60 \, -label_color 0 0 0, f 10;
#N canvas 0 50 498 451 convert2rgb 0;
#X obj 53 112 * -1;
#X obj 54 81 + 1;
#X obj 180 181 mod 256;
#X obj 51 179 div 256;
#X obj 52 143 t f f, f 13;
#X obj 49 210 t f f;
#X obj 48 248 div 256;
#X obj 132 250 mod 256;
#X obj 49 288 pack f f f;
#X obj 54 51 inlet;
#X obj 49 317 outlet;
#X connect 0 0 4 0;
#X connect 1 0 0 0;
#X connect 2 0 8 2;
#X connect 3 0 5 0;
#X connect 4 0 3 0;
#X connect 4 1 2 0;
#X connect 5 0 6 0;
#X connect 5 1 7 0;
#X connect 6 0 8 0;
#X connect 7 0 8 1;
#X connect 8 0 10 0;
#X connect 9 0 1 0;
#X restore 1011 204 pd convert2rgb;
#N canvas 0 50 540 413 convert 0;
#X obj 167 29 inlet;
#X obj 165 86 route float list;
#X obj 243 251 * -1;
#X obj 243 119 unpack f f f, f 17;
#X obj 243 285 - 1;
#X obj 326 153 * 256;
#X obj 243 153 * 65536;
#X obj 326 187 +;
#X obj 243 217 +;
#X obj 165 338 outlet;
#X connect 0 0 1 0;
#X connect 1 0 9 0;
#X connect 1 1 3 0;
#X connect 2 0 4 0;
#X connect 3 0 6 0;
#X connect 3 1 5 0;
#X connect 3 2 7 1;
#X connect 4 0 9 0;
#X connect 5 0 7 0;
#X connect 6 0 8 0;
#X connect 7 0 8 1;
#X connect 8 0 2 0;
#X restore 582 616 pd convert;
#X obj 1009 177 v \$0-label_color;
#X msg 1006 241 -label_color \$1 \$2 \$3;
#X msg 59 251 1;
#X obj 59 280 s \$0-editmode;
#X obj 541 417 v MMP.EXPORT.FLAG;
#X obj 541 451 select 0;
#X connect 0 0 3 0;
#X connect 0 0 14 0;
#X connect 0 1 35 0;
#X connect 2 0 7 0;
#X connect 3 0 26 0;
#X connect 4 0 23 0;
#X connect 5 0 7 1;
#X connect 6 0 9 0;
#X connect 6 1 10 0;
#X connect 7 0 11 0;
#X connect 8 0 0 0;
#X connect 11 0 8 0;
#X connect 12 0 13 0;
#X connect 13 0 28 0;
#X connect 13 0 33 0;
#X connect 14 0 13 1;
#X connect 16 0 18 0;
#X connect 17 0 16 1;
#X connect 18 0 8 0;
#X connect 19 0 15 0;
#X connect 20 0 25 0;
#X connect 21 0 22 0;
#X connect 23 0 2 0;
#X connect 23 1 5 0;
#X connect 23 2 16 0;
#X connect 23 3 20 0;
#X connect 23 4 31 0;
#X connect 24 0 20 1;
#X connect 25 0 8 0;
#X connect 26 0 6 0;
#X connect 26 1 19 0;
#X connect 26 2 30 0;
#X connect 26 3 21 0;
#X connect 28 0 26 0;
#X connect 29 0 32 0;
#X connect 30 0 27 0;
#X connect 31 0 29 0;
#X connect 32 0 8 0;
#X connect 33 0 34 0;
#X connect 35 0 36 0;
#X connect 36 0 1 0;
#X restore 2028 406 pd savestate;
#X obj 2029 337 namecanvas \$0-this;
#N canvas 0 50 1005 538 resize 0;
#X obj 73 24 inlet;
#X msg -105 842 dirty 1;
#X obj 226 341 spigot;
#X msg 157 268 1;
#X msg 113 355 0;
#X obj 442 304 t l b;
#X obj 158 690 -;
#X obj 355 679 -;
#X obj 240 737 r \$0-w;
#X obj 430 742 r \$0-h;
#X obj 221 793 +;
#X obj 218 894 s \$0-w;
#X obj 355 786 +;
#X obj 366 887 s \$0-h;
#X obj 82 152 spigot 1;
#X obj 82 194 t b b;
#X msg 186 106 0;
#X msg 114 404 1;
#X obj 222 463 unpack f f f;
#X obj 156 518 t f f b f;
#X obj 330 514 t f f b f;
#X obj 416 624 spigot 1;
#X msg 528 571 0;
#X obj 206 635 spigot 1;
#X msg 305 583 0;
#X obj 338 122 iemguts/receivecanvas 2;
#X obj -100 880 iemguts/sendcanvas 2;
#X obj 1006 145 r \$0-w;
#X obj 1157 139 r \$0-h;
#X obj 1007 271 pack f f;
#X obj 865 446 t b a;
#X msg 805 498 dirty 0;
#X obj 799 553 s \$0-this;
#X msg 786 224 120 254;
#X msg 696 402 donecanvasdialog 1 -1 3 0 -1 1 1 \$1 \$2 100 100;
#X text 970 552 the parent canvas;
#X obj 240 848 max 5;
#X obj 397 842 max 5;
#X obj 1157 181 t b f;
#X obj 224 391 route mouseup motion;
#X connect 0 0 14 0;
#X connect 1 0 26 0;
#X connect 2 0 39 0;
#X connect 3 0 2 1;
#X connect 4 0 2 1;
#X connect 6 0 10 0;
#X connect 7 0 12 0;
#X connect 8 0 10 1;
#X connect 9 0 12 1;
#X connect 10 0 36 0;
#X connect 12 0 37 0;
#X connect 14 0 15 0;
#X connect 15 0 3 0;
#X connect 15 1 16 0;
#X connect 15 1 1 0;
#X connect 16 0 14 1;
#X connect 17 0 14 1;
#X connect 17 0 23 1;
#X connect 17 0 21 1;
#X connect 18 0 19 0;
#X connect 18 1 20 0;
#X connect 19 0 6 1;
#X connect 19 1 6 0;
#X connect 19 2 24 0;
#X connect 19 3 23 0;
#X connect 20 0 7 1;
#X connect 20 1 7 0;
#X connect 20 2 22 0;
#X connect 20 3 21 0;
#X connect 21 0 7 1;
#X connect 22 0 21 1;
#X connect 23 0 6 1;
#X connect 24 0 23 1;
#X connect 25 0 2 0;
#X connect 27 0 29 0;
#X connect 28 0 38 0;
#X connect 29 0 34 0;
#X connect 30 0 31 0;
#X connect 30 1 32 0;
#X connect 31 0 32 0;
#X connect 33 0 34 0;
#X connect 34 0 30 0;
#X connect 36 0 11 0;
#X connect 37 0 13 0;
#X connect 38 0 29 0;
#X connect 38 1 29 1;
#X connect 39 0 4 0;
#X connect 39 0 17 0;
#X connect 39 1 18 0;
#X restore 280 732 pd resize;
#X obj 818 514 r \$0-w;
#X obj 1039 559 r \$0-h;
#X obj 100 100 cnv 1 1 1 \$0-pos \$0-pos-rcv menu 2 30 0 30 #000000
#000000 0;
#X obj 768 553 / 60;
#X obj 966 611 / 60;
#X obj 818 662 < 1;
#X obj 946 662 < 1;
#X obj 763 607 t f f;
#X text 1859 15 format d'entrée MULTITOUCH.COOKED;
#X text 2026 64 <slot> remove;
#X text 2030 91 <slot> update <x> <y>;
#X text 2032 120 <slot> pressure <a>;
#X obj 678 1166 r \$0-back_color;
#X msg 1614 142 vis 1;
#X obj 1620 86 iemguts/propertybang;
#X obj 1738 143 r \$0-ok;
#X msg 1738 185 vis 0;
#N canvas 0 50 1188 471 gui_feedback 0;
#X msg 127 259 set \$1;
#X obj 132 222 r \$0-w;
#X obj 130 298 s \$0-w-rcv;
#X msg 365 260 set \$1;
#X obj 361 72 r \$0-bc-snd;
#X obj 367 300 s \$0-bc-rcv;
#X obj 370 223 r \$0-back_color;
#X obj 361 156 s \$0-back_color;
#X msg 642 262 set \$1;
#X obj 640 73 r \$0-fc-snd;
#X obj 640 157 s \$0-front_color;
#X obj 648 224 r \$0-front_color;
#X obj 646 301 s \$0-fc-rcv;
#X msg 944 262 set \$1;
#X obj 941 73 r \$0-cc-snd;
#X obj 942 157 s \$0-cursor_color;
#X obj 950 224 r \$0-cursor_color;
#X obj 948 301 s \$0-cc-rcv;
#X msg 98 562 set \$1;
#X obj 102 524 r \$0-h;
#X obj 101 600 s \$0-h-rcv;
#X msg 720 462 set \$1;
#X obj 720 420 r \$0-menu_list;
#X obj 719 545 s \$0-menu_list-rcv;
#X msg 1117 251 set \$1;
#X obj 1114 62 r \$0-lc-snd;
#X obj 1115 145 s \$0-font_color;
#X obj 1123 214 r \$0-font_color;
#X obj 1121 289 s \$0-lc-rcv;
#N canvas 0 50 684 586 \$0-name 0;
#X obj 231 16 r \$0-name;
#X msg 312 180 set \$1;
#X obj 352 224 s \$0-name-rcv;
#X obj 32 238 list append \$1;
#X obj 32 267 select 0;
#X obj 110 426 s \$0-name;
#X obj 32 86 loadbang;
#X msg 228 97 label \$1-rcv;
#X obj 224 144 s \$0-receive_name-rcv;
#X obj 472 161 iemguts/canvasargs 2;
#X obj 32 162 spigot 1;
#X msg 114 126 0;
#X obj 109 346 symbol;
#X obj 483 118 list;
#X obj 221 45 t b s s s;
#X obj 32 325 + 1;
#X obj 32 354 t f f;
#X text 253 288 \$1 argument defines default \$0-name;
#X obj 32 296 v mob.UNTITLED_WIDGET;
#X msg 33 389 symbol Untitled_\$1;
#X connect 0 0 14 0;
#X connect 1 0 2 0;
#X connect 3 0 4 0;
#X connect 4 0 18 0;
#X connect 4 1 12 0;
#X connect 6 0 10 0;
#X connect 7 0 8 0;
#X connect 10 0 3 0;
#X connect 11 0 10 1;
#X connect 12 0 5 0;
#X connect 13 0 9 0;
#X connect 14 0 11 0;
#X connect 14 1 7 0;
#X connect 14 2 1 0;
#X connect 14 3 13 0;
#X connect 15 0 16 0;
#X connect 16 0 19 0;
#X connect 16 1 18 0;
#X connect 18 0 15 0;
#X connect 19 0 5 0;
#X restore 312 448 pd \$0-name;
#X connect 0 0 2 0;
#X connect 1 0 0 0;
#X connect 3 0 5 0;
#X connect 4 0 7 0;
#X connect 6 0 3 0;
#X connect 8 0 12 0;
#X connect 9 0 10 0;
#X connect 11 0 8 0;
#X connect 13 0 17 0;
#X connect 14 0 15 0;
#X connect 16 0 13 0;
#X connect 18 0 20 0;
#X connect 19 0 18 0;
#X connect 21 0 23 0;
#X connect 22 0 21 0;
#X connect 24 0 28 0;
#X connect 25 0 26 0;
#X connect 27 0 24 0;
#X restore 1606 326 pd gui_feedback;
#X obj 816 751 &&;
#X obj 694 1326 s \$0-click_area-rcv;
#X obj 812 838 select 1;
#X obj 1603 235 s pd-mmpMenu_properties(\$0);
#N canvas 355 596 419 480 mmpMenu_properties(\$0) 0;
#X obj 8 6 cnv 15 400 450 empty empty empty 20 12 0 14 #e0e0e0 #404040
0;
#X floatatom 130 21 5 0 0 0 width \$0-w-rcv \$0-w 0;
#X obj 334 360 bng 40 250 50 0 \$0-ok empty OK 5 20 0 20 #c4fcc4 #000000
#000000;
#X floatatom 314 27 5 0 0 0 height \$0-h-rcv \$0-h 0;
#X symbolatom 95 178 30 0 0 0 send_to \$0-name-rcv \$0-name 0;
#X text 31 146 Messages;
#N canvas 0 50 450 300 todo 0;
#X obj 244 238 nbx 3 20 10 200 1 0 \$0-spdrt \$0-spdrt-rcv speed_ratio(%)
-140 10 0 16 #fcfcfc #000000 #000000 0 256;
#X obj 35 101 cnv 15 200 80 empty empty TODO 20 12 0 14 #fcfcc4 #404040
0;
#X floatatom 187 130 5 0 0 0 text_color \$0-cc-rcv \$0-cc-snd 0;
#N canvas 0 50 450 300 (subpatch) 0;
#X obj 215 153 cnv 20 20 20 empty \$0-cc_cnv-rcv empty 20 12 0 14 #000000
#404040 0;
#X msg 316 159 color \$1 \$1;
#X obj 316 117 r \$0-cursor_color;
#X obj 316 198 s \$0-cc_cnv-rcv;
#X connect 1 0 3 0;
#X connect 2 0 1 0;
#X coords 0 -1 1 1 20 20 2 100 100;
#X restore 288 132 pd;
#X floatatom 187 173 5 0 0 0 text_size - - 0;
#X floatatom 277 38 5 0 0 0 z-offset \$0-z_offset-rcv \$0-z_offset
0;
#X obj 153 21 tgl 20 0 \$0-invisible \$0-invisible-rcv Invisible -100
8 0 16 #fcfcfc #000000 #000000 0 1;
#X obj 153 40 tgl 20 0 \$0-z_offset \$0-z_offset-rcv MoveOnTop -100
8 0 16 #fcfcfc #000000 #000000 0 99;
#X restore 16 427 pd todo;
#X symbolatom 208 110 10 0 0 0 menu_title \$0-title-rcv \$0-title 0
;
#X text 21 328 MobMuPlat Widget Export;
#X text 234 259 label_color;
#N canvas 882 181 1049 632 color_picker 0;
#X obj 53 150 hsl 128 12 0 255 0 0 empty empty empty -2 -8 0 10 #dcdcdc
#fc0400 #000000 0 0;
#X obj 53 162 hsl 128 12 0 255 0 0 empty empty empty -2 -8 0 10 #dcdcdc
#00fc04 #000000 0 0;
#X obj 53 174 hsl 128 12 0 255 0 0 empty empty empty -2 -8 0 10 #dcdcdc
#0400fc #000000 0 0;
#X obj 183 150 tgl 36 0 empty empty empty 17 7 0 10 #000000 #000000
#000000 0 1;
#N canvas 0 50 498 451 convert2rgb 0;
#X obj 53 112 * -1;
#X obj 54 81 + 1;
#X obj 180 183 mod 256;
#X obj 51 179 div 256;
#X obj 52 143 t f f, f 13;
#X obj 49 210 t f f;
#X obj 48 248 div 256;
#X obj 132 250 mod 256;
#X obj 54 51 inlet;
#X obj 49 317 outlet;
#X obj 129 317 outlet;
#X obj 209 317 outlet;
#X connect 0 0 4 0;
#X connect 1 0 0 0;
#X connect 2 0 11 0;
#X connect 3 0 5 0;
#X connect 4 0 3 0;
#X connect 4 1 2 0;
#X connect 5 0 6 0;
#X connect 5 1 7 0;
#X connect 6 0 9 0;
#X connect 7 0 10 0;
#X connect 8 0 1 0;
#X restore 58 76 pd convert2rgb;
#X msg 286 149 color \$1 \$1 \$1;
#X msg 57 112 set \$1;
#X msg 141 109 set \$1;
#X msg 234 111 set \$1;
#X obj 83 332 t b f;
#X obj 144 333 t b f;
#X obj 149 291 i;
#X obj 104 292 i;
#X obj 61 294 i;
#X obj 67 410 expr ($f1*(-65536)+$f2*(-256)+$f3*(-1))-1;
#X obj 66 372 pack f f f;
#X obj 58 45 spigot 1;
#X obj 67 457 t b f b;
#X msg 134 495 0;
#X msg 67 486 1;
#X obj 58 14 r \$0-label_color;
#X obj 97 549 s \$0-label_color;
#X connect 0 0 13 0;
#X connect 1 0 12 0;
#X connect 2 0 11 0;
#X connect 4 0 6 0;
#X connect 4 1 7 0;
#X connect 4 2 8 0;
#X connect 5 0 3 0;
#X connect 6 0 0 0;
#X connect 7 0 1 0;
#X connect 8 0 2 0;
#X connect 9 0 15 0;
#X connect 9 1 15 1;
#X connect 10 0 15 0;
#X connect 10 1 15 2;
#X connect 11 0 10 0;
#X connect 12 0 9 0;
#X connect 13 0 15 0;
#X connect 14 0 17 0;
#X connect 15 0 14 0;
#X connect 16 0 4 0;
#X connect 17 0 19 0;
#X connect 17 1 21 0;
#X connect 17 2 18 0;
#X connect 18 0 16 1;
#X connect 19 0 16 1;
#X connect 20 0 5 0;
#X connect 20 0 16 0;
#X coords 0 -1 1 1 169 36 2 50 150;
#X restore 42 258 pd color_picker;
#X obj 95 202 cnv 15 300 20 empty \$0-receive_name-rcv my_menu-rcv
2 10 0 16 #f0fcf8 #404040 0;
#X text 20 200 receive;
#X restore 1606 282 pd mmpMenu_properties(\$0);
#N canvas 0 0 1568 1015 mmp-export-Menu 1;
#X obj 174 53 r MMP_EXPORT;
#X obj 368 46 r \$0-x;
#X obj 449 46 r \$0-y;
#X obj 660 46 r \$0-h;
#X obj 546 41 r \$0-w;
#X obj 166 215 f;
#X obj 790 73 r \$0-name;
#X obj 643 98 r \$0-range;
#X obj 961 517 r \$0-a;
#X obj 96 841 list fromsymbol;
#X obj 102 931 list append 125;
#X obj 102 900 list prepend add 123;
#X obj 121 992 list trim;
#X obj 121 1024 s MMP_BINFILE;
#X obj 348 206 v MMP_FIRST_GUI_ITEM;
#X obj 348 238 select 1;
#X msg 625 734 add 44 123;
#X msg 538 736 add 123;
#X msg 337 300 0;
#X obj 348 336 v MMP_FIRST_GUI_ITEM;
#X obj 913 646 iemguts/canvasposition 1;
#X obj 910 779 s \$0-y;
#X obj 863 727 s \$0-x;
#X obj 913 686 unpack f f;
#X obj 152 137 t b b b b;
#X obj 114 466 * 1;
#X obj 222 467 * 1;
#X obj 438 466 * 1;
#X obj 334 463 * 1;
#X obj 181 403 t f b f b f b f;
#X obj 180 353 r MOB_ZOOM;
#X obj 114 569 pack f f f f f s f f f 1 s, f 94;
#X obj 1042 128 r \$0-title;
#X msg 89 636 symbol "address":"\$6"\\\,"frame":[\$1\\\,\$2\\\,\$3\\\,\$4]\\\,"title":"\$11"\\\,"class":"MMPMenu"\\\,"highlightColor":[\$7\\\,\$8\\\,\$9\\\,\$10]\\\,"color":[\$7\\\,\$8\\\,\$9\\\,\$10]
;
#N canvas 278 130 450 300 MMP_EXPORT_BY_INDEX 0;
#X obj 151 40 r MMP_EXPORT_BY_INDEX;
#X obj 151 69 t f b;
#X obj 203 124 canvasindex 2;
#X obj 146 184 select;
#X obj 146 268 outlet;
#X text 38 6 enable z-order;
#X connect 0 0 1 0;
#X connect 1 0 3 0;
#X connect 1 1 2 0;
#X connect 2 0 3 1;
#X connect 3 0 4 0;
#X restore 81 79 pd MMP_EXPORT_BY_INDEX;
#N canvas 0 50 534 640 canvas_color_to_rgb 0;
#X obj 119 35 inlet;
#X obj 121 96 + 1;
#X obj 121 125 * -1;
#X obj 134 159 t f f f;
#X obj 45 193 / 65536;
#X obj 163 194 / 256;
#X obj 247 197 mod 256;
#X obj 163 223 mod 256;
#X obj 45 222 int;
#X obj 45 251 / 255;
#X obj 163 252 / 255;
#X obj 247 226 / 255;
#X obj 40 283 outlet;
#X obj 164 285 outlet;
#X obj 254 283 outlet;
#X connect 0 0 1 0;
#X connect 1 0 2 0;
#X connect 2 0 3 0;
#X connect 3 0 4 0;
#X connect 3 1 5 0;
#X connect 3 2 6 0;
#X connect 4 0 8 0;
#X connect 5 0 7 0;
#X connect 6 0 11 0;
#X connect 7 0 10 0;
#X connect 8 0 9 0;
#X connect 9 0 12 0;
#X connect 10 0 13 0;
#X connect 11 0 14 0;
#X restore 685 393 pd canvas_color_to_rgb;
#X text 1038 511 non implemented;
#X obj 676 345 r \$0-label_color;
#N canvas 396 91 1101 721 export_args 0;
#X obj 296 319 iemguts/canvasargs 2;
#X obj 275 58 inlet;
#X obj 308 108 r \$0-name;
#X obj 293 159 symbol;
#X obj 293 188 t s s;
#X msg 333 219 symbol \$1-rcv;
#X obj 413 149 r WIDGET-ID;
#X obj 301 263 pack s s f;
#X connect 1 0 3 0;
#X connect 2 0 3 1;
#X connect 3 0 4 0;
#X connect 4 0 7 0;
#X connect 4 1 5 0;
#X connect 5 0 7 1;
#X connect 6 0 7 2;
#X connect 7 0 0 0;
#X restore 1121 817 pd export_args;
#X connect 1 0 5 1;
#X connect 2 0 26 0;
#X connect 3 0 27 0;
#X connect 4 0 28 0;
#X connect 5 0 25 0;
#X connect 6 0 31 5;
#X connect 7 0 31 4;
#X connect 8 0 31 9;
#X connect 9 0 11 0;
#X connect 10 0 12 0;
#X connect 11 0 10 0;
#X connect 12 0 13 0;
#X connect 14 0 15 0;
#X connect 15 0 17 0;
#X connect 15 0 18 0;
#X connect 15 1 16 0;
#X connect 16 0 11 1;
#X connect 17 0 11 1;
#X connect 18 0 19 0;
#X connect 20 0 23 0;
#X connect 23 0 22 0;
#X connect 23 1 21 0;
#X connect 24 0 5 0;
#X connect 24 1 14 0;
#X connect 24 2 20 0;
#X connect 24 3 38 0;
#X connect 25 0 31 0;
#X connect 26 0 31 1;
#X connect 27 0 31 3;
#X connect 28 0 31 2;
#X connect 29 0 25 1;
#X connect 29 1 26 0;
#X connect 29 2 26 1;
#X connect 29 3 28 0;
#X connect 29 4 28 1;
#X connect 29 5 27 0;
#X connect 29 6 27 1;
#X connect 30 0 29 0;
#X connect 31 0 33 0;
#X connect 32 0 31 10;
#X connect 33 0 9 0;
#X connect 34 0 24 0;
#X connect 35 0 31 6;
#X connect 35 1 31 7;
#X connect 35 2 31 8;
#X connect 37 0 35 0;
#X restore 1608 388 pd mmp-export-Menu;
#X msg 906 1070 zoom 2 \, vis 1;
#X obj 1423 822 v MOB_BACKGROUND_COLOR;
#X text 1468 905 attributes: Title output: on touch \, sends out two
element list. first element is index second element is string value
input: a list of strings to populate the menu.;
#X text 175 1005 si pas de savestate ni d arguments;
#X text 178 1038 browse le patch parent et retrouver manuellement le
savestate;
#X text 179 1095 appliquer \, convertir en parametres;
#X text 113 970 savestate et pd 0.48 strategy;
#X obj 142 1298 canvasargs;
#X msg 142 1151 list 10 20;
#X msg 170 1182 list quite a lot of arguments;
#X msg 186 1236 abstraction1;
#X msg 209 1260 abstraction2 argument1;
#X obj 84 1226 bng 15 250 50 0 empty empty empty 17 7 0 10 #fcfcfc
#000000 #000000;
#X obj 142 1332 print;
#X msg 58 1088 list my_menu;
#X obj 919 984 t b b;
#X obj 779 1238 pack f f;
#X msg 690 1288 color \$1 \$1 \$2;
#X obj 786 1202 t b f;
#X obj 697 127 t b l b;
#X msg 1044 697 set 0;
#X obj 449 78 route editmode mouse mouseup zoom;
#X obj 518 359 / 1;
#X obj 566 340 / 1;
#X obj 326 456 keyname;
#X obj 326 490 pack f s;
#X obj 318 576 route Control_L control_R;
#X msg 326 523 \$2 \$1;
#X obj 280 667 spigot;
#X obj 941 1284 s \$0-pos-rcv;
#X obj 1326 970 r \$0-h;
#X obj 1334 1042 / 2;
#X msg 1326 1138 label_font 0 \$1 \, label_pos 2 \$1;
#X msg 941 1211 color -1 -1 \$1;
#X msg 1708 1154 size 1 \, vis_size 1 1;
#X obj 455 30 iemguts/receivecanvas 1;
#X obj 481 281 spigot;
#X obj 571 244 == 1;
#X msg 1520 1258 label mob/menu;
#X obj 1194 1093 r \$0-name;
#X obj 1153 1181 s;
#X obj 1202 1136 symbol;
#X obj 1650 1057 r \$0-title;
#X msg 1650 1090 label \$1;
#N canvas 0 57 1920 1023 menu-stuff 0;
#X text 854 473 fill the Menu;
#X obj 894 512 loadbang;
#X obj 887 617 send toGUI;
#X obj 851 518 bng 15 250 50 0 empty empty empty 17 7 0 10 #fcfcfc
#000000 #000000;
#X obj 878 703 receive fromGUI;
#X obj 878 749 list trim;
#X obj 878 786 route /myMenu;
#X text 1018 786 on selection \, receive index and value;
#X msg 880 827 list /myMenuLabel Selected index \$1 : \$2;
#X msg 881 556 list /myMenu this is a list of strings defined in the
PureData patch;
#X obj 460 577 bng 15 250 50 0 empty empty empty 17 7 0 10 #fcfcfc
#000000 #000000;
#X msg 223 481 clear;
#X text 1081 244 offset vertical;
#X floatatom 504 533 5 0 0 0 - - - 0;
#X msg 470 685 vis 0;
#X obj 511 619 t b;
#X obj 511 653 delay;
#X obj 86 272 t b b;
#X obj 86 374 until;
#X obj 91 426 f 0;
#X obj 132 427 + 1;
#X msg 145 394 0;
#X obj 114 569 * 400;
#X obj 118 604 min 60, f 9;
#X symbolatom 145 668 10 0 0 0 - - - 0;
#X obj 182 770 symbol \$0-target;
#X obj 456 490 r \$0-target;
#X obj 85 466 t f f f b;
#X msg 116 503 1 \$1;
#X obj 116 534 /;
#X obj 36 804 * 60;
#X text 13 28 #X obj 183 826 vsl 60 128 0 1 0 0 snd-/fx_ring-0/freq
empty empty 0 -9 0 10 -262144 -1 -1 1 \;;
#X obj 42 244 bng 15 250 50 0 empty empty empty 17 7 0 10 #fcfcfc #000000
#000000;
#X obj 84 228 inlet;
#X msg 766 1147 color \$1 \$1 \$2;
#X obj 751 1087 pack f f;
#X obj 52 340 t b f f;
#X obj 691 1243 s \$0-target-rcv;
#X obj 1086 1262 outlet;
#X obj 1038 1074 r \$0-target;
#X obj 1038 1108 t f f;
#X obj 1061 1211 list append;
#X obj 751 1054 v MOB_BACKGROUND_COLOR;
#X obj 80 310 text size \$0-menu;
#X obj 266 253 text define \$0-menu;
#X obj 145 636 text get \$0-menu;
#X obj 1189 1150 text get \$0-menu;
#X obj 593 278 iemlib/iem_receive \$0-nop;
#X msg 640 236 set \$1-rcv;
#X obj 636 192 r \$0-name;
#X msg 641 410 clear;
#X obj 593 310 route set;
#X obj 589 341 list;
#X obj 593 374 t l l b;
#X obj 593 456 list length;
#X obj 599 505 until;
#X obj 602 545 list append;
#X obj 602 576 list split 1;
#X obj 604 629 text insert \$0-menu;
#X obj 314 728 s pd-\$0-popup_menu;
#N canvas 545 35 317 827 \$0-popup_menu 0;
#X restore 311 943 pd \$0-popup_menu;
#X msg 762 440 1e+09;
#X obj 762 390 loadbang;
#X obj 78 1070 pack f f f s s f;
#X obj 229 1022 / 2;
#X msg 77 1103 obj 0 \$2 hsl 150 \$3 \$1 \$1 0 0 \$5 \$5-rcv \$4 0
\$6 0 \$6 -1 -1 -1 1;
#X obj 960 1006 r \$0-label_color;
#X connect 1 0 9 0;
#X connect 3 0 9 0;
#X connect 4 0 5 0;
#X connect 5 0 6 0;
#X connect 6 0 8 0;
#X connect 9 0 2 0;
#X connect 11 0 59 0;
#X connect 14 0 59 0;
#X connect 15 0 16 0;
#X connect 16 0 14 0;
#X connect 17 0 43 0;
#X connect 17 1 11 0;
#X connect 17 1 21 0;
#X connect 18 0 19 0;
#X connect 19 0 20 0;
#X connect 19 0 27 0;
#X connect 20 0 19 1;
#X connect 21 0 19 1;
#X connect 22 0 23 0;
#X connect 23 0 30 1;
#X connect 23 0 63 2;
#X connect 23 0 64 0;
#X connect 25 0 63 4;
#X connect 26 0 10 0;
#X connect 26 0 13 0;
#X connect 26 0 15 0;
#X connect 27 0 63 0;
#X connect 27 1 30 0;
#X connect 27 2 45 0;
#X connect 27 3 25 0;
#X connect 28 0 29 0;
#X connect 29 0 22 0;
#X connect 30 0 63 1;
#X connect 32 0 17 0;
#X connect 33 0 17 0;
#X connect 34 0 37 0;
#X connect 35 0 34 0;
#X connect 36 0 42 0;
#X connect 36 1 18 0;
#X connect 36 2 28 0;
#X connect 39 0 40 0;
#X connect 40 0 41 0;
#X connect 40 1 46 0;
#X connect 41 0 38 0;
#X connect 42 0 35 0;
#X connect 43 0 36 0;
#X connect 45 0 24 0;
#X connect 45 0 63 3;
#X connect 46 0 41 1;
#X connect 47 0 51 0;
#X connect 48 0 47 0;
#X connect 49 0 48 0;
#X connect 50 0 44 0;
#X connect 51 0 52 0;
#X connect 52 0 53 0;
#X connect 53 0 54 0;
#X connect 53 1 56 1;
#X connect 53 2 50 0;
#X connect 54 0 55 0;
#X connect 55 0 56 0;
#X connect 56 0 57 0;
#X connect 57 0 58 0;
#X connect 57 1 56 1;
#X connect 61 0 58 1;
#X connect 62 0 61 0;
#X connect 63 0 65 0;
#X connect 64 0 63 5;
#X connect 65 0 59 0;
#X connect 66 0 35 1;
#X restore 1136 1015 pd menu-stuff;
#X obj 912 1106 s pd-\$0-popup_menu;
#X obj 893 1162 r \$0-label_color;
#X obj 253 361 r \$0-editmode;
#X connect 0 0 1 0;
#X connect 2 0 3 0;
#X connect 3 0 4 1;
#X connect 3 1 5 1;
#X connect 4 0 7 0;
#X connect 5 0 8 0;
#X connect 6 0 37 0;
#X connect 7 0 10 0;
#X connect 7 1 20 0;
#X connect 8 0 9 0;
#X connect 8 1 21 0;
#X connect 9 0 35 1;
#X connect 10 0 35 0;
#X connect 11 0 77 0;
#X connect 11 1 64 0;
#X connect 11 2 78 0;
#X connect 12 0 13 0;
#X connect 13 0 56 0;
#X connect 13 1 69 0;
#X connect 17 0 20 1;
#X connect 18 0 21 1;
#X connect 20 0 24 0;
#X connect 21 0 23 0;
#X connect 22 0 35 0;
#X connect 23 0 35 1;
#X connect 24 1 22 0;
#X connect 29 0 57 0;
#X connect 30 0 38 0;
#X connect 31 0 30 0;
#X connect 32 0 33 0;
#X connect 33 0 38 0;
#X connect 35 0 6 0;
#X connect 37 0 12 0;
#X connect 41 0 86 0;
#X connect 48 0 54 0;
#X connect 49 0 48 0;
#X connect 50 0 48 0;
#X connect 51 0 48 0;
#X connect 52 0 48 0;
#X connect 53 0 48 0;
#X connect 55 0 48 0;
#X connect 56 0 41 0;
#X connect 56 1 85 0;
#X connect 57 0 58 0;
#X connect 58 0 36 0;
#X connect 59 0 57 0;
#X connect 59 1 57 1;
#X connect 60 1 11 0;
#X connect 60 2 0 0;
#X connect 61 0 6 0;
#X connect 62 0 12 1;
#X connect 62 1 60 0;
#X connect 62 2 61 0;
#X connect 62 3 63 1;
#X connect 62 3 64 1;
#X connect 63 0 4 0;
#X connect 64 0 5 0;
#X connect 65 0 66 0;
#X connect 65 1 66 1;
#X connect 66 0 68 0;
#X connect 67 0 69 1;
#X connect 67 1 69 1;
#X connect 68 0 67 0;
#X connect 69 0 16 0;
#X connect 71 0 72 0;
#X connect 72 0 73 0;
#X connect 73 0 70 0;
#X connect 74 0 70 0;
#X connect 75 0 70 0;
#X connect 76 0 62 0;
#X connect 77 0 63 0;
#X connect 78 0 77 1;
#X connect 79 0 70 0;
#X connect 80 0 82 0;
#X connect 82 0 81 1;
#X connect 83 0 84 0;
#X connect 84 0 70 0;
#X connect 85 0 81 0;
#X connect 87 0 59 0;
#X connect 87 0 74 0;
#X connect 88 0 12 1;
#X coords 0 -1 1 1 60 60 2 100 100;
