#N canvas 205 215 1920 1023 12;
#X obj 100 100 cnv 15 298 138 empty empty mob 2 8 0 14 -204800 -1 0
;
#X obj 54 63 inlet;
#X symbolatom 187 188 30 0 0 2 pd_target_File #0-pdFile-rcv #0-pdFile
;
#N canvas 1163 889 362 187 \$0-properties 0;
#X obj 58 137 cnv 15 200 35 empty empty empty 20 12 0 14 -233017 -66577
0;
#X obj 67 145 bng 15 250 50 0 \$0-done empty OK 17 7 0 10 -24198 -1
-1;
#X obj 188 145 bng 15 250 50 0 \$0-cancel empty cancel 17 7 0 10 -258699
-1 -1;
#X obj 61 76 hsl 128 15 0 255 0 1 \$0-R \$0-R empty -2 -8 0 10 -258699
-1 -1 8500 1;
#X obj 61 93 hsl 128 15 0 255 0 1 \$0-G \$0-G empty -2 -8 0 10 -24198
-1 -1 6700 1;
#X obj 61 110 hsl 128 15 0 255 0 1 \$0-B \$0-B empty -2 -8 0 10 -62784
-1 -1 4300 1;
#X obj 206 76 cnv 15 50 50 empty \$0-color empty 20 12 0 14 -174166
-262144 0;
#X obj 120 145 bng 15 250 50 0 \$0-apply empty apply 17 7 0 10 -241291
-1 -1;
#X text 90 37 select your color!;
#X restore 448 159 pd \$0-properties;
#X obj 448 138 s pd-\$0-properties;
#X msg 448 121 vis \$1;
#X msg 473 101 1;
#X msg 448 101 0;
#N canvas 467 135 857 456 propertyguts 0;
#X obj 118 105 r \$0-R;
#X obj 160 105 r \$0-G;
#X obj 201 105 r \$0-B;
#N canvas 15 207 606 448 RGB_____________ 0;
#X obj 97 56 inlet;
#X obj 262 43 inlet;
#X obj 339 45 inlet;
#X obj 405 44 inlet;
#X obj 97 230 bang;
#X msg 97 255 0;
#X msg 123 254 1;
#X obj 146 228 bang;
#X msg 152 255 0;
#X msg 180 255 1;
#X obj 312 313 spigot;
#X obj 249 385 outlet;
#X text 93 33 select;
#X text 267 28 red;
#X text 337 30 green;
#X text 409 30 blue;
#X obj 405 132 t b f;
#X obj 339 160 +;
#X obj 339 185 t b f;
#X obj 339 216 +;
#X obj 296 385 outlet;
#X obj 296 361 f;
#X obj 249 361 f;
#X obj 262 109 * -65536;
#X obj 339 110 * -256;
#X obj 405 110 * -1;
#X obj 339 247 - 1;
#X obj 97 135 route back label bang;
#X obj 235 168 t b b b;
#X obj 265 313 spigot 1;
#X obj 262 77 max 0;
#X obj 262 93 min 255;
#X obj 339 77 max 0;
#X obj 339 93 min 255;
#X obj 405 77 max 0;
#X obj 405 93 min 255;
#X obj 262 61 i;
#X obj 339 61 i;
#X obj 405 61 i;
#X connect 0 0 27 0;
#X connect 1 0 36 0;
#X connect 2 0 37 0;
#X connect 3 0 38 0;
#X connect 4 0 5 0;
#X connect 4 0 6 0;
#X connect 5 0 10 1;
#X connect 6 0 29 1;
#X connect 7 0 8 0;
#X connect 7 0 9 0;
#X connect 8 0 29 1;
#X connect 9 0 10 1;
#X connect 10 0 21 1;
#X connect 16 0 17 0;
#X connect 16 1 17 1;
#X connect 17 0 18 0;
#X connect 18 0 19 0;
#X connect 18 1 19 1;
#X connect 19 0 26 0;
#X connect 21 0 20 0;
#X connect 22 0 11 0;
#X connect 23 0 19 0;
#X connect 24 0 17 0;
#X connect 25 0 16 0;
#X connect 26 0 10 0;
#X connect 26 0 29 0;
#X connect 27 0 4 0;
#X connect 27 1 7 0;
#X connect 27 2 28 0;
#X connect 28 0 22 0;
#X connect 28 1 21 0;
#X connect 28 2 26 0;
#X connect 29 0 22 1;
#X connect 30 0 31 0;
#X connect 31 0 23 0;
#X connect 32 0 33 0;
#X connect 33 0 24 0;
#X connect 34 0 35 0;
#X connect 35 0 25 0;
#X connect 36 0 30 0;
#X connect 37 0 32 0;
#X connect 38 0 34 0;
#X restore 118 244 pd RGB_____________;
#X obj 118 165 b;
#X obj 118 130 t b f;
#X obj 160 130 t b f;
#X obj 201 130 t b f;
#X obj 118 304 s \$0-color;
#X obj 202 63 r \$0-done;
#X obj 202 81 t b b;
#X obj 29 100 b;
#X obj 29 47 r \$0-cancel;
#X obj 432 28 inlet properties opened;
#X obj 29 415 outlet close properties;
#X msg 118 285 color \$1 0;
#X obj 257 355 route 0;
#X obj 257 303 t b b;
#X obj 310 357 f;
#X obj 118 262 t f f;
#X obj 310 392 s \$0-label;
#X msg 310 374 color \$1 0;
#X obj 257 83 r \$0-apply;
#X obj 257 101 t b b;
#X obj 310 44 loadbang;
#X obj 323 96 t b b;
#X obj 257 414 outlet arguments;
#X obj 257 324 pack 0 \$1 \$2 \$3;
#X obj 154 213 i;
#X obj 190 213 i;
#X obj 228 213 i;
#X obj 432 100 b;
#X obj 432 308 route 0;
#X obj 432 287 pack 0 \$1 \$2 \$3;
#X obj 432 345 s \$0-R;
#X obj 474 345 s \$0-G;
#X obj 515 345 s \$0-B;
#X obj 432 327 unpack 0 0 0;
#X obj 83 370 s mmp-background;
#X connect 0 0 5 0;
#X connect 1 0 6 0;
#X connect 2 0 7 0;
#X connect 3 0 19 0;
#X connect 4 0 3 0;
#X connect 5 0 4 0;
#X connect 5 1 28 0;
#X connect 6 0 4 0;
#X connect 6 1 29 0;
#X connect 7 0 4 0;
#X connect 7 1 30 0;
#X connect 9 0 10 0;
#X connect 10 0 11 0;
#X connect 10 1 23 0;
#X connect 11 0 14 0;
#X connect 12 0 11 0;
#X connect 13 0 31 0;
#X connect 15 0 8 0;
#X connect 16 0 26 0;
#X connect 17 0 27 0;
#X connect 17 1 18 0;
#X connect 18 0 21 0;
#X connect 19 0 15 0;
#X connect 19 1 18 1;
#X connect 21 0 20 0;
#X connect 22 0 23 0;
#X connect 23 0 17 0;
#X connect 24 0 25 0;
#X connect 25 0 18 0;
#X connect 27 0 16 0;
#X connect 28 0 3 1;
#X connect 28 0 27 1;
#X connect 28 0 33 1;
#X connect 29 0 3 2;
#X connect 29 0 27 2;
#X connect 29 0 33 2;
#X connect 30 0 3 3;
#X connect 30 0 27 3;
#X connect 30 0 33 3;
#X connect 31 0 33 0;
#X connect 32 0 37 0;
#X connect 33 0 32 0;
#X connect 37 0 34 0;
#X connect 37 1 35 0;
#X connect 37 2 36 0;
#X restore 448 44 pd propertyguts;
#X obj 350 100 bng 50 250 50 0 empty empty empty 17 7 0 10 -262144
-1 -1;
#X obj 355 105 cnv 15 40 40 empty \$0-color empty 20 12 0 14 -174166
-262144 0;
#X floatatom 363 150 5 1 100 0 pageCount #0-pageCount-rcv #0-pageCount
;
#X text 286 118 BackGroundColor;
#X floatatom 363 169 5 0 99 0 firstPage #0-firstPage-rcv #0-firstPage
;
#X msg 250 285 clear;
#X obj 128 776 s MMP_BINFILE;
#X obj 207 563 list prepend 123;
#X obj 180 614 list prepend add;
#X obj 235 101 bng 40 250 50 0 empty empty export_mmp 17 7 0 10 -258113
-1 -1;
#X obj 115 426 s MMP_EXPORT;
#X obj 174 331 v MMP_FIRST_GUI_ITEM;
#X msg 174 308 1;
#X obj 132 722 list trim;
#X obj 44 620 list prepend add;
#X obj 49 564 list append 125;
#X msg 35 739 write \$1;
#X obj 36 714 savepanel;
#X obj 56 687 bng 15 250 50 0 empty empty empty 17 7 0 10 -262144 -1
-1;
#X obj 748 677 mrpeach/binfile;
#X obj 748 651 r MMP_BINFILE;
#X obj 43 656 t b a;
#X obj 56 346 delay 1;
#X obj 956 99 r MMP_EXPORT;
#X obj 100 150 vradio 15 1 0 6 \$0-mode \$0-mode-rcv empty 0 -8 0 10
-262144 -1 -1 0;
#X obj 506 666 text define -k \$0-resolutions;
#A set 600x960 android7inch 0 600 960 600 0 \; 960x600 android7inch
1 960 600 960 0 \;;
#X text 119 149 600 x 960;
#X text 160 206 une page android7inch portrait = 600 x 960 pixels,
f 31;
#X text 102 116 Orientation / Resolution, f 13;
#N canvas 0 50 450 300 orientation 0;
#X obj 55 9 inlet;
#X obj 65 208 outlet;
#X obj 47 44 v \$0-isOrientationLandscape;
#X obj 47 69 select 0 1;
#X msg 38 96 symbol false;
#X msg 148 96 symbol true;
#X msg 65 128 ]\\\,"isOrientationLandscape":\$1\\\,"version":1.5;
#X connect 0 0 2 0;
#X connect 2 0 3 0;
#X connect 3 0 4 0;
#X connect 3 1 5 0;
#X connect 4 0 6 0;
#X connect 5 0 6 0;
#X connect 6 0 1 0;
#X restore 53 478 pd orientation;
#N canvas 0 50 649 619 bckgrndcolor/pagecount/pdfile 0;
#X obj 51 13 inlet;
#X obj 41 378 outlet;
#X obj 127 106 symbol;
#X obj 112 56 r \$0-pdFile;
#X obj 184 89 / 255;
#X obj 234 89 / 255;
#X obj 284 89 / 255;
#X obj 153 242 pack s f f f 1 f;
#X obj 261 163 r \$0-pageCount;
#X obj 289 133 r \$0-firstPage;
#X obj 251 21 r \$0-R;
#X obj 311 21 r \$0-G;
#X obj 365 20 r \$0-B;
#X msg 55 287 "pdFile":"\$1"\\\,"backgroundColor":[\$2\\\,\$3\\\,\$4\\\,1.0]\\\,"pageCount":\$5\\\,"port":54321\\\,"isPageScrollShortEnd":false\\\,"startPageIndex":\$6\\\,"canvasType":"android7Inch"\\\,"gui":[
;
#X connect 0 0 2 0;
#X connect 2 0 7 0;
#X connect 3 0 2 1;
#X connect 4 0 7 1;
#X connect 5 0 7 2;
#X connect 6 0 7 3;
#X connect 7 0 13 0;
#X connect 8 0 7 4;
#X connect 9 0 7 5;
#X connect 10 0 4 0;
#X connect 11 0 5 0;
#X connect 12 0 6 0;
#X connect 13 0 1 0;
#X restore 233 360 pd bckgrndcolor/pagecount/pdfile;
#N canvas 4 54 692 325 reading_parent_patch 0;
#X obj 321 293 text define \$0-patch;
#X obj 187 47 route savetofile;
#X obj 188 81 unpack s s;
#X obj 187 150 s \$0-pdFile-rcv;
#X obj 308 63 loadbang;
#X obj 408 61 bng 15 250 50 0 empty empty empty 17 7 0 10 -262144 -1
-1;
#X obj 187 25 iemguts/receivecanvas 2;
#X obj 305 90 iemguts/canvasname 2;
#X obj 68 98 r \$0-pdFile;
#X obj 77 154 symbol;
#X obj 39 50 inlet refresh;
#X obj 546 157 pdcontrol;
#X msg 544 113 dir 1;
#X obj 317 203 t s b;
#X obj 317 228 pack s s;
#X msg 323 264 clear \, read \$2/\$1;
#X connect 1 0 2 0;
#X connect 2 0 3 0;
#X connect 4 0 7 0;
#X connect 5 0 7 0;
#X connect 6 0 1 0;
#X connect 7 1 3 0;
#X connect 8 0 9 0;
#X connect 9 0 13 0;
#X connect 10 0 9 0;
#X connect 11 0 14 1;
#X connect 12 0 11 0;
#X connect 13 0 14 0;
#X connect 13 1 12 0;
#X connect 14 0 15 0;
#X connect 15 0 0 0;
#X restore 362 312 pd reading_parent_patch;
#X obj 233 384 symbol;
#X obj 233 408 list fromsymbol;
#X obj 51 507 symbol;
#X obj 51 531 list fromsymbol;
#X text 157 355 header;
#X text 21 401 gui's elements;
#X text 9 451 footer;
#X text 12 583 ending curly brace;
#X text 240 439 begining curly brace;
#X obj 249 311 s MMP_BINFILE;
#N canvas 0 50 1361 736 savestate 0;
#X obj 201 85 savestate;
#X obj 283 230 list;
#X obj 253 144 v \$0-R;
#X msg 255 171 -R \$1;
#X obj 313 144 v \$0-G;
#X msg 315 171 -G \$1;
#X obj 369 142 v \$0-B;
#X msg 369 170 -B \$1;
#X obj 182 289 list trim;
#X obj 81 344 s \$0-R;
#X obj 141 344 s \$0-G;
#X obj 195 343 s \$0-B;
#X msg 443 176 -pages \$1;
#X obj 438 142 v \$0-pageCount;
#X obj 553 139 v \$0-mode;
#X msg 553 164 -mode \$1;
#X obj 124 312 route -R -G -B -pages -mode;
#X obj 280 353 s \$0-mode;
#X obj 851 106 loadbang;
#X obj 875 132 r \$0-pageCount;
#X obj 878 215 s \$0-pageCount;
#X obj 837 179 max 1;
#X obj 837 154 f;
#X obj 825 85 bng 15 250 50 0 empty empty empty 17 7 0 10 -262144 -1
-1;
#X obj 802 250 s \$0-pageCount-rcv;
#X msg 799 209 set \$1;
#X obj 962 346 r \$0-mode;
#X msg 962 371 set \$1;
#X obj 966 398 s \$0-mode-rcv;
#X obj 234 383 s \$0-pageCount;
#X connect 0 0 8 0;
#X connect 0 1 2 0;
#X connect 0 1 4 0;
#X connect 0 1 6 0;
#X connect 0 1 13 0;
#X connect 0 1 14 0;
#X connect 1 0 0 0;
#X connect 2 0 3 0;
#X connect 3 0 1 0;
#X connect 4 0 5 0;
#X connect 5 0 1 0;
#X connect 6 0 7 0;
#X connect 7 0 1 0;
#X connect 8 0 16 0;
#X connect 12 0 1 0;
#X connect 13 0 12 0;
#X connect 14 0 15 0;
#X connect 15 0 1 0;
#X connect 16 0 9 0;
#X connect 16 1 10 0;
#X connect 16 2 11 0;
#X connect 16 3 29 0;
#X connect 16 4 17 0;
#X connect 18 0 22 0;
#X connect 19 0 22 1;
#X connect 21 0 20 0;
#X connect 21 0 25 0;
#X connect 22 0 21 0;
#X connect 23 0 22 0;
#X connect 25 0 24 0;
#X connect 26 0 27 0;
#X connect 27 0 28 0;
#X restore 637 118 pd savestate;
#X obj 366 289 bng 15 250 50 0 empty empty empty 17 7 0 10 -262144
-1 -1;
#N canvas 0 57 1920 1023 comments 0;
#X obj 101 40 inlet;
#X obj 773 456 list append 125;
#X obj 791 488 list trim;
#X obj 796 516 s MMP_BINFILE;
#X obj 627 -4 v MMP_FIRST_GUI_ITEM;
#X obj 627 31 select 1;
#X msg 726 163 add 44 123;
#X msg 630 162 add 123;
#X msg 629 70 0;
#X obj 628 108 v MMP_FIRST_GUI_ITEM;
#N canvas 4 54 555 753 concatenate_list_into_symbol 0;
#X obj 79 14 inlet;
#X obj 41 448 outlet;
#X obj 60 108 list length;
#X obj 60 129 until;
#X obj 63 176 list split 1;
#X obj 55 153 list append;
#X obj 58 293 list fromsymbol;
#X obj 58 315 list append 32;
#X obj 60 336 list prepend;
#X obj 60 358 list;
#X obj 32 380 list append;
#X obj 79 36 list;
#X obj 29 427 list tosymbol;
#X obj 32 402 t l l;
#X obj 178 411 list length;
#X obj 178 433 outlet;
#X obj 49 70 t b l l b b;
#X obj 63 226 symbol;
#X obj 117 200 route symbol float;
#X obj 183 231 float;
#X msg 183 251 symbol `\$1;
#X connect 0 0 11 0;
#X connect 2 0 3 0;
#X connect 3 0 5 0;
#X connect 4 0 18 0;
#X connect 4 1 5 1;
#X connect 5 0 4 0;
#X connect 6 0 7 0;
#X connect 7 0 8 0;
#X connect 8 0 9 0;
#X connect 9 0 8 1;
#X connect 9 0 10 1;
#X connect 10 0 13 0;
#X connect 11 0 16 0;
#X connect 12 0 1 0;
#X connect 13 0 12 0;
#X connect 13 1 14 0;
#X connect 14 0 15 0;
#X connect 16 0 10 0;
#X connect 16 1 2 0;
#X connect 16 2 5 1;
#X connect 16 3 10 1;
#X connect 16 4 8 1;
#X connect 17 0 6 0;
#X connect 18 0 17 0;
#X connect 18 1 19 0;
#X connect 19 0 20 0;
#X connect 20 0 6 0;
#X restore 104 404 pd concatenate_list_into_symbol;
#X obj 72 380 list split 2;
#X obj 364 435 r \$0-font_size;
#X obj 116 595 pack f f f f s f, f 29;
#X text 169 570 width (pix);
#X text 316 570 height (pix);
#X text 302 186 line was terminated by comma : get next line;
#X obj 264 263 text get \$0-patch;
#X obj 264 286 list trim;
#X obj 291 313 route f;
#X obj 203 174 select 1 0;
#X obj 270 486 div;
#X obj 268 512 + 1;
#X obj 268 534 *;
#X msg 225 343 80;
#X text 300 351 default value;
#X text 274 328 nb of caracters per comment line;
#X obj 217 501 *;
#X text 3 236 une page android7inch portrait = 600 x 960 pixels;
#X obj 551 397 list fromsymbol;
#X obj 525 366 symbol;
#X floatatom 364 457 5 0 0 0 - - -;
#X msg 525 308 "address":"/myLabel"\\\,"highlightColor":[1\\\,0\\\,0\\\,1]\\\,"color":[0\\\,0\\\,0\\\,1]\\\,"frame":[\$1\\\,\$2\\\,\$3\\\,\$4]\\\,"textFontFamily":"Default"\\\,"textFont":""\\\,"textSize":\$6\\\,"text":"\$5"\\\,"class":"MMPLabel"\\\,"androidFont":"Roboto-Regular"
;
#X obj 758 425 list prepend add 44 123;
#X obj 136 85 t a b b;
#X floatatom 309 381 5 0 0 0 - - -;
#X obj 252 560 * 1.2;
#X obj 217 523 * 0.5;
#X obj 187 143 v \$0-patch_status;
#X obj 258 212 v \$0-next_line;
#X connect 0 0 34 0;
#X connect 1 0 2 0;
#X connect 2 0 3 0;
#X connect 4 0 5 0;
#X connect 5 0 7 0;
#X connect 5 0 8 0;
#X connect 5 1 6 0;
#X connect 6 0 33 1;
#X connect 7 0 33 1;
#X connect 8 0 9 0;
#X connect 10 0 13 4;
#X connect 10 1 21 0;
#X connect 11 0 13 0;
#X connect 11 1 10 0;
#X connect 12 0 13 5;
#X connect 12 0 23 1;
#X connect 12 0 27 1;
#X connect 12 0 31 0;
#X connect 13 0 32 0;
#X connect 17 0 18 0;
#X connect 18 0 19 0;
#X connect 19 0 21 1;
#X connect 19 0 35 0;
#X connect 19 0 27 0;
#X connect 20 0 39 0;
#X connect 20 1 24 0;
#X connect 21 0 22 0;
#X connect 22 0 23 0;
#X connect 23 0 36 0;
#X connect 24 0 21 1;
#X connect 24 0 27 0;
#X connect 27 0 37 0;
#X connect 29 0 33 0;
#X connect 30 0 29 0;
#X connect 32 0 30 0;
#X connect 33 0 1 0;
#X connect 34 0 11 0;
#X connect 34 1 38 0;
#X connect 34 2 4 0;
#X connect 36 0 13 3;
#X connect 37 0 13 2;
#X connect 38 0 20 0;
#X connect 39 0 17 0;
#X restore 894 289 pd comments;
#N canvas 1125 126 1920 1023 parsing_only_main_patch_level_(not_subpatches)
0;
#X obj 80 116 f;
#X obj 121 120 + 1;
#X msg 153 65 0;
#X obj 90 197 list trim;
#X obj 136 217 route #N #X;
#X obj 43 255 route canvas;
#X obj 171 310 +;
#X obj 171 332 f;
#X msg 83 282 1;
#X msg 169 282 -1;
#X obj 177 354 == 1;
#X obj 131 424 spigot;
#X obj 84 173 text get \$0-patch;
#X obj 49 20 inlet;
#X text 232 343 seulement niveau 0 (pas les sous-patches);
#X obj 113 36 bng 15 250 50 0 empty empty empty 17 7 0 10 -262144 -1
-1;
#X obj 31 83 text size \$0-patch;
#X obj 31 108 until;
#X floatatom 343 201 5 0 0 0 - - -;
#N canvas 0 50 450 300 get_patch_font_size 0;
#X obj 54 12 inlet;
#X obj 57 166 outlet;
#X obj 58 54 text get \$0-patch;
#X obj 58 76 list trim;
#X obj 58 120 route canvas;
#X msg 58 142 \$5;
#X obj 58 98 route #N;
#X msg 54 34 0;
#X msg 152 125 12;
#X text 168 101 default;
#X connect 0 0 7 0;
#X connect 2 0 3 0;
#X connect 3 0 6 0;
#X connect 4 0 5 0;
#X connect 4 1 8 0;
#X connect 5 0 1 0;
#X connect 6 0 4 0;
#X connect 6 1 8 0;
#X connect 7 0 2 0;
#X connect 8 0 1 0;
#X restore 208 89 pd get_patch_font_size;
#X obj 271 143 s \$0-font_size;
#X obj 155 22 t b b b;
#X obj 269 118 * 1;
#X obj 131 449 outlet;
#X obj 187 246 route restore;
#X obj 344 269 v \$0-patch_status;
#X obj 122 144 v \$0-next_line;
#X connect 0 0 1 0;
#X connect 0 0 12 0;
#X connect 1 0 0 1;
#X connect 1 0 26 0;
#X connect 2 0 6 1;
#X connect 2 0 0 1;
#X connect 3 0 4 0;
#X connect 4 0 5 0;
#X connect 4 1 24 0;
#X connect 5 0 8 0;
#X connect 6 0 7 0;
#X connect 7 0 6 1;
#X connect 7 0 10 0;
#X connect 8 0 6 0;
#X connect 9 0 6 0;
#X connect 10 0 11 1;
#X connect 11 0 23 0;
#X connect 12 0 3 0;
#X connect 12 1 25 0;
#X connect 13 0 21 0;
#X connect 15 0 21 0;
#X connect 16 0 17 0;
#X connect 17 0 0 0;
#X connect 19 0 22 0;
#X connect 21 0 16 0;
#X connect 21 1 2 0;
#X connect 21 2 19 0;
#X connect 22 0 20 0;
#X connect 24 0 9 0;
#X connect 24 1 11 0;
#X restore 955 128 pd parsing_only_main_patch_level_(not_subpatches)
;
#X obj 957 171 route text obj;
#X obj 1021 234 list split 3;
#X msg 1019 282 \$3 \$1 \$2;
#X obj 1019 312 list append;
#N canvas 0 57 1920 1023 vsl 0;
#X obj 101 40 inlet;
#X text 297 82 #X obj 183 826 vsl 60 128 0 1 0 0 snd-/fx_ring-0/freq
empty empty 0 -9 0 10 -262144 -1 -1 7300 1 \;;
#X text 310 234 #X obj 183 826 vsl 60 128 0 1 0 0 snd-/fx_ring-0/freq
empty empty 0 -9 0 10 -261234 -260097 -1 7300 1 \;;
#X obj 515 527 + 1;
#X obj 156 422 unpack f f f f 0 0 0 0 s s s 0 0 0 0 f f 0 0 0;
#X obj 515 552 * -1;
#X obj 485 647 t f f;
#X obj 515 577 t f f;
#X msg 558 391 -261234;
#X obj 485 768 pack f f f 1;
#X obj 715 527 + 1;
#X obj 715 552 * -1;
#X obj 685 647 t f f;
#X obj 715 577 t f f;
#X obj 685 768 pack f f f 1;
#X obj 485 622 div 64;
#X obj 560 620 mod 64;
#X obj 685 622 div 64;
#X obj 760 620 mod 64;
#X obj 444 685 div 64;
#X obj 514 687 mod 64;
#X obj 644 685 div 64;
#X obj 714 687 mod 64;
#X obj 444 710 / 63;
#X obj 514 712 / 63;
#X obj 596 712 / 63;
#X obj 644 710 / 63;
#X obj 714 712 / 63;
#X obj 796 712 / 63;
#N canvas 524 270 1049 621 export_as_MMPSlider 0;
#X obj 198 376 list fromsymbol;
#X obj 832 517 list append 125;
#X obj 832 495 list prepend add 123;
#X obj 845 559 list trim;
#X obj 845 581 s MMP_BINFILE;
#X obj 911 149 v MMP_FIRST_GUI_ITEM;
#X obj 911 171 select 1;
#X msg 951 424 add 44 123;
#X msg 890 425 add 123;
#X msg 903 214 0;
#X obj 911 239 v MMP_FIRST_GUI_ITEM;
#X floatatom 256 54 5 0 0 0 - - -;
#X floatatom 304 42 5 0 0 0 - - -;
#X floatatom 379 50 5 0 0 0 - - -;
#X floatatom 443 49 5 0 0 0 - - -;
#X symbolatom 548 73 10 0 0 0 - - -;
#X obj 379 28 inlet w;
#X obj 443 27 inlet h;
#X obj 227 14 inlet posx;
#X obj 304 20 inlet posy;
#X obj 548 51 inlet name;
#X obj 651 30 inlet color;
#X obj 651 55 unpack f f f 1;
#X obj 798 46 unpack f f f 1;
#X obj 798 21 inlet highlightcolor;
#X obj 511 9 inlet range;
#X obj 212 248 pack f f f f 1 s f f f f f f f f;
#X obj 214 102 t f b;
#X msg 178 277 symbol "highlightColor":[\$11\\\,\$12\\\,\$13\\\,\$14]\\\,"address":"\$6"\\\,"color":[\$7\\\,\$8\\\,\$9\\\,\$10]\\\,"class":"MMPSlider"\\\,"isHorizontal":false\\\,"frame":[\$1\\\,\$2\\\,\$3\\\,\$4]\\\,"range":\$5
;
#X connect 0 0 2 0;
#X connect 1 0 3 0;
#X connect 2 0 1 0;
#X connect 3 0 4 0;
#X connect 5 0 6 0;
#X connect 6 0 8 0;
#X connect 6 0 9 0;
#X connect 6 1 7 0;
#X connect 7 0 2 1;
#X connect 8 0 2 1;
#X connect 9 0 10 0;
#X connect 16 0 13 0;
#X connect 16 0 26 2;
#X connect 17 0 14 0;
#X connect 17 0 26 3;
#X connect 18 0 11 0;
#X connect 18 0 27 0;
#X connect 19 0 12 0;
#X connect 19 0 26 1;
#X connect 20 0 15 0;
#X connect 20 0 26 5;
#X connect 21 0 22 0;
#X connect 22 0 26 6;
#X connect 22 1 26 7;
#X connect 22 2 26 8;
#X connect 22 3 26 9;
#X connect 23 0 26 10;
#X connect 23 1 26 11;
#X connect 23 2 26 12;
#X connect 23 3 26 13;
#X connect 24 0 23 0;
#X connect 25 0 26 4;
#X connect 26 0 28 0;
#X connect 27 0 26 0;
#X connect 27 1 5 0;
#X connect 28 0 0 0;
#X restore 164 687 pd export_as_MMPSlider;
#X obj 326 583 s \$0-listeners;
#X obj 327 546 pack s s f f f;
#X obj 344 325 r WIDGET-ID;
#X obj 163 121 v WIDGET-ID;
#X obj 163 146 + 1;
#X obj 163 171 s WIDGET-ID;
#X obj 129 85 t l b;
#X msg 240 630 symbol \$2.\$1;
#X obj 239 605 pack s f;
#X connect 0 0 36 0;
#X connect 3 0 5 0;
#X connect 4 0 29 0;
#X connect 4 1 29 1;
#X connect 4 2 29 2;
#X connect 4 3 29 3;
#X connect 4 4 31 3;
#X connect 4 5 31 4;
#X connect 4 8 31 0;
#X connect 4 8 38 0;
#X connect 4 9 31 1;
#X connect 4 15 3 0;
#X connect 4 16 10 0;
#X connect 5 0 7 0;
#X connect 6 0 19 0;
#X connect 6 1 20 0;
#X connect 7 0 15 0;
#X connect 7 1 16 0;
#X connect 8 0 3 0;
#X connect 9 0 29 6;
#X connect 10 0 11 0;
#X connect 11 0 13 0;
#X connect 12 0 21 0;
#X connect 12 1 22 0;
#X connect 13 0 17 0;
#X connect 13 1 18 0;
#X connect 14 0 29 7;
#X connect 15 0 6 0;
#X connect 16 0 25 0;
#X connect 17 0 12 0;
#X connect 18 0 28 0;
#X connect 19 0 23 0;
#X connect 20 0 24 0;
#X connect 21 0 26 0;
#X connect 22 0 27 0;
#X connect 23 0 9 0;
#X connect 24 0 9 1;
#X connect 25 0 9 2;
#X connect 26 0 14 0;
#X connect 27 0 14 1;
#X connect 28 0 14 2;
#X connect 31 0 30 0;
#X connect 32 0 31 2;
#X connect 32 0 38 1;
#X connect 33 0 34 0;
#X connect 34 0 35 0;
#X connect 36 0 4 0;
#X connect 36 1 33 0;
#X connect 37 0 29 5;
#X connect 38 0 37 0;
#X restore 1014 453 pd vsl;
#X obj 1019 337 list trim;
#N canvas 0 57 1920 1023 hsl 0;
#X obj 101 40 inlet;
#X text 297 82 #X obj 183 826 vsl 60 128 0 1 0 0 snd-/fx_ring-0/freq
empty empty 0 -9 0 10 -262144 -1 -1 7300 1 \;;
#X text 310 234 #X obj 183 826 vsl 60 128 0 1 0 0 snd-/fx_ring-0/freq
empty empty 0 -9 0 10 -261234 -260097 -1 7300 1 \;;
#X obj 515 527 + 1;
#X obj 156 422 unpack f f f f 0 0 0 0 s s s 0 0 0 0 f f 0 0 0;
#X obj 515 552 * -1;
#X obj 485 647 t f f;
#X obj 515 577 t f f;
#X msg 558 391 -261234;
#X obj 485 768 pack f f f 1;
#X obj 715 527 + 1;
#X obj 715 552 * -1;
#X obj 685 647 t f f;
#X obj 715 577 t f f;
#X obj 685 768 pack f f f 1;
#X obj 485 622 div 64;
#X obj 560 620 mod 64;
#X obj 685 622 div 64;
#X obj 760 620 mod 64;
#X obj 444 685 div 64;
#X obj 514 687 mod 64;
#X obj 644 685 div 64;
#X obj 714 687 mod 64;
#X obj 444 710 / 63;
#X obj 514 712 / 63;
#X obj 596 712 / 63;
#X obj 644 710 / 63;
#X obj 714 712 / 63;
#X obj 796 712 / 63;
#N canvas 524 270 1049 621 export_as_MMPSlider 0;
#X obj 198 376 list fromsymbol;
#X obj 832 517 list append 125;
#X obj 832 495 list prepend add 123;
#X obj 845 559 list trim;
#X obj 845 581 s MMP_BINFILE;
#X obj 911 149 v MMP_FIRST_GUI_ITEM;
#X obj 911 171 select 1;
#X msg 951 424 add 44 123;
#X msg 890 425 add 123;
#X msg 903 214 0;
#X obj 911 239 v MMP_FIRST_GUI_ITEM;
#X floatatom 256 54 5 0 0 0 - - -;
#X floatatom 304 42 5 0 0 0 - - -;
#X floatatom 379 50 5 0 0 0 - - -;
#X floatatom 443 49 5 0 0 0 - - -;
#X symbolatom 548 73 10 0 0 0 - - -;
#X obj 379 28 inlet w;
#X obj 443 27 inlet h;
#X obj 227 14 inlet posx;
#X obj 304 20 inlet posy;
#X obj 548 51 inlet name;
#X obj 651 30 inlet color;
#X obj 651 55 unpack f f f 1;
#X obj 798 46 unpack f f f 1;
#X obj 798 21 inlet highlightcolor;
#X obj 511 9 inlet range;
#X obj 212 248 pack f f f f 1 s f f f f f f f f;
#X obj 214 102 t f b;
#X msg 178 277 symbol "highlightColor":[\$11\\\,\$12\\\,\$13\\\,\$14]\\\,"address":"\$6"\\\,"color":[\$7\\\,\$8\\\,\$9\\\,\$10]\\\,"class":"MMPSlider"\\\,"isHorizontal":true\\\,"frame":[\$1\\\,\$2\\\,\$3\\\,\$4]\\\,"range":\$5
;
#X connect 0 0 2 0;
#X connect 1 0 3 0;
#X connect 2 0 1 0;
#X connect 3 0 4 0;
#X connect 5 0 6 0;
#X connect 6 0 8 0;
#X connect 6 0 9 0;
#X connect 6 1 7 0;
#X connect 7 0 2 1;
#X connect 8 0 2 1;
#X connect 9 0 10 0;
#X connect 16 0 13 0;
#X connect 16 0 26 2;
#X connect 17 0 14 0;
#X connect 17 0 26 3;
#X connect 18 0 11 0;
#X connect 18 0 27 0;
#X connect 19 0 12 0;
#X connect 19 0 26 1;
#X connect 20 0 15 0;
#X connect 20 0 26 5;
#X connect 21 0 22 0;
#X connect 22 0 26 6;
#X connect 22 1 26 7;
#X connect 22 2 26 8;
#X connect 22 3 26 9;
#X connect 23 0 26 10;
#X connect 23 1 26 11;
#X connect 23 2 26 12;
#X connect 23 3 26 13;
#X connect 24 0 23 0;
#X connect 25 0 26 4;
#X connect 26 0 28 0;
#X connect 27 0 26 0;
#X connect 27 1 5 0;
#X connect 28 0 0 0;
#X restore 167 614 pd export_as_MMPSlider;
#X obj 326 583 s \$0-listeners;
#X obj 327 546 pack s s f f f;
#X obj 344 325 r WIDGET-ID;
#X obj 163 121 v WIDGET-ID;
#X obj 163 146 + 1;
#X obj 163 171 s WIDGET-ID;
#X obj 129 85 t l b;
#X msg 235 552 symbol \$2.\$1;
#X obj 234 527 pack s f;
#X connect 0 0 36 0;
#X connect 3 0 5 0;
#X connect 4 0 29 0;
#X connect 4 1 29 1;
#X connect 4 2 29 2;
#X connect 4 3 29 3;
#X connect 4 4 31 3;
#X connect 4 5 31 4;
#X connect 4 8 31 0;
#X connect 4 8 38 0;
#X connect 4 9 31 1;
#X connect 4 15 3 0;
#X connect 4 16 10 0;
#X connect 5 0 7 0;
#X connect 6 0 19 0;
#X connect 6 1 20 0;
#X connect 7 0 15 0;
#X connect 7 1 16 0;
#X connect 8 0 3 0;
#X connect 9 0 29 6;
#X connect 10 0 11 0;
#X connect 11 0 13 0;
#X connect 12 0 21 0;
#X connect 12 1 22 0;
#X connect 13 0 17 0;
#X connect 13 1 18 0;
#X connect 14 0 29 7;
#X connect 15 0 6 0;
#X connect 16 0 25 0;
#X connect 17 0 12 0;
#X connect 18 0 28 0;
#X connect 19 0 23 0;
#X connect 20 0 24 0;
#X connect 21 0 26 0;
#X connect 22 0 27 0;
#X connect 23 0 9 0;
#X connect 24 0 9 1;
#X connect 25 0 9 2;
#X connect 26 0 14 0;
#X connect 27 0 14 1;
#X connect 28 0 14 2;
#X connect 31 0 30 0;
#X connect 32 0 31 2;
#X connect 32 0 38 1;
#X connect 33 0 34 0;
#X connect 34 0 35 0;
#X connect 36 0 4 0;
#X connect 36 1 33 0;
#X connect 37 0 29 5;
#X connect 38 0 37 0;
#X restore 1060 421 pd hsl;
#N canvas 0 57 1920 1023 vradio 0;
#X obj 101 40 inlet;
#X text 297 82 #X obj 183 826 vsl 60 128 0 1 0 0 snd-/fx_ring-0/freq
empty empty 0 -9 0 10 -262144 -1 -1 7300 1 \;;
#X text 310 234 #X obj 183 826 vsl 60 128 0 1 0 0 snd-/fx_ring-0/freq
empty empty 0 -9 0 10 -261234 -260097 -1 7300 1 \;, f 140;
#X obj 515 527 + 1;
#X obj 515 552 * -1;
#X obj 485 647 t f f;
#X obj 515 577 t f f;
#X obj 485 768 pack f f f 1;
#X obj 715 527 + 1;
#X obj 715 552 * -1;
#X obj 685 647 t f f;
#X obj 715 577 t f f;
#X obj 685 768 pack f f f 1;
#X obj 485 622 div 64;
#X obj 560 620 mod 64;
#X obj 685 622 div 64;
#X obj 760 620 mod 64;
#X obj 444 685 div 64;
#X obj 514 687 mod 64;
#X obj 644 685 div 64;
#X obj 714 687 mod 64;
#X obj 444 710 / 63;
#X obj 514 712 / 63;
#X obj 596 712 / 63;
#X obj 644 710 / 63;
#X obj 714 712 / 63;
#X obj 796 712 / 63;
#X text 256 286 #X obj 100 150 vradio 15 1 0 6 empty empty empty 0
-8 0 10 -262144 -1 -1 0 \;, f 114;
#X obj 216 482 *;
#X obj 156 422 unpack f f f 0 0 f s s s 0 0 0 0 f f 0 0 0;
#N canvas 524 270 1049 621 export_as_MMPSlider 0;
#X obj 198 376 list fromsymbol;
#X obj 832 517 list append 125;
#X obj 832 495 list prepend add 123;
#X obj 845 559 list trim;
#X obj 845 581 s MMP_BINFILE;
#X obj 911 149 v MMP_FIRST_GUI_ITEM;
#X obj 911 171 select 1;
#X msg 951 424 add 44 123;
#X msg 890 425 add 123;
#X msg 903 214 0;
#X obj 911 239 v MMP_FIRST_GUI_ITEM;
#X floatatom 256 54 5 0 0 0 - - -;
#X floatatom 304 42 5 0 0 0 - - -;
#X floatatom 379 50 5 0 0 0 - - -;
#X floatatom 443 49 5 0 0 0 - - -;
#X symbolatom 548 73 10 0 0 0 - - -;
#X obj 379 28 inlet w;
#X obj 443 27 inlet h;
#X obj 227 14 inlet posx;
#X obj 304 20 inlet posy;
#X obj 548 51 inlet name;
#X obj 651 30 inlet color;
#X obj 651 55 unpack f f f 1;
#X obj 798 46 unpack f f f 1;
#X obj 798 21 inlet highlightcolor;
#X obj 511 9 inlet range;
#X obj 212 248 pack f f f f 1 s f f f f f f f f;
#X obj 214 102 t f b;
#X msg 178 277 symbol "highlightColor":[\$11\\\,\$12\\\,\$13\\\,\$14]\\\,"address":"\$6"\\\,"color":[\$7\\\,\$8\\\,\$9\\\,\$10]\\\,"class":"MMPSlider"\\\,"isHorizontal":false\\\,"frame":[\$1\\\,\$2\\\,\$3\\\,\$4]\\\,"range":\$5
;
#X connect 0 0 2 0;
#X connect 1 0 3 0;
#X connect 2 0 1 0;
#X connect 3 0 4 0;
#X connect 5 0 6 0;
#X connect 6 0 8 0;
#X connect 6 0 9 0;
#X connect 6 1 7 0;
#X connect 7 0 2 1;
#X connect 8 0 2 1;
#X connect 9 0 10 0;
#X connect 16 0 13 0;
#X connect 16 0 26 2;
#X connect 17 0 14 0;
#X connect 17 0 26 3;
#X connect 18 0 11 0;
#X connect 18 0 27 0;
#X connect 19 0 12 0;
#X connect 19 0 26 1;
#X connect 20 0 15 0;
#X connect 20 0 26 5;
#X connect 21 0 22 0;
#X connect 22 0 26 6;
#X connect 22 1 26 7;
#X connect 22 2 26 8;
#X connect 22 3 26 9;
#X connect 23 0 26 10;
#X connect 23 1 26 11;
#X connect 23 2 26 12;
#X connect 23 3 26 13;
#X connect 24 0 23 0;
#X connect 25 0 26 4;
#X connect 26 0 28 0;
#X connect 27 0 26 0;
#X connect 27 1 5 0;
#X connect 28 0 0 0;
#X restore 167 614 pd export_as_MMPSlider;
#X obj 977 535 s \$0-listeners;
#X msg 973 476 \$7 \$8;
#X connect 0 0 29 0;
#X connect 0 0 32 0;
#X connect 3 0 4 0;
#X connect 4 0 6 0;
#X connect 5 0 17 0;
#X connect 5 1 18 0;
#X connect 6 0 13 0;
#X connect 6 1 14 0;
#X connect 7 0 30 6;
#X connect 8 0 9 0;
#X connect 9 0 11 0;
#X connect 10 0 19 0;
#X connect 10 1 20 0;
#X connect 11 0 15 0;
#X connect 11 1 16 0;
#X connect 12 0 30 7;
#X connect 13 0 5 0;
#X connect 14 0 23 0;
#X connect 15 0 10 0;
#X connect 16 0 26 0;
#X connect 17 0 21 0;
#X connect 18 0 22 0;
#X connect 19 0 24 0;
#X connect 20 0 25 0;
#X connect 21 0 7 0;
#X connect 22 0 7 1;
#X connect 23 0 7 2;
#X connect 24 0 12 0;
#X connect 25 0 12 1;
#X connect 26 0 12 2;
#X connect 28 0 30 3;
#X connect 29 0 30 0;
#X connect 29 1 30 1;
#X connect 29 2 28 0;
#X connect 29 2 30 2;
#X connect 29 5 28 1;
#X connect 29 5 30 4;
#X connect 29 6 30 5;
#X connect 29 13 3 0;
#X connect 29 14 8 0;
#X connect 32 0 31 0;
#X restore 1101 482 pd vradio;
#X obj 1023 383 route vsl hsl vradio hradio bng cnv tgl;
#N canvas 0 57 1920 1023 hradio 0;
#X obj 101 40 inlet;
#X text 297 82 #X obj 183 826 vsl 60 128 0 1 0 0 snd-/fx_ring-0/freq
empty empty 0 -9 0 10 -262144 -1 -1 7300 1 \;;
#X text 310 234 #X obj 183 826 vsl 60 128 0 1 0 0 snd-/fx_ring-0/freq
empty empty 0 -9 0 10 -261234 -260097 -1 7300 1 \;, f 140;
#X obj 515 527 + 1;
#X obj 515 552 * -1;
#X obj 485 647 t f f;
#X obj 515 577 t f f;
#X msg 558 391 -261234;
#X obj 485 768 pack f f f 1;
#X obj 715 527 + 1;
#X obj 715 552 * -1;
#X obj 685 647 t f f;
#X obj 715 577 t f f;
#X obj 685 768 pack f f f 1;
#X obj 485 622 div 64;
#X obj 560 620 mod 64;
#X obj 685 622 div 64;
#X obj 760 620 mod 64;
#X obj 444 685 div 64;
#X obj 514 687 mod 64;
#X obj 644 685 div 64;
#X obj 714 687 mod 64;
#X obj 444 710 / 63;
#X obj 514 712 / 63;
#X obj 596 712 / 63;
#X obj 644 710 / 63;
#X obj 714 712 / 63;
#X obj 796 712 / 63;
#X text 256 286 #X obj 100 150 vradio 15 1 0 6 empty empty empty 0
-8 0 10 -262144 -1 -1 0 \;, f 114;
#X obj 218 479 *;
#X obj 156 422 unpack f f f 0 0 f s s s 0 0 0 0 f f 0 0 0;
#N canvas 524 270 1049 621 export_as_MMPSlider 0;
#X obj 198 376 list fromsymbol;
#X obj 832 517 list append 125;
#X obj 832 495 list prepend add 123;
#X obj 845 559 list trim;
#X obj 845 581 s MMP_BINFILE;
#X obj 911 149 v MMP_FIRST_GUI_ITEM;
#X obj 911 171 select 1;
#X msg 951 424 add 44 123;
#X msg 890 425 add 123;
#X msg 903 214 0;
#X obj 911 239 v MMP_FIRST_GUI_ITEM;
#X floatatom 256 54 5 0 0 0 - - -;
#X floatatom 304 42 5 0 0 0 - - -;
#X floatatom 379 50 5 0 0 0 - - -;
#X floatatom 443 49 5 0 0 0 - - -;
#X symbolatom 548 73 10 0 0 0 - - -;
#X obj 379 28 inlet w;
#X obj 443 27 inlet h;
#X obj 227 14 inlet posx;
#X obj 304 20 inlet posy;
#X obj 548 51 inlet name;
#X obj 651 30 inlet color;
#X obj 651 55 unpack f f f 1;
#X obj 798 46 unpack f f f 1;
#X obj 798 21 inlet highlightcolor;
#X obj 511 9 inlet range;
#X obj 212 248 pack f f f f 1 s f f f f f f f f;
#X obj 214 102 t f b;
#X msg 178 277 symbol "highlightColor":[\$11\\\,\$12\\\,\$13\\\,\$14]\\\,"address":"\$6"\\\,"color":[\$7\\\,\$8\\\,\$9\\\,\$10]\\\,"class":"MMPSlider"\\\,"isHorizontal":true\\\,"frame":[\$1\\\,\$2\\\,\$3\\\,\$4]\\\,"range":\$5
;
#X connect 0 0 2 0;
#X connect 1 0 3 0;
#X connect 2 0 1 0;
#X connect 3 0 4 0;
#X connect 5 0 6 0;
#X connect 6 0 8 0;
#X connect 6 0 9 0;
#X connect 6 1 7 0;
#X connect 7 0 2 1;
#X connect 8 0 2 1;
#X connect 9 0 10 0;
#X connect 16 0 13 0;
#X connect 16 0 26 2;
#X connect 17 0 14 0;
#X connect 17 0 26 3;
#X connect 18 0 11 0;
#X connect 18 0 27 0;
#X connect 19 0 12 0;
#X connect 19 0 26 1;
#X connect 20 0 15 0;
#X connect 20 0 26 5;
#X connect 21 0 22 0;
#X connect 22 0 26 6;
#X connect 22 1 26 7;
#X connect 22 2 26 8;
#X connect 22 3 26 9;
#X connect 23 0 26 10;
#X connect 23 1 26 11;
#X connect 23 2 26 12;
#X connect 23 3 26 13;
#X connect 24 0 23 0;
#X connect 25 0 26 4;
#X connect 26 0 28 0;
#X connect 27 0 26 0;
#X connect 27 1 5 0;
#X connect 28 0 0 0;
#X restore 167 614 pd export_as_MMPSlider;
#X obj 977 535 s \$0-listeners;
#X msg 973 476 \$7 \$8;
#X connect 0 0 30 0;
#X connect 0 0 33 0;
#X connect 3 0 4 0;
#X connect 4 0 6 0;
#X connect 5 0 18 0;
#X connect 5 1 19 0;
#X connect 6 0 14 0;
#X connect 6 1 15 0;
#X connect 7 0 3 0;
#X connect 8 0 31 6;
#X connect 9 0 10 0;
#X connect 10 0 12 0;
#X connect 11 0 20 0;
#X connect 11 1 21 0;
#X connect 12 0 16 0;
#X connect 12 1 17 0;
#X connect 13 0 31 7;
#X connect 14 0 5 0;
#X connect 15 0 24 0;
#X connect 16 0 11 0;
#X connect 17 0 27 0;
#X connect 18 0 22 0;
#X connect 19 0 23 0;
#X connect 20 0 25 0;
#X connect 21 0 26 0;
#X connect 22 0 8 0;
#X connect 23 0 8 1;
#X connect 24 0 8 2;
#X connect 25 0 13 0;
#X connect 26 0 13 1;
#X connect 27 0 13 2;
#X connect 29 0 31 2;
#X connect 30 0 31 0;
#X connect 30 1 31 1;
#X connect 30 2 31 3;
#X connect 30 2 29 0;
#X connect 30 5 29 1;
#X connect 30 5 31 4;
#X connect 30 6 31 5;
#X connect 30 13 3 0;
#X connect 30 14 9 0;
#X connect 33 0 32 0;
#X restore 1134 523 pd hradio;
#N canvas 0 57 1920 1023 bng 0;
#X obj 101 40 inlet;
#X text 297 82 #X obj 183 826 vsl 60 128 0 1 0 0 snd-/fx_ring-0/freq
empty empty 0 -9 0 10 -262144 -1 -1 7300 1 \;;
#X text 310 234 #X obj 183 826 vsl 60 128 0 1 0 0 snd-/fx_ring-0/freq
empty empty 0 -9 0 10 -261234 -260097 -1 7300 1 \;;
#X obj 515 527 + 1;
#X obj 515 552 * -1;
#X obj 485 647 t f f;
#X obj 515 577 t f f;
#X msg 558 391 -261234;
#X obj 485 768 pack f f f 1;
#X obj 715 527 + 1;
#X obj 715 552 * -1;
#X obj 685 647 t f f;
#X obj 715 577 t f f;
#X obj 685 768 pack f f f 1;
#X obj 485 622 div 64;
#X obj 560 620 mod 64;
#X obj 685 622 div 64;
#X obj 760 620 mod 64;
#X obj 444 685 div 64;
#X obj 514 687 mod 64;
#X obj 644 685 div 64;
#X obj 714 687 mod 64;
#X obj 444 710 / 63;
#X obj 514 712 / 63;
#X obj 596 712 / 63;
#X obj 644 710 / 63;
#X obj 714 712 / 63;
#X obj 796 712 / 63;
#X text 303 292 #X obj 350 100 bng 50 250 50 0 empty empty empty 17
7 0 10 -262144 -1 -1 \;, f 76;
#N canvas 0 57 1920 1023 export_as_MMPButton 0;
#X obj 162 428 list fromsymbol;
#X obj 832 517 list append 125;
#X obj 832 495 list prepend add 123;
#X obj 845 559 list trim;
#X obj 845 581 s MMP_BINFILE;
#X obj 911 149 v MMP_FIRST_GUI_ITEM;
#X obj 911 171 select 1;
#X msg 951 424 add 44 123;
#X msg 890 425 add 123;
#X msg 903 214 0;
#X obj 911 239 v MMP_FIRST_GUI_ITEM;
#X floatatom 256 54 5 0 0 0 - - -;
#X floatatom 304 42 5 0 0 0 - - -;
#X floatatom 379 50 5 0 0 0 - - -;
#X floatatom 443 49 5 0 0 0 - - -;
#X symbolatom 548 73 10 0 0 0 - - -;
#X obj 379 28 inlet w;
#X obj 443 27 inlet h;
#X obj 227 14 inlet posx;
#X obj 304 20 inlet posy;
#X obj 548 51 inlet name;
#X obj 651 30 inlet color;
#X obj 651 55 unpack f f f 1;
#X obj 798 46 unpack f f f 1;
#X obj 798 21 inlet highlightcolor;
#X obj 511 9 inlet range;
#X obj 187 197 pack f f f f 1 s f f f f f f f f;
#X obj 214 102 t f b;
#X msg 212 269 symbol "highlightColor":[\$11\\\,\$12\\\,\$13\\\,\$14]\\\,"address":"\$6"\\\,"color":[\$7\\\,\$8\\\,\$9\\\,\$10]\\\,"class":"MMPButton"\\\,"frame":[\$1\\\,\$2\\\,\$3\\\,\$4]
;
#X connect 0 0 2 0;
#X connect 1 0 3 0;
#X connect 2 0 1 0;
#X connect 3 0 4 0;
#X connect 5 0 6 0;
#X connect 6 0 8 0;
#X connect 6 0 9 0;
#X connect 6 1 7 0;
#X connect 7 0 2 1;
#X connect 8 0 2 1;
#X connect 9 0 10 0;
#X connect 16 0 13 0;
#X connect 16 0 26 2;
#X connect 17 0 14 0;
#X connect 17 0 26 3;
#X connect 18 0 11 0;
#X connect 18 0 27 0;
#X connect 19 0 12 0;
#X connect 19 0 26 1;
#X connect 20 0 15 0;
#X connect 20 0 26 5;
#X connect 21 0 22 0;
#X connect 22 0 26 6;
#X connect 22 1 26 7;
#X connect 22 2 26 8;
#X connect 22 3 26 9;
#X connect 23 0 26 10;
#X connect 23 1 26 11;
#X connect 23 2 26 12;
#X connect 23 3 26 13;
#X connect 24 0 23 0;
#X connect 25 0 26 4;
#X connect 26 0 28 0;
#X connect 27 0 26 0;
#X connect 27 1 5 0;
#X connect 28 0 0 0;
#X restore 164 687 pd export_as_MMPButton;
#X obj 156 423 unpack f f f 0 0 0 s s s 0 0 0 0 f f 0;
#X obj 977 535 s \$0-listeners;
#X msg 973 476 \$7 \$8;
#X connect 0 0 30 0;
#X connect 0 0 32 0;
#X connect 3 0 4 0;
#X connect 4 0 6 0;
#X connect 5 0 18 0;
#X connect 5 1 19 0;
#X connect 6 0 14 0;
#X connect 6 1 15 0;
#X connect 7 0 3 0;
#X connect 8 0 29 6;
#X connect 9 0 10 0;
#X connect 10 0 12 0;
#X connect 11 0 20 0;
#X connect 11 1 21 0;
#X connect 12 0 16 0;
#X connect 12 1 17 0;
#X connect 13 0 29 7;
#X connect 14 0 5 0;
#X connect 15 0 24 0;
#X connect 16 0 11 0;
#X connect 17 0 27 0;
#X connect 18 0 22 0;
#X connect 19 0 23 0;
#X connect 20 0 25 0;
#X connect 21 0 26 0;
#X connect 22 0 8 0;
#X connect 23 0 8 1;
#X connect 24 0 8 2;
#X connect 25 0 13 0;
#X connect 26 0 13 1;
#X connect 27 0 13 2;
#X connect 30 0 29 0;
#X connect 30 1 29 1;
#X connect 30 2 29 2;
#X connect 30 2 29 3;
#X connect 30 6 29 5;
#X connect 30 13 3 0;
#X connect 30 14 9 0;
#X connect 32 0 31 0;
#X restore 1160 444 pd bng;
#N canvas 0 50 450 300 data_structures 0;
#X obj 40 57 struct bckgrnd float x float y float width float height
float color;
#X obj 9 137 tgl 15 0 empty empty empty 17 7 0 10 -262144 -1 -1 0 1
;
#X obj 12 97 tgl 15 0 empty empty empty 17 7 0 10 -262144 -1 -1 0 1
;
#X obj 36 195 filledpolygon -x color 0 5 0 0 0 height width height
width 0 0 0;
#X obj 42 123 drawpolygon -x 888 3 0 0 0 height width height width
0 0 0;
#X connect 1 0 3 0;
#X connect 2 0 4 0;
#X restore 706 195 pd data_structures;
#N canvas 297 81 1059 764 drawing_border_in_parent_patch 0;
#X obj 117 59 r \$0-pdFile-rcv;
#X obj 162 197 pointer bckgrnd;
#X msg 110 146 traverse pd-\$1 \, next;
#X msg 141 319 delete, f 8;
#X obj 92 276 t b b;
#X obj 337 277 r \$0-pdFile-rcv;
#X obj 314 312 symbol;
#X obj 238 236 delay 10;
#X msg 277 347 traverse pd-\$1 \, bang;
#X obj 734 646 append bckgrnd x y width height color;
#X obj 332 222 bng 15 250 50 0 empty empty empty 17 7 0 10 -262144
-1 -1;
#X symbolatom 424 316 10 0 0 0 - - -;
#X obj 327 386 pointer;
#X obj 117 84 symbol;
#X obj 169 659 s;
#X msg 208 627 symbol pd-\$1;
#X obj 423 602 f;
#X obj 464 607 +;
#X obj 330 594 f;
#X obj 371 599 +;
#X obj 503 501 r \$0-xoffset;
#X obj 498 542 r \$0-yoffset;
#X obj 789 519 r \$0-width;
#X obj 818 488 r \$0-height;
#X obj 784 20 r \$0-R;
#X obj 846 20 r \$0-G;
#X obj 913 20 r \$0-B;
#X obj 784 45 / 255;
#X obj 846 45 / 255;
#X obj 913 45 / 255;
#X obj 785 262 +;
#X obj 798 232 t b f;
#X obj 845 274 +;
#X obj 858 244 t b f;
#X obj 333 561 t b b;
#X obj 347 458 v \$0-pageCount;
#X obj 355 530 until;
#X obj 330 645 pack f f;
#X floatatom 805 325 5 0 0 0 - - -;
#X obj 788 165 int;
#X obj 850 165 int;
#X obj 917 165 int;
#X obj 762 195 * 100;
#X obj 851 196 * 10;
#X obj 70 54 inlet;
#X obj 38 152 delay 5;
#X msg 395 556 0;
#X obj 346 424 t b b b p;
#X obj 184 561 delay 100;
#X obj 361 486 max 1;
#X msg 328 90 next;
#X obj 343 123 t b;
#X obj 343 148 delay 5;
#X obj 784 70 * 9;
#X obj 866 73 * 9;
#X obj 936 73 * 9;
#X obj 797 110 + 0.5;
#X obj 858 119 + 0.5;
#X obj 936 120 + 0.5;
#X msg 51 593 map 0 \, map 1;
#X msg 184 586 map 0 \, map 1;
#X obj 459 172 select 0.48;
#X obj 459 149 v pd_version;
#X obj 162 222 t b;
#X connect 0 0 13 0;
#X connect 1 0 63 0;
#X connect 1 1 51 0;
#X connect 1 2 7 0;
#X connect 2 0 1 0;
#X connect 3 0 1 0;
#X connect 4 0 45 0;
#X connect 4 1 3 0;
#X connect 5 0 6 1;
#X connect 5 0 15 0;
#X connect 6 0 8 0;
#X connect 6 0 11 0;
#X connect 7 0 6 0;
#X connect 8 0 12 0;
#X connect 10 0 6 0;
#X connect 12 0 47 0;
#X connect 13 0 2 0;
#X connect 15 0 14 1;
#X connect 16 0 17 0;
#X connect 16 0 37 1;
#X connect 17 0 16 1;
#X connect 18 0 19 0;
#X connect 18 0 37 0;
#X connect 19 0 18 1;
#X connect 20 0 19 1;
#X connect 21 0 17 1;
#X connect 22 0 9 2;
#X connect 23 0 9 3;
#X connect 24 0 27 0;
#X connect 25 0 28 0;
#X connect 26 0 29 0;
#X connect 27 0 53 0;
#X connect 28 0 54 0;
#X connect 29 0 55 0;
#X connect 30 0 32 0;
#X connect 31 0 30 0;
#X connect 31 1 30 1;
#X connect 32 0 9 4;
#X connect 32 0 38 0;
#X connect 33 0 32 0;
#X connect 33 1 32 1;
#X connect 34 0 18 0;
#X connect 34 1 16 0;
#X connect 35 0 49 0;
#X connect 36 0 34 0;
#X connect 37 0 9 0;
#X connect 39 0 42 0;
#X connect 40 0 43 0;
#X connect 41 0 33 0;
#X connect 42 0 30 0;
#X connect 43 0 31 0;
#X connect 44 0 13 0;
#X connect 45 0 13 0;
#X connect 46 0 18 1;
#X connect 46 0 16 1;
#X connect 47 0 48 0;
#X connect 47 1 35 0;
#X connect 47 2 46 0;
#X connect 47 3 9 5;
#X connect 48 0 60 0;
#X connect 49 0 36 0;
#X connect 50 0 1 0;
#X connect 51 0 52 0;
#X connect 52 0 50 0;
#X connect 53 0 56 0;
#X connect 54 0 57 0;
#X connect 55 0 58 0;
#X connect 56 0 39 0;
#X connect 57 0 40 0;
#X connect 58 0 41 0;
#X connect 59 0 14 0;
#X connect 60 0 14 0;
#X connect 61 1 4 0;
#X connect 62 0 61 0;
#X connect 63 0 62 0;
#X restore 621 360 pd drawing_border_in_parent_patch;
#X obj 932 625 r \$0-mode;
#X obj 947 710 text get \$0-resolutions;
#X obj 944 903 s \$0-canvasType;
#X obj 935 743 unpack s s f f f f f;
#X obj 968 873 s \$0-isOrientationLandscape;
#X obj 1063 793 s \$0-xoffset;
#X obj 1074 770 s \$0-yoffset;
#X obj 989 849 s \$0-width;
#X obj 1018 818 s \$0-height;
#X obj 236 142 bng 30 250 50 0 empty empty refresh 17 7 0 10 -4034
-1 -1;
#X text 117 164 960 x 600;
#X obj 959 667 f;
#X obj 1026 626 loadbang;
#X obj 616 237 r \$0-done;
#X obj 530 270 s \$0-listeners;
#X msg 529 237 clear;
#X obj 58 256 t b b b b b b b b, f 42;
#N canvas 498 67 598 860 looking_for_pd-mod_listeners_subpatch 0;
#X obj 130 156 f;
#X obj 171 160 + 1;
#X msg 238 95 0;
#X obj 136 217 list trim;
#X obj 143 254 route #N #X;
#X obj 93 295 route canvas;
#X obj 221 350 +;
#X obj 210 379 f;
#X msg 148 358 1;
#X msg 219 322 -1;
#X obj 181 464 spigot;
#X obj 130 193 text get \$0-patch;
#X obj 44 5 inlet;
#X obj 81 123 text size \$0-patch;
#X obj 81 148 until;
#X obj 56 39 t b b b;
#X obj 237 286 route restore;
#X obj 214 413 == 2;
#X obj 95 326 t l b;
#X obj 181 510 list split 4;
#X obj 220 555 list trim;
#X obj 220 580 route mob-listeners;
#X obj 69 728 f;
#X msg 220 605 1;
#X msg 113 805 obj 10 10 pd mob-listeners;
#X obj 72 869 sendcanvas 2;
#X obj 69 753 select 0;
#X obj 39 796 delay 10;
#X msg 39 821 \; pd-mob-listeners vis 0;
#X connect 0 0 1 0;
#X connect 0 0 11 0;
#X connect 1 0 0 1;
#X connect 2 0 6 1;
#X connect 2 0 0 1;
#X connect 2 0 22 1;
#X connect 3 0 4 0;
#X connect 4 0 5 0;
#X connect 4 1 16 0;
#X connect 5 0 18 0;
#X connect 6 0 7 0;
#X connect 7 0 6 1;
#X connect 7 0 17 0;
#X connect 8 0 6 0;
#X connect 9 0 6 0;
#X connect 10 0 19 0;
#X connect 11 0 3 0;
#X connect 12 0 15 0;
#X connect 13 0 14 0;
#X connect 14 0 0 0;
#X connect 15 0 22 0;
#X connect 15 1 13 0;
#X connect 15 2 2 0;
#X connect 16 0 9 0;
#X connect 17 0 10 1;
#X connect 18 0 10 0;
#X connect 18 1 8 0;
#X connect 19 1 20 0;
#X connect 20 0 21 0;
#X connect 21 0 23 0;
#X connect 22 0 26 0;
#X connect 23 0 22 1;
#X connect 24 0 25 0;
#X connect 26 0 24 0;
#X connect 26 0 27 0;
#X connect 27 0 28 0;
#X restore 419 415 pd looking_for_pd-mod_listeners_subpatch;
#X obj 32 177 sendcanvas 1;
#X msg 36 144 menusave;
#X obj 668 309 s WIDGET-ID;
#X msg 666 279 0;
#N canvas 0 50 752 664 dynamic_patching 0;
#X obj 367 570 s pd-mob-listeners;
#X obj 121 37 r \$0-listeners;
#X obj 121 62 route clear;
#X msg 345 360 clear;
#X obj 421 226 f;
#X obj 425 269 list prepend obj 20;
#X obj 425 294 list append mob/listener;
#X obj 425 319 list append;
#X obj 425 344 list trim;
#X obj 406 174 t b a;
#X obj 483 229 + 30;
#X obj 553 182 delay 10;
#X msg 553 207 loadbang;
#X obj 145 240 r \$0-pdFile;
#X obj 122 456 symbol;
#X obj 154 275 list fromsymbol;
#X obj 154 300 t l l;
#X obj 193 325 list length;
#X obj 152 391 list split;
#X obj 152 416 list tosymbol;
#X obj 193 350 - 3;
#X text 215 369 remove .pd extension;
#X obj 121 87 t b b b;
#X msg 357 253 30;
#X obj 121 163 delay 10;
#X msg 130 499 obj 20 0 mob/loader \$1;
#X connect 1 0 2 0;
#X connect 2 0 22 0;
#X connect 2 1 9 0;
#X connect 3 0 0 0;
#X connect 4 0 5 0;
#X connect 4 0 10 0;
#X connect 5 0 6 0;
#X connect 6 0 7 0;
#X connect 7 0 8 0;
#X connect 8 0 0 0;
#X connect 9 0 4 0;
#X connect 9 0 11 0;
#X connect 9 1 7 1;
#X connect 10 0 4 1;
#X connect 11 0 12 0;
#X connect 12 0 0 0;
#X connect 13 0 15 0;
#X connect 14 0 25 0;
#X connect 15 0 16 0;
#X connect 16 0 18 0;
#X connect 16 1 17 0;
#X connect 17 0 20 0;
#X connect 18 0 19 0;
#X connect 19 0 14 1;
#X connect 20 0 18 1;
#X connect 22 0 24 0;
#X connect 22 1 3 0;
#X connect 22 2 23 0;
#X connect 23 0 4 1;
#X connect 24 0 14 0;
#X connect 25 0 0 0;
#X restore 1232 55 pd dynamic_patching;
#X obj 24 99 t b b;
#X obj 17 218 delay 10;
#X connect 1 0 91 0;
#X connect 5 0 4 0;
#X connect 6 0 5 0;
#X connect 7 0 5 0;
#X connect 8 0 7 0;
#X connect 9 0 6 0;
#X connect 14 0 50 0;
#X connect 16 0 17 0;
#X connect 17 0 22 0;
#X connect 18 0 91 0;
#X connect 21 0 20 0;
#X connect 22 0 15 0;
#X connect 23 0 30 0;
#X connect 24 0 23 0;
#X connect 25 0 15 0;
#X connect 26 0 25 0;
#X connect 27 0 26 0;
#X connect 29 0 28 0;
#X connect 30 0 26 0;
#X connect 30 1 22 0;
#X connect 31 0 38 0;
#X connect 32 0 54 0;
#X connect 38 0 43 0;
#X connect 39 0 41 0;
#X connect 41 0 42 0;
#X connect 42 0 16 0;
#X connect 43 0 44 0;
#X connect 44 0 24 0;
#X connect 52 0 40 0;
#X connect 54 0 55 0;
#X connect 55 0 53 0;
#X connect 55 1 56 0;
#X connect 56 0 57 0;
#X connect 56 1 58 1;
#X connect 57 0 58 0;
#X connect 58 0 60 0;
#X connect 60 0 63 0;
#X connect 63 0 59 0;
#X connect 63 1 61 0;
#X connect 63 2 62 0;
#X connect 63 3 64 0;
#X connect 63 4 65 0;
#X connect 68 0 79 0;
#X connect 69 0 71 0;
#X connect 71 1 70 0;
#X connect 71 2 72 0;
#X connect 71 3 75 0;
#X connect 71 4 76 0;
#X connect 71 5 73 0;
#X connect 71 6 74 0;
#X connect 77 0 67 0;
#X connect 79 0 69 0;
#X connect 80 0 79 0;
#X connect 81 0 67 0;
#X connect 83 0 82 0;
#X connect 84 0 31 0;
#X connect 84 1 19 0;
#X connect 84 2 21 0;
#X connect 84 3 39 0;
#X connect 84 4 14 0;
#X connect 84 5 85 0;
#X connect 84 6 40 0;
#X connect 84 7 83 0;
#X connect 84 7 89 0;
#X connect 87 0 86 0;
#X connect 89 0 88 0;
#X connect 91 0 92 0;
#X connect 91 1 87 0;
#X connect 92 0 84 0;
#X coords 0 -1 1 1 300 140 1 100 100;
