#N canvas 0 57 1920 1023 12;
#X obj 98 64 inlet;
#X obj 208 426 unpack f f;
#X obj 93 449 -;
#X obj 160 455 -;
#X obj 93 524 - 100;
#X obj 160 530 - 100;
#X obj 93 549 abs;
#X obj 160 555 abs;
#X obj 93 574 < 100;
#X obj 160 580 < 100;
#X obj 93 599 &&;
#X obj 96 631 select 1;
#X obj 100 697 pack f f;
#X obj 96 656 f \$0;
#X obj 140 748 tabwrite MULTITOUCH.SLOT.STATUS;
#X obj 103 773 list append;
#X msg 400 849 add \$1 \$2;
#X obj 369 931 outlet;
#X obj 98 218 spigot 1;
#X msg 249 665 0;
#X msg 157 163 1;
#X obj 394 68 r \$0-channel;
#X obj 394 93 route remove update;
#X msg 374 872 update \$1 \$2;
#X obj 162 296 tabread MULTITOUCH.SLOT.STATUS;
#X obj 88 243 list split 2;
#X obj 59 367 spigot;
#X obj 92 424 unpack f f;
#X obj 101 335 == 0;
#X text 191 318 check if slot still free;
#X obj 519 566 f;
#X obj 131 267 t f f f;
#X msg 522 619 \; slot.\$1 set_mode 1;
#X msg 516 664 \; slot.\$1 set_mode 2;
#X msg 426 707 \$2;
#X text 547 544 change slot mode;
#X obj 252 490 / 2;
#X obj 320 512 / 2;
#X obj 316 433 r \$2-w;
#X obj 384 455 r \$2-h;
#X obj 208 402 r \$2-pos;
#X obj 506 273 unpack f f;
#X obj 625 215 unpack f f;
#X obj 625 191 r \$2-pos;
#X obj 506 298 -;
#X obj 566 303 -;
#X obj 535 327 r \$2-w;
#X obj 602 326 r \$2-h;
#X obj 508 357 /;
#X obj 563 361 /;
#X obj 508 442 pack f f;
#X obj 560 386 * -1;
#X obj 560 414 + 1;
#X obj 470 908 v \$2-slot_listener.status.0;
#X obj 483 835 list prepend \$1;
#X obj 483 860 route 0;
#X obj 118 719 t b l b l b;
#X msg 446 760 1;
#X msg 490 760 0;
#X text 542 787 signal slot-0 status;
#X obj 326 602 pack f f;
#X obj 54 478 t f f;
#X obj 382 132 t b b b b;
#X msg 346 900 remove \$1 \$2;
#X obj 240 808 list append 0 0;
#X obj 525 128 t a a;
#X obj 554 156 list length;
#X obj 554 181 - 1;
#X obj 518 212 list split;
#X obj 518 237 list trim;
#N canvas 0 50 450 300 mapping 0;
#X obj 107 49 inlet;
#X obj 131 301 outlet;
#X obj 135 269 pack f f;
#X obj 321 128 -;
#X obj 129 202 +;
#X obj 328 72 t b f f;
#X obj 214 216 +;
#X obj 271 2 r \$2-max;
#X obj 328 43 r \$2-min;
#X obj 106 80 unpack f f;
#X obj 110 106 min 1;
#X obj 114 136 max 0;
#X obj 183 113 min 1;
#X obj 197 143 max 0;
#X obj 120 167 * 1;
#X obj 211 174 * 1;
#X connect 0 0 9 0;
#X connect 2 0 1 0;
#X connect 3 0 14 1;
#X connect 3 0 15 1;
#X connect 4 0 2 0;
#X connect 5 0 3 0;
#X connect 5 1 4 1;
#X connect 5 1 6 1;
#X connect 5 2 3 1;
#X connect 6 0 2 1;
#X connect 7 0 3 0;
#X connect 8 0 5 0;
#X connect 9 0 10 0;
#X connect 9 1 12 0;
#X connect 10 0 11 0;
#X connect 11 0 14 0;
#X connect 12 0 13 0;
#X connect 13 0 15 0;
#X connect 14 0 4 0;
#X connect 15 0 6 0;
#X restore 19 828 pd mapping;
#X obj 39 930 outlet;
#X msg 27 856 add \$1 \$2;
#X msg 96 876 update \$1 \$2;
#X msg 106 899 remove \$1 \$2;
#X obj 90 803 t l l;
#X obj 368 817 t l l;
#X obj 293 854 t l l;
#N canvas 0 50 450 300 mapping 0;
#X obj 107 49 inlet;
#X obj 131 301 outlet;
#X obj 135 269 pack f f;
#X obj 321 128 -;
#X obj 129 202 +;
#X obj 328 72 t b f f;
#X obj 214 216 +;
#X obj 271 2 r \$2-max;
#X obj 328 43 r \$2-min;
#X obj 106 80 unpack f f;
#X obj 110 106 min 1;
#X obj 114 136 max 0;
#X obj 183 113 min 1;
#X obj 197 143 max 0;
#X obj 120 167 * 1;
#X obj 211 174 * 1;
#X connect 0 0 9 0;
#X connect 2 0 1 0;
#X connect 3 0 14 1;
#X connect 3 0 15 1;
#X connect 4 0 2 0;
#X connect 5 0 3 0;
#X connect 5 1 4 1;
#X connect 5 1 6 1;
#X connect 5 2 3 1;
#X connect 6 0 2 1;
#X connect 7 0 3 0;
#X connect 8 0 5 0;
#X connect 9 0 10 0;
#X connect 9 1 12 0;
#X connect 10 0 11 0;
#X connect 11 0 14 0;
#X connect 12 0 13 0;
#X connect 13 0 15 0;
#X connect 14 0 4 0;
#X connect 15 0 6 0;
#X restore 191 845 pd mapping;
#N canvas 0 50 450 300 mapping 0;
#X obj 107 49 inlet;
#X obj 131 301 outlet;
#X obj 135 269 pack f f;
#X obj 120 167 *;
#X obj 321 128 -;
#X obj 129 202 +;
#X obj 328 72 t b f f;
#X obj 211 174 *;
#X obj 214 216 +;
#X obj 271 2 r \$2-max;
#X obj 328 43 r \$2-min;
#X obj 106 80 unpack f f;
#X obj 110 106 min 1;
#X obj 114 136 max 0;
#X obj 183 113 min 1;
#X obj 197 143 max 0;
#X connect 0 0 11 0;
#X connect 2 0 1 0;
#X connect 3 0 5 0;
#X connect 4 0 3 1;
#X connect 4 0 7 1;
#X connect 5 0 2 0;
#X connect 6 0 4 0;
#X connect 6 1 5 1;
#X connect 6 1 8 1;
#X connect 6 2 4 1;
#X connect 7 0 8 0;
#X connect 8 0 2 1;
#X connect 9 0 4 0;
#X connect 10 0 6 0;
#X connect 11 0 12 0;
#X connect 11 1 14 0;
#X connect 12 0 13 0;
#X connect 13 0 3 0;
#X connect 14 0 15 0;
#X connect 15 0 7 0;
#X restore 226 889 pd mapping;
#X obj 297 571 /;
#X obj 378 564 /;
#X connect 0 0 18 0;
#X connect 1 0 2 1;
#X connect 1 1 3 1;
#X connect 2 0 61 0;
#X connect 3 0 5 0;
#X connect 3 0 81 0;
#X connect 4 0 6 0;
#X connect 5 0 7 0;
#X connect 6 0 8 0;
#X connect 7 0 9 0;
#X connect 8 0 10 0;
#X connect 9 0 10 1;
#X connect 10 0 11 0;
#X connect 11 0 13 0;
#X connect 12 0 56 0;
#X connect 13 0 12 0;
#X connect 15 0 75 0;
#X connect 16 0 17 0;
#X connect 18 0 25 0;
#X connect 19 0 18 1;
#X connect 20 0 18 1;
#X connect 21 0 22 0;
#X connect 22 0 62 0;
#X connect 22 1 41 0;
#X connect 22 2 65 0;
#X connect 23 0 17 0;
#X connect 24 0 28 0;
#X connect 25 0 26 0;
#X connect 25 1 31 0;
#X connect 26 0 27 0;
#X connect 27 0 2 0;
#X connect 27 1 3 0;
#X connect 28 0 26 1;
#X connect 30 0 32 0;
#X connect 31 0 12 1;
#X connect 31 1 24 0;
#X connect 31 2 30 1;
#X connect 34 0 33 0;
#X connect 36 0 4 1;
#X connect 36 0 8 1;
#X connect 37 0 5 1;
#X connect 37 0 9 1;
#X connect 38 0 36 0;
#X connect 38 0 80 1;
#X connect 39 0 37 0;
#X connect 39 0 81 1;
#X connect 40 0 1 0;
#X connect 41 0 44 0;
#X connect 41 1 45 0;
#X connect 42 0 44 1;
#X connect 42 1 45 1;
#X connect 43 0 42 0;
#X connect 44 0 48 0;
#X connect 45 0 49 0;
#X connect 46 0 48 1;
#X connect 47 0 49 1;
#X connect 48 0 50 0;
#X connect 49 0 51 0;
#X connect 50 0 64 1;
#X connect 50 0 76 0;
#X connect 51 0 52 0;
#X connect 52 0 50 1;
#X connect 54 0 55 0;
#X connect 55 0 53 0;
#X connect 56 0 15 0;
#X connect 56 1 14 0;
#X connect 56 2 19 0;
#X connect 56 3 34 0;
#X connect 56 4 57 0;
#X connect 57 0 54 0;
#X connect 58 0 54 0;
#X connect 60 0 15 1;
#X connect 60 0 64 1;
#X connect 61 0 4 0;
#X connect 61 1 80 0;
#X connect 62 0 20 0;
#X connect 62 1 64 0;
#X connect 62 2 58 0;
#X connect 62 3 30 0;
#X connect 63 0 17 0;
#X connect 64 0 77 0;
#X connect 65 0 68 0;
#X connect 65 1 66 0;
#X connect 66 0 67 0;
#X connect 67 0 68 1;
#X connect 68 0 69 0;
#X connect 69 0 71 0;
#X connect 70 0 72 0;
#X connect 72 0 71 0;
#X connect 73 0 71 0;
#X connect 74 0 71 0;
#X connect 75 0 70 0;
#X connect 75 1 16 0;
#X connect 76 0 78 0;
#X connect 76 1 23 0;
#X connect 77 0 79 0;
#X connect 77 1 63 0;
#X connect 78 0 73 0;
#X connect 79 0 74 0;
#X connect 80 0 60 0;
#X connect 81 0 60 1;
#X coords 0 1023 1 1022 85 60 0;
