#N canvas 0 57 1920 1023 12;
#X obj 126 171 outlet;
#X obj 133 24 inlet;
#N canvas 189 449 450 300 \$0-dynamic_patch 0;
#X obj 0 0 r 1015-inlet;
#X obj 0 40 v 0;
#X obj 0 80 s 1015-outlet;
#X connect 0 0 1 0;
#X connect 1 0 2 0;
#X restore 126 83 pd \$0-dynamic_patch;
#X obj 291 326 s pd-\$0-dynamic_patch;
#X obj 292 229 list append \$0;
#X msg 293 282 clear \, obj 0 0 r \$2-inlet \, obj 0 40 v \$1 \, obj
0 80 s \$2-outlet \, connect 0 0 1 0 \, connect 1 0 2 0;
#X obj 133 49 s \$0-inlet;
#X obj 126 146 r \$0-outlet;
#X obj 293 20 inlet;
#X obj 401 27 loadbang;
#X obj 400 61 list append \$1;
#X obj 272 165 select symbol;
#X obj 387 165 t s s;
#X connect 1 0 6 0;
#X connect 4 0 5 0;
#X connect 5 0 3 0;
#X connect 7 0 0 0;
#X connect 8 0 11 0;
#X connect 9 0 10 0;
#X connect 10 0 12 0;
#X connect 11 1 12 0;
#X connect 12 0 4 0;
#X connect 12 1 11 1;
