#N canvas 966 84 916 989 16;
#X obj 272 88 iemguts/receivecanvas 1;
#X obj 105 212 list prepend 0;
#X obj 105 243 route 0 1;
#N canvas 0 57 1920 1023 savestate 0;
#X obj 157 276 savestate;
#X obj 269 320 s \$0-save;
#X obj 142 107 v \$0-w;
#X obj 157 305 list trim;
#X obj 210 19 r \$0-save;
#X obj 232 107 v \$0-h;
#X obj 211 473 unpack f f;
#X obj 140 156 pack f f;
#X obj 163 230 list;
#X obj 158 545 s \$0-w;
#X obj 235 530 s \$0-h;
#X msg 140 185 -size \$1 \$2;
#X obj 19 32 loadbang;
#X obj 19 106 spigot 1;
#X msg 88 76 0;
#X obj 742 490 s \$0-name;
#X obj 1046 155 symbol;
#X obj 1098 120 r \$0-name;
#X msg 966 238 -name \$1;
#X obj 744 457 symbol;
#X obj 858 492 s \$0-min;
#X obj 940 485 s \$0-max;
#X obj 974 103 v \$0-min;
#X obj 1083 95 v \$0-max;
#X msg 970 142 -min \$1;
#X msg 1150 162 -max \$1;
#X obj 1280 106 v \$0-z_offset;
#X obj 1051 482 s \$0-z_offset;
#X obj 1468 116 v \$0-invisible;
#X obj 1219 477 s \$0-invisible;
#X msg 1458 167 -invisible \$1;
#X msg 1296 145 -z_offset \$1;
#X obj 1404 466 s \$0-sft;
#X obj 1655 111 v \$0-sft;
#X msg 1655 140 -show_first_touch \$1;
#X obj 429 233 v \$0-back_color;
#X obj 525 671 s \$0-back_color;
#N canvas 0 50 540 413 convert 0;
#X obj 167 29 inlet;
#X obj 165 86 route float list;
#X obj 243 251 * -1;
#X obj 243 119 unpack f f f, f 17;
#X obj 243 285 - 1;
#X obj 326 153 * 256;
#X obj 243 153 * 65536;
#X obj 326 187 +;
#X obj 243 217 +;
#X obj 165 338 outlet;
#X connect 0 0 1 0;
#X connect 1 0 9 0;
#X connect 1 1 3 0;
#X connect 2 0 4 0;
#X connect 3 0 6 0;
#X connect 3 1 5 0;
#X connect 3 2 7 1;
#X connect 4 0 9 0;
#X connect 5 0 7 0;
#X connect 6 0 8 0;
#X connect 7 0 8 1;
#X connect 8 0 2 0;
#X restore 525 601 pd convert;
#N canvas 0 50 498 451 convert2rgb 0;
#X obj 53 112 * -1;
#X obj 54 81 + 1;
#X obj 180 181 mod 256;
#X obj 51 179 div 256;
#X obj 52 143 t f f, f 13;
#X obj 49 210 t f f;
#X obj 48 248 div 256;
#X obj 132 250 mod 256;
#X obj 49 288 pack f f f;
#X obj 54 51 inlet;
#X obj 49 317 outlet;
#X connect 0 0 4 0;
#X connect 1 0 0 0;
#X connect 2 0 8 2;
#X connect 3 0 5 0;
#X connect 4 0 3 0;
#X connect 4 1 2 0;
#X connect 5 0 6 0;
#X connect 5 1 7 0;
#X connect 6 0 8 0;
#X connect 7 0 8 1;
#X connect 8 0 10 0;
#X connect 9 0 1 0;
#X restore 426 263 pd convert2rgb;
#X msg 415 304 -back_color \$1 \$2 \$3;
#N canvas 0 50 498 451 convert2rgb 0;
#X obj 53 112 * -1;
#X obj 54 81 + 1;
#X obj 180 181 mod 256;
#X obj 51 179 div 256;
#X obj 52 143 t f f, f 13;
#X obj 49 210 t f f;
#X obj 48 248 div 256;
#X obj 132 250 mod 256;
#X obj 49 288 pack f f f;
#X obj 54 51 inlet;
#X obj 49 317 outlet;
#X connect 0 0 4 0;
#X connect 1 0 0 0;
#X connect 2 0 8 2;
#X connect 3 0 5 0;
#X connect 4 0 3 0;
#X connect 4 1 2 0;
#X connect 5 0 6 0;
#X connect 5 1 7 0;
#X connect 6 0 8 0;
#X connect 7 0 8 1;
#X connect 8 0 10 0;
#X connect 9 0 1 0;
#X restore 622 257 pd convert2rgb;
#N canvas 0 50 540 413 convert 0;
#X obj 167 29 inlet;
#X obj 165 86 route float list;
#X obj 243 251 * -1;
#X obj 243 119 unpack f f f, f 17;
#X obj 243 285 - 1;
#X obj 326 153 * 256;
#X obj 243 153 * 65536;
#X obj 326 187 +;
#X obj 243 217 +;
#X obj 165 338 outlet;
#X connect 0 0 1 0;
#X connect 1 0 9 0;
#X connect 1 1 3 0;
#X connect 2 0 4 0;
#X connect 3 0 6 0;
#X connect 3 1 5 0;
#X connect 3 2 7 1;
#X connect 4 0 9 0;
#X connect 5 0 7 0;
#X connect 6 0 8 0;
#X connect 7 0 8 1;
#X connect 8 0 2 0;
#X restore 655 581 pd convert;
#X obj 620 230 v \$0-front_color;
#X msg 617 294 -front_color \$1 \$2 \$3;
#X obj 655 620 s \$0-front_color;
#X obj 210 48 t b b b b b b b b b b, f 142;
#X obj 270 395 route -size -back_color -front_color -name -min -max
-z_offset -invisible -show_first_touch, f 145;
#X msg 21 303 -size 60 60 \, -back_color 220 220 220 \, -front_color
200 200 200 \, -min 0 \, -max 1 \, -name untitled, f 10;
#X connect 0 0 3 0;
#X connect 0 0 14 0;
#X connect 0 1 1 0;
#X connect 2 0 7 0;
#X connect 3 0 46 0;
#X connect 4 0 45 0;
#X connect 5 0 7 1;
#X connect 6 0 9 0;
#X connect 6 1 10 0;
#X connect 7 0 11 0;
#X connect 8 0 0 0;
#X connect 11 0 8 0;
#X connect 12 0 13 0;
#X connect 13 0 47 0;
#X connect 14 0 13 1;
#X connect 16 0 18 0;
#X connect 17 0 16 1;
#X connect 18 0 8 0;
#X connect 19 0 15 0;
#X connect 22 0 24 0;
#X connect 23 0 25 0;
#X connect 24 0 8 0;
#X connect 25 0 8 0;
#X connect 26 0 31 0;
#X connect 28 0 30 0;
#X connect 30 0 8 0;
#X connect 31 0 8 0;
#X connect 33 0 34 0;
#X connect 34 0 8 0;
#X connect 35 0 38 0;
#X connect 37 0 36 0;
#X connect 38 0 39 0;
#X connect 39 0 8 0;
#X connect 40 0 43 0;
#X connect 41 0 44 0;
#X connect 42 0 40 0;
#X connect 43 0 8 0;
#X connect 45 0 2 0;
#X connect 45 1 5 0;
#X connect 45 2 35 0;
#X connect 45 3 42 0;
#X connect 45 4 16 0;
#X connect 45 5 22 0;
#X connect 45 6 23 0;
#X connect 45 7 26 0;
#X connect 45 8 28 0;
#X connect 45 9 33 0;
#X connect 46 0 6 0;
#X connect 46 1 37 0;
#X connect 46 2 41 0;
#X connect 46 3 19 0;
#X connect 46 4 20 0;
#X connect 46 5 21 0;
#X connect 46 6 27 0;
#X connect 46 7 29 0;
#X connect 46 8 32 0;
#X connect 47 0 46 0;
#X restore 1408 282 pd savestate;
#X obj 1409 234 namecanvas \$0-this;
#N canvas 0 50 1005 538 resize 0;
#X obj 51 17 inlet;
#X msg -74 585 dirty 1;
#X obj 157 237 spigot;
#X msg 109 186 1;
#X msg 78 247 0;
#X obj 307 211 t l b;
#X obj 110 479 -;
#X obj 247 472 -;
#X obj 167 512 r \$0-w;
#X obj 298 515 r \$0-h;
#X obj 153 551 +;
#X obj 152 621 s \$0-w;
#X obj 247 546 +;
#X obj 254 616 s \$0-h;
#X obj 57 106 spigot 1;
#X obj 57 135 t b b;
#X msg 129 73 0;
#X msg 79 281 1;
#X obj 154 322 unpack f f f;
#X obj 156 271 route mouseup motion;
#X obj 108 360 t f f b f;
#X obj 229 357 t f f b f;
#X obj 289 433 spigot 1;
#X msg 367 397 0;
#X obj 143 441 spigot 1;
#X msg 212 405 0;
#X obj 235 85 iemguts/receivecanvas 2;
#X obj -71 611 iemguts/sendcanvas 2;
#X obj 698 101 r \$0-w;
#X obj 803 97 r \$0-h;
#X obj 699 188 pack f f;
#X obj 601 310 t b a;
#X msg 559 346 dirty 0;
#X obj 555 384 s \$0-this;
#X msg 546 156 120 254;
#X msg 483 279 donecanvasdialog 1 -1 3 0 -1 1 1 \$1 \$2 100 100;
#X text 673 383 the parent canvas;
#X obj 167 589 max 5;
#X obj 276 585 max 5;
#X obj 803 126 t b f;
#X connect 0 0 14 0;
#X connect 1 0 27 0;
#X connect 2 0 19 0;
#X connect 3 0 2 1;
#X connect 4 0 2 1;
#X connect 6 0 10 0;
#X connect 7 0 12 0;
#X connect 8 0 10 1;
#X connect 9 0 12 1;
#X connect 10 0 37 0;
#X connect 12 0 38 0;
#X connect 14 0 15 0;
#X connect 15 0 3 0;
#X connect 15 1 16 0;
#X connect 15 1 1 0;
#X connect 16 0 14 1;
#X connect 17 0 14 1;
#X connect 17 0 24 1;
#X connect 17 0 22 1;
#X connect 18 0 20 0;
#X connect 18 1 21 0;
#X connect 19 0 4 0;
#X connect 19 0 17 0;
#X connect 19 1 18 0;
#X connect 20 0 6 1;
#X connect 20 1 6 0;
#X connect 20 2 25 0;
#X connect 20 3 24 0;
#X connect 21 0 7 1;
#X connect 21 1 7 0;
#X connect 21 2 23 0;
#X connect 21 3 22 0;
#X connect 22 0 7 1;
#X connect 23 0 22 1;
#X connect 24 0 6 1;
#X connect 25 0 24 1;
#X connect 26 0 2 0;
#X connect 28 0 30 0;
#X connect 29 0 39 0;
#X connect 30 0 35 0;
#X connect 31 0 32 0;
#X connect 31 1 33 0;
#X connect 32 0 33 0;
#X connect 34 0 35 0;
#X connect 35 0 31 0;
#X connect 37 0 11 0;
#X connect 38 0 13 0;
#X connect 39 0 30 0;
#X connect 39 1 30 1;
#X restore 148 280 pd resize;
#X obj 100 100 cnv 5 5 5 \$0-pos \$0-pos-rcv empty 20 12 0 14 -66577
-66577 0;
#X obj 100 102 vsl 60 54 0 127 0 0 empty \$0-gui-rcv empty 0 20 0 20
-228856 -228856 -220652 0 1;
#X text 1291 10 format d'entrée MULTITOUCH.COOKED;
#X text 1407 44 <slot> remove;
#X text 1410 63 <slot> update <x> <y>;
#X text 1411 83 <slot> pressure <a>;
#N canvas 950 300 1202 739 monoclickmode 0;
#X obj 31 11 inlet;
#X msg 74 419 0;
#X msg 42 178 1;
#X obj 30 41 t b;
#X obj 42 596 outlet;
#X obj 35 144 select 0;
#X text 251 111 Pour utiliser la souris quand pas en mode multitouch
;
#X obj 25 106 v TRACKED.SLOTS;
#X obj 30 70 delay 1;
#X obj 296 573 outlet;
#X obj 234 223 iemguts/receivecanvas 2;
#X obj 231 290 spigot;
#X msg 325 261 0;
#X msg 181 256 1;
#X obj 239 329 route motion mouseup;
#X obj 774 44 inlet zoom;
#X obj 340 394 unpack f f f;
#X obj 340 423 / 1;
#X obj 393 427 / 1;
#X obj 344 456 pack f f f;
#X obj 533 369 t f f;
#X obj 344 485 t l b;
#X obj 409 570 outlet;
#X msg 410 530 50;
#X obj 516 47 inlet mouse;
#X obj 181 411 list append;
#X obj 181 440 list split 2;
#X obj 48 295 t f b b;
#X obj 38 527 change;
#X obj 74 375 t b b;
#X obj 746 244 r dnd-dropped;
#X obj 746 273 route -done;
#X obj 746 302 t b;
#X obj 746 331 delay 2;
#X obj 42 207 spigot 1;
#X obj 51 248 t f b;
#X msg 136 172 0;
#X msg 186 178 1;
#X connect 0 0 3 0;
#X connect 1 0 28 0;
#X connect 2 0 34 0;
#X connect 3 0 8 0;
#X connect 5 0 2 0;
#X connect 7 0 5 0;
#X connect 8 0 7 0;
#X connect 10 0 11 0;
#X connect 11 0 14 0;
#X connect 12 0 11 1;
#X connect 13 0 11 1;
#X connect 14 0 16 0;
#X connect 14 1 29 0;
#X connect 15 0 20 0;
#X connect 16 0 17 0;
#X connect 16 1 18 0;
#X connect 16 2 19 2;
#X connect 17 0 19 0;
#X connect 18 0 19 1;
#X connect 19 0 21 0;
#X connect 20 0 17 1;
#X connect 20 1 18 1;
#X connect 21 0 9 0;
#X connect 21 1 23 0;
#X connect 23 0 22 0;
#X connect 24 0 25 1;
#X connect 25 0 26 0;
#X connect 26 0 16 0;
#X connect 27 0 28 0;
#X connect 27 1 13 0;
#X connect 27 2 25 0;
#X connect 28 0 4 0;
#X connect 29 0 1 0;
#X connect 29 1 12 0;
#X connect 29 1 37 0;
#X connect 30 0 31 0;
#X connect 31 0 32 0;
#X connect 32 0 33 0;
#X connect 33 0 29 0;
#X connect 34 0 35 0;
#X connect 35 0 27 0;
#X connect 35 1 36 0;
#X connect 36 0 34 1;
#X connect 37 0 34 1;
#X restore 105 347 pd monoclickmode;
#X obj 272 111 route editmode mouse zoom;
#X msg 1121 98 vis 1;
#X obj 1125 60 iemguts/propertybang;
#X obj 1207 99 r \$0-ok;
#X msg 1207 128 vis 0;
#N canvas 0 50 1206 587 gui_feedback 0;
#X msg 88 180 set \$1;
#X obj 92 154 r \$0-w;
#X obj 90 207 s \$0-w-rcv;
#X msg 253 181 set \$1;
#X obj 251 50 r \$0-bc-snd;
#X obj 255 208 s \$0-bc-rcv;
#X obj 257 155 r \$0-back_color;
#X obj 251 108 s \$0-back_color;
#X msg 446 182 set \$1;
#X obj 444 51 r \$0-fc-snd;
#X obj 444 109 s \$0-front_color;
#X obj 450 156 r \$0-front_color;
#X obj 448 209 s \$0-fc-rcv;
#X msg 656 182 set \$1;
#X obj 654 51 r \$0-cc-snd;
#X obj 654 109 s \$0-cursor_color;
#X obj 660 156 r \$0-cursor_color;
#X obj 658 209 s \$0-cc-rcv;
#X msg 68 390 set \$1;
#X obj 71 364 r \$0-h;
#X obj 70 417 s \$0-h-rcv;
#X obj 675 294 r \$0-name;
#X msg 675 323 set \$1;
#X obj 674 380 s \$0-name-rcv;
#X msg 435 292 set \$1;
#X msg 419 385 set \$1;
#X obj 439 266 r \$0-min;
#X obj 437 319 s \$0-min-rcv;
#X obj 423 359 r \$0-max;
#X obj 421 412 s \$0-max-rcv;
#X msg 909 170 set \$1;
#X obj 909 141 r \$0-z_offset;
#X obj 908 227 s \$0-z_offset-rcv;
#X msg 893 305 set \$1;
#X obj 893 276 r \$0-invisible;
#X obj 892 362 s \$0-invisible-rcv;
#X obj 206 328 r \$0-sft;
#X msg 206 357 set \$1;
#X obj 206 386 s \$0-sft-rcv;
#X connect 0 0 2 0;
#X connect 1 0 0 0;
#X connect 3 0 5 0;
#X connect 4 0 7 0;
#X connect 6 0 3 0;
#X connect 8 0 12 0;
#X connect 9 0 10 0;
#X connect 11 0 8 0;
#X connect 13 0 17 0;
#X connect 14 0 15 0;
#X connect 16 0 13 0;
#X connect 18 0 20 0;
#X connect 19 0 18 0;
#X connect 21 0 22 0;
#X connect 22 0 23 0;
#X connect 24 0 27 0;
#X connect 25 0 29 0;
#X connect 26 0 24 0;
#X connect 28 0 25 0;
#X connect 30 0 32 0;
#X connect 31 0 30 0;
#X connect 33 0 35 0;
#X connect 34 0 33 0;
#X connect 36 0 37 0;
#X connect 37 0 38 0;
#X restore 1115 227 pd gui_feedback;
#X obj 100 100 cnv 1 1 60 empty \$0-vertical_cursor-0 empty 20 12 0
14 -258113 -66577 0;
#X obj 100 100 cnv 1 60 1 empty \$0-horizontal_cursor-0 empty 20 12
0 14 -258113 -66577 0;
#X obj 823 973 s;
#X obj 847 916 r \$0-name;
#N canvas 146 334 864 764 receive_MULTITOUCH.MODE2.parent\$0 0;
#X msg 141 146 bang;
#X obj 219 145 loadbang;
#X msg 222 264 set MULTITOUCH.MODE2.\$1;
#X obj 149 320 iemlib/iem_receive;
#X obj 149 349 outlet;
#X obj 146 179 iemguts/canvasdollarzero 2;
#X connect 0 0 5 0;
#X connect 1 0 5 0;
#X connect 2 0 3 0;
#X connect 3 0 4 0;
#X connect 5 0 2 0;
#X restore 1148 613 pd receive_MULTITOUCH.MODE2.parent\$0;
#X obj 1163 678 list trim;
#X obj 1154 645 list prepend all;
#X obj 1161 705 clone slot_listener 4 \$0;
#X msg 380 182 get_pos;
#X obj 380 219 s \$0-pos-rcv;
#N canvas 0 50 732 441 cursor.0 0;
#X obj 231 226 *;
#X obj 240 32 r \$0-h;
#X obj 437 12 r \$0-w;
#X msg 267 335 pos \$2 \$1;
#X obj 230 269 + 100;
#X obj 209 303 pack f 100;
#X obj 186 106 - 1;
#X obj 186 135 * -1;
#X obj 186 166 min 1;
#X obj 186 195 max 0;
#X obj 103 18 inlet;
#X obj 18 264 *;
#X obj 455 101 r \$0-w;
#X obj 446 159 r \$0-h;
#X msg 76 354 pos \$1 \$2;
#X obj 18 293 + 100;
#X obj 18 322 pack f 100;
#X obj 4 186 min 1;
#X obj 4 215 max 0;
#X obj 87 82 unpack f f;
#X obj 61 393 s \$0-vertical_cursor-0;
#X obj 313 390 s \$0-horizontal_cursor-0;
#X msg 469 47 vis_size \$1 1 \, size 1;
#X msg 478 194 vis_size 1 \$1 \, size 1;
#X msg 281 153 pos 100 100;
#X obj 95 50 route add update remove;
#X obj 536 268 r \$0-sft;
#X obj 263 101 spigot 1;
#X obj 536 297 == 0;
#X connect 0 0 4 0;
#X connect 1 0 0 1;
#X connect 2 0 22 0;
#X connect 3 0 21 0;
#X connect 4 0 5 0;
#X connect 5 0 3 0;
#X connect 6 0 7 0;
#X connect 7 0 8 0;
#X connect 8 0 9 0;
#X connect 9 0 0 0;
#X connect 10 0 25 0;
#X connect 11 0 15 0;
#X connect 12 0 11 1;
#X connect 13 0 23 0;
#X connect 14 0 20 0;
#X connect 15 0 16 0;
#X connect 16 0 14 0;
#X connect 17 0 18 0;
#X connect 18 0 11 0;
#X connect 19 0 17 0;
#X connect 19 1 6 0;
#X connect 22 0 21 0;
#X connect 23 0 20 0;
#X connect 24 0 20 0;
#X connect 24 0 21 0;
#X connect 25 0 19 0;
#X connect 25 1 19 0;
#X connect 25 2 27 0;
#X connect 26 0 28 0;
#X connect 27 0 24 0;
#X connect 28 0 27 1;
#X restore 1459 916 pd cursor.0;
#X obj 1458 873 route 0 1 2 3;
#N canvas 0 50 732 441 cursor.1 0;
#X obj 231 226 *;
#X obj 240 32 r \$0-h;
#X obj 437 12 r \$0-w;
#X msg 267 335 pos \$2 \$1;
#X obj 230 269 + 100;
#X obj 209 303 pack f 100;
#X obj 186 106 - 1;
#X obj 186 135 * -1;
#X obj 186 166 min 1;
#X obj 186 195 max 0;
#X obj 103 18 inlet;
#X obj 18 264 *;
#X obj 455 101 r \$0-w;
#X obj 446 159 r \$0-h;
#X msg 76 354 pos \$1 \$2;
#X obj 18 293 + 100;
#X obj 18 322 pack f 100;
#X obj 4 186 min 1;
#X obj 4 215 max 0;
#X obj 87 82 unpack f f;
#X obj 313 390 s \$0-horizontal_cursor-1;
#X obj 61 393 s \$0-vertical_cursor-1;
#X msg 469 47 vis_size \$1 1 \, size 1 \, color 15 15;
#X msg 357 206 vis_size 1 \$1 \, size 1 \, color 15 15;
#X msg 303 99 pos 100 100;
#X obj 95 50 route add update remove;
#X connect 0 0 4 0;
#X connect 1 0 0 1;
#X connect 2 0 22 0;
#X connect 3 0 20 0;
#X connect 4 0 5 0;
#X connect 5 0 3 0;
#X connect 6 0 7 0;
#X connect 7 0 8 0;
#X connect 8 0 9 0;
#X connect 9 0 0 0;
#X connect 10 0 25 0;
#X connect 11 0 15 0;
#X connect 12 0 11 1;
#X connect 13 0 23 0;
#X connect 14 0 21 0;
#X connect 15 0 16 0;
#X connect 16 0 14 0;
#X connect 17 0 18 0;
#X connect 18 0 11 0;
#X connect 19 0 17 0;
#X connect 19 1 6 0;
#X connect 22 0 20 0;
#X connect 23 0 21 0;
#X connect 24 0 21 0;
#X connect 24 0 20 0;
#X connect 25 0 19 0;
#X connect 25 1 19 0;
#X connect 25 2 24 0;
#X restore 1469 946 pd cursor.1;
#N canvas 0 50 1018 441 cursor.2 0;
#X obj 231 226 *;
#X obj 240 32 r \$0-h;
#X obj 437 12 r \$0-w;
#X msg 267 335 pos \$2 \$1;
#X obj 230 269 + 100;
#X obj 209 303 pack f 100;
#X obj 186 106 - 1;
#X obj 186 135 * -1;
#X obj 186 166 min 1;
#X obj 186 195 max 0;
#X obj 103 18 inlet;
#X obj 18 264 *;
#X obj 455 101 r \$0-w;
#X obj 446 159 r \$0-h;
#X msg 76 354 pos \$1 \$2;
#X obj 18 293 + 100;
#X obj 18 322 pack f 100;
#X obj 4 186 min 1;
#X obj 4 215 max 0;
#X obj 87 82 unpack f f;
#X obj 61 394 s \$0-vertical_cursor-2;
#X obj 313 390 s \$0-horizontal_cursor-2;
#X msg 469 47 vis_size \$1 1 \, size 1 \, color 17 17;
#X msg 478 194 vis_size 1 \$1 \, size 1 \, color 17 17;
#X msg 303 99 pos 100 100;
#X obj 95 50 route add update remove;
#X connect 0 0 4 0;
#X connect 1 0 0 1;
#X connect 2 0 22 0;
#X connect 3 0 21 0;
#X connect 4 0 5 0;
#X connect 5 0 3 0;
#X connect 6 0 7 0;
#X connect 7 0 8 0;
#X connect 8 0 9 0;
#X connect 9 0 0 0;
#X connect 10 0 25 0;
#X connect 11 0 15 0;
#X connect 12 0 11 1;
#X connect 13 0 23 0;
#X connect 14 0 20 0;
#X connect 15 0 16 0;
#X connect 16 0 14 0;
#X connect 17 0 18 0;
#X connect 18 0 11 0;
#X connect 19 0 17 0;
#X connect 19 1 6 0;
#X connect 22 0 21 0;
#X connect 23 0 20 0;
#X connect 24 0 21 0;
#X connect 24 0 20 0;
#X connect 25 0 19 0;
#X connect 25 1 19 0;
#X connect 25 2 24 0;
#X restore 1589 916 pd cursor.2;
#N canvas 0 50 890 441 cursor.3 0;
#X obj 231 226 *;
#X obj 240 32 r \$0-h;
#X obj 437 12 r \$0-w;
#X msg 267 335 pos \$2 \$1;
#X obj 230 269 + 100;
#X obj 209 303 pack f 100;
#X obj 186 106 - 1;
#X obj 186 135 * -1;
#X obj 186 166 min 1;
#X obj 186 195 max 0;
#X obj 103 18 inlet;
#X obj 18 264 *;
#X obj 455 101 r \$0-w;
#X obj 446 159 r \$0-h;
#X msg 76 354 pos \$1 \$2;
#X obj 18 293 + 100;
#X obj 18 322 pack f 100;
#X obj 4 186 min 1;
#X obj 4 215 max 0;
#X obj 87 82 unpack f f;
#X obj 61 393 s \$0-vertical_cursor-3;
#X obj 313 390 s \$0-horizontal_cursor-3;
#X msg 469 47 vis_size \$1 1 \, size 1 \, color 18 18;
#X msg 478 194 vis_size 1 \$1 \, size 1 \, color 18 18;
#X msg 303 99 pos 100 100;
#X obj 95 50 route add update remove;
#X connect 0 0 4 0;
#X connect 1 0 0 1;
#X connect 2 0 22 0;
#X connect 3 0 21 0;
#X connect 4 0 5 0;
#X connect 5 0 3 0;
#X connect 6 0 7 0;
#X connect 7 0 8 0;
#X connect 8 0 9 0;
#X connect 9 0 0 0;
#X connect 10 0 25 0;
#X connect 11 0 15 0;
#X connect 12 0 11 1;
#X connect 13 0 23 0;
#X connect 14 0 20 0;
#X connect 15 0 16 0;
#X connect 16 0 14 0;
#X connect 17 0 18 0;
#X connect 18 0 11 0;
#X connect 19 0 17 0;
#X connect 19 1 6 0;
#X connect 22 0 21 0;
#X connect 23 0 20 0;
#X connect 24 0 21 0;
#X connect 24 0 20 0;
#X connect 25 0 19 0;
#X connect 25 1 19 0;
#X connect 25 2 24 0;
#X restore 1599 946 pd cursor.3;
#X obj 100 100 cnv 1 1 60 empty \$0-vertical_cursor-1 empty 20 12 0
14 -241291 -66577 0;
#X obj 100 100 cnv 1 60 1 empty \$0-horizontal_cursor-1 empty 20 12
0 14 -241291 -66577 0;
#X obj 100 100 cnv 1 1 60 empty \$0-vertical_cursor-2 empty 20 12 0
14 -44926 -66577 0;
#X obj 100 100 cnv 1 60 1 empty \$0-horizontal_cursor-2 empty 20 12
0 14 -44926 -66577 0;
#X obj 100 100 cnv 1 1 60 empty \$0-vertical_cursor-3 empty 20 12 0
14 -62784 -66577 0;
#X obj 100 100 cnv 1 60 1 empty \$0-horizontal_cursor-3 empty 20 12
0 14 -62784 -66577 0;
#X obj 105 376 select 0;
#X msg 1158 829 0 remove;
#X obj 959 973 outlet;
#X obj 818 872 t a a, f 14;
#X obj 590 593 t a a;
#X obj 818 785 list append;
#X obj 819 821 list prepend 0 remove;
#X obj 614 713 t a b;
#X msg 735 720 list 0 update;
#X obj 591 665 list prepend 0 add;
#X obj 820 566 t b b b;
#X msg 846 637 list 0 add;
#X obj 1113 163 s pd-xy_multitouch_properties(\$0);
#N canvas 109 618 417 458 xy_multitouch_properties(\$0) 1;
#X obj 6 4 cnv 15 400 320 empty empty empty 20 12 0 14 -233017 -66577
0;
#X floatatom 146 14 5 0 0 0 width #0-w-rcv #0-w;
#X obj 341 276 bng 40 250 50 0 \$0-ok empty OK 5 20 0 20 -204786 -1
-1;
#X floatatom 283 16 5 0 0 0 height #0-h-rcv #0-h;
#X symbolatom 91 148 30 0 0 0 send_to #0-name-rcv #0-name;
#X floatatom 141 81 5 0 0 0 min #0-min-rcv #0-min;
#X floatatom 252 83 5 0 0 0 max #0-max-rcv #0-max;
#X text 22 117 Messages;
#X text 13 48 Values range;
#X text 137 48 ................;
#X floatatom 281 385 5 0 0 0 z-offset #0-z_offset-rcv #0-z_offset;
#X text 25 333 MobMuPlat Widget Export;
#X obj 157 385 tgl 20 0 \$0-z_offset \$0-z_offset-rcv MoveOnTop -100
8 0 16 -262144 -1 -1 0 99;
#X obj 157 365 tgl 20 0 \$0-invisible \$0-invisible-rcv Transparency
-130 8 0 16 -262144 -1 -1 0 1;
#X obj 183 365 hsl 60 20 1 0 0 0 \$0-invisible \$0-invisible-rcv empty
-2 -8 0 10 -262144 -1 -1 5900 1;
#X text 250 361 Opacity;
#X obj 192 289 tgl 15 0 \$0-sft \$0-sft-rcv show_first_touch 17 7 0
10 -262144 -1 -1 0 1;
#X text 213 196 back_color;
#X text 211 236 front_color;
#N canvas 412 187 1049 632 color_picker 0;
#X obj 53 150 hsl 128 12 0 255 0 0 empty empty empty -2 -8 0 10 -228856
-258113 -1 0 0;
#X obj 53 162 hsl 128 12 0 255 0 0 empty empty empty -2 -8 0 10 -228856
-4034 -1 0 0;
#X obj 53 174 hsl 128 12 0 255 0 0 empty empty empty -2 -8 0 10 -228856
-4160 -1 0 0;
#X obj 183 150 tgl 36 0 empty empty empty 17 7 0 10 -228856 -228856
-228856 0 1;
#N canvas 0 50 498 451 convert2rgb 0;
#X obj 53 112 * -1;
#X obj 54 81 + 1;
#X obj 180 183 mod 256;
#X obj 51 179 div 256;
#X obj 52 143 t f f, f 13;
#X obj 49 210 t f f;
#X obj 48 248 div 256;
#X obj 132 250 mod 256;
#X obj 54 51 inlet;
#X obj 49 317 outlet;
#X obj 129 317 outlet;
#X obj 209 317 outlet;
#X connect 0 0 4 0;
#X connect 1 0 0 0;
#X connect 2 0 11 0;
#X connect 3 0 5 0;
#X connect 4 0 3 0;
#X connect 4 1 2 0;
#X connect 5 0 6 0;
#X connect 5 1 7 0;
#X connect 6 0 9 0;
#X connect 7 0 10 0;
#X connect 8 0 1 0;
#X restore 58 76 pd convert2rgb;
#X msg 286 149 color \$1 \$1 \$1;
#X msg 57 112 set \$1;
#X msg 141 109 set \$1;
#X msg 234 111 set \$1;
#X obj 83 332 t b f;
#X obj 144 333 t b f;
#X obj 149 291 i;
#X obj 104 292 i;
#X obj 61 294 i;
#X obj 67 410 expr ($f1*(-65536)+$f2*(-256)+$f3*(-1))-1;
#X obj 66 372 pack f f f;
#X obj 58 14 r \$0-back_color;
#X obj 97 549 s \$0-back_color;
#X obj 58 45 spigot 1;
#X obj 67 457 t b f b;
#X msg 134 495 0;
#X msg 67 486 1;
#X connect 0 0 13 0;
#X connect 1 0 12 0;
#X connect 2 0 11 0;
#X connect 4 0 6 0;
#X connect 4 1 7 0;
#X connect 4 2 8 0;
#X connect 5 0 3 0;
#X connect 6 0 0 0;
#X connect 7 0 1 0;
#X connect 8 0 2 0;
#X connect 9 0 15 0;
#X connect 9 1 15 1;
#X connect 10 0 15 0;
#X connect 10 1 15 2;
#X connect 11 0 10 0;
#X connect 12 0 9 0;
#X connect 13 0 15 0;
#X connect 14 0 19 0;
#X connect 15 0 14 0;
#X connect 16 0 5 0;
#X connect 16 0 18 0;
#X connect 18 0 4 0;
#X connect 19 0 21 0;
#X connect 19 1 17 0;
#X connect 19 2 20 0;
#X connect 20 0 18 1;
#X connect 21 0 18 1;
#X coords 0 -1 1 1 169 36 2 50 150;
#X restore 37 191 pd color_picker;
#N canvas 882 181 1049 632 color_picker 0;
#X obj 53 150 hsl 128 12 0 255 0 0 empty empty empty -2 -8 0 10 -228856
-258113 -1 0 0;
#X obj 53 162 hsl 128 12 0 255 0 0 empty empty empty -2 -8 0 10 -228856
-4034 -1 0 0;
#X obj 53 174 hsl 128 12 0 255 0 0 empty empty empty -2 -8 0 10 -228856
-4160 -1 0 0;
#X obj 183 150 tgl 36 0 empty empty empty 17 7 0 10 -208051 -208051
-208051 0 1;
#N canvas 0 50 498 451 convert2rgb 0;
#X obj 53 112 * -1;
#X obj 54 81 + 1;
#X obj 180 183 mod 256;
#X obj 51 179 div 256;
#X obj 52 143 t f f, f 13;
#X obj 49 210 t f f;
#X obj 48 248 div 256;
#X obj 132 250 mod 256;
#X obj 54 51 inlet;
#X obj 49 317 outlet;
#X obj 129 317 outlet;
#X obj 209 317 outlet;
#X connect 0 0 4 0;
#X connect 1 0 0 0;
#X connect 2 0 11 0;
#X connect 3 0 5 0;
#X connect 4 0 3 0;
#X connect 4 1 2 0;
#X connect 5 0 6 0;
#X connect 5 1 7 0;
#X connect 6 0 9 0;
#X connect 7 0 10 0;
#X connect 8 0 1 0;
#X restore 58 76 pd convert2rgb;
#X msg 286 149 color \$1 \$1 \$1;
#X msg 57 112 set \$1;
#X msg 141 109 set \$1;
#X msg 234 111 set \$1;
#X obj 83 332 t b f;
#X obj 144 333 t b f;
#X obj 149 291 i;
#X obj 104 292 i;
#X obj 61 294 i;
#X obj 67 410 expr ($f1*(-65536)+$f2*(-256)+$f3*(-1))-1;
#X obj 66 372 pack f f f;
#X obj 58 45 spigot 1;
#X obj 67 457 t b f b;
#X msg 134 495 0;
#X msg 67 486 1;
#X obj 58 14 r \$0-front_color;
#X obj 97 549 s \$0-front_color;
#X connect 0 0 13 0;
#X connect 1 0 12 0;
#X connect 2 0 11 0;
#X connect 4 0 6 0;
#X connect 4 1 7 0;
#X connect 4 2 8 0;
#X connect 5 0 3 0;
#X connect 6 0 0 0;
#X connect 7 0 1 0;
#X connect 8 0 2 0;
#X connect 9 0 15 0;
#X connect 9 1 15 1;
#X connect 10 0 15 0;
#X connect 10 1 15 2;
#X connect 11 0 10 0;
#X connect 12 0 9 0;
#X connect 13 0 15 0;
#X connect 14 0 17 0;
#X connect 15 0 14 0;
#X connect 16 0 4 0;
#X connect 17 0 19 0;
#X connect 17 1 21 0;
#X connect 17 2 18 0;
#X connect 18 0 16 1;
#X connect 19 0 16 1;
#X connect 20 0 5 0;
#X connect 20 0 16 0;
#X coords 0 -1 1 1 169 36 2 50 150;
#X restore 37 231 pd color_picker;
#X restore 1115 196 pd xy_multitouch_properties(\$0);
#X obj 1154 795 list prepend 0 update;
#N canvas 0 50 450 300 mapping 0;
#X obj 107 49 inlet;
#X obj 131 301 outlet;
#X obj 135 269 pack f f;
#X obj 120 167 *;
#X obj 321 128 -;
#X obj 129 202 +;
#X obj 328 72 t b f f;
#X obj 211 174 *;
#X obj 214 216 +;
#X obj 106 80 unpack f f;
#X obj 110 106 min 1;
#X obj 114 136 max 0;
#X obj 183 113 min 1;
#X obj 197 143 max 0;
#X obj 271 2 r \$0-max;
#X obj 322 44 r \$0-min;
#X connect 0 0 9 0;
#X connect 2 0 1 0;
#X connect 3 0 5 0;
#X connect 4 0 3 1;
#X connect 4 0 7 1;
#X connect 5 0 2 0;
#X connect 6 0 4 0;
#X connect 6 1 5 1;
#X connect 6 1 8 1;
#X connect 6 2 4 1;
#X connect 7 0 8 0;
#X connect 8 0 2 1;
#X connect 9 0 10 0;
#X connect 9 1 12 0;
#X connect 10 0 11 0;
#X connect 11 0 3 0;
#X connect 12 0 13 0;
#X connect 13 0 7 0;
#X connect 14 0 4 0;
#X connect 15 0 6 0;
#X restore 588 629 pd mapping;
#N canvas 0 50 448 669 compute_xy_values 0;
#X obj 68 33 inlet;
#X obj 46 552 outlet;
#X obj 203 210 r \$0-pos;
#X obj 201 245 unpack f f;
#X obj 56 306 -;
#X obj 165 307 -;
#X obj 55 268 unpack f f f;
#X obj 64 98 t l b;
#X obj 50 237 spigot 1;
#X obj 127 204 == 0;
#X obj 43 387 / 60;
#X obj 53 499 pack f f;
#X obj 101 355 r \$0-w;
#X obj 189 354 r \$0-h;
#X obj 142 395 / 60;
#X obj 148 433 * -1;
#X obj 132 470 + 1;
#X msg 129 122 0;
#X obj 115 158 v \$0-slot_listener.status.0;
#X connect 0 0 7 0;
#X connect 2 0 3 0;
#X connect 3 0 4 1;
#X connect 3 1 5 1;
#X connect 4 0 10 0;
#X connect 5 0 14 0;
#X connect 6 0 4 0;
#X connect 6 1 5 0;
#X connect 7 0 8 0;
#X connect 7 1 17 0;
#X connect 8 0 6 0;
#X connect 9 0 8 1;
#X connect 10 0 11 0;
#X connect 11 0 1 0;
#X connect 12 0 10 1;
#X connect 13 0 14 1;
#X connect 14 0 15 0;
#X connect 15 0 16 0;
#X connect 16 0 11 1;
#X connect 17 0 18 0;
#X connect 18 0 9 0;
#X restore 588 565 pd compute_xy_values;
#X obj 372 143 t b;
#X text 1435 665 Trouver un autre nom que slot listener : genre touchzone
tracker, f 24;
#N canvas 0 50 1568 1015 mmp-export-MMPMultiTouch 0;
#X obj 256 32 r \$0-x;
#X obj 312 32 r \$0-y;
#X obj 458 32 r \$0-h;
#X obj 379 28 r \$0-w;
#X obj 107 155 f;
#X obj 447 68 r \$0-range;
#X obj 81 675 list append 125;
#X obj 81 653 list prepend add 123;
#X obj 94 717 list trim;
#X obj 94 751 s MMP_BINFILE;
#X obj 363 358 v MMP_FIRST_GUI_ITEM;
#X obj 363 392 select 1;
#X msg 454 514 add 44 123;
#X msg 335 516 add 123;
#X msg 329 429 0;
#X obj 358 464 v MMP_FIRST_GUI_ITEM;
#X obj 108 322 pack f f f f f s f f f 1 f f f 1, f 63;
#X obj 487 561 iemguts/canvasposition 1;
#X obj 565 661 s \$0-y;
#X obj 479 627 s \$0-x;
#X obj 485 587 unpack f f;
#X obj 28 591 list fromsymbol;
#X obj 677 914 s LISTENERS;
#X obj 760 283 v WIDGET-ID;
#X obj 760 308 + 1;
#X obj 760 333 s WIDGET-ID;
#X obj 761 559 r \$0-name;
#X obj 704 616 symbol;
#X obj 704 645 t s s;
#X msg 744 676 symbol \$1-rcv;
#X obj 824 606 r WIDGET-ID;
#X obj 919 665 r \$0-min;
#X obj 920 704 r \$0-max;
#X obj 129 118 t b b b b b, f 43;
#X obj 537 174 r \$0-name;
#X obj 414 162 r WIDGET-ID;
#X obj 416 193 list append;
#X msg 416 222 symbol \$1.\$2;
#X obj 83 251 * 1;
#X obj 158 252 * 1;
#X obj 308 251 * 1;
#X obj 236 250 * 1;
#X obj 127 207 t f b f b f b f, f 23;
#X obj 168 166 r MOB_ZOOM;
#N canvas 278 130 450 300 MMP_EXPORT_BY_INDEX 0;
#X obj 151 40 r MMP_EXPORT_BY_INDEX;
#X obj 151 69 t f b;
#X obj 203 96 canvasindex 2;
#X obj 146 235 select;
#X obj 146 268 outlet;
#X text 38 6 enable z-order;
#X obj 202 145 + 0;
#X obj 249 126 r \$0-z_offset;
#X obj 202 174 max 0;
#X obj 202 203 min 1;
#X obj 298 171 - 1;
#X connect 0 0 1 0;
#X connect 1 0 3 0;
#X connect 1 1 2 0;
#X connect 2 0 6 0;
#X connect 2 1 10 0;
#X connect 3 0 4 0;
#X connect 6 0 8 0;
#X connect 7 0 6 1;
#X connect 8 0 9 0;
#X connect 9 0 3 1;
#X connect 10 0 9 1;
#X restore 81 79 pd MMP_EXPORT_BY_INDEX;
#X obj 760 173 r \$0-invisible;
#X obj 764 242 * -1;
#X obj 762 207 - 1;
#X obj 678 875 list prepend mob/listenerMultitouch;
#X msg 42 417 symbol "highlightColor":[\$11\\\,\$12\\\,\$13\\\,\$14]\\\,"address":"\$6"\\\,"color":[\$7\\\,\$8\\\,\$9\\\,\$10]\\\,"class":"MMPMultiTouch"\\\,"frame":[\$1\\\,\$2\\\,\$3\\\,\$4]
, f 23;
#X obj 739 811 pack s s f f f;
#X obj 636 23 r \$0-back_color;
#N canvas 0 50 534 640 canvas_color_to_rgb 0;
#X obj 119 35 inlet;
#X obj 121 96 + 1;
#X obj 121 125 * -1;
#X obj 134 159 t f f f;
#X obj 45 193 / 65536;
#X obj 163 194 / 256;
#X obj 247 197 mod 256;
#X obj 163 223 mod 256;
#X obj 45 222 int;
#X obj 45 251 / 255;
#X obj 163 252 / 255;
#X obj 247 226 / 255;
#X obj 40 283 outlet;
#X obj 164 285 outlet;
#X obj 254 283 outlet;
#X connect 0 0 1 0;
#X connect 1 0 2 0;
#X connect 2 0 3 0;
#X connect 3 0 4 0;
#X connect 3 1 5 0;
#X connect 3 2 6 0;
#X connect 4 0 8 0;
#X connect 5 0 7 0;
#X connect 6 0 11 0;
#X connect 7 0 10 0;
#X connect 8 0 9 0;
#X connect 9 0 12 0;
#X connect 10 0 13 0;
#X connect 11 0 14 0;
#X restore 608 59 pd canvas_color_to_rgb;
#N canvas 0 50 534 640 canvas_color_to_rgb 0;
#X obj 119 35 inlet;
#X obj 121 96 + 1;
#X obj 121 125 * -1;
#X obj 134 159 t f f f;
#X obj 45 193 / 65536;
#X obj 163 194 / 256;
#X obj 247 197 mod 256;
#X obj 163 223 mod 256;
#X obj 45 222 int;
#X obj 45 251 / 255;
#X obj 163 252 / 255;
#X obj 247 226 / 255;
#X obj 40 283 outlet;
#X obj 164 285 outlet;
#X obj 254 283 outlet;
#X connect 0 0 1 0;
#X connect 1 0 2 0;
#X connect 2 0 3 0;
#X connect 3 0 4 0;
#X connect 3 1 5 0;
#X connect 3 2 6 0;
#X connect 4 0 8 0;
#X connect 5 0 7 0;
#X connect 6 0 11 0;
#X connect 7 0 10 0;
#X connect 8 0 9 0;
#X connect 9 0 12 0;
#X connect 10 0 13 0;
#X connect 11 0 14 0;
#X restore 650 138 pd canvas_color_to_rgb;
#X obj 641 90 r \$0-front_color;
#X connect 0 0 4 1;
#X connect 1 0 39 0;
#X connect 2 0 40 0;
#X connect 3 0 41 0;
#X connect 4 0 38 0;
#X connect 5 0 16 4;
#X connect 6 0 8 0;
#X connect 7 0 6 0;
#X connect 8 0 9 0;
#X connect 10 0 11 0;
#X connect 11 0 13 0;
#X connect 11 0 14 0;
#X connect 11 1 12 0;
#X connect 12 0 7 1;
#X connect 13 0 7 1;
#X connect 14 0 15 0;
#X connect 16 0 49 0;
#X connect 17 0 20 0;
#X connect 20 0 19 0;
#X connect 20 1 18 0;
#X connect 21 0 7 0;
#X connect 23 0 24 0;
#X connect 24 0 25 0;
#X connect 26 0 27 1;
#X connect 27 0 28 0;
#X connect 28 0 50 0;
#X connect 28 1 29 0;
#X connect 29 0 50 1;
#X connect 30 0 50 2;
#X connect 31 0 50 3;
#X connect 32 0 50 4;
#X connect 33 0 4 0;
#X connect 33 1 10 0;
#X connect 33 2 17 0;
#X connect 33 3 27 0;
#X connect 33 4 23 0;
#X connect 34 0 36 1;
#X connect 35 0 36 0;
#X connect 36 0 37 0;
#X connect 37 0 16 5;
#X connect 38 0 16 0;
#X connect 39 0 16 1;
#X connect 40 0 16 3;
#X connect 41 0 16 2;
#X connect 42 0 38 1;
#X connect 42 1 39 0;
#X connect 42 2 39 1;
#X connect 42 3 41 0;
#X connect 42 4 41 1;
#X connect 42 5 40 0;
#X connect 42 6 40 1;
#X connect 43 0 42 0;
#X connect 44 0 33 0;
#X connect 45 0 47 0;
#X connect 46 0 16 13;
#X connect 46 0 16 9;
#X connect 47 0 46 0;
#X connect 48 0 22 0;
#X connect 49 0 21 0;
#X connect 50 0 48 0;
#X connect 51 0 52 0;
#X connect 52 0 16 6;
#X connect 52 1 16 7;
#X connect 52 2 16 8;
#X connect 53 0 16 10;
#X connect 53 1 16 11;
#X connect 53 2 16 12;
#X connect 54 0 53 0;
#X restore 1117 269 pd mmp-export-MMPMultiTouch;
#N canvas 580 562 916 666 colors 0;
#X obj 74 37 inlet;
#X obj 65 92 select 1 0;
#X obj 283 78 r \$0-back_color;
#X obj 428 286 r \$0-front_color;
#X msg 383 366 color -1.31586e+07 -1.31586e+07 -1.31586e+07;
#X msg 419 314 set color \$1 \$1 \$1;
#X text 325 512 ext. feedback;
#X obj 323 487 s \$0-gui-rcv;
#X msg 389 202 color \$1 \$1;
#X msg 256 152 set color \$1 \$1 \$1;
#X msg 283 239 color -1.44745e+07 -1.44745e+07 -1.44745e+07;
#X connect 0 0 1 0;
#X connect 1 0 4 0;
#X connect 1 1 10 0;
#X connect 2 0 9 0;
#X connect 2 0 8 0;
#X connect 3 0 5 0;
#X connect 4 0 7 0;
#X connect 5 0 4 0;
#X connect 8 0 7 0;
#X connect 9 0 10 0;
#X connect 10 0 7 0;
#X restore 57 756 pd colors;
#N canvas 0 50 450 300 resize_gui 0;
#X msg 93 154 size \$1 \$2;
#X obj 89 91 r \$0-w;
#X obj 168 27 r \$0-h;
#X obj 93 125 pack f f;
#X obj 168 56 - 6;
#X obj 170 86 t b f;
#X obj 93 183 s \$0-gui-rcv;
#X connect 0 0 6 0;
#X connect 1 0 3 0;
#X connect 2 0 4 0;
#X connect 3 0 0 0;
#X connect 4 0 5 0;
#X connect 5 0 3 0;
#X connect 5 1 3 1;
#X restore 49 682 pd resize_gui;
#X connect 0 0 13 0;
#X connect 1 0 2 0;
#X connect 2 0 12 0;
#X connect 2 1 5 0;
#X connect 7 0 1 0;
#X connect 12 0 40 0;
#X connect 12 0 60 0;
#X connect 12 1 56 0;
#X connect 13 0 1 1;
#X connect 13 1 12 1;
#X connect 13 1 57 0;
#X connect 13 2 12 2;
#X connect 14 0 52 0;
#X connect 15 0 14 0;
#X connect 16 0 17 0;
#X connect 17 0 52 0;
#X connect 22 0 21 1;
#X connect 23 0 25 0;
#X connect 24 0 26 0;
#X connect 25 0 24 0;
#X connect 26 0 43 0;
#X connect 26 1 30 0;
#X connect 27 0 28 0;
#X connect 30 0 29 0;
#X connect 30 1 31 0;
#X connect 30 2 32 0;
#X connect 30 3 33 0;
#X connect 40 0 50 0;
#X connect 41 0 30 0;
#X connect 43 0 21 0;
#X connect 43 1 42 0;
#X connect 44 0 55 0;
#X connect 44 1 54 0;
#X connect 45 0 46 0;
#X connect 46 0 43 0;
#X connect 47 0 43 0;
#X connect 47 1 48 0;
#X connect 48 0 49 1;
#X connect 49 0 47 0;
#X connect 50 0 45 0;
#X connect 50 1 51 0;
#X connect 50 2 41 0;
#X connect 51 0 49 1;
#X connect 54 0 30 0;
#X connect 55 0 45 1;
#X connect 55 0 49 0;
#X connect 56 0 44 0;
#X connect 57 0 27 0;
#X coords 0 -1 1 1 60 60 2 100 100;
