#N canvas -2 84 1920 956 16;
#X obj 272 88 iemguts/receivecanvas 1;
#X obj 105 212 list prepend 0;
#X obj 105 243 route 0 1;
#N canvas 333 241 1912 478 savestate 1;
#X obj 157 276 savestate;
#X obj 142 107 v \$0-w;
#X obj 157 305 list trim;
#X obj 210 19 r \$0-save;
#X obj 232 107 v \$0-h;
#X obj 211 473 unpack f f;
#X obj 140 156 pack f f;
#X obj 163 230 list;
#X obj 158 545 s \$0-w;
#X obj 235 530 s \$0-h;
#X msg 140 185 -size \$1 \$2;
#X obj 19 32 loadbang;
#X obj 19 106 spigot 1;
#X msg 88 76 0;
#X obj 742 490 s \$0-name;
#X obj 822 116 symbol;
#X obj 879 82 r \$0-name;
#X msg 789 158 -name \$1;
#X obj 744 457 symbol;
#X obj 1280 106 v \$0-z_offset;
#X obj 1051 482 s \$0-z_offset;
#X obj 1468 116 v \$0-invisible;
#X obj 1219 477 s \$0-invisible;
#X msg 1458 167 -invisible \$1;
#X msg 1296 145 -z_offset \$1;
#X obj 1404 466 s \$0-sft;
#X obj 1655 111 v \$0-sft;
#X msg 1655 140 -show_first_touch \$1;
#X obj 429 233 v \$0-back_color;
#X obj 525 671 s \$0-back_color;
#N canvas 0 50 540 413 convert 0;
#X obj 167 29 inlet;
#X obj 165 86 route float list;
#X obj 243 251 * -1;
#X obj 243 119 unpack f f f, f 17;
#X obj 243 285 - 1;
#X obj 326 153 * 256;
#X obj 243 153 * 65536;
#X obj 326 187 +;
#X obj 243 217 +;
#X obj 165 338 outlet;
#X connect 0 0 1 0;
#X connect 1 0 9 0;
#X connect 1 1 3 0;
#X connect 2 0 4 0;
#X connect 3 0 6 0;
#X connect 3 1 5 0;
#X connect 3 2 7 1;
#X connect 4 0 9 0;
#X connect 5 0 7 0;
#X connect 6 0 8 0;
#X connect 7 0 8 1;
#X connect 8 0 2 0;
#X restore 525 601 pd convert;
#N canvas 0 50 498 451 convert2rgb 0;
#X obj 53 112 * -1;
#X obj 54 81 + 1;
#X obj 180 181 mod 256;
#X obj 51 179 div 256;
#X obj 52 143 t f f, f 13;
#X obj 49 210 t f f;
#X obj 48 248 div 256;
#X obj 132 250 mod 256;
#X obj 49 288 pack f f f;
#X obj 54 51 inlet;
#X obj 49 317 outlet;
#X connect 0 0 4 0;
#X connect 1 0 0 0;
#X connect 2 0 8 2;
#X connect 3 0 5 0;
#X connect 4 0 3 0;
#X connect 4 1 2 0;
#X connect 5 0 6 0;
#X connect 5 1 7 0;
#X connect 6 0 8 0;
#X connect 7 0 8 1;
#X connect 8 0 10 0;
#X connect 9 0 1 0;
#X restore 426 263 pd convert2rgb;
#X msg 415 304 -back_color \$1 \$2 \$3;
#N canvas 0 50 498 451 convert2rgb 0;
#X obj 53 112 * -1;
#X obj 54 81 + 1;
#X obj 180 181 mod 256;
#X obj 51 179 div 256;
#X obj 52 143 t f f, f 13;
#X obj 49 210 t f f;
#X obj 48 248 div 256;
#X obj 132 250 mod 256;
#X obj 49 288 pack f f f;
#X obj 54 51 inlet;
#X obj 49 317 outlet;
#X connect 0 0 4 0;
#X connect 1 0 0 0;
#X connect 2 0 8 2;
#X connect 3 0 5 0;
#X connect 4 0 3 0;
#X connect 4 1 2 0;
#X connect 5 0 6 0;
#X connect 5 1 7 0;
#X connect 6 0 8 0;
#X connect 7 0 8 1;
#X connect 8 0 10 0;
#X connect 9 0 1 0;
#X restore 622 257 pd convert2rgb;
#N canvas 0 50 540 413 convert 0;
#X obj 167 29 inlet;
#X obj 165 86 route float list;
#X obj 243 251 * -1;
#X obj 243 119 unpack f f f, f 17;
#X obj 243 285 - 1;
#X obj 326 153 * 256;
#X obj 243 153 * 65536;
#X obj 326 187 +;
#X obj 243 217 +;
#X obj 165 338 outlet;
#X connect 0 0 1 0;
#X connect 1 0 9 0;
#X connect 1 1 3 0;
#X connect 2 0 4 0;
#X connect 3 0 6 0;
#X connect 3 1 5 0;
#X connect 3 2 7 1;
#X connect 4 0 9 0;
#X connect 5 0 7 0;
#X connect 6 0 8 0;
#X connect 7 0 8 1;
#X connect 8 0 2 0;
#X restore 655 581 pd convert;
#X obj 620 230 v \$0-front_color;
#X msg 617 294 -front_color \$1 \$2 \$3;
#X obj 655 620 s \$0-front_color;
#X obj 210 48 t b b b b b b b b b b, f 142;
#X obj 996 77 v \$0-xmin;
#X obj 1144 81 v \$0-xmax;
#X msg 994 109 -xmin \$1;
#X msg 1147 115 -xmax \$1;
#X obj 1006 157 v \$0-ymin;
#X msg 1004 189 -ymin \$1;
#X obj 1154 161 v \$0-ymax;
#X msg 1157 195 -ymax \$1;
#X obj 270 395 route -size -back_color -front_color -name -min -max
-z_offset -invisible -show_first_touch -xmin -xmax -ymin -ymax, f
145;
#X obj 1165 563 s \$0-xmin;
#X obj 1304 554 s \$0-xmax;
#X obj 1461 541 s \$0-ymin;
#X obj 1576 537 s \$0-ymax;
#X msg 21 303 -size 60 60 \, -back_color 220 220 220 \, -front_color
200 200 200 \, -min 0 \, -max 1, f 10;
#X obj 983 321 s \$0-save;
#X obj 982 261 v MMP.EXPORT.FLAG;
#X obj 982 290 select 0;
#X msg 37 154 1;
#X obj 43 192 s \$0-editmode;
#N canvas 0 0 731 635 init_name 0;
#X obj 58 424 + 1;
#X obj 57 389 v MMP.UNTITLED_WIDGET;
#X obj 59 530 s \$0-name;
#X obj 351 161 r \$0-name;
#X msg 447 329 set \$1;
#X obj 487 373 s \$0-name-rcv;
#X msg 363 246 label \$1-rcv;
#X obj 359 293 s \$0-receive_name-rcv;
#X obj 57 456 t f f;
#X obj 58 37 loadbang;
#X obj 209 23 r \$0-name;
#X obj 138 173 list fromsymbol;
#X obj 137 221 list split 9;
#X obj 137 279 list tosymbol;
#X obj 137 336 select Untitled_;
#X obj 356 194 t s s;
#X obj 57 125 select 0;
#X obj 57 77 list append 0;
#X msg 58 488 symbol Untitled_\$1*;
#X connect 0 0 8 0;
#X connect 1 0 0 0;
#X connect 3 0 15 0;
#X connect 4 0 5 0;
#X connect 6 0 7 0;
#X connect 8 0 18 0;
#X connect 8 1 1 0;
#X connect 9 0 17 0;
#X connect 10 0 17 1;
#X connect 11 0 12 0;
#X connect 12 0 13 0;
#X connect 13 0 14 0;
#X connect 14 0 1 0;
#X connect 15 0 6 0;
#X connect 15 1 4 0;
#X connect 16 0 1 0;
#X connect 16 1 11 0;
#X connect 17 0 16 0;
#X connect 18 0 2 0;
#X restore 401 6 pd init_name;
#X connect 0 0 2 0;
#X connect 0 0 13 0;
#X connect 0 1 54 0;
#X connect 1 0 6 0;
#X connect 2 0 47 0;
#X connect 3 0 38 0;
#X connect 4 0 6 1;
#X connect 5 0 8 0;
#X connect 5 1 9 0;
#X connect 6 0 10 0;
#X connect 7 0 0 0;
#X connect 10 0 7 0;
#X connect 11 0 12 0;
#X connect 12 0 52 0;
#X connect 12 0 56 0;
#X connect 13 0 12 1;
#X connect 15 0 17 0;
#X connect 16 0 15 1;
#X connect 17 0 7 0;
#X connect 18 0 14 0;
#X connect 19 0 24 0;
#X connect 21 0 23 0;
#X connect 23 0 7 0;
#X connect 24 0 7 0;
#X connect 26 0 27 0;
#X connect 27 0 7 0;
#X connect 28 0 31 0;
#X connect 30 0 29 0;
#X connect 31 0 32 0;
#X connect 32 0 7 0;
#X connect 33 0 36 0;
#X connect 34 0 37 0;
#X connect 35 0 33 0;
#X connect 36 0 7 0;
#X connect 38 0 1 0;
#X connect 38 1 4 0;
#X connect 38 2 28 0;
#X connect 38 3 35 0;
#X connect 38 4 15 0;
#X connect 38 5 39 0;
#X connect 38 5 43 0;
#X connect 38 6 40 0;
#X connect 38 6 45 0;
#X connect 38 7 19 0;
#X connect 38 8 21 0;
#X connect 38 9 26 0;
#X connect 39 0 41 0;
#X connect 40 0 42 0;
#X connect 41 0 7 0;
#X connect 42 0 7 0;
#X connect 43 0 44 0;
#X connect 44 0 7 0;
#X connect 45 0 46 0;
#X connect 46 0 7 0;
#X connect 47 0 5 0;
#X connect 47 1 30 0;
#X connect 47 2 34 0;
#X connect 47 3 18 0;
#X connect 47 4 48 0;
#X connect 47 4 50 0;
#X connect 47 5 49 0;
#X connect 47 5 51 0;
#X connect 47 6 20 0;
#X connect 47 7 22 0;
#X connect 47 8 25 0;
#X connect 47 9 48 0;
#X connect 47 10 49 0;
#X connect 47 11 50 0;
#X connect 47 12 51 0;
#X connect 52 0 47 0;
#X connect 54 0 55 0;
#X connect 55 0 53 0;
#X connect 56 0 57 0;
#X restore 1408 282 pd savestate;
#X obj 1409 234 namecanvas \$0-this;
#N canvas 0 50 1005 538 resize 0;
#X obj 51 17 inlet;
#X msg -74 585 dirty 1;
#X obj 157 237 spigot;
#X msg 109 186 1;
#X msg 78 247 0;
#X obj 307 211 t l b;
#X obj 110 479 -;
#X obj 247 472 -;
#X obj 167 512 r \$0-w;
#X obj 298 515 r \$0-h;
#X obj 153 551 +;
#X obj 152 621 s \$0-w;
#X obj 247 546 +;
#X obj 254 616 s \$0-h;
#X obj 57 106 spigot 1;
#X obj 57 135 t b b;
#X msg 129 73 0;
#X msg 79 281 1;
#X obj 154 322 unpack f f f;
#X obj 156 271 route mouseup motion;
#X obj 108 360 t f f b f;
#X obj 229 357 t f f b f;
#X obj 289 433 spigot 1;
#X msg 367 397 0;
#X obj 143 441 spigot 1;
#X msg 212 405 0;
#X obj 235 85 iemguts/receivecanvas 2;
#X obj -71 611 iemguts/sendcanvas 2;
#X obj 698 101 r \$0-w;
#X obj 803 97 r \$0-h;
#X obj 699 188 pack f f;
#X obj 601 310 t b a;
#X msg 559 346 dirty 0;
#X obj 555 384 s \$0-this;
#X msg 546 156 120 254;
#X msg 483 279 donecanvasdialog 1 -1 3 0 -1 1 1 \$1 \$2 100 100;
#X text 673 383 the parent canvas;
#X obj 167 589 max 5;
#X obj 276 585 max 5;
#X obj 803 126 t b f;
#X connect 0 0 14 0;
#X connect 1 0 27 0;
#X connect 2 0 19 0;
#X connect 3 0 2 1;
#X connect 4 0 2 1;
#X connect 6 0 10 0;
#X connect 7 0 12 0;
#X connect 8 0 10 1;
#X connect 9 0 12 1;
#X connect 10 0 37 0;
#X connect 12 0 38 0;
#X connect 14 0 15 0;
#X connect 15 0 3 0;
#X connect 15 1 16 0;
#X connect 15 1 1 0;
#X connect 16 0 14 1;
#X connect 17 0 14 1;
#X connect 17 0 24 1;
#X connect 17 0 22 1;
#X connect 18 0 20 0;
#X connect 18 1 21 0;
#X connect 19 0 4 0;
#X connect 19 0 17 0;
#X connect 19 1 18 0;
#X connect 20 0 6 1;
#X connect 20 1 6 0;
#X connect 20 2 25 0;
#X connect 20 3 24 0;
#X connect 21 0 7 1;
#X connect 21 1 7 0;
#X connect 21 2 23 0;
#X connect 21 3 22 0;
#X connect 22 0 7 1;
#X connect 23 0 22 1;
#X connect 24 0 6 1;
#X connect 25 0 24 1;
#X connect 26 0 2 0;
#X connect 28 0 30 0;
#X connect 29 0 39 0;
#X connect 30 0 35 0;
#X connect 31 0 32 0;
#X connect 31 1 33 0;
#X connect 32 0 33 0;
#X connect 34 0 35 0;
#X connect 35 0 31 0;
#X connect 37 0 11 0;
#X connect 38 0 13 0;
#X connect 39 0 30 0;
#X connect 39 1 30 1;
#X restore 148 280 pd resize;
#X obj 100 100 cnv 5 5 5 \$0-pos \$0-pos-rcv empty 20 12 0 14 #404040
#404040 0;
#X obj 100 102 vsl 60 54 0 127 0 0 empty \$0-gui-rcv empty 0 20 0 20
#dcdcdc #dcdcdc #dcdcdc 0 1;
#X text 1291 10 format d'entrée MULTITOUCH.COOKED;
#X text 1407 44 <slot> remove;
#X text 1410 63 <slot> update <x> <y>;
#X text 1411 83 <slot> pressure <a>;
#N canvas 950 300 1202 739 monoclickmode 0;
#X obj 31 11 inlet;
#X msg 74 419 0;
#X msg 42 178 1;
#X obj 30 41 t b;
#X obj 42 596 outlet;
#X obj 35 144 select 0;
#X text 286 106 Pour utiliser la souris quand pas en mode multitouch
;
#X obj 296 573 outlet;
#X obj 234 223 iemguts/receivecanvas 2;
#X obj 231 290 spigot;
#X msg 325 261 0;
#X msg 181 256 1;
#X obj 239 329 route motion mouseup;
#X obj 774 44 inlet zoom;
#X obj 340 394 unpack f f f;
#X obj 340 423 / 1;
#X obj 393 427 / 1;
#X obj 344 456 pack f f f;
#X obj 533 369 t f f;
#X obj 344 485 t l b;
#X obj 409 570 outlet;
#X msg 410 530 50;
#X obj 516 47 inlet mouse;
#X obj 181 411 list append;
#X obj 181 440 list split 2;
#X obj 48 295 t f b b;
#X obj 38 527 change;
#X obj 74 375 t b b;
#X obj 42 207 spigot 1;
#X obj 51 248 t f b;
#X msg 136 172 0;
#X msg 186 178 1;
#X obj 25 106 v MULTITOUCH.ACTIVESLOTS;
#X connect 0 0 3 0;
#X connect 1 0 26 0;
#X connect 2 0 28 0;
#X connect 3 0 32 0;
#X connect 5 0 2 0;
#X connect 8 0 9 0;
#X connect 9 0 12 0;
#X connect 10 0 9 1;
#X connect 11 0 9 1;
#X connect 12 0 14 0;
#X connect 12 1 27 0;
#X connect 13 0 18 0;
#X connect 14 0 15 0;
#X connect 14 1 16 0;
#X connect 14 2 17 2;
#X connect 15 0 17 0;
#X connect 16 0 17 1;
#X connect 17 0 19 0;
#X connect 18 0 15 1;
#X connect 18 1 16 1;
#X connect 19 0 7 0;
#X connect 19 1 21 0;
#X connect 21 0 20 0;
#X connect 22 0 23 1;
#X connect 23 0 24 0;
#X connect 24 0 14 0;
#X connect 25 0 26 0;
#X connect 25 1 11 0;
#X connect 25 2 23 0;
#X connect 26 0 4 0;
#X connect 27 0 1 0;
#X connect 27 1 10 0;
#X connect 27 1 31 0;
#X connect 28 0 29 0;
#X connect 29 0 25 0;
#X connect 29 1 30 0;
#X connect 30 0 28 1;
#X connect 31 0 28 1;
#X connect 32 0 5 0;
#X restore 105 347 pd monoclickmode;
#X obj 272 111 route editmode mouse zoom;
#X msg 1121 98 vis 1;
#X obj 1125 60 iemguts/propertybang;
#X obj 1207 99 r \$0-ok;
#X msg 1207 128 vis 0;
#N canvas 0 0 1206 587 gui_feedback 1;
#X msg 88 180 set \$1;
#X obj 92 154 r \$0-w;
#X obj 90 207 s \$0-w-rcv;
#X msg 253 181 set \$1;
#X obj 251 50 r \$0-bc-snd;
#X obj 255 208 s \$0-bc-rcv;
#X obj 257 155 r \$0-back_color;
#X obj 251 108 s \$0-back_color;
#X msg 446 182 set \$1;
#X obj 444 51 r \$0-fc-snd;
#X obj 444 109 s \$0-front_color;
#X obj 450 156 r \$0-front_color;
#X obj 448 209 s \$0-fc-rcv;
#X msg 656 182 set \$1;
#X obj 654 51 r \$0-cc-snd;
#X obj 654 109 s \$0-cursor_color;
#X obj 660 156 r \$0-cursor_color;
#X obj 658 209 s \$0-cc-rcv;
#X msg 68 390 set \$1;
#X obj 71 364 r \$0-h;
#X obj 70 417 s \$0-h-rcv;
#X msg 385 292 set \$1;
#X msg 369 385 set \$1;
#X msg 909 170 set \$1;
#X obj 909 141 r \$0-z_offset;
#X obj 908 227 s \$0-z_offset-rcv;
#X msg 893 305 set \$1;
#X obj 893 276 r \$0-invisible;
#X obj 892 362 s \$0-invisible-rcv;
#X obj 206 328 r \$0-sft;
#X msg 206 357 set \$1;
#X obj 206 386 s \$0-sft-rcv;
#X msg 525 292 set \$1;
#X msg 509 385 set \$1;
#X obj 389 266 r \$0-xmin;
#X obj 387 319 s \$0-xmin-rcv;
#X obj 373 359 r \$0-xmax;
#X obj 371 412 s \$0-xmax-rcv;
#X obj 529 266 r \$0-ymin;
#X obj 527 319 s \$0-ymin-rcv;
#X obj 513 359 r \$0-ymax;
#X obj 511 412 s \$0-ymax-rcv;
#X connect 0 0 2 0;
#X connect 1 0 0 0;
#X connect 3 0 5 0;
#X connect 4 0 7 0;
#X connect 6 0 3 0;
#X connect 8 0 12 0;
#X connect 9 0 10 0;
#X connect 11 0 8 0;
#X connect 13 0 17 0;
#X connect 14 0 15 0;
#X connect 16 0 13 0;
#X connect 18 0 20 0;
#X connect 19 0 18 0;
#X connect 21 0 35 0;
#X connect 22 0 37 0;
#X connect 23 0 25 0;
#X connect 24 0 23 0;
#X connect 26 0 28 0;
#X connect 27 0 26 0;
#X connect 29 0 30 0;
#X connect 30 0 31 0;
#X connect 32 0 39 0;
#X connect 33 0 41 0;
#X connect 34 0 21 0;
#X connect 36 0 22 0;
#X connect 38 0 32 0;
#X connect 40 0 33 0;
#X restore 1115 227 pd gui_feedback;
#X obj 100 100 cnv 1 1 60 empty \$0-vertical_cursor-0 empty 20 12 0
14 #fc0400 #404040 0;
#X obj 100 100 cnv 1 60 1 empty \$0-horizontal_cursor-0 empty 20 12
0 14 #fc0400 #404040 0;
#X obj 823 973 s;
#X obj 847 916 r \$0-name;
#X msg 380 182 get_pos;
#X obj 380 219 s \$0-pos-rcv;
#N canvas 0 50 732 441 cursor.0 0;
#X obj 231 226 *;
#X obj 240 32 r \$0-h;
#X obj 437 12 r \$0-w;
#X msg 267 335 pos \$2 \$1;
#X obj 230 269 + 100;
#X obj 209 303 pack f 100;
#X obj 186 106 - 1;
#X obj 186 135 * -1;
#X obj 186 166 min 1;
#X obj 186 195 max 0;
#X obj 103 18 inlet;
#X obj 18 264 *;
#X obj 455 101 r \$0-w;
#X obj 446 159 r \$0-h;
#X msg 76 354 pos \$1 \$2;
#X obj 18 293 + 100;
#X obj 18 322 pack f 100;
#X obj 4 186 min 1;
#X obj 4 215 max 0;
#X obj 87 82 unpack f f;
#X obj 61 393 s \$0-vertical_cursor-0;
#X obj 313 390 s \$0-horizontal_cursor-0;
#X msg 469 47 vis_size \$1 1 \, size 1;
#X msg 478 194 vis_size 1 \$1 \, size 1;
#X msg 281 153 pos 100 100;
#X obj 95 50 route add update remove;
#X obj 536 268 r \$0-sft;
#X obj 263 101 spigot 1;
#X obj 536 297 == 0;
#X connect 0 0 4 0;
#X connect 1 0 0 1;
#X connect 2 0 22 0;
#X connect 3 0 21 0;
#X connect 4 0 5 0;
#X connect 5 0 3 0;
#X connect 6 0 7 0;
#X connect 7 0 8 0;
#X connect 8 0 9 0;
#X connect 9 0 0 0;
#X connect 10 0 25 0;
#X connect 11 0 15 0;
#X connect 12 0 11 1;
#X connect 13 0 23 0;
#X connect 14 0 20 0;
#X connect 15 0 16 0;
#X connect 16 0 14 0;
#X connect 17 0 18 0;
#X connect 18 0 11 0;
#X connect 19 0 17 0;
#X connect 19 1 6 0;
#X connect 22 0 21 0;
#X connect 23 0 20 0;
#X connect 24 0 20 0;
#X connect 24 0 21 0;
#X connect 25 0 19 0;
#X connect 25 1 19 0;
#X connect 25 2 27 0;
#X connect 26 0 28 0;
#X connect 27 0 24 0;
#X connect 28 0 27 1;
#X restore 1459 916 pd cursor.0;
#X obj 1458 873 route 0 1 2 3;
#N canvas 0 50 732 441 cursor.1 0;
#X obj 231 226 *;
#X obj 240 32 r \$0-h;
#X obj 437 12 r \$0-w;
#X msg 267 335 pos \$2 \$1;
#X obj 230 269 + 100;
#X obj 209 303 pack f 100;
#X obj 186 106 - 1;
#X obj 186 135 * -1;
#X obj 186 166 min 1;
#X obj 186 195 max 0;
#X obj 103 18 inlet;
#X obj 18 264 *;
#X obj 455 101 r \$0-w;
#X obj 446 159 r \$0-h;
#X msg 76 354 pos \$1 \$2;
#X obj 18 293 + 100;
#X obj 18 322 pack f 100;
#X obj 4 186 min 1;
#X obj 4 215 max 0;
#X obj 87 82 unpack f f;
#X obj 313 390 s \$0-horizontal_cursor-1;
#X obj 61 393 s \$0-vertical_cursor-1;
#X msg 469 47 vis_size \$1 1 \, size 1 \, color 15 15;
#X msg 357 206 vis_size 1 \$1 \, size 1 \, color 15 15;
#X msg 303 99 pos 100 100;
#X obj 95 50 route add update remove;
#X connect 0 0 4 0;
#X connect 1 0 0 1;
#X connect 2 0 22 0;
#X connect 3 0 20 0;
#X connect 4 0 5 0;
#X connect 5 0 3 0;
#X connect 6 0 7 0;
#X connect 7 0 8 0;
#X connect 8 0 9 0;
#X connect 9 0 0 0;
#X connect 10 0 25 0;
#X connect 11 0 15 0;
#X connect 12 0 11 1;
#X connect 13 0 23 0;
#X connect 14 0 21 0;
#X connect 15 0 16 0;
#X connect 16 0 14 0;
#X connect 17 0 18 0;
#X connect 18 0 11 0;
#X connect 19 0 17 0;
#X connect 19 1 6 0;
#X connect 22 0 20 0;
#X connect 23 0 21 0;
#X connect 24 0 21 0;
#X connect 24 0 20 0;
#X connect 25 0 19 0;
#X connect 25 1 19 0;
#X connect 25 2 24 0;
#X restore 1469 946 pd cursor.1;
#N canvas 0 50 1018 441 cursor.2 0;
#X obj 231 226 *;
#X obj 240 32 r \$0-h;
#X obj 437 12 r \$0-w;
#X msg 267 335 pos \$2 \$1;
#X obj 230 269 + 100;
#X obj 209 303 pack f 100;
#X obj 186 106 - 1;
#X obj 186 135 * -1;
#X obj 186 166 min 1;
#X obj 186 195 max 0;
#X obj 103 18 inlet;
#X obj 18 264 *;
#X obj 455 101 r \$0-w;
#X obj 446 159 r \$0-h;
#X msg 76 354 pos \$1 \$2;
#X obj 18 293 + 100;
#X obj 18 322 pack f 100;
#X obj 4 186 min 1;
#X obj 4 215 max 0;
#X obj 87 82 unpack f f;
#X obj 61 394 s \$0-vertical_cursor-2;
#X obj 313 390 s \$0-horizontal_cursor-2;
#X msg 469 47 vis_size \$1 1 \, size 1 \, color 17 17;
#X msg 478 194 vis_size 1 \$1 \, size 1 \, color 17 17;
#X msg 303 99 pos 100 100;
#X obj 95 50 route add update remove;
#X connect 0 0 4 0;
#X connect 1 0 0 1;
#X connect 2 0 22 0;
#X connect 3 0 21 0;
#X connect 4 0 5 0;
#X connect 5 0 3 0;
#X connect 6 0 7 0;
#X connect 7 0 8 0;
#X connect 8 0 9 0;
#X connect 9 0 0 0;
#X connect 10 0 25 0;
#X connect 11 0 15 0;
#X connect 12 0 11 1;
#X connect 13 0 23 0;
#X connect 14 0 20 0;
#X connect 15 0 16 0;
#X connect 16 0 14 0;
#X connect 17 0 18 0;
#X connect 18 0 11 0;
#X connect 19 0 17 0;
#X connect 19 1 6 0;
#X connect 22 0 21 0;
#X connect 23 0 20 0;
#X connect 24 0 21 0;
#X connect 24 0 20 0;
#X connect 25 0 19 0;
#X connect 25 1 19 0;
#X connect 25 2 24 0;
#X restore 1589 916 pd cursor.2;
#N canvas 0 50 890 441 cursor.3 0;
#X obj 231 226 *;
#X obj 240 32 r \$0-h;
#X obj 437 12 r \$0-w;
#X msg 267 335 pos \$2 \$1;
#X obj 230 269 + 100;
#X obj 209 303 pack f 100;
#X obj 186 106 - 1;
#X obj 186 135 * -1;
#X obj 186 166 min 1;
#X obj 186 195 max 0;
#X obj 103 18 inlet;
#X obj 18 264 *;
#X obj 455 101 r \$0-w;
#X obj 446 159 r \$0-h;
#X msg 76 354 pos \$1 \$2;
#X obj 18 293 + 100;
#X obj 18 322 pack f 100;
#X obj 4 186 min 1;
#X obj 4 215 max 0;
#X obj 87 82 unpack f f;
#X obj 61 393 s \$0-vertical_cursor-3;
#X obj 313 390 s \$0-horizontal_cursor-3;
#X msg 469 47 vis_size \$1 1 \, size 1 \, color 18 18;
#X msg 478 194 vis_size 1 \$1 \, size 1 \, color 18 18;
#X msg 303 99 pos 100 100;
#X obj 95 50 route add update remove;
#X connect 0 0 4 0;
#X connect 1 0 0 1;
#X connect 2 0 22 0;
#X connect 3 0 21 0;
#X connect 4 0 5 0;
#X connect 5 0 3 0;
#X connect 6 0 7 0;
#X connect 7 0 8 0;
#X connect 8 0 9 0;
#X connect 9 0 0 0;
#X connect 10 0 25 0;
#X connect 11 0 15 0;
#X connect 12 0 11 1;
#X connect 13 0 23 0;
#X connect 14 0 20 0;
#X connect 15 0 16 0;
#X connect 16 0 14 0;
#X connect 17 0 18 0;
#X connect 18 0 11 0;
#X connect 19 0 17 0;
#X connect 19 1 6 0;
#X connect 22 0 21 0;
#X connect 23 0 20 0;
#X connect 24 0 21 0;
#X connect 24 0 20 0;
#X connect 25 0 19 0;
#X connect 25 1 19 0;
#X connect 25 2 24 0;
#X restore 1599 946 pd cursor.3;
#X obj 100 100 cnv 1 1 60 empty \$0-vertical_cursor-1 empty 20 12 0
14 #e8e828 #404040 0;
#X obj 100 100 cnv 1 60 1 empty \$0-horizontal_cursor-1 empty 20 12
0 14 #e8e828 #404040 0;
#X obj 130 100 cnv 1 1 60 empty \$0-vertical_cursor-2 empty 20 12 0
14 #28f4f4 #404040 0;
#X obj 100 130 cnv 1 60 1 empty \$0-horizontal_cursor-2 empty 20 12
0 14 #28f4f4 #404040 0;
#X obj 130 100 cnv 1 1 60 empty \$0-vertical_cursor-3 empty 20 12 0
14 #3c50fc #404040 0;
#X obj 100 130 cnv 1 60 1 empty \$0-horizontal_cursor-3 empty 20 12
0 14 #3c50fc #404040 0;
#X obj 200 450 select 0;
#X msg 1158 829 0 remove;
#X obj 959 973 outlet;
#X obj 818 872 t a a, f 14;
#X obj 590 593 t a a;
#X obj 818 785 list append;
#X obj 819 821 list prepend 0 remove;
#X obj 614 713 t a b;
#X msg 735 720 list 0 update;
#X obj 591 665 list prepend 0 add;
#X obj 820 566 t b b b;
#X msg 846 637 list 0 add;
#X obj 1113 163 s pd-xy_multitouch_properties(\$0);
#N canvas 109 618 417 458 xy_multitouch_properties(\$0) 0;
#X obj 6 4 cnv 15 400 320 empty empty empty 20 12 0 14 #e0e0e0 #404040
0;
#X floatatom 146 14 5 0 0 0 width \$0-w-rcv \$0-w 0;
#X obj 341 276 bng 40 250 50 0 \$0-ok empty OK 5 20 0 20 #c4fcc4 #000000
#000000;
#X floatatom 283 16 5 0 0 0 height \$0-h-rcv \$0-h 0;
#X symbolatom 91 145 30 0 0 0 send_to \$0-name-rcv \$0-name 0;
#X text 22 117 Messages;
#X floatatom 281 385 5 0 0 0 z-offset \$0-z_offset-rcv \$0-z_offset
0;
#X text 25 333 MobMuPlat Widget Export;
#X obj 157 385 tgl 20 0 \$0-z_offset \$0-z_offset-rcv MoveOnTop -100
8 0 16 #fcfcfc #000000 #000000 0 99;
#X obj 157 365 tgl 20 0 \$0-invisible \$0-invisible-rcv Transparency
-130 8 0 16 #fcfcfc #000000 #000000 0 1;
#X obj 183 365 hsl 60 20 1 0 0 0 \$0-invisible \$0-invisible-rcv empty
-2 -8 0 10 #fcfcfc #000000 #000000 0 1;
#X text 250 361 Opacity;
#X obj 192 289 tgl 15 0 \$0-sft \$0-sft-rcv show_first_touch 17 7 0
10 #fcfcfc #000000 #000000 0 1;
#X text 213 206 back_color;
#X text 211 246 front_color;
#N canvas 412 187 1049 632 color_picker 0;
#X obj 53 150 hsl 128 12 0 255 0 0 empty empty empty -2 -8 0 10 #dcdcdc
#fc0400 #000000 0 0;
#X obj 53 162 hsl 128 12 0 255 0 0 empty empty empty -2 -8 0 10 #dcdcdc
#00fc04 #000000 0 0;
#X obj 53 174 hsl 128 12 0 255 0 0 empty empty empty -2 -8 0 10 #dcdcdc
#0400fc #000000 0 0;
#X obj 183 150 tgl 36 0 empty empty empty 17 7 0 10 #dcdcdc #dcdcdc
#dcdcdc 0 1;
#N canvas 0 50 498 451 convert2rgb 0;
#X obj 53 112 * -1;
#X obj 54 81 + 1;
#X obj 180 183 mod 256;
#X obj 51 179 div 256;
#X obj 52 143 t f f, f 13;
#X obj 49 210 t f f;
#X obj 48 248 div 256;
#X obj 132 250 mod 256;
#X obj 54 51 inlet;
#X obj 49 317 outlet;
#X obj 129 317 outlet;
#X obj 209 317 outlet;
#X connect 0 0 4 0;
#X connect 1 0 0 0;
#X connect 2 0 11 0;
#X connect 3 0 5 0;
#X connect 4 0 3 0;
#X connect 4 1 2 0;
#X connect 5 0 6 0;
#X connect 5 1 7 0;
#X connect 6 0 9 0;
#X connect 7 0 10 0;
#X connect 8 0 1 0;
#X restore 58 76 pd convert2rgb;
#X msg 286 149 color \$1 \$1 \$1;
#X msg 57 112 set \$1;
#X msg 141 109 set \$1;
#X msg 234 111 set \$1;
#X obj 83 332 t b f;
#X obj 144 333 t b f;
#X obj 149 291 i;
#X obj 104 292 i;
#X obj 61 294 i;
#X obj 67 410 expr ($f1*(-65536)+$f2*(-256)+$f3*(-1))-1;
#X obj 66 372 pack f f f;
#X obj 58 14 r \$0-back_color;
#X obj 97 549 s \$0-back_color;
#X obj 58 45 spigot 1;
#X obj 67 457 t b f b;
#X msg 134 495 0;
#X msg 67 486 1;
#X connect 0 0 13 0;
#X connect 1 0 12 0;
#X connect 2 0 11 0;
#X connect 4 0 6 0;
#X connect 4 1 7 0;
#X connect 4 2 8 0;
#X connect 5 0 3 0;
#X connect 6 0 0 0;
#X connect 7 0 1 0;
#X connect 8 0 2 0;
#X connect 9 0 15 0;
#X connect 9 1 15 1;
#X connect 10 0 15 0;
#X connect 10 1 15 2;
#X connect 11 0 10 0;
#X connect 12 0 9 0;
#X connect 13 0 15 0;
#X connect 14 0 19 0;
#X connect 15 0 14 0;
#X connect 16 0 5 0;
#X connect 16 0 18 0;
#X connect 18 0 4 0;
#X connect 19 0 21 0;
#X connect 19 1 17 0;
#X connect 19 2 20 0;
#X connect 20 0 18 1;
#X connect 21 0 18 1;
#X coords 0 -1 1 1 169 36 2 50 150;
#X restore 37 201 pd color_picker;
#N canvas 882 181 1049 632 color_picker 0;
#X obj 53 150 hsl 128 12 0 255 0 0 empty empty empty -2 -8 0 10 #dcdcdc
#fc0400 #000000 0 0;
#X obj 53 162 hsl 128 12 0 255 0 0 empty empty empty -2 -8 0 10 #dcdcdc
#00fc04 #000000 0 0;
#X obj 53 174 hsl 128 12 0 255 0 0 empty empty empty -2 -8 0 10 #dcdcdc
#0400fc #000000 0 0;
#X obj 183 150 tgl 36 0 empty empty empty 17 7 0 10 #c8c8c8 #c8c8c8
#c8c8c8 0 1;
#N canvas 0 50 498 451 convert2rgb 0;
#X obj 53 112 * -1;
#X obj 54 81 + 1;
#X obj 180 183 mod 256;
#X obj 51 179 div 256;
#X obj 52 143 t f f, f 13;
#X obj 49 210 t f f;
#X obj 48 248 div 256;
#X obj 132 250 mod 256;
#X obj 54 51 inlet;
#X obj 49 317 outlet;
#X obj 129 317 outlet;
#X obj 209 317 outlet;
#X connect 0 0 4 0;
#X connect 1 0 0 0;
#X connect 2 0 11 0;
#X connect 3 0 5 0;
#X connect 4 0 3 0;
#X connect 4 1 2 0;
#X connect 5 0 6 0;
#X connect 5 1 7 0;
#X connect 6 0 9 0;
#X connect 7 0 10 0;
#X connect 8 0 1 0;
#X restore 58 76 pd convert2rgb;
#X msg 286 149 color \$1 \$1 \$1;
#X msg 57 112 set \$1;
#X msg 141 109 set \$1;
#X msg 234 111 set \$1;
#X obj 83 332 t b f;
#X obj 144 333 t b f;
#X obj 149 291 i;
#X obj 104 292 i;
#X obj 61 294 i;
#X obj 67 410 expr ($f1*(-65536)+$f2*(-256)+$f3*(-1))-1;
#X obj 66 372 pack f f f;
#X obj 58 45 spigot 1;
#X obj 67 457 t b f b;
#X msg 134 495 0;
#X msg 67 486 1;
#X obj 58 14 r \$0-front_color;
#X obj 97 549 s \$0-front_color;
#X connect 0 0 13 0;
#X connect 1 0 12 0;
#X connect 2 0 11 0;
#X connect 4 0 6 0;
#X connect 4 1 7 0;
#X connect 4 2 8 0;
#X connect 5 0 3 0;
#X connect 6 0 0 0;
#X connect 7 0 1 0;
#X connect 8 0 2 0;
#X connect 9 0 15 0;
#X connect 9 1 15 1;
#X connect 10 0 15 0;
#X connect 10 1 15 2;
#X connect 11 0 10 0;
#X connect 12 0 9 0;
#X connect 13 0 15 0;
#X connect 14 0 17 0;
#X connect 15 0 14 0;
#X connect 16 0 4 0;
#X connect 17 0 19 0;
#X connect 17 1 21 0;
#X connect 17 2 18 0;
#X connect 18 0 16 1;
#X connect 19 0 16 1;
#X connect 20 0 5 0;
#X connect 20 0 16 0;
#X coords 0 -1 1 1 169 36 2 50 150;
#X restore 37 241 pd color_picker;
#X floatatom 141 71 5 0 0 0 xmin \$0-xmin-rcv \$0-xmin 0;
#X floatatom 252 71 5 0 0 0 xmax \$0-xmax-rcv \$0-xmax 0;
#X text 13 48 Values range;
#X floatatom 141 94 5 0 0 0 ymin \$0-ymin-rcv \$0-ymin 0;
#X floatatom 252 94 5 0 0 0 ymax \$0-ymax-rcv \$0-ymax 0;
#X text 140 40 ________________;
#X obj 92 171 cnv 15 300 20 empty \$0-receive_name-rcv Untitled_2*-rcv
2 10 0 16 #f0fcf8 #404040 0;
#X text 17 169 receive;
#X restore 1115 196 pd xy_multitouch_properties(\$0);
#X obj 1154 795 list prepend 0 update;
#N canvas 0 50 916 668 mapping 0;
#X obj 107 49 inlet;
#X obj 131 369 outlet;
#X obj 135 337 pack f f;
#X obj 120 235 *;
#X obj 285 119 -;
#X obj 129 270 +;
#X obj 346 70 t b f f;
#X obj 314 241 *;
#X obj 337 290 +;
#X obj 106 80 unpack f f;
#X obj 110 106 min 1;
#X obj 114 136 max 0;
#X obj 183 113 min 1;
#X obj 197 143 max 0;
#X obj 430 128 -;
#X obj 488 72 t b f f;
#X obj 271 2 r \$0-xmax;
#X obj 322 44 r \$0-xmin;
#X obj 431 2 r \$0-ymax;
#X obj 482 44 r \$0-ymin;
#X connect 0 0 9 0;
#X connect 2 0 1 0;
#X connect 3 0 5 0;
#X connect 4 0 3 1;
#X connect 5 0 2 0;
#X connect 6 0 4 0;
#X connect 6 1 5 1;
#X connect 6 2 4 1;
#X connect 7 0 8 0;
#X connect 8 0 2 1;
#X connect 9 0 10 0;
#X connect 9 1 12 0;
#X connect 10 0 11 0;
#X connect 11 0 3 0;
#X connect 12 0 13 0;
#X connect 13 0 7 0;
#X connect 14 0 7 1;
#X connect 15 0 14 0;
#X connect 15 1 8 1;
#X connect 15 2 14 1;
#X connect 16 0 4 0;
#X connect 17 0 6 0;
#X connect 18 0 14 0;
#X connect 19 0 15 0;
#X restore 588 629 pd mapping;
#N canvas 0 50 448 669 compute_xy_values 0;
#X obj 68 33 inlet;
#X obj 46 552 outlet;
#X obj 203 210 r \$0-pos;
#X obj 201 245 unpack f f;
#X obj 56 306 -;
#X obj 165 307 -;
#X obj 55 268 unpack f f f;
#X obj 64 98 t l b;
#X obj 50 237 spigot 1;
#X obj 127 204 == 0;
#X obj 43 387 / 60;
#X obj 53 499 pack f f;
#X obj 101 355 r \$0-w;
#X obj 189 354 r \$0-h;
#X obj 142 395 / 60;
#X obj 148 433 * -1;
#X obj 132 470 + 1;
#X msg 129 122 0;
#X obj 115 158 v \$0-slot_listener.status.0;
#X connect 0 0 7 0;
#X connect 2 0 3 0;
#X connect 3 0 4 1;
#X connect 3 1 5 1;
#X connect 4 0 10 0;
#X connect 5 0 14 0;
#X connect 6 0 4 0;
#X connect 6 1 5 0;
#X connect 7 0 8 0;
#X connect 7 1 17 0;
#X connect 8 0 6 0;
#X connect 9 0 8 1;
#X connect 10 0 11 0;
#X connect 11 0 1 0;
#X connect 12 0 10 1;
#X connect 13 0 14 1;
#X connect 14 0 15 0;
#X connect 15 0 16 0;
#X connect 16 0 11 1;
#X connect 17 0 18 0;
#X connect 18 0 9 0;
#X restore 575 510 pd compute_xy_values;
#X obj 372 143 t b;
#N canvas 0 0 1568 1015 mmp-export-MMPMultiTouch 0;
#X obj 256 32 r \$0-x;
#X obj 312 32 r \$0-y;
#X obj 458 32 r \$0-h;
#X obj 379 28 r \$0-w;
#X obj 107 155 f;
#X obj 447 68 r \$0-range;
#X obj 81 675 list append 125;
#X obj 81 653 list prepend add 123;
#X obj 94 717 list trim;
#X obj 94 751 s MMP_BINFILE;
#X obj 363 358 v MMP_FIRST_GUI_ITEM;
#X obj 363 392 select 1;
#X msg 454 514 add 44 123;
#X msg 335 516 add 123;
#X msg 329 429 0;
#X obj 358 464 v MMP_FIRST_GUI_ITEM;
#X obj 108 322 pack f f f f f s f f f 1 f f f 1, f 63;
#X obj 487 561 iemguts/canvasposition 1;
#X obj 565 661 s \$0-y;
#X obj 479 627 s \$0-x;
#X obj 485 587 unpack f f;
#X obj 28 591 list fromsymbol;
#X obj 760 283 v WIDGET-ID;
#X obj 760 308 + 1;
#X obj 760 333 s WIDGET-ID;
#X obj 129 118 t b b b b b, f 43;
#X obj 537 174 r \$0-name;
#X obj 414 162 r WIDGET-ID;
#X obj 416 193 list append;
#X msg 416 222 symbol \$1.\$2;
#X obj 83 251 * 1;
#X obj 158 252 * 1;
#X obj 308 251 * 1;
#X obj 236 250 * 1;
#X obj 127 207 t f b f b f b f, f 23;
#X obj 168 166 r MOB_ZOOM;
#N canvas 278 130 450 300 MMP_EXPORT_BY_INDEX 0;
#X obj 151 40 r MMP_EXPORT_BY_INDEX;
#X obj 151 69 t f b;
#X obj 203 96 canvasindex 2;
#X obj 146 235 select;
#X obj 146 268 outlet;
#X text 38 6 enable z-order;
#X obj 202 145 + 0;
#X obj 249 126 r \$0-z_offset;
#X obj 202 174 max 0;
#X obj 202 203 min 1;
#X obj 298 171 - 1;
#X connect 0 0 1 0;
#X connect 1 0 3 0;
#X connect 1 1 2 0;
#X connect 2 0 6 0;
#X connect 2 1 10 0;
#X connect 3 0 4 0;
#X connect 6 0 8 0;
#X connect 7 0 6 1;
#X connect 8 0 9 0;
#X connect 9 0 3 1;
#X connect 10 0 9 1;
#X restore 81 79 pd MMP_EXPORT_BY_INDEX;
#X obj 760 173 r \$0-invisible;
#X obj 764 242 * -1;
#X obj 762 207 - 1;
#X msg 42 417 symbol "highlightColor":[\$11\\\,\$12\\\,\$13\\\,\$14]\\\,"address":"\$6"\\\,"color":[\$7\\\,\$8\\\,\$9\\\,\$10]\\\,"class":"MMPMultiTouch"\\\,"frame":[\$1\\\,\$2\\\,\$3\\\,\$4]
, f 23;
#X obj 636 23 r \$0-back_color;
#N canvas 0 50 534 640 canvas_color_to_rgb 0;
#X obj 119 35 inlet;
#X obj 121 96 + 1;
#X obj 121 125 * -1;
#X obj 134 159 t f f f;
#X obj 45 193 / 65536;
#X obj 163 194 / 256;
#X obj 247 197 mod 256;
#X obj 163 223 mod 256;
#X obj 45 222 int;
#X obj 45 251 / 255;
#X obj 163 252 / 255;
#X obj 247 226 / 255;
#X obj 40 283 outlet;
#X obj 164 285 outlet;
#X obj 254 283 outlet;
#X connect 0 0 1 0;
#X connect 1 0 2 0;
#X connect 2 0 3 0;
#X connect 3 0 4 0;
#X connect 3 1 5 0;
#X connect 3 2 6 0;
#X connect 4 0 8 0;
#X connect 5 0 7 0;
#X connect 6 0 11 0;
#X connect 7 0 10 0;
#X connect 8 0 9 0;
#X connect 9 0 12 0;
#X connect 10 0 13 0;
#X connect 11 0 14 0;
#X restore 608 59 pd canvas_color_to_rgb;
#N canvas 0 50 534 640 canvas_color_to_rgb 0;
#X obj 119 35 inlet;
#X obj 121 96 + 1;
#X obj 121 125 * -1;
#X obj 134 159 t f f f;
#X obj 45 193 / 65536;
#X obj 163 194 / 256;
#X obj 247 197 mod 256;
#X obj 163 223 mod 256;
#X obj 45 222 int;
#X obj 45 251 / 255;
#X obj 163 252 / 255;
#X obj 247 226 / 255;
#X obj 40 283 outlet;
#X obj 164 285 outlet;
#X obj 254 283 outlet;
#X connect 0 0 1 0;
#X connect 1 0 2 0;
#X connect 2 0 3 0;
#X connect 3 0 4 0;
#X connect 3 1 5 0;
#X connect 3 2 6 0;
#X connect 4 0 8 0;
#X connect 5 0 7 0;
#X connect 6 0 11 0;
#X connect 7 0 10 0;
#X connect 8 0 9 0;
#X connect 9 0 12 0;
#X connect 10 0 13 0;
#X connect 11 0 14 0;
#X restore 650 138 pd canvas_color_to_rgb;
#X obj 641 90 r \$0-front_color;
#N canvas 40 169 1101 721 export_args 0;
#X obj 371 334 iemguts/canvasargs 2;
#X obj 275 58 inlet;
#X obj 461 29 r \$0-name;
#X obj 404 86 symbol;
#X obj 404 115 t s s;
#X msg 444 146 symbol \$1-rcv;
#X obj 524 76 r WIDGET-ID;
#X obj 439 281 pack s s f f f f f;
#X obj 619 135 r \$0-xmin;
#X obj 620 174 r \$0-xmax;
#X obj 719 135 r \$0-ymin;
#X obj 720 174 r \$0-ymax;
#X connect 1 0 3 0;
#X connect 2 0 3 1;
#X connect 3 0 4 0;
#X connect 4 0 7 0;
#X connect 4 1 5 0;
#X connect 5 0 7 1;
#X connect 6 0 7 2;
#X connect 7 0 0 0;
#X connect 8 0 7 3;
#X connect 9 0 7 4;
#X connect 10 0 7 5;
#X connect 11 0 7 6;
#X restore 937 440 pd export_args;
#X connect 0 0 4 1;
#X connect 1 0 31 0;
#X connect 2 0 32 0;
#X connect 3 0 33 0;
#X connect 4 0 30 0;
#X connect 5 0 16 4;
#X connect 6 0 8 0;
#X connect 7 0 6 0;
#X connect 8 0 9 0;
#X connect 10 0 11 0;
#X connect 11 0 13 0;
#X connect 11 0 14 0;
#X connect 11 1 12 0;
#X connect 12 0 7 1;
#X connect 13 0 7 1;
#X connect 14 0 15 0;
#X connect 16 0 40 0;
#X connect 17 0 20 0;
#X connect 20 0 19 0;
#X connect 20 1 18 0;
#X connect 21 0 7 0;
#X connect 22 0 23 0;
#X connect 23 0 24 0;
#X connect 25 0 4 0;
#X connect 25 1 10 0;
#X connect 25 2 17 0;
#X connect 25 3 45 0;
#X connect 25 4 22 0;
#X connect 26 0 28 1;
#X connect 27 0 28 0;
#X connect 28 0 29 0;
#X connect 29 0 16 5;
#X connect 30 0 16 0;
#X connect 31 0 16 1;
#X connect 32 0 16 3;
#X connect 33 0 16 2;
#X connect 34 0 30 1;
#X connect 34 1 31 0;
#X connect 34 2 31 1;
#X connect 34 3 33 0;
#X connect 34 4 33 1;
#X connect 34 5 32 0;
#X connect 34 6 32 1;
#X connect 35 0 34 0;
#X connect 36 0 25 0;
#X connect 37 0 39 0;
#X connect 38 0 16 13;
#X connect 38 0 16 9;
#X connect 39 0 38 0;
#X connect 40 0 21 0;
#X connect 41 0 42 0;
#X connect 42 0 16 6;
#X connect 42 1 16 7;
#X connect 42 2 16 8;
#X connect 43 0 16 10;
#X connect 43 1 16 11;
#X connect 43 2 16 12;
#X connect 44 0 43 0;
#X restore 1117 269 pd mmp-export-MMPMultiTouch;
#N canvas 580 562 916 666 colors 0;
#X obj 74 37 inlet;
#X obj 65 92 select 1 0;
#X obj 283 78 r \$0-back_color;
#X obj 428 286 r \$0-front_color;
#X msg 383 366 color -1.31586e+07 -1.31586e+07 -1.31586e+07;
#X msg 419 314 set color \$1 \$1 \$1;
#X text 325 512 ext. feedback;
#X obj 323 487 s \$0-gui-rcv;
#X msg 389 202 color \$1 \$1;
#X msg 256 152 set color \$1 \$1 \$1;
#X msg 283 239 color -1.44745e+07 -1.44745e+07 -1.44745e+07;
#X connect 0 0 1 0;
#X connect 1 0 4 0;
#X connect 1 1 10 0;
#X connect 2 0 9 0;
#X connect 2 0 8 0;
#X connect 3 0 5 0;
#X connect 4 0 7 0;
#X connect 5 0 4 0;
#X connect 8 0 7 0;
#X connect 9 0 10 0;
#X connect 10 0 7 0;
#X restore 57 756 pd colors;
#N canvas 0 50 450 300 resize_gui 0;
#X msg 93 154 size \$1 \$2;
#X obj 89 91 r \$0-w;
#X obj 168 27 r \$0-h;
#X obj 93 125 pack f f;
#X obj 168 56 - 6;
#X obj 170 86 t b f;
#X obj 93 183 s \$0-gui-rcv;
#X connect 0 0 6 0;
#X connect 1 0 3 0;
#X connect 2 0 4 0;
#X connect 3 0 0 0;
#X connect 4 0 5 0;
#X connect 5 0 3 0;
#X connect 5 1 3 1;
#X restore 49 682 pd resize_gui;
#X obj 579 359 inlet;
#X obj 589 427 route list set;
#N canvas 770 9 1149 924 multitouch_listener 0;
#X obj 56 42 inlet;
#X obj 44 629 select 1;
#X obj 46 691 pack f f;
#X obj 44 659 f \$0;
#X obj 73 771 tabwrite MULTITOUCH.SLOT.STATUS;
#X obj 42 811 list append, f 14;
#X obj 58 127 spigot 1;
#X msg 156 65 0;
#X msg 212 102 1;
#X obj 393 67 route remove update;
#X obj 185 263 tabread MULTITOUCH.SLOT.STATUS;
#X obj 58 163 list split 2;
#X obj 52 333 spigot;
#X obj 185 322 == 0;
#X text 193 294 check if slot still free;
#X obj 152 221 t f f f;
#X obj 596 555 pack f f;
#X obj 46 728 t b l b l b;
#X obj 181 611 pack f f;
#X obj 54 478 t f f;
#X obj 382 103 t b b b b;
#X obj 306 818 list append 0 0;
#X obj 39 930 outlet;
#X msg 27 856 add \$1 \$2;
#X msg 149 859 update \$1 \$2;
#X msg 309 862 remove \$1 \$2;
#X text 777 42 la table MULTITOUCH.SLOT.STATUS indique si chaque slot
(tracker de touch-event) est associé ou non à un élément GUI multitouch.
Si tel est le cas \, l'éĺément i de la table associé au slot i
prend la valeur \$0 du touch_listener auquel il est associé, f 33
;
#X obj 210 469 t f f;
#N canvas 0 50 450 300 Is_inside_Gui_object? 0;
#X obj 53 38 inlet;
#X obj 225 38 inlet;
#X obj 59 266 outlet;
#X obj 53 130 - 100;
#X obj 222 126 - 100;
#X obj 48 166 abs;
#X obj 222 157 abs;
#X obj 47 198 < 100;
#X obj 219 192 < 100;
#X obj 55 231 &&;
#X obj 145 72 / 2;
#X obj 309 63 / 2;
#X obj 139 42 r \$0-w;
#X obj 309 39 r \$0-h;
#X connect 0 0 3 0;
#X connect 1 0 4 0;
#X connect 3 0 5 0;
#X connect 4 0 6 0;
#X connect 5 0 7 0;
#X connect 6 0 8 0;
#X connect 7 0 9 0;
#X connect 8 0 9 1;
#X connect 9 0 2 0;
#X connect 10 0 3 1;
#X connect 10 0 7 1;
#X connect 11 0 4 1;
#X connect 11 0 8 1;
#X connect 12 0 10 0;
#X connect 13 0 11 0;
#X restore 46 541 pd Is_inside_Gui_object?;
#X f 10;
#N canvas 0 50 450 271 Gui_object_relative_coords 0;
#X obj 57 45 inlet;
#X obj 75 261 outlet;
#X obj 232 264 outlet;
#X obj 196 83 unpack f f;
#X obj 64 144 -;
#X obj 225 142 -;
#X obj 59 100 unpack f f;
#X obj 200 53 r \$0-pos;
#X connect 0 0 6 0;
#X connect 3 0 4 1;
#X connect 3 1 5 1;
#X connect 4 0 1 0;
#X connect 5 0 2 0;
#X connect 6 0 4 0;
#X connect 6 1 5 0;
#X connect 7 0 3 0;
#X restore 50 375 pd Gui_object_relative_coords;
#X f 13;
#N canvas 0 50 450 300 Normalize_coords 0;
#X obj 48 31 inlet;
#X obj 318 31 inlet;
#X obj 38 241 outlet;
#X obj 308 241 outlet;
#X obj 47 145 /;
#X obj 318 106 /;
#X obj 339 157 * -1;
#X obj 339 185 + 1;
#X obj 160 54 r \$0-w;
#X obj 398 58 r \$0-h;
#X connect 0 0 4 0;
#X connect 1 0 5 0;
#X connect 4 0 2 0;
#X connect 5 0 6 0;
#X connect 6 0 7 0;
#X connect 7 0 3 0;
#X connect 8 0 4 1;
#X connect 9 0 5 1;
#X restore 178 539 pd Normalize_coords;
#X f 10;
#N canvas 0 50 450 271 Gui_object_relative_coords 0;
#X obj 57 45 inlet;
#X obj 75 261 outlet;
#X obj 232 264 outlet;
#X obj 196 83 unpack f f;
#X obj 64 144 -;
#X obj 225 142 -;
#X obj 59 100 unpack f f;
#X obj 200 53 r \$0-pos;
#X connect 0 0 6 0;
#X connect 3 0 4 1;
#X connect 3 1 5 1;
#X connect 4 0 1 0;
#X connect 5 0 2 0;
#X connect 6 0 4 0;
#X connect 6 1 5 0;
#X connect 7 0 3 0;
#X restore 591 408 pd Gui_object_relative_coords;
#X f 13;
#N canvas 0 50 450 300 Normalize_coords 0;
#X obj 48 31 inlet;
#X obj 318 31 inlet;
#X obj 38 241 outlet;
#X obj 308 241 outlet;
#X obj 47 145 /;
#X obj 318 106 /;
#X obj 339 157 * -1;
#X obj 339 185 + 1;
#X obj 160 54 r \$0-w;
#X obj 398 58 r \$0-h;
#X connect 0 0 4 0;
#X connect 1 0 5 0;
#X connect 4 0 2 0;
#X connect 5 0 6 0;
#X connect 6 0 7 0;
#X connect 7 0 3 0;
#X connect 8 0 4 1;
#X connect 9 0 5 1;
#X restore 592 487 pd Normalize_coords;
#X f 10;
#X obj 594 615 t l l;
#X text 399 764 associe le slot i de la table MULTITOUCH.SLOT.STATUS
au \$0 du présent touch_listener, f 52;
#X obj 392 33 tools/r_dollarzero_channel;
#X connect 0 0 6 0;
#X connect 1 0 3 0;
#X connect 2 0 17 0;
#X connect 3 0 2 0;
#X connect 5 0 23 0;
#X connect 6 0 11 0;
#X connect 7 0 6 1;
#X connect 8 0 6 1;
#X connect 9 0 20 0;
#X connect 9 1 31 0;
#X connect 9 2 22 0;
#X connect 10 0 13 0;
#X connect 11 0 12 0;
#X connect 11 1 15 0;
#X connect 12 0 29 0;
#X connect 13 0 12 1;
#X connect 15 0 2 1;
#X connect 15 1 10 0;
#X connect 16 0 33 0;
#X connect 17 0 5 0;
#X connect 17 1 4 0;
#X connect 17 2 7 0;
#X connect 18 0 5 1;
#X connect 18 0 21 1;
#X connect 19 0 28 0;
#X connect 19 1 30 0;
#X connect 20 0 8 0;
#X connect 20 1 21 0;
#X connect 21 0 25 0;
#X connect 23 0 22 0;
#X connect 24 0 22 0;
#X connect 25 0 22 0;
#X connect 27 0 28 1;
#X connect 27 1 30 1;
#X connect 28 0 1 0;
#X connect 29 0 19 0;
#X connect 29 1 27 0;
#X connect 30 0 18 0;
#X connect 30 1 18 1;
#X connect 31 0 32 0;
#X connect 31 1 32 1;
#X connect 32 0 16 0;
#X connect 32 1 16 1;
#X connect 33 0 24 0;
#X connect 33 1 21 1;
#X connect 35 0 9 0;
#X connect 35 1 3 1;
#X restore 1409 449 pd multitouch_listener;
#X obj 1410 480 list prepend 0;
#N canvas 221 190 884 529 receive_MULTITOUCH.MODE2.parent\$0 0;
#X msg 176 71 bang;
#X obj 254 70 loadbang;
#X obj 230 430 outlet;
#X obj 181 104 iemguts/canvasdollarzero 2;
#N canvas 0 50 450 184 \$0-dynamic-receiver 0;
#X obj 10 10 r MULTITOUCH.MODE2.1003;
#X obj 10 50 s 1004-iem_receive;
#X connect 0 0 1 0;
#X restore 222 306 pd \$0-dynamic-receiver;
#X obj 219 147 pack s \$0;
#X obj 220 227 s pd-\$0-dynamic-receiver;
#X obj 230 395 r \$0-iem_receive;
#X msg 121 193 clear;
#X text 25 17 création dynamique d'un receiver avec un nom de canal
défini au moment de l'ouverture du patch;
#X msg 220 179 clear \, obj 10 10 r MULTITOUCH.MODE2.\$1 \, obj 10
50 s \$2-iem_receive \, connect 0 0 1 0;
#X text 423 381 A chaque nouvel événement touch-down \, [r MULTITOUCH.MODE2.\$1]
recoit un message sous la forme suivante : <x> <y> <slotID>, f 37
;
#X connect 0 0 3 0;
#X connect 1 0 3 0;
#X connect 3 0 5 0;
#X connect 5 0 10 0;
#X connect 7 0 2 0;
#X connect 8 0 6 0;
#X connect 10 0 6 0;
#X restore 1104 386 pd receive_MULTITOUCH.MODE2.parent\$0;
#X obj 1104 415 t a a a a, f 31;
#N canvas 770 9 1149 924 multitouch_listener 0;
#X obj 56 42 inlet;
#X obj 44 629 select 1;
#X obj 46 691 pack f f;
#X obj 44 659 f \$0;
#X obj 73 771 tabwrite MULTITOUCH.SLOT.STATUS;
#X obj 42 811 list append, f 14;
#X obj 58 127 spigot 1;
#X msg 156 65 0;
#X msg 212 102 1;
#X obj 393 67 route remove update;
#X obj 185 263 tabread MULTITOUCH.SLOT.STATUS;
#X obj 58 163 list split 2;
#X obj 52 333 spigot;
#X obj 185 322 == 0;
#X text 193 294 check if slot still free;
#X obj 152 221 t f f f;
#X obj 596 555 pack f f;
#X obj 46 728 t b l b l b;
#X obj 181 611 pack f f;
#X obj 54 478 t f f;
#X obj 382 103 t b b b b;
#X obj 306 818 list append 0 0;
#X obj 39 930 outlet;
#X msg 27 856 add \$1 \$2;
#X msg 149 859 update \$1 \$2;
#X msg 309 862 remove \$1 \$2;
#X text 777 42 la table MULTITOUCH.SLOT.STATUS indique si chaque slot
(tracker de touch-event) est associé ou non à un élément GUI multitouch.
Si tel est le cas \, l'éĺément i de la table associé au slot i
prend la valeur \$0 du touch_listener auquel il est associé, f 33
;
#X obj 210 469 t f f;
#N canvas 0 50 450 300 Is_inside_Gui_object? 0;
#X obj 53 38 inlet;
#X obj 225 38 inlet;
#X obj 59 266 outlet;
#X obj 53 130 - 100;
#X obj 222 126 - 100;
#X obj 48 166 abs;
#X obj 222 157 abs;
#X obj 47 198 < 100;
#X obj 219 192 < 100;
#X obj 55 231 &&;
#X obj 145 72 / 2;
#X obj 309 63 / 2;
#X obj 139 42 r \$0-w;
#X obj 309 39 r \$0-h;
#X connect 0 0 3 0;
#X connect 1 0 4 0;
#X connect 3 0 5 0;
#X connect 4 0 6 0;
#X connect 5 0 7 0;
#X connect 6 0 8 0;
#X connect 7 0 9 0;
#X connect 8 0 9 1;
#X connect 9 0 2 0;
#X connect 10 0 3 1;
#X connect 10 0 7 1;
#X connect 11 0 4 1;
#X connect 11 0 8 1;
#X connect 12 0 10 0;
#X connect 13 0 11 0;
#X restore 46 541 pd Is_inside_Gui_object?;
#X f 10;
#N canvas 0 50 450 271 Gui_object_relative_coords 0;
#X obj 57 45 inlet;
#X obj 75 261 outlet;
#X obj 232 264 outlet;
#X obj 196 83 unpack f f;
#X obj 64 144 -;
#X obj 225 142 -;
#X obj 59 100 unpack f f;
#X obj 200 53 r \$0-pos;
#X connect 0 0 6 0;
#X connect 3 0 4 1;
#X connect 3 1 5 1;
#X connect 4 0 1 0;
#X connect 5 0 2 0;
#X connect 6 0 4 0;
#X connect 6 1 5 0;
#X connect 7 0 3 0;
#X restore 50 375 pd Gui_object_relative_coords;
#X f 13;
#N canvas 0 50 450 300 Normalize_coords 0;
#X obj 48 31 inlet;
#X obj 318 31 inlet;
#X obj 38 241 outlet;
#X obj 308 241 outlet;
#X obj 47 145 /;
#X obj 318 106 /;
#X obj 339 157 * -1;
#X obj 339 185 + 1;
#X obj 160 54 r \$0-w;
#X obj 398 58 r \$0-h;
#X connect 0 0 4 0;
#X connect 1 0 5 0;
#X connect 4 0 2 0;
#X connect 5 0 6 0;
#X connect 6 0 7 0;
#X connect 7 0 3 0;
#X connect 8 0 4 1;
#X connect 9 0 5 1;
#X restore 178 539 pd Normalize_coords;
#X f 10;
#N canvas 0 50 450 271 Gui_object_relative_coords 0;
#X obj 57 45 inlet;
#X obj 75 261 outlet;
#X obj 232 264 outlet;
#X obj 196 83 unpack f f;
#X obj 64 144 -;
#X obj 225 142 -;
#X obj 59 100 unpack f f;
#X obj 200 53 r \$0-pos;
#X connect 0 0 6 0;
#X connect 3 0 4 1;
#X connect 3 1 5 1;
#X connect 4 0 1 0;
#X connect 5 0 2 0;
#X connect 6 0 4 0;
#X connect 6 1 5 0;
#X connect 7 0 3 0;
#X restore 591 408 pd Gui_object_relative_coords;
#X f 13;
#N canvas 0 50 450 300 Normalize_coords 0;
#X obj 48 31 inlet;
#X obj 318 31 inlet;
#X obj 38 241 outlet;
#X obj 308 241 outlet;
#X obj 47 145 /;
#X obj 318 106 /;
#X obj 339 157 * -1;
#X obj 339 185 + 1;
#X obj 160 54 r \$0-w;
#X obj 398 58 r \$0-h;
#X connect 0 0 4 0;
#X connect 1 0 5 0;
#X connect 4 0 2 0;
#X connect 5 0 6 0;
#X connect 6 0 7 0;
#X connect 7 0 3 0;
#X connect 8 0 4 1;
#X connect 9 0 5 1;
#X restore 592 487 pd Normalize_coords;
#X f 10;
#X obj 594 615 t l l;
#X text 399 764 associe le slot i de la table MULTITOUCH.SLOT.STATUS
au \$0 du présent touch_listener, f 52;
#X obj 392 33 tools/r_dollarzero_channel;
#X connect 0 0 6 0;
#X connect 1 0 3 0;
#X connect 2 0 17 0;
#X connect 3 0 2 0;
#X connect 5 0 23 0;
#X connect 6 0 11 0;
#X connect 7 0 6 1;
#X connect 8 0 6 1;
#X connect 9 0 20 0;
#X connect 9 1 31 0;
#X connect 9 2 22 0;
#X connect 10 0 13 0;
#X connect 11 0 12 0;
#X connect 11 1 15 0;
#X connect 12 0 29 0;
#X connect 13 0 12 1;
#X connect 15 0 2 1;
#X connect 15 1 10 0;
#X connect 16 0 33 0;
#X connect 17 0 5 0;
#X connect 17 1 4 0;
#X connect 17 2 7 0;
#X connect 18 0 5 1;
#X connect 18 0 21 1;
#X connect 19 0 28 0;
#X connect 19 1 30 0;
#X connect 20 0 8 0;
#X connect 20 1 21 0;
#X connect 21 0 25 0;
#X connect 23 0 22 0;
#X connect 24 0 22 0;
#X connect 25 0 22 0;
#X connect 27 0 28 1;
#X connect 27 1 30 1;
#X connect 28 0 1 0;
#X connect 29 0 19 0;
#X connect 29 1 27 0;
#X connect 30 0 18 0;
#X connect 30 1 18 1;
#X connect 31 0 32 0;
#X connect 31 1 32 1;
#X connect 32 0 16 0;
#X connect 32 1 16 1;
#X connect 33 0 24 0;
#X connect 33 1 21 1;
#X connect 35 0 9 0;
#X connect 35 1 3 1;
#X restore 1308 519 pd multitouch_listener;
#N canvas 770 9 1149 924 multitouch_listener 0;
#X obj 56 42 inlet;
#X obj 44 629 select 1;
#X obj 46 691 pack f f;
#X obj 44 659 f \$0;
#X obj 73 771 tabwrite MULTITOUCH.SLOT.STATUS;
#X obj 42 811 list append, f 14;
#X obj 58 127 spigot 1;
#X msg 156 65 0;
#X msg 212 102 1;
#X obj 393 67 route remove update;
#X obj 185 263 tabread MULTITOUCH.SLOT.STATUS;
#X obj 58 163 list split 2;
#X obj 52 333 spigot;
#X obj 185 322 == 0;
#X text 193 294 check if slot still free;
#X obj 152 221 t f f f;
#X obj 596 555 pack f f;
#X obj 46 728 t b l b l b;
#X obj 181 611 pack f f;
#X obj 54 478 t f f;
#X obj 382 103 t b b b b;
#X obj 306 818 list append 0 0;
#X obj 39 930 outlet;
#X msg 27 856 add \$1 \$2;
#X msg 149 859 update \$1 \$2;
#X msg 309 862 remove \$1 \$2;
#X text 777 42 la table MULTITOUCH.SLOT.STATUS indique si chaque slot
(tracker de touch-event) est associé ou non à un élément GUI multitouch.
Si tel est le cas \, l'éĺément i de la table associé au slot i
prend la valeur \$0 du touch_listener auquel il est associé, f 33
;
#X obj 210 469 t f f;
#N canvas 0 50 450 300 Is_inside_Gui_object? 0;
#X obj 53 38 inlet;
#X obj 225 38 inlet;
#X obj 59 266 outlet;
#X obj 53 130 - 100;
#X obj 222 126 - 100;
#X obj 48 166 abs;
#X obj 222 157 abs;
#X obj 47 198 < 100;
#X obj 219 192 < 100;
#X obj 55 231 &&;
#X obj 145 72 / 2;
#X obj 309 63 / 2;
#X obj 139 42 r \$0-w;
#X obj 309 39 r \$0-h;
#X connect 0 0 3 0;
#X connect 1 0 4 0;
#X connect 3 0 5 0;
#X connect 4 0 6 0;
#X connect 5 0 7 0;
#X connect 6 0 8 0;
#X connect 7 0 9 0;
#X connect 8 0 9 1;
#X connect 9 0 2 0;
#X connect 10 0 3 1;
#X connect 10 0 7 1;
#X connect 11 0 4 1;
#X connect 11 0 8 1;
#X connect 12 0 10 0;
#X connect 13 0 11 0;
#X restore 46 541 pd Is_inside_Gui_object?;
#X f 10;
#N canvas 0 50 450 271 Gui_object_relative_coords 0;
#X obj 57 45 inlet;
#X obj 75 261 outlet;
#X obj 232 264 outlet;
#X obj 196 83 unpack f f;
#X obj 64 144 -;
#X obj 225 142 -;
#X obj 59 100 unpack f f;
#X obj 200 53 r \$0-pos;
#X connect 0 0 6 0;
#X connect 3 0 4 1;
#X connect 3 1 5 1;
#X connect 4 0 1 0;
#X connect 5 0 2 0;
#X connect 6 0 4 0;
#X connect 6 1 5 0;
#X connect 7 0 3 0;
#X restore 50 375 pd Gui_object_relative_coords;
#X f 13;
#N canvas 0 50 450 300 Normalize_coords 0;
#X obj 48 31 inlet;
#X obj 318 31 inlet;
#X obj 38 241 outlet;
#X obj 308 241 outlet;
#X obj 47 145 /;
#X obj 318 106 /;
#X obj 339 157 * -1;
#X obj 339 185 + 1;
#X obj 160 54 r \$0-w;
#X obj 398 58 r \$0-h;
#X connect 0 0 4 0;
#X connect 1 0 5 0;
#X connect 4 0 2 0;
#X connect 5 0 6 0;
#X connect 6 0 7 0;
#X connect 7 0 3 0;
#X connect 8 0 4 1;
#X connect 9 0 5 1;
#X restore 178 539 pd Normalize_coords;
#X f 10;
#N canvas 0 50 450 271 Gui_object_relative_coords 0;
#X obj 57 45 inlet;
#X obj 75 261 outlet;
#X obj 232 264 outlet;
#X obj 196 83 unpack f f;
#X obj 64 144 -;
#X obj 225 142 -;
#X obj 59 100 unpack f f;
#X obj 200 53 r \$0-pos;
#X connect 0 0 6 0;
#X connect 3 0 4 1;
#X connect 3 1 5 1;
#X connect 4 0 1 0;
#X connect 5 0 2 0;
#X connect 6 0 4 0;
#X connect 6 1 5 0;
#X connect 7 0 3 0;
#X restore 591 408 pd Gui_object_relative_coords;
#X f 13;
#N canvas 0 50 450 300 Normalize_coords 0;
#X obj 48 31 inlet;
#X obj 318 31 inlet;
#X obj 38 241 outlet;
#X obj 308 241 outlet;
#X obj 47 145 /;
#X obj 318 106 /;
#X obj 339 157 * -1;
#X obj 339 185 + 1;
#X obj 160 54 r \$0-w;
#X obj 398 58 r \$0-h;
#X connect 0 0 4 0;
#X connect 1 0 5 0;
#X connect 4 0 2 0;
#X connect 5 0 6 0;
#X connect 6 0 7 0;
#X connect 7 0 3 0;
#X connect 8 0 4 1;
#X connect 9 0 5 1;
#X restore 592 487 pd Normalize_coords;
#X f 10;
#X obj 594 615 t l l;
#X text 399 764 associe le slot i de la table MULTITOUCH.SLOT.STATUS
au \$0 du présent touch_listener, f 52;
#X obj 392 33 tools/r_dollarzero_channel;
#X connect 0 0 6 0;
#X connect 1 0 3 0;
#X connect 2 0 17 0;
#X connect 3 0 2 0;
#X connect 5 0 23 0;
#X connect 6 0 11 0;
#X connect 7 0 6 1;
#X connect 8 0 6 1;
#X connect 9 0 20 0;
#X connect 9 1 31 0;
#X connect 9 2 22 0;
#X connect 10 0 13 0;
#X connect 11 0 12 0;
#X connect 11 1 15 0;
#X connect 12 0 29 0;
#X connect 13 0 12 1;
#X connect 15 0 2 1;
#X connect 15 1 10 0;
#X connect 16 0 33 0;
#X connect 17 0 5 0;
#X connect 17 1 4 0;
#X connect 17 2 7 0;
#X connect 18 0 5 1;
#X connect 18 0 21 1;
#X connect 19 0 28 0;
#X connect 19 1 30 0;
#X connect 20 0 8 0;
#X connect 20 1 21 0;
#X connect 21 0 25 0;
#X connect 23 0 22 0;
#X connect 24 0 22 0;
#X connect 25 0 22 0;
#X connect 27 0 28 1;
#X connect 27 1 30 1;
#X connect 28 0 1 0;
#X connect 29 0 19 0;
#X connect 29 1 27 0;
#X connect 30 0 18 0;
#X connect 30 1 18 1;
#X connect 31 0 32 0;
#X connect 31 1 32 1;
#X connect 32 0 16 0;
#X connect 32 1 16 1;
#X connect 33 0 24 0;
#X connect 33 1 21 1;
#X connect 35 0 9 0;
#X connect 35 1 3 1;
#X restore 1206 589 pd multitouch_listener;
#N canvas 770 9 1149 924 multitouch_listener 0;
#X obj 56 42 inlet;
#X obj 44 629 select 1;
#X obj 46 691 pack f f;
#X obj 44 659 f \$0;
#X obj 73 771 tabwrite MULTITOUCH.SLOT.STATUS;
#X obj 42 811 list append, f 14;
#X obj 58 127 spigot 1;
#X msg 156 65 0;
#X msg 212 102 1;
#X obj 393 67 route remove update;
#X obj 185 263 tabread MULTITOUCH.SLOT.STATUS;
#X obj 58 163 list split 2;
#X obj 52 333 spigot;
#X obj 185 322 == 0;
#X text 193 294 check if slot still free;
#X obj 152 221 t f f f;
#X obj 596 555 pack f f;
#X obj 46 728 t b l b l b;
#X obj 181 611 pack f f;
#X obj 54 478 t f f;
#X obj 382 103 t b b b b;
#X obj 306 818 list append 0 0;
#X obj 39 930 outlet;
#X msg 27 856 add \$1 \$2;
#X msg 149 859 update \$1 \$2;
#X msg 309 862 remove \$1 \$2;
#X text 777 42 la table MULTITOUCH.SLOT.STATUS indique si chaque slot
(tracker de touch-event) est associé ou non à un élément GUI multitouch.
Si tel est le cas \, l'éĺément i de la table associé au slot i
prend la valeur \$0 du touch_listener auquel il est associé, f 33
;
#X obj 210 469 t f f;
#N canvas 0 50 450 300 Is_inside_Gui_object? 0;
#X obj 53 38 inlet;
#X obj 225 38 inlet;
#X obj 59 266 outlet;
#X obj 53 130 - 100;
#X obj 222 126 - 100;
#X obj 48 166 abs;
#X obj 222 157 abs;
#X obj 47 198 < 100;
#X obj 219 192 < 100;
#X obj 55 231 &&;
#X obj 145 72 / 2;
#X obj 309 63 / 2;
#X obj 139 42 r \$0-w;
#X obj 309 39 r \$0-h;
#X connect 0 0 3 0;
#X connect 1 0 4 0;
#X connect 3 0 5 0;
#X connect 4 0 6 0;
#X connect 5 0 7 0;
#X connect 6 0 8 0;
#X connect 7 0 9 0;
#X connect 8 0 9 1;
#X connect 9 0 2 0;
#X connect 10 0 3 1;
#X connect 10 0 7 1;
#X connect 11 0 4 1;
#X connect 11 0 8 1;
#X connect 12 0 10 0;
#X connect 13 0 11 0;
#X restore 46 541 pd Is_inside_Gui_object?;
#X f 10;
#N canvas 0 50 450 271 Gui_object_relative_coords 0;
#X obj 57 45 inlet;
#X obj 75 261 outlet;
#X obj 232 264 outlet;
#X obj 196 83 unpack f f;
#X obj 64 144 -;
#X obj 225 142 -;
#X obj 59 100 unpack f f;
#X obj 200 53 r \$0-pos;
#X connect 0 0 6 0;
#X connect 3 0 4 1;
#X connect 3 1 5 1;
#X connect 4 0 1 0;
#X connect 5 0 2 0;
#X connect 6 0 4 0;
#X connect 6 1 5 0;
#X connect 7 0 3 0;
#X restore 50 375 pd Gui_object_relative_coords;
#X f 13;
#N canvas 0 50 450 300 Normalize_coords 0;
#X obj 48 31 inlet;
#X obj 318 31 inlet;
#X obj 38 241 outlet;
#X obj 308 241 outlet;
#X obj 47 145 /;
#X obj 318 106 /;
#X obj 339 157 * -1;
#X obj 339 185 + 1;
#X obj 160 54 r \$0-w;
#X obj 398 58 r \$0-h;
#X connect 0 0 4 0;
#X connect 1 0 5 0;
#X connect 4 0 2 0;
#X connect 5 0 6 0;
#X connect 6 0 7 0;
#X connect 7 0 3 0;
#X connect 8 0 4 1;
#X connect 9 0 5 1;
#X restore 178 539 pd Normalize_coords;
#X f 10;
#N canvas 0 50 450 271 Gui_object_relative_coords 0;
#X obj 57 45 inlet;
#X obj 75 261 outlet;
#X obj 232 264 outlet;
#X obj 196 83 unpack f f;
#X obj 64 144 -;
#X obj 225 142 -;
#X obj 59 100 unpack f f;
#X obj 200 53 r \$0-pos;
#X connect 0 0 6 0;
#X connect 3 0 4 1;
#X connect 3 1 5 1;
#X connect 4 0 1 0;
#X connect 5 0 2 0;
#X connect 6 0 4 0;
#X connect 6 1 5 0;
#X connect 7 0 3 0;
#X restore 591 408 pd Gui_object_relative_coords;
#X f 13;
#N canvas 0 50 450 300 Normalize_coords 0;
#X obj 48 31 inlet;
#X obj 318 31 inlet;
#X obj 38 241 outlet;
#X obj 308 241 outlet;
#X obj 47 145 /;
#X obj 318 106 /;
#X obj 339 157 * -1;
#X obj 339 185 + 1;
#X obj 160 54 r \$0-w;
#X obj 398 58 r \$0-h;
#X connect 0 0 4 0;
#X connect 1 0 5 0;
#X connect 4 0 2 0;
#X connect 5 0 6 0;
#X connect 6 0 7 0;
#X connect 7 0 3 0;
#X connect 8 0 4 1;
#X connect 9 0 5 1;
#X restore 592 487 pd Normalize_coords;
#X f 10;
#X obj 594 615 t l l;
#X text 399 764 associe le slot i de la table MULTITOUCH.SLOT.STATUS
au \$0 du présent touch_listener, f 52;
#X obj 392 33 tools/r_dollarzero_channel;
#X connect 0 0 6 0;
#X connect 1 0 3 0;
#X connect 2 0 17 0;
#X connect 3 0 2 0;
#X connect 5 0 23 0;
#X connect 6 0 11 0;
#X connect 7 0 6 1;
#X connect 8 0 6 1;
#X connect 9 0 20 0;
#X connect 9 1 31 0;
#X connect 9 2 22 0;
#X connect 10 0 13 0;
#X connect 11 0 12 0;
#X connect 11 1 15 0;
#X connect 12 0 29 0;
#X connect 13 0 12 1;
#X connect 15 0 2 1;
#X connect 15 1 10 0;
#X connect 16 0 33 0;
#X connect 17 0 5 0;
#X connect 17 1 4 0;
#X connect 17 2 7 0;
#X connect 18 0 5 1;
#X connect 18 0 21 1;
#X connect 19 0 28 0;
#X connect 19 1 30 0;
#X connect 20 0 8 0;
#X connect 20 1 21 0;
#X connect 21 0 25 0;
#X connect 23 0 22 0;
#X connect 24 0 22 0;
#X connect 25 0 22 0;
#X connect 27 0 28 1;
#X connect 27 1 30 1;
#X connect 28 0 1 0;
#X connect 29 0 19 0;
#X connect 29 1 27 0;
#X connect 30 0 18 0;
#X connect 30 1 18 1;
#X connect 31 0 32 0;
#X connect 31 1 32 1;
#X connect 32 0 16 0;
#X connect 32 1 16 1;
#X connect 33 0 24 0;
#X connect 33 1 21 1;
#X connect 35 0 9 0;
#X connect 35 1 3 1;
#X restore 1104 659 pd multitouch_listener;
#X obj 1310 550 list prepend 1;
#X obj 1207 620 list prepend 2;
#X obj 1104 690 list prepend 3;
#X msg 1449 749 \$1 update 0.5 0.5;
#X msg 1443 692 0 \, 1 \, 2 \, 3;
#X obj 405 797 mob-old/r_dollarzero_channel;
#X obj 211 159 r \$0-editmode;
#X connect 0 0 13 0;
#X connect 1 0 2 0;
#X connect 2 0 12 0;
#X connect 2 1 5 0;
#X connect 7 0 1 0;
#X connect 12 0 36 0;
#X connect 12 0 55 0;
#X connect 12 1 52 0;
#X connect 13 0 1 1;
#X connect 13 1 12 1;
#X connect 13 1 53 0;
#X connect 13 2 12 2;
#X connect 14 0 48 0;
#X connect 15 0 14 0;
#X connect 16 0 17 0;
#X connect 17 0 48 0;
#X connect 22 0 21 1;
#X connect 23 0 24 0;
#X connect 26 0 25 0;
#X connect 26 1 27 0;
#X connect 26 2 28 0;
#X connect 26 3 29 0;
#X connect 36 0 46 0;
#X connect 37 0 26 0;
#X connect 39 0 21 0;
#X connect 39 1 38 0;
#X connect 39 1 26 0;
#X connect 40 0 51 0;
#X connect 40 1 50 0;
#X connect 41 0 42 0;
#X connect 42 0 39 0;
#X connect 43 0 39 0;
#X connect 43 1 44 0;
#X connect 44 0 45 1;
#X connect 45 0 43 0;
#X connect 46 0 41 0;
#X connect 46 1 47 0;
#X connect 46 2 37 0;
#X connect 47 0 45 1;
#X connect 50 0 26 0;
#X connect 51 0 41 1;
#X connect 51 0 45 0;
#X connect 52 0 40 0;
#X connect 53 0 23 0;
#X connect 57 0 58 0;
#X connect 58 0 40 0;
#X connect 58 1 50 0;
#X connect 59 0 60 0;
#X connect 60 0 39 0;
#X connect 61 0 62 0;
#X connect 62 0 65 0;
#X connect 62 1 64 0;
#X connect 62 2 63 0;
#X connect 62 3 59 0;
#X connect 63 0 66 0;
#X connect 64 0 67 0;
#X connect 65 0 68 0;
#X connect 66 0 39 0;
#X connect 67 0 39 0;
#X connect 68 0 39 0;
#X connect 69 0 26 0;
#X connect 70 0 69 0;
#X connect 72 0 1 1;
#X coords 0 -1 1 1 60 60 2 100 100;
