#N canvas 1070 75 831 1022 16;
#X msg 430 110 get_pos;
#X obj 433 140 s \$0-pos-rcv;
#X obj 255 478 change;
#X obj 316 21 iemguts/receivecanvas 1;
#X obj 95 218 list prepend 0;
#X obj 95 249 route 0 1;
#N canvas 0 57 1920 1023 savestate 0;
#X obj 157 276 savestate;
#X obj 269 320 s \$0-save;
#X obj 142 107 v \$0-w;
#X obj 157 305 list trim;
#X obj 210 19 r \$0-save;
#X obj 232 107 v \$0-h;
#X obj 211 473 unpack f f;
#X obj 140 156 pack f f;
#X obj 163 230 list;
#X obj 158 545 s \$0-w;
#X obj 235 530 s \$0-h;
#X msg 140 185 -size \$1 \$2;
#X obj 19 32 loadbang;
#X obj 19 106 spigot 1;
#X msg 88 76 0;
#X obj 426 88 v \$0-back_color;
#X obj 402 531 s \$0-back_color;
#X obj 742 490 s \$0-name;
#X obj 1046 155 symbol;
#X obj 1098 120 r \$0-name;
#X msg 966 238 -name \$1;
#X obj 744 457 symbol;
#X obj 858 492 s \$0-min;
#X obj 940 485 s \$0-max;
#X obj 974 103 v \$0-min;
#X obj 1083 95 v \$0-max;
#X msg 970 142 -min \$1;
#X msg 1150 162 -max \$1;
#X obj 1280 106 v \$0-z_offset;
#X obj 1051 482 s \$0-z_offset;
#X obj 1468 116 v \$0-invisible;
#X obj 210 48 t b b b b b b b b b, f 124;
#X obj 1219 477 s \$0-invisible;
#X msg 1458 167 -invisible \$1;
#X msg 1296 145 -z_offset \$1;
#N canvas 0 50 540 413 convert 0;
#X obj 167 29 inlet;
#X obj 165 86 route float list;
#X obj 243 251 * -1;
#X obj 243 119 unpack f f f, f 17;
#X obj 243 285 - 1;
#X obj 326 153 * 256;
#X obj 243 153 * 65536;
#X obj 326 187 +;
#X obj 243 217 +;
#X obj 165 338 outlet;
#X connect 0 0 1 0;
#X connect 1 0 9 0;
#X connect 1 1 3 0;
#X connect 2 0 4 0;
#X connect 3 0 6 0;
#X connect 3 1 5 0;
#X connect 3 2 7 1;
#X connect 4 0 9 0;
#X connect 5 0 7 0;
#X connect 6 0 8 0;
#X connect 7 0 8 1;
#X connect 8 0 2 0;
#X restore 402 461 pd convert;
#N canvas 0 50 498 451 convert2rgb 0;
#X obj 53 112 * -1;
#X obj 54 81 + 1;
#X obj 180 181 mod 256;
#X obj 51 179 div 256;
#X obj 52 143 t f f, f 13;
#X obj 49 210 t f f;
#X obj 48 248 div 256;
#X obj 132 250 mod 256;
#X obj 49 288 pack f f f;
#X obj 54 51 inlet;
#X obj 49 317 outlet;
#X connect 0 0 4 0;
#X connect 1 0 0 0;
#X connect 2 0 8 2;
#X connect 3 0 5 0;
#X connect 4 0 3 0;
#X connect 4 1 2 0;
#X connect 5 0 6 0;
#X connect 5 1 7 0;
#X connect 6 0 8 0;
#X connect 7 0 8 1;
#X connect 8 0 10 0;
#X connect 9 0 1 0;
#X restore 423 118 pd convert2rgb;
#X msg 412 159 -back_color \$1 \$2 \$3;
#N canvas 0 50 498 451 convert2rgb 0;
#X obj 53 112 * -1;
#X obj 54 81 + 1;
#X obj 180 181 mod 256;
#X obj 51 179 div 256;
#X obj 52 143 t f f, f 13;
#X obj 49 210 t f f;
#X obj 48 248 div 256;
#X obj 132 250 mod 256;
#X obj 49 288 pack f f f;
#X obj 54 51 inlet;
#X obj 49 317 outlet;
#X connect 0 0 4 0;
#X connect 1 0 0 0;
#X connect 2 0 8 2;
#X connect 3 0 5 0;
#X connect 4 0 3 0;
#X connect 4 1 2 0;
#X connect 5 0 6 0;
#X connect 5 1 7 0;
#X connect 6 0 8 0;
#X connect 7 0 8 1;
#X connect 8 0 10 0;
#X connect 9 0 1 0;
#X restore 673 118 pd convert2rgb;
#N canvas 0 50 540 413 convert 0;
#X obj 167 29 inlet;
#X obj 165 86 route float list;
#X obj 243 251 * -1;
#X obj 243 119 unpack f f f, f 17;
#X obj 243 285 - 1;
#X obj 326 153 * 256;
#X obj 243 153 * 65536;
#X obj 326 187 +;
#X obj 243 217 +;
#X obj 165 338 outlet;
#X connect 0 0 1 0;
#X connect 1 0 9 0;
#X connect 1 1 3 0;
#X connect 2 0 4 0;
#X connect 3 0 6 0;
#X connect 3 1 5 0;
#X connect 3 2 7 1;
#X connect 4 0 9 0;
#X connect 5 0 7 0;
#X connect 6 0 8 0;
#X connect 7 0 8 1;
#X connect 8 0 2 0;
#X restore 532 441 pd convert;
#X obj 671 91 v \$0-front_color;
#X msg 668 155 -front_color \$1 \$2 \$3;
#X obj 270 395 route -size -back_color -front_color -name -min -max
-z_offset -invisible, f 106;
#X obj 532 480 s \$0-front_color;
#X msg 21 303 -size 60 60 \, -back_color 220 220 220 \, -front_color
200 200 200 \, -min 0 \, -max 1 \, -name untitled, f 10;
#X connect 0 0 3 0;
#X connect 0 0 14 0;
#X connect 0 1 1 0;
#X connect 2 0 7 0;
#X connect 3 0 42 0;
#X connect 4 0 31 0;
#X connect 5 0 7 1;
#X connect 6 0 9 0;
#X connect 6 1 10 0;
#X connect 7 0 11 0;
#X connect 8 0 0 0;
#X connect 11 0 8 0;
#X connect 12 0 13 0;
#X connect 13 0 44 0;
#X connect 14 0 13 1;
#X connect 15 0 36 0;
#X connect 18 0 20 0;
#X connect 19 0 18 1;
#X connect 20 0 8 0;
#X connect 21 0 17 0;
#X connect 24 0 26 0;
#X connect 25 0 27 0;
#X connect 26 0 8 0;
#X connect 27 0 8 0;
#X connect 28 0 34 0;
#X connect 30 0 33 0;
#X connect 31 0 2 0;
#X connect 31 1 5 0;
#X connect 31 2 15 0;
#X connect 31 3 40 0;
#X connect 31 4 18 0;
#X connect 31 5 24 0;
#X connect 31 6 25 0;
#X connect 31 7 28 0;
#X connect 31 8 30 0;
#X connect 33 0 8 0;
#X connect 34 0 8 0;
#X connect 35 0 16 0;
#X connect 36 0 37 0;
#X connect 37 0 8 0;
#X connect 38 0 41 0;
#X connect 39 0 43 0;
#X connect 40 0 38 0;
#X connect 41 0 8 0;
#X connect 42 0 6 0;
#X connect 42 1 35 0;
#X connect 42 2 39 0;
#X connect 42 3 21 0;
#X connect 42 4 22 0;
#X connect 42 5 23 0;
#X connect 42 6 29 0;
#X connect 42 7 32 0;
#X connect 44 0 42 0;
#X restore 1408 282 pd savestate;
#X obj 1409 234 namecanvas \$0-this;
#X msg 98 17 size \$1 \$2;
#X obj 52 4 r \$0-w;
#X obj 192 1 r \$0-h;
#X obj 98 -12 pack f f;
#X obj 192 30 - 6;
#N canvas 0 50 1005 538 resize 0;
#X obj 51 17 inlet;
#X msg -74 585 dirty 1;
#X obj 157 237 spigot;
#X msg 109 186 1;
#X msg 78 247 0;
#X obj 307 211 t l b;
#X obj 110 479 -;
#X obj 247 472 -;
#X obj 167 512 r \$0-w;
#X obj 298 515 r \$0-h;
#X obj 153 551 +;
#X obj 152 621 s \$0-w;
#X obj 247 546 +;
#X obj 254 616 s \$0-h;
#X obj 57 106 spigot 1;
#X obj 57 135 t b b;
#X msg 129 73 0;
#X msg 79 281 1;
#X obj 154 322 unpack f f f;
#X obj 156 271 route mouseup motion;
#X obj 108 360 t f f b f;
#X obj 229 357 t f f b f;
#X obj 289 433 spigot 1;
#X msg 367 397 0;
#X obj 143 441 spigot 1;
#X msg 212 405 0;
#X obj 235 85 iemguts/receivecanvas 2;
#X obj -71 611 iemguts/sendcanvas 2;
#X obj 698 101 r \$0-w;
#X obj 803 97 r \$0-h;
#X obj 699 188 pack f f;
#X obj 601 310 t b a;
#X msg 559 346 dirty 0;
#X obj 555 384 s \$0-this;
#X msg 546 156 120 254;
#X msg 483 279 donecanvasdialog 1 -1 3 0 -1 1 1 \$1 \$2 100 100;
#X text 673 383 the parent canvas;
#X obj 167 589 max 5;
#X obj 276 585 max 5;
#X obj 803 126 t b f;
#X connect 0 0 14 0;
#X connect 1 0 27 0;
#X connect 2 0 19 0;
#X connect 3 0 2 1;
#X connect 4 0 2 1;
#X connect 6 0 10 0;
#X connect 7 0 12 0;
#X connect 8 0 10 1;
#X connect 9 0 12 1;
#X connect 10 0 37 0;
#X connect 12 0 38 0;
#X connect 14 0 15 0;
#X connect 15 0 3 0;
#X connect 15 1 16 0;
#X connect 15 1 1 0;
#X connect 16 0 14 1;
#X connect 17 0 14 1;
#X connect 17 0 24 1;
#X connect 17 0 22 1;
#X connect 18 0 20 0;
#X connect 18 1 21 0;
#X connect 19 0 4 0;
#X connect 19 0 17 0;
#X connect 19 1 18 0;
#X connect 20 0 6 1;
#X connect 20 1 6 0;
#X connect 20 2 25 0;
#X connect 20 3 24 0;
#X connect 21 0 7 1;
#X connect 21 1 7 0;
#X connect 21 2 23 0;
#X connect 21 3 22 0;
#X connect 22 0 7 1;
#X connect 23 0 22 1;
#X connect 24 0 6 1;
#X connect 25 0 24 1;
#X connect 26 0 2 0;
#X connect 28 0 30 0;
#X connect 29 0 39 0;
#X connect 30 0 35 0;
#X connect 31 0 32 0;
#X connect 31 1 33 0;
#X connect 32 0 33 0;
#X connect 34 0 35 0;
#X connect 35 0 31 0;
#X connect 37 0 11 0;
#X connect 38 0 13 0;
#X connect 39 0 30 0;
#X connect 39 1 30 1;
#X restore 138 286 pd resize;
#X obj 463 922 outlet;
#X obj 100 99 cnv 5 5 5 \$0-pos \$0-pos-rcv empty 20 12 0 14 -66577
-66577 0;
#X obj 100 102 vsl 60 54 0 127 0 0 empty \$0-gui-rcv empty 0 20 0 20
-228856 -228856 -228856 0 1;
#X obj 271 899 outlet;
#X obj 35 843 outlet;
#X text 1291 10 format d'entrée MULTITOUCH.COOKED;
#X text 1407 44 <slot> remove;
#X text 1410 63 <slot> update <x> <y>;
#X text 1411 83 <slot> pressure <a>;
#X obj 316 44 route editmode mouse zoom;
#X msg 1121 98 vis 1;
#X obj 1125 60 iemguts/propertybang;
#X obj 1207 99 r \$0-ok;
#X msg 1207 128 vis 0;
#X obj 242 58 t b f;
#N canvas 0 50 1206 587 gui_feedback 0;
#X msg 88 180 set \$1;
#X obj 92 154 r \$0-w;
#X obj 90 207 s \$0-w-rcv;
#X msg 253 181 set \$1;
#X obj 251 50 r \$0-bc-snd;
#X obj 255 208 s \$0-bc-rcv;
#X obj 257 155 r \$0-back_color;
#X obj 251 108 s \$0-back_color;
#X msg 446 182 set \$1;
#X obj 444 51 r \$0-fc-snd;
#X obj 444 109 s \$0-front_color;
#X obj 450 156 r \$0-front_color;
#X obj 448 209 s \$0-fc-rcv;
#X msg 656 182 set \$1;
#X obj 654 51 r \$0-cc-snd;
#X obj 654 109 s \$0-cursor_color;
#X obj 660 156 r \$0-cursor_color;
#X obj 658 209 s \$0-cc-rcv;
#X msg 68 390 set \$1;
#X obj 71 364 r \$0-h;
#X obj 70 417 s \$0-h-rcv;
#X obj 675 294 r \$0-name;
#X msg 675 323 set \$1;
#X obj 674 380 s \$0-name-rcv;
#X msg 435 292 set \$1;
#X msg 419 385 set \$1;
#X obj 439 266 r \$0-min;
#X obj 437 319 s \$0-min-rcv;
#X obj 423 359 r \$0-max;
#X obj 421 412 s \$0-max-rcv;
#X msg 909 170 set \$1;
#X obj 909 141 r \$0-z_offset;
#X obj 908 227 s \$0-z_offset-rcv;
#X msg 893 305 set \$1;
#X obj 893 276 r \$0-invisible;
#X obj 892 362 s \$0-invisible-rcv;
#X connect 0 0 2 0;
#X connect 1 0 0 0;
#X connect 3 0 5 0;
#X connect 4 0 7 0;
#X connect 6 0 3 0;
#X connect 8 0 12 0;
#X connect 9 0 10 0;
#X connect 11 0 8 0;
#X connect 13 0 17 0;
#X connect 14 0 15 0;
#X connect 16 0 13 0;
#X connect 18 0 20 0;
#X connect 19 0 18 0;
#X connect 21 0 22 0;
#X connect 22 0 23 0;
#X connect 24 0 27 0;
#X connect 25 0 29 0;
#X connect 26 0 24 0;
#X connect 28 0 25 0;
#X connect 30 0 32 0;
#X connect 31 0 30 0;
#X connect 33 0 35 0;
#X connect 34 0 33 0;
#X restore 1115 227 pd gui_feedback;
#N canvas 0 50 732 441 vertical_cursor 0;
#X obj 134 201 *;
#X obj 152 30 r \$0-w;
#X obj 71 17 inlet x;
#X obj 192 334 s \$0-vertical_cursor;
#X obj 437 12 r \$0-h;
#X msg 469 47 vis_size 1 \$1 \, size 1;
#X msg 192 291 pos \$1 \$2;
#X obj 134 230 + 100;
#X obj 134 259 pack f 100;
#X obj 120 123 min 1;
#X obj 120 152 max 0;
#X connect 0 0 7 0;
#X connect 1 0 0 1;
#X connect 2 0 9 0;
#X connect 4 0 5 0;
#X connect 5 0 3 0;
#X connect 6 0 3 0;
#X connect 7 0 8 0;
#X connect 8 0 6 0;
#X connect 9 0 10 0;
#X connect 10 0 0 0;
#X restore 161 686 pd vertical_cursor;
#X obj 145 100 cnv 1 1 60 empty \$0-vertical_cursor empty 20 12 0 14
-258113 -66577 0;
#N canvas 0 50 732 441 horizontal_cursor 0;
#X obj 139 221 *;
#X obj 90 17 inlet y;
#X obj 240 32 r \$0-h;
#X obj 181 342 s \$0-horizontal_cursor;
#X msg 469 47 vis_size \$1 1 \, size 1;
#X obj 437 12 r \$0-w;
#X msg 265 306 pos \$2 \$1;
#X obj 138 264 + 100;
#X obj 207 274 pack f 100;
#X obj 90 46 - 1;
#X obj 90 75 * -1;
#X obj 120 123 min 1;
#X obj 120 152 max 0;
#X connect 0 0 7 0;
#X connect 1 0 9 0;
#X connect 2 0 0 1;
#X connect 4 0 3 0;
#X connect 5 0 4 0;
#X connect 6 0 3 0;
#X connect 7 0 8 0;
#X connect 8 0 6 0;
#X connect 9 0 10 0;
#X connect 10 0 11 0;
#X connect 11 0 12 0;
#X connect 12 0 0 0;
#X restore 113 666 pd horizontal_cursor;
#X obj 100 145 cnv 1 60 1 empty \$0-horizontal_cursor empty 20 12 0
14 -258113 -66577 0;
#X msg 163 621 \$1;
#X msg 115 621 \$2;
#N canvas 0 50 1568 1015 mmp-export-MMPXYSlider 0;
#X obj 121 37 r MMP_EXPORT;
#X obj 256 32 r \$0-x;
#X obj 312 32 r \$0-y;
#X obj 458 32 r \$0-h;
#X obj 379 28 r \$0-w;
#X obj 107 155 f;
#X obj 447 68 r \$0-range;
#X obj 81 675 list append 125;
#X obj 81 653 list prepend add 123;
#X obj 94 717 list trim;
#X obj 94 751 s MMP_BINFILE;
#X obj 363 358 v MMP_FIRST_GUI_ITEM;
#X obj 363 392 select 1;
#X msg 454 514 add 44 123;
#X msg 335 516 add 123;
#X msg 329 429 0;
#X obj 358 464 v MMP_FIRST_GUI_ITEM;
#X obj 108 322 pack f f f f f s f f f 1 f f f 1, f 63;
#X obj 567 568 iemguts/canvasposition 1;
#X obj 565 661 s \$0-y;
#X obj 532 625 s \$0-x;
#X obj 567 597 unpack f f;
#X obj 28 591 list fromsymbol;
#X msg 42 417 symbol "highlightColor":[\$11\\\,\$12\\\,\$13\\\,\$14]\\\,"address":"\$6"\\\,"color":[\$7\\\,\$8\\\,\$9\\\,\$10]\\\,"class":"MMPXYSlider"\\\,"frame":[\$1\\\,\$2\\\,\$3\\\,\$4]
, f 23;
#X obj 677 914 s LISTENERS;
#X obj 760 283 v WIDGET-ID;
#X obj 760 308 + 1;
#X obj 760 333 s WIDGET-ID;
#X obj 768 533 r \$0-name;
#X obj 704 616 symbol;
#X obj 704 645 t s s;
#X msg 744 676 symbol \$1-rcv;
#X obj 824 606 r WIDGET-ID;
#X obj 919 665 r \$0-min;
#X obj 920 704 r \$0-max;
#X obj 129 118 t b b b b b, f 43;
#X obj 678 875 list prepend mob/listenerXY_lin;
#X obj 537 174 r \$0-name;
#X obj 414 162 r WIDGET-ID;
#X obj 416 193 list append;
#X msg 416 222 symbol \$1.\$2;
#X obj 83 251 * 1;
#X obj 158 252 * 1;
#X obj 308 251 * 1;
#X obj 236 250 * 1;
#X obj 127 207 t f b f b f b f, f 23;
#X obj 168 166 r MOB_ZOOM;
#X obj 1197 629 r \$0-name;
#X obj 1176 705 iem_receive;
#X msg 1197 658 set \$1;
#X obj 739 811 pack s s f f f f f;
#X obj 1095 775 unpack f f;
#N canvas 278 130 450 300 MMP_EXPORT_BY_INDEX 0;
#X obj 151 40 r MMP_EXPORT_BY_INDEX;
#X obj 151 69 t f b;
#X obj 203 96 canvasindex 2;
#X obj 146 235 select;
#X obj 146 268 outlet;
#X text 38 6 enable z-order;
#X obj 202 145 + 0;
#X obj 249 126 r \$0-z_offset;
#X obj 202 174 max 0;
#X obj 202 203 min 1;
#X obj 298 171 - 1;
#X connect 0 0 1 0;
#X connect 1 0 3 0;
#X connect 1 1 2 0;
#X connect 2 0 6 0;
#X connect 2 1 10 0;
#X connect 3 0 4 0;
#X connect 6 0 8 0;
#X connect 7 0 6 1;
#X connect 8 0 9 0;
#X connect 9 0 3 1;
#X connect 10 0 9 1;
#X restore 81 79 pd MMP_EXPORT_BY_INDEX;
#X obj 760 173 r \$0-invisible;
#X obj 764 242 * -1;
#X obj 762 207 - 1;
#X obj 1135 739 route set;
#X obj 665 31 r \$0-back_color;
#N canvas 0 50 534 640 canvas_color_to_rgb 0;
#X obj 119 35 inlet;
#X obj 121 96 + 1;
#X obj 121 125 * -1;
#X obj 134 159 t f f f;
#X obj 45 193 / 65536;
#X obj 163 194 / 256;
#X obj 247 197 mod 256;
#X obj 163 223 mod 256;
#X obj 45 222 int;
#X obj 45 251 / 255;
#X obj 163 252 / 255;
#X obj 247 226 / 255;
#X obj 40 283 outlet;
#X obj 164 285 outlet;
#X obj 254 283 outlet;
#X connect 0 0 1 0;
#X connect 1 0 2 0;
#X connect 2 0 3 0;
#X connect 3 0 4 0;
#X connect 3 1 5 0;
#X connect 3 2 6 0;
#X connect 4 0 8 0;
#X connect 5 0 7 0;
#X connect 6 0 11 0;
#X connect 7 0 10 0;
#X connect 8 0 9 0;
#X connect 9 0 12 0;
#X connect 10 0 13 0;
#X connect 11 0 14 0;
#X restore 654 91 pd canvas_color_to_rgb;
#N canvas 0 50 534 640 canvas_color_to_rgb 0;
#X obj 119 35 inlet;
#X obj 121 96 + 1;
#X obj 121 125 * -1;
#X obj 134 159 t f f f;
#X obj 45 193 / 65536;
#X obj 163 194 / 256;
#X obj 247 197 mod 256;
#X obj 163 223 mod 256;
#X obj 45 222 int;
#X obj 45 251 / 255;
#X obj 163 252 / 255;
#X obj 247 226 / 255;
#X obj 40 283 outlet;
#X obj 164 285 outlet;
#X obj 254 283 outlet;
#X connect 0 0 1 0;
#X connect 1 0 2 0;
#X connect 2 0 3 0;
#X connect 3 0 4 0;
#X connect 3 1 5 0;
#X connect 3 2 6 0;
#X connect 4 0 8 0;
#X connect 5 0 7 0;
#X connect 6 0 11 0;
#X connect 7 0 10 0;
#X connect 8 0 9 0;
#X connect 9 0 12 0;
#X connect 10 0 13 0;
#X connect 11 0 14 0;
#X restore 955 80 pd canvas_color_to_rgb;
#X obj 946 32 r \$0-front_color;
#X connect 1 0 5 1;
#X connect 2 0 42 0;
#X connect 3 0 43 0;
#X connect 4 0 44 0;
#X connect 5 0 41 0;
#X connect 6 0 17 4;
#X connect 7 0 9 0;
#X connect 8 0 7 0;
#X connect 9 0 10 0;
#X connect 11 0 12 0;
#X connect 12 0 14 0;
#X connect 12 0 15 0;
#X connect 12 1 13 0;
#X connect 13 0 8 1;
#X connect 14 0 8 1;
#X connect 15 0 16 0;
#X connect 17 0 23 0;
#X connect 18 0 21 0;
#X connect 21 0 20 0;
#X connect 21 1 19 0;
#X connect 22 0 8 0;
#X connect 23 0 22 0;
#X connect 25 0 26 0;
#X connect 26 0 27 0;
#X connect 28 0 29 1;
#X connect 29 0 30 0;
#X connect 30 0 50 0;
#X connect 30 1 31 0;
#X connect 31 0 50 1;
#X connect 32 0 50 2;
#X connect 33 0 50 3;
#X connect 34 0 50 4;
#X connect 35 0 5 0;
#X connect 35 1 11 0;
#X connect 35 2 18 0;
#X connect 35 3 29 0;
#X connect 35 4 25 0;
#X connect 36 0 24 0;
#X connect 37 0 39 1;
#X connect 38 0 39 0;
#X connect 39 0 40 0;
#X connect 40 0 17 5;
#X connect 41 0 17 0;
#X connect 42 0 17 1;
#X connect 43 0 17 3;
#X connect 44 0 17 2;
#X connect 45 0 41 1;
#X connect 45 1 42 0;
#X connect 45 2 42 1;
#X connect 45 3 44 0;
#X connect 45 4 44 1;
#X connect 45 5 43 0;
#X connect 45 6 43 1;
#X connect 46 0 45 0;
#X connect 47 0 49 0;
#X connect 48 0 56 0;
#X connect 49 0 48 0;
#X connect 50 0 36 0;
#X connect 51 0 50 5;
#X connect 51 1 50 6;
#X connect 52 0 35 0;
#X connect 53 0 55 0;
#X connect 54 0 17 13;
#X connect 54 0 17 9;
#X connect 55 0 54 0;
#X connect 56 0 51 0;
#X connect 57 0 58 0;
#X connect 58 0 17 6;
#X connect 58 1 17 7;
#X connect 58 2 17 8;
#X connect 59 0 17 10;
#X connect 59 1 17 11;
#X connect 59 2 17 12;
#X connect 60 0 59 0;
#X restore 1117 269 pd mmp-export-MMPXYSlider;
#N canvas 526 249 429 458 xy_slider_properties(\$0) 0;
#X obj 6 4 cnv 15 400 450 empty empty empty 20 12 0 14 -233017 -66577
0;
#X floatatom 146 14 5 0 0 0 width #0-w-rcv #0-w;
#X obj 342 318 bng 40 250 50 0 \$0-ok empty OK 5 20 0 20 -204786 -1
-1;
#X floatatom 283 16 5 0 0 0 height #0-h-rcv #0-h;
#X symbolatom 91 148 30 0 0 0 send_to #0-name-rcv #0-name;
#X floatatom 141 81 5 0 0 0 min #0-min-rcv #0-min;
#X floatatom 252 83 5 0 0 0 max #0-max-rcv #0-max;
#X text 22 117 Messages;
#X text 13 48 Values range;
#X text 137 48 ................;
#N canvas 0 50 450 300 todo 0;
#X obj 169 165 nbx 3 20 10 200 1 0 \$0-spdrt \$0-spdrt-rcv speed_ratio(%)
-140 10 0 16 -262144 -1 -1 10 256;
#X obj 24 70 cnv 15 200 80 empty empty TODO 20 12 0 14 -262130 -66577
0;
#X floatatom 130 90 5 0 0 0 text_color #0-cc-rcv #0-cc-snd;
#N canvas 0 50 450 300 (subpatch) 0;
#X obj 100 100 cnv 20 20 20 empty \$0-cc_cnv-rcv empty 20 12 0 14 -1
-66577 0;
#X msg 170 104 color \$1 \$1;
#X obj 170 75 r \$0-cursor_color;
#X obj 170 132 s \$0-cc_cnv-rcv;
#X connect 1 0 3 0;
#X connect 2 0 1 0;
#X coords 0 -1 1 1 20 20 2 100 100;
#X restore 200 92 pd;
#X floatatom 130 120 5 0 0 0 text_size - -;
#X restore 321 418 pd todo;
#X floatatom 281 385 5 0 0 0 z-offset #0-z_offset-rcv #0-z_offset;
#X text 25 333 MobMuPlat Widget Export;
#X obj 157 385 tgl 20 0 \$0-z_offset \$0-z_offset-rcv MoveOnTop -100
8 0 16 -262144 -1 -1 0 99;
#X obj 157 365 tgl 20 0 \$0-invisible \$0-invisible-rcv Transparency
-130 8 0 16 -262144 -1 -1 0 1;
#X obj 183 365 hsl 60 20 1 0 0 0 \$0-invisible \$0-invisible-rcv empty
-2 -8 0 10 -262144 -1 -1 5900 1;
#X text 250 361 Opacity;
#N canvas 412 187 1049 632 color_picker 0;
#X obj 53 150 hsl 128 12 0 255 0 0 empty empty empty -2 -8 0 10 -228856
-258113 -1 10957 0;
#X obj 53 162 hsl 128 12 0 255 0 0 empty empty empty -2 -8 0 10 -228856
-4034 -1 10957 0;
#X obj 53 174 hsl 128 12 0 255 0 0 empty empty empty -2 -8 0 10 -228856
-4160 -1 10957 0;
#X obj 183 150 tgl 36 0 empty empty empty 17 7 0 10 -228856 -228856
-228856 0 1;
#N canvas 0 50 498 451 convert2rgb 0;
#X obj 53 112 * -1;
#X obj 54 81 + 1;
#X obj 180 183 mod 256;
#X obj 51 179 div 256;
#X obj 52 143 t f f, f 13;
#X obj 49 210 t f f;
#X obj 48 248 div 256;
#X obj 132 250 mod 256;
#X obj 54 51 inlet;
#X obj 49 317 outlet;
#X obj 129 317 outlet;
#X obj 209 317 outlet;
#X connect 0 0 4 0;
#X connect 1 0 0 0;
#X connect 2 0 11 0;
#X connect 3 0 5 0;
#X connect 4 0 3 0;
#X connect 4 1 2 0;
#X connect 5 0 6 0;
#X connect 5 1 7 0;
#X connect 6 0 9 0;
#X connect 7 0 10 0;
#X connect 8 0 1 0;
#X restore 58 76 pd convert2rgb;
#X msg 286 149 color \$1 \$1 \$1;
#X msg 57 112 set \$1;
#X msg 141 109 set \$1;
#X msg 234 111 set \$1;
#X obj 83 332 t b f;
#X obj 144 333 t b f;
#X obj 149 291 i;
#X obj 104 292 i;
#X obj 61 294 i;
#X obj 67 410 expr ($f1*(-65536)+$f2*(-256)+$f3*(-1))-1;
#X obj 66 372 pack f f f;
#X obj 58 14 r \$0-back_color;
#X obj 97 549 s \$0-back_color;
#X obj 58 45 spigot 1;
#X obj 67 457 t b f b;
#X msg 134 495 0;
#X msg 67 486 1;
#X connect 0 0 13 0;
#X connect 1 0 12 0;
#X connect 2 0 11 0;
#X connect 4 0 6 0;
#X connect 4 1 7 0;
#X connect 4 2 8 0;
#X connect 5 0 3 0;
#X connect 6 0 0 0;
#X connect 7 0 1 0;
#X connect 8 0 2 0;
#X connect 9 0 15 0;
#X connect 9 1 15 1;
#X connect 10 0 15 0;
#X connect 10 1 15 2;
#X connect 11 0 10 0;
#X connect 12 0 9 0;
#X connect 13 0 15 0;
#X connect 14 0 19 0;
#X connect 15 0 14 0;
#X connect 16 0 5 0;
#X connect 16 0 18 0;
#X connect 18 0 4 0;
#X connect 19 0 21 0;
#X connect 19 1 17 0;
#X connect 19 2 20 0;
#X connect 20 0 18 1;
#X connect 21 0 18 1;
#X coords 0 -1 1 1 169 36 2 50 150;
#X restore 37 191 pd color_picker;
#N canvas 882 181 1049 632 color_picker 0;
#X obj 53 150 hsl 128 12 0 255 0 0 empty empty empty -2 -8 0 10 -228856
-258113 -1 9961 0;
#X obj 53 162 hsl 128 12 0 255 0 0 empty empty empty -2 -8 0 10 -228856
-4034 -1 9961 0;
#X obj 53 174 hsl 128 12 0 255 0 0 empty empty empty -2 -8 0 10 -228856
-4160 -1 9961 0;
#X obj 183 150 tgl 36 0 empty empty empty 17 7 0 10 -208051 -208051
-208051 0 1;
#N canvas 0 50 498 451 convert2rgb 0;
#X obj 53 112 * -1;
#X obj 54 81 + 1;
#X obj 180 183 mod 256;
#X obj 51 179 div 256;
#X obj 52 143 t f f, f 13;
#X obj 49 210 t f f;
#X obj 48 248 div 256;
#X obj 132 250 mod 256;
#X obj 54 51 inlet;
#X obj 49 317 outlet;
#X obj 129 317 outlet;
#X obj 209 317 outlet;
#X connect 0 0 4 0;
#X connect 1 0 0 0;
#X connect 2 0 11 0;
#X connect 3 0 5 0;
#X connect 4 0 3 0;
#X connect 4 1 2 0;
#X connect 5 0 6 0;
#X connect 5 1 7 0;
#X connect 6 0 9 0;
#X connect 7 0 10 0;
#X connect 8 0 1 0;
#X restore 58 76 pd convert2rgb;
#X msg 286 149 color \$1 \$1 \$1;
#X msg 57 112 set \$1;
#X msg 141 109 set \$1;
#X msg 234 111 set \$1;
#X obj 83 332 t b f;
#X obj 144 333 t b f;
#X obj 149 291 i;
#X obj 104 292 i;
#X obj 61 294 i;
#X obj 67 410 expr ($f1*(-65536)+$f2*(-256)+$f3*(-1))-1;
#X obj 66 372 pack f f f;
#X obj 58 45 spigot 1;
#X obj 67 457 t b f b;
#X msg 134 495 0;
#X msg 67 486 1;
#X obj 58 14 r \$0-front_color;
#X obj 97 549 s \$0-front_color;
#X connect 0 0 13 0;
#X connect 1 0 12 0;
#X connect 2 0 11 0;
#X connect 4 0 6 0;
#X connect 4 1 7 0;
#X connect 4 2 8 0;
#X connect 5 0 3 0;
#X connect 6 0 0 0;
#X connect 7 0 1 0;
#X connect 8 0 2 0;
#X connect 9 0 15 0;
#X connect 9 1 15 1;
#X connect 10 0 15 0;
#X connect 10 1 15 2;
#X connect 11 0 10 0;
#X connect 12 0 9 0;
#X connect 13 0 15 0;
#X connect 14 0 17 0;
#X connect 15 0 14 0;
#X connect 16 0 4 0;
#X connect 17 0 19 0;
#X connect 17 1 21 0;
#X connect 17 2 18 0;
#X connect 18 0 16 1;
#X connect 19 0 16 1;
#X connect 20 0 5 0;
#X connect 20 0 16 0;
#X coords 0 -1 1 1 169 36 2 50 150;
#X restore 37 231 pd color_picker;
#X text 223 196 back_color;
#X text 221 236 front_color;
#X restore 1115 196 pd xy_slider_properties(\$0);
#X obj 1113 163 s pd-xy_slider_properties(\$0);
#X obj 112 893 s;
#X obj 129 844 r \$0-name;
#N canvas 0 50 450 300 mapping 0;
#X obj 113 4 inlet;
#X obj 131 301 outlet;
#X obj 113 33 unpack f f;
#X obj 135 269 pack f f;
#X obj 126 160 *;
#X obj 271 2 r \$0-max;
#X obj 328 43 r \$0-min;
#X obj 321 128 -;
#X obj 129 202 +;
#X obj 328 72 t b f f;
#X obj 211 174 *;
#X obj 214 216 +;
#X obj 119 96 max 0;
#X obj 122 128 min 1;
#X obj 210 78 max 0;
#X obj 210 126 min 1;
#X connect 0 0 2 0;
#X connect 2 0 12 0;
#X connect 2 1 14 0;
#X connect 3 0 1 0;
#X connect 4 0 8 0;
#X connect 5 0 7 0;
#X connect 6 0 9 0;
#X connect 7 0 4 1;
#X connect 7 0 10 1;
#X connect 8 0 3 0;
#X connect 9 0 7 0;
#X connect 9 1 8 1;
#X connect 9 1 11 1;
#X connect 9 2 7 1;
#X connect 10 0 11 0;
#X connect 11 0 3 1;
#X connect 12 0 13 0;
#X connect 13 0 4 0;
#X connect 14 0 15 0;
#X connect 15 0 10 0;
#X restore 54 748 pd mapping;
#X obj 380 384 r \$0-name;
#X obj 350 457 iemlib/iem_receive;
#X msg 380 413 set \$1-rcv;
#X obj 350 486 list trim;
#X obj 350 515 route list set;
#N canvas 0 50 647 634 unmapping 0;
#X obj 126 102 inlet;
#X obj 119 550 outlet;
#X obj 126 131 unpack f f;
#X obj 123 518 pack f f;
#X obj 271 2 r \$0-max;
#X obj 328 43 r \$0-min;
#X obj 321 128 -;
#X obj 328 72 t b f f;
#X obj 131 221 -;
#X obj 216 234 -;
#X obj 139 336 /;
#X obj 224 350 /;
#X connect 0 0 2 0;
#X connect 2 0 8 0;
#X connect 2 1 9 0;
#X connect 3 0 1 0;
#X connect 4 0 6 0;
#X connect 5 0 7 0;
#X connect 6 0 10 1;
#X connect 6 0 11 1;
#X connect 7 0 6 0;
#X connect 7 1 8 1;
#X connect 7 1 9 1;
#X connect 7 2 6 1;
#X connect 8 0 10 0;
#X connect 9 0 11 0;
#X connect 10 0 3 0;
#X connect 11 0 3 1;
#X restore 261 566 pd unmapping;
#N canvas 0 50 859 588 colors 0;
#X obj 74 37 inlet;
#X obj 65 92 select 1 0;
#X obj 283 78 r \$0-back_color;
#X obj 428 286 r \$0-front_color;
#X msg 383 366 color -1.31586e+07 -1.31586e+07 -1.31586e+07;
#X msg 283 239 color -1.44745e+07 -1.44745e+07 -1.44745e+07;
#X msg 256 152 set color \$1 \$1 \$1;
#X msg 419 314 set color \$1 \$1 \$1;
#X msg 389 202 color \$1 \$1 \$1;
#X text 325 512 ext. feedback;
#X obj 323 487 s \$0-gui-rcv;
#X connect 0 0 1 0;
#X connect 1 0 4 0;
#X connect 1 1 5 0;
#X connect 2 0 6 0;
#X connect 2 0 8 0;
#X connect 3 0 7 0;
#X connect 4 0 10 0;
#X connect 5 0 10 0;
#X connect 6 0 5 0;
#X connect 7 0 4 0;
#X connect 8 0 10 0;
#X restore 572 926 pd colors;
#X obj 391 77 t b b;
#X obj 471 787 t f f f;
#X msg 311 417 0;
#N canvas 146 334 864 764 receive_MULTITOUCH.MODE2.parent\$0 0;
#X msg 141 146 bang;
#X obj 219 145 loadbang;
#X msg 222 264 set MULTITOUCH.MODE2.\$1;
#X obj 149 320 iemlib/iem_receive;
#X obj 149 349 outlet;
#X obj 146 179 iemguts/canvasdollarzero 2;
#X connect 0 0 5 0;
#X connect 1 0 5 0;
#X connect 2 0 3 0;
#X connect 3 0 4 0;
#X connect 5 0 2 0;
#X restore 268 237 pd receive_MULTITOUCH.MODE2.parent\$0;
#N canvas 0 50 1149 924 touch_listener 0;
#X obj 98 64 inlet;
#X obj 208 426 unpack f f;
#X obj 93 449 -;
#X obj 160 455 -;
#X obj 93 524 - 100;
#X obj 160 530 - 100;
#X obj 93 549 abs;
#X obj 160 555 abs;
#X obj 93 574 < 100;
#X obj 160 580 < 100;
#X obj 93 599 &&;
#X obj 96 631 select 1;
#X obj 100 697 pack f f;
#X obj 96 656 f \$0;
#X obj 134 771 tabwrite MULTITOUCH.SLOT.STATUS;
#X obj 63 802 list append;
#X obj 98 218 spigot 1;
#X msg 167 751 0;
#X msg 157 163 1;
#X obj 394 68 r \$0-channel;
#X obj 394 93 route remove update;
#X obj 162 296 tabread MULTITOUCH.SLOT.STATUS;
#X obj 88 243 list split 2;
#X obj 59 367 spigot;
#X obj 92 424 unpack f f;
#X obj 101 335 == 0;
#X text 191 318 check if slot still free;
#X obj 519 566 f;
#X obj 131 267 t f f f;
#X msg 522 619 \; slot.\$1 set_mode 1;
#X msg 516 664 \; slot.\$1 set_mode 2;
#X msg 426 707 \$2;
#X text 547 544 change slot mode;
#X obj 252 490 / 2;
#X obj 320 512 / 2;
#X obj 506 273 unpack f f;
#X obj 878 188 unpack f f;
#X obj 506 298 -;
#X obj 566 303 -;
#X obj 508 357 /;
#X obj 563 361 /;
#X obj 508 442 pack f f;
#X obj 560 386 * -1;
#X obj 118 719 t b l b l b;
#X msg 698 773 1;
#X msg 742 773 0;
#X obj 307 681 pack f f;
#X obj 54 478 t f f;
#X obj 382 132 t b b b b;
#X obj 240 808 list append 0 0;
#X obj 525 128 t a a;
#X obj 554 156 list length;
#X obj 554 181 - 1;
#X obj 518 212 list split;
#X obj 518 237 list trim;
#X obj 39 930 outlet;
#X msg 27 856 add \$1 \$2;
#X msg 96 876 update \$1 \$2;
#X msg 185 916 remove \$1 \$2;
#X obj 297 571 /;
#X obj 378 564 /;
#X obj 615 308 r \$0-w;
#X obj 861 148 r \$0-pos;
#X obj 208 402 r \$0-pos;
#X obj 363 391 r \$0-w;
#X obj 678 899 v \$0-touch_listener.status.0;
#X text 794 800 signal touch-0 status;
#X obj 399 615 * -1;
#X obj 399 643 + 1;
#X obj 560 414 + 1;
#X obj 701 309 r \$0-h;
#X obj 401 445 r \$0-h;
#X floatatom 856 247 5 0 0 0 - - -;
#X floatatom 940 244 5 0 0 0 - - -;
#X connect 0 0 16 0;
#X connect 1 0 2 1;
#X connect 1 1 3 1;
#X connect 2 0 47 0;
#X connect 3 0 5 0;
#X connect 3 0 60 0;
#X connect 4 0 6 0;
#X connect 5 0 7 0;
#X connect 6 0 8 0;
#X connect 7 0 9 0;
#X connect 8 0 10 0;
#X connect 9 0 10 1;
#X connect 10 0 11 0;
#X connect 11 0 13 0;
#X connect 12 0 43 0;
#X connect 13 0 12 0;
#X connect 15 0 56 0;
#X connect 16 0 22 0;
#X connect 17 0 16 1;
#X connect 18 0 16 1;
#X connect 19 0 20 0;
#X connect 20 0 48 0;
#X connect 20 1 35 0;
#X connect 20 2 50 0;
#X connect 21 0 25 0;
#X connect 22 0 23 0;
#X connect 22 1 28 0;
#X connect 23 0 24 0;
#X connect 24 0 2 0;
#X connect 24 1 3 0;
#X connect 25 0 23 1;
#X connect 27 0 29 0;
#X connect 28 0 12 1;
#X connect 28 1 21 0;
#X connect 28 2 27 1;
#X connect 31 0 30 0;
#X connect 33 0 4 1;
#X connect 33 0 8 1;
#X connect 34 0 5 1;
#X connect 34 0 9 1;
#X connect 35 0 37 0;
#X connect 35 1 38 0;
#X connect 36 0 37 1;
#X connect 36 0 72 0;
#X connect 36 1 38 1;
#X connect 36 1 73 0;
#X connect 37 0 39 0;
#X connect 38 0 40 0;
#X connect 39 0 41 0;
#X connect 40 0 42 0;
#X connect 41 0 49 1;
#X connect 41 0 57 0;
#X connect 42 0 69 0;
#X connect 43 0 15 0;
#X connect 43 1 14 0;
#X connect 43 2 17 0;
#X connect 43 3 31 0;
#X connect 43 4 44 0;
#X connect 44 0 65 0;
#X connect 45 0 65 0;
#X connect 46 0 15 1;
#X connect 46 0 49 1;
#X connect 47 0 4 0;
#X connect 47 1 59 0;
#X connect 48 0 18 0;
#X connect 48 1 49 0;
#X connect 48 2 45 0;
#X connect 48 3 27 0;
#X connect 49 0 58 0;
#X connect 50 0 53 0;
#X connect 50 1 51 0;
#X connect 51 0 52 0;
#X connect 52 0 53 1;
#X connect 53 0 54 0;
#X connect 54 0 55 0;
#X connect 56 0 55 0;
#X connect 57 0 55 0;
#X connect 58 0 55 0;
#X connect 59 0 46 0;
#X connect 60 0 67 0;
#X connect 61 0 39 1;
#X connect 62 0 36 0;
#X connect 63 0 1 0;
#X connect 64 0 33 0;
#X connect 64 0 59 1;
#X connect 67 0 68 0;
#X connect 68 0 46 1;
#X connect 69 0 41 1;
#X connect 70 0 40 1;
#X connect 71 0 34 0;
#X connect 71 0 60 1;
#X restore 265 273 pd touch_listener;
#X obj 265 302 route add update remove pressure;
#X msg 252 418 1;
#X obj 256 336 t l b;
#X obj 61 555 t l l l;
#X text 333 873 pressure;
#X obj 52 477 t l b;
#X msg 213 754 50;
#N canvas 0 50 467 445 range 0;
#X obj 225 45 unpack f f;
#X obj 106 128 -;
#X obj 166 133 -;
#X obj 108 187 /;
#X obj 163 191 /;
#X obj 108 272 pack f f;
#X obj 160 216 * -1;
#X obj 215 138 r \$0-w;
#X obj 225 21 r \$0-pos;
#X obj 160 244 + 1;
#X obj 301 139 r \$0-h;
#X obj 44 25 inlet;
#X obj 44 54 unpack f f;
#X obj 108 301 outlet;
#X connect 0 0 1 1;
#X connect 0 1 2 1;
#X connect 1 0 3 0;
#X connect 2 0 4 0;
#X connect 3 0 5 0;
#X connect 4 0 6 0;
#X connect 5 0 13 0;
#X connect 6 0 9 0;
#X connect 7 0 3 1;
#X connect 8 0 0 0;
#X connect 9 0 5 1;
#X connect 10 0 4 1;
#X connect 11 0 12 0;
#X connect 12 0 1 0;
#X connect 12 1 2 0;
#X restore 44 420 pd range;
#X obj 413 331 t l b;
#N canvas 115 314 1202 739 monoclickmode 0;
#X obj 31 11 inlet;
#X msg 384 467 0;
#X msg 42 178 1;
#X obj 30 41 t b;
#X obj 352 644 outlet;
#X obj 35 144 select 0;
#X text 251 111 Pour utiliser la souris quand pas en mode multitouch
;
#X obj 25 106 v TRACKED.SLOTS;
#X obj 30 70 delay 1;
#X obj 74 630 outlet;
#X obj 234 223 iemguts/receivecanvas 2;
#X obj 231 290 spigot;
#X msg 325 261 0;
#X msg 181 256 1;
#X obj 239 329 route motion mouseup;
#X obj 568 31 inlet zoom;
#X obj 74 489 unpack f f f;
#X obj 74 518 / 1;
#X obj 127 522 / 1;
#X obj 78 551 pack f f f;
#X obj 199 442 t f f;
#X obj 300 24 inlet mouse;
#X obj 37 386 list append;
#X obj 37 415 list split 2;
#X obj 348 575 change;
#X obj 384 423 t b b;
#X obj 523 239 r dnd-dropped;
#X obj 523 268 route -done;
#X obj 523 297 t b;
#X obj 523 326 delay 2;
#X obj 42 207 spigot 1;
#X obj 51 248 t f b;
#X msg 136 172 0;
#X msg 186 178 1;
#X obj 48 295 t b b f;
#X connect 0 0 3 0;
#X connect 1 0 24 0;
#X connect 2 0 30 0;
#X connect 3 0 8 0;
#X connect 5 0 2 0;
#X connect 7 0 5 0;
#X connect 8 0 7 0;
#X connect 10 0 11 0;
#X connect 11 0 14 0;
#X connect 12 0 11 1;
#X connect 13 0 11 1;
#X connect 14 0 16 0;
#X connect 14 1 25 0;
#X connect 15 0 20 0;
#X connect 16 0 17 0;
#X connect 16 1 18 0;
#X connect 16 2 19 2;
#X connect 17 0 19 0;
#X connect 18 0 19 1;
#X connect 19 0 9 0;
#X connect 20 0 17 1;
#X connect 20 1 18 1;
#X connect 21 0 22 1;
#X connect 22 0 23 0;
#X connect 23 0 16 0;
#X connect 24 0 4 0;
#X connect 25 0 1 0;
#X connect 25 1 12 0;
#X connect 25 1 33 0;
#X connect 26 0 27 0;
#X connect 27 0 28 0;
#X connect 28 0 29 0;
#X connect 29 0 25 0;
#X connect 30 0 31 0;
#X connect 31 0 34 0;
#X connect 31 1 32 0;
#X connect 32 0 30 1;
#X connect 33 0 30 1;
#X connect 34 0 22 0;
#X connect 34 1 13 0;
#X connect 34 2 24 0;
#X restore 38 321 pd monoclickmode;
#X text 474 891 touch;
#X obj 44 777 t l l;
#X obj 699 283 inlet;
#X connect 0 0 1 0;
#X connect 2 0 50 0;
#X connect 3 0 23 0;
#X connect 4 0 5 0;
#X connect 5 0 63 0;
#X connect 5 1 13 0;
#X connect 8 0 16 0;
#X connect 9 0 11 0;
#X connect 10 0 12 0;
#X connect 11 0 8 0;
#X connect 12 0 28 0;
#X connect 16 0 4 0;
#X connect 23 0 4 1;
#X connect 23 1 49 0;
#X connect 23 2 63 2;
#X connect 24 0 38 0;
#X connect 25 0 24 0;
#X connect 26 0 27 0;
#X connect 27 0 38 0;
#X connect 28 0 11 0;
#X connect 28 1 11 1;
#X connect 34 0 30 0;
#X connect 35 0 32 0;
#X connect 40 0 39 1;
#X connect 41 0 65 0;
#X connect 42 0 44 0;
#X connect 43 0 45 0;
#X connect 44 0 43 0;
#X connect 45 0 46 0;
#X connect 46 0 47 0;
#X connect 46 1 47 0;
#X connect 47 0 35 0;
#X connect 47 0 34 0;
#X connect 49 0 63 1;
#X connect 49 1 0 0;
#X connect 50 0 14 0;
#X connect 50 1 48 0;
#X connect 51 0 2 0;
#X connect 52 0 53 0;
#X connect 53 0 54 0;
#X connect 54 0 56 0;
#X connect 54 1 57 0;
#X connect 54 2 62 0;
#X connect 54 3 17 0;
#X connect 55 0 2 0;
#X connect 56 0 57 0;
#X connect 56 1 55 0;
#X connect 57 0 41 0;
#X connect 57 1 35 0;
#X connect 57 2 34 0;
#X connect 59 0 57 0;
#X connect 59 1 60 0;
#X connect 60 0 17 0;
#X connect 61 0 59 0;
#X connect 62 0 57 0;
#X connect 62 1 51 0;
#X connect 63 0 61 0;
#X connect 63 1 2 0;
#X connect 65 0 18 0;
#X connect 65 1 39 0;
#X connect 66 0 59 0;
#X coords 0 -1 1 1 60 60 2 100 100;
