#N canvas 0 0 958 1016 16;
#X msg 461 122 get_pos;
#X obj 464 152 s \$0-pos-rcv;
#X obj 316 21 iemguts/receivecanvas 1;
#X obj 215 218 list prepend 0;
#X obj 215 249 route 0 1;
#X obj 1409 234 namecanvas \$0-this;
#X msg 98 17 size \$1 \$2;
#X obj 52 4 r \$0-w;
#X obj 192 1 r \$0-h;
#X obj 98 -12 pack f f;
#X obj 192 30 - 6;
#N canvas 0 50 1005 538 resize 0;
#X obj 51 17 inlet;
#X msg -74 585 dirty 1;
#X obj 157 237 spigot;
#X msg 109 186 1;
#X msg 78 247 0;
#X obj 307 211 t l b;
#X obj 110 479 -;
#X obj 247 472 -;
#X obj 167 512 r \$0-w;
#X obj 298 515 r \$0-h;
#X obj 153 551 +;
#X obj 152 621 s \$0-w;
#X obj 247 546 +;
#X obj 254 616 s \$0-h;
#X obj 57 106 spigot 1;
#X obj 57 135 t b b;
#X msg 129 73 0;
#X msg 79 281 1;
#X obj 154 322 unpack f f f;
#X obj 156 271 route mouseup motion;
#X obj 108 360 t f f b f;
#X obj 229 357 t f f b f;
#X obj 289 433 spigot 1;
#X msg 367 397 0;
#X obj 143 441 spigot 1;
#X msg 212 405 0;
#X obj 235 85 iemguts/receivecanvas 2;
#X obj -71 611 iemguts/sendcanvas 2;
#X obj 698 101 r \$0-w;
#X obj 803 97 r \$0-h;
#X obj 699 188 pack f f;
#X obj 601 310 t b a;
#X msg 559 346 dirty 0;
#X obj 555 384 s \$0-this;
#X msg 546 156 120 254;
#X msg 483 279 donecanvasdialog 1 -1 3 0 -1 1 1 \$1 \$2 100 100;
#X text 673 383 the parent canvas;
#X obj 167 589 max 5;
#X obj 276 585 max 5;
#X obj 803 126 t b f;
#X connect 0 0 14 0;
#X connect 1 0 27 0;
#X connect 2 0 19 0;
#X connect 3 0 2 1;
#X connect 4 0 2 1;
#X connect 6 0 10 0;
#X connect 7 0 12 0;
#X connect 8 0 10 1;
#X connect 9 0 12 1;
#X connect 10 0 37 0;
#X connect 12 0 38 0;
#X connect 14 0 15 0;
#X connect 15 0 3 0;
#X connect 15 1 16 0;
#X connect 15 1 1 0;
#X connect 16 0 14 1;
#X connect 17 0 14 1;
#X connect 17 0 24 1;
#X connect 17 0 22 1;
#X connect 18 0 20 0;
#X connect 18 1 21 0;
#X connect 19 0 4 0;
#X connect 19 0 17 0;
#X connect 19 1 18 0;
#X connect 20 0 6 1;
#X connect 20 1 6 0;
#X connect 20 2 25 0;
#X connect 20 3 24 0;
#X connect 21 0 7 1;
#X connect 21 1 7 0;
#X connect 21 2 23 0;
#X connect 21 3 22 0;
#X connect 22 0 7 1;
#X connect 23 0 22 1;
#X connect 24 0 6 1;
#X connect 25 0 24 1;
#X connect 26 0 2 0;
#X connect 28 0 30 0;
#X connect 29 0 39 0;
#X connect 30 0 35 0;
#X connect 31 0 32 0;
#X connect 31 1 33 0;
#X connect 32 0 33 0;
#X connect 34 0 35 0;
#X connect 35 0 31 0;
#X connect 37 0 11 0;
#X connect 38 0 13 0;
#X connect 39 0 30 0;
#X connect 39 1 30 1;
#X restore 258 286 pd resize;
#X obj 583 922 outlet;
#X obj 100 99 cnv 5 5 5 \$0-pos \$0-pos-rcv empty 20 12 0 14 #404040
#404040 0;
#X obj 100 102 vsl 60 54 0 127 0 0 empty \$0-gui-rcv empty 0 20 0 20
#dcdcdc #dcdcdc #dcdcdc 0 1;
#X obj 391 899 outlet;
#X obj 155 843 outlet;
#X text 1291 10 format d'entrée MULTITOUCH.COOKED;
#X text 1407 44 <slot> remove;
#X text 1410 63 <slot> update <x> <y>;
#X text 1411 83 <slot> pressure <a>;
#X obj 316 44 route editmode mouse zoom;
#X msg 1121 98 vis 1;
#X obj 1125 60 iemguts/propertybang;
#X obj 1207 99 r \$0-ok;
#X msg 1207 128 vis 0;
#X obj 242 58 t b f;
#N canvas 0 0 1206 587 gui_feedback 0;
#X msg 88 180 set \$1;
#X obj 92 154 r \$0-w;
#X obj 90 207 s \$0-w-rcv;
#X msg 253 181 set \$1;
#X obj 251 50 r \$0-bc-snd;
#X obj 255 208 s \$0-bc-rcv;
#X obj 257 155 r \$0-back_color;
#X obj 251 108 s \$0-back_color;
#X msg 446 182 set \$1;
#X obj 444 51 r \$0-fc-snd;
#X obj 444 109 s \$0-front_color;
#X obj 450 156 r \$0-front_color;
#X obj 448 209 s \$0-fc-rcv;
#X msg 656 182 set \$1;
#X obj 654 51 r \$0-cc-snd;
#X obj 654 109 s \$0-cursor_color;
#X obj 660 156 r \$0-cursor_color;
#X obj 658 209 s \$0-cc-rcv;
#X msg 68 390 set \$1;
#X obj 71 364 r \$0-h;
#X obj 70 417 s \$0-h-rcv;
#X msg 435 292 set \$1;
#X msg 419 385 set \$1;
#X msg 909 170 set \$1;
#X obj 909 141 r \$0-z_offset;
#X obj 908 227 s \$0-z_offset-rcv;
#X msg 893 305 set \$1;
#X obj 893 276 r \$0-invisible;
#X obj 892 362 s \$0-invisible-rcv;
#X msg 285 292 set \$1;
#X msg 269 385 set \$1;
#X obj 289 266 r \$0-xmin;
#X obj 287 319 s \$0-xmin-rcv;
#X obj 273 359 r \$0-xmax;
#X obj 271 412 s \$0-xmax-rcv;
#X obj 439 266 r \$0-ymin;
#X obj 437 319 s \$0-ymin-rcv;
#X obj 423 359 r \$0-ymax;
#X obj 421 412 s \$0-ymax-rcv;
#X connect 0 0 2 0;
#X connect 1 0 0 0;
#X connect 3 0 5 0;
#X connect 4 0 7 0;
#X connect 6 0 3 0;
#X connect 8 0 12 0;
#X connect 9 0 10 0;
#X connect 11 0 8 0;
#X connect 13 0 17 0;
#X connect 14 0 15 0;
#X connect 16 0 13 0;
#X connect 18 0 20 0;
#X connect 19 0 18 0;
#X connect 21 0 36 0;
#X connect 22 0 38 0;
#X connect 23 0 25 0;
#X connect 24 0 23 0;
#X connect 26 0 28 0;
#X connect 27 0 26 0;
#X connect 29 0 32 0;
#X connect 30 0 34 0;
#X connect 31 0 29 0;
#X connect 33 0 30 0;
#X connect 35 0 21 0;
#X connect 37 0 22 0;
#X restore 1115 227 pd gui_feedback;
#N canvas 0 50 732 441 vertical_cursor 0;
#X obj 134 201 *;
#X obj 152 30 r \$0-w;
#X obj 71 17 inlet x;
#X obj 192 334 s \$0-vertical_cursor;
#X obj 437 12 r \$0-h;
#X msg 469 47 vis_size 1 \$1 \, size 1;
#X msg 192 291 pos \$1 \$2;
#X obj 134 230 + 100;
#X obj 134 259 pack f 100;
#X obj 120 123 min 1;
#X obj 120 152 max 0;
#X connect 0 0 7 0;
#X connect 1 0 0 1;
#X connect 2 0 9 0;
#X connect 4 0 5 0;
#X connect 5 0 3 0;
#X connect 6 0 3 0;
#X connect 7 0 8 0;
#X connect 8 0 6 0;
#X connect 9 0 10 0;
#X connect 10 0 0 0;
#X restore 305 717 pd vertical_cursor;
#X obj 120 100 cnv 1 1 60 empty \$0-vertical_cursor empty 20 12 0 14
#fc0400 #404040 0;
#N canvas 0 50 732 441 horizontal_cursor 0;
#X obj 139 221 *;
#X obj 90 17 inlet y;
#X obj 240 32 r \$0-h;
#X obj 181 342 s \$0-horizontal_cursor;
#X msg 469 47 vis_size \$1 1 \, size 1;
#X obj 437 12 r \$0-w;
#X msg 265 306 pos \$2 \$1;
#X obj 138 264 + 100;
#X obj 207 274 pack f 100;
#X obj 90 46 - 1;
#X obj 90 75 * -1;
#X obj 120 123 min 1;
#X obj 120 152 max 0;
#X connect 0 0 7 0;
#X connect 1 0 9 0;
#X connect 2 0 0 1;
#X connect 4 0 3 0;
#X connect 5 0 4 0;
#X connect 6 0 3 0;
#X connect 7 0 8 0;
#X connect 8 0 6 0;
#X connect 9 0 10 0;
#X connect 10 0 11 0;
#X connect 11 0 12 0;
#X connect 12 0 0 0;
#X restore 257 697 pd horizontal_cursor;
#X obj 100 124 cnv 1 60 1 empty \$0-horizontal_cursor empty 20 12 0
14 #fc0400 #404040 0;
#X msg 307 652 \$1;
#X msg 259 652 \$2;
#N canvas 0 0 1568 1015 mmp-export-MMPXYSlider 0;
#X obj 121 37 r MMP_EXPORT;
#X obj 256 32 r \$0-x;
#X obj 312 32 r \$0-y;
#X obj 458 32 r \$0-h;
#X obj 379 28 r \$0-w;
#X obj 107 155 f;
#X obj 447 68 r \$0-range;
#X obj 81 675 list append 125;
#X obj 81 653 list prepend add 123;
#X obj 94 717 list trim;
#X obj 94 751 s MMP_BINFILE;
#X obj 363 358 v MMP_FIRST_GUI_ITEM;
#X obj 363 392 select 1;
#X msg 454 514 add 44 123;
#X msg 335 516 add 123;
#X msg 329 429 0;
#X obj 358 464 v MMP_FIRST_GUI_ITEM;
#X obj 108 322 pack f f f f f s f f f 1 f f f 1, f 63;
#X obj 567 568 iemguts/canvasposition 1;
#X obj 565 661 s \$0-y;
#X obj 532 625 s \$0-x;
#X obj 567 597 unpack f f;
#X obj 28 591 list fromsymbol;
#X msg 42 417 symbol "highlightColor":[\$11\\\,\$12\\\,\$13\\\,\$14]\\\,"address":"\$6"\\\,"color":[\$7\\\,\$8\\\,\$9\\\,\$10]\\\,"class":"MMPXYSlider"\\\,"frame":[\$1\\\,\$2\\\,\$3\\\,\$4]
, f 23;
#X obj 760 283 v WIDGET-ID;
#X obj 760 308 + 1;
#X obj 760 333 s WIDGET-ID;
#X obj 129 118 t b b b b b, f 43;
#X obj 537 174 r \$0-name;
#X obj 414 162 r WIDGET-ID;
#X obj 416 193 list append;
#X msg 416 222 symbol \$1.\$2;
#X obj 83 251 * 1;
#X obj 158 252 * 1;
#X obj 308 251 * 1;
#X obj 236 250 * 1;
#X obj 127 207 t f b f b f b f, f 23;
#X obj 168 166 r MOB_ZOOM;
#N canvas 278 130 450 300 MMP_EXPORT_BY_INDEX 0;
#X obj 151 40 r MMP_EXPORT_BY_INDEX;
#X obj 151 69 t f b;
#X obj 203 96 canvasindex 2;
#X obj 146 235 select;
#X obj 146 268 outlet;
#X text 38 6 enable z-order;
#X obj 202 145 + 0;
#X obj 249 126 r \$0-z_offset;
#X obj 202 174 max 0;
#X obj 202 203 min 1;
#X obj 298 171 - 1;
#X connect 0 0 1 0;
#X connect 1 0 3 0;
#X connect 1 1 2 0;
#X connect 2 0 6 0;
#X connect 2 1 10 0;
#X connect 3 0 4 0;
#X connect 6 0 8 0;
#X connect 7 0 6 1;
#X connect 8 0 9 0;
#X connect 9 0 3 1;
#X connect 10 0 9 1;
#X restore 81 79 pd MMP_EXPORT_BY_INDEX;
#X obj 760 173 r \$0-invisible;
#X obj 764 242 * -1;
#X obj 762 207 - 1;
#X obj 665 31 r \$0-back_color;
#N canvas 0 50 534 640 canvas_color_to_rgb 0;
#X obj 119 35 inlet;
#X obj 121 96 + 1;
#X obj 121 125 * -1;
#X obj 134 159 t f f f;
#X obj 45 193 / 65536;
#X obj 163 194 / 256;
#X obj 247 197 mod 256;
#X obj 163 223 mod 256;
#X obj 45 222 int;
#X obj 45 251 / 255;
#X obj 163 252 / 255;
#X obj 247 226 / 255;
#X obj 40 283 outlet;
#X obj 164 285 outlet;
#X obj 254 283 outlet;
#X connect 0 0 1 0;
#X connect 1 0 2 0;
#X connect 2 0 3 0;
#X connect 3 0 4 0;
#X connect 3 1 5 0;
#X connect 3 2 6 0;
#X connect 4 0 8 0;
#X connect 5 0 7 0;
#X connect 6 0 11 0;
#X connect 7 0 10 0;
#X connect 8 0 9 0;
#X connect 9 0 12 0;
#X connect 10 0 13 0;
#X connect 11 0 14 0;
#X restore 654 91 pd canvas_color_to_rgb;
#N canvas 0 50 534 640 canvas_color_to_rgb 0;
#X obj 119 35 inlet;
#X obj 121 96 + 1;
#X obj 121 125 * -1;
#X obj 134 159 t f f f;
#X obj 45 193 / 65536;
#X obj 163 194 / 256;
#X obj 247 197 mod 256;
#X obj 163 223 mod 256;
#X obj 45 222 int;
#X obj 45 251 / 255;
#X obj 163 252 / 255;
#X obj 247 226 / 255;
#X obj 40 283 outlet;
#X obj 164 285 outlet;
#X obj 254 283 outlet;
#X connect 0 0 1 0;
#X connect 1 0 2 0;
#X connect 2 0 3 0;
#X connect 3 0 4 0;
#X connect 3 1 5 0;
#X connect 3 2 6 0;
#X connect 4 0 8 0;
#X connect 5 0 7 0;
#X connect 6 0 11 0;
#X connect 7 0 10 0;
#X connect 8 0 9 0;
#X connect 9 0 12 0;
#X connect 10 0 13 0;
#X connect 11 0 14 0;
#X restore 955 80 pd canvas_color_to_rgb;
#X obj 946 32 r \$0-front_color;
#N canvas 298 294 1101 721 export_args 0;
#X obj 275 58 inlet;
#X obj 633 491 s LISTENERS;
#X obj 360 71 r \$0-name;
#X obj 296 154 symbol;
#X obj 296 183 t s s;
#X msg 336 214 symbol \$1-rcv;
#X obj 416 144 r WIDGET-ID;
#X obj 695 121 r \$0-name;
#X obj 674 197 iem_receive;
#X msg 695 150 set \$1;
#X obj 593 267 unpack f f;
#X obj 633 231 route set;
#X obj 511 203 r \$0-xmin;
#X obj 512 242 r \$0-xmax;
#X obj 331 349 pack s s f f f f f f f;
#X obj 816 201 r \$0-ymin;
#X obj 817 240 r \$0-ymax;
#X obj 634 452 list prepend listenerXY_lin;
#X obj 332 380 iemguts/canvasargs 2;
#X connect 0 0 3 0;
#X connect 2 0 3 1;
#X connect 3 0 4 0;
#X connect 4 0 14 0;
#X connect 4 1 5 0;
#X connect 5 0 14 1;
#X connect 6 0 14 2;
#X connect 7 0 9 0;
#X connect 8 0 11 0;
#X connect 9 0 8 0;
#X connect 10 0 14 5;
#X connect 10 1 14 6;
#X connect 11 0 10 0;
#X connect 12 0 14 3;
#X connect 13 0 14 4;
#X connect 14 0 18 0;
#X connect 15 0 14 7;
#X connect 16 0 14 8;
#X connect 17 0 1 0;
#X restore 909 449 pd export_args;
#X connect 1 0 5 1;
#X connect 2 0 33 0;
#X connect 3 0 34 0;
#X connect 4 0 35 0;
#X connect 5 0 32 0;
#X connect 6 0 17 4;
#X connect 7 0 9 0;
#X connect 8 0 7 0;
#X connect 9 0 10 0;
#X connect 11 0 12 0;
#X connect 12 0 14 0;
#X connect 12 0 15 0;
#X connect 12 1 13 0;
#X connect 13 0 8 1;
#X connect 14 0 8 1;
#X connect 15 0 16 0;
#X connect 17 0 23 0;
#X connect 18 0 21 0;
#X connect 21 0 20 0;
#X connect 21 1 19 0;
#X connect 22 0 8 0;
#X connect 23 0 22 0;
#X connect 24 0 25 0;
#X connect 25 0 26 0;
#X connect 27 0 5 0;
#X connect 27 1 11 0;
#X connect 27 2 18 0;
#X connect 27 3 46 0;
#X connect 27 4 24 0;
#X connect 28 0 30 1;
#X connect 29 0 30 0;
#X connect 30 0 31 0;
#X connect 31 0 17 5;
#X connect 32 0 17 0;
#X connect 33 0 17 1;
#X connect 34 0 17 3;
#X connect 35 0 17 2;
#X connect 36 0 32 1;
#X connect 36 1 33 0;
#X connect 36 2 33 1;
#X connect 36 3 35 0;
#X connect 36 4 35 1;
#X connect 36 5 34 0;
#X connect 36 6 34 1;
#X connect 37 0 36 0;
#X connect 38 0 27 0;
#X connect 39 0 41 0;
#X connect 40 0 17 13;
#X connect 40 0 17 9;
#X connect 41 0 40 0;
#X connect 42 0 43 0;
#X connect 43 0 17 6;
#X connect 43 1 17 7;
#X connect 43 2 17 8;
#X connect 44 0 17 10;
#X connect 44 1 17 11;
#X connect 44 2 17 12;
#X connect 45 0 44 0;
#X restore 1117 269 pd mmp-export-MMPXYSlider;
#N canvas 526 249 429 458 xy_slider_properties(\$0) 0;
#X obj 6 4 cnv 15 400 450 empty empty empty 20 12 0 14 #e0e0e0 #404040
0;
#X floatatom 146 14 5 0 0 0 width \$0-w-rcv \$0-w 0;
#X obj 342 318 bng 40 250 50 0 \$0-ok empty OK 5 20 0 20 #c4fcc4 #000000
#000000;
#X floatatom 283 16 5 0 0 0 height \$0-h-rcv \$0-h 0;
#X symbolatom 91 148 30 0 0 0 send_to \$0-name-rcv \$0-name 0;
#X floatatom 141 71 5 0 0 0 xmin \$0-xmin-rcv \$0-xmin 0;
#X floatatom 252 71 5 0 0 0 xmax \$0-xmax-rcv \$0-xmax 0;
#X text 22 117 Messages;
#X text 13 48 Values range;
#N canvas 0 50 450 300 todo 0;
#X obj 169 165 nbx 3 20 10 200 1 0 \$0-spdrt \$0-spdrt-rcv speed_ratio(%)
-140 10 0 16 #fcfcfc #000000 #000000 0 256;
#X obj 24 70 cnv 15 200 80 empty empty TODO 20 12 0 14 #fcfcc4 #404040
0;
#X floatatom 130 90 5 0 0 0 text_color \$0-cc-rcv \$0-cc-snd 0;
#N canvas 0 50 450 300 (subpatch) 0;
#X obj 100 100 cnv 20 20 20 empty \$0-cc_cnv-rcv empty 20 12 0 14 #000000
#404040 0;
#X msg 170 104 color \$1 \$1;
#X obj 170 75 r \$0-cursor_color;
#X obj 170 132 s \$0-cc_cnv-rcv;
#X connect 1 0 3 0;
#X connect 2 0 1 0;
#X coords 0 -1 1 1 20 20 2 100 100;
#X restore 200 92 pd;
#X floatatom 130 120 5 0 0 0 text_size - - 0;
#X restore 321 418 pd todo;
#X floatatom 281 385 5 0 0 0 z-offset \$0-z_offset-rcv \$0-z_offset
0;
#X text 25 333 MobMuPlat Widget Export;
#X obj 157 385 tgl 20 0 \$0-z_offset \$0-z_offset-rcv MoveOnTop -100
8 0 16 #fcfcfc #000000 #000000 0 99;
#X obj 157 365 tgl 20 0 \$0-invisible \$0-invisible-rcv Transparency
-130 8 0 16 #fcfcfc #000000 #000000 0 1;
#X obj 183 365 hsl 60 20 1 0 0 0 \$0-invisible \$0-invisible-rcv empty
-2 -8 0 10 #fcfcfc #000000 #000000 0 1;
#X text 250 361 Opacity;
#N canvas 412 187 1049 632 color_picker 0;
#X obj 53 150 hsl 128 12 0 255 0 0 empty empty empty -2 -8 0 10 #dcdcdc
#fc0400 #000000 0 0;
#X obj 53 162 hsl 128 12 0 255 0 0 empty empty empty -2 -8 0 10 #dcdcdc
#00fc04 #000000 0 0;
#X obj 53 174 hsl 128 12 0 255 0 0 empty empty empty -2 -8 0 10 #dcdcdc
#0400fc #000000 0 0;
#X obj 183 150 tgl 36 0 empty empty empty 17 7 0 10 #dcdcdc #dcdcdc
#dcdcdc 0 1;
#N canvas 0 50 498 451 convert2rgb 0;
#X obj 53 112 * -1;
#X obj 54 81 + 1;
#X obj 180 183 mod 256;
#X obj 51 179 div 256;
#X obj 52 143 t f f, f 13;
#X obj 49 210 t f f;
#X obj 48 248 div 256;
#X obj 132 250 mod 256;
#X obj 54 51 inlet;
#X obj 49 317 outlet;
#X obj 129 317 outlet;
#X obj 209 317 outlet;
#X connect 0 0 4 0;
#X connect 1 0 0 0;
#X connect 2 0 11 0;
#X connect 3 0 5 0;
#X connect 4 0 3 0;
#X connect 4 1 2 0;
#X connect 5 0 6 0;
#X connect 5 1 7 0;
#X connect 6 0 9 0;
#X connect 7 0 10 0;
#X connect 8 0 1 0;
#X restore 58 76 pd convert2rgb;
#X msg 286 149 color \$1 \$1 \$1;
#X msg 57 112 set \$1;
#X msg 141 109 set \$1;
#X msg 234 111 set \$1;
#X obj 83 332 t b f;
#X obj 144 333 t b f;
#X obj 149 291 i;
#X obj 104 292 i;
#X obj 61 294 i;
#X obj 67 410 expr ($f1*(-65536)+$f2*(-256)+$f3*(-1))-1;
#X obj 66 372 pack f f f;
#X obj 58 14 r \$0-back_color;
#X obj 97 549 s \$0-back_color;
#X obj 58 45 spigot 1;
#X obj 67 457 t b f b;
#X msg 134 495 0;
#X msg 67 486 1;
#X connect 0 0 13 0;
#X connect 1 0 12 0;
#X connect 2 0 11 0;
#X connect 4 0 6 0;
#X connect 4 1 7 0;
#X connect 4 2 8 0;
#X connect 5 0 3 0;
#X connect 6 0 0 0;
#X connect 7 0 1 0;
#X connect 8 0 2 0;
#X connect 9 0 15 0;
#X connect 9 1 15 1;
#X connect 10 0 15 0;
#X connect 10 1 15 2;
#X connect 11 0 10 0;
#X connect 12 0 9 0;
#X connect 13 0 15 0;
#X connect 14 0 19 0;
#X connect 15 0 14 0;
#X connect 16 0 5 0;
#X connect 16 0 18 0;
#X connect 18 0 4 0;
#X connect 19 0 21 0;
#X connect 19 1 17 0;
#X connect 19 2 20 0;
#X connect 20 0 18 1;
#X connect 21 0 18 1;
#X coords 0 -1 1 1 169 36 2 50 150;
#X restore 37 221 pd color_picker;
#N canvas 882 181 1049 632 color_picker 0;
#X obj 53 150 hsl 128 12 0 255 0 0 empty empty empty -2 -8 0 10 #dcdcdc
#fc0400 #000000 0 0;
#X obj 53 162 hsl 128 12 0 255 0 0 empty empty empty -2 -8 0 10 #dcdcdc
#00fc04 #000000 0 0;
#X obj 53 174 hsl 128 12 0 255 0 0 empty empty empty -2 -8 0 10 #dcdcdc
#0400fc #000000 0 0;
#X obj 183 150 tgl 36 0 empty empty empty 17 7 0 10 #c8c8c8 #c8c8c8
#c8c8c8 0 1;
#N canvas 0 50 498 451 convert2rgb 0;
#X obj 53 112 * -1;
#X obj 54 81 + 1;
#X obj 180 183 mod 256;
#X obj 51 179 div 256;
#X obj 52 143 t f f, f 13;
#X obj 49 210 t f f;
#X obj 48 248 div 256;
#X obj 132 250 mod 256;
#X obj 54 51 inlet;
#X obj 49 317 outlet;
#X obj 129 317 outlet;
#X obj 209 317 outlet;
#X connect 0 0 4 0;
#X connect 1 0 0 0;
#X connect 2 0 11 0;
#X connect 3 0 5 0;
#X connect 4 0 3 0;
#X connect 4 1 2 0;
#X connect 5 0 6 0;
#X connect 5 1 7 0;
#X connect 6 0 9 0;
#X connect 7 0 10 0;
#X connect 8 0 1 0;
#X restore 58 76 pd convert2rgb;
#X msg 286 149 color \$1 \$1 \$1;
#X msg 57 112 set \$1;
#X msg 141 109 set \$1;
#X msg 234 111 set \$1;
#X obj 83 332 t b f;
#X obj 144 333 t b f;
#X obj 149 291 i;
#X obj 104 292 i;
#X obj 61 294 i;
#X obj 67 410 expr ($f1*(-65536)+$f2*(-256)+$f3*(-1))-1;
#X obj 66 372 pack f f f;
#X obj 58 45 spigot 1;
#X obj 67 457 t b f b;
#X msg 134 495 0;
#X msg 67 486 1;
#X obj 58 14 r \$0-front_color;
#X obj 97 549 s \$0-front_color;
#X connect 0 0 13 0;
#X connect 1 0 12 0;
#X connect 2 0 11 0;
#X connect 4 0 6 0;
#X connect 4 1 7 0;
#X connect 4 2 8 0;
#X connect 5 0 3 0;
#X connect 6 0 0 0;
#X connect 7 0 1 0;
#X connect 8 0 2 0;
#X connect 9 0 15 0;
#X connect 9 1 15 1;
#X connect 10 0 15 0;
#X connect 10 1 15 2;
#X connect 11 0 10 0;
#X connect 12 0 9 0;
#X connect 13 0 15 0;
#X connect 14 0 17 0;
#X connect 15 0 14 0;
#X connect 16 0 4 0;
#X connect 17 0 19 0;
#X connect 17 1 21 0;
#X connect 17 2 18 0;
#X connect 18 0 16 1;
#X connect 19 0 16 1;
#X connect 20 0 5 0;
#X connect 20 0 16 0;
#X coords 0 -1 1 1 169 36 2 50 150;
#X restore 37 261 pd color_picker;
#X text 223 226 back_color;
#X text 221 266 front_color;
#X floatatom 141 94 5 0 0 0 ymin \$0-ymin-rcv \$0-ymin 0;
#X floatatom 252 94 5 0 0 0 ymax \$0-ymax-rcv \$0-ymax 0;
#X text 140 40 ________________;
#X obj 92 173 cnv 15 300 20 empty \$0-receive_name-rcv Untitled_1*-rcv
2 10 0 16 #f0fcf8 #404040 0;
#X text 17 171 receive;
#X restore 1115 196 pd xy_slider_properties(\$0);
#X obj 1113 163 s pd-xy_slider_properties(\$0);
#X obj 232 893 s;
#X obj 249 844 r \$0-name;
#N canvas 0 50 1029 710 mapping 0;
#X obj 113 4 inlet;
#X obj 150 434 outlet;
#X obj 113 33 unpack f f;
#X obj 154 402 pack f f;
#X obj 145 293 *;
#X obj 285 123 -;
#X obj 148 335 +;
#X obj 328 72 t b f f;
#X obj 230 307 *;
#X obj 233 349 +;
#X obj 119 96 max 0;
#X obj 122 128 min 1;
#X obj 210 78 max 0;
#X obj 210 126 min 1;
#X obj 476 123 -;
#X obj 558 79 t b f f;
#X obj 271 2 r \$0-xmax;
#X obj 328 43 r \$0-xmin;
#X obj 501 9 r \$0-ymax;
#X obj 558 50 r \$0-ymin;
#X connect 0 0 2 0;
#X connect 2 0 10 0;
#X connect 2 1 12 0;
#X connect 3 0 1 0;
#X connect 4 0 6 0;
#X connect 5 0 4 1;
#X connect 6 0 3 0;
#X connect 7 0 5 0;
#X connect 7 1 6 1;
#X connect 7 2 5 1;
#X connect 8 0 9 0;
#X connect 9 0 3 1;
#X connect 10 0 11 0;
#X connect 11 0 4 0;
#X connect 12 0 13 0;
#X connect 13 0 8 0;
#X connect 14 0 8 1;
#X connect 15 0 14 0;
#X connect 15 1 9 1;
#X connect 15 2 14 1;
#X connect 16 0 5 0;
#X connect 17 0 7 0;
#X connect 18 0 14 0;
#X connect 19 0 15 0;
#X restore 174 748 pd mapping;
#X obj 693 359 r \$0-name;
#X obj 663 461 list trim;
#N canvas 0 0 647 634 unmapping 0;
#X obj 126 102 inlet;
#X obj 119 550 outlet;
#X obj 126 131 unpack f f;
#X obj 123 518 pack f f;
#X obj 321 128 -;
#X obj 323 64 t b f f;
#X obj 131 221 -;
#X obj 303 224 -;
#X obj 139 336 /;
#X obj 237 340 /;
#X obj 496 131 -;
#X obj 498 67 t b f f;
#X obj 271 2 r \$0-xmax;
#X obj 323 35 r \$0-xmin;
#X obj 446 5 r \$0-ymax;
#X obj 518 36 r \$0-ymin;
#X connect 0 0 2 0;
#X connect 2 0 6 0;
#X connect 2 1 7 0;
#X connect 3 0 1 0;
#X connect 4 0 8 1;
#X connect 5 0 4 0;
#X connect 5 1 6 1;
#X connect 5 2 4 1;
#X connect 6 0 8 0;
#X connect 7 0 9 0;
#X connect 8 0 3 0;
#X connect 9 0 3 1;
#X connect 10 0 9 1;
#X connect 11 0 10 0;
#X connect 11 1 7 1;
#X connect 11 2 10 1;
#X connect 12 0 4 0;
#X connect 13 0 5 0;
#X connect 14 0 10 0;
#X connect 15 0 11 0;
#X restore 404 511 pd unmapping;
#N canvas 0 50 859 588 colors 0;
#X obj 74 37 inlet;
#X obj 65 92 select 1 0;
#X obj 283 78 r \$0-back_color;
#X obj 428 286 r \$0-front_color;
#X msg 383 366 color -1.31586e+07 -1.31586e+07 -1.31586e+07;
#X msg 283 239 color -1.44745e+07 -1.44745e+07 -1.44745e+07;
#X msg 256 152 set color \$1 \$1 \$1;
#X msg 419 314 set color \$1 \$1 \$1;
#X msg 389 202 color \$1 \$1 \$1;
#X text 325 512 ext. feedback;
#X obj 323 487 s \$0-gui-rcv;
#X connect 0 0 1 0;
#X connect 1 0 4 0;
#X connect 1 1 5 0;
#X connect 2 0 6 0;
#X connect 2 0 8 0;
#X connect 3 0 7 0;
#X connect 4 0 10 0;
#X connect 5 0 10 0;
#X connect 6 0 5 0;
#X connect 7 0 4 0;
#X connect 8 0 10 0;
#X restore 692 926 pd colors;
#X obj 585 747 t f f f;
#X obj 385 302 route add update remove pressure;
#X obj 376 336 t l b;
#X text 453 873 pressure;
#X obj 234 583 t l b;
#X msg 374 809 50;
#N canvas 0 50 467 445 range 0;
#X obj 225 45 unpack f f;
#X obj 106 128 -;
#X obj 166 133 -;
#X obj 108 187 /;
#X obj 163 191 /;
#X obj 108 272 pack f f;
#X obj 160 216 * -1;
#X obj 215 138 r \$0-w;
#X obj 225 21 r \$0-pos;
#X obj 160 244 + 1;
#X obj 301 139 r \$0-h;
#X obj 44 25 inlet;
#X obj 44 54 unpack f f;
#X obj 108 301 outlet;
#X connect 0 0 1 1;
#X connect 0 1 2 1;
#X connect 1 0 3 0;
#X connect 2 0 4 0;
#X connect 3 0 5 0;
#X connect 4 0 6 0;
#X connect 5 0 13 0;
#X connect 6 0 9 0;
#X connect 7 0 3 1;
#X connect 8 0 0 0;
#X connect 9 0 5 1;
#X connect 10 0 4 1;
#X connect 11 0 12 0;
#X connect 12 0 1 0;
#X connect 12 1 2 0;
#X restore 220 368 pd range;
#X obj 533 331 t l b;
#N canvas 474 163 1202 739 monoclickmode 1;
#X obj 31 11 inlet;
#X msg 384 537 0;
#X msg 42 248 1;
#X obj 30 41 t b;
#X obj 352 714 outlet;
#X text 251 111 Pour utiliser la souris quand pas en mode multitouch
;
#X obj 74 700 outlet;
#X obj 234 293 iemguts/receivecanvas 2;
#X obj 231 360 spigot;
#X msg 325 331 0;
#X msg 181 326 1;
#X obj 239 399 route motion mouseup;
#X obj 568 31 inlet zoom;
#X obj 74 559 unpack f f f;
#X obj 74 588 / 1;
#X obj 127 592 / 1;
#X obj 78 621 pack f f f;
#X obj 199 512 t f f;
#X obj 300 24 inlet mouse;
#X obj 37 456 list append;
#X obj 37 485 list split 2;
#X obj 523 367 t b;
#X obj 42 277 spigot 1;
#X obj 51 318 t f b;
#X msg 136 242 0;
#X msg 186 248 1;
#X obj 48 365 t b b f;
#X obj 366 495 t b b b;
#X obj 47 216 select 0;
#X obj 47 185 v MULTITOUCH.ACTIVESLOTS;
#X obj 183 590 t f b;
#X msg 229 624 1;
#X connect 0 0 3 0;
#X connect 1 0 4 0;
#X connect 2 0 22 0;
#X connect 3 0 29 0;
#X connect 7 0 8 0;
#X connect 8 0 11 0;
#X connect 9 0 8 1;
#X connect 10 0 8 1;
#X connect 11 0 13 0;
#X connect 11 1 27 0;
#X connect 12 0 17 0;
#X connect 13 0 14 0;
#X connect 13 1 15 0;
#X connect 13 2 30 0;
#X connect 14 0 16 0;
#X connect 15 0 16 1;
#X connect 16 0 6 0;
#X connect 17 0 14 1;
#X connect 17 1 15 1;
#X connect 18 0 19 1;
#X connect 19 0 20 0;
#X connect 20 0 13 0;
#X connect 22 0 23 0;
#X connect 23 0 26 0;
#X connect 23 1 24 0;
#X connect 24 0 22 1;
#X connect 25 0 22 1;
#X connect 26 0 19 0;
#X connect 26 1 10 0;
#X connect 27 0 1 0;
#X connect 27 1 25 0;
#X connect 27 2 9 0;
#X connect 28 0 2 0;
#X connect 29 0 28 0;
#X connect 30 0 16 2;
#X connect 30 1 31 0;
#X connect 31 0 4 0;
#X restore 158 321 pd monoclickmode;
#X text 594 891 touch;
#X obj 164 777 t l l;
#X obj 627 357 inlet;
#X obj 391 77 t l b;
#N canvas 221 190 884 529 receive_MULTITOUCH.MODE2.parent\$0 0;
#X msg 176 71 bang;
#X obj 254 70 loadbang;
#X obj 230 430 outlet;
#X obj 181 104 iemguts/canvasdollarzero 2;
#N canvas 0 50 450 184 \$0-dynamic-receiver 0;
#X obj 10 10 r MULTITOUCH.MODE2.1065;
#X obj 10 50 s 1089-iem_receive;
#X connect 0 0 1 0;
#X restore 222 306 pd \$0-dynamic-receiver;
#X obj 219 147 pack s \$0;
#X obj 220 227 s pd-\$0-dynamic-receiver;
#X obj 230 395 r \$0-iem_receive;
#X msg 121 193 clear;
#X text 25 17 création dynamique d'un receiver avec un nom de canal
défini au moment de l'ouverture du patch;
#X msg 220 179 clear \, obj 10 10 r MULTITOUCH.MODE2.\$1 \, obj 10
50 s \$2-iem_receive \, connect 0 0 1 0;
#X text 423 381 A chaque nouvel événement touch-down \, [r MULTITOUCH.MODE2.\$1]
recoit un message sous la forme suivante : <x> <y> <slotID>, f 37
;
#X connect 0 0 3 0;
#X connect 1 0 3 0;
#X connect 3 0 5 0;
#X connect 5 0 10 0;
#X connect 7 0 2 0;
#X connect 8 0 6 0;
#X connect 10 0 6 0;
#X restore 476 213 pd receive_MULTITOUCH.MODE2.parent\$0;
#N canvas 191 78 1149 924 touch_listener 0;
#X obj 56 42 inlet;
#X obj 44 629 select 1;
#X obj 46 691 pack f f;
#X obj 44 659 f \$0;
#X obj 73 771 tabwrite MULTITOUCH.SLOT.STATUS;
#X obj 42 811 list append, f 14;
#X obj 58 127 spigot 1;
#X msg 267 61 0;
#X msg 212 102 1;
#X obj 392 33 r \$0-channel;
#X obj 385 68 route remove update;
#X obj 185 263 tabread MULTITOUCH.SLOT.STATUS;
#X obj 58 163 list split 2;
#X obj 52 333 spigot;
#X obj 185 322 == 0;
#X text 193 294 check if slot still free;
#X obj 152 221 t f f f;
#X obj 596 555 pack f f;
#X obj 46 728 t b l b l b;
#X obj 181 611 pack f f;
#X obj 54 478 t f f;
#X obj 382 103 t b b b b;
#X obj 306 818 list append 0 0;
#X obj 39 930 outlet;
#X msg 27 856 add \$1 \$2;
#X msg 149 859 update \$1 \$2;
#X msg 309 862 remove \$1 \$2;
#X text 777 42 la table MULTITOUCH.SLOT.STATUS indique si chaque slot
(tracker de touch-event) est associé ou non à un élément GUI multitouch.
Si tel est le cas \, l'éĺément i de la table associé au slot i
prend la valeur \$0 du touch_listener auquel il est associé, f 33
;
#X obj 210 469 t f f;
#N canvas 0 50 450 300 Is_inside_Gui_object? 0;
#X obj 53 38 inlet;
#X obj 225 38 inlet;
#X obj 59 266 outlet;
#X obj 53 130 - 100;
#X obj 222 126 - 100;
#X obj 48 166 abs;
#X obj 222 157 abs;
#X obj 47 198 < 100;
#X obj 219 192 < 100;
#X obj 55 231 &&;
#X obj 145 72 / 2;
#X obj 309 63 / 2;
#X obj 139 42 r \$0-w;
#X obj 309 39 r \$0-h;
#X connect 0 0 3 0;
#X connect 1 0 4 0;
#X connect 3 0 5 0;
#X connect 4 0 6 0;
#X connect 5 0 7 0;
#X connect 6 0 8 0;
#X connect 7 0 9 0;
#X connect 8 0 9 1;
#X connect 9 0 2 0;
#X connect 10 0 3 1;
#X connect 10 0 7 1;
#X connect 11 0 4 1;
#X connect 11 0 8 1;
#X connect 12 0 10 0;
#X connect 13 0 11 0;
#X restore 46 541 pd Is_inside_Gui_object?;
#X f 10;
#N canvas 0 50 450 271 Gui_object_relative_coords 0;
#X obj 57 45 inlet;
#X obj 75 261 outlet;
#X obj 232 264 outlet;
#X obj 196 83 unpack f f;
#X obj 64 144 -;
#X obj 225 142 -;
#X obj 59 100 unpack f f;
#X obj 200 53 r \$0-pos;
#X connect 0 0 6 0;
#X connect 3 0 4 1;
#X connect 3 1 5 1;
#X connect 4 0 1 0;
#X connect 5 0 2 0;
#X connect 6 0 4 0;
#X connect 6 1 5 0;
#X connect 7 0 3 0;
#X restore 50 375 pd Gui_object_relative_coords;
#X f 13;
#N canvas 0 50 450 300 Normalize_coords 0;
#X obj 48 31 inlet;
#X obj 318 31 inlet;
#X obj 38 241 outlet;
#X obj 308 241 outlet;
#X obj 47 145 /;
#X obj 318 106 /;
#X obj 339 157 * -1;
#X obj 339 185 + 1;
#X obj 160 54 r \$0-w;
#X obj 398 58 r \$0-h;
#X connect 0 0 4 0;
#X connect 1 0 5 0;
#X connect 4 0 2 0;
#X connect 5 0 6 0;
#X connect 6 0 7 0;
#X connect 7 0 3 0;
#X connect 8 0 4 1;
#X connect 9 0 5 1;
#X restore 178 539 pd Normalize_coords;
#X f 10;
#N canvas 0 50 450 300 Gui_object_relative_coords 0;
#X obj 57 45 inlet;
#X obj 75 261 outlet;
#X obj 232 264 outlet;
#X obj 196 83 unpack f f;
#X obj 64 144 -;
#X obj 225 142 -;
#X obj 59 100 unpack f f;
#X obj 200 53 r \$0-pos;
#X connect 0 0 6 0;
#X connect 3 0 4 1;
#X connect 3 1 5 1;
#X connect 4 0 1 0;
#X connect 5 0 2 0;
#X connect 6 0 4 0;
#X connect 6 1 5 0;
#X connect 7 0 3 0;
#X restore 591 408 pd Gui_object_relative_coords;
#X f 13;
#N canvas 0 50 450 300 Normalize_coords 0;
#X obj 48 31 inlet;
#X obj 318 31 inlet;
#X obj 38 241 outlet;
#X obj 308 241 outlet;
#X obj 47 145 /;
#X obj 318 106 /;
#X obj 339 157 * -1;
#X obj 339 185 + 1;
#X obj 160 54 r \$0-w;
#X obj 398 58 r \$0-h;
#X connect 0 0 4 0;
#X connect 1 0 5 0;
#X connect 4 0 2 0;
#X connect 5 0 6 0;
#X connect 6 0 7 0;
#X connect 7 0 3 0;
#X connect 8 0 4 1;
#X connect 9 0 5 1;
#X restore 592 487 pd Normalize_coords;
#X f 10;
#X obj 594 615 t l l;
#X text 399 764 associe le slot i de la table MULTITOUCH.SLOT.STATUS
au \$0 du présent touch_listener, f 52;
#X floatatom 110 211 5 0 0 0 - - - 0;
#X obj 652 243 f \$0;
#X floatatom 652 272 5 0 0 0 - - - 0;
#X obj 656 199 bng 15 250 50 0 empty empty empty 17 7 0 10 #fcfcfc
#000000 #000000;
#X connect 0 0 6 0;
#X connect 1 0 3 0;
#X connect 2 0 18 0;
#X connect 3 0 2 0;
#X connect 5 0 24 0;
#X connect 6 0 12 0;
#X connect 7 0 6 1;
#X connect 8 0 6 1;
#X connect 9 0 10 0;
#X connect 10 0 21 0;
#X connect 10 1 32 0;
#X connect 10 2 23 0;
#X connect 11 0 14 0;
#X connect 12 0 13 0;
#X connect 12 1 16 0;
#X connect 12 1 36 0;
#X connect 13 0 30 0;
#X connect 14 0 13 1;
#X connect 16 0 2 1;
#X connect 16 1 11 0;
#X connect 17 0 34 0;
#X connect 18 0 5 0;
#X connect 18 1 4 0;
#X connect 18 2 7 0;
#X connect 19 0 5 1;
#X connect 19 0 22 1;
#X connect 20 0 29 0;
#X connect 20 1 31 0;
#X connect 21 0 8 0;
#X connect 21 1 22 0;
#X connect 22 0 26 0;
#X connect 24 0 23 0;
#X connect 25 0 23 0;
#X connect 26 0 23 0;
#X connect 28 0 29 1;
#X connect 28 1 31 1;
#X connect 29 0 1 0;
#X connect 30 0 20 0;
#X connect 30 1 28 0;
#X connect 31 0 19 0;
#X connect 31 1 19 1;
#X connect 32 0 33 0;
#X connect 32 1 33 1;
#X connect 33 0 17 0;
#X connect 33 1 17 1;
#X connect 34 0 25 0;
#X connect 34 1 22 1;
#X connect 37 0 38 0;
#X connect 39 0 37 0;
#X restore 479 245 pd touch_listener;
#X obj 691 37 r MULTITOUCH.ACTIVESLOTS;
#X obj 691 61 select 0;
#N canvas 0 50 1026 300 dynamic-receiver2 0;
#X obj 230 430 outlet;
#X obj 131 69 inlet;
#X obj 118 179 s pd-\$0-dynamic-receiver2;
#N canvas 0 50 450 97 \$0-dynamic-receiver2 0;
#X obj 10 10 r Untitled_1*-rcv;
#X obj 10 50 s 1104-iem_receive2;
#X connect 0 0 1 0;
#X restore 120 258 pd \$0-dynamic-receiver2;
#X obj 124 100 pack s \$0;
#X obj 128 347 r \$0-iem_receive2;
#X msg 118 131 clear \, obj 10 10 r \$1 \, obj 10 50 s \$2-iem_receive2
\, connect 0 0 1 0;
#X connect 1 0 4 0;
#X connect 4 0 6 0;
#X connect 5 0 0 0;
#X connect 6 0 2 0;
#X restore 694 427 pd dynamic-receiver2;
#X msg 693 388 symbol \$1-rcv;
#N canvas 1 58 1918 478 init/savestate 0;
#X obj 157 276 savestate;
#X obj 142 107 v \$0-w;
#X obj 157 305 list trim;
#X obj 210 19 r \$0-save;
#X obj 232 107 v \$0-h;
#X obj 211 473 unpack f f;
#X obj 140 156 pack f f;
#X obj 158 232 list;
#X obj 158 545 s \$0-w;
#X obj 235 530 s \$0-h;
#X msg 140 185 -size \$1 \$2;
#X obj 19 32 loadbang;
#X obj 19 106 spigot 1;
#X msg 88 76 0;
#X obj 426 88 v \$0-back_color;
#X obj 402 531 s \$0-back_color;
#X obj 742 490 s \$0-name;
#X obj 860 225 symbol;
#X obj 908 198 r \$0-name;
#X msg 857 258 -name \$1;
#X obj 744 457 symbol;
#X obj 1434 113 v \$0-z_offset;
#X obj 1051 482 s \$0-z_offset;
#X obj 1622 123 v \$0-invisible;
#X obj 1219 477 s \$0-invisible;
#X msg 1612 174 -invisible \$1;
#X msg 1450 152 -z_offset \$1;
#N canvas 0 50 540 413 convert 0;
#X obj 167 29 inlet;
#X obj 165 86 route float list;
#X obj 243 251 * -1;
#X obj 243 119 unpack f f f, f 17;
#X obj 243 285 - 1;
#X obj 326 153 * 256;
#X obj 243 153 * 65536;
#X obj 326 187 +;
#X obj 243 217 +;
#X obj 165 338 outlet;
#X connect 0 0 1 0;
#X connect 1 0 9 0;
#X connect 1 1 3 0;
#X connect 2 0 4 0;
#X connect 3 0 6 0;
#X connect 3 1 5 0;
#X connect 3 2 7 1;
#X connect 4 0 9 0;
#X connect 5 0 7 0;
#X connect 6 0 8 0;
#X connect 7 0 8 1;
#X connect 8 0 2 0;
#X restore 402 461 pd convert;
#N canvas 0 50 498 451 convert2rgb 0;
#X obj 53 112 * -1;
#X obj 54 81 + 1;
#X obj 180 181 mod 256;
#X obj 51 179 div 256;
#X obj 52 143 t f f, f 13;
#X obj 49 210 t f f;
#X obj 48 248 div 256;
#X obj 132 250 mod 256;
#X obj 49 288 pack f f f;
#X obj 54 51 inlet;
#X obj 49 317 outlet;
#X connect 0 0 4 0;
#X connect 1 0 0 0;
#X connect 2 0 8 2;
#X connect 3 0 5 0;
#X connect 4 0 3 0;
#X connect 4 1 2 0;
#X connect 5 0 6 0;
#X connect 5 1 7 0;
#X connect 6 0 8 0;
#X connect 7 0 8 1;
#X connect 8 0 10 0;
#X connect 9 0 1 0;
#X restore 423 118 pd convert2rgb;
#X msg 412 159 -back_color \$1 \$2 \$3;
#N canvas 0 50 498 451 convert2rgb 0;
#X obj 53 112 * -1;
#X obj 54 81 + 1;
#X obj 180 181 mod 256;
#X obj 51 179 div 256;
#X obj 52 143 t f f, f 13;
#X obj 49 210 t f f;
#X obj 48 248 div 256;
#X obj 132 250 mod 256;
#X obj 49 288 pack f f f;
#X obj 54 51 inlet;
#X obj 49 317 outlet;
#X connect 0 0 4 0;
#X connect 1 0 0 0;
#X connect 2 0 8 2;
#X connect 3 0 5 0;
#X connect 4 0 3 0;
#X connect 4 1 2 0;
#X connect 5 0 6 0;
#X connect 5 1 7 0;
#X connect 6 0 8 0;
#X connect 7 0 8 1;
#X connect 8 0 10 0;
#X connect 9 0 1 0;
#X restore 673 118 pd convert2rgb;
#N canvas 0 50 540 413 convert 0;
#X obj 167 29 inlet;
#X obj 165 86 route float list;
#X obj 243 251 * -1;
#X obj 243 119 unpack f f f, f 17;
#X obj 243 285 - 1;
#X obj 326 153 * 256;
#X obj 243 153 * 65536;
#X obj 326 187 +;
#X obj 243 217 +;
#X obj 165 338 outlet;
#X connect 0 0 1 0;
#X connect 1 0 9 0;
#X connect 1 1 3 0;
#X connect 2 0 4 0;
#X connect 3 0 6 0;
#X connect 3 1 5 0;
#X connect 3 2 7 1;
#X connect 4 0 9 0;
#X connect 5 0 7 0;
#X connect 6 0 8 0;
#X connect 7 0 8 1;
#X connect 8 0 2 0;
#X restore 532 441 pd convert;
#X obj 671 91 v \$0-front_color;
#X msg 668 155 -front_color \$1 \$2 \$3;
#X obj 532 480 s \$0-front_color;
#X obj 810 603 s \$0-xmin;
#X obj 940 485 s \$0-xmax;
#X obj 940 525 s \$0-ymax;
#X obj 810 643 s \$0-ymin;
#X msg 969 125 -xmin \$1;
#X obj 969 95 v \$0-xmin;
#X obj 1189 92 v \$0-xmax;
#X msg 1192 123 -xmax \$1;
#X obj 868 97 v \$0-ymin;
#X obj 1076 86 v \$0-ymax;
#X msg 868 127 -ymin \$1;
#X msg 1079 117 -ymax \$1;
#X obj 210 48 t b b b b b b b b b b b, f 121;
#X obj 270 395 route -size -back_color -front_color -name -min -max
-z_offset -invisible -xmin -xmax -ymin -ymax, f 106;
#X msg 21 303 -size 60 60 \, -back_color 220 220 220 \, -front_color
200 200 200 \, -min 0 \, -max 1, f 10;
#N canvas 0 0 731 635 init_name 0;
#X obj 58 424 + 1;
#X obj 57 389 v MMP.UNTITLED_WIDGET;
#X obj 59 530 s \$0-name;
#X obj 351 161 r \$0-name;
#X msg 447 329 set \$1;
#X obj 487 373 s \$0-name-rcv;
#X msg 363 246 label \$1-rcv;
#X obj 359 293 s \$0-receive_name-rcv;
#X obj 57 456 t f f;
#X obj 58 37 loadbang;
#X obj 209 23 r \$0-name;
#X obj 138 173 list fromsymbol;
#X obj 137 221 list split 9;
#X obj 137 279 list tosymbol;
#X obj 137 336 select Untitled_;
#X obj 356 194 t s s;
#X obj 57 125 select 0;
#X obj 57 77 list append 0;
#X msg 58 488 symbol Untitled_\$1*;
#X connect 0 0 8 0;
#X connect 1 0 0 0;
#X connect 3 0 15 0;
#X connect 4 0 5 0;
#X connect 6 0 7 0;
#X connect 8 0 18 0;
#X connect 8 1 1 0;
#X connect 9 0 17 0;
#X connect 10 0 17 1;
#X connect 11 0 12 0;
#X connect 12 0 13 0;
#X connect 13 0 14 0;
#X connect 14 0 1 0;
#X connect 15 0 6 0;
#X connect 15 1 4 0;
#X connect 16 0 1 0;
#X connect 16 1 11 0;
#X connect 17 0 16 0;
#X connect 18 0 2 0;
#X restore 401 6 pd init_name;
#X obj 391 346 s \$0-save;
#X obj 390 286 v MMP.EXPORT.FLAG;
#X obj 390 315 select 0;
#X msg 17 159 1;
#X obj 23 197 s \$0-editmode;
#X connect 0 0 2 0;
#X connect 0 0 13 0;
#X connect 0 1 52 0;
#X connect 1 0 6 0;
#X connect 2 0 48 0;
#X connect 3 0 47 0;
#X connect 4 0 6 1;
#X connect 5 0 8 0;
#X connect 5 1 9 0;
#X connect 6 0 10 0;
#X connect 7 0 0 0;
#X connect 10 0 7 0;
#X connect 11 0 12 0;
#X connect 12 0 49 0;
#X connect 12 0 54 0;
#X connect 13 0 12 1;
#X connect 14 0 28 0;
#X connect 17 0 19 0;
#X connect 18 0 17 1;
#X connect 19 0 7 0;
#X connect 20 0 16 0;
#X connect 21 0 26 0;
#X connect 23 0 25 0;
#X connect 25 0 7 0;
#X connect 26 0 7 0;
#X connect 27 0 15 0;
#X connect 28 0 29 0;
#X connect 29 0 7 0;
#X connect 30 0 33 0;
#X connect 31 0 34 0;
#X connect 32 0 30 0;
#X connect 33 0 7 0;
#X connect 39 0 7 0;
#X connect 40 0 39 0;
#X connect 41 0 42 0;
#X connect 42 0 7 0;
#X connect 43 0 45 0;
#X connect 44 0 46 0;
#X connect 45 0 7 0;
#X connect 46 0 7 0;
#X connect 47 0 1 0;
#X connect 47 1 4 0;
#X connect 47 2 14 0;
#X connect 47 3 32 0;
#X connect 47 4 17 0;
#X connect 47 5 43 0;
#X connect 47 6 40 0;
#X connect 47 7 44 0;
#X connect 47 8 41 0;
#X connect 47 9 21 0;
#X connect 47 10 23 0;
#X connect 48 0 5 0;
#X connect 48 1 27 0;
#X connect 48 2 31 0;
#X connect 48 3 20 0;
#X connect 48 4 35 0;
#X connect 48 4 38 0;
#X connect 48 5 36 0;
#X connect 48 5 37 0;
#X connect 48 6 22 0;
#X connect 48 7 24 0;
#X connect 48 8 35 0;
#X connect 48 9 36 0;
#X connect 48 10 38 0;
#X connect 48 11 37 0;
#X connect 49 0 48 0;
#X connect 52 0 53 0;
#X connect 53 0 51 0;
#X connect 54 0 55 0;
#X restore 1408 282 pd init/savestate;
#X obj 668 825 select 0;
#X msg 668 854 0;
#X obj 222 122 r \$0-editmode;
#N canvas 0 50 647 634 unmapping 0;
#X obj 126 102 inlet;
#X obj 119 550 outlet;
#X obj 126 131 unpack f f;
#X obj 123 518 pack f f;
#X obj 321 128 -;
#X obj 323 64 t b f f;
#X obj 131 221 -;
#X obj 303 224 -;
#X obj 139 336 /;
#X obj 237 340 /;
#X obj 496 131 -;
#X obj 498 67 t b f f;
#X obj 271 2 r \$0-xmax;
#X obj 323 35 r \$0-xmin;
#X obj 446 5 r \$0-ymax;
#X obj 518 36 r \$0-ymin;
#X connect 0 0 2 0;
#X connect 2 0 6 0;
#X connect 2 1 7 0;
#X connect 3 0 1 0;
#X connect 4 0 8 1;
#X connect 5 0 4 0;
#X connect 5 1 6 1;
#X connect 5 2 4 1;
#X connect 6 0 8 0;
#X connect 7 0 9 0;
#X connect 8 0 3 0;
#X connect 9 0 3 1;
#X connect 10 0 9 1;
#X connect 11 0 10 0;
#X connect 11 1 7 1;
#X connect 11 2 10 1;
#X connect 12 0 4 0;
#X connect 13 0 5 0;
#X connect 14 0 10 0;
#X connect 15 0 11 0;
#X restore 685 530 pd unmapping;
#X obj 685 559 t l l;
#X msg 641 679 1;
#X obj 695 643 delay 200;
#X msg 696 679 0;
#X obj 696 708 change;
#X obj 578 559 t b b;
#X obj 234 608 t l l l b;
#X obj 663 490 route list set touch_up_delay;
#X connect 0 0 1 0;
#X connect 2 0 21 0;
#X connect 3 0 4 0;
#X connect 4 0 52 0;
#X connect 4 1 11 0;
#X connect 6 0 14 0;
#X connect 7 0 9 0;
#X connect 8 0 10 0;
#X connect 9 0 6 0;
#X connect 10 0 26 0;
#X connect 14 0 3 0;
#X connect 21 0 3 1;
#X connect 21 1 56 0;
#X connect 21 2 52 2;
#X connect 22 0 36 0;
#X connect 23 0 22 0;
#X connect 24 0 25 0;
#X connect 25 0 36 0;
#X connect 26 0 9 0;
#X connect 26 1 9 1;
#X connect 32 0 28 0;
#X connect 33 0 30 0;
#X connect 38 0 37 1;
#X connect 39 0 54 0;
#X connect 40 0 62 0;
#X connect 41 0 75 0;
#X connect 42 0 48 0;
#X connect 44 0 12 0;
#X connect 44 1 43 0;
#X connect 44 2 64 0;
#X connect 45 0 46 0;
#X connect 45 1 74 0;
#X connect 45 2 51 0;
#X connect 45 3 15 0;
#X connect 46 0 74 0;
#X connect 48 0 74 0;
#X connect 48 1 49 0;
#X connect 49 0 15 0;
#X connect 50 0 48 0;
#X connect 51 0 74 0;
#X connect 52 0 50 0;
#X connect 54 0 16 0;
#X connect 54 1 37 0;
#X connect 55 0 41 0;
#X connect 56 0 52 1;
#X connect 56 1 0 0;
#X connect 57 0 58 0;
#X connect 58 0 45 0;
#X connect 59 0 60 0;
#X connect 60 0 0 0;
#X connect 61 0 41 0;
#X connect 62 0 61 0;
#X connect 64 0 65 0;
#X connect 65 0 15 0;
#X connect 66 0 3 1;
#X connect 67 0 68 0;
#X connect 68 0 33 0;
#X connect 68 1 32 0;
#X connect 69 0 72 0;
#X connect 70 0 71 0;
#X connect 71 0 72 0;
#X connect 72 0 44 0;
#X connect 73 0 69 0;
#X connect 73 1 70 0;
#X connect 74 0 39 0;
#X connect 74 1 33 0;
#X connect 74 2 32 0;
#X connect 74 3 73 0;
#X connect 75 0 42 0;
#X connect 75 1 67 0;
#X connect 75 2 70 1;
#X coords 0 -1 1 1 60 60 2 100 100;
