#N canvas 956 343 450 300 12;
#X text 57 54 embedded oject for mmp/bargraph abstraction;
#X obj 96 96 r \$1-rcv;
#X obj 96 121 route refresh;
#X obj 97 199 s toGUI;
#X obj 96 146 t b;
#X obj 96 171 list append \$1 refresh;
#X connect 1 0 2 0;
#X connect 2 0 4 0;
#X connect 4 0 5 0;
#X connect 5 0 3 0;
