#N canvas 548 303 450 300 12;
#X obj 91 128 inlet;
#X obj 171 264 outlet;
#X obj 90 164 s \$1-rcv;
#X obj 172 169 r \$1;
#X obj 407 221 r \$1.touch;
#X text 82 81 embedded object for mmp/vfader abstraction;
#X msg 279 204 50;
#X obj 171 216 t f b;
#X obj 279 270 outlet pressure;
#X obj 407 267 outlet touch;
#X connect 0 0 2 0;
#X connect 3 0 7 0;
#X connect 4 0 9 0;
#X connect 6 0 8 0;
#X connect 7 0 1 0;
#X connect 7 1 6 0;
