#N canvas 0 58 1920 1023 12;
#X obj 61 12 inlet;
#X obj 116 309 outlet;
#X obj 61 37 route chain;
#X obj 62 94 list split 2;
#X obj 70 131 list split 4;
#X obj 376 99 list split 4;
#X obj 254 45 inlet color;
#X obj 52 251 list prepend chain;
#X obj 52 276 list trim;
#X text 137 14 chain x y r g b a;
#X obj 45 211 list append;
#X obj 38 172 list append \$1 \$2 \$3 \$4;
#X msg 232 129 redraw;
#X obj 266 238 route head;
#X obj 266 262 symbol;
#X obj 230 348 s;
#X obj 195 207 t a a;
#X obj 260 82 t b l;
#X obj 386 137 unpack f f f f;
#X obj 360 177 clip 0 1;
#X obj 390 197 clip 0 1;
#X obj 420 217 clip 0 1;
#X obj 450 237 clip 0 1;
#X obj 362 263 pack f f f f;
#X connect 0 0 2 0;
#X connect 2 0 3 0;
#X connect 2 1 16 0;
#X connect 3 0 11 0;
#X connect 3 1 4 0;
#X connect 4 1 10 1;
#X connect 5 0 18 0;
#X connect 6 0 17 0;
#X connect 7 0 8 0;
#X connect 8 0 1 0;
#X connect 10 0 7 0;
#X connect 11 0 10 0;
#X connect 12 0 15 0;
#X connect 13 0 14 0;
#X connect 14 0 15 1;
#X connect 16 0 1 0;
#X connect 16 1 13 0;
#X connect 17 0 12 0;
#X connect 17 1 5 0;
#X connect 18 0 19 0;
#X connect 18 1 20 0;
#X connect 18 2 21 0;
#X connect 18 3 22 0;
#X connect 19 0 23 0;
#X connect 20 0 23 1;
#X connect 21 0 23 2;
#X connect 22 0 23 3;
#X connect 23 0 11 1;
