#N canvas 961 58 958 1018 12;
#X obj 424 428 r \$1;
#X obj 406 660 list prepend set;
#X obj 65 250 select 1;
#X obj 66 308 s \$1;
#X obj 66 204 r \$2.\$1;
#X obj 424 453 t b b;
#X obj 418 527 delay \$3;
#X obj 406 685 list prepend \$2.\$1;
#X obj 406 710 s toGUI;
#X msg 418 552 0;
#X msg 463 586 1;
#X connect 0 0 5 0;
#X connect 1 0 7 0;
#X connect 2 0 3 0;
#X connect 4 0 2 0;
#X connect 5 0 6 0;
#X connect 5 1 10 0;
#X connect 6 0 9 0;
#X connect 7 0 8 0;
#X connect 9 0 1 0;
#X connect 10 0 1 0;
