#N canvas 961 58 958 1018 12;
#X obj 599 357 list append;
#X obj 661 452 s RJ_SCENE;
#X obj 597 221 r RJ_SCENE_SAVE;
#X obj 597 246 route save;
#X obj 597 271 t b;
#X obj 591 386 route bang;
#X obj 399 343 r RJ_SCENE_LOAD;
#X obj 399 368 list trim;
#X obj 399 404 route \$1;
#X obj 399 429 route bang;
#X obj 650 107 r \$1;
#X obj 455 481 s \$1;
#X obj 653 415 list prepend \$1;
#X obj 424 596 r \$1;
#X obj 424 621 list prepend set;
#X obj 424 646 list trim;
#X obj 424 671 s \$2;
#N canvas 0 57 1920 1023 savestate 0;
#X obj 237 276 savestate;
#X obj 461 122 list append;
#X obj 542 84 r \$1;
#X obj 427 85 t b b;
#X obj 307 363 list trim;
#X obj 307 388 route MOB_TARGET;
#X obj 292 555 s \$1;
#X obj 272 488 loadbang;
#X obj 469 466 bng 15 250 50 0 empty empty empty 17 7 0 10 -262144
-1 -1;
#X obj 416 427 route float;
#X obj 432 223 list append MOB_TARGET \$1;
#X text 690 153 le probleme de savestate est que le listener est généré
au moment de l'export \, et donc ne connait pas la valeur du parametre.
donc savestate stocke une liste vide.;
#X text 649 217 pd 0.48;
#X text 655 273 pd 0.49;
#X text 694 295 RJ_SCENE_LOAD n'est pas déclenchée. le chargement
des parametres #saved ou inscrits en dur est déclenché par savestate
;
#X obj 292 530 list append \$4;
#X text 692 234 RJ_SCENE_LOAD récupère la valeur #saved \, si celle-ci
est nulle \, on lui substitue l'argument \$4;
#X connect 0 0 4 0;
#X connect 0 1 3 0;
#X connect 1 0 0 0;
#X connect 2 0 1 1;
#X connect 3 0 10 0;
#X connect 3 1 1 0;
#X connect 4 0 5 0;
#X connect 5 1 9 0;
#X connect 7 0 15 0;
#X connect 9 0 15 1;
#X connect 9 1 8 0;
#X connect 10 0 0 0;
#X connect 15 0 6 0;
#X restore 364 122 pd savestate;
#X obj 174 632 s toGUI;
#X obj 123 486 route 0;
#X obj 122 449 list prepend \$3 \$1;
#X obj 124 530 list;
#X obj 106 793 s \$1;
#X obj 217 757 r \$1;
#X obj 217 782 list prepend set;
#X obj 217 807 list trim;
#X obj 217 832 s \$2;
#X text 72 713 routed fromGUI;
#X obj 147 335 r \$1;
#X obj 105 758 r \$3.\$1;
#X msg 125 567 list \$1 set \$2;
#X msg 200 528 list \$1.\$2 set \$3;
#X obj 69 338 r \$2;
#X obj 69 363 route set;
#X obj 150 399 change;
#X connect 0 0 5 0;
#X connect 2 0 3 0;
#X connect 3 0 4 0;
#X connect 4 0 0 0;
#X connect 5 1 12 0;
#X connect 6 0 7 0;
#X connect 7 0 8 0;
#X connect 8 0 9 0;
#X connect 9 1 11 0;
#X connect 10 0 0 1;
#X connect 12 0 1 0;
#X connect 13 0 14 0;
#X connect 14 0 15 0;
#X connect 15 0 16 0;
#X connect 19 0 21 0;
#X connect 19 1 31 0;
#X connect 20 0 19 0;
#X connect 21 0 30 0;
#X connect 23 0 24 0;
#X connect 24 0 25 0;
#X connect 25 0 26 0;
#X connect 28 0 34 0;
#X connect 29 0 22 0;
#X connect 30 0 18 0;
#X connect 31 0 18 0;
#X connect 32 0 33 0;
#X connect 33 0 34 0;
#X connect 34 0 20 0;
