#N canvas 1057 68 958 1018 12;
#X obj 569 357 list append;
#X obj 653 467 s RJ_SCENE;
#X obj 597 221 r RJ_SCENE_SAVE;
#X obj 597 246 route save;
#X obj 597 271 t b;
#X obj 561 386 route bang;
#X obj 399 354 r RJ_SCENE_LOAD;
#X obj 399 379 list trim;
#X obj 399 404 route \$1;
#X obj 399 429 route bang;
#X obj 650 107 r \$1;
#X obj 94 386 s toGUI;
#X obj 469 480 s \$1;
#X obj 645 430 list prepend \$1;
#X obj 224 557 r \$1;
#X obj 224 582 list prepend set;
#X obj 224 607 list trim;
#X obj 224 632 s \$2;
#X text 73 514 routed fromGUI;
#X obj 91 559 r \$3.\$1;
#X obj 598 312 spigot 1;
#X obj 775 190 loadbang;
#X obj 776 229 symbol \$1;
#X obj 776 254 select mob_load mob_save;
#X msg 729 295 0;
#X text 207 268 erase previous;
#X obj 110 77 r \$1;
#X msg 168 246 clear;
#X obj 131 186 t f b;
#X msg 360 303 clear \, set 0 0 1;
#X obj 96 340 list prepend \$3.\$1;
#X msg 70 242 set \$1 0 1;
#X msg 91 605 \$1;
#X obj 182 86 r \$2;
#X obj 131 145 change;
#X obj 90 643 s \$2;
#X obj 182 111 route set float;
#X obj 239 160 s \$1;
#X connect 0 0 5 0;
#X connect 2 0 3 0;
#X connect 3 0 4 0;
#X connect 4 0 20 0;
#X connect 5 1 13 0;
#X connect 6 0 7 0;
#X connect 7 0 8 0;
#X connect 8 0 9 0;
#X connect 9 1 12 0;
#X connect 10 0 0 1;
#X connect 13 0 1 0;
#X connect 14 0 15 0;
#X connect 15 0 16 0;
#X connect 16 0 17 0;
#X connect 19 0 32 0;
#X connect 20 0 0 0;
#X connect 21 0 22 0;
#X connect 21 0 29 0;
#X connect 22 0 23 0;
#X connect 23 0 24 0;
#X connect 23 1 24 0;
#X connect 24 0 20 1;
#X connect 26 0 34 0;
#X connect 27 0 30 0;
#X connect 28 0 31 0;
#X connect 28 1 27 0;
#X connect 29 0 30 0;
#X connect 30 0 11 0;
#X connect 31 0 30 0;
#X connect 32 0 35 0;
#X connect 33 0 36 0;
#X connect 34 0 28 0;
#X connect 36 0 34 0;
#X connect 36 1 37 0;
