#N canvas 961 201 958 1018 12;
#X obj 212 239 f \$5;
#X obj 212 263 - \$4;
#X obj 212 287 select 0;
#X obj 229 500 * 1;
#X obj 227 533 + \$4;
#X text 20 280 routed fromGUI;
#X obj 53 325 r \$3.\$1;
#X obj 284 495 * 1;
#X text 50 3 Arguments;
#X text 133 41 receiver_name;
#X text 133 61 SID;
#X text 133 21 parameter/sender_name;
#X obj 53 350 list trim;
#X obj 53 375 route touch;
#X obj 51 461 unpack f f f f;
#X obj 94 498 select 0 1 2;
#X msg 94 523 symbol remove;
#X msg 107 557 symbol add;
#X msg 118 583 symbol update;
#X obj 59 622 pack f s f f;
#X obj 59 647 s \$1;
#X obj 141 413 s \$1.cooked;
#X obj 303 161 loadbang;
#X obj 305 188 t b b;
#X obj 436 312 select 0;
#X obj 354 490 f \$4;
#X obj 302 413 spigot 0;
#X msg 366 341 1;
#X obj 284 532 + \$6;
#X obj 436 285 - \$6;
#X obj 436 261 f \$7;
#X text 527 269 si \$6 et \$7 (ymin et ymax) sont nuls ou egaux \,
on utilise à la place \$4 et \$5 (xmin et xmax);
#X text 133 81 xmin value;
#X text 133 101 xmax value;
#X text 133 121 ymin value;
#X text 139 143 ymax value;
#X connect 0 0 1 0;
#X connect 1 0 2 0;
#X connect 2 1 3 1;
#X connect 2 1 26 0;
#X connect 3 0 4 0;
#X connect 4 0 19 2;
#X connect 6 0 12 0;
#X connect 7 0 28 0;
#X connect 12 0 13 0;
#X connect 13 0 14 0;
#X connect 13 1 21 0;
#X connect 14 0 19 0;
#X connect 14 1 15 0;
#X connect 14 2 3 0;
#X connect 14 3 7 0;
#X connect 15 0 16 0;
#X connect 15 1 17 0;
#X connect 15 2 18 0;
#X connect 16 0 19 1;
#X connect 17 0 19 1;
#X connect 18 0 19 1;
#X connect 19 0 20 0;
#X connect 22 0 23 0;
#X connect 23 0 0 0;
#X connect 23 1 30 0;
#X connect 24 0 25 0;
#X connect 24 0 27 0;
#X connect 24 1 7 1;
#X connect 25 0 28 1;
#X connect 26 0 7 1;
#X connect 27 0 26 1;
#X connect 28 0 19 3;
#X connect 29 0 24 0;
#X connect 30 0 29 0;
