#N canvas 950 136 958 1018 12;
#X obj 569 427 list append;
#X obj 631 522 s RJ_SCENE;
#X obj 597 291 r RJ_SCENE_SAVE;
#X obj 597 316 route save;
#X obj 597 341 t b;
#X obj 561 456 route bang;
#X obj 399 424 r RJ_SCENE_LOAD;
#X obj 399 449 list trim;
#X obj 399 474 route \$1;
#X obj 399 499 route bang;
#X obj 644 393 r \$1;
#X obj 64 631 s toGUI;
#X obj 466 586 s \$1;
#X obj 623 485 list prepend \$1;
#X obj 424 666 r \$1;
#X obj 424 691 list prepend set;
#X obj 424 716 list trim;
#X obj 424 741 s \$2;
#X obj 63 172 r \$1;
#X obj 63 573 list prepend \$1 set;
#X obj 72 268 - \$4;
#X obj 69 320 / 1;
#X obj 212 165 loadbang;
#X obj 214 219 f \$5;
#X obj 214 243 - \$4;
#X obj 212 269 select 0;
#X obj 86 447 route 0;
#X obj 63 197 unpack f f;
#X obj 127 325 / 1;
#X obj 71 364 pack f f;
#X obj 85 410 list prepend \$3;
#X obj 122 522 list prepend \$3.\$1 set;
#X obj 133 475 list split 1;
#X obj 140 813 * 1;
#X obj 138 846 + \$4;
#X obj 138 912 s \$1;
#X text 95 688 routed fromGUI;
#X obj 128 733 r \$3.\$1;
#X obj 128 758 unpack f f;
#X obj 195 808 * 1;
#X obj 138 875 pack f f;
#X text 50 3 Arguments;
#X text 133 41 receiver_name;
#X text 133 61 SID;
#X text 133 81 min value;
#X text 133 101 max value;
#X obj 401 534 list append \$6 \$7;
#X text 427 93 pd 0.48;
#X text 470 110 RJ_SCENE_LOAD récupère la valeur #saved \, si celle-ci
est nulle \, on lui substitue les arguments \$6 \$7;
#X text 135 118 current x value;
#X text 137 132 current y value;
#X text 133 21 parameter/sender_name;
#X obj 214 192 t b b;
#X obj 292 270 select 0;
#X obj 292 219 f \$9;
#X obj 292 243 - \$8;
#X obj 157 232 f \$4;
#X obj 286 376 spigot 0;
#X msg 295 306 1;
#X text 383 227 si \$8 et \$9 (ymin et ymax) sont nuls ou egaux \,
on utilise à la place \$4 et \$5 (xmin et xmax);
#X obj 128 269 - \$8;
#X obj 196 837 + \$8;
#X connect 0 0 5 0;
#X connect 2 0 3 0;
#X connect 3 0 4 0;
#X connect 4 0 0 0;
#X connect 5 1 13 0;
#X connect 6 0 7 0;
#X connect 7 0 8 0;
#X connect 8 0 9 0;
#X connect 9 0 46 0;
#X connect 9 1 12 0;
#X connect 10 0 0 1;
#X connect 13 0 1 0;
#X connect 14 0 15 0;
#X connect 15 0 16 0;
#X connect 16 0 17 0;
#X connect 18 0 27 0;
#X connect 19 0 11 0;
#X connect 20 0 21 0;
#X connect 21 0 29 0;
#X connect 22 0 52 0;
#X connect 23 0 24 0;
#X connect 24 0 25 0;
#X connect 25 1 21 1;
#X connect 25 1 33 1;
#X connect 25 1 57 0;
#X connect 26 0 19 0;
#X connect 26 1 32 0;
#X connect 27 0 20 0;
#X connect 27 1 60 0;
#X connect 28 0 29 1;
#X connect 29 0 30 0;
#X connect 30 0 26 0;
#X connect 31 0 11 0;
#X connect 32 1 31 0;
#X connect 33 0 34 0;
#X connect 34 0 40 0;
#X connect 37 0 38 0;
#X connect 38 0 33 0;
#X connect 38 1 39 0;
#X connect 39 0 61 0;
#X connect 40 0 35 0;
#X connect 46 0 12 0;
#X connect 52 0 23 0;
#X connect 52 1 54 0;
#X connect 53 0 56 0;
#X connect 53 0 58 0;
#X connect 53 1 28 1;
#X connect 53 1 39 1;
#X connect 54 0 55 0;
#X connect 55 0 53 0;
#X connect 56 0 60 1;
#X connect 56 0 61 1;
#X connect 57 0 39 1;
#X connect 57 0 28 1;
#X connect 58 0 57 1;
#X connect 60 0 28 0;
#X connect 61 0 40 1;
