#N canvas 1138 94 958 1018 12;
#X obj 569 357 list append;
#X obj 631 452 s RJ_SCENE;
#X obj 597 221 r RJ_SCENE_SAVE;
#X obj 597 246 route save;
#X obj 597 271 t b;
#X obj 561 386 route bang;
#X obj 399 354 r RJ_SCENE_LOAD;
#X obj 399 379 list trim;
#X obj 399 404 route \$1;
#X obj 399 429 route bang;
#X obj 650 107 r \$1;
#X obj 117 433 s toGUI;
#X obj 455 481 s \$1;
#X obj 623 415 list prepend \$1;
#X obj 95 159 - \$4;
#X obj 96 204 / 1;
#X obj 161 101 loadbang;
#X obj 161 125 f \$5;
#X obj 161 149 - \$4;
#X obj 161 173 select 0;
#X obj 173 810 * 1;
#X obj 424 596 r \$1;
#X obj 424 621 list prepend set;
#X obj 424 646 list trim;
#X obj 424 671 s \$2;
#X text 13 473 routed fromGUI;
#X obj 84 84 r \$1;
#X obj 31 597 r \$3.\$1;
#X obj 31 623 route 1 2;
#X msg 192 310 clear;
#X obj 82 397 list prepend \$3.\$1;
#X obj 72 245 t f b;
#X text 168 509 <----output: on touch \, sends out three-float list.
\; first element is "1" on touch down \, "2" on drag \, "0" on touch
up \; second and third elements are x and y touch position \, normalized
0.-1.;
#X msg 31 651 \$2;
#X obj 72 270 - 1;
#X obj 72 295 * -1;
#X msg 32 345 paintrect 0 1 1 \$1;
#X obj 156 709 -;
#X msg 68 652 \$2;
#X obj 156 652 t f f;
#X obj 173 835 * -1;
#X obj 173 860 +;
#X obj 218 834 r \$1;
#X obj 173 885 max \$4;
#X obj 173 910 min \$5;
#X obj 173 935 s \$1;
#X text 200 736 speed ratio;
#X obj 41 868 * 1;
#X obj 37 903 + \$4;
#X obj 36 928 s \$1;
#X obj 38 773 spigot 1;
#X obj 152 737 * \$6;
#X obj 154 786 spigot \$6;
#X obj 88 722 f \$6;
#X obj 88 747 == 0;
#X obj 88 698 loadbang;
#X obj 152 762 * 0.01;
#X obj 23 809 - 1;
#X obj 23 834 * -1;
#N canvas 0 57 1920 1023 savestate 0;
#X obj 237 276 savestate;
#X obj 461 122 list append;
#X obj 542 84 r \$1;
#X obj 427 85 t b b;
#X obj 307 363 list trim;
#X obj 307 388 route MOB_TARGET;
#X obj 292 555 s \$1;
#X obj 272 488 loadbang;
#X obj 469 466 bng 15 250 50 0 empty empty empty 17 7 0 10 -262144
-1 -1;
#X obj 416 427 route float;
#X obj 432 223 list append MOB_TARGET \$1;
#X obj 292 530 list append \$7;
#X connect 0 0 4 0;
#X connect 0 1 3 0;
#X connect 1 0 0 0;
#X connect 2 0 1 1;
#X connect 3 0 10 0;
#X connect 3 1 1 0;
#X connect 4 0 5 0;
#X connect 5 1 9 0;
#X connect 7 0 11 0;
#X connect 9 0 11 1;
#X connect 9 1 8 0;
#X connect 10 0 0 0;
#X connect 11 0 6 0;
#X restore 204 35 pd savestate;
#X text 314 28 le probleme de savestate est que le listener est généré
au moment de l'export \, et donc ne connait pas la valeur du parametre.
donc savestate stocke une liste vide.;
#X text 273 92 pd 0.48;
#X text 171 12 pd 0.49;
#X text 279 148 pd 0.49;
#X text 318 170 RJ_SCENE_LOAD n'est pas déclenchée. le chargement
des parametres #saved ou inscrits en dur est déclenché par savestate
;
#X text 316 109 RJ_SCENE_LOAD récupère la valeur #saved \, si celle-ci
est nulle \, on lui substitue l'argument \$6;
#X obj 399 454 list append \$6;
#X obj 89 121 change;
#X connect 0 0 5 0;
#X connect 2 0 3 0;
#X connect 3 0 4 0;
#X connect 4 0 0 0;
#X connect 5 1 13 0;
#X connect 6 0 7 0;
#X connect 7 0 8 0;
#X connect 8 0 9 0;
#X connect 9 0 66 0;
#X connect 9 1 12 0;
#X connect 10 0 0 1;
#X connect 13 0 1 0;
#X connect 14 0 15 0;
#X connect 15 0 31 0;
#X connect 16 0 17 0;
#X connect 17 0 18 0;
#X connect 18 0 19 0;
#X connect 19 1 15 1;
#X connect 19 1 20 1;
#X connect 19 1 47 1;
#X connect 20 0 40 0;
#X connect 21 0 22 0;
#X connect 22 0 23 0;
#X connect 23 0 24 0;
#X connect 26 0 67 0;
#X connect 27 0 28 0;
#X connect 28 0 33 0;
#X connect 28 1 38 0;
#X connect 29 0 30 0;
#X connect 30 0 11 0;
#X connect 31 0 34 0;
#X connect 31 1 29 0;
#X connect 33 0 37 1;
#X connect 33 0 50 0;
#X connect 34 0 35 0;
#X connect 35 0 36 0;
#X connect 36 0 30 0;
#X connect 37 0 51 0;
#X connect 38 0 39 0;
#X connect 38 0 50 0;
#X connect 39 0 37 1;
#X connect 39 1 37 0;
#X connect 40 0 41 0;
#X connect 41 0 43 0;
#X connect 42 0 41 1;
#X connect 43 0 44 0;
#X connect 44 0 45 0;
#X connect 47 0 48 0;
#X connect 48 0 49 0;
#X connect 50 0 57 0;
#X connect 51 0 56 0;
#X connect 52 0 20 0;
#X connect 53 0 54 0;
#X connect 54 0 50 1;
#X connect 55 0 53 0;
#X connect 56 0 52 0;
#X connect 57 0 58 0;
#X connect 58 0 47 0;
#X connect 66 0 12 0;
#X connect 67 0 14 0;
