#N canvas 465 58 958 1018 12;
#X obj 212 215 loadbang;
#X obj 212 239 f \$5;
#X obj 212 263 - \$4;
#X obj 212 287 select 0;
#X obj 229 500 * 1;
#X obj 227 533 + \$4;
#X text 20 280 routed fromGUI;
#X obj 53 325 r \$3.\$1;
#X obj 284 495 * 1;
#X obj 285 524 + \$4;
#X text 50 3 Arguments;
#X text 133 41 receiver_name;
#X text 133 61 SID;
#X text 133 81 min value;
#X text 133 101 max value;
#X text 133 21 parameter/sender_name;
#X obj 53 350 list trim;
#X obj 53 375 route touch;
#X obj 51 461 unpack f f f f;
#X obj 94 498 select 0 1 2;
#X msg 94 523 symbol remove;
#X msg 107 557 symbol add;
#X msg 118 583 symbol update;
#X obj 59 622 pack f s f f;
#X obj 59 647 s \$1;
#X obj 141 413 s \$1.cooked;
#X connect 0 0 1 0;
#X connect 1 0 2 0;
#X connect 2 0 3 0;
#X connect 3 1 4 1;
#X connect 3 1 8 1;
#X connect 4 0 5 0;
#X connect 5 0 23 2;
#X connect 7 0 16 0;
#X connect 8 0 9 0;
#X connect 9 0 23 3;
#X connect 16 0 17 0;
#X connect 17 0 18 0;
#X connect 17 1 25 0;
#X connect 18 0 23 0;
#X connect 18 1 19 0;
#X connect 18 2 4 0;
#X connect 18 3 8 0;
#X connect 19 0 20 0;
#X connect 19 1 21 0;
#X connect 19 2 22 0;
#X connect 20 0 23 1;
#X connect 21 0 23 1;
#X connect 22 0 23 1;
#X connect 23 0 24 0;
