#N canvas 548 303 450 300 12;
#X obj 89 90 inlet;
#X obj 186 221 outlet;
#X obj 88 126 s \$1-rcv;
#X obj 205 98 r \$1;
#X obj 269 225 outlet pressure;
#X obj 438 244 outlet touch;
#X obj 207 130 t l b b b;
#X msg 450 193 1;
#X obj 343 187 delay 200;
#X msg 265 196 50;
#X text 105 64 embedded object for mmp/xy_multi abstraction;
#X connect 0 0 2 0;
#X connect 3 0 6 0;
#X connect 6 0 1 0;
#X connect 6 1 9 0;
#X connect 6 2 8 0;
#X connect 6 3 7 0;
#X connect 7 0 5 0;
#X connect 8 0 5 0;
#X connect 9 0 4 0;
