#N struct bckgrnd float x float y float width float height float color
;
#N canvas 959 167 1193 853 36;
#X declare -path pdr/modules/basic;
#X scalar bckgrnd 0 0 579.882 362.426 346 \;;
#X obj 960 239 mob;
#A saved -R 106.417;
#A saved -G 128.504;
#A saved -B 204.803;
#A saved -pages 1;
#A saved -mode 2;
#A saved -landscape 1;
#A saved -zoom 1.65551;
#X obj 13 86 mob/xy_multi multitouch_pad;
#A saved -show_first_touch 0;
#A saved -invisible 0;
#A saved -z_offset 0;
#A saved -xmax 1;
#A saved -ymax 0;
#A saved -xmin 0;
#A saved -ymin 1;
#A saved -name multitouch_pad;
#A saved -front_color 198 198 198;
#A saved -back_color 212 210 207;
#A saved -size 552 258;
#X obj 317 16 hradio 60 1 1 4 wave wave-rcv empty 0 -8 0 10 -261682
-260097 -1 3;
#X obj 1016 103 pdr;
#N canvas 0 50 450 300 \$0-PdRacks.declare 0;
#X obj 10 10 declare -path pdr/modules/basic;
#X obj 10 60 pdr/core/stuff/u_glocal.enable \$0;
#A saved modules_set # List of modules to load;
#A saved modules_set # you can add new sets of modules here;
#A saved modules_set # (ctrl/cmd + s to save and close);
#A saved modules_set basic;
#X restore 1016 148 pd \$0-PdRacks.declare;
#N canvas 961 58 958 1018 stuff 0;
#X obj 613 415 lop~ 10;
#X obj 614 305 loadbang;
#X obj 446 524 clip~ -1 1;
#N canvas 1048 65 837 926 osc 0;
#X obj 154 12 inlet;
#X obj 18 886 outlet~;
#X obj 579 757 line~;
#X obj 153 140 t l b;
#X obj 40 213 unpack f f;
#X obj 24 379 lop~ 10;
#X obj 266 288 lop~ 10;
#X obj 23 516 bwl-osc 1;
#X obj 22 827 *~;
#X obj 152 79 route add update remove;
#X msg 483 209 1 5;
#X msg 586 207 0 100;
#X obj 401 400 *~ -80;
#X obj 372 543 mtof~;
#X obj 243 394 *~ -1;
#X obj 239 447 +~ 1;
#X obj 391 475 +~ 130;
#X obj 22 766 lop~ 4000;
#X obj 80 654 vcf~ 10;
#X obj 83 708 *~ 4;
#X connect 0 0 9 0;
#X connect 2 0 8 1;
#X connect 3 0 4 0;
#X connect 3 1 10 0;
#X connect 4 0 5 0;
#X connect 4 1 6 0;
#X connect 5 0 7 0;
#X connect 6 0 12 0;
#X connect 6 0 14 0;
#X connect 7 0 17 0;
#X connect 7 0 18 0;
#X connect 8 0 1 0;
#X connect 9 0 3 0;
#X connect 9 1 3 0;
#X connect 9 2 11 0;
#X connect 10 0 2 0;
#X connect 11 0 2 0;
#X connect 12 0 16 0;
#X connect 13 0 18 1;
#X connect 14 0 15 0;
#X connect 15 0 7 1;
#X connect 16 0 13 0;
#X connect 17 0 8 0;
#X connect 18 0 19 0;
#X connect 19 0 8 0;
#X restore 445 175 pd osc;
#N canvas 0 50 469 555 tilt 0;
#X obj 51 17 receive fromSystem;
#X obj 52 220 unpack 0 0;
#X obj 51 79 list trim;
#X obj 52 143 route /tilts /shake /key /keyUp;
#X obj 265 310 * 127;
#X obj 45 459 dbtorms;
#X obj 45 513 outlet;
#X obj 51 390 + 88;
#X obj 58 322 * -15;
#X obj 250 445 s vol;
#X msg 221 383 set \$1;
#X obj 332 227 r vol;
#X connect 0 0 2 0;
#X connect 1 0 8 0;
#X connect 1 0 10 0;
#X connect 2 0 3 0;
#X connect 3 0 1 0;
#X connect 5 0 6 0;
#X connect 7 0 5 0;
#X connect 8 0 7 0;
#X connect 10 0 9 0;
#X connect 11 0 8 0;
#X restore 759 360 pd tilt;
#X obj 441 115 route 0 1 2 3;
#X obj 445 306 *~;
#X obj 893 513 r wave;
#X msg 889 570 \; bwl-osc WFORM \$1 1;
#X obj 445 62 r multitouch_pad;
#X msg 614 358 0.25;
#N canvas 0 50 1714 956 open-stage-control 0;
#X obj 39 61 netreceive -b -u 7777;
#X obj 39 115 oscparse;
#X obj 39 169 list trim;
#X obj 346 340 list split 2;
#X obj 488 455 list split 2;
#X obj 39 277 route float;
#X msg 64 418 \$2 \$1;
#X obj 63 490 route 0 1;
#X msg 59 681 \$1 remove;
#X obj 435 586 route 0 1 2 3;
#X obj 171 347 t l l;
#X obj 309 680 spigot;
#X msg 349 396 0 update \$1 \$2;
#X msg 490 512 1 update \$1 \$2;
#X obj 800 546 list split 2;
#X obj 941 701 list split 2;
#X msg 802 603 2 update \$1 \$2;
#X msg 943 758 3 update \$1 \$2;
#X obj 629 687 spigot;
#X obj 467 688 spigot;
#X obj 712 759 spigot;
#X obj 141 834 outlet;
#X obj 870 422 s vol;
#X obj 39 223 route pad_event pad_update vol wave;
#X obj 988 302 s wave;
#X obj 646 322 * -1;
#X obj 758 372 + 1;
#X connect 0 0 1 0;
#X connect 1 0 2 0;
#X connect 2 0 23 0;
#X connect 3 0 12 0;
#X connect 3 1 4 0;
#X connect 4 0 13 0;
#X connect 4 1 14 0;
#X connect 5 1 10 0;
#X connect 6 0 7 0;
#X connect 7 0 8 0;
#X connect 8 0 21 0;
#X connect 9 0 11 1;
#X connect 9 1 19 1;
#X connect 9 2 18 1;
#X connect 9 3 20 1;
#X connect 10 0 6 0;
#X connect 10 1 9 0;
#X connect 11 0 21 0;
#X connect 12 0 11 0;
#X connect 13 0 19 0;
#X connect 14 0 16 0;
#X connect 14 1 15 0;
#X connect 15 0 17 0;
#X connect 16 0 18 0;
#X connect 17 0 20 0;
#X connect 18 0 21 0;
#X connect 19 0 21 0;
#X connect 20 0 21 0;
#X connect 23 0 5 0;
#X connect 23 1 3 0;
#X connect 23 2 25 0;
#X connect 23 3 24 0;
#X connect 25 0 26 0;
#X connect 26 0 22 0;
#X restore 953 72 pd open-stage-control;
#N canvas 1048 65 837 802 osc 0;
#X obj 25 37 inlet;
#X obj 54 836 outlet~;
#X obj 328 256 line~;
#X obj 49 231 t l b;
#X obj 47 375 unpack f f;
#X obj 45 439 lop~ 10;
#X obj 445 336 lop~ 10;
#X obj 68 521 bwl-osc 1;
#X obj 110 758 *~;
#X obj 50 128 route add update remove;
#X msg 225 314 1 5;
#X msg 328 186 0 100;
#X obj 413 459 *~ -80;
#X obj 384 602 mtof~;
#X obj 307 419 *~ -1;
#X obj 270 485 +~ 1;
#X obj 403 534 +~ 130;
#X obj 274 688 lop~ 4000;
#X obj 80 654 vcf~ 10;
#X obj 95 706 *~ 4;
#X connect 0 0 9 0;
#X connect 2 0 8 1;
#X connect 3 0 4 0;
#X connect 3 1 10 0;
#X connect 4 0 5 0;
#X connect 4 1 6 0;
#X connect 5 0 7 0;
#X connect 6 0 12 0;
#X connect 6 0 14 0;
#X connect 7 0 17 0;
#X connect 7 0 18 0;
#X connect 8 0 1 0;
#X connect 9 0 3 0;
#X connect 9 1 3 0;
#X connect 9 2 11 0;
#X connect 10 0 2 0;
#X connect 11 0 2 0;
#X connect 12 0 16 0;
#X connect 13 0 18 1;
#X connect 14 0 15 0;
#X connect 15 0 7 1;
#X connect 16 0 13 0;
#X connect 17 0 8 0;
#X connect 18 0 19 0;
#X connect 19 0 8 0;
#X restore 597 177 pd osc;
#N canvas 1048 65 837 802 osc 0;
#X obj 25 37 inlet;
#X obj 54 836 outlet~;
#X obj 328 256 line~;
#X obj 49 231 t l b;
#X obj 47 375 unpack f f;
#X obj 45 439 lop~ 10;
#X obj 445 336 lop~ 10;
#X obj 68 521 bwl-osc 1;
#X obj 110 758 *~;
#X obj 50 128 route add update remove;
#X msg 225 314 1 5;
#X msg 328 186 0 100;
#X obj 413 459 *~ -80;
#X obj 384 602 mtof~;
#X obj 307 419 *~ -1;
#X obj 270 485 +~ 1;
#X obj 403 534 +~ 130;
#X obj 274 688 lop~ 4000;
#X obj 80 654 vcf~ 10;
#X obj 95 706 *~ 4;
#X connect 0 0 9 0;
#X connect 2 0 8 1;
#X connect 3 0 4 0;
#X connect 3 1 10 0;
#X connect 4 0 5 0;
#X connect 4 1 6 0;
#X connect 5 0 7 0;
#X connect 6 0 12 0;
#X connect 6 0 14 0;
#X connect 7 0 17 0;
#X connect 7 0 18 0;
#X connect 8 0 1 0;
#X connect 9 0 3 0;
#X connect 9 1 3 0;
#X connect 9 2 11 0;
#X connect 10 0 2 0;
#X connect 11 0 2 0;
#X connect 12 0 16 0;
#X connect 13 0 18 1;
#X connect 14 0 15 0;
#X connect 15 0 7 1;
#X connect 16 0 13 0;
#X connect 17 0 8 0;
#X connect 18 0 19 0;
#X connect 19 0 8 0;
#X restore 746 181 pd osc;
#N canvas 1048 65 837 802 osc 0;
#X obj 25 37 inlet;
#X obj 54 836 outlet~;
#X obj 328 256 line~;
#X obj 49 231 t l b;
#X obj 47 375 unpack f f;
#X obj 45 439 lop~ 10;
#X obj 445 336 lop~ 10;
#X obj 68 521 bwl-osc 1;
#X obj 110 758 *~;
#X obj 50 128 route add update remove;
#X msg 225 314 1 5;
#X msg 328 186 0 100;
#X obj 413 459 *~ -80;
#X obj 384 602 mtof~;
#X obj 307 419 *~ -1;
#X obj 270 485 +~ 1;
#X obj 403 534 +~ 130;
#X obj 274 688 lop~ 4000;
#X obj 80 654 vcf~ 10;
#X obj 95 706 *~ 4;
#X connect 0 0 9 0;
#X connect 2 0 8 1;
#X connect 3 0 4 0;
#X connect 3 1 10 0;
#X connect 4 0 5 0;
#X connect 4 1 6 0;
#X connect 5 0 7 0;
#X connect 6 0 12 0;
#X connect 6 0 14 0;
#X connect 7 0 17 0;
#X connect 7 0 18 0;
#X connect 8 0 1 0;
#X connect 9 0 3 0;
#X connect 9 1 3 0;
#X connect 9 2 11 0;
#X connect 10 0 2 0;
#X connect 11 0 2 0;
#X connect 12 0 16 0;
#X connect 13 0 18 1;
#X connect 14 0 15 0;
#X connect 15 0 7 1;
#X connect 16 0 13 0;
#X connect 17 0 8 0;
#X connect 18 0 19 0;
#X connect 19 0 8 0;
#X restore 898 183 pd osc;
#X obj 902 13 multitouch;
#X obj 446 652 outlet~;
#X connect 0 0 6 1;
#X connect 1 0 10 0;
#X connect 2 0 16 0;
#X connect 3 0 6 0;
#X connect 4 0 0 0;
#X connect 5 0 3 0;
#X connect 5 1 12 0;
#X connect 5 2 13 0;
#X connect 5 3 14 0;
#X connect 6 0 2 0;
#X connect 7 0 8 0;
#X connect 9 0 5 0;
#X connect 10 0 0 0;
#X connect 11 0 5 0;
#X connect 12 0 6 0;
#X connect 13 0 6 0;
#X connect 14 0 6 0;
#X restore 611 149 pd stuff;
#X obj 609 24 multitouch;
#X obj 15 13 mob/hfader vol;
#A saved -invisible 0;
#A saved -z_offset 0;
#A saved -mode 0;
#A saved -max -1;
#A saved -min 1;
#A saved -name vol;
#A saved -speed_ratio 100;
#A saved -label_color 0 0 0;
#A saved -front_color 230 234 128;
#A saved -back_color 232 224 206;
#A saved -size 279 58;
#X text 91 19 VOLUME;
#X text 352 93 GUIMBARDE;
#X text 353 22 TIMBRE;
#N canvas 0 50 450 300 mob-listeners 0;
#X obj 20 50 mob/listenerMultitouch multitouch_pad multitouch_pad-rcv
1 0 1 1 0;
#X obj 20 100 mob/listenerHradio wave wave-rcv 2 4;
#X obj 20 150 mob/listenerHLCD_lin vol vol-rcv 3 1 -1 0 0.32;
#A saved 0.32;
#A saved MOB_TARGET vol;
#X obj 20 0 mob/loader main;
#X restore 607 88 pd mob-listeners;
#X obj 621 223 dac~;
#X connect 6 0 13 0;
#X connect 6 0 13 1;
