#N struct bckgrnd float x float y float width float height float color
;
#N canvas 602 95 1114 944 16;
#X scalar bckgrnd 0 0 600 960 563 \;;
#X scalar bckgrnd 600 0 600 960 563 \;;
#X text 616 56 [mob] crée un sous-patch [pd mob-listeners];
#X obj 283 17 mob;
#X text 625 223 TO DO permettre des mapping log des sliders;
#X obj 63 149 vsl 50 200 0 127 0 0 foo foo-rcv empty 0 -9 0 10 -262144
-1 -1 0 1;
#X obj 129 147 vsl 50 200 0 127 0 0 foo foo-rcv empty 0 -9 0 10 -262144
-1 -1 0 1;
#X obj 216 236 hsl 300 50 0 127 0 0 foo foo-rcv empty -2 -8 0 10 -262144
-1 -1 0 1;
#X obj 272 369 vsl 50 200 0 127 0 0 bar bar-rcv empty 0 -9 0 10 -262144
-1 -1 0 1;
#X obj 338 367 vsl 50 200 32 96 0 0 bar bar-rcv empty 0 -9 0 10 -262144
-1 -1 0 1;
#X obj 180 372 vradio 15 1 0 8 fff ffff empty 0 -8 0 10 -262144 -1
-1 3;
#X msg 670 311 \; mob save 1;
#X msg 672 401 \; mob load 1;
#X msg 675 434 \; mob load 2;
#X msg 668 364 \; mob save 2;
#X text 625 85 où sont stockées les objets necessaires à la communication
entre le patch et l'interface MobMuPlat. (instances de mob/listener
\, mob/loader), f 41;
#N canvas 0 50 450 300 mob-listeners 0;
#X obj 20 30 mob/listener_lin foo foo-rcv 1 32 96;
#X obj 20 60 mob/listener_lin foo foo-rcv 2 0 127;
#X obj 20 90 mob/listener_lin foo foo-rcv 3 0 127;
#X obj 20 120 mob/listener_lin bar bar-rcv 4 0 127;
#X obj 20 150 mob/listener_lin bar bar-rcv 5 0 127;
#X obj 20 180 mob/listener fff ffff;
#X obj 20 0 mob/loader Example;
#X restore 10 10 pd mob-listeners;
#X obj 600 531 r fromGUI;
#X obj 608 561 print fromGUI;
#X obj 758 529 r toGUI;
#X obj 766 559 print toGUI;
#X connect 17 0 18 0;
#X connect 19 0 20 0;
