#N struct bckgrnd float x float y float width float height float color
;
#N struct struct_framerect float lx float ty float rx float by float
width float color;
#N struct struct_paintoval float lx float ty float rx float by float
width float color;
#N canvas 121 234 848 580 12;
#X declare -path mob;
#X scalar bckgrnd 0 0 320 568 666 \;;
#X obj 45 104 mob/lcd mylcd;
#A saved -back_alpha 1;
#A saved -front_alpha 1;
#A saved -front_color 216 234 224;
#A saved -back_color 220 220 220;
#A saved -title ;
#A saved -name mylcd;
#A saved -size 219 214;
#X obj 498 73 metro 100;
#X obj 496 29 loadbang;
#X obj 498 98 f;
#X obj 505 152 t f f f;
#X obj 495 189 cos;
#X obj 544 187 sin;
#X obj 495 214 * 0.3;
#X obj 546 215 * 0.3;
#X obj 495 239 + 0.5;
#X obj 546 240 + 0.5;
#X obj 505 127 + 0.03;
#X obj 664 40 mob;
#A saved -R 192.756;
#A saved -G 192.756;
#A saved -B 192.756;
#A saved -pages 1;
#A saved -mode 1;
#A saved -landscape 0;
#A saved -zoom 1;
#X obj 487 383 r mylcd;
#X obj 487 408 route 2;
#X obj 487 433 unpack f f;
#X msg 554 507 draw line;
#N canvas 0 50 450 300 mob-listeners 0;
#X obj 20 50 mob/listenerLCD mylcd mylcd-rcv;
#X obj 20 100 mob/listenerTgl rendering rendering-rcv 1;
#X obj 20 0 mob/loader LcdDemo;
#X restore 100 10 pd mob-listeners;
#X obj 571 474 loadbang;
#X obj 356 71 declare -path mob;
#X obj 342 234 lcd_head mylcd;
#X obj 341 278 lcd_translate;
#X obj 341 303 lcd_color 1 0 0 1;
#X obj 341 328 lcd_circle 0.1;
#X obj 341 428 lcd_head mylcd;
#X obj 346 460 lcd_translate 0.5 0.5;
#X obj 346 485 lcd_color 0 0 1 1;
#X obj 345 514 lcd_penwidth 3;
#X obj 344 543 lcd_rectangle 0.2 0.2;
#X obj 134 414 lcd_render mylcd;
#X obj 141 350 tgl 50 1 rendering rendering-rcv empty 17 7 0 10 -262144
-1 -1 1 1;
#X connect 2 0 4 0;
#X connect 3 0 2 0;
#X connect 4 0 12 0;
#X connect 5 0 6 0;
#X connect 5 1 7 0;
#X connect 5 2 4 1;
#X connect 6 0 8 0;
#X connect 7 0 9 0;
#X connect 8 0 10 0;
#X connect 9 0 11 0;
#X connect 10 0 22 1;
#X connect 11 0 22 2;
#X connect 12 0 5 0;
#X connect 14 0 15 0;
#X connect 15 0 16 0;
#X connect 16 0 26 1;
#X connect 16 1 26 2;
#X connect 17 0 29 0;
#X connect 19 0 17 0;
#X connect 21 0 22 0;
#X connect 22 0 23 0;
#X connect 23 0 24 0;
#X connect 25 0 26 0;
#X connect 26 0 27 0;
#X connect 27 0 28 0;
#X connect 28 0 29 0;
#X connect 31 0 30 0;
