#N canvas 960 0 958 984 12;
#X text 57 284 embedded object for mmp/button abstraction;
#X obj 220 325 inlet;
#X obj 115 324 r \$3.\$1;
#X obj 97 430 route 1 2 0;
#X msg 52 503 1;
#X msg 98 502 0;
#X obj 63 535 change;
#X text 64 894 on/off;
#X obj 204 891 outlet;
#X text 215 913 xy;
#X obj 346 859 outlet;
#X text 324 901 pressure;
#X msg 193 681 paintrect 0 0 1 1;
#X obj 61 862 outlet;
#X msg 138 683 clear;
#X obj 141 711 list prepend \$3.\$1;
#X obj 141 736 s toGUI;
#X obj 213 385 route float set;
#X obj 149 591 == 0;
#X obj 150 619 select 1 0;
#X obj 96 469 t b l;
#X obj 93 560 t f f f;
#X obj 343 593 * 50;
#X obj 203 757 unpack f f;
#X obj 257 789 - 1;
#X obj 257 814 * -1;
#X obj 198 840 pack f f;
#X obj 318 322 r \$2;
#X obj 74 765 t f f;
#X obj 100 802 s \$1;
#X obj 201 866 t l l;
#X obj 266 884 s \$1.xy;
#X connect 1 0 17 0;
#X connect 2 0 3 0;
#X connect 3 0 20 0;
#X connect 3 1 20 0;
#X connect 3 2 5 0;
#X connect 4 0 6 0;
#X connect 5 0 6 0;
#X connect 6 0 21 0;
#X connect 12 0 15 0;
#X connect 14 0 15 0;
#X connect 15 0 16 0;
#X connect 17 0 21 0;
#X connect 17 1 18 0;
#X connect 18 0 19 0;
#X connect 19 0 14 0;
#X connect 19 1 12 0;
#X connect 20 0 4 0;
#X connect 20 1 23 0;
#X connect 21 0 28 0;
#X connect 21 1 18 0;
#X connect 21 2 22 0;
#X connect 22 0 10 0;
#X connect 23 0 26 0;
#X connect 23 1 24 0;
#X connect 24 0 25 0;
#X connect 25 0 26 1;
#X connect 26 0 30 0;
#X connect 27 0 17 0;
#X connect 28 0 13 0;
#X connect 28 1 29 0;
#X connect 30 0 8 0;
#X connect 30 1 31 0;
