#N canvas 0 0 1920 1021 12;
#X obj 215 -3 inlet;
#X obj 547 943 outlet;
#X msg 724 881 50;
#X obj 724 947 outlet pressure;
#X obj 852 944 outlet touch;
#X obj 98 448 s toGUI;
#X text 13 473 routed fromGUI;
#X obj 81 -3 r \$1;
#X obj 17 517 r \$3.\$1;
#X obj 82 397 list prepend \$3.\$1;
#X text 168 509 <----output: on touch \, sends out three-float list.
\; first element is "1" on touch down \, "2" on drag \, "0" on touch
up \; second and third elements are x and y touch position \, normalized
0.-1.;
#X obj 36 540 route 1 2 0;
#X obj 47 692 change;
#X msg 46 775 touch \$1;
#X msg 20 642 1;
#X msg 94 636 0;
#X obj 81 116 t f f;
#X obj 81 141 sin;
#X obj 133 142 cos;
#X obj 44 246 + 0.4;
#X obj 180 242 + 0.4;
#X obj 81 191 t f f;
#X obj 133 192 t f f;
#X obj 103 247 + 0.6;
#X obj 245 245 + 0.6;
#X obj 44 271 pack f f f f;
#X msg 42 326 paintoval \$1 \$3 \$2 \$4;
#X obj 282 758 -;
#X obj 256 695 t f f f;
#X obj 320 721 spigot 1;
#X obj 360 867 t f b;
#X msg 406 684 0;
#X msg 384 656 1;
#X obj 277 875 +;
#N canvas 0 50 450 300 modulo 0;
#X obj 140 91 moses 3.14159;
#X obj 118 150 moses -3.14159;
#X obj 119 38 inlet;
#X obj 143 241 outlet;
#X obj 118 179 + 6.28319;
#X obj 286 145 - 6.28319;
#X connect 0 0 1 0;
#X connect 0 1 5 0;
#X connect 1 0 4 0;
#X connect 1 1 3 0;
#X connect 2 0 0 0;
#X connect 4 0 3 0;
#X connect 5 0 3 0;
#X restore 279 913 pd modulo 2pi;
#X obj 35 584 t l b;
#X obj 37 717 t f f;
#X obj 185 591 unpack f f;
#X obj 201 668 atan2;
#X obj 201 636 - 0.5;
#X obj 250 616 - 0.5;
#X obj 81 69 change;
#X obj 250 641 * -1;
#X obj 306 792 moses -1;
#X obj 360 824 moses 1;
#X obj 81 166 * 0.4;
#X obj 133 167 * -0.4;
#X obj 137 2 r \$2;
#X obj 137 27 route set float;
#X obj 193 55 s \$0-outlet;
#X obj 614 824 r \$0-outlet;
#X obj 547 895 t f f b;
#X obj 610 944 s \$1;
#X obj 80 829 s \$0.touch;
#X obj 860 845 r \$0.touch;
#X obj 880 920 s \$1.touch;
#X obj 856 895 t f f;
#X obj 263 968 s \$0-outlet;
#X obj 269 938 t f f;
#X obj 94 748 select 1 0;
#X msg 691 888 0;
#X obj 47 366 list append \$5 \$6 \$7 \$8;
#X obj 202 291 t l b b;
#X msg 214 326 frameoval 0 0 1 1;
#X msg 376 330 clear;
#X obj 380 194 loadbang;
#X obj 380 219 t b b;
#X connect 0 0 48 0;
#X connect 2 0 3 0;
#X connect 7 0 41 0;
#X connect 8 0 11 0;
#X connect 9 0 5 0;
#X connect 11 0 35 0;
#X connect 11 1 35 0;
#X connect 11 2 15 0;
#X connect 12 0 36 0;
#X connect 13 0 53 0;
#X connect 14 0 12 0;
#X connect 15 0 12 0;
#X connect 16 0 17 0;
#X connect 16 1 18 0;
#X connect 17 0 45 0;
#X connect 18 0 46 0;
#X connect 19 0 25 0;
#X connect 20 0 25 2;
#X connect 21 0 19 0;
#X connect 21 1 23 0;
#X connect 22 0 20 0;
#X connect 22 1 24 0;
#X connect 23 0 25 1;
#X connect 24 0 25 3;
#X connect 25 0 62 0;
#X connect 26 0 61 0;
#X connect 27 0 43 0;
#X connect 28 0 27 1;
#X connect 28 1 27 0;
#X connect 28 2 29 0;
#X connect 29 0 27 1;
#X connect 30 0 33 0;
#X connect 30 1 31 0;
#X connect 31 0 29 1;
#X connect 32 0 29 1;
#X connect 33 0 34 0;
#X connect 34 0 58 0;
#X connect 35 0 37 0;
#X connect 35 1 14 0;
#X connect 36 0 13 0;
#X connect 36 1 59 0;
#X connect 37 0 39 0;
#X connect 37 1 40 0;
#X connect 38 0 28 0;
#X connect 39 0 38 0;
#X connect 40 0 42 0;
#X connect 41 0 16 0;
#X connect 41 0 33 1;
#X connect 42 0 38 1;
#X connect 43 1 44 0;
#X connect 44 0 30 0;
#X connect 45 0 21 0;
#X connect 46 0 22 0;
#X connect 47 0 48 0;
#X connect 48 0 41 0;
#X connect 48 1 49 0;
#X connect 50 0 51 0;
#X connect 51 0 1 0;
#X connect 51 1 52 0;
#X connect 51 2 2 0;
#X connect 54 0 56 0;
#X connect 56 0 4 0;
#X connect 56 1 55 0;
#X connect 58 0 57 0;
#X connect 58 1 33 1;
#X connect 59 0 32 0;
#X connect 59 1 60 0;
#X connect 60 0 3 0;
#X connect 61 0 9 0;
#X connect 62 0 26 0;
#X connect 62 1 63 0;
#X connect 62 2 64 0;
#X connect 63 0 61 0;
#X connect 64 0 9 0;
#X connect 65 0 66 0;
#X connect 66 0 63 0;
#X connect 66 1 64 0;
