#N canvas 960 0 958 1016 12;
#X obj 599 357 list append;
#X obj 661 452 s RJ_SCENE;
#X obj 597 221 r RJ_SCENE_SAVE;
#X obj 597 246 route save;
#X obj 597 271 t b;
#X obj 591 386 route bang;
#X obj 386 290 r RJ_SCENE_LOAD;
#X obj 386 315 list trim;
#X obj 386 351 route \$1;
#X obj 386 376 route bang;
#X obj 650 107 r \$1;
#X obj 653 415 list prepend \$1;
#X obj 424 596 r \$1;
#X obj 424 621 list prepend set;
#X obj 424 646 list trim;
#X obj 424 671 s \$2;
#X obj 174 632 s toGUI;
#X obj 123 486 route 0;
#X obj 122 449 list prepend \$3 \$1;
#X obj 124 530 list;
#X obj 394 950 s \$1;
#X obj 124 735 r \$1;
#X obj 124 760 list prepend set;
#X obj 124 785 list trim;
#X obj 124 810 s \$2;
#X text 341 737 routed fromGUI;
#X obj 147 335 r \$1;
#X obj 372 767 r \$3.\$1;
#X msg 125 567 list \$1 set \$2;
#X msg 200 528 list \$1.\$2 set \$3;
#X obj 46 243 r \$2;
#X obj 150 399 change;
#X obj 97 247 inlet;
#X obj 326 946 outlet;
#X obj 509 420 loadbang;
#X obj 511 448 f \$4;
#X obj 105 274 route set float;
#X obj 362 908 t f f;
#X obj 372 818 s \$0-outlet;
#X obj 361 882 r \$0-outlet;
#X obj 155 303 s \$0-outlet;
#X obj 455 481 s \$0-outlet;
#X connect 0 0 5 0;
#X connect 2 0 3 0;
#X connect 3 0 4 0;
#X connect 4 0 0 0;
#X connect 5 1 11 0;
#X connect 6 0 7 0;
#X connect 7 0 8 0;
#X connect 8 0 9 0;
#X connect 9 1 41 0;
#X connect 10 0 0 1;
#X connect 11 0 1 0;
#X connect 12 0 13 0;
#X connect 13 0 14 0;
#X connect 14 0 15 0;
#X connect 17 0 19 0;
#X connect 17 1 29 0;
#X connect 18 0 17 0;
#X connect 19 0 28 0;
#X connect 21 0 22 0;
#X connect 22 0 23 0;
#X connect 23 0 24 0;
#X connect 26 0 31 0;
#X connect 27 0 38 0;
#X connect 28 0 16 0;
#X connect 29 0 16 0;
#X connect 30 0 36 0;
#X connect 31 0 18 0;
#X connect 32 0 36 0;
#X connect 34 0 35 0;
#X connect 35 0 41 0;
#X connect 36 0 31 0;
#X connect 36 1 40 0;
#X connect 37 0 33 0;
#X connect 37 1 20 0;
#X connect 39 0 37 0;
