#N canvas 687 0 958 1016 12;
#X obj 105 550 s toGUI;
#X obj 394 950 s \$1;
#X text 381 693 routed fromGUI;
#X obj 412 723 r \$3.\$1;
#X obj 46 243 r \$2;
#X obj 97 247 inlet;
#X obj 326 946 outlet;
#X obj 372 818 s \$0-outlet;
#X obj 361 882 r \$0-outlet;
#X obj 629 914 outlet;
#X obj 105 458 list prepend \$3.\$1;
#X obj 412 337 array define \$0-buffer;
#X obj 413 384 list length;
#X obj 414 410 array size \$0-buffer;
#X obj 404 459 array set \$0-buffer;
#X obj 281 552 array get \$0-buffer;
#X obj 105 274 route list set dump;
#X obj 236 413 t b;
#X obj 277 590 s \$0-outlet;
#X obj 501 818 array set \$0-buffer;
#X obj 412 749 t l l;
#X obj 105 366 t l l l l;
#X obj 325 200 array set \$0-buffer;
#X obj 319 115 unpack f f;
#X obj 322 158 clip 0 1;
#X obj 103 324 list;
#X obj 362 908 t l l;
#X connect 3 0 20 0;
#X connect 4 0 16 0;
#X connect 5 0 16 0;
#X connect 8 0 26 0;
#X connect 10 0 0 0;
#X connect 12 0 13 0;
#X connect 15 0 18 0;
#X connect 16 0 25 0;
#X connect 16 1 23 0;
#X connect 16 2 17 0;
#X connect 17 0 15 0;
#X connect 20 0 7 0;
#X connect 20 1 19 0;
#X connect 21 0 10 0;
#X connect 21 1 18 0;
#X connect 21 2 14 0;
#X connect 21 3 12 0;
#X connect 23 0 24 0;
#X connect 23 1 22 1;
#X connect 24 0 22 0;
#X connect 25 0 21 0;
#X connect 26 0 6 0;
#X connect 26 1 1 0;
