#N canvas 0 0 958 1016 12;
#X obj 569 357 list append;
#X obj 631 452 s RJ_SCENE;
#X obj 597 221 r RJ_SCENE_SAVE;
#X obj 597 246 route save;
#X obj 597 271 t b;
#X obj 561 386 route bang;
#X obj 399 174 r RJ_SCENE_LOAD;
#X obj 399 199 list trim;
#X obj 399 224 route \$1;
#X obj 399 249 route bang;
#X obj 650 107 r \$1;
#X obj 117 443 s toGUI;
#X obj 623 415 list prepend \$1;
#X obj 88 139 - \$4;
#X obj 78 174 / 1;
#X obj 180 153 loadbang;
#X obj 180 177 f \$5;
#X obj 180 201 - \$4;
#X obj 180 225 select 0;
#X obj 173 810 * 1;
#X obj 424 596 r \$1;
#X obj 424 621 list prepend set;
#X obj 424 646 list trim;
#X obj 424 671 s \$2;
#X text 13 473 routed fromGUI;
#X obj 69 50 r \$1;
#X obj 31 597 r \$3.\$1;
#X msg 192 320 clear;
#X obj 82 407 list prepend \$3.\$1;
#X obj 72 255 t f b;
#X text 168 509 <----output: on touch \, sends out three-float list.
\; first element is "1" on touch down \, "2" on drag \, "0" on touch
up \; second and third elements are x and y touch position \, normalized
0.-1.;
#X msg 31 651 \$2;
#X obj 72 280 - 1;
#X obj 72 305 * -1;
#X msg 32 355 paintrect 0 1 1 \$1;
#X obj 156 709 -;
#X msg 68 652 \$2;
#X obj 156 652 t f f;
#X obj 173 835 * -1;
#X obj 173 860 +;
#X obj 218 834 r \$1;
#X obj 173 885 max \$4;
#X obj 173 910 min \$5;
#X text 200 736 speed ratio;
#X obj 41 868 * 1;
#X obj 37 903 + \$4;
#X obj 38 773 spigot 1;
#X obj 152 737 * \$6;
#X obj 154 786 spigot \$6;
#X obj 88 722 f \$6;
#X obj 88 747 == 0;
#X obj 88 698 loadbang;
#X obj 152 762 * 0.01;
#X obj 23 809 - 1;
#X obj 23 834 * -1;
#X obj 82 103 change;
#X obj 111 25 r \$2;
#X obj 321 230 loadbang;
#X obj 399 274 list append \$7;
#X obj 157 27 inlet;
#X obj 455 301 s \$0-outlet;
#X obj 526 935 s \$1;
#X obj 460 932 outlet;
#X obj 459 890 t f f;
#X obj 454 860 r \$0-outlet;
#X obj 36 928 s \$0-outlet;
#X obj 173 935 s \$0-outlet;
#X obj 112 59 route set float;
#X obj 167 100 s \$0-outlet;
#X msg 675 838 0;
#X msg 714 803 1;
#X obj 679 906 t f f;
#X obj 679 931 outlet;
#X obj 750 937 s \$1.touch;
#X obj 31 623 route 1 2 0;
#X connect 0 0 5 0;
#X connect 2 0 3 0;
#X connect 3 0 4 0;
#X connect 4 0 0 0;
#X connect 5 1 12 0;
#X connect 6 0 7 0;
#X connect 7 0 8 0;
#X connect 8 0 9 0;
#X connect 9 0 58 0;
#X connect 9 1 60 0;
#X connect 10 0 0 1;
#X connect 12 0 1 0;
#X connect 13 0 14 0;
#X connect 14 0 29 0;
#X connect 15 0 16 0;
#X connect 16 0 17 0;
#X connect 17 0 18 0;
#X connect 18 1 14 1;
#X connect 18 1 19 1;
#X connect 18 1 44 1;
#X connect 19 0 38 0;
#X connect 20 0 21 0;
#X connect 21 0 22 0;
#X connect 22 0 23 0;
#X connect 25 0 55 0;
#X connect 26 0 74 0;
#X connect 27 0 28 0;
#X connect 28 0 11 0;
#X connect 29 0 32 0;
#X connect 29 1 27 0;
#X connect 31 0 35 1;
#X connect 31 0 46 0;
#X connect 32 0 33 0;
#X connect 33 0 34 0;
#X connect 34 0 28 0;
#X connect 35 0 47 0;
#X connect 36 0 37 0;
#X connect 36 0 46 0;
#X connect 37 0 35 1;
#X connect 37 1 35 0;
#X connect 38 0 39 0;
#X connect 39 0 41 0;
#X connect 40 0 39 1;
#X connect 41 0 42 0;
#X connect 42 0 66 0;
#X connect 44 0 45 0;
#X connect 45 0 65 0;
#X connect 46 0 53 0;
#X connect 47 0 52 0;
#X connect 48 0 19 0;
#X connect 49 0 50 0;
#X connect 50 0 46 1;
#X connect 51 0 49 0;
#X connect 52 0 48 0;
#X connect 53 0 54 0;
#X connect 54 0 44 0;
#X connect 55 0 13 0;
#X connect 56 0 67 0;
#X connect 57 0 58 0;
#X connect 58 0 60 0;
#X connect 59 0 67 0;
#X connect 63 0 62 0;
#X connect 63 1 61 0;
#X connect 64 0 63 0;
#X connect 67 0 55 0;
#X connect 67 1 68 0;
#X connect 69 0 71 0;
#X connect 70 0 71 0;
#X connect 71 0 72 0;
#X connect 71 1 73 0;
#X connect 74 0 31 0;
#X connect 74 0 70 0;
#X connect 74 1 36 0;
#X connect 74 2 69 0;
