#N canvas 350 0 958 984 12;
#X obj 380 698 inlet;
#X obj 618 872 outlet;
#X obj 637 749 r \$1;
#X text 474 695 embedded object for mmp/xy_slider abstraction;
#X obj 701 876 outlet pressure;
#X obj 870 895 outlet touch;
#X obj 639 781 t l b b b;
#X msg 882 844 1;
#X obj 775 838 delay 200;
#X msg 697 847 50;
#X obj 569 427 list append;
#X obj 631 522 s RJ_SCENE;
#X obj 597 291 r RJ_SCENE_SAVE;
#X obj 597 316 route save;
#X obj 597 341 t b;
#X obj 561 456 route bang;
#X obj 399 424 r RJ_SCENE_LOAD;
#X obj 399 449 list trim;
#X obj 399 474 route \$1;
#X obj 399 499 route bang;
#X obj 644 393 r \$1;
#X obj 64 631 s toGUI;
#X obj 466 586 s \$1;
#X obj 623 485 list prepend \$1;
#X obj 36 126 r \$1;
#X obj 63 573 list prepend \$1 set;
#X obj 72 268 - \$4;
#X obj 69 320 / 1;
#X obj 212 165 loadbang;
#X obj 214 219 f \$5;
#X obj 214 243 - \$4;
#X obj 212 269 select 0;
#X obj 86 447 route 0;
#X obj 63 197 unpack f f;
#X obj 127 325 / 1;
#X obj 71 364 pack f f;
#X obj 85 410 list prepend \$3;
#X obj 122 522 list prepend \$3.\$1 set;
#X obj 133 475 list split 1;
#X obj 140 813 * 1;
#X obj 138 846 + \$4;
#X obj 138 912 s \$1;
#X text 95 688 routed fromGUI;
#X obj 128 733 r \$3.\$1;
#X obj 128 758 unpack f f;
#X obj 195 808 * 1;
#X obj 138 875 pack f f;
#X text 50 3 Arguments;
#X text 133 41 receiver_name;
#X text 133 61 SID;
#X text 133 81 min value;
#X text 133 101 max value;
#X obj 401 534 list append \$6 \$7;
#X text 135 118 current x value;
#X text 137 132 current y value;
#X text 133 21 parameter/sender_name;
#X obj 214 192 t b b;
#X obj 292 270 select 0;
#X obj 292 219 f \$9;
#X obj 292 243 - \$8;
#X obj 157 232 f \$4;
#X obj 286 376 spigot 0;
#X msg 295 306 1;
#X text 383 227 si \$8 et \$9 (ymin et ymax) sont nuls ou egaux \,
on utilise à la place \$4 et \$5 (xmin et xmax);
#X obj 128 269 - \$8;
#X obj 196 837 + \$8;
#X msg 834 865 0;
#X obj 403 792 s \$1;
#X obj 446 726 r \$2;
#X obj 407 758 route list set touch_up_delay;
#X connect 0 0 69 0;
#X connect 2 0 6 0;
#X connect 6 0 1 0;
#X connect 6 1 9 0;
#X connect 6 2 8 0;
#X connect 6 3 7 0;
#X connect 7 0 5 0;
#X connect 8 0 66 0;
#X connect 9 0 4 0;
#X connect 10 0 15 0;
#X connect 12 0 13 0;
#X connect 13 0 14 0;
#X connect 14 0 10 0;
#X connect 15 1 23 0;
#X connect 16 0 17 0;
#X connect 17 0 18 0;
#X connect 18 0 19 0;
#X connect 19 0 52 0;
#X connect 19 1 22 0;
#X connect 20 0 10 1;
#X connect 23 0 11 0;
#X connect 24 0 33 0;
#X connect 25 0 21 0;
#X connect 26 0 27 0;
#X connect 27 0 35 0;
#X connect 28 0 56 0;
#X connect 29 0 30 0;
#X connect 30 0 31 0;
#X connect 31 1 27 1;
#X connect 31 1 39 1;
#X connect 31 1 61 0;
#X connect 32 0 25 0;
#X connect 32 1 38 0;
#X connect 33 0 26 0;
#X connect 33 1 64 0;
#X connect 34 0 35 1;
#X connect 35 0 36 0;
#X connect 36 0 32 0;
#X connect 37 0 21 0;
#X connect 38 1 37 0;
#X connect 39 0 40 0;
#X connect 40 0 46 0;
#X connect 43 0 44 0;
#X connect 44 0 39 0;
#X connect 44 1 45 0;
#X connect 45 0 65 0;
#X connect 46 0 41 0;
#X connect 52 0 22 0;
#X connect 56 0 29 0;
#X connect 56 1 58 0;
#X connect 57 0 60 0;
#X connect 57 0 62 0;
#X connect 57 1 34 1;
#X connect 57 1 45 1;
#X connect 58 0 59 0;
#X connect 59 0 57 0;
#X connect 60 0 64 1;
#X connect 60 0 65 1;
#X connect 61 0 45 1;
#X connect 61 0 34 1;
#X connect 62 0 61 1;
#X connect 64 0 34 0;
#X connect 65 0 46 1;
#X connect 66 0 5 0;
#X connect 68 0 69 0;
#X connect 69 0 67 0;
#X connect 69 1 33 0;
#X connect 69 2 8 1;
