#N canvas 961 58 958 1018 12;
#X obj 406 660 list prepend set;
#X obj 65 250 select 1;
#X obj 424 453 t b b;
#X obj 418 527 delay \$3;
#X obj 406 710 s toGUI;
#X msg 418 552 0;
#X msg 463 586 1;
#X obj 70 289 t b b b;
#X obj 425 367 spigot 1;
#X msg 58 336 1;
#X msg 124 329 0;
#X obj 66 204 r \$3.\$1;
#X obj 93 443 s \$2;
#X obj 425 298 r \$2;
#X obj 406 685 list prepend \$3.\$1;
#X connect 0 0 14 0;
#X connect 1 0 7 0;
#X connect 2 0 3 0;
#X connect 2 1 6 0;
#X connect 3 0 5 0;
#X connect 5 0 0 0;
#X connect 6 0 0 0;
#X connect 7 0 9 0;
#X connect 7 1 12 0;
#X connect 7 2 10 0;
#X connect 8 0 2 0;
#X connect 9 0 8 1;
#X connect 10 0 8 1;
#X connect 11 0 1 0;
#X connect 13 0 8 0;
#X connect 14 0 4 0;
