#N canvas 0 57 1920 1023 12;
#X obj 118 78 symbol \$1;
#X obj 118 128 text define \$0-abstraction;
#X msg 544 106 bang;
#X msg 524 78 step;
#X obj 356 162 list trim;
#X obj 356 187 route #X;
#X obj 354 214 route obj;
#X obj 243 714 list prepend obj;
#X obj 277 816 list trim;
#X obj 623 350 list length;
#X obj 354 238 list split 2;
#X obj 255 781 list append;
#X obj 622 372 until;
#X obj 663 422 f;
#X obj 709 419 + 1;
#X msg 671 328 0;
#X obj 595 449 list split;
#X obj 570 423 list append;
#X obj 615 398 t b b;
#X obj 630 472 list split 1;
#X obj 730 531 list fromsymbol;
#X obj 727 565 route 36;
#X obj 786 612 list tosymbol;
#X obj 624 305 t l l b b;
#X msg 712 331 set list;
#X obj 247 751 t l b;
#X obj 356 137 text sequence \$0-abstraction;
#X obj 96 516 iemguts/sendcanvas 1;
#X obj 108 306 f \$0;
#X msg 118 103 read \$1.pd;
#X obj 99 178 delay 10;
#X obj 21 151 delay 100;
#X obj 68 49 t b b b b;
#X msg 32 233 line 0;
#X obj 171 53 bng 15 250 50 0 empty empty empty 17 7 0 10 #fcfcfc #000000 #000000;
#X obj 135 259 bng 15 250 50 0 empty empty empty 17 7 0 10 #fcfcfc #000000 #000000;
#X obj 189 234 delay 10;
#X msg 191 267 vis 0;
#X obj 304 21 delay 110;
#X obj 296 212 t b;
#X obj 296 237 delay 20;
#X obj 651 507 route float;
#X msg 803 680 add2 \$1;
#X obj 1223 316 f \$0;
#X obj 1219 465 s pd-\$0-parser;
#N canvas 0 50 450 300 \$0-parser 0;
#X obj 10 10 r 1036-to_parser;
#X obj 10 50 s 1036-from_parser;
#X msg 10 30 \$2;
#X connect 0 0 2 0;
#X connect 2 0 1 0;
#X restore 1136 556 pd \$0-parser;
#X obj 1134 499 list append \$2 \$3 \$4 \$5 \$6 \$7 \$8;
#X msg 1222 364 clear \, obj 10 10 r \$1-to_parser \, obj 10 50 s \$1-from_parser;
#X obj 1139 530 s \$0-to_parser;
#X obj 1134 590 r \$0-from_parser;
#X msg 1166 340 connect 0 0 2 0 \, connect 2 0 1 0;
#X obj 1149 281 t b b s b;
#X msg 493 785 list s receive;
#X floatatom 1163 251 5 0 0 0 - - - 0;
#X obj 934 334 list tosymbol;
#X msg 1238 416 msg 10 30 \$1;
#X obj 940 296 list prepend 36;
#X obj 1134 615 list;
#X msg 1134 640 add2 \$1;
#X obj 357 851 s pd-\$0-subpatch(\$1);
#X obj 149 364 loadbang;
#X obj 149 394 symbol \$1;
#X obj 764 88 iemguts/canvasdelete 1;
#X obj 94 451 list append;
#X obj 103 340 t f b;
#X obj 93 421 pack f s;
#X obj 235 346 iemguts/canvasposition;
#X msg 95 480 obj \$3 \$4 pd \$1-subpatch(\$2);
#X obj 68 10 r MOB_EXPORT;
#X connect 0 0 29 0;
#X connect 2 0 26 0;
#X connect 3 0 26 0;
#X connect 4 0 5 0;
#X connect 5 0 6 0;
#X connect 5 0 39 0;
#X connect 5 1 39 0;
#X connect 6 0 10 0;
#X connect 6 1 59 0;
#X connect 7 0 25 0;
#X connect 8 0 59 0;
#X connect 9 0 12 0;
#X connect 10 0 7 0;
#X connect 10 1 23 0;
#X connect 11 0 8 0;
#X connect 12 0 18 0;
#X connect 13 0 14 0;
#X connect 13 0 16 1;
#X connect 14 0 13 1;
#X connect 15 0 13 1;
#X connect 16 1 19 0;
#X connect 17 0 16 0;
#X connect 18 0 17 0;
#X connect 18 1 13 0;
#X connect 19 0 41 0;
#X connect 20 0 21 0;
#X connect 21 0 56 0;
#X connect 21 1 22 0;
#X connect 22 0 42 0;
#X connect 23 0 9 0;
#X connect 23 1 17 1;
#X connect 23 2 15 0;
#X connect 23 3 24 0;
#X connect 24 0 52 0;
#X connect 25 0 11 0;
#X connect 25 1 52 0;
#X connect 26 0 4 0;
#X connect 26 1 62 0;
#X connect 28 0 64 0;
#X connect 29 0 1 0;
#X connect 30 0 28 0;
#X connect 30 0 36 0;
#X connect 31 0 33 0;
#X connect 32 0 38 0;
#X connect 32 1 31 0;
#X connect 32 2 30 0;
#X connect 32 3 0 0;
#X connect 33 0 26 0;
#X connect 34 0 0 0;
#X connect 35 0 28 0;
#X connect 36 0 37 0;
#X connect 37 0 59 0;
#X connect 38 0 3 0;
#X connect 39 0 40 0;
#X connect 40 0 3 0;
#X connect 41 0 42 0;
#X connect 41 1 20 0;
#X connect 42 0 52 0;
#X connect 43 0 47 0;
#X connect 46 0 48 0;
#X connect 47 0 44 0;
#X connect 49 0 57 0;
#X connect 50 0 44 0;
#X connect 51 0 46 0;
#X connect 51 1 50 0;
#X connect 51 2 55 0;
#X connect 51 3 43 0;
#X connect 52 0 11 1;
#X connect 54 0 51 0;
#X connect 55 0 44 0;
#X connect 56 0 54 0;
#X connect 57 0 58 0;
#X connect 58 0 52 0;
#X connect 60 0 61 0;
#X connect 61 0 65 1;
#X connect 63 0 67 0;
#X connect 64 0 65 0;
#X connect 64 1 66 0;
#X connect 65 0 63 0;
#X connect 66 0 63 1;
#X connect 67 0 27 0;
#X connect 68 0 32 0;
