#N canvas 0 0 1920 1021 12;
#X obj 183 409 r \$1;
#X obj 183 447 outlet;
#X obj 195 248 r \$2;
#X obj 187 367 s toGUI;
#X obj 186 325 list prepend \$1;
#X obj 294 109 loadbang;
#X obj 195 277 spigot;
#X obj 292 186 + 1;
#X obj 292 211 t f f;
#X obj 292 236 == 1;
#X obj 292 151 v \$1-instance;
#X obj 103 113 inlet;
#X connect 0 0 1 0;
#X connect 2 0 6 0;
#X connect 4 0 3 0;
#X connect 5 0 10 0;
#X connect 6 0 4 0;
#X connect 7 0 8 0;
#X connect 8 0 9 0;
#X connect 8 1 10 0;
#X connect 9 0 6 1;
#X connect 10 0 7 0;
#X connect 11 0 4 0;
