#N canvas 1013 197 563 459 10;
#N canvas 0 57 1920 1023 savestate 0;
#X obj 226 397 savestate;
#X obj 388 461 s \$0-save;
#X obj 226 439 list trim;
#X obj 302 28 r \$0-save;
#X obj 245 347 list, f 51;
#X obj 28 152 spigot 1;
#X msg 127 109 0;
#X obj 768 551 symbol;
#X obj 909 655 symbol;
#X obj 907 702 s \$0-title;
#X obj 1049 627 s \$0-front_alpha;
#X obj 1247 627 s \$0-back_alpha;
#X obj 550 794 s \$0-back_color;
#N canvas 0 50 540 413 convert 0;
#X obj 167 29 inlet;
#X obj 165 86 route float list;
#X obj 243 251 * -1;
#X obj 243 119 unpack f f f, f 17;
#X obj 243 285 - 1;
#X obj 326 153 * 256;
#X obj 243 153 * 65536;
#X obj 326 187 +;
#X obj 243 217 +;
#X obj 165 338 outlet;
#X connect 0 0 1 0;
#X connect 1 0 9 0;
#X connect 1 1 3 0;
#X connect 2 0 4 0;
#X connect 3 0 6 0;
#X connect 3 1 5 0;
#X connect 3 2 7 1;
#X connect 4 0 9 0;
#X connect 5 0 7 0;
#X connect 6 0 8 0;
#X connect 7 0 8 1;
#X connect 8 0 2 0;
#X restore 550 724 pd convert;
#N canvas 0 50 540 413 convert 0;
#X obj 167 29 inlet;
#X obj 165 86 route float list;
#X obj 243 251 * -1;
#X obj 243 119 unpack f f f, f 17;
#X obj 243 285 - 1;
#X obj 326 153 * 256;
#X obj 243 153 * 65536;
#X obj 326 187 +;
#X obj 243 217 +;
#X obj 165 338 outlet;
#X connect 0 0 1 0;
#X connect 1 0 9 0;
#X connect 1 1 3 0;
#X connect 2 0 4 0;
#X connect 3 0 6 0;
#X connect 3 1 5 0;
#X connect 3 2 7 1;
#X connect 4 0 9 0;
#X connect 5 0 7 0;
#X connect 6 0 8 0;
#X connect 7 0 8 1;
#X connect 8 0 2 0;
#X restore 725 710 pd convert;
#X obj 727 762 s \$0-front_color;
#X obj 29 294 f \$0;
#X obj 772 585 s \$0-arrayName;
#X obj 49 194 bng 15 250 50 0 empty empty empty 17 7 0 10 -262144 -1
-1;
#X obj 253 560 s \$0-width;
#X obj 330 562 s \$0-height;
#X obj 28 46 inlet;
#X obj 263 171 v \$0-width;
#X obj 342 171 v \$0-height;
#X obj 498 170 v \$0-xfrom;
#X obj 576 170 v \$0-yfrom;
#X obj 654 170 v \$0-xto;
#X obj 718 170 v \$0-yto;
#X obj 422 170 v \$0-style;
#X msg 261 200 -width \$1;
#X msg 342 202 -height \$1;
#X msg 421 202 -style \$1;
#X msg 496 197 -xfrom \$1;
#X msg 576 194 -yfrom \$1;
#X msg 654 194 -xto \$1;
#X msg 716 192 -yto \$1;
#X obj 787 172 symbol;
#X obj 822 140 r \$0-arrayName;
#X msg 789 197 -arrayName \$1;
#X obj 883 174 v \$0-size;
#X msg 881 196 -size \$1;
#X obj 412 560 s \$0-style;
#X obj 481 561 s \$0-xfrom;
#X obj 566 560 s \$0-yfrom;
#X obj 644 560 s \$0-xto;
#X obj 708 560 s \$0-yto;
#X obj 873 564 s \$0-size;
#X obj 180 515 t b a;
#X obj 179 562 delay 20;
#X obj 184 592 s \$0-set;
#X obj 991 171 v \$0-linewidth;
#X obj 1100 173 v \$0-color;
#X msg 991 194 -linewidth \$1;
#X msg 1100 196 -color \$1;
#X obj 302 70 t b b b b b b b b b b b;
#X obj 948 558 s \$0-linewidth;
#X obj 1057 560 s \$0-color;
#X msg 49 351 -width 200 \, height 140 \, -size 99 \, -arrayName \$1-array
\, -xfrom 0 \, -xto 100 \, -yfrom -1 \, -yto 1 \, -linewidth 1 \, -color
0 \, -style 0, f 10;
#X obj 280 521 route -width -height -style -xfrom -yfrom -xto -yto
-arrayName -size -linewidth -color -style, f 93;
#X obj 1149 563 s \$0-style;
#X obj 1212 163 v \$0-style;
#X msg 1212 186 -style \$1;
#X connect 0 0 6 0;
#X connect 0 0 2 0;
#X connect 0 1 1 0;
#X connect 2 0 47 0;
#X connect 3 0 54 0;
#X connect 4 0 0 0;
#X connect 5 0 16 0;
#X connect 6 0 5 1;
#X connect 7 0 17 0;
#X connect 8 0 9 0;
#X connect 13 0 12 0;
#X connect 14 0 15 0;
#X connect 16 0 57 0;
#X connect 18 0 16 0;
#X connect 21 0 5 0;
#X connect 22 0 29 0;
#X connect 23 0 30 0;
#X connect 24 0 32 0;
#X connect 25 0 33 0;
#X connect 26 0 34 0;
#X connect 27 0 35 0;
#X connect 28 0 31 0;
#X connect 29 0 4 0;
#X connect 30 0 4 0;
#X connect 31 0 4 0;
#X connect 32 0 4 0;
#X connect 33 0 4 0;
#X connect 34 0 4 0;
#X connect 35 0 4 0;
#X connect 36 0 38 0;
#X connect 37 0 36 1;
#X connect 38 0 4 0;
#X connect 39 0 40 0;
#X connect 40 0 4 0;
#X connect 47 0 48 0;
#X connect 47 1 58 0;
#X connect 48 0 49 0;
#X connect 50 0 52 0;
#X connect 51 0 53 0;
#X connect 52 0 4 0;
#X connect 53 0 4 0;
#X connect 54 0 22 0;
#X connect 54 1 23 0;
#X connect 54 2 28 0;
#X connect 54 3 24 0;
#X connect 54 4 25 0;
#X connect 54 5 26 0;
#X connect 54 6 27 0;
#X connect 54 7 36 0;
#X connect 54 8 39 0;
#X connect 54 9 50 0;
#X connect 54 10 51 0;
#X connect 54 10 60 0;
#X connect 57 0 47 0;
#X connect 58 0 19 0;
#X connect 58 1 20 0;
#X connect 58 2 41 0;
#X connect 58 3 42 0;
#X connect 58 4 43 0;
#X connect 58 5 44 0;
#X connect 58 6 45 0;
#X connect 58 7 7 0;
#X connect 58 8 46 0;
#X connect 58 9 55 0;
#X connect 58 10 56 0;
#X connect 58 11 59 0;
#X connect 60 0 61 0;
#X connect 61 0 4 0;
#X restore 229 63 pd savestate;
#X msg 347 188 vis 1;
#X obj 346 160 iemguts/propertybang;
#X obj 435 209 r \$0-ok;
#X msg 438 238 vis 0;
#X obj 345 266 s pd-array_properties(\$0);
#N canvas 1267 576 420 500 array_properties(\$0) 0;
#X obj 8 6 cnv 15 400 300 empty empty empty 20 12 0 14 -233017 -66577
0;
#X floatatom 130 21 5 0 0 0 width #0-w-rcv #0-width;
#X floatatom 314 27 5 0 0 0 height #0-h-rcv #0-height;
#X symbolatom 94 102 30 0 0 0 send_to #0-name-rcv #0-name;
#X text 23 70 Messages;
#N canvas 0 50 450 300 todo 0;
#X obj 244 238 nbx 3 20 10 200 1 0 \$0-spdrt \$0-spdrt-rcv speed_ratio(%)
-140 10 0 16 -262144 -1 -1 10 256;
#X obj 35 101 cnv 15 200 80 empty empty TODO 20 12 0 14 -262130 -66577
0;
#X floatatom 187 130 5 0 0 0 text_color #0-cc-rcv #0-cc-snd;
#N canvas 0 50 450 300 (subpatch) 0;
#X obj 215 153 cnv 20 20 20 empty \$0-cc_cnv-rcv empty 20 12 0 14 -1
-66577 0;
#X msg 316 159 color \$1 \$1;
#X obj 316 117 r \$0-cursor_color;
#X obj 316 198 s \$0-cc_cnv-rcv;
#X connect 1 0 3 0;
#X connect 2 0 1 0;
#X coords 0 -1 1 1 20 20 2 100 100;
#X restore 288 132 pd;
#X floatatom 187 173 5 0 0 0 text_size - -;
#X floatatom 277 38 5 0 0 0 z-offset #0-z_offset-rcv #0-z_offset;
#X obj 153 21 tgl 20 0 \$0-invisible \$0-invisible-rcv Invisible -100
8 0 16 -262144 -1 -1 0 1;
#X obj 153 40 tgl 20 0 \$0-z_offset \$0-z_offset-rcv MoveOnTop -100
8 0 16 -262144 -1 -1 0 99;
#X restore 141 358 pd todo;
#X obj 9 309 cnv 15 400 180 empty empty empty 20 12 0 14 -204786 -66577
0;
#X text 48 317 MobMuPlat Widget Export, f 25;
#X floatatom 104 435 5 0 0 0 z-offset #0-z_offset-rcv #0-z_offset;
#X obj 135 458 tgl 20 0 \$0-z_offset \$0-z_offset-rcv MoveOnTop -100
8 0 16 -262144 -1 -1 0 99;
#X obj 92 382 hsl 60 20 0 1 0 0 \$0-front_alpha \$0-front_alpha-rcv
empty -2 -8 0 10 -262144 -1 -1 0 1;
#X obj 91 352 hsl 60 20 0 1 0 0 \$0-back_alpha \$0-back_alpha-rcv empty
-2 -8 0 10 -262144 -1 -1 0 1;
#X text 49 144 back_color;
#X text 45 206 front_color;
#X text 163 349 Back color Opacity;
#X text 165 379 Front color Opacity;
#N canvas 412 187 1049 632 color_picker 0;
#X obj 53 150 hsl 128 12 0 255 0 0 empty empty empty -2 -8 0 10 -228856
-258113 -1 0 0;
#X obj 53 162 hsl 128 12 0 255 0 0 empty empty empty -2 -8 0 10 -228856
-4034 -1 0 0;
#X obj 53 174 hsl 128 12 0 255 0 0 empty empty empty -2 -8 0 10 -228856
-4160 -1 0 0;
#X obj 183 150 tgl 36 0 empty empty empty 17 7 0 10 -228856 -228856
-228856 0 1;
#N canvas 0 50 498 451 convert2rgb 0;
#X obj 53 112 * -1;
#X obj 54 81 + 1;
#X obj 180 183 mod 256;
#X obj 51 179 div 256;
#X obj 52 143 t f f, f 13;
#X obj 49 210 t f f;
#X obj 48 248 div 256;
#X obj 132 250 mod 256;
#X obj 54 51 inlet;
#X obj 49 317 outlet;
#X obj 129 317 outlet;
#X obj 209 317 outlet;
#X connect 0 0 4 0;
#X connect 1 0 0 0;
#X connect 2 0 11 0;
#X connect 3 0 5 0;
#X connect 4 0 3 0;
#X connect 4 1 2 0;
#X connect 5 0 6 0;
#X connect 5 1 7 0;
#X connect 6 0 9 0;
#X connect 7 0 10 0;
#X connect 8 0 1 0;
#X restore 58 76 pd convert2rgb;
#X msg 286 149 color \$1 \$1 \$1;
#X msg 57 112 set \$1;
#X msg 141 109 set \$1;
#X msg 234 111 set \$1;
#X obj 83 332 t b f;
#X obj 144 333 t b f;
#X obj 149 291 i;
#X obj 104 292 i;
#X obj 61 294 i;
#X obj 67 410 expr ($f1*(-65536)+$f2*(-256)+$f3*(-1))-1;
#X obj 66 372 pack f f f;
#X obj 58 14 r \$0-back_color;
#X obj 97 549 s \$0-back_color;
#X obj 58 45 spigot 1;
#X obj 67 457 t b f b;
#X msg 134 495 0;
#X msg 67 486 1;
#X connect 0 0 13 0;
#X connect 1 0 12 0;
#X connect 2 0 11 0;
#X connect 4 0 6 0;
#X connect 4 1 7 0;
#X connect 4 2 8 0;
#X connect 5 0 3 0;
#X connect 6 0 0 0;
#X connect 7 0 1 0;
#X connect 8 0 2 0;
#X connect 9 0 15 0;
#X connect 9 1 15 1;
#X connect 10 0 15 0;
#X connect 10 1 15 2;
#X connect 11 0 10 0;
#X connect 12 0 9 0;
#X connect 13 0 15 0;
#X connect 14 0 19 0;
#X connect 15 0 14 0;
#X connect 16 0 5 0;
#X connect 16 0 18 0;
#X connect 18 0 4 0;
#X connect 19 0 21 0;
#X connect 19 1 17 0;
#X connect 19 2 20 0;
#X connect 20 0 18 1;
#X connect 21 0 18 1;
#X coords 0 -1 1 1 169 36 2 50 150;
#X restore 48 173 pd color_picker;
#N canvas 882 181 1049 632 color_picker 0;
#X obj 53 150 hsl 128 12 0 255 0 0 empty empty empty -2 -8 0 10 -228856
-258113 -1 0 0;
#X obj 53 162 hsl 128 12 0 255 0 0 empty empty empty -2 -8 0 10 -228856
-4034 -1 0 0;
#X obj 53 174 hsl 128 12 0 255 0 0 empty empty empty -2 -8 0 10 -228856
-4160 -1 0 0;
#X obj 183 150 tgl 36 0 empty empty empty 17 7 0 10 -112314 -112314
-112314 0 1;
#N canvas 0 50 498 451 convert2rgb 0;
#X obj 53 112 * -1;
#X obj 54 81 + 1;
#X obj 180 183 mod 256;
#X obj 51 179 div 256;
#X obj 52 143 t f f, f 13;
#X obj 49 210 t f f;
#X obj 48 248 div 256;
#X obj 132 250 mod 256;
#X obj 54 51 inlet;
#X obj 49 317 outlet;
#X obj 129 317 outlet;
#X obj 209 317 outlet;
#X connect 0 0 4 0;
#X connect 1 0 0 0;
#X connect 2 0 11 0;
#X connect 3 0 5 0;
#X connect 4 0 3 0;
#X connect 4 1 2 0;
#X connect 5 0 6 0;
#X connect 5 1 7 0;
#X connect 6 0 9 0;
#X connect 7 0 10 0;
#X connect 8 0 1 0;
#X restore 58 76 pd convert2rgb;
#X msg 286 149 color \$1 \$1 \$1;
#X msg 57 112 set \$1;
#X msg 141 109 set \$1;
#X msg 234 111 set \$1;
#X obj 83 332 t b f;
#X obj 144 333 t b f;
#X obj 149 291 i;
#X obj 104 292 i;
#X obj 61 294 i;
#X obj 67 410 expr ($f1*(-65536)+$f2*(-256)+$f3*(-1))-1;
#X obj 66 372 pack f f f;
#X obj 58 45 spigot 1;
#X obj 67 457 t b f b;
#X msg 134 495 0;
#X msg 67 486 1;
#X obj 58 14 r \$0-front_color;
#X obj 97 549 s \$0-front_color;
#X connect 0 0 13 0;
#X connect 1 0 12 0;
#X connect 2 0 11 0;
#X connect 4 0 6 0;
#X connect 4 1 7 0;
#X connect 4 2 8 0;
#X connect 5 0 3 0;
#X connect 6 0 0 0;
#X connect 7 0 1 0;
#X connect 8 0 2 0;
#X connect 9 0 15 0;
#X connect 9 1 15 1;
#X connect 10 0 15 0;
#X connect 10 1 15 2;
#X connect 11 0 10 0;
#X connect 12 0 9 0;
#X connect 13 0 15 0;
#X connect 14 0 17 0;
#X connect 15 0 14 0;
#X connect 16 0 4 0;
#X connect 17 0 19 0;
#X connect 17 1 21 0;
#X connect 17 2 18 0;
#X connect 18 0 16 1;
#X connect 19 0 16 1;
#X connect 20 0 5 0;
#X connect 20 0 16 0;
#X coords 0 -1 1 1 169 36 2 50 150;
#X restore 49 231 pd color_picker;
#X obj 358 364 bng 40 250 50 0 \$0-ok empty OK 5 20 0 20 -204786 -1
-1;
#X symbolatom 164 72 30 0 0 0 arrayName #0-arrayName-rcv #0-arrayName
;
#X restore 324 378 pd array_properties(\$0);
#N canvas 0 50 899 442 gui_feedback 0;
#X msg 127 259 set \$1;
#X obj 130 298 s \$0-w-rcv;
#X msg 365 260 set \$1;
#X obj 361 72 r \$0-bc-snd;
#X obj 367 300 s \$0-bc-rcv;
#X obj 370 223 r \$0-back_color;
#X obj 361 156 s \$0-back_color;
#X msg 642 262 set \$1;
#X obj 640 73 r \$0-fc-snd;
#X obj 640 157 s \$0-front_color;
#X obj 648 224 r \$0-front_color;
#X obj 646 301 s \$0-fc-rcv;
#X msg 944 262 set \$1;
#X obj 941 73 r \$0-cc-snd;
#X obj 942 157 s \$0-cursor_color;
#X obj 950 224 r \$0-cursor_color;
#X obj 948 301 s \$0-cc-rcv;
#X msg 30 321 set \$1;
#X obj 33 359 s \$0-h-rcv;
#X obj 972 424 r \$0-name;
#X msg 972 466 set \$1;
#X obj 971 547 s \$0-name-rcv;
#X msg 720 462 set \$1;
#X obj 720 420 r \$0-menu_list;
#X obj 719 545 s \$0-menu_list-rcv;
#X msg 1117 251 set \$1;
#X obj 1114 62 r \$0-lc-snd;
#X obj 1115 145 s \$0-font_color;
#X obj 1123 214 r \$0-font_color;
#X obj 1121 289 s \$0-lc-rcv;
#X obj 299 407 r \$0-front_alpha;
#X obj 497 407 r \$0-back_alpha;
#X obj 295 490 s \$0-front_alpha-rcv;
#X obj 493 490 s \$0-back_alpha-rcv;
#X msg 299 445 set \$1;
#X msg 507 447 set \$1;
#X msg 44 442 set \$1;
#X obj 44 400 r \$0-arrayName;
#X obj 43 523 s \$0-arrayName-rcv;
#X obj 34 283 r \$0-height;
#X obj 132 222 r \$0-width;
#X connect 0 0 1 0;
#X connect 2 0 4 0;
#X connect 3 0 6 0;
#X connect 5 0 2 0;
#X connect 7 0 11 0;
#X connect 8 0 9 0;
#X connect 10 0 7 0;
#X connect 12 0 16 0;
#X connect 13 0 14 0;
#X connect 15 0 12 0;
#X connect 17 0 18 0;
#X connect 19 0 20 0;
#X connect 20 0 21 0;
#X connect 22 0 24 0;
#X connect 23 0 22 0;
#X connect 25 0 29 0;
#X connect 26 0 27 0;
#X connect 28 0 25 0;
#X connect 30 0 34 0;
#X connect 31 0 35 0;
#X connect 34 0 32 0;
#X connect 35 0 33 0;
#X connect 36 0 38 0;
#X connect 37 0 36 0;
#X connect 39 0 17 0;
#X connect 40 0 0 0;
#X restore 386 326 pd gui_feedback;
#X obj 40 64 namecanvas \$0-this;
#N canvas 3 51 450 300 \$0-display 0;
#N canvas 0 50 450 250 (subpatch) 0;
#X array 1015-array 100 float 1;
#A 0 0 0 0 0 0 0 0 0 0 0 0 0 0 0 0 0 0 0 0 0 0 0 0 0 0 0 0 0 0 0 0
0 0 0 0 0 0 0 0 0 0 0 0 0 0 0 0 0 0 0 0 0 0 0 0 0 0 0 0 0 0 0 0 0 0
0 0 0 0 0 0 0 0 0 0 0 0 0 0 0 0 0 0 0 0 0 0 0 0 0 0 0 0 0 0 0 0 0 0
0;
#X coords 0 -1 99 1 294 166 2 0 0;
#X restore 100 20 graph;
#X coords 0 -1 99 1 294 166 2 100 20;
#X restore 40 130 pd \$0-display;
#N canvas 172 51 1083 722 colarray 0;
#X obj 66 748 s pd-_float_array_template;
#X obj 66 638 f;
#X obj 66 660 sel;
#X obj 75 418 \$0;
#X msg 75 440 graph \$1-graph;
#X obj 75 550 s pd-\$0-graph;
#X obj 75 462 s pd-\$0-display;
#X msg 66 682 obj 63 93 s ___array_pointer \, obj 63 116 r ___array_template_test
\, obj 63 139 1 \, obj 63 162 s ___array_template_test_result \, connect
0 0 2 0 \, connect 3 0 4 0 \, connect 4 0 5 0 \, dirty 0;
#X obj 84 616 r ___array_template_test_result;
#X obj 89 594 s ___array_template_test;
#X obj 87 836 r ___array_pointer;
#X obj 87 858 unpack s p f;
#X obj 75 880 pointer;
#X obj 75 814 s pd-\$0-display;
#X msg 75 792 vis 1 \, mouse 100 20 1 0 \, vis 0;
#X obj 75 902 s \$0-arrayPointer;
#X obj 108 484 r \$0-size;
#X msg 75 946 0;
#X obj 75 968 array set;
#X obj 43 990 s \$0-set;
#X obj 182 154 s \$0-width;
#X obj 261 154 s \$0-height;
#X obj 75 137 s \$0-arrayName;
#X obj 748 154 s \$0-yfrom;
#X obj 827 154 s \$0-yto;
#X obj 604 154 s \$0-xfrom;
#X obj 683 154 s \$0-xto;
#X obj 347 154 s \$0-size;
#X obj 892 154 s \$0-style;
#X obj 75 115 symbol \$1;
#X obj 182 132 \$2;
#X obj 261 132 \$3;
#X obj 347 132 \$4;
#X obj 604 132 \$7;
#X obj 683 132 \$8;
#X obj 748 132 \$9;
#X obj 827 132 \$10;
#X obj 892 132 \$11;
#X obj 75 53 loadbang;
#X obj 724 704 r \$0-arrayPointer;
#X obj 841 726 r \$0-arrayPointer;
#X obj 669 748 set float-array linewidth;
#X obj 580 726 set float-array color;
#X obj 883 220 r \$0-width;
#X obj 961 220 r \$0-height;
#X obj 548 220 t b b;
#X obj 603 462 s pd-\$0-graph;
#X obj 626 418 s pd-\$0-display;
#X obj 580 594 pack f s f f;
#X obj 607 528 r \$0-arrayName;
#X obj 548 528 t b b;
#X obj 598 638 r \$0-arrayName;
#X obj 580 660 s;
#X obj 638 308 t b f;
#X obj 638 330 -;
#X msg 580 770 dirty 0;
#X obj 580 792 s \$0-this;
#X obj 580 374 t l l l;
#X obj 580 506 s \$0-this;
#X obj 677 220 r \$0-yfrom;
#X obj 819 220 r \$0-yto;
#X obj 599 220 r \$0-xfrom;
#X obj 755 220 r \$0-xto;
#X obj 713 528 r \$0-size;
#X obj 784 550 * 2;
#X obj 784 572 + 1;
#X msg 580 616 arraydialog \$2 \$3 \$4 0 0;
#X obj 784 528 r \$0-style;
#X obj 638 264 r \$0-style;
#X obj 638 286 == 1;
#X obj 548 748 t b b;
#X obj 358 396 list split 2;
#X obj 358 374 list;
#X obj 398 462 list prepend \$0;
#X msg 398 484 symbol \$1-\$2;
#X obj 358 506 s;
#X obj 548 198 r \$0-set;
#X obj 326 352 t b a;
#X obj 326 528 s \$0-set;
#X msg 358 418 list \$2 \$1;
#X obj 358 440 list split 1;
#X obj 326 330 r colarray-\$1;
#X obj 548 682 t b b;
#X obj 580 352 pack f f f f f f f f;
#X obj 883 286 *;
#X obj 883 308 !=;
#X obj 883 330 * 2;
#X obj 419 132 \$5;
#X obj 498 132 \$6;
#X obj 419 154 s \$0-color;
#X obj 498 154 s \$0-linewidth;
#X obj 580 704 f;
#X obj 669 704 f;
#X obj 598 682 r \$0-color;
#X obj 687 682 r \$0-linewidth;
#X obj 43 374 spigot;
#X obj 82 352 list length;
#X obj 82 330 list fromsymbol;
#X msg 626 396 donecanvasdialog 1 1 \$8 \$2 \$3 \$4 \$5 \$6 \$7 100
20;
#X msg 603 440 donecanvasdialog 1 1 \$8 \$2 \$3 \$4 \$5 \$6 \$7 0 0
;
#X msg 580 484 donecanvasdialog 1 1 \$8 \$2 \$3 \$4 \$5 \$6 \$7 40
130;
#X msg 75 198 clear;
#X obj 75 220 s pd-\$0-display;
#X obj 75 286 s \$0-this;
#X msg 75 264 donecanvasdialog 1 1 0 0 0 0 0 0 0 0 0 \, dirty 0;
#X obj 229 39 r \$0-width;
#X obj 308 39 r \$0-height;
#X obj 394 39 r \$0-size;
#X obj 466 39 r \$0-color;
#X obj 545 39 r \$0-linewidth;
#X obj 651 39 r \$0-xfrom;
#X obj 730 39 r \$0-xto;
#X obj 795 39 r \$0-yfrom;
#X obj 874 39 r \$0-yto;
#X obj 939 39 r \$0-style;
#X obj 75 88 t b b b b b b b b b b b b;
#X obj 984 138 outlet;
#X obj 39 6 r \$0-arrayName;
#X obj 141 31 r \$0-arrayName;
#X obj 43 176 t s b;
#X obj 43 242 t s b;
#X obj 43 308 t s s;
#X obj 75 506 pack s f;
#X msg 75 528 pop \, array \$1 \$2 float 1;
#X obj 43 396 t s b;
#X obj 43 484 t s s;
#X obj 43 572 t s b b;
#X obj 43 770 t s b;
#X obj 43 858 t s b;
#X obj 43 924 t b b s, f 13;
#X obj 477 196 r \$0-ok;
#X connect 1 0 2 0;
#X connect 2 0 7 0;
#X connect 3 0 4 0;
#X connect 4 0 6 0;
#X connect 7 0 0 0;
#X connect 8 0 1 1;
#X connect 10 0 11 0;
#X connect 11 1 12 1;
#X connect 12 0 15 0;
#X connect 14 0 13 0;
#X connect 16 0 122 1;
#X connect 17 0 18 0;
#X connect 29 0 22 0;
#X connect 30 0 20 0;
#X connect 31 0 21 0;
#X connect 32 0 27 0;
#X connect 33 0 25 0;
#X connect 34 0 26 0;
#X connect 35 0 23 0;
#X connect 36 0 24 0;
#X connect 37 0 28 0;
#X connect 38 0 115 0;
#X connect 39 0 42 1;
#X connect 40 0 41 1;
#X connect 43 0 83 5;
#X connect 43 0 84 0;
#X connect 44 0 83 6;
#X connect 44 0 84 1;
#X connect 45 0 50 0;
#X connect 45 1 83 0;
#X connect 48 0 66 0;
#X connect 49 0 48 1;
#X connect 50 0 82 0;
#X connect 50 1 48 0;
#X connect 51 0 52 1;
#X connect 53 0 54 0;
#X connect 53 1 54 1;
#X connect 54 0 83 3;
#X connect 55 0 56 0;
#X connect 57 0 100 0;
#X connect 57 1 99 0;
#X connect 57 2 98 0;
#X connect 59 0 83 2;
#X connect 60 0 83 4;
#X connect 61 0 83 1;
#X connect 62 0 54 0;
#X connect 63 0 48 2;
#X connect 64 0 65 0;
#X connect 65 0 48 3;
#X connect 66 0 52 0;
#X connect 67 0 64 0;
#X connect 68 0 69 0;
#X connect 69 0 53 0;
#X connect 70 1 55 0;
#X connect 71 0 79 0;
#X connect 71 1 72 0;
#X connect 72 0 71 0;
#X connect 73 0 74 0;
#X connect 74 0 75 1;
#X connect 76 0 45 0;
#X connect 77 0 78 0;
#X connect 77 1 72 0;
#X connect 79 0 80 0;
#X connect 80 0 75 0;
#X connect 80 1 73 0;
#X connect 81 0 77 0;
#X connect 82 0 70 0;
#X connect 82 1 91 0;
#X connect 82 1 92 0;
#X connect 83 0 57 0;
#X connect 84 0 85 0;
#X connect 85 0 86 0;
#X connect 86 0 83 7;
#X connect 87 0 89 0;
#X connect 88 0 90 0;
#X connect 91 0 42 0;
#X connect 92 0 41 0;
#X connect 93 0 91 1;
#X connect 94 0 92 1;
#X connect 95 0 124 0;
#X connect 96 0 95 1;
#X connect 97 0 96 0;
#X connect 98 0 47 0;
#X connect 99 0 46 0;
#X connect 100 0 58 0;
#X connect 101 0 102 0;
#X connect 104 0 103 0;
#X connect 105 0 30 1;
#X connect 106 0 31 1;
#X connect 107 0 32 1;
#X connect 108 0 87 1;
#X connect 109 0 88 1;
#X connect 110 0 33 1;
#X connect 111 0 34 1;
#X connect 112 0 35 1;
#X connect 113 0 36 1;
#X connect 114 0 37 1;
#X connect 115 0 29 0;
#X connect 115 1 30 0;
#X connect 115 2 31 0;
#X connect 115 3 32 0;
#X connect 115 4 87 0;
#X connect 115 5 88 0;
#X connect 115 6 33 0;
#X connect 115 7 34 0;
#X connect 115 8 35 0;
#X connect 115 9 36 0;
#X connect 115 10 37 0;
#X connect 115 11 116 0;
#X connect 117 0 119 0;
#X connect 118 0 29 1;
#X connect 119 0 120 0;
#X connect 119 1 101 0;
#X connect 120 0 121 0;
#X connect 120 1 104 0;
#X connect 121 0 95 0;
#X connect 121 1 97 0;
#X connect 122 0 123 0;
#X connect 123 0 5 0;
#X connect 124 0 125 0;
#X connect 124 1 3 0;
#X connect 125 0 126 0;
#X connect 125 1 122 0;
#X connect 126 0 127 0;
#X connect 126 1 1 0;
#X connect 126 2 9 0;
#X connect 127 0 128 0;
#X connect 127 1 14 0;
#X connect 128 0 129 0;
#X connect 128 1 12 0;
#X connect 129 0 19 0;
#X connect 129 1 17 0;
#X connect 129 2 18 2;
#X connect 130 0 45 0;
#X restore 225 33 pd colarray;
#X connect 1 0 5 0;
#X connect 2 0 1 0;
#X connect 3 0 4 0;
#X connect 4 0 5 0;
#X connect 10 0 0 0;
#X coords 0 -1 99 1 294 166 2 40 130;
