#N canvas 809 265 669 669 10;
#N canvas 0 57 1920 1023 savestate 0;
#X obj 226 397 savestate;
#X obj 388 461 s \$0-save;
#X obj 226 439 list trim;
#X obj 302 28 r \$0-save;
#X obj 245 347 list, f 51;
#X obj 28 152 spigot 1;
#X msg 127 109 0;
#X obj 787 567 symbol;
#X obj 914 747 symbol;
#X obj 898 800 s \$0-title;
#X obj 1112 624 s \$0-front_alpha;
#X obj 1247 627 s \$0-back_alpha;
#X obj 550 794 s \$0-back_color;
#N canvas 0 50 540 413 convert 0;
#X obj 167 29 inlet;
#X obj 165 86 route float list;
#X obj 243 251 * -1;
#X obj 243 119 unpack f f f, f 17;
#X obj 243 285 - 1;
#X obj 326 153 * 256;
#X obj 243 153 * 65536;
#X obj 326 187 +;
#X obj 243 217 +;
#X obj 165 338 outlet;
#X connect 0 0 1 0;
#X connect 1 0 9 0;
#X connect 1 1 3 0;
#X connect 2 0 4 0;
#X connect 3 0 6 0;
#X connect 3 1 5 0;
#X connect 3 2 7 1;
#X connect 4 0 9 0;
#X connect 5 0 7 0;
#X connect 6 0 8 0;
#X connect 7 0 8 1;
#X connect 8 0 2 0;
#X restore 550 724 pd convert;
#N canvas 0 50 540 413 convert 0;
#X obj 167 29 inlet;
#X obj 165 86 route float list;
#X obj 243 251 * -1;
#X obj 243 119 unpack f f f, f 17;
#X obj 243 285 - 1;
#X obj 326 153 * 256;
#X obj 243 153 * 65536;
#X obj 326 187 +;
#X obj 243 217 +;
#X obj 165 338 outlet;
#X connect 0 0 1 0;
#X connect 1 0 9 0;
#X connect 1 1 3 0;
#X connect 2 0 4 0;
#X connect 3 0 6 0;
#X connect 3 1 5 0;
#X connect 3 2 7 1;
#X connect 4 0 9 0;
#X connect 5 0 7 0;
#X connect 6 0 8 0;
#X connect 7 0 8 1;
#X connect 8 0 2 0;
#X restore 725 710 pd convert;
#X obj 727 762 s \$0-front_color;
#X obj 789 614 s \$0-arrayName;
#X obj 49 194 bng 15 250 50 0 empty empty empty 17 7 0 10 -262144 -1
-1;
#X obj 253 560 s \$0-width;
#X obj 330 562 s \$0-height;
#X obj 263 171 v \$0-width;
#X obj 342 171 v \$0-height;
#X obj 498 170 v \$0-xfrom;
#X obj 576 170 v \$0-yfrom;
#X obj 654 170 v \$0-xto;
#X obj 718 170 v \$0-yto;
#X obj 422 170 v \$0-style;
#X msg 261 200 -width \$1;
#X msg 342 202 -height \$1;
#X msg 421 202 -style \$1;
#X msg 496 197 -xfrom \$1;
#X msg 576 194 -yfrom \$1;
#X msg 654 194 -xto \$1;
#X msg 716 192 -yto \$1;
#X obj 787 172 symbol;
#X obj 822 140 r \$0-arrayName;
#X msg 789 197 -arrayName \$1;
#X obj 883 174 v \$0-size;
#X msg 881 196 -size \$1;
#X obj 412 560 s \$0-style;
#X obj 481 561 s \$0-xfrom;
#X obj 566 560 s \$0-yfrom;
#X obj 644 560 s \$0-xto;
#X obj 708 560 s \$0-yto;
#X obj 873 564 s \$0-size;
#X obj 180 515 t b a;
#X obj 184 592 s \$0-set;
#X obj 991 171 v \$0-linewidth;
#X obj 1100 173 v \$0-color;
#X msg 991 194 -linewidth \$1;
#X msg 1100 196 -color \$1;
#X obj 942 667 s \$0-linewidth;
#X obj 1051 669 s \$0-color;
#X obj 1149 563 s \$0-style;
#X obj 1212 163 v \$0-style;
#X msg 1212 186 -style \$1;
#X obj 788 590 pipe s 1;
#X obj 947 596 pipe f 5;
#X obj 1024 597 pipe f 5;
#X obj 38 236 v ___sarray;
#X obj 39 322 t f f;
#X obj 38 271 + 1;
#X obj 28 47 loadbang;
#X obj 179 562 delay 20;
#X obj 28 99 delay 20;
#X text 1489 96 mode 0 : edit content \, mode 1 : select zone, f 24
;
#X text 1487 139 displayMode 0 = line \, displayMode 1 = filled bar
, f 27;
#X obj 1372 228 v \$0-mode;
#X obj 1474 229 v \$0-displayMode;
#X msg 1372 251 -mode \$1;
#X msg 1474 252 -displayMode \$1;
#X obj 1244 569 s \$0-mode;
#X obj 1317 580 s \$0-displayMode;
#X msg 48 351 -width 200 \, -height 140 \, -size 99 \, -xfrom 0 \,
-xto 100 \, -yfrom -1 \, -yto 1 \, -linewidth 1 \, -color 0 \, -style
0, f 10;
#X obj 1421 380 array get \$1;
#X obj 1494 335 r \$0-arrayName;
#X obj 1421 403 list prepend -contents;
#X obj 1548 621 list append;
#X obj 1549 546 t b l;
#X obj 1549 569 delay 40;
#X obj 1513 684 array set \$1;
#X obj 1744 160 r \$0-save_contents;
#X obj 1722 191 spigot;
#X obj 302 70 t b b b b b b b b b b b b b b b;
#X obj 1312 167 v \$0-save_contents;
#X obj 280 521 route -width -height -style -xfrom -yfrom -xto -yto
-arrayName -size -linewidth -color -style -mode -displayMode -contents
-save_contents, f 174;
#X msg 1312 190 -save_contents \$1;
#X obj 1431 577 s \$0-save_contents;
#X connect 0 0 2 0;
#X connect 0 0 6 0;
#X connect 0 1 1 0;
#X connect 2 0 45 0;
#X connect 3 0 83 0;
#X connect 4 0 0 0;
#X connect 5 0 59 0;
#X connect 6 0 5 1;
#X connect 7 0 56 0;
#X connect 8 0 9 0;
#X connect 13 0 12 0;
#X connect 14 0 15 0;
#X connect 17 0 59 0;
#X connect 20 0 27 0;
#X connect 21 0 28 0;
#X connect 22 0 30 0;
#X connect 23 0 31 0;
#X connect 24 0 32 0;
#X connect 25 0 33 0;
#X connect 26 0 29 0;
#X connect 27 0 4 0;
#X connect 28 0 4 0;
#X connect 29 0 4 0;
#X connect 30 0 4 0;
#X connect 31 0 4 0;
#X connect 32 0 4 0;
#X connect 33 0 4 0;
#X connect 34 0 36 0;
#X connect 35 0 34 1;
#X connect 36 0 4 0;
#X connect 37 0 38 0;
#X connect 38 0 4 0;
#X connect 45 0 63 0;
#X connect 45 1 85 0;
#X connect 47 0 49 0;
#X connect 48 0 50 0;
#X connect 49 0 4 0;
#X connect 50 0 4 0;
#X connect 54 0 55 0;
#X connect 55 0 4 0;
#X connect 56 0 16 0;
#X connect 57 0 51 0;
#X connect 58 0 52 0;
#X connect 59 0 61 0;
#X connect 60 0 73 0;
#X connect 60 1 59 0;
#X connect 61 0 60 0;
#X connect 62 0 64 0;
#X connect 63 0 46 0;
#X connect 64 0 5 0;
#X connect 67 0 69 0;
#X connect 68 0 70 0;
#X connect 69 0 4 0;
#X connect 70 0 4 0;
#X connect 73 0 45 0;
#X connect 74 0 76 0;
#X connect 75 0 74 2;
#X connect 75 0 80 2;
#X connect 76 0 0 0;
#X connect 77 0 80 0;
#X connect 78 0 79 0;
#X connect 78 1 77 1;
#X connect 79 0 77 0;
#X connect 81 0 82 1;
#X connect 82 0 74 0;
#X connect 83 0 20 0;
#X connect 83 1 21 0;
#X connect 83 2 26 0;
#X connect 83 3 22 0;
#X connect 83 4 23 0;
#X connect 83 5 24 0;
#X connect 83 6 25 0;
#X connect 83 7 34 0;
#X connect 83 8 37 0;
#X connect 83 9 47 0;
#X connect 83 10 48 0;
#X connect 83 10 54 0;
#X connect 83 11 67 0;
#X connect 83 12 68 0;
#X connect 83 13 82 0;
#X connect 83 14 84 0;
#X connect 84 0 86 0;
#X connect 85 0 18 0;
#X connect 85 1 19 0;
#X connect 85 2 39 0;
#X connect 85 3 40 0;
#X connect 85 4 41 0;
#X connect 85 5 42 0;
#X connect 85 6 43 0;
#X connect 85 7 7 0;
#X connect 85 8 44 0;
#X connect 85 9 57 0;
#X connect 85 10 58 0;
#X connect 85 11 53 0;
#X connect 85 12 71 0;
#X connect 85 13 72 0;
#X connect 85 14 78 0;
#X connect 85 15 87 0;
#X connect 86 0 4 0;
#X restore 338 361 pd savestate;
#X msg 347 188 vis 1;
#X obj 346 160 iemguts/propertybang;
#X obj 435 209 r \$0-ok;
#X msg 438 238 vis 0;
#N canvas 0 50 1427 874 gui_feedback 0;
#X msg 148 73 set \$1;
#X msg 28 83 set \$1;
#X obj 32 45 r \$0-height;
#X obj 153 36 r \$0-width;
#X obj 151 112 s \$0-width-rcv;
#X obj 31 121 s \$0-height-rcv;
#X obj 45 247 r \$0-style;
#X msg 45 270 set \$1;
#X obj 44 306 s \$0-style-rcv;
#X obj 307 247 s \$0-xfrom-rcv;
#X obj 444 250 s \$0-yfrom-rcv;
#X obj 311 179 r \$0-xfrom;
#X obj 448 182 r \$0-yfrom;
#X msg 311 202 set \$1;
#X msg 448 205 set \$1;
#X obj 326 98 s \$0-xto-rcv;
#X obj 421 97 s \$0-yto-rcv;
#X obj 336 38 r \$0-xto;
#X obj 400 38 r \$0-yto;
#X msg 336 61 set \$1;
#X msg 400 61 set \$1;
#X obj 561 23 r \$0-size;
#X obj 565 100 s \$0-size-rcv;
#X msg 561 46 set \$1;
#X obj 620 260 r \$0-linewidth;
#X obj 619 316 s \$0-linewidth-rcv;
#X msg 620 283 set \$1;
#X obj 733 152 s \$0-style-rcv;
#X obj 828 158 s \$0-mode-rcv;
#X obj 930 159 s \$0-displayMode-rcv;
#X obj 738 70 r \$0-style;
#X obj 833 76 r \$0-mode;
#X obj 935 77 r \$0-displayMode;
#X msg 738 93 set \$1;
#X msg 833 99 set \$1;
#X msg 935 100 set \$1;
#N canvas 0 50 684 586 \$0-arrayName 0;
#X msg 312 180 set \$1;
#X obj 32 238 list append \$1;
#X obj 32 267 select 0;
#X obj 32 86 loadbang;
#X msg 228 97 label \$1-rcv;
#X obj 224 144 s \$0-receive_name-rcv;
#X obj 472 161 iemguts/canvasargs 2;
#X obj 32 162 spigot 1;
#X msg 114 126 0;
#X obj 109 346 symbol;
#X obj 483 118 list;
#X obj 221 45 t b s s s;
#X obj 32 325 + 1;
#X obj 32 354 t f f;
#X obj 32 296 v mob.UNTITLED_WIDGET;
#X msg 33 389 symbol Untitled_\$1;
#X obj 231 16 r \$0-arrayName;
#X obj 110 426 s \$0-arrayName;
#X obj 352 224 s \$0-arrayName-rcv;
#X text 253 288 \$1 argument defines default \$0-arrayName;
#X connect 0 0 18 0;
#X connect 1 0 2 0;
#X connect 2 0 14 0;
#X connect 2 1 9 0;
#X connect 3 0 7 0;
#X connect 4 0 5 0;
#X connect 7 0 1 0;
#X connect 8 0 7 1;
#X connect 9 0 17 0;
#X connect 10 0 6 0;
#X connect 11 0 8 0;
#X connect 11 1 4 0;
#X connect 11 2 0 0;
#X connect 11 3 10 0;
#X connect 12 0 13 0;
#X connect 13 0 15 0;
#X connect 13 1 14 0;
#X connect 14 0 12 0;
#X connect 15 0 17 0;
#X connect 16 0 11 0;
#X restore 411 427 pd \$0-arrayName;
#X obj 874 313 r \$0-save_contents;
#X msg 874 336 set \$1;
#X obj 867 373 s \$0-save_contents-rcv;
#X connect 0 0 4 0;
#X connect 1 0 5 0;
#X connect 2 0 1 0;
#X connect 3 0 0 0;
#X connect 6 0 7 0;
#X connect 7 0 8 0;
#X connect 11 0 13 0;
#X connect 12 0 14 0;
#X connect 13 0 9 0;
#X connect 14 0 10 0;
#X connect 17 0 19 0;
#X connect 18 0 20 0;
#X connect 19 0 15 0;
#X connect 20 0 16 0;
#X connect 21 0 23 0;
#X connect 23 0 22 0;
#X connect 24 0 26 0;
#X connect 26 0 25 0;
#X connect 30 0 33 0;
#X connect 31 0 34 0;
#X connect 32 0 35 0;
#X connect 33 0 27 0;
#X connect 34 0 28 0;
#X connect 35 0 29 0;
#X connect 37 0 38 0;
#X connect 38 0 39 0;
#X restore 336 384 pd gui_feedback;
#X obj 40 64 namecanvas \$0-this;
#N canvas 3 51 450 300 \$0-display 0;
#X coords 0 -1 100 1 181 88 2 100 20;
#X restore 40 130 pd \$0-display;
#N canvas 0 57 1920 1023 mmp-export-sarray_as_array 0;
#X obj 109 -2 r MMP_EXPORT;
#X obj 48 256 r \$0-x;
#X obj 138 309 r \$0-y;
#X obj 27 293 f;
#X obj 134 657 list append 125;
#X obj 134 635 list prepend add 123;
#X obj 147 699 list trim;
#X obj 147 721 s MMP_BINFILE;
#X obj 395 117 v MMP_FIRST_GUI_ITEM;
#X obj 397 145 select 1;
#X msg 425 597 add 44 123;
#X msg 329 596 add 123;
#X msg 399 184 0;
#X obj 398 222 v MMP_FIRST_GUI_ITEM;
#X obj 380 355 r \$0-back_color;
#X obj 657 81 iemguts/canvasposition 1;
#X obj 715 128 s \$0-y;
#X obj 656 126 s \$0-x;
#X obj 657 104 unpack f f;
#X obj 875 82 v WIDGET-ID;
#X obj 875 107 + 1;
#X obj 875 132 s WIDGET-ID;
#X obj 1279 726 s LISTENERS;
#X obj 1271 538 symbol;
#X obj 1271 567 t s s;
#X msg 1311 598 symbol \$1-rcv;
#X obj 1438 565 r \$0-min;
#X obj 1564 564 r \$0-max;
#X obj 66 586 list fromsymbol;
#X obj 1688 475 r \$0-mode;
#X obj 1748 517 r \$0-spdrt;
#X obj 1748 546 t b f;
#X obj 1748 575 *;
#X obj 111 195 r MOB_ZOOM;
#X obj 78 344 * 1;
#X obj 132 350 * 1;
#X obj 255 350 * 1;
#X obj 197 345 * 1;
#X obj 1707 631 r \$0-name;
#X obj 1686 707 iem_receive;
#X msg 1707 660 set \$1;
#X obj 1279 642 pack s s f f f f f;
#N canvas 278 130 450 300 MMP_EXPORT_BY_INDEX 0;
#X obj 151 40 r MMP_EXPORT_BY_INDEX;
#X obj 146 268 outlet;
#X text 38 6 enable z-order;
#X obj 151 69 t f b;
#X obj 203 96 canvasindex 2;
#X obj 146 235 select;
#X obj 202 145 + 0;
#X obj 249 126 r \$0-z_offset;
#X obj 202 174 max 0;
#X obj 202 203 min 1;
#X obj 298 171 - 1;
#X connect 0 0 3 0;
#X connect 3 0 5 0;
#X connect 3 1 4 0;
#X connect 4 0 6 0;
#X connect 4 1 10 0;
#X connect 5 0 1 0;
#X connect 6 0 8 0;
#X connect 7 0 6 1;
#X connect 8 0 9 0;
#X connect 9 0 5 1;
#X connect 10 0 9 1;
#X restore 26 21 pd MMP_EXPORT_BY_INDEX;
#X obj 1686 744 route float;
#N canvas 0 50 534 640 canvas_color_to_rgb 0;
#X obj 119 35 inlet;
#X obj 121 96 + 1;
#X obj 121 125 * -1;
#X obj 134 159 t f f f;
#X obj 45 193 / 65536;
#X obj 163 194 / 256;
#X obj 247 197 mod 256;
#X obj 163 223 mod 256;
#X obj 45 222 int;
#X obj 45 251 / 255;
#X obj 163 252 / 255;
#X obj 247 226 / 255;
#X obj 40 283 outlet;
#X obj 164 285 outlet;
#X obj 254 283 outlet;
#X connect 0 0 1 0;
#X connect 1 0 2 0;
#X connect 2 0 3 0;
#X connect 3 0 4 0;
#X connect 3 1 5 0;
#X connect 3 2 6 0;
#X connect 4 0 8 0;
#X connect 5 0 7 0;
#X connect 6 0 11 0;
#X connect 7 0 10 0;
#X connect 8 0 9 0;
#X connect 9 0 12 0;
#X connect 10 0 13 0;
#X connect 11 0 14 0;
#X restore 381 381 pd canvas_color_to_rgb;
#N canvas 0 50 534 640 canvas_color_to_rgb 0;
#X obj 119 35 inlet;
#X obj 121 96 + 1;
#X obj 121 125 * -1;
#X obj 134 159 t f f f;
#X obj 45 193 / 65536;
#X obj 163 194 / 256;
#X obj 247 197 mod 256;
#X obj 163 223 mod 256;
#X obj 45 222 int;
#X obj 45 251 / 255;
#X obj 163 252 / 255;
#X obj 247 226 / 255;
#X obj 40 283 outlet;
#X obj 164 285 outlet;
#X obj 254 283 outlet;
#X connect 0 0 1 0;
#X connect 1 0 2 0;
#X connect 2 0 3 0;
#X connect 3 0 4 0;
#X connect 3 1 5 0;
#X connect 3 2 6 0;
#X connect 4 0 8 0;
#X connect 5 0 7 0;
#X connect 6 0 11 0;
#X connect 7 0 10 0;
#X connect 8 0 9 0;
#X connect 9 0 12 0;
#X connect 10 0 13 0;
#X connect 11 0 14 0;
#X restore 602 364 pd canvas_color_to_rgb;
#X obj 604 340 r \$0-front_color;
#X obj 68 53 t b b b b b, f 134;
#X msg 519 495 "address":"/panel6Table" \, "selectionColor":[1 \, 1
\, 1 \, 0.5] \, "highlightColor":[1 \, 0 \, 0 \, 1] \, "frame":[1620.363
\, 86.0898 \, 277.316 \, 97.82033] \, "mode":1 \, "color":[1 \, 1 \,
1 \, 1] \, "class":"MMPTable" \, "displayRangeLo":-1 \, "displayRangeHi":1
\, "displayMode":0;
#N canvas 0 50 537 678 zoom 0;
#X obj 75 34 inlet;
#X obj 88 513 outlet;
#X obj 196 206 r \$0-zoom;
#X obj 95 274 * 1;
#X obj 139 240 * 1;
#X obj 97 168 unpack f f;
#X obj 103 323 pack f f;
#X obj 75 59 list split 6;
#X obj 121 109 list split 2;
#X obj 105 351 list append;
#X obj 88 395 list append;
#X connect 0 0 7 0;
#X connect 2 0 3 1;
#X connect 2 0 4 1;
#X connect 3 0 6 0;
#X connect 4 0 6 1;
#X connect 5 0 3 0;
#X connect 5 1 4 0;
#X connect 6 0 9 0;
#X connect 7 0 10 0;
#X connect 7 1 8 0;
#X connect 8 0 5 0;
#X connect 8 1 9 1;
#X connect 9 0 10 1;
#X connect 10 0 1 0;
#X restore 302 721 pd zoom;
#X obj 1265 69 route -width -height -style -xfrom -yfrom -xto -yto
-arrayName -size -linewidth -color -style -mode -displayMode, f 8
;
#X obj 198 306 r \$0-width;
#X obj 276 307 r \$0-height;
#N canvas 0 50 537 340 About_array_displaying_modes 0;
#X text 39 18 MMP offers different modes for displaying arrays, f
26;
#X text 41 69 mode 0 : edit content \, mode 1 : select zone, f 24
;
#X text 39 112 displayMode 0 = line \, displayMode 1 = filled bar,
f 27;
#X text 43 191 Quick and dirty export of gop-array uses only mode 0
\, displayMode 0, f 43;
#X restore 1503 254 pd About_array_displaying_modes;
#X text 1480 67 displatMode;
#X text 1475 81 displayMode 0 = line \, displayMode 1 = filled bar
, f 27;
#X text 1368 78 0 1 2, f 2;
#X text 1388 65 style polygone -> points -> bezier curve, f 13;
#X text 1579 113 displayMode 1 = filled bar;
#X msg 36 495 symbol "address":"\$5"\\\,"selectionColor":[1\\\,1\\\,1\\\,0.5]\\\,"highlightColor":[0\\\,0\\\,0\\\,1]\\\,"frame":[\$1\\\,\$2\\\,\$7\\\,\$8]\\\,"mode":1\\\,"color":[1\\\,1\\\,1\\\,0.1]\\\,"class":"MMPTable"\\\,"displayRangeLo":\$6\\\,"displayRangeHi":\$4\\\,"displayMode":0
;
#X obj 519 317 r \$0-back_alpha;
#X obj 742 339 r \$0-front_alpha;
#X text 82 364 \$1;
#X text 138 368 \$2;
#X text 201 364 \$3;
#X text 259 367 \$4;
#X text 356 267 \$5;
#X text 358 391 \$6;
#X text 528 337 \$9;
#X obj 74 418 pack f f f f s f f f 1 f f f 1 f, f 131;
#X obj 311 328 r \$0-arrayName;
#X obj 1268 688 list prepend mob/listenerSarray;
#X obj 1286 487 r \$0-arrayName;
#X text 1396 177 "displayRangeLo":\$6\\\,"displayRangeHi":\$4;
#X floatatom 1515 129 5 0 0 0 xto #0-xto-rcv #0-xto;
#X floatatom 1494 195 5 0 0 0 yfrom #0-yfrom-rcv #0-yfrom;
#X floatatom 1435 126 5 0 0 0 xfrom #0-xfrom-rcv #0-xfrom;
#X floatatom 1633 195 5 0 0 0 yto #0-yto-rcv #0-yto;
#X obj 110 229 t f b f b f b f, f 23;
#X text 1256 20 Autres parametres a exporter;
#X connect 1 0 3 1;
#X connect 2 0 35 0;
#X connect 3 0 34 0;
#X connect 4 0 6 0;
#X connect 5 0 4 0;
#X connect 6 0 7 0;
#X connect 8 0 9 0;
#X connect 9 0 11 0;
#X connect 9 0 12 0;
#X connect 9 1 10 0;
#X connect 10 0 5 1;
#X connect 11 0 5 1;
#X connect 12 0 13 0;
#X connect 14 0 44 0;
#X connect 15 0 18 0;
#X connect 18 0 17 0;
#X connect 18 1 16 0;
#X connect 19 0 20 0;
#X connect 20 0 21 0;
#X connect 23 0 24 0;
#X connect 24 0 41 0;
#X connect 24 1 25 0;
#X connect 25 0 41 1;
#X connect 26 0 41 3;
#X connect 27 0 41 4;
#X connect 28 0 5 0;
#X connect 29 0 32 0;
#X connect 30 0 31 0;
#X connect 31 0 32 0;
#X connect 31 1 32 1;
#X connect 32 0 41 5;
#X connect 33 0 78 0;
#X connect 34 0 69 0;
#X connect 35 0 69 1;
#X connect 36 0 69 3;
#X connect 37 0 69 2;
#X connect 38 0 40 0;
#X connect 39 0 43 0;
#X connect 40 0 39 0;
#X connect 41 0 71 0;
#X connect 43 0 41 6;
#X connect 44 0 69 5;
#X connect 44 1 69 6;
#X connect 44 2 69 7;
#X connect 45 0 69 9;
#X connect 45 1 69 10;
#X connect 45 2 69 11;
#X connect 46 0 45 0;
#X connect 47 0 3 0;
#X connect 47 1 8 0;
#X connect 47 2 23 0;
#X connect 47 3 15 0;
#X connect 47 4 19 0;
#X connect 51 0 37 0;
#X connect 52 0 36 0;
#X connect 59 0 28 0;
#X connect 60 0 69 8;
#X connect 61 0 69 12;
#X connect 69 0 59 0;
#X connect 70 0 69 4;
#X connect 71 0 22 0;
#X connect 72 0 23 1;
#X connect 78 0 34 1;
#X connect 78 1 35 0;
#X connect 78 2 35 1;
#X connect 78 3 37 0;
#X connect 78 4 37 1;
#X connect 78 5 36 0;
#X connect 78 6 36 1;
#X restore 337 428 pd mmp-export-sarray_as_array;
#N canvas 40 65 1179 895 resize 0;
#X obj 724 794 r \$0-arrayPointer;
#X obj 841 816 r \$0-arrayPointer;
#X obj 669 838 set float-array linewidth;
#X obj 580 816 set float-array color;
#X obj 883 220 r \$0-width;
#X obj 961 220 r \$0-height;
#X obj 548 220 t b b;
#X obj 603 462 s pd-\$0-graph;
#X obj 626 418 s pd-\$0-display;
#X obj 580 594 pack f s f f;
#X obj 607 528 r \$0-arrayName;
#X obj 548 528 t b b;
#X obj 598 638 r \$0-arrayName;
#X obj 574 719 s;
#X obj 638 308 t b f;
#X obj 638 330 -;
#X msg 580 860 dirty 0;
#X obj 580 882 s \$0-this;
#X obj 580 374 t l l l;
#X obj 580 506 s \$0-this;
#X obj 677 220 r \$0-yfrom;
#X obj 819 220 r \$0-yto;
#X obj 599 220 r \$0-xfrom;
#X obj 755 220 r \$0-xto;
#X obj 713 528 r \$0-size;
#X obj 784 550 * 2;
#X obj 784 572 + 1;
#X msg 580 616 arraydialog \$2 \$3 \$4 0 0;
#X obj 784 528 r \$0-style;
#X obj 638 264 r \$0-style;
#X obj 638 286 == 1;
#X obj 548 838 t b b;
#X obj 548 198 r \$0-set;
#X obj 548 772 t b b;
#X obj 580 352 pack f f f f f f f f;
#X obj 883 286 *;
#X obj 883 308 !=;
#X obj 883 330 * 2;
#X obj 580 794 f;
#X obj 669 794 f;
#X obj 598 772 r \$0-color;
#X obj 687 772 r \$0-linewidth;
#X msg 626 396 donecanvasdialog 1 1 \$8 \$2 \$3 \$4 \$5 \$6 \$7 100
20;
#X msg 603 440 donecanvasdialog 1 1 \$8 \$2 \$3 \$4 \$5 \$6 \$7 0 0
;
#X msg 580 484 donecanvasdialog 1 1 \$8 \$2 \$3 \$4 \$5 \$6 \$7 40
130;
#X floatatom 599 243 5 0 0 0 - - -;
#X floatatom 677 243 5 0 0 0 - - -;
#X floatatom 755 243 5 0 0 0 - - -;
#X floatatom 819 243 5 0 0 0 - - -;
#X floatatom 883 243 5 0 0 0 - - -;
#X floatatom 961 243 5 0 0 0 - - -;
#N canvas 0 57 1920 1023 parse_$x-arguments 0;
#X obj 94 7 inlet;
#X obj 100 51 list fromsymbol;
#X text 219 98 \$0 36 48;
#X text 221 116 \$1 36 49;
#X obj 77 92 route 36;
#X obj 52 178 route 48;
#X obj 195 208 route 49 50 51 52 53 54 55 56 57;
#X obj 33 319 t b a;
#X obj 31 403 list fromsymbol;
#X obj 32 444 list append;
#X obj 52 513 list tosymbol;
#X obj 349 387 pdcontrol;
#X msg 345 354 args 1;
#X obj 52 536 outlet;
#X obj 189 251 route 48 49 50 51 52 53 54 55 56 57;
#X obj 345 323 t b a;
#X obj 349 410 list split 1;
#X obj 457 408 list tosymbol;
#X obj 352 448 list append;
#X msg 352 471 symbol \$1\$2;
#X obj 568 43 list split 1;
#X obj 631 116 list split 1;
#X text 395 315 \$1;
#X obj 678 180 moses 58;
#X obj 488 109 moses 49;
#X obj 531 131 moses 58;
#X obj 629 153 moses 48;
#X obj 705 273 list append;
#X obj 511 362 list append;
#X obj 506 502 print error_parsing_dollar_argument;
#X msg 606 351 args 1;
#X obj 533 153 - 48;
#X obj 587 284 * 1;
#X obj 587 306 +;
#X obj 671 199 t b f;
#X msg 668 235 10;
#X obj 622 235 t b f;
#X msg 587 235 1;
#X msg 631 282 0;
#X obj 587 328 t b f;
#X obj 648 379 pdcontrol;
#X obj 719 362 - 1;
#X obj 657 403 list split 0;
#X obj 689 427 list split 1;
#X obj 704 221 - 48;
#X text 506 379 escape $ sign;
#X obj 829 407 list tosymbol;
#X obj 682 451 list append;
#X msg 682 474 symbol \$1\$2;
#X obj 31 380 iemguts/canvasdollarzero 3;
#X connect 0 0 1 0;
#X connect 1 0 4 0;
#X connect 4 0 5 0;
#X connect 4 1 10 0;
#X connect 5 0 7 0;
#X connect 5 1 20 0;
#X connect 6 0 14 0;
#X connect 7 0 49 0;
#X connect 7 1 9 1;
#X connect 8 0 9 0;
#X connect 9 0 10 0;
#X connect 10 0 13 0;
#X connect 11 0 16 0;
#X connect 12 0 11 0;
#X connect 14 10 15 0;
#X connect 15 0 12 0;
#X connect 15 1 17 0;
#X connect 16 0 18 0;
#X connect 17 0 18 1;
#X connect 18 0 19 0;
#X connect 19 0 13 0;
#X connect 20 0 24 0;
#X connect 20 1 21 0;
#X connect 20 1 28 1;
#X connect 21 0 26 0;
#X connect 21 1 27 1;
#X connect 23 0 34 0;
#X connect 23 1 36 0;
#X connect 24 0 28 0;
#X connect 24 1 25 0;
#X connect 25 0 31 0;
#X connect 25 1 28 0;
#X connect 26 0 36 0;
#X connect 26 1 23 0;
#X connect 27 0 46 0;
#X connect 28 0 29 0;
#X connect 28 0 10 0;
#X connect 30 0 40 0;
#X connect 31 0 32 0;
#X connect 32 0 33 0;
#X connect 33 0 39 0;
#X connect 34 0 35 0;
#X connect 34 1 44 0;
#X connect 35 0 32 1;
#X connect 36 0 37 0;
#X connect 36 0 38 0;
#X connect 36 1 27 0;
#X connect 37 0 32 1;
#X connect 38 0 33 1;
#X connect 39 0 30 0;
#X connect 39 1 41 0;
#X connect 40 0 42 0;
#X connect 41 0 42 1;
#X connect 42 1 43 0;
#X connect 43 0 47 0;
#X connect 44 0 33 1;
#X connect 46 0 47 1;
#X connect 47 0 48 0;
#X connect 48 0 13 0;
#X connect 49 0 8 0;
#X restore 613 555 pd parse_$x-arguments;
#N canvas 0 57 1920 1023 parse_$x-arguments 0;
#X obj 94 7 inlet;
#X obj 100 51 list fromsymbol;
#X text 219 98 \$0 36 48;
#X text 221 116 \$1 36 49;
#X obj 77 92 route 36;
#X obj 52 178 route 48;
#X obj 195 208 route 49 50 51 52 53 54 55 56 57;
#X obj 33 319 t b a;
#X obj 31 403 list fromsymbol;
#X obj 32 444 list append;
#X obj 52 513 list tosymbol;
#X obj 349 387 pdcontrol;
#X msg 345 354 args 1;
#X obj 52 536 outlet;
#X obj 189 251 route 48 49 50 51 52 53 54 55 56 57;
#X obj 345 323 t b a;
#X obj 349 410 list split 1;
#X obj 457 408 list tosymbol;
#X obj 352 448 list append;
#X msg 352 471 symbol \$1\$2;
#X obj 568 43 list split 1;
#X obj 631 116 list split 1;
#X text 395 315 \$1;
#X obj 678 180 moses 58;
#X obj 488 109 moses 49;
#X obj 531 131 moses 58;
#X obj 629 153 moses 48;
#X obj 705 273 list append;
#X obj 511 362 list append;
#X obj 506 502 print error_parsing_dollar_argument;
#X msg 606 351 args 1;
#X obj 533 153 - 48;
#X obj 587 284 * 1;
#X obj 587 306 +;
#X obj 671 199 t b f;
#X msg 668 235 10;
#X obj 622 235 t b f;
#X msg 587 235 1;
#X msg 631 282 0;
#X obj 587 328 t b f;
#X obj 648 379 pdcontrol;
#X obj 719 362 - 1;
#X obj 657 403 list split 0;
#X obj 689 427 list split 1;
#X obj 704 221 - 48;
#X text 506 379 escape $ sign;
#X obj 829 407 list tosymbol;
#X obj 682 451 list append;
#X msg 682 474 symbol \$1\$2;
#X obj 164 337 bng 15 250 50 0 empty empty empty 17 7 0 10 -262144
-1 -1;
#X obj 34 360 iemguts/canvasdollarzero 3;
#X connect 0 0 1 0;
#X connect 1 0 4 0;
#X connect 4 0 5 0;
#X connect 4 1 10 0;
#X connect 5 0 7 0;
#X connect 5 1 20 0;
#X connect 6 0 14 0;
#X connect 7 0 50 0;
#X connect 7 1 9 1;
#X connect 8 0 9 0;
#X connect 9 0 10 0;
#X connect 10 0 13 0;
#X connect 11 0 16 0;
#X connect 12 0 11 0;
#X connect 14 10 15 0;
#X connect 15 0 12 0;
#X connect 15 1 17 0;
#X connect 16 0 18 0;
#X connect 17 0 18 1;
#X connect 18 0 19 0;
#X connect 19 0 13 0;
#X connect 20 0 24 0;
#X connect 20 1 21 0;
#X connect 20 1 28 1;
#X connect 21 0 26 0;
#X connect 21 1 27 1;
#X connect 23 0 34 0;
#X connect 23 1 36 0;
#X connect 24 0 28 0;
#X connect 24 1 25 0;
#X connect 25 0 31 0;
#X connect 25 1 28 0;
#X connect 26 0 36 0;
#X connect 26 1 23 0;
#X connect 27 0 46 0;
#X connect 28 0 29 0;
#X connect 28 0 10 0;
#X connect 30 0 40 0;
#X connect 31 0 32 0;
#X connect 32 0 33 0;
#X connect 33 0 39 0;
#X connect 34 0 35 0;
#X connect 34 1 44 0;
#X connect 35 0 32 1;
#X connect 36 0 37 0;
#X connect 36 0 38 0;
#X connect 36 1 27 0;
#X connect 37 0 32 1;
#X connect 38 0 33 1;
#X connect 39 0 30 0;
#X connect 39 1 41 0;
#X connect 40 0 42 0;
#X connect 41 0 42 1;
#X connect 42 1 43 0;
#X connect 43 0 47 0;
#X connect 44 0 33 1;
#X connect 46 0 47 1;
#X connect 47 0 48 0;
#X connect 48 0 13 0;
#X connect 49 0 50 0;
#X connect 50 0 8 0;
#X restore 604 670 pd parse_$x-arguments;
#X obj 889 259 t b f;
#X connect 0 0 3 1;
#X connect 1 0 2 1;
#X connect 4 0 34 5;
#X connect 4 0 35 0;
#X connect 4 0 49 0;
#X connect 5 0 34 6;
#X connect 5 0 50 0;
#X connect 5 0 53 0;
#X connect 6 0 11 0;
#X connect 6 1 34 0;
#X connect 9 0 27 0;
#X connect 10 0 9 1;
#X connect 11 0 33 0;
#X connect 11 1 9 0;
#X connect 12 0 13 1;
#X connect 14 0 15 0;
#X connect 14 1 15 1;
#X connect 15 0 34 3;
#X connect 16 0 17 0;
#X connect 18 0 44 0;
#X connect 18 1 43 0;
#X connect 18 2 42 0;
#X connect 20 0 34 2;
#X connect 20 0 46 0;
#X connect 21 0 34 4;
#X connect 21 0 48 0;
#X connect 22 0 34 1;
#X connect 22 0 45 0;
#X connect 23 0 15 0;
#X connect 23 0 47 0;
#X connect 24 0 9 2;
#X connect 25 0 26 0;
#X connect 26 0 9 3;
#X connect 27 0 13 0;
#X connect 28 0 25 0;
#X connect 29 0 30 0;
#X connect 30 0 14 0;
#X connect 31 1 16 0;
#X connect 32 0 6 0;
#X connect 33 0 31 0;
#X connect 33 1 38 0;
#X connect 33 1 39 0;
#X connect 34 0 18 0;
#X connect 35 0 36 0;
#X connect 36 0 37 0;
#X connect 37 0 34 7;
#X connect 38 0 3 0;
#X connect 39 0 2 0;
#X connect 40 0 38 1;
#X connect 41 0 39 1;
#X connect 42 0 8 0;
#X connect 43 0 7 0;
#X connect 44 0 19 0;
#X connect 53 0 35 0;
#X connect 53 1 35 1;
#X restore 225 31 pd resize;
#X obj 345 266 s pd-barray_properties(\$0);
#N canvas 753 268 420 500 barray_properties(\$0) 0;
#X obj 8 6 cnv 15 400 300 empty empty empty 20 12 0 14 -233017 -66577
0;
#X floatatom 308 110 5 0 0 0 width #0-width-rcv #0-width;
#X floatatom 306 85 5 0 0 0 height #0-height-rcv #0-height;
#N canvas 0 50 450 300 todo 0;
#X obj 244 238 nbx 3 20 10 200 1 0 \$0-spdrt \$0-spdrt-rcv speed_ratio(%)
-140 10 0 16 -262144 -1 -1 10 256;
#X obj 35 101 cnv 15 200 80 empty empty TODO 20 12 0 14 -262130 -66577
0;
#X floatatom 187 130 5 0 0 0 text_color #0-cc-rcv #0-cc-snd;
#N canvas 0 50 450 300 (subpatch) 0;
#X obj 215 153 cnv 20 20 20 empty \$0-cc_cnv-rcv empty 20 12 0 14 -1
-66577 0;
#X msg 316 159 color \$1 \$1;
#X obj 316 117 r \$0-cursor_color;
#X obj 316 198 s \$0-cc_cnv-rcv;
#X connect 1 0 3 0;
#X connect 2 0 1 0;
#X coords 0 -1 1 1 20 20 2 100 100;
#X restore 288 132 pd;
#X floatatom 187 173 5 0 0 0 text_size - -;
#X floatatom 277 38 5 0 0 0 z-offset #0-z_offset-rcv #0-z_offset;
#X obj 153 21 tgl 20 0 \$0-invisible \$0-invisible-rcv Invisible -100
8 0 16 -262144 -1 -1 0 1;
#X obj 153 40 tgl 20 0 \$0-z_offset \$0-z_offset-rcv MoveOnTop -100
8 0 16 -262144 -1 -1 0 99;
#X restore 141 358 pd todo;
#X obj 9 309 cnv 15 400 180 empty empty empty 20 12 0 14 -204786 -66577
0;
#X text 48 317 MobMuPlat Widget Export, f 25;
#X floatatom 104 435 5 0 0 0 z-offset #0-z_offset-rcv #0-z_offset;
#X obj 135 458 tgl 20 0 \$0-z_offset \$0-z_offset-rcv MoveOnTop -100
8 0 16 -262144 -1 -1 0 99;
#X obj 92 382 hsl 60 20 0 1 0 0 \$0-front_alpha \$0-front_alpha-rcv
empty -2 -8 0 10 -262144 -1 -1 0 1;
#X obj 91 352 hsl 60 20 0 1 0 0 \$0-back_alpha \$0-back_alpha-rcv empty
-2 -8 0 10 -262144 -1 -1 0 1;
#X text 19 171 front_color;
#X text 163 349 Back color Opacity;
#X text 165 379 Front color Opacity;
#N canvas 882 181 1049 632 color_picker 0;
#X obj 53 150 hsl 128 12 0 255 0 0 empty empty empty -2 -8 0 10 -228856
-258113 -1 0 0;
#X obj 53 162 hsl 128 12 0 255 0 0 empty empty empty -2 -8 0 10 -228856
-4034 -1 0 0;
#X obj 53 174 hsl 128 12 0 255 0 0 empty empty empty -2 -8 0 10 -228856
-4160 -1 0 0;
#X obj 183 150 tgl 36 0 empty empty empty 17 7 0 10 -249857 -249857
-249857 0 1;
#N canvas 0 50 498 451 convert2rgb 0;
#X obj 53 112 * -1;
#X obj 54 81 + 1;
#X obj 180 183 mod 256;
#X obj 51 179 div 256;
#X obj 52 143 t f f, f 13;
#X obj 49 210 t f f;
#X obj 48 248 div 256;
#X obj 132 250 mod 256;
#X obj 54 51 inlet;
#X obj 49 317 outlet;
#X obj 129 317 outlet;
#X obj 209 317 outlet;
#X connect 0 0 4 0;
#X connect 1 0 0 0;
#X connect 2 0 11 0;
#X connect 3 0 5 0;
#X connect 4 0 3 0;
#X connect 4 1 2 0;
#X connect 5 0 6 0;
#X connect 5 1 7 0;
#X connect 6 0 9 0;
#X connect 7 0 10 0;
#X connect 8 0 1 0;
#X restore 58 76 pd convert2rgb;
#X msg 286 149 color \$1 \$1 \$1;
#X msg 57 112 set \$1;
#X msg 141 109 set \$1;
#X msg 234 111 set \$1;
#X obj 83 332 t b f;
#X obj 144 333 t b f;
#X obj 149 291 i;
#X obj 104 292 i;
#X obj 61 294 i;
#X obj 67 410 expr ($f1*(-65536)+$f2*(-256)+$f3*(-1))-1;
#X obj 66 372 pack f f f;
#X obj 58 45 spigot 1;
#X obj 67 457 t b f b;
#X msg 134 495 0;
#X msg 67 486 1;
#X obj 58 14 r \$0-front_color;
#X obj 97 549 s \$0-front_color;
#X obj 220 224 / 31;
#X obj 254 224 / 31;
#X obj 289 222 / 31;
#X obj 220 246 int;
#X obj 254 246 int;
#X obj 289 244 int;
#X obj 220 268 * 100;
#X obj 254 268 * 10;
#X obj 220 354 +;
#X obj 257 312 +;
#X obj 257 334 t b f;
#X obj 295 285 t b f;
#X obj 220 376 s \$0-color;
#X connect 0 0 13 0;
#X connect 0 0 22 0;
#X connect 1 0 12 0;
#X connect 1 0 23 0;
#X connect 2 0 11 0;
#X connect 2 0 24 0;
#X connect 4 0 6 0;
#X connect 4 1 7 0;
#X connect 4 2 8 0;
#X connect 5 0 3 0;
#X connect 6 0 0 0;
#X connect 7 0 1 0;
#X connect 8 0 2 0;
#X connect 9 0 15 0;
#X connect 9 1 15 1;
#X connect 10 0 15 0;
#X connect 10 1 15 2;
#X connect 11 0 10 0;
#X connect 12 0 9 0;
#X connect 13 0 15 0;
#X connect 14 0 17 0;
#X connect 15 0 14 0;
#X connect 16 0 4 0;
#X connect 17 0 19 0;
#X connect 17 1 21 0;
#X connect 17 2 18 0;
#X connect 18 0 16 1;
#X connect 19 0 16 1;
#X connect 20 0 5 0;
#X connect 20 0 16 0;
#X connect 22 0 25 0;
#X connect 23 0 26 0;
#X connect 24 0 27 0;
#X connect 25 0 28 0;
#X connect 26 0 29 0;
#X connect 27 0 33 0;
#X connect 28 0 30 0;
#X connect 29 0 31 0;
#X connect 30 0 34 0;
#X connect 31 0 32 0;
#X connect 32 0 30 0;
#X connect 32 1 30 1;
#X connect 33 0 31 0;
#X connect 33 1 31 1;
#X coords 0 -1 1 1 169 36 2 50 150;
#X restore 99 176 pd color_picker;
#X obj 353 249 bng 40 250 50 0 \$0-ok empty OK 5 20 0 20 -204786 -1
-1;
#X symbolatom 91 13 30 0 0 0 arrayName #0-arrayName-rcv #0-arrayName
;
#X floatatom 94 37 8 0 0 0 size #0-size-rcv #0-size;
#X obj 93 91 vradio 15 1 0 3 \$0-style \$0-style-rcv style -40 22 0
10 -262144 -1 -1 0;
#X text 117 89 polygon;
#X text 117 120 Bezier curve;
#X obj 93 62 tgl 15 0 \$0-save_contents \$0-save_contents-rcv save_contents
17 7 0 10 -262144 -1 -1 0 1;
#X floatatom 96 153 5 0 40 0 lineWidth #0-linewidth-rcv #0-linewidth
;
#X obj 276 248 bng 40 250 50 0 \$0-set empty APPLY 5 20 0 20 -204786
-1 -1;
#X text 117 105 points (black);
#X floatatom 170 237 5 0 0 0 xto #0-xto-rcv #0-xto;
#X floatatom 90 260 5 0 0 0 yfrom #0-yfrom-rcv #0-yfrom;
#X floatatom 90 234 5 0 0 0 xfrom #0-xfrom-rcv #0-xfrom;
#X floatatom 170 259 5 0 0 0 yto #0-yto-rcv #0-yto;
#X restore 344 288 pd barray_properties(\$0);
#X connect 1 0 10 0;
#X connect 2 0 1 0;
#X connect 3 0 4 0;
#X connect 4 0 10 0;
#X coords 0 -1 100 1 181 88 2 40 130;
