#N canvas 918 216 1920 1023 10;
#X obj 171 28 list append \$1;
#X obj 171 56 sel 0;
#X obj 636 464 list append;
#X msg 636 530 obj \$1 \$2 pd \$3;
#X obj 518 416 s;
#X obj 342 326 s;
#X obj 171 0 loadbang;
#X msg 349 259 symbol pd-\$1;
#X msg 513 391 vis 1 \, selectall \, copy \, vis 0;
#X msg 310 286 paste \, vis 0;
#X msg 214 350 copy;
#X msg 554 362 symbol pd-\$1.pd;
#X msg 160 395 paste;
#N canvas 172 83 586 377 LICENSE-GPL 0;
#X text 57 88 This program is free software: you can redistribute it
and/or modify it under the terms of the GNU General Public License
as published by the Free Software Foundation \, either version 3 of
the License \, or (at your option) any later version.;
#X text 58 168 This program is distributed in the hope that it will
be useful \, but WITHOUT ANY WARRANTY \; without even the implied warranty
of MERCHANTABILITY or FITNESS FOR A PARTICULAR PURPOSE. See the GNU
General Public License for more details.;
#X text 57 261 You should have received a copy of the GNU General Public
License along with this program. If not \, see <http://www.gnu.org/licenses/>.
;
#X text 60 325 See the file LICENSE.txt for the full license text.
;
#X text 61 54 Copyright (C) 2016 \, Iceblink Digital \, Inc.;
#X restore 794 9 pd LICENSE-GPL;
#X text 543 40 argument0: (symbol) name of the target abstraction located
in 'gl/abs/' without the 'pd' extension.;
#X text 543 80 example: [gl/d.abs2sub test] -> this will copy contents
of 'gl/abs/test.pd' abstraction and paste it onto a newly created subpatch.
;
#X text 543 0 [d.abs2sub] creates a subpatch and copy/paste contents
of the target abstraction.;
#X msg 265 337 select 27;
#X text 543 130 tags: #development \, #abs;
#X obj 261 370 iemguts/canvasselect;
#X obj 160 442 iemguts/sendcanvas 1;
#X obj 100 478 iemguts/canvasdelete 1;
#X obj 198 83 t b b b b b a a a a a a, f 51;
#X obj 232 417 iemguts/sendcanvas 1;
#X obj 536 261 t b;
#X obj 631 440 iemguts/canvasposition;
#X msg 592 277 vis 1 \, obj -1000 -1000 \$1;
#X obj 260 153 t b;
#X floatatom 142 235 5 0 0 0 - - -;
#X obj 201 163 bng 15 250 50 0 empty empty empty 17 7 0 10 -262144
-1 -1;
#X symbolatom 209 226 10 0 0 0 - - -;
#X obj 115 137 inlet;
#X obj 204 196 iemguts/canvasindex 0;
#X connect 0 0 1 0;
#X connect 1 1 22 0;
#X connect 2 0 3 0;
#X connect 3 0 23 0;
#X connect 6 0 0 0;
#X connect 7 0 5 1;
#X connect 8 0 4 0;
#X connect 9 0 5 0;
#X connect 10 0 23 0;
#X connect 11 0 4 1;
#X connect 12 0 20 0;
#X connect 17 0 19 0;
#X connect 22 3 27 0;
#X connect 22 4 9 0;
#X connect 22 5 7 0;
#X connect 22 6 8 0;
#X connect 22 7 11 0;
#X connect 22 8 24 0;
#X connect 22 9 2 1;
#X connect 22 10 26 0;
#X connect 24 0 25 0;
#X connect 25 0 2 0;
#X connect 26 0 23 0;
#X connect 27 0 32 0;
#X connect 29 0 32 0;
#X connect 31 0 32 0;
#X connect 32 0 28 0;
#X connect 32 0 30 0;
