#N struct barray float color array z arrayelement;
#N struct arrayelement float zz;
#N canvas 493 148 681 705 12;
#X obj 737 297 pointer;
#X obj 607 327 append barray color;
#X msg 740 271 traverse pd-data \, bang;
#X msg 609 292 900;
#X msg 731 121 \; pd-data clear;
#X floatatom 316 349 5 0 0 0 - - -;
#X obj 330 396 setsize barray z, f 40;
#N canvas 1040 68 450 300 struct 0;
#X obj 111 81 outlet;
#X obj 111 56 struct barray float color array z arrayelement;
#X obj 102 138 plot z color 2 0 0 20 0;
#X connect 1 0 0 0;
#X restore 351 66 pd struct barray float color array z arrayelement
;
#X obj 382 220 iemguts/receivecanvas;
#X obj 346 132 route click;
#N canvas 0 50 450 300 data 0;
#X scalar barray 900 \; -51 \; -56 \; -75 \; -80 \; -85 \; -96 \; -100
\; -102 \; -102 \; -104 \; \;;
#X coords 0 200 200 0 200 200 1 100 100;
#X restore 1 1 pd data;
#X obj 273 177 bng 15 250 50 0 empty empty empty 17 7 0 10 -262144
-1 -1;
#X obj 367 330 list split 1;
#X obj 367 355 list trim;
#X obj 182 365 list split 1;
#X obj 156 407 / 200;
#X obj 156 432 *;
#X obj 156 482 int;
#X obj 206 548 element barray z;
#X floatatom 139 607 5 0 0 0 - - -;
#X obj 164 509 t b f, f 6;
#X obj 139 582 set arrayelement zz;
#X obj 146 546 f;
#X obj 240 419 list split 1;
#X obj 196 326 spigot;
#X msg 242 244 1;
#X msg 275 305 0;
#X obj 202 482 - 200;
#X obj 27 340 iemguts/sendcanvas;
#X obj 289 258 route motion mouseup mouse;
#X obj 30 287 list append;
#X msg 30 312 mouseup \$1 \$2 1 0;
#X obj 188 222 delay 1;
#N canvas 618 476 850 369 struct 0;
#X obj 82 75 tgl 15 0 empty empty empty 17 7 0 10 -262144 -1 -1 0 1
;
#X obj 161 69 print arrayelement;
#X obj 166 30 struct arrayelement float zz;
#X obj 159 104 filledpolygon 480 0 0 0 0 20 0 20 zz(-1000:1000)(1000:-1000)
0 zz(-1000:1000)(1000:-1000) 0 0;
#X connect 0 0 3 0;
#X restore 445 110 pd struct arrayelement float zz;
#X obj 403 518 getsize barray z;
#X obj 346 157 t b b a;
#X connect 0 0 1 1;
#X connect 1 0 6 1;
#X connect 2 0 0 0;
#X connect 3 0 1 0;
#X connect 5 0 6 0;
#X connect 5 0 16 1;
#X connect 7 0 9 0;
#X connect 8 0 29 0;
#X connect 9 0 35 0;
#X connect 12 0 13 0;
#X connect 13 0 18 1;
#X connect 13 0 34 0;
#X connect 14 0 15 0;
#X connect 14 1 23 0;
#X connect 15 0 16 0;
#X connect 16 0 17 0;
#X connect 17 0 20 0;
#X connect 18 0 21 1;
#X connect 20 0 22 0;
#X connect 20 1 18 0;
#X connect 22 0 21 0;
#X connect 23 0 27 0;
#X connect 24 0 14 0;
#X connect 25 0 24 1;
#X connect 26 0 24 1;
#X connect 27 0 22 1;
#X connect 29 0 24 0;
#X connect 29 1 26 0;
#X connect 29 2 30 1;
#X connect 30 0 31 0;
#X connect 31 0 28 0;
#X connect 32 0 30 0;
#X connect 34 0 16 1;
#X connect 35 0 32 0;
#X connect 35 1 11 0;
#X connect 35 1 25 0;
#X connect 35 2 12 0;
