#N canvas 73 299 841 437 12;
#X obj 41 39 hsl 170 60 0 127 0 0 slider-snd slider-rcv empty -2 -10 0 12 #fcfcfc #000000 #000000 0 1;
#N canvas 115 271 450 300 mob-listeners 1;
#N canvas 0 32 1920 994 1056-subpatch(loader2) 0;
#X obj 77 400 r fromGUI;
#X obj 77 473 list split 1;
#X obj 63 536 list append;
#X obj 65 503 t b s;
#X obj 102 610 s;
#X obj 63 565 list trim;
#X text 52 439 @ mobmuplat;
#X text 68 362 MobMuPlat wrapper;
#X msg 787 308 -1;
#X msg 726 641 1e+06;
#X obj 696 600 t l b;
#X msg 680 418 save;
#X obj 696 569 spigot;
#X msg 738 379 1;
#X msg 640 520 0;
#X obj 584 351 t b b;
#X obj 1540 260 list prepend test-mob3;
#X msg 1540 285 symbol \$1-\$2;
#X obj 1534 315 t s s;
#X obj 865 267 symbol test-mob3;
#X obj 905 441 symbol;
#X obj 913 162 list prepend test-mob3;
#X msg 913 187 symbol \$1-\$2;
#X obj 846 126 route bang;
#X obj 1367 133 route bang;
#X obj 1493 211 t b a;
#X obj 839 160 t b b;
#X obj 913 212 t b s;
#X obj 680 444 s RJ_SCENE_SAVE;
#X obj 695 506 r RJ_SCENE;
#X obj 586 320 delay 500;
#X obj 1560 376 print mob;
#X obj 846 97 r mob_save;
#X obj 1366 97 r mob_load;
#X obj 1366 221 t b;
#X obj 627 273 t b b b b, f 24;
#X obj 912 474 t s s;
#X obj 937 540 print mob;
#X msg 1349 783 bang;
#X text 1489 712 output all lines starting from current one to next waiting point, f 34;
#X obj 1337 881 list trim;
#X msg 1406 512 clear, f 7;
#X obj 1373 445 t b b;
#X obj 1347 756 delay 10;
#X msg 1384 836 line 0;
#X obj 1372 642 select 0;
#X msg 1329 672 failed !;
#X msg 1469 767 success !;
#X obj 1422 702 t b b b;
#X obj 1435 548 s ctl-assign3.GLOBAL;
#X obj 1408 576 s PdRacks.define.midi-mapping;
#X obj 1338 905 s RJ_SCENE_LOAD;
#X obj 1468 797 print mob;
#X text 1643 553 PdRacks stuff;
#X text 1642 578 https://github.com/jyg/pdr;
#X obj 1329 699 print mob;
#X text 1095 32 RJ_SCENE-style preset handler;
#X obj 694 685 text set MOB_SCENE_STATE;
#X obj 1371 613 text size MOB_SCENE_STATE;
#X obj 1337 859 text sequence MOB_SCENE_STATE;
#X msg 906 674 write ./data_\$1.savestate;
#X msg 937 507 writing savestate into ./data_\$1.savestate ...;
#X msg 1533 404 read ./data_\$1.savestate;
#X obj 899 802 text define MOB_SCENE_STATE;
#X msg 1563 346 trying tor read ./data_\$1.savestate ...;
#X obj 780 354 text delete MOB_SCENE_STATE;
#X connect 0 0 1 0;
#X connect 1 0 3 0;
#X connect 1 1 2 1;
#X connect 2 0 5 0;
#X connect 3 0 2 0;
#X connect 3 1 4 1;
#X connect 5 0 4 0;
#X connect 8 0 65 0;
#X connect 9 0 57 1;
#X connect 10 0 57 0;
#X connect 10 1 9 0;
#X connect 11 0 28 0;
#X connect 12 0 10 0;
#X connect 13 0 12 1;
#X connect 14 0 12 1;
#X connect 15 0 20 0;
#X connect 15 1 14 0;
#X connect 16 0 17 0;
#X connect 17 0 18 0;
#X connect 18 0 62 0;
#X connect 18 1 64 0;
#X connect 19 0 20 1;
#X connect 20 0 36 0;
#X connect 21 0 22 0;
#X connect 22 0 27 0;
#X connect 23 0 26 0;
#X connect 23 1 21 0;
#X connect 24 0 34 0;
#X connect 24 1 25 0;
#X connect 25 0 42 0;
#X connect 25 1 16 0;
#X connect 26 0 35 0;
#X connect 26 1 19 0;
#X connect 27 0 35 0;
#X connect 27 1 20 1;
#X connect 29 0 12 0;
#X connect 30 0 15 0;
#X connect 32 0 23 0;
#X connect 33 0 24 0;
#X connect 34 0 42 0;
#X connect 35 0 30 0;
#X connect 35 1 11 0;
#X connect 35 2 13 0;
#X connect 35 3 8 0;
#X connect 36 0 60 0;
#X connect 36 1 61 0;
#X connect 38 0 59 0;
#X connect 40 0 51 0;
#X connect 41 0 49 0;
#X connect 41 0 50 0;
#X connect 42 0 58 0;
#X connect 42 1 41 0;
#X connect 43 0 38 0;
#X connect 44 0 59 0;
#X connect 45 0 46 0;
#X connect 45 1 48 0;
#X connect 46 0 55 0;
#X connect 47 0 52 0;
#X connect 48 0 43 0;
#X connect 48 1 44 0;
#X connect 48 2 47 0;
#X connect 58 0 45 0;
#X connect 59 0 40 0;
#X connect 60 0 63 0;
#X connect 61 0 37 0;
#X connect 62 0 63 0;
#X connect 64 0 31 0;
#X restore 20 0 pd 1056-subpatch(loader2);
#N canvas 0 50 450 300 1055-subpatch(mob/tools/export/listener_knob) 0;
#X obj 599 357 list append;
#X obj 661 452 s RJ_SCENE;
#X obj 597 221 r RJ_SCENE_SAVE;
#X obj 597 246 route save;
#X obj 597 271 t b;
#X obj 591 386 route bang;
#X obj 386 290 r RJ_SCENE_LOAD;
#X obj 386 315 list trim;
#X obj 386 351 route knob1;
#X obj 386 376 route bang;
#X obj 650 107 r knob1;
#X obj 653 415 list prepend knob1;
#X obj 174 632 s toGUI;
#X obj 123 486 route 0;
#X obj 122 449 list prepend 2 knob1;
#X obj 124 530 list;
#X obj 394 950 s knob1;
#X obj 124 735 r knob1;
#X obj 124 760 list prepend set;
#X obj 124 785 list trim;
#X obj 124 810 s knob1-rcv;
#X text 341 737 routed fromGUI;
#X obj 147 335 r knob1;
#X obj 372 767 r 2.knob1;
#X msg 125 567 list \$1 set \$2;
#X msg 200 528 list \$1.\$2 set \$3;
#X obj 96 220 r knob1-rcv;
#X obj 150 399 change;
#X obj 509 420 loadbang;
#X obj 511 448 f 0.00115895;
#X obj 105 274 route set float;
#X connect 0 0 5 0;
#X connect 2 0 3 0;
#X connect 3 0 4 0;
#X connect 4 0 0 0;
#X connect 5 1 11 0;
#X connect 6 0 7 0;
#X connect 7 0 8 0;
#X connect 8 0 9 0;
#X connect 9 1 16 0;
#X connect 10 0 0 1;
#X connect 11 0 1 0;
#X connect 13 0 15 0;
#X connect 13 1 25 0;
#X connect 14 0 13 0;
#X connect 15 0 24 0;
#X connect 17 0 18 0;
#X connect 18 0 19 0;
#X connect 19 0 20 0;
#X connect 22 0 27 0;
#X connect 23 0 16 0;
#X connect 24 0 12 0;
#X connect 25 0 12 0;
#X connect 26 0 30 0;
#X connect 27 0 14 0;
#X connect 28 0 29 0;
#X connect 29 0 16 0;
#X connect 30 0 27 0;
#X connect 30 1 16 0;
#X restore 20 100 pd 1055-subpatch(mob/tools/export/listener_knob);
#N canvas 0 50 450 300 1054-subpatch(mob/tools/export/listener_lin) 0;
#X obj 569 357 list append;
#X obj 631 452 s RJ_SCENE;
#X obj 597 221 r RJ_SCENE_SAVE;
#X obj 597 246 route save;
#X obj 597 271 t b;
#X obj 561 386 route bang;
#X obj 399 354 r RJ_SCENE_LOAD;
#X obj 399 379 list trim;
#X obj 399 404 route slider-snd;
#X obj 399 429 route bang;
#X obj 650 107 r slider-snd;
#X obj 117 433 s toGUI;
#X obj 455 481 s slider-snd;
#X obj 623 415 list prepend slider-snd;
#X obj 95 159 - 0;
#X obj 96 204 / 1;
#X obj 161 101 loadbang;
#X obj 161 125 f 127;
#X obj 161 149 - 0;
#X obj 161 173 select 0;
#X obj 78 621 * 1;
#X obj 76 654 + 0;
#X obj 66 287 route 0;
#X obj 65 250 list prepend 1 slider-snd;
#X obj 67 331 list;
#X obj 178 532 r slider-snd;
#X obj 178 610 list prepend set;
#X obj 178 635 list trim;
#X obj 178 660 s slider-rcv;
#X text 19 468 routed fromGUI;
#X obj 87 58 r slider-snd;
#X obj 52 513 r 1.slider-snd;
#X msg 68 368 list \$1 set \$2;
#X msg 143 329 list \$1.\$2 set \$3;
#X obj 9 61 r slider-rcv;
#X obj 9 86 route set;
#X obj 90 122 change;
#X obj 76 679 s slider-rcv;
#X obj 178 572 change;
#X obj 65 567 route float;
#X connect 0 0 5 0;
#X connect 2 0 3 0;
#X connect 3 0 4 0;
#X connect 4 0 0 0;
#X connect 5 1 13 0;
#X connect 6 0 7 0;
#X connect 7 0 8 0;
#X connect 8 0 9 0;
#X connect 9 1 12 0;
#X connect 10 0 0 1;
#X connect 13 0 1 0;
#X connect 14 0 15 0;
#X connect 15 0 23 0;
#X connect 16 0 17 0;
#X connect 17 0 18 0;
#X connect 18 0 19 0;
#X connect 19 1 15 1;
#X connect 19 1 20 1;
#X connect 20 0 21 0;
#X connect 21 0 37 0;
#X connect 22 0 24 0;
#X connect 22 1 33 0;
#X connect 23 0 22 0;
#X connect 24 0 32 0;
#X connect 25 0 38 0;
#X connect 26 0 27 0;
#X connect 27 0 28 0;
#X connect 30 0 36 0;
#X connect 31 0 39 0;
#X connect 32 0 11 0;
#X connect 33 0 11 0;
#X connect 34 0 35 0;
#X connect 35 0 36 0;
#X connect 36 0 14 0;
#X connect 38 0 26 0;
#X connect 39 0 20 0;
#X restore 20 50 pd 1054-subpatch(mob/tools/export/listener_lin);
#X restore 356 7 pd mob-listeners;
#X obj 132 168 mob/knob knob1 knob1-rcv 8 0.51956;
#A saved -name knob1;
#A saved -range 1;
#A saved -invisible 0;
#A saved -z_offset 0;
#A saved -cursor_color 0 0 0;
#A saved -front_color 200 200 200;
#A saved -back_color 220 220 220;
#A saved -size 164;
#X obj 348 56 mob;
#A saved -B 220;
#A saved -G 220;
#A saved -R 220;
#A saved -zoom 1;
#A saved -landscape 0;
#A saved -mode 0;
#A saved -pages 1;
#X obj 9 233 osc~;
#X obj 82 143 mtof;
#X obj 81 113 r slider-snd;
#X obj 68 228 r knob1;
#X obj 9 258 *~;
#X obj 14 306 dac~;
#X obj 454 282 s mob_save;
#X msg 497 235 0;
#X msg 559 237 1;
#X msg 577 295 0;
#X msg 639 297 1;
#X obj 534 342 s mob_load;
#X connect 4 0 8 0;
#X connect 5 0 4 0;
#X connect 6 0 5 0;
#X connect 7 0 8 1;
#X connect 8 0 9 0;
#X connect 8 0 9 1;
#X connect 11 0 10 0;
#X connect 12 0 10 0;
#X connect 13 0 15 0;
#X connect 14 0 15 0;
#X coords 0 0 1 1 320 480 1 0 0;
