#N canvas 959 167 1193 853 36;
#X declare -path pdr/modules/basic;
#X obj 576 103 pdr;
#N canvas 0 50 450 300 \$0-PdRacks.declare 0;
#X obj 10 10 declare -path pdr/modules/basic;
#X obj 10 60 pdr/core/stuff/u_glocal.enable \$0;
#A saved modules_set # List of modules to load;
#A saved modules_set # you can add new sets of modules here;
#A saved modules_set # (ctrl/cmd + s to save and close);
#A saved modules_set basic;
#X restore 576 148 pd \$0-PdRacks.declare;
#N canvas 820 164 1714 956 open-stage-control 1;
#X obj 53 11 netreceive -b -u 7777;
#X obj 82 66 oscparse;
#X obj 406 430 list split 2;
#X obj 548 545 list split 2;
#X obj 99 367 route float;
#X msg 124 508 \$2 \$1;
#X obj 123 580 route 0 1;
#X msg 119 771 \$1 remove;
#X obj 495 676 route 0 1 2 3;
#X obj 231 437 t l l;
#X obj 369 770 spigot;
#X msg 409 486 0 update \$1 \$2;
#X msg 550 602 1 update \$1 \$2;
#X obj 860 636 list split 2;
#X obj 1001 791 list split 2;
#X msg 862 693 2 update \$1 \$2;
#X msg 1003 848 3 update \$1 \$2;
#X obj 689 777 spigot;
#X obj 527 778 spigot;
#X obj 772 849 spigot;
#X obj 1296 439 + 1;
#X obj 1279 369 * -2;
#X obj 53 119 list split 2;
#X msg 1031 409 wave \$1;
#X msg 1267 495 vol \$1;
#X obj 55 178 unpack s f;
#X obj 55 233 list append;
#X obj 53 281 list trim;
#X obj 166 909 outlet;
#X obj 342 211 + 1;
#X msg 1188 253 pan \$1;
#X obj 99 312 route pad_event pad_update wave volpan;
#X obj 1255 160 unpack f f;
#X obj 166 855 list prepend 1;
#X obj 414 113 print;
#X connect 0 0 1 0;
#X connect 1 0 22 0;
#X connect 2 0 11 0;
#X connect 2 1 3 0;
#X connect 3 0 12 0;
#X connect 3 1 13 0;
#X connect 4 1 9 0;
#X connect 5 0 6 0;
#X connect 6 0 7 0;
#X connect 7 0 33 0;
#X connect 8 0 10 1;
#X connect 8 1 18 1;
#X connect 8 2 17 1;
#X connect 8 3 19 1;
#X connect 9 0 5 0;
#X connect 9 1 8 0;
#X connect 10 0 33 0;
#X connect 11 0 10 0;
#X connect 12 0 18 0;
#X connect 13 0 15 0;
#X connect 13 1 14 0;
#X connect 14 0 16 0;
#X connect 15 0 17 0;
#X connect 16 0 19 0;
#X connect 17 0 33 0;
#X connect 18 0 33 0;
#X connect 19 0 33 0;
#X connect 20 0 24 0;
#X connect 21 0 20 0;
#X connect 22 0 25 0;
#X connect 22 1 26 1;
#X connect 23 0 33 0;
#X connect 24 0 33 0;
#X connect 25 0 26 0;
#X connect 25 1 29 0;
#X connect 26 0 27 0;
#X connect 27 0 31 0;
#X connect 29 0 33 1;
#X connect 30 0 33 0;
#X connect 31 0 4 0;
#X connect 31 1 2 0;
#X connect 31 2 23 0;
#X connect 31 3 32 0;
#X connect 32 0 30 0;
#X connect 32 1 21 0;
#X connect 33 0 28 0;
#X restore 126 98 pd open-stage-control;
#X obj 129 330 clip~ -1 1;
#X obj 127 455 dac~;
#X obj 109 184 clone -s 1 guimbarde_unit 4;
#X obj 244 399 clip~ -1 1;
#X obj 119 257 *~ 0.2;
#X obj 509 263 *~ 0.2;
#X connect 2 0 5 0;
#X connect 3 0 4 0;
#X connect 5 0 7 0;
#X connect 5 1 8 0;
#X connect 6 0 4 1;
#X connect 7 0 3 0;
#X connect 8 0 6 0;
