#N struct bckgrnd float x float y float width float height float color
;
#N canvas 108 287 1321 704 36;
#X scalar bckgrnd 0 0 362.427 579.883 458 \;;
#X obj 960 239 mob;
#A saved -R 106.417;
#A saved -G 128.504;
#A saved -B 204.803;
#A saved -pages 1;
#A saved -mode 2;
#A saved -landscape 0;
#A saved -zoom 1.65551;
#N canvas 0 50 450 300 mob-listeners 0;
#X obj 20 50 mob/listenerXY_lin guimbarde guimbarde-rcv 1 0 1 0.902235
0.505792;
#A saved 0.902235 0.505792;
#A saved MOB_TARGET guimbarde;
#X obj 20 0 mob/loader guimbarde;
#X restore 445 0 pd mob-listeners;
#X obj 18 69 mob/xy_slider;
#A saved -invisible 0;
#A saved -z_offset 0;
#A saved -max 1;
#A saved -min 0;
#A saved -name guimbarde;
#A saved -cursor_color -1;
#A saved -back_color -1.17142e+07;
#A saved -size 324 496;
#X obj 701 272 line~;
#X obj 688 451 lop~ 10;
#X text 88 21 GUIMBARDE;
#X obj 516 132 r guimbarde;
#X obj 516 186 t l b;
#X obj 421 266 unpack f f;
#X obj 421 320 lop~ 10;
#X obj 485 390 lop~ 10;
#X obj 444 457 bwl-osc 1;
#X msg 819 522 \; bwl-osc WFORM 3 1;
#X obj 980 453 loadbang;
#N canvas 0 50 469 555 tilt 0;
#X obj 51 17 receive fromSystem;
#X obj 52 220 unpack 0 0;
#X obj 51 79 list trim;
#X obj 52 143 route /tilts /shake /key /keyUp;
#X obj 265 310 * 127;
#X obj 45 459 dbtorms;
#X obj 45 513 outlet;
#X obj 58 322 * 15;
#X obj 51 390 + 88;
#X connect 0 0 2 0;
#X connect 1 0 7 0;
#X connect 2 0 3 0;
#X connect 3 0 1 0;
#X connect 5 0 6 0;
#X connect 7 0 8 0;
#X connect 8 0 5 0;
#X restore 985 64 pd tilt;
#X msg 712 213 1 \, 0 100;
#X obj 538 569 *~;
#X obj 712 384 *~;
#X obj 652 590 clip~ -1 1;
#X obj 528 638 dac~;
#X connect 4 0 18 0;
#X connect 5 0 17 1;
#X connect 7 0 8 0;
#X connect 8 0 9 0;
#X connect 8 1 16 0;
#X connect 9 0 10 0;
#X connect 9 1 11 0;
#X connect 10 0 12 1;
#X connect 11 0 12 0;
#X connect 12 0 17 0;
#X connect 14 0 13 0;
#X connect 15 0 18 1;
#X connect 16 0 4 0;
#X connect 17 0 19 0;
#X connect 18 0 5 0;
#X connect 19 0 20 0;
#X connect 19 0 20 1;
