#N struct bckgrnd float x float y float width float height float color
;
#N canvas 654 58 1257 941 36;
#X declare -path pdr/modules/basic;
#X scalar bckgrnd 0 0 362.426 579.882 346 \;;
#X obj 960 239 mob;
#A saved -R 106.417;
#A saved -G 128.504;
#A saved -B 204.803;
#A saved -pages 1;
#A saved -mode 2;
#A saved -landscape 0;
#A saved -zoom 1.65551;
#X obj 14 84 mob/xy_multi;
#A saved -show_first_touch 0;
#A saved -invisible 0;
#A saved -z_offset 0;
#A saved -max 1;
#A saved -min 0;
#A saved -name multitouch_pad;
#A saved -front_color 198 198 198;
#A saved -back_color 212 210 207;
#A saved -size 329 477;
#X obj 106 17 hradio 60 1 1 4 wave wave-rcv empty 0 -8 0 10 -261682
-260097 -1 1;
#X text 124 20 GUIMBARDE;
#X obj 1016 103 pdr;
#N canvas 0 50 450 300 \$0-PdRacks.declare 0;
#X obj 10 10 declare -path pdr/modules/basic;
#X obj 10 60 pdr/core/stuff/u_glocal.enable \$0;
#A saved modules_set # List of modules to load;
#A saved modules_set # you can add new sets of modules here;
#A saved modules_set # (ctrl/cmd + s to save and close);
#A saved modules_set basic;
#X restore 1016 148 pd \$0-PdRacks.declare;
#N canvas 0 50 450 300 stuff 0;
#N canvas 0 50 450 300 mob-listeners 0;
#X obj 20 50 mob/listenerMultitouch multitouch_pad multitouch_pad-rcv
1 0 1;
#X obj 20 100 mob/listenerHradio wave wave-rcv 2 4;
#X obj 20 0 mob/loader guimbarde;
#X restore 445 0 pd mob-listeners;
#X obj 613 415 lop~ 10;
#X obj 614 305 loadbang;
#X obj 446 524 clip~ -1 1;
#N canvas 1517 58 557 845 osc 1;
#X obj 25 37 inlet;
#X obj 54 776 outlet~;
#X obj 328 256 line~;
#X obj 49 194 t l b;
#X obj 48 250 unpack f f;
#X obj 48 304 lop~ 10;
#X obj 112 374 lop~ 10;
#X obj 51 429 bwl-osc 1;
#X obj 165 553 *~;
#X obj 50 128 route add update remove;
#X msg 229 188 1 5;
#X msg 328 186 0 100;
#X connect 0 0 9 0;
#X connect 2 0 8 1;
#X connect 3 0 4 0;
#X connect 3 1 10 0;
#X connect 4 0 5 0;
#X connect 4 1 6 0;
#X connect 5 0 7 1;
#X connect 6 0 7 0;
#X connect 7 0 8 0;
#X connect 8 0 1 0;
#X connect 9 0 3 0;
#X connect 9 1 3 0;
#X connect 9 2 11 0;
#X connect 10 0 2 0;
#X connect 11 0 2 0;
#X restore 445 175 pd osc;
#N canvas 0 50 469 555 tilt 0;
#X obj 51 17 receive fromSystem;
#X obj 52 220 unpack 0 0;
#X obj 51 79 list trim;
#X obj 52 143 route /tilts /shake /key /keyUp;
#X obj 265 310 * 127;
#X obj 45 459 dbtorms;
#X obj 45 513 outlet;
#X obj 51 390 + 88;
#X obj 58 322 * -15;
#X connect 0 0 2 0;
#X connect 1 0 8 0;
#X connect 2 0 3 0;
#X connect 3 0 1 0;
#X connect 5 0 6 0;
#X connect 7 0 5 0;
#X connect 8 0 7 0;
#X restore 759 360 pd tilt;
#X obj 445 120 route 0 1 2 3;
#N canvas 0 50 557 845 osc 0;
#X obj 25 37 inlet;
#X obj 54 776 outlet~;
#X obj 328 256 line~;
#X obj 49 194 t l b;
#X obj 48 250 unpack f f;
#X obj 48 304 lop~ 10;
#X obj 112 374 lop~ 10;
#X obj 51 429 bwl-osc 1;
#X obj 165 553 *~;
#X obj 50 128 route add update remove;
#X msg 229 188 1 5;
#X msg 328 186 0 100;
#X connect 0 0 9 0;
#X connect 2 0 8 1;
#X connect 3 0 4 0;
#X connect 3 1 10 0;
#X connect 4 0 5 0;
#X connect 4 1 6 0;
#X connect 5 0 7 1;
#X connect 6 0 7 0;
#X connect 7 0 8 0;
#X connect 8 0 1 0;
#X connect 9 0 3 0;
#X connect 9 1 3 0;
#X connect 9 2 11 0;
#X connect 10 0 2 0;
#X connect 11 0 2 0;
#X restore 514 229 pd osc;
#N canvas 0 50 557 845 osc 0;
#X obj 25 37 inlet;
#X obj 54 776 outlet~;
#X obj 328 256 line~;
#X obj 49 194 t l b;
#X obj 48 250 unpack f f;
#X obj 48 304 lop~ 10;
#X obj 112 374 lop~ 10;
#X obj 51 429 bwl-osc 1;
#X obj 165 553 *~;
#X obj 50 128 route add update remove;
#X msg 229 188 1 5;
#X msg 328 186 0 100;
#X connect 0 0 9 0;
#X connect 2 0 8 1;
#X connect 3 0 4 0;
#X connect 3 1 10 0;
#X connect 4 0 5 0;
#X connect 4 1 6 0;
#X connect 5 0 7 1;
#X connect 6 0 7 0;
#X connect 7 0 8 0;
#X connect 8 0 1 0;
#X connect 9 0 3 0;
#X connect 9 1 3 0;
#X connect 9 2 11 0;
#X connect 10 0 2 0;
#X connect 11 0 2 0;
#X restore 585 174 pd osc;
#N canvas 0 50 557 845 osc 0;
#X obj 25 37 inlet;
#X obj 54 776 outlet~;
#X obj 328 256 line~;
#X obj 49 194 t l b;
#X obj 48 250 unpack f f;
#X obj 48 304 lop~ 10;
#X obj 112 374 lop~ 10;
#X obj 51 429 bwl-osc 1;
#X obj 165 553 *~;
#X obj 50 128 route add update remove;
#X msg 229 188 1 5;
#X msg 328 186 0 100;
#X connect 0 0 9 0;
#X connect 2 0 8 1;
#X connect 3 0 4 0;
#X connect 3 1 10 0;
#X connect 4 0 5 0;
#X connect 4 1 6 0;
#X connect 5 0 7 1;
#X connect 6 0 7 0;
#X connect 7 0 8 0;
#X connect 8 0 1 0;
#X connect 9 0 3 0;
#X connect 9 1 3 0;
#X connect 9 2 11 0;
#X connect 10 0 2 0;
#X connect 11 0 2 0;
#X restore 656 229 pd osc;
#X obj 445 306 *~;
#X msg 614 358 0.2;
#X obj 902 13 multitouch.enable;
#X obj 893 513 r wave;
#X msg 889 570 \; bwl-osc WFORM \$1 1;
#X obj 445 62 r multitouch_pad;
#X obj 412 596 audio_out;
#A saved r4 0;
#A saved r3 0;
#A saved r2 1;
#A saved r1 0;
#A saved l4 0;
#A saved l3 0;
#A saved l2 0;
#A saved l1 1;
#A saved pan 0;
#A saved vol 98.3928;
#A saved out OUT(1/2);
#A saved SID 4;
#X connect 1 0 10 1;
#X connect 2 0 11 0;
#X connect 3 0 16 0;
#X connect 3 0 16 1;
#X connect 4 0 10 0;
#X connect 5 0 1 0;
#X connect 6 0 4 0;
#X connect 6 1 7 0;
#X connect 6 2 8 0;
#X connect 6 3 9 0;
#X connect 7 0 10 0;
#X connect 8 0 10 0;
#X connect 9 0 10 0;
#X connect 10 0 3 0;
#X connect 11 0 1 0;
#X connect 13 0 14 0;
#X connect 15 0 6 0;
#X restore 99 626 pd stuff;
#X obj 510 102 multitouch;
