#N canvas 0 57 1920 1023 12;
#X obj 25 37 inlet;
#X obj 54 836 outlet~;
#X obj 328 256 line~;
#X obj 49 231 t l b;
#X obj 47 375 unpack f f;
#X obj 45 439 lop~ 10;
#X obj 445 336 lop~ 10;
#X obj 68 521 bwl-osc \$2;
#X obj 110 758 *~;
#X obj 50 128 route add update remove;
#X msg 328 186 0 100;
#X obj 413 459 *~ -80;
#X obj 384 602 mtof~;
#X obj 307 419 *~ -1;
#X obj 270 485 +~ 1;
#X obj 403 534 +~ 130;
#X obj 274 688 lop~ 4000;
#X obj 80 654 vcf~ 10;
#X obj 95 706 *~ 4;
#X obj 538 131 switch~;
#X msg 522 62 1;
#X obj 522 87 change;
#X msg 573 39 0;
#X msg 436 145 stop;
#X obj 443 118 select 1;
#X msg 525 265 remove;
#X text 552 209 watchdog;
#N canvas 0 50 450 300 catch 0;
#X obj 145 32 inlet;
#X obj 147 258 outlet;
#X obj 152 77 route 0;
#X obj 153 124 sel 0;
#X msg 186 161 0 \$1;
#X connect 0 0 2 0;
#X connect 2 0 3 0;
#X connect 2 1 1 0;
#X connect 3 1 4 0;
#X connect 4 0 1 0;
#X restore 63 180 pd catch 0 0;
#X msg 225 314 1 5;
#X obj 525 240 delay 10000;
#X obj 378 32 delay 200;
#X connect 0 0 9 0;
#X connect 2 0 8 1;
#X connect 3 0 4 0;
#X connect 3 1 28 0;
#X connect 3 1 20 0;
#X connect 3 1 29 0;
#X connect 4 0 5 0;
#X connect 4 1 6 0;
#X connect 5 0 7 0;
#X connect 6 0 11 0;
#X connect 6 0 13 0;
#X connect 7 0 16 0;
#X connect 7 0 17 0;
#X connect 8 0 1 0;
#X connect 9 0 27 0;
#X connect 9 1 27 0;
#X connect 9 2 10 0;
#X connect 9 2 30 0;
#X connect 10 0 2 0;
#X connect 11 0 15 0;
#X connect 12 0 17 1;
#X connect 13 0 14 0;
#X connect 14 0 7 1;
#X connect 15 0 12 0;
#X connect 16 0 8 0;
#X connect 17 0 18 0;
#X connect 18 0 8 0;
#X connect 20 0 21 0;
#X connect 21 0 19 0;
#X connect 21 0 24 0;
#X connect 22 0 21 0;
#X connect 23 0 30 0;
#X connect 24 0 23 0;
#X connect 25 0 9 0;
#X connect 27 0 3 0;
#X connect 28 0 2 0;
#X connect 29 0 25 0;
#X connect 30 0 22 0;
