#N struct bckgrnd float x float y float width float height float color
;
#N canvas 0 243 1448 837 16;
#X scalar bckgrnd 0 0 481.247 769.996 234 \;;
#X obj 594 36 mob;
#A saved -R 64.252;
#A saved -G 108.425;
#A saved -B 126.496;
#A saved -pages 1;
#A saved -mode 2;
#A saved -landscape 0;
#A saved -zoom 1.24676;
#N canvas 283 328 450 300 mob-listeners 0;
#X obj 20 50 mob/listener play play-rcv;
#X obj 20 100 mob/listener rec rec-rcv;
#X obj 20 150 mob/listenerJog jog jog-rcv 1;
#X obj 20 200 mob/listenerHLCD_lin index index-rcv 2 0 1 0 0.176223
;
#A saved 0.190843;
#A saved MOB_TARGET index;
#X obj 20 250 mob/listenerHLCD_lin volume volume-rcv 3 0 127 140.405
84.452;
#A saved 117.418;
#A saved MOB_TARGET volume;
#X obj 20 0 mob/loader scratch;
#X restore 100 10 pd mob-listeners;
#N canvas 773 92 1310 982 scratcher 0;
#X obj 341 213 / 80181;
#X obj 114 494 *~;
#X obj 235 337 r \$0-vol;
#X obj 235 362 dbtorms;
#X obj 218 496 *~;
#X obj 353 295 s \$0-nb_revolutions;
#X text 433 211 nb samples/tour @ 33.33 rpm @ 44100Hz, f 27;
#X obj 60 335 r \$0-index;
#N canvas 0 57 1920 1023 scratchstuff 0;
#X obj 127 11 inlet;
#X obj 59 1003 outlet~;
#X obj 194 999 outlet~;
#X obj 64 705 rpole~ 1;
#X obj 190 132 -;
#X obj 98 351 spigot;
#X obj 252 267 select 1;
#X obj 164 108 t f f f f f;
#X obj 225 385 f;
#X msg 175 658 set \$1;
#X obj 208 234 ||;
#X obj 135 285 == 0;
#X msg 120 416 \$1;
#X obj 61 595 -~;
#X obj 61 479 rzero~ 1;
#X obj 559 27 inlet;
#X obj 209 196 < -10;
#X obj 271 194 > 10;
#X obj 59 875 *~ 1000;
#X obj 321 403 /;
#X msg 327 375 1 \$1;
#X obj 310 456 + 1;
#X obj 317 430 * 934;
#X obj 201 22 * 80181;
#X obj 61 642 lop~ 8;
#X obj 62 665 lop~ 8;
#X obj 61 618 lop~ 3;
#X text 366 427 facteur de conmpensation inversement proportionnel
à la taille du saut entre debut et fin du sample;
#X obj 265 335 bng 15 250 50 0 empty empty empty 17 7 0 10 -262144
-1 -1;
#X obj 196 53 / 1000;
#X obj 61 452 vline~;
#X msg 98 376 \$1 20;
#X obj 84 569 *~;
#X obj 84 538 *~ 1;
#X obj 102 511 expr~ ($v1<-10)+($v1>10);
#X text 376 500 very empirical;
#X obj 399 713 snapshot~;
#X obj 399 784 change;
#X obj 399 809 select 1;
#X obj 439 834 f;
#X msg 424 931 set \$1;
#X text 481 703 to resolve single precision problem of rpole~;
#X obj 181 415 t f f f;
#X obj 236 586 int;
#X obj 203 538 t f f;
#X obj 203 632 -;
#X obj 130 839 +;
#X obj 165 839 f;
#X obj 399 738 t f f f f;
#X obj 482 788 change;
#X obj 482 810 select 1;
#X obj 490 836 f;
#X obj 418 530 metro 200;
#X obj 162 877 * 1000;
#X text 222 876 onset value;
#X obj 235 561 / 200;
#X obj 236 609 * 200;
#X msg 131 800 200;
#X msg 185 807 -200;
#X obj 439 859 - 200;
#X obj 490 861 + 200;
#X obj 482 766 < -200;
#X obj 399 762 > 200;
#X obj 190 155 t f f f f;
#X obj 330 305 f;
#X text 613 29 wavtable length (samples @ 44.1kHz);
#X obj 326 351 * 1000;
#X obj 328 328 abs;
#X floatatom 435 386 5 0 0 0 - - -;
#X obj 998 49 inlet active;
#X obj 1328 58 inlet set_array;
#X obj 1328 83 unpack s s;
#X msg 1328 108 set \$1;
#X msg 1398 108 set \$1;
#X obj 83 972 hip~ 1;
#X obj 203 966 hip~ 1;
#X obj 50 934 tabread4~ audio-l;
#X obj 228 932 tabread4~ audio-r;
#X connect 0 0 23 0;
#X connect 3 0 36 0;
#X connect 3 0 18 0;
#X connect 4 0 63 0;
#X connect 5 0 31 0;
#X connect 6 0 8 0;
#X connect 6 0 28 0;
#X connect 6 0 64 0;
#X connect 7 0 5 0;
#X connect 7 1 4 1;
#X connect 7 2 4 0;
#X connect 7 3 8 1;
#X connect 8 0 42 0;
#X connect 9 0 3 0;
#X connect 10 0 11 0;
#X connect 10 0 6 0;
#X connect 11 0 5 1;
#X connect 12 0 30 0;
#X connect 13 0 26 0;
#X connect 14 0 13 0;
#X connect 14 0 34 0;
#X connect 14 0 33 0;
#X connect 15 0 23 1;
#X connect 16 0 10 0;
#X connect 17 0 10 1;
#X connect 18 0 76 0;
#X connect 18 0 77 0;
#X connect 19 0 22 0;
#X connect 20 0 19 0;
#X connect 21 0 33 1;
#X connect 22 0 21 0;
#X connect 23 0 29 0;
#X connect 24 0 25 0;
#X connect 25 0 3 0;
#X connect 26 0 24 0;
#X connect 29 0 7 0;
#X connect 30 0 14 0;
#X connect 31 0 30 0;
#X connect 32 0 13 1;
#X connect 33 0 32 0;
#X connect 34 0 32 1;
#X connect 36 0 48 0;
#X connect 37 0 38 0;
#X connect 38 0 39 0;
#X connect 38 0 57 0;
#X connect 39 0 59 0;
#X connect 40 0 3 0;
#X connect 42 0 12 0;
#X connect 42 1 44 0;
#X connect 43 0 56 0;
#X connect 44 0 45 0;
#X connect 44 1 55 0;
#X connect 45 0 9 0;
#X connect 46 0 47 0;
#X connect 47 0 46 1;
#X connect 47 0 53 0;
#X connect 48 0 62 0;
#X connect 48 1 39 1;
#X connect 48 2 61 0;
#X connect 49 0 50 0;
#X connect 50 0 51 0;
#X connect 50 0 58 0;
#X connect 51 0 60 0;
#X connect 52 0 36 0;
#X connect 53 0 76 1;
#X connect 53 0 77 1;
#X connect 55 0 43 0;
#X connect 56 0 45 1;
#X connect 56 0 47 0;
#X connect 57 0 46 0;
#X connect 58 0 46 0;
#X connect 59 0 40 0;
#X connect 60 0 40 0;
#X connect 61 0 49 0;
#X connect 62 0 37 0;
#X connect 63 1 16 0;
#X connect 63 2 17 0;
#X connect 63 3 64 1;
#X connect 64 0 67 0;
#X connect 66 0 20 0;
#X connect 67 0 66 0;
#X connect 68 0 22 1;
#X connect 69 0 52 0;
#X connect 70 0 71 0;
#X connect 71 0 72 0;
#X connect 71 1 73 0;
#X connect 72 0 76 0;
#X connect 73 0 77 0;
#X connect 74 0 1 0;
#X connect 75 0 2 0;
#X connect 76 0 74 0;
#X connect 77 0 75 0;
#X restore 79 415 pd scratchstuff;
#X obj 235 387 lop~ 50;
#X obj 182 305 r \$0-busy;
#X obj 147 183 t f f;
#X obj 147 113 t f b;
#X obj 115 586 *~;
#X obj 219 588 *~;
#X obj 112 642 outlet~;
#X obj 229 644 outlet~;
#X obj 150 24 inlet;
#X obj 857 170 loadbang;
#X obj 1013 384 ==;
#X obj 1021 342 t f f;
#X obj 1011 431 change;
#X obj 1011 456 select 1;
#X msg 1008 484 0 5;
#X obj 1030 282 +;
#X obj 1030 307 t f f;
#X obj 1030 257 * 0.99;
#X obj 1092 307 * 0.01;
#X obj 899 566 vline~;
#X msg 889 207 0 5 \, 1 5 5;
#X msg 1058 491 1 5;
#X obj 1040 193 r \$0-index;
#X text 1126 371 simple precision mechanism for automute when speed=0
, f 19;
#X obj 792 26 bng 15 250 50 0 empty empty empty 17 7 0 10 -262144 -1
-1;
#X obj 149 78 list split 1;
#X obj 500 96 list append 44100;
#X obj 500 125 unpack f;
#X obj 500 154 / 44100;
#X obj 347 254 / 1;
#X text 223 4 wavtable length;
#X text 224 32 Input : float <nb_samples> or list <nb_samples> <samplerate>
, f 31;
#X obj 343 383 list append audio-l audio-r;
#X obj 67 241 s \$0-nb_samples;
#X floatatom 207 216 5 0 0 0 - - -;
#X connect 0 0 38 0;
#X connect 1 0 13 0;
#X connect 2 0 3 0;
#X connect 3 0 9 0;
#X connect 4 0 14 0;
#X connect 7 0 8 0;
#X connect 8 0 1 0;
#X connect 8 1 4 0;
#X connect 9 0 1 1;
#X connect 9 0 4 1;
#X connect 10 0 8 2;
#X connect 11 0 8 1;
#X connect 11 1 0 0;
#X connect 11 1 42 0;
#X connect 11 1 43 0;
#X connect 12 0 11 0;
#X connect 12 1 41 0;
#X connect 13 0 15 0;
#X connect 14 0 16 0;
#X connect 17 0 34 0;
#X connect 18 0 29 0;
#X connect 19 0 21 0;
#X connect 20 0 19 1;
#X connect 20 1 19 0;
#X connect 21 0 22 0;
#X connect 22 0 23 0;
#X connect 22 1 30 0;
#X connect 23 0 28 0;
#X connect 24 0 25 0;
#X connect 25 0 20 0;
#X connect 25 1 27 0;
#X connect 26 0 24 0;
#X connect 27 0 24 1;
#X connect 28 0 14 1;
#X connect 28 0 13 1;
#X connect 29 0 28 0;
#X connect 30 0 28 0;
#X connect 31 0 26 0;
#X connect 34 0 12 0;
#X connect 34 1 35 0;
#X connect 35 0 36 0;
#X connect 36 0 37 0;
#X connect 37 0 38 1;
#X connect 38 0 5 0;
#X connect 41 0 8 3;
#X restore 526 614 pd scratcher;
#N canvas 587 658 1093 835 motor 0;
#N canvas 76 100 958 1018 motor_stuff 0;
#X obj 110 43 inlet;
#X obj 654 403 == 0;
#X obj 554 498 f;
#X obj 709 459 +;
#X obj 752 475 * 0.8;
#X obj 702 497 t f f;
#X obj 544 401 select 0;
#X obj 545 433 t b b;
#X obj 575 696 line;
#X obj 238 675 +;
#X obj 282 678 f;
#X obj 492 764 spigot;
#X obj 742 414 * 0.2;
#X text 769 452 moyennage vitesse;
#X text 659 687 inertie;
#N canvas 0 50 450 300 hysteresis 0;
#X obj 198 40 inlet;
#X obj 162 237 outlet;
#X msg 330 188 0;
#X obj 207 137 moses -0.001;
#X obj 234 91 moses 0.001;
#X connect 0 0 4 0;
#X connect 2 0 1 0;
#X connect 3 0 1 0;
#X connect 3 1 2 0;
#X connect 4 0 3 0;
#X connect 4 1 1 0;
#X restore 576 559 pd hysteresis;
#X text 768 502 = 50 fois par seconde;
#X obj 492 733 f, f 6;
#X obj 525 128 * 0.0111111;
#X obj 532 591 f;
#X obj 524 180 t b f;
#X obj 523 66 inlet motor_speed;
#X obj 324 912 outlet;
#X obj 111 76 s \$0-touch;
#X obj 210 510 spigot;
#X obj 287 479 r \$0-touch;
#X obj 264 51 inlet rotator;
#X obj 454 49 r \$0-set;
#X obj 210 535 t f f f;
#X obj 620 323 r \$0-touch;
#X obj 725 94 metro 20;
#X obj 725 67 r \$0-busy;
#X msg 578 665 \$1 \, \$2 \$3;
#X obj 773 629 r \$0-inertia;
#X text 561 733 increment à la posiiton actuelle;
#X text 260 756 position;
#X text 272 79 -pi \, pi;
#X obj 141 284 -;
#X obj 145 222 t f f f f;
#X obj 232 453 / 6.28;
#X obj 743 366 f;
#X obj 110 913 outlet;
#X obj 112 863 spigot;
#X obj 181 725 t f f;
#X obj 180 832 == 0;
#X obj 186 807 r \$0-touch;
#X obj 147 346 moses -1;
#X obj 238 418 moses 1;
#X obj 199 254 spigot;
#X obj 144 315 t f b;
#X msg 331 267 0;
#X msg 290 242 1;
#X obj 449 123 t f f b;
#X obj 203 375 select 0;
#X floatatom 451 825 5 0 0 0 - - -;
#X obj 577 632 pack f f 100;
#X connect 0 0 23 0;
#X connect 1 0 11 1;
#X connect 2 0 15 0;
#X connect 3 0 5 0;
#X connect 4 0 3 1;
#X connect 5 0 2 1;
#X connect 5 1 4 0;
#X connect 6 0 7 0;
#X connect 7 0 2 0;
#X connect 8 0 17 1;
#X connect 8 0 19 1;
#X connect 9 0 10 0;
#X connect 9 0 43 0;
#X connect 9 0 54 0;
#X connect 10 0 9 1;
#X connect 11 0 9 0;
#X connect 12 0 3 0;
#X connect 15 0 55 0;
#X connect 17 0 11 0;
#X connect 18 0 20 0;
#X connect 19 0 55 0;
#X connect 20 0 19 0;
#X connect 20 1 55 1;
#X connect 21 0 18 0;
#X connect 24 0 28 0;
#X connect 25 0 24 1;
#X connect 26 0 38 0;
#X connect 27 0 52 0;
#X connect 28 1 9 0;
#X connect 28 2 40 1;
#X connect 29 0 6 0;
#X connect 29 0 1 0;
#X connect 30 0 17 0;
#X connect 30 0 40 0;
#X connect 31 0 30 0;
#X connect 32 0 8 0;
#X connect 33 0 55 2;
#X connect 37 0 49 0;
#X connect 38 0 37 1;
#X connect 38 1 37 0;
#X connect 38 2 48 0;
#X connect 39 0 24 0;
#X connect 40 0 12 0;
#X connect 42 0 41 0;
#X connect 43 0 42 0;
#X connect 43 1 22 0;
#X connect 44 0 42 1;
#X connect 45 0 44 0;
#X connect 46 1 53 0;
#X connect 47 0 39 0;
#X connect 48 0 37 1;
#X connect 49 0 46 0;
#X connect 49 1 50 0;
#X connect 50 0 48 1;
#X connect 51 0 48 1;
#X connect 52 0 10 0;
#X connect 52 1 41 0;
#X connect 52 2 51 0;
#X connect 53 1 47 0;
#X connect 55 0 32 0;
#X restore 568 138 pd motor_stuff;
#X obj 778 374 moses 0;
#X obj 834 422 moses 1;
#X obj 812 274 r \$0-nb_revolutions;
#X obj 779 349 * 1;
#X obj 812 324 /;
#X msg 812 299 1 \$1;
#X obj 886 308 r \$0-from;
#X obj 905 368 r \$0-to;
#X obj 775 401 t b;
#X obj 901 454 t b;
#X obj 905 482 f;
#X obj 879 592 * 1;
#X obj 881 624 s \$0-set;
#X obj 906 565 r \$0-nb_revolutions;
#X obj 196 140 r \$0-index;
#X obj 147 241 f;
#X obj 292 239 f;
#X obj 147 181 r \$0-in;
#X obj 286 177 r \$0-out;
#X obj 147 263 s \$0-from;
#X obj 284 271 s \$0-to;
#X obj 666 483 r \$0-seek;
#X obj 863 126 s \$0-seek;
#X obj 653 84 s \$0-in;
#X obj 717 84 s \$0-out;
#X text 896 19 set_ext_array <size> <array-l> <array-r>;
#X obj 775 544 t f f b;
#X obj 866 93 pipe 10;
#X obj 416 13 inlet;
#X obj 474 46 route touch rotate speed in out seek set_ext_array;
#X obj 782 451 f 1;
#X msg 385 181 1;
#X msg 90 181 0;
#X msg 281 48 speed \$1;
#X msg 231 13 1;
#X msg 292 14 -1;
#N canvas 0 50 450 300 convert->(-pi..pi) 0;
#X obj 143 11 inlet;
#X obj 304 43 + 0.5;
#X obj 304 72 t f f;
#X obj 304 101 int;
#X obj 304 130 -;
#X obj 303 227 * 6.28319;
#X obj 301 158 * -1;
#X obj 302 192 - 0.5;
#X obj 303 256 outlet;
#X connect 0 0 1 0;
#X connect 1 0 2 0;
#X connect 2 0 3 0;
#X connect 2 1 4 1;
#X connect 3 0 4 0;
#X connect 4 0 6 0;
#X connect 5 0 8 0;
#X connect 6 0 7 0;
#X connect 7 0 5 0;
#X restore 486 191 pd convert->(-pi..pi);
#X obj 486 220 outlet;
#X obj 774 736 s \$0-index;
#X obj 783 692 change;
#X connect 0 0 37 0;
#X connect 0 1 4 0;
#X connect 1 0 9 0;
#X connect 1 1 2 0;
#X connect 2 0 40 0;
#X connect 2 1 10 0;
#X connect 3 0 6 0;
#X connect 4 0 1 0;
#X connect 5 0 4 1;
#X connect 6 0 5 0;
#X connect 7 0 1 1;
#X connect 7 0 11 1;
#X connect 8 0 2 1;
#X connect 8 0 31 1;
#X connect 9 0 31 0;
#X connect 10 0 11 0;
#X connect 11 0 27 0;
#X connect 12 0 13 0;
#X connect 14 0 12 1;
#X connect 15 0 16 1;
#X connect 15 0 17 1;
#X connect 16 0 20 0;
#X connect 17 0 21 0;
#X connect 18 0 16 0;
#X connect 19 0 17 0;
#X connect 22 0 27 0;
#X connect 27 0 40 0;
#X connect 27 1 12 0;
#X connect 28 0 23 0;
#X connect 29 0 30 0;
#X connect 30 0 0 0;
#X connect 30 1 0 1;
#X connect 30 2 0 2;
#X connect 30 3 24 0;
#X connect 30 4 25 0;
#X connect 30 5 28 0;
#X connect 31 0 27 0;
#X connect 32 0 17 0;
#X connect 33 0 16 0;
#X connect 34 0 30 0;
#X connect 35 0 34 0;
#X connect 36 0 34 0;
#X connect 37 0 38 0;
#X connect 40 0 39 0;
#X restore 746 502 pd motor;
#X obj 526 691 dac~;
#N canvas 0 50 450 300 loadsample 0;
#X obj 40 339 outlet;
#X obj 80 239 soundfiler;
#X obj 86 56 openpanel;
#X msg 84 188 read -resize \$1 \$2 \$3;
#X obj 90 28 inlet;
#X obj 87 84 s soundfile;
#X obj 84 123 r soundfile;
#X obj 62 292 list append;
#X obj 82 152 list append audio-l /audio;
#X connect 1 0 7 0;
#X connect 1 1 7 1;
#X connect 2 0 5 0;
#X connect 3 0 1 0;
#X connect 4 0 2 0;
#X connect 6 0 8 0;
#X connect 7 0 0 0;
#X connect 8 0 3 0;
#X restore 526 512 pd loadsample;
#X obj 32 611 tgl 100 0 play play-rcv empty 17 7 0 10 -204786 -4034
-1 0 1;
#X text 58 652 PLAY;
#X obj 859 446 r play;
#X msg 858 476 speed \$1;
#X obj 506 209 loadbang;
#X msg 506 238 1;
#X obj 506 267 s \$0-busy;
#X obj 491 344 s \$0-vol;
#X msg 934 32 \; mob_save bang;
#X msg 935 88 \; mob_load bang;
#X obj 321 7 tgl 100 0 rec rec-rcv empty 17 7 0 10 -261682 -258113
-1 0 1;
#X text 357 31 REC;
#N canvas 0 50 753 485 rec 0;
#X obj 100 46 adc~;
#X obj 296 36 r rec;
#X obj 296 74 select 1 0;
#X obj 296 108 timer;
#X msg 182 93 stop;
#X obj 330 173 samplerate~;
#X obj 296 137 t f b;
#X obj 330 202 / 1000;
#X obj 290 234 *;
#X obj 262 348 outlet;
#X obj 293 289 pack f f;
#X obj 60 198 tabwrite~ audio-l;
#X obj 87 155 tabwrite~ audio-r;
#X connect 0 0 11 0;
#X connect 0 0 12 0;
#X connect 0 1 11 0;
#X connect 0 1 12 0;
#X connect 1 0 2 0;
#X connect 2 0 3 0;
#X connect 2 0 11 0;
#X connect 2 0 12 0;
#X connect 2 1 3 1;
#X connect 2 1 4 0;
#X connect 3 0 6 0;
#X connect 4 0 11 0;
#X connect 4 0 12 0;
#X connect 5 0 7 0;
#X connect 5 0 10 1;
#X connect 6 0 8 0;
#X connect 6 1 5 0;
#X connect 7 0 8 1;
#X connect 8 0 10 0;
#X connect 10 0 9 0;
#X restore 556 537 pd rec;
#X obj 70 6 mob/hfader;
#A saved -invisible 0.79661;
#A saved -z_offset 99;
#A saved -mode 1;
#A saved -max 127;
#A saved -min 0;
#A saved -name volume;
#A saved -speed_ratio 140.405;
#A saved -front_color -1.30135e+07;
#A saved -cursor_color 0;
#A saved -back_color -7.90492e+06;
#A saved -size 245 96;
#X text 149 41 VOLUME;
#X obj 490 308 r volume;
#X obj 24 126 mob/hfader;
#A saved -invisible 0.813559;
#A saved -z_offset 99;
#A saved -mode 0;
#A saved -max 1;
#A saved -min 0;
#A saved -name index;
#A saved -speed_ratio 100;
#A saved -front_color -55809;
#A saved -cursor_color 0;
#A saved -back_color -1.39481e+07;
#A saved -size 400 49;
#N canvas 0 50 450 250 (subpatch) 0;
#X array sample 77 float 0;
#X coords 0 1 76 -1 400 50 1 0 0;
#X restore 25 126 graph;
#X obj 614 327 r \$0-index;
#X obj 614 356 s index;
#X msg 964 447 touch \$1;
#X msg 967 478 rotate \$1;
#N canvas 0 50 450 250 (subpatch) 0;
#X array sample_ 77 float 0;
#X coords 0 1 76 -1 400 50 1 0 0;
#X restore 25 126 graph;
#X msg 781 537 set \$1;
#X obj 618 384 r jog;
#X obj 34 208 mob/jog;
#A saved -invisible 0;
#A saved -z_offset 0;
#A saved -name jog;
#A saved -cursor_color -1;
#A saved -back_color -1.01321e+07;
#A saved -size 377;
#X text 205 250 mob/jog;
#X obj 526 652 clip~ -1 1;
#X obj 643 652 clip~ -1 1;
#X obj 793 195 array define audio-l 441000;
#X obj 795 228 array define audio-r 441000;
#X msg 1021 564 set audio-l audio-r sample;
#N canvas 0 50 1242 732 compute_enveloppe 0;
#X obj 75 30 inlet;
#X obj 161 103 list;
#X obj 246 119 unpack s s s;
#X obj 106 247 / 1024;
#X msg 101 307 1;
#X obj 39 290 t b b;
#X obj 340 695 f;
#X obj 22 477 tabplay~;
#X msg 181 328 set \$1;
#X obj 104 520 env~;
#X obj 102 448 tabplay~;
#X msg 238 328 set \$1;
#X obj 35 825 array set;
#X obj 30 756 t f b;
#X obj 61 790 f;
#X obj 114 792 + 1;
#X obj 342 792 outlet done;
#X obj 69 168 t b b s s b;
#X msg 185 679 0;
#X obj 427 562 log;
#X floatatom 427 587 5 0 0 0 - - -;
#X msg 426 460 1;
#X msg 472 461 0.1;
#X obj 102 417 switch~ 1024 1 16;
#X obj 13 560 max 0.1;
#X obj 13 585 min 1;
#X obj 13 610 log;
#X obj 13 635 + 2.3;
#X obj 13 660 / 2.3;
#X obj 88 74 route bang set;
#X obj 75 133 symbol;
#X obj 88 99 t b;
#X obj 98 670 max 0;
#X msg 379 192 symbol \$1_;
#X obj 168 820 array set;
#X obj 163 751 t f b;
#X obj 194 785 f;
#X obj 247 787 + 1;
#X obj 98 695 * -1;
#X obj 95 556 dbtorms;
#X obj 97 641 min 1;
#X obj 212 191 v \$0-nb_samples;
#X msg 520 208 \; sample resize 10;
#X obj 437 272 list append;
#X msg 437 297 \; \$2 resize \$1 \; \$2_ resize \$1;
#X floatatom 106 272 5 0 0 0 - - -;
#X floatatom 212 216 5 0 0 0 - - -;
#X obj 210 168 bng 15 250 50 0 empty empty empty 17 7 0 10 -262144
-1 -1;
#X obj 618 679 list append;
#X obj 340 724 t f b;
#X msg 627 736 \; \$1 normalize \; \$1_ normalize;
#X connect 0 0 29 0;
#X connect 1 0 2 0;
#X connect 2 0 30 1;
#X connect 2 1 11 0;
#X connect 2 2 12 2;
#X connect 2 2 33 0;
#X connect 2 2 43 1;
#X connect 2 2 48 1;
#X connect 3 0 6 1;
#X connect 3 0 43 0;
#X connect 3 0 45 0;
#X connect 4 0 23 0;
#X connect 5 0 7 0;
#X connect 5 0 10 0;
#X connect 5 1 4 0;
#X connect 6 0 49 0;
#X connect 7 0 9 0;
#X connect 7 1 6 0;
#X connect 8 0 7 0;
#X connect 9 0 39 0;
#X connect 10 0 9 0;
#X connect 11 0 10 0;
#X connect 13 0 12 0;
#X connect 13 1 14 0;
#X connect 14 0 15 0;
#X connect 14 0 12 1;
#X connect 15 0 14 1;
#X connect 17 0 5 0;
#X connect 17 1 41 0;
#X connect 17 3 8 0;
#X connect 17 4 18 0;
#X connect 18 0 14 1;
#X connect 18 0 36 1;
#X connect 19 0 20 0;
#X connect 21 0 19 0;
#X connect 22 0 19 0;
#X connect 24 0 25 0;
#X connect 25 0 26 0;
#X connect 26 0 27 0;
#X connect 27 0 28 0;
#X connect 29 0 31 0;
#X connect 29 1 1 0;
#X connect 30 0 17 0;
#X connect 31 0 30 0;
#X connect 32 0 13 0;
#X connect 32 0 38 0;
#X connect 33 0 34 2;
#X connect 35 0 34 0;
#X connect 35 1 36 0;
#X connect 36 0 37 0;
#X connect 36 0 34 1;
#X connect 37 0 36 1;
#X connect 38 0 35 0;
#X connect 39 0 40 0;
#X connect 40 0 32 0;
#X connect 41 0 3 0;
#X connect 41 0 46 0;
#X connect 43 0 44 0;
#X connect 47 0 41 0;
#X connect 48 0 50 0;
#X connect 49 0 16 0;
#X connect 49 1 48 0;
#X restore 1021 591 pd compute_enveloppe;
#X obj 1021 530 loadbang;
#X obj 522 571 t l b;
#X obj 920 561 delay 10;
#X obj 1024 686 s toGUI;
#X obj 1022 618 delay 10;
#X msg 1023 653 list sample refresh \, list sample_ refresh;
#X obj 781 566 s jog-rcv;
#X obj 758 426 r jog.touch;
#X msg 758 455 touch \$1;
#X msg 616 427 rotate \$1;
#X connect 3 0 34 0;
#X connect 3 1 35 0;
#X connect 4 0 30 0;
#X connect 6 0 41 0;
#X connect 9 0 10 0;
#X connect 10 0 4 0;
#X connect 11 0 12 0;
#X connect 12 0 13 0;
#X connect 19 0 41 0;
#X connect 22 0 14 0;
#X connect 25 0 26 0;
#X connect 27 0 4 0;
#X connect 28 0 4 0;
#X connect 30 0 46 0;
#X connect 31 0 49 0;
#X connect 34 0 5 0;
#X connect 35 0 5 1;
#X connect 38 0 39 0;
#X connect 39 0 44 0;
#X connect 40 0 38 0;
#X connect 41 0 3 0;
#X connect 41 1 42 0;
#X connect 42 0 39 0;
#X connect 44 0 45 0;
#X connect 45 0 43 0;
#X connect 47 0 48 0;
#X connect 48 0 4 0;
#X connect 49 0 4 0;
