#N struct bckgrnd float x float y float width float height float color
;
#N struct struct_framerect float lx float ty float rx float by float
width float color;
#N struct struct_paintoval float lx float ty float rx float by float
width float color;
#N canvas 489 396 1036 618 12;
#X declare -path ../;
#X scalar bckgrnd 0 0 320 568 666 \;;
#X obj 50 75 mob/lcd mylcd;
#A saved -back_alpha 1;
#A saved -front_alpha 1;
#A saved -front_color 150 150 150;
#A saved -back_color 220 220 220;
#A saved -title ;
#A saved -name mylcd;
#A saved -size 223 207;
#X obj 498 73 metro 100;
#X obj 496 29 loadbang;
#X obj 498 98 f;
#X obj 505 152 t f f f;
#X obj 495 189 cos;
#X obj 544 187 sin;
#X obj 495 214 * 0.3;
#X obj 546 215 * 0.3;
#X obj 495 239 + 0.5;
#X obj 546 240 + 0.5;
#X obj 505 127 + 0.03;
#X obj 664 40 mob;
#A saved -R 192.756;
#A saved -G 194.764;
#A saved -B 178.701;
#A saved -pages 1;
#A saved -mode 1;
#A saved -landscape 0;
#A saved -zoom 1;
#X obj 501 366 r mylcd;
#X obj 501 391 route 2;
#X obj 501 416 unpack f f;
#X msg 554 507 draw line;
#N canvas 0 50 450 300 mob-listeners 0;
#X obj 20 50 mob/listenerLCD mylcd mylcd-rcv;
#X obj 20 100 mob/listenerTgl rendering rendering-rcv 1;
#X obj 20 0 mob/loader main;
#X restore 340 6 pd mob-listeners;
#X obj 571 474 loadbang;
#X obj 761 400 tgl 50 1 rendering rendering-rcv empty 17 7 0 10 -262144
-1 -1 1 1;
#X obj 596 302 declare -path ../;
#X obj 342 234 mob/lcd_head mylcd;
#X obj 341 278 mob/lcd_translate;
#X obj 341 328 mob/lcd_circle 0.1;
#X obj 341 428 mob/lcd_head mylcd;
#X obj 340 457 mob/lcd_translate 0.5 0.5;
#X text 729 298 <- added because this patch is in a subfolder on the
target platform, f 34;
#X obj 754 464 mob/lcd_render mylcd;
#X obj 341 303 mob/lcd_color 0.8 0.2 0 1;
#X obj 341 485 mob/lcd_color 0.2 0.2 1 1;
#X obj 342 511 mob/lcd_penwidth 5;
#X obj 342 542 mob/lcd_rectangle 0.2 0.2;
#X connect 2 0 4 0;
#X connect 3 0 2 0;
#X connect 4 0 12 0;
#X connect 5 0 6 0;
#X connect 5 1 7 0;
#X connect 5 2 4 1;
#X connect 6 0 8 0;
#X connect 7 0 9 0;
#X connect 8 0 10 0;
#X connect 9 0 11 0;
#X connect 10 0 23 1;
#X connect 11 0 23 2;
#X connect 12 0 5 0;
#X connect 14 0 15 0;
#X connect 15 0 16 0;
#X connect 16 0 26 1;
#X connect 16 1 26 2;
#X connect 17 0 32 0;
#X connect 19 0 17 0;
#X connect 20 0 28 0;
#X connect 22 0 23 0;
#X connect 23 0 29 0;
#X connect 25 0 26 0;
#X connect 26 0 30 0;
#X connect 29 0 24 0;
#X connect 30 0 31 0;
#X connect 31 0 32 0;
