#N canvas 0 57 1920 1023 12;
#X obj 77 400 r fromGUI;
#X obj 77 473 list split 1;
#X obj 63 536 list append;
#X obj 65 503 t b s;
#X obj 102 610 s;
#X obj 63 565 list trim;
#X obj 330 210 delay 1000;
#X obj 328 184 loadbang;
#X obj 328 255 select 0.48;
#X obj 328 232 v pd_version;
#X obj 45 181 savestate;
#X text 52 439 @ mobmuplat;
#X obj 328 279 s mob_load;
#X text 68 362 MobMuPlat wrapper;
#X msg 787 308 -1;
#X msg 726 641 1e+06;
#X obj 696 600 t l b;
#X msg 680 418 save;
#X obj 696 569 spigot;
#X msg 738 379 1;
#X msg 640 520 0;
#X obj 780 354 text delete \$0-scene_state, f 15;
#X obj 694 685 text set \$0-scene_state;
#X obj 584 351 t b b;
#X msg 1563 416 trying tor read \$1.savestate ...;
#X obj 1540 330 list prepend \$1;
#X msg 1540 355 symbol \$1-\$2;
#X obj 1534 385 t s s;
#X obj 865 267 symbol \$1;
#X obj 905 441 symbol;
#X obj 913 162 list prepend \$1;
#X msg 913 187 symbol \$1-\$2;
#X obj 846 126 route bang;
#X obj 1367 203 route bang;
#X obj 1493 281 t b a;
#X obj 839 160 t b b;
#X obj 913 212 t b s;
#X obj 680 444 s RJ_SCENE_SAVE;
#X obj 695 506 r RJ_SCENE;
#X obj 586 320 delay 500;
#X obj 1560 446 print mob;
#X msg 906 674 write ./data/\$1.savestate;
#X msg 1533 474 read ./data/\$1.savestate;
#X obj 846 97 r mob_save;
#X obj 1366 167 r mob_load;
#X obj 899 802 text define -k \$0-scene_state;
#A set;
#X obj 1366 291 t b;
#X obj 627 273 t b b b b, f 24;
#X msg 937 507 writing savestate into ./data/\$1.savestate ...;
#X obj 912 474 t s s;
#X obj 937 540 print mob;
#X text 45 79 if pd=0.48 \, [savestate] is replaced by mob/savestate
abstraction that defines pd_version as 0.48, f 23;
#X text 315 80 On startup \, check pd version;
#X text 301 111 if ver = 0.48 \, force reading of preset \, stored
internally in the patch or saved as <parent_patch_name>.savestate;
#X msg 1349 853 bang;
#X text 1489 782 output all lines starting from current one to next
waiting point, f 34;
#X obj 1337 951 list trim;
#X msg 1406 582 clear, f 7;
#X obj 1373 515 t b b;
#X obj 1347 826 delay 10;
#X msg 1384 906 line 0;
#X obj 1372 712 select 0;
#X obj 1371 683 text size \$0-scene_state;
#X obj 1337 929 text sequence \$0-scene_state;
#X msg 1329 742 failed !;
#X msg 1469 837 success !;
#X obj 1422 772 t b b b;
#X obj 1435 618 s ctl-assign3.GLOBAL;
#X obj 1408 646 s PdRacks.define.midi-mapping;
#X obj 1337 973 s RJ_SCENE_LOAD;
#X obj 1468 867 print mob;
#X text 1643 623 PdRacks stuff;
#X text 1642 648 https://github.com/jyg/pdr;
#X obj 1329 769 print mob;
#X text 1095 32 RJ_SCENE-style preset handler;
#X connect 0 0 1 0;
#X connect 1 0 3 0;
#X connect 1 1 2 1;
#X connect 2 0 5 0;
#X connect 3 0 2 0;
#X connect 3 1 4 1;
#X connect 5 0 4 0;
#X connect 6 0 9 0;
#X connect 7 0 6 0;
#X connect 8 0 12 0;
#X connect 9 0 8 0;
#X connect 14 0 21 0;
#X connect 15 0 22 1;
#X connect 16 0 22 0;
#X connect 16 1 15 0;
#X connect 17 0 37 0;
#X connect 18 0 16 0;
#X connect 19 0 18 1;
#X connect 20 0 18 1;
#X connect 23 0 29 0;
#X connect 23 1 20 0;
#X connect 24 0 40 0;
#X connect 25 0 26 0;
#X connect 26 0 27 0;
#X connect 27 0 42 0;
#X connect 27 1 24 0;
#X connect 28 0 29 1;
#X connect 29 0 49 0;
#X connect 30 0 31 0;
#X connect 31 0 36 0;
#X connect 32 0 35 0;
#X connect 32 1 30 0;
#X connect 33 0 46 0;
#X connect 33 1 34 0;
#X connect 34 0 58 0;
#X connect 34 1 25 0;
#X connect 35 0 47 0;
#X connect 35 1 28 0;
#X connect 36 0 47 0;
#X connect 36 1 29 1;
#X connect 38 0 18 0;
#X connect 39 0 23 0;
#X connect 41 0 45 0;
#X connect 42 0 45 0;
#X connect 43 0 32 0;
#X connect 44 0 33 0;
#X connect 46 0 58 0;
#X connect 47 0 39 0;
#X connect 47 1 17 0;
#X connect 47 2 19 0;
#X connect 47 3 14 0;
#X connect 48 0 50 0;
#X connect 49 0 41 0;
#X connect 49 1 48 0;
#X connect 54 0 63 0;
#X connect 56 0 69 0;
#X connect 57 0 67 0;
#X connect 57 0 68 0;
#X connect 58 0 62 0;
#X connect 58 1 57 0;
#X connect 59 0 54 0;
#X connect 60 0 63 0;
#X connect 61 0 64 0;
#X connect 61 1 66 0;
#X connect 62 0 61 0;
#X connect 63 0 56 0;
#X connect 64 0 73 0;
#X connect 65 0 70 0;
#X connect 66 0 59 0;
#X connect 66 1 60 0;
#X connect 66 2 65 0;
